<svg width="647" height="450" viewBox="0 0 647 450" fill="none" xmlns="http://www.w3.org/2000/svg">
<path d="M545.655 340.32L538.75 444.598C538.712 445.128 538.475 445.624 538.087 445.987C537.699 446.35 537.188 446.553 536.656 446.555C536.377 446.556 536.1 446.499 535.843 446.39C535.586 446.281 535.353 446.121 535.159 445.92C534.965 445.719 534.813 445.481 534.713 445.219C534.614 444.958 534.567 444.68 534.578 444.401L537.415 340.32H545.655Z" fill="black" stroke="black" stroke-linecap="round" stroke-linejoin="round"/>
<path d="M563.318 340.32L570.222 444.598C570.257 445.127 570.49 445.623 570.876 445.986C571.262 446.349 571.771 446.553 572.301 446.555C572.581 446.555 572.859 446.499 573.117 446.39C573.375 446.281 573.608 446.122 573.804 445.921C573.999 445.72 574.152 445.482 574.253 445.221C574.355 444.96 574.403 444.681 574.395 444.401L571.527 340.381L563.318 340.32Z" fill="black" stroke="black" stroke-linecap="round" stroke-linejoin="round"/>
<path d="M494.093 340.32L500.997 444.598C501.032 445.127 501.265 445.623 501.651 445.986C502.037 446.349 502.546 446.553 503.076 446.555C503.356 446.555 503.633 446.499 503.892 446.39C504.15 446.281 504.383 446.122 504.579 445.921C504.774 445.72 504.927 445.482 505.028 445.221C505.13 444.96 505.178 444.681 505.17 444.401L502.287 340.381L494.093 340.32Z" fill="black" stroke="black" stroke-linecap="round" stroke-linejoin="round"/>
<path d="M465.883 340.32L458.979 444.598C458.941 445.128 458.704 445.624 458.316 445.987C457.927 446.35 457.417 446.553 456.885 446.555C456.606 446.553 456.329 446.496 456.072 446.386C455.815 446.276 455.582 446.117 455.387 445.916C455.192 445.716 455.039 445.478 454.937 445.218C454.835 444.958 454.785 444.68 454.791 444.401L457.674 340.381L465.883 340.32Z" fill="black" stroke="black" stroke-linecap="round" stroke-linejoin="round"/>
<path d="M586.17 235.192C586.17 235.192 517.279 232.613 511.452 232.613C505.625 232.613 504.275 235.192 504.275 235.192L494.442 304.524C494.442 304.524 463.865 295.798 457.872 296.937C451.878 298.075 460.831 341.579 460.831 341.579H495.428L496.05 338.969H574.168L594.911 240.154C593.651 235.632 586.17 235.192 586.17 235.192Z" fill="white" stroke="black" stroke-linecap="round" stroke-linejoin="round"/>
<path d="M559.949 278.56C559.949 278.56 566.96 324.083 558.917 329.394C557.673 330.214 550.92 334.099 544.608 333.461C539.54 332.945 503.728 333.461 503.728 333.461C503.728 333.461 498.751 323.992 497.75 317.012C496.748 310.032 504.578 280.078 504.578 280.078L559.949 278.56Z" fill="white" stroke="black" stroke-linecap="round" stroke-linejoin="round"/>
<path d="M501.3 302.946C501.3 302.946 449.465 308.333 447.022 309.789C444.579 311.246 433.365 321.033 435.292 327.391C437.219 333.75 432.363 334.235 436.81 335.221C441.256 336.208 504.275 336.193 504.275 336.193" fill="#D71635"/>
<path d="M501.3 302.946C501.3 302.946 449.465 308.333 447.022 309.789C444.579 311.246 433.365 321.033 435.292 327.391C437.219 333.75 432.363 334.235 436.81 335.221C441.256 336.208 504.275 336.193 504.275 336.193" stroke="black" stroke-linecap="round" stroke-linejoin="round"/>
<path d="M454.154 341.504H577.324V332.308H454.154V341.504Z" fill="white" stroke="black" stroke-linecap="round" stroke-linejoin="round"/>
<path d="M548.235 304.903H474.032C474.032 304.903 470.132 309.304 469.632 318.56C469.131 327.816 470.132 329.804 476.976 332.217C483.82 334.63 544.608 333.4 544.608 333.4" fill="#D71635"/>
<path d="M548.235 304.903H474.032C474.032 304.903 470.132 309.304 469.632 318.56C469.131 327.816 470.132 329.804 476.976 332.217C483.82 334.63 544.608 333.4 544.608 333.4" stroke="black" stroke-linecap="round" stroke-linejoin="round"/>
<path d="M489.768 422.656L481.999 404.249L469.267 406.662L479.009 423.081L473.395 434.325L461.255 442.261C461.255 442.261 459.844 443.657 465.914 443.187C471.984 442.716 484.578 443.187 484.578 443.187L492.515 433.854C492.515 433.854 495.398 429.105 489.768 422.656Z" fill="white" stroke="black" stroke-linecap="round" stroke-linejoin="round"/>
<path d="M493.167 430.698L493.486 442.731H491.589L489.055 436.722L493.167 430.698Z" fill="black" stroke="black" stroke-linecap="round" stroke-linejoin="round"/>
<path d="M484.594 443.247L492.53 433.915C492.53 433.915 494.578 430.44 491.756 425.433C486.111 435.084 478.6 437.982 478.6 437.982L470.77 436.1L461.271 442.322C461.271 442.322 459.859 443.718 465.929 443.247C471.999 442.777 484.594 443.247 484.594 443.247Z" fill="black" stroke="black" stroke-linecap="round" stroke-linejoin="round"/>
<path d="M459.253 328.863L485.277 407.542L466.809 410.82L430.391 328.878C430.391 328.878 427.462 316.648 435.277 312.748C443.092 308.848 466.081 306.876 466.081 306.876" fill="#D71635"/>
<path d="M459.253 328.863L485.277 407.542L466.809 410.82L430.391 328.878C430.391 328.878 427.462 316.648 435.277 312.748C443.092 308.848 466.081 306.876 466.081 306.876" stroke="black" stroke-linecap="round" stroke-linejoin="round"/>
<path d="M542.727 341.488C542.727 341.488 533.759 297.923 539.768 296.846C545.777 295.768 576.338 304.433 576.338 304.433L586.171 235.192C586.171 235.192 596.55 233.553 597.642 242.779C598.735 252.005 577.324 341.488 577.324 341.488H542.727Z" fill="black" stroke="black" stroke-linecap="round" stroke-linejoin="round"/>
<path d="M437.128 213.22L432.5 205.633C432.054 204.906 431.426 204.308 430.678 203.898C429.93 203.488 429.089 203.281 428.236 203.296L423.881 203.372L416.43 201.141C415.957 201.003 415.454 201.009 414.983 201.157C414.513 201.306 414.098 201.591 413.79 201.976L413.517 202.325L420.376 205.36L413.532 207.878L406.264 204.191C405.977 204.044 405.648 204.003 405.334 204.075C405.021 204.148 404.742 204.328 404.549 204.586C404.328 204.872 404.23 205.233 404.276 205.592C404.321 205.95 404.507 206.276 404.792 206.498L414.959 214.343C415.277 214.59 415.645 214.767 416.038 214.861C416.43 214.956 416.838 214.965 417.235 214.889L428.479 212.628L431.62 216.057L437.128 213.22Z" fill="white" stroke="black" stroke-linecap="round" stroke-linejoin="round"/>
<path d="M515.519 197.651L473.835 241.247L434.048 209.092L428.555 213.083L472.333 262.688L510.284 242.248L515.519 197.651Z" fill="white" stroke="black" stroke-linecap="round" stroke-linejoin="round"/>
<path d="M577.885 208.789L599.736 275.935L580.89 276.482L562.149 244.965C562.149 244.965 572.68 213.174 577.885 208.789Z" fill="white" stroke="black" stroke-linecap="round" stroke-linejoin="round"/>
<path d="M554.107 197.256L577.885 208.865L557.977 264.539L560.329 280.063L504.578 280.154L511.224 255.146L506.672 239.122C506.081 237.043 506.05 234.845 506.581 232.749L515.504 197.727L538.933 193.964L554.107 197.256Z" fill="white" stroke="black" stroke-linecap="round" stroke-linejoin="round"/>
<path d="M552.969 193.994C552.969 193.994 557.643 197.15 557.794 199.957C557.87 201.611 557.794 204.51 557.643 206.725C557.559 208.456 557.163 210.158 556.474 211.748L548.053 221.915L538.311 214.221L530.223 218.349C530.223 218.349 528.705 205.951 532.241 197.302C535.776 188.653 551.163 191.824 552.969 193.994Z" fill="white" stroke="black" stroke-linecap="round" stroke-linejoin="round"/>
<path d="M559.661 169.943C559.661 169.943 557.749 176.817 556.853 181.369C555.958 185.921 554.152 195.026 554.319 198.44C554.486 201.854 540.116 216.391 538.31 214.221C536.505 212.051 534.608 199.442 534.608 199.442L536.398 179.047C536.398 179.047 555.124 158.304 559.661 169.943Z" fill="white" stroke="black" stroke-linecap="round" stroke-linejoin="round"/>
<path d="M529.631 159.321C529.631 159.321 527.066 163.554 527.066 165.39C527.066 167.226 527.962 170.823 527.81 171.87C527.658 172.917 525.109 176.422 524.775 177.606C524.607 178.087 524.621 178.614 524.814 179.086C525.007 179.558 525.365 179.944 525.822 180.17C526.442 180.488 527.045 180.837 527.628 181.217C527.628 181.217 528.387 190.565 529.601 192.977C530.815 195.39 531.862 196.452 535.473 196.756C539.085 197.059 547.688 193.281 548.887 190.261C550.086 187.241 550.253 183.63 550.405 179.26C550.556 174.889 547.537 168.638 545.276 162.674C543.015 156.711 533.546 153.433 529.631 159.321Z" fill="white" stroke="black" stroke-linecap="round" stroke-linejoin="round"/>
<path d="M568.553 190.185C574.947 190.185 580.131 185.002 580.131 178.607C580.131 172.213 574.947 167.029 568.553 167.029C562.159 167.029 556.975 172.213 556.975 178.607C556.975 185.002 562.159 190.185 568.553 190.185Z" fill="black" stroke="black" stroke-linecap="round" stroke-linejoin="round"/>
<path d="M529.57 158.668C529.57 158.668 534.229 154.647 542.605 162.644C550.981 170.641 547.795 182.204 553.394 184.601C558.993 186.999 569.357 175.011 570.556 169.032C571.755 163.054 568.159 150.656 556.975 148.259C545.792 145.861 532.089 147.5 529.57 158.668Z" fill="black" stroke="black" stroke-linecap="round" stroke-linejoin="round"/>
<path d="M529.57 158.668C529.471 157.728 529.587 156.777 529.91 155.888C530.234 155 530.755 154.197 531.436 153.54C532.116 152.883 532.937 152.39 533.836 152.098C534.736 151.806 535.69 151.723 536.626 151.855C544.213 152.265 545.002 164.237 548.993 169.032C552.984 173.827 554.987 173.023 554.987 173.023C554.987 173.023 548.204 175.011 543.804 172.613C539.403 170.216 537.279 156.695 529.57 158.668Z" fill="black" stroke="black" stroke-linecap="round" stroke-linejoin="round"/>
<path d="M541.968 150.459C545.96 152.925 549.129 156.522 551.072 160.793C554.517 168.091 554.517 174.116 562.696 173.691C562.696 173.691 558.826 174.556 552.802 171.536C546.778 168.516 545.488 159.928 541.619 156.483C539.508 154.485 536.777 153.27 533.88 153.038" stroke="white" stroke-width="0.5" stroke-linecap="round" stroke-linejoin="round"/>
<path d="M570.556 169.032C570.556 169.032 570.207 179.988 561.8 182.295" stroke="white" stroke-width="0.5" stroke-linecap="round" stroke-linejoin="round"/>
<path d="M547.096 180.216C547.096 180.216 555.108 169.73 556.99 177.56C558.872 185.39 552.438 187.302 549.403 186.407C546.368 185.512 546.793 183.888 546.793 183.888" fill="white"/>
<path d="M547.096 180.216C547.096 180.216 555.108 169.73 556.99 177.56C558.872 185.39 552.438 187.302 549.403 186.407C546.368 185.512 546.793 183.888 546.793 183.888" stroke="black" stroke-linecap="round" stroke-linejoin="round"/>
<path d="M529.267 269.941C529.267 269.941 513.971 272.066 511.422 272.066C508.872 272.066 502.499 280.139 502.499 280.139H530.541L529.267 269.941Z" fill="white" stroke="black" stroke-linecap="round" stroke-linejoin="round"/>
<path d="M594.243 259.653L599.736 272.035C599.982 272.764 600.053 273.541 599.942 274.302C599.831 275.064 599.542 275.788 599.099 276.417C598.655 277.045 598.069 277.56 597.389 277.92C596.709 278.279 595.953 278.472 595.184 278.485L528.872 278.864L529.297 269.941L580.708 261.808" fill="white"/>
<path d="M594.243 259.653L599.736 272.035C599.982 272.764 600.053 273.541 599.942 274.302C599.831 275.064 599.542 275.788 599.099 276.417C598.655 277.045 598.069 277.56 597.389 277.92C596.709 278.279 595.953 278.472 595.184 278.485L528.872 278.864L529.297 269.941L580.708 261.808" stroke="black" stroke-linecap="round" stroke-linejoin="round"/>
<path d="M505.489 430.698L505.807 442.731H503.911L501.376 436.722L505.489 430.698Z" fill="black" stroke="black" stroke-linecap="round" stroke-linejoin="round"/>
<path d="M502.09 422.656L499.647 405.145L486.93 405.964L491.331 423.202L485.717 434.446L473.577 442.382C473.577 442.382 472.181 443.778 478.251 443.308C484.32 442.838 496.915 443.308 496.915 443.308L504.851 433.976C504.851 433.976 507.719 429.105 502.09 422.656Z" fill="white" stroke="black" stroke-linecap="round" stroke-linejoin="round"/>
<path d="M496.915 443.247L504.851 433.915C504.851 433.915 506.9 430.44 504.062 425.433C498.417 435.084 490.906 437.982 490.906 437.982L483.091 436.1L473.577 442.322C473.577 442.322 472.181 443.718 478.251 443.247C484.32 442.777 496.915 443.247 496.915 443.247Z" fill="black" stroke="black" stroke-linecap="round" stroke-linejoin="round"/>
<path d="M496.262 315.313L501.71 408.362L484.457 408.771L467.613 324.235C467.613 324.235 467.932 308.135 473.076 306.284C478.22 304.433 491.877 306.42 491.877 306.42" fill="#D71635"/>
<path d="M496.262 315.313L501.71 408.362L484.457 408.771L467.613 324.235C467.613 324.235 467.932 308.135 473.076 306.284C478.22 304.433 491.877 306.42 491.877 306.42" stroke="black" stroke-linecap="round" stroke-linejoin="round"/>
<path d="M420.846 115.027L442.257 175.041C442.257 175.041 439.435 188.622 430.937 188.061C422.439 187.499 420.178 175.603 417.917 173.903C415.656 172.204 412.257 159.184 412.257 159.184L420.846 115.027Z" fill="white" stroke="black" stroke-linecap="round" stroke-linejoin="round"/>
<path d="M365.46 102.994L330.65 115.558L344.003 212.082H406.81L420.846 115.027L383.274 103.267L365.46 102.994Z" fill="white" stroke="black" stroke-linecap="round" stroke-linejoin="round"/>
<path d="M368.813 119.534L373.836 127.106L369.481 191.323L375.885 208.045L382.455 191.778L376.826 128.062L381.347 117.121L375.08 108.881L368.813 119.534Z" fill="#D71635" stroke="black" stroke-linecap="round" stroke-linejoin="round"/>
<path d="M375.763 116.408L366.795 123.13L360.893 105.604L365.005 96.7265L383.351 96.2865L387.827 100.308L386.932 122.675L375.763 116.408Z" fill="white" stroke="black" stroke-linecap="round" stroke-linejoin="round"/>
<path d="M385.247 92.1742L383.851 103.449L373.806 116.408L366.294 103.267V82.1288C366.294 82.1288 379.451 85.4217 385.247 92.1742Z" fill="white" stroke="black" stroke-linecap="round" stroke-linejoin="round"/>
<path d="M361.135 68.7451C361.135 58.5024 368.601 50.2021 377.827 50.2021C387.053 50.2021 392.167 58.9577 392.167 69.2003C392.167 72.5083 391.484 78.1835 391.211 81.2032C390.74 86.3625 389.177 88.5476 386.127 93.1758C376.128 108.35 367.918 86.0894 363.715 78.6084C362.014 75.6003 361.125 72.2011 361.135 68.7451Z" fill="white" stroke="black" stroke-linecap="round" stroke-linejoin="round"/>
<path d="M385.08 71.962L386.491 82.5385L381.529 82.402" fill="white"/>
<path d="M385.08 71.962L386.491 82.5385L381.529 82.402" stroke="black" stroke-linecap="round" stroke-linejoin="round"/>
<path d="M396.158 70.126L372.304 70.2322C372.011 71.1599 371.966 72.1481 372.173 73.0986C372.381 74.0491 372.834 74.9285 373.487 75.6494C375.005 77.1669 381.181 76.6358 382.167 76.2412C383.153 75.8467 383.684 71.5068 383.684 71.5068H385.46C385.46 71.5068 385.657 76.0591 388.206 76.4385C390.756 76.8179 394.079 76.6965 394.716 76.2412C397.539 74.3444 396.158 70.126 396.158 70.126Z" fill="white" stroke="black" stroke-linecap="round" stroke-linejoin="round"/>
<path d="M364.079 80.3231C364.079 80.3231 369.451 91.3245 370.725 95.1332C372 98.942 378.312 101.916 384.701 99.7918C391.089 97.6674 389.359 88.2138 389.359 88.2138C389.359 88.2138 382.576 82.4172 381.317 83.6615C380.057 84.9058 373.259 90.4444 372.834 89.1697C372.41 87.8951 369.451 80.2776 369.451 80.2776L368.07 74.8755L370.907 73.0546C371.317 72.7134 371.583 72.2307 371.654 71.7022C371.724 71.1738 371.593 70.6382 371.287 70.2018L369.951 68.2747C369.787 68.0387 369.671 67.7721 369.611 67.4906C369.551 67.2091 369.548 66.9185 369.602 66.6359C369.951 64.9819 370.907 61.5525 373.123 60.5661C376.158 59.3067 379.845 61.1428 383.244 61.9925C386.643 62.8423 390.33 59.7771 390.33 59.7771L391.848 64.815C395.212 61.6575 397.603 57.6031 398.737 53.1307C400.436 45.9229 383.062 42.9639 377.493 42.9639C371.924 42.9639 363.092 45.9988 360.543 53.9805C357.994 61.9622 362.577 78.8967 364.079 80.3231Z" fill="black" stroke="black" stroke-linecap="round" stroke-linejoin="round"/>
<path d="M377.827 53.1763C377.827 53.1763 380.983 57.9107 376.841 58.897C372.698 59.8833 364.625 56.3325 361.075 57.7134" stroke="white" stroke-width="0.5" stroke-linecap="round" stroke-linejoin="round"/>
<path d="M370.725 63.6162C370.725 63.6162 364.231 62.8271 361.621 65.5888" stroke="white" stroke-width="0.5" stroke-linecap="round" stroke-linejoin="round"/>
<path d="M386.355 87.5461C386.355 87.5461 381.575 90.0347 379.208 87.0757" stroke="white" stroke-width="0.5" stroke-linecap="round" stroke-linejoin="round"/>
<path d="M364.883 76.9696C364.883 76.9696 360.194 71.8103 360.194 77.44C360.194 83.0697 361.606 83.0697 364.413 85.0271C367.22 86.9846 368.176 84.5567 368.176 84.5567" fill="white"/>
<path d="M364.883 76.9696C364.883 76.9696 360.194 71.8103 360.194 77.44C360.194 83.0697 361.606 83.0697 364.413 85.0271C367.22 86.9846 368.176 84.5567 368.176 84.5567" stroke="black" stroke-linecap="round" stroke-linejoin="round"/>
<path d="M427.492 426.753H427.705L427.295 424.689L406.81 212.097H344.003L323.351 426.738H323.579L336.902 427.876C336.902 427.876 351.682 378.256 351.682 374.553C351.682 370.851 355.9 336.617 355.9 336.617L376.856 262.946L395.384 336.617C395.384 336.617 399.602 370.927 399.602 374.553C399.602 378.18 414.397 427.906 414.397 427.906L426.931 426.829H427.492V426.753Z" fill="black" stroke="black" stroke-linecap="round" stroke-linejoin="round"/>
<path d="M402.121 224.601L388.146 244.555" stroke="white" stroke-width="0.5" stroke-linecap="round" stroke-linejoin="round"/>
<path d="M394.64 229.092L386.158 243.068" stroke="white" stroke-width="0.5" stroke-linecap="round" stroke-linejoin="round"/>
<path d="M354.731 228.106L367.19 241.565" stroke="white" stroke-width="0.5" stroke-linecap="round" stroke-linejoin="round"/>
<path d="M353.73 233.083L371.681 251.049" stroke="white" stroke-width="0.5" stroke-linecap="round" stroke-linejoin="round"/>
<path d="M347.736 214.13H403.123" stroke="white" stroke-width="0.5" stroke-linecap="round" stroke-linejoin="round"/>
<path d="M323.579 426.738C323.579 426.738 315.582 433.035 310.969 434.765C306.356 436.495 297.737 441.093 297.737 441.093C297.737 441.093 297.737 443.976 305.218 443.976H334.58L334.079 426.738H323.579Z" fill="black" stroke="black" stroke-linecap="round" stroke-linejoin="round"/>
<path d="M334.474 440.835C322.749 441.37 311.002 441.183 299.3 440.273L297.782 441.093C297.782 441.093 297.782 443.976 305.263 443.976H334.625L334.474 440.835Z" fill="white" stroke="black" stroke-linecap="round" stroke-linejoin="round"/>
<path d="M426.279 426.738C426.279 426.738 434.291 433.035 438.889 434.765C443.486 436.495 452.136 441.093 452.136 441.093C452.136 441.093 452.136 443.976 444.64 443.976H415.292L415.824 426.738H426.279Z" fill="black" stroke="black" stroke-linecap="round" stroke-linejoin="round"/>
<path d="M415.384 440.835C427.109 441.37 438.856 441.183 450.558 440.273L452.075 441.093C452.075 441.093 452.075 443.976 444.579 443.976H415.292L415.384 440.835Z" fill="white" stroke="black" stroke-linecap="round" stroke-linejoin="round"/>
<path d="M330.65 115.558L307.524 177.302H329.709L337.994 160.459L330.65 115.558Z" fill="white" stroke="black" stroke-linecap="round" stroke-linejoin="round"/>
<path d="M431.817 167.742C422.561 163.918 392.865 162.022 391.317 162.022C389.769 162.022 341.5 158.046 337.539 157.469C333.579 156.893 329.042 165.967 329.042 165.967L349.982 165.39L375.46 170.489C375.46 170.489 427.052 189.168 430.937 188.046C431.467 187.869 431.946 187.567 432.333 187.165" fill="white"/>
<path d="M431.817 167.742C422.561 163.918 392.865 162.022 391.317 162.022C389.769 162.022 341.5 158.046 337.539 157.469C333.579 156.893 329.042 165.967 329.042 165.967L349.982 165.39L375.46 170.489C375.46 170.489 427.052 189.168 430.937 188.046C431.467 187.869 431.946 187.567 432.333 187.165" stroke="black" stroke-linecap="round" stroke-linejoin="round"/>
<path d="M323.943 164.844L403.76 156.923L404.337 163.706L335.263 184.662C335.263 184.662 322.82 187.484 313.184 185.785C303.549 184.085 308.101 174.465 310.362 168.805" fill="white"/>
<path d="M323.943 164.844L403.76 156.923L404.337 163.706L335.263 184.662C335.263 184.662 322.82 187.484 313.184 185.785C303.549 184.085 308.101 174.465 310.362 168.805" stroke="black" stroke-linecap="round" stroke-linejoin="round"/>
<path d="M403.775 156.923L419.055 156.346L423.577 165.406L404.336 163.721L403.775 156.923Z" fill="white" stroke="black" stroke-linecap="round" stroke-linejoin="round"/>
<path d="M505.549 290.063L518.584 445.25C518.618 445.482 518.7 445.703 518.823 445.902C518.946 446.101 519.108 446.272 519.3 446.406C519.492 446.539 519.709 446.632 519.938 446.679C520.168 446.726 520.404 446.725 520.633 446.677C521.023 446.58 521.365 446.346 521.597 446.017C521.828 445.688 521.933 445.286 521.892 444.886L513.015 290.108L505.549 290.063Z" fill="black" stroke="black" stroke-linecap="round" stroke-linejoin="round"/>
<path d="M593.15 290.063L606.231 445.766C606.263 445.999 606.343 446.222 606.465 446.421C606.588 446.621 606.751 446.794 606.943 446.928C607.135 447.062 607.353 447.154 607.583 447.2C607.813 447.246 608.05 447.243 608.279 447.193C608.67 447.096 609.012 446.862 609.243 446.533C609.475 446.204 609.58 445.802 609.539 445.402L600.631 290.063H593.15Z" fill="black" stroke="black" stroke-linecap="round" stroke-linejoin="round"/>
<path d="M231.638 290.063L224.824 443.9C224.787 444.303 224.894 444.707 225.128 445.038C225.362 445.369 225.706 445.606 226.099 445.706C226.324 445.764 226.56 445.772 226.789 445.731C227.018 445.691 227.235 445.601 227.427 445.468C227.618 445.336 227.779 445.164 227.898 444.964C228.017 444.764 228.092 444.541 228.117 444.31L239.149 290.063H231.638Z" fill="black" stroke="black" stroke-linecap="round" stroke-linejoin="round"/>
<path d="M150.895 290.063L144.036 443.323C144.002 443.728 144.113 444.132 144.35 444.463C144.586 444.794 144.932 445.03 145.326 445.129C145.551 445.184 145.786 445.191 146.014 445.149C146.242 445.107 146.459 445.017 146.649 444.885C146.84 444.753 147.001 444.582 147.121 444.384C147.24 444.185 147.317 443.963 147.344 443.733L158.33 290.002L150.895 290.063Z" fill="black" stroke="black" stroke-linecap="round" stroke-linejoin="round"/>
<path d="M610.206 281.459H146.039V294.782H610.206V281.459Z" fill="#D71635" stroke="black" stroke-linecap="round" stroke-linejoin="round"/>
<path d="M610.206 281.459H146.039V286.026H610.206V281.459Z" fill="black" stroke="black" stroke-linecap="round" stroke-linejoin="round"/>
<path d="M610.191 281.459H494.047V294.782H610.191V281.459Z" fill="black" stroke="black" stroke-linecap="round" stroke-linejoin="round"/>
<path d="M614.334 277.028H141.896V282.111H614.334V277.028Z" fill="#D71635" stroke="black" stroke-linecap="round" stroke-linejoin="round"/>
<path d="M614.319 277.028H498.888V282.111H614.319V277.028Z" fill="black" stroke="black" stroke-linecap="round" stroke-linejoin="round"/>
<path d="M247.13 276.573H310.529C310.771 276.574 311.007 276.505 311.21 276.373C311.412 276.24 311.571 276.051 311.667 275.829L329.223 235.799C329.304 235.612 329.337 235.407 329.319 235.203C329.3 235 329.231 234.804 329.118 234.634C329.005 234.464 328.852 234.324 328.671 234.228C328.491 234.132 328.29 234.083 328.085 234.085H264.687C264.45 234.084 264.217 234.153 264.018 234.282C263.819 234.412 263.661 234.596 263.564 234.813L246.068 274.843C245.986 275.025 245.951 275.225 245.964 275.425C245.976 275.624 246.038 275.818 246.143 275.988C246.247 276.159 246.392 276.301 246.564 276.403C246.736 276.505 246.931 276.563 247.13 276.573Z" fill="white" stroke="black" stroke-linecap="round" stroke-linejoin="round"/>
<path d="M253.079 273.447H307.175C307.378 273.447 307.576 273.388 307.745 273.277C307.915 273.167 308.049 273.01 308.131 272.825L323.108 238.667C323.189 238.506 323.227 238.327 323.219 238.146C323.21 237.966 323.155 237.791 323.059 237.638C322.963 237.486 322.829 237.361 322.67 237.275C322.511 237.189 322.333 237.146 322.152 237.15H268.056C267.849 237.148 267.647 237.208 267.474 237.321C267.301 237.435 267.166 237.597 267.085 237.787L252.138 271.975C252.068 272.133 252.038 272.306 252.051 272.479C252.064 272.651 252.119 272.818 252.213 272.964C252.306 273.11 252.434 273.23 252.585 273.314C252.736 273.399 252.906 273.444 253.079 273.447Z" fill="#D71635" stroke="black" stroke-linecap="round" stroke-linejoin="round"/>
<path d="M311.409 273.917H216.16V277.028H311.409V273.917Z" fill="white" stroke="black" stroke-linecap="round" stroke-linejoin="round"/>
<path d="M311.424 273.917H265.249V277.028H311.424V273.917Z" fill="white" stroke="black" stroke-linecap="round" stroke-linejoin="round"/>
<path d="M342.015 252.263H325.217V277.089H342.015V252.263Z" fill="white" stroke="black" stroke-linecap="round" stroke-linejoin="round"/>
<path d="M341.272 273.705H339.511C339.145 273.705 338.794 273.559 338.535 273.3C338.276 273.041 338.131 272.69 338.131 272.324C338.131 271.958 338.276 271.606 338.535 271.347C338.794 271.088 339.145 270.943 339.511 270.943H341.272C341.967 270.939 342.632 270.661 343.124 270.17C343.615 269.678 343.893 269.013 343.897 268.318V262.248C343.893 261.553 343.615 260.888 343.124 260.396C342.632 259.905 341.967 259.627 341.272 259.623H339.011C338.829 259.623 338.65 259.587 338.482 259.518C338.315 259.448 338.163 259.347 338.034 259.218C337.906 259.09 337.804 258.938 337.735 258.77C337.666 258.603 337.63 258.423 337.63 258.242C337.63 258.061 337.666 257.881 337.735 257.714C337.804 257.546 337.906 257.394 338.034 257.266C338.163 257.137 338.315 257.036 338.482 256.966C338.65 256.897 338.829 256.861 339.011 256.861H341.272C341.979 256.861 342.68 257.001 343.333 257.271C343.987 257.542 344.581 257.939 345.081 258.439C345.581 258.939 345.978 259.533 346.249 260.187C346.519 260.84 346.659 261.541 346.659 262.248V268.318C346.659 269.025 346.519 269.726 346.249 270.379C345.978 271.033 345.581 271.627 345.081 272.127C344.581 272.627 343.987 273.024 343.333 273.295C342.68 273.565 341.979 273.705 341.272 273.705Z" fill="white" stroke="black" stroke-linecap="round" stroke-linejoin="round"/>
<path d="M473.258 276.573H409.86C409.62 276.571 409.387 276.5 409.187 276.368C408.988 276.236 408.831 276.049 408.737 275.829L391.18 235.799C391.1 235.613 391.067 235.409 391.085 235.207C391.102 235.005 391.17 234.81 391.281 234.64C391.392 234.47 391.544 234.331 391.722 234.234C391.9 234.137 392.1 234.086 392.303 234.085H455.701C455.941 234.083 456.176 234.152 456.378 234.281C456.58 234.41 456.74 234.595 456.839 234.813L474.396 274.843C474.476 275.031 474.508 275.237 474.49 275.441C474.471 275.645 474.402 275.841 474.29 276.012C474.177 276.183 474.024 276.324 473.844 276.422C473.664 276.52 473.463 276.571 473.258 276.573Z" fill="white" stroke="black" stroke-linecap="round" stroke-linejoin="round"/>
<path d="M408.98 277.028H504.229V273.917H408.98V277.028Z" fill="white" stroke="black" stroke-linecap="round" stroke-linejoin="round"/>
<path d="M408.98 277.028H474.654V273.917H408.98V277.028Z" fill="white" stroke="black" stroke-linecap="round" stroke-linejoin="round"/>
<path d="M433.835 250.7C434.179 251.35 434.323 252.087 434.249 252.818C434.176 253.549 433.888 254.243 433.423 254.811C432.957 255.38 432.334 255.798 431.631 256.014C430.928 256.23 430.178 256.233 429.473 256.024C428.769 255.815 428.141 255.403 427.67 254.839C427.199 254.275 426.905 253.584 426.825 252.853C426.744 252.123 426.881 251.385 427.219 250.732C427.556 250.079 428.079 249.54 428.721 249.183C429.601 248.708 430.633 248.601 431.592 248.885C432.55 249.17 433.357 249.822 433.835 250.7Z" fill="white" stroke="black" stroke-linecap="round" stroke-linejoin="round"/>
<path d="M137.375 132.872L142.049 179.047L163.293 240.549L156.024 244.707L131.078 188.41L118.619 140.08C118.619 140.08 117.572 125.543 122.777 123.388C127.982 121.233 135.296 123.524 137.375 132.872Z" fill="white" stroke="black" stroke-linecap="round" stroke-linejoin="round"/>
<path d="M163.353 240.61C163.353 240.61 168.027 250.488 168.558 253.083C169.089 255.678 169.62 260.973 167.571 263.341C165.098 266.193 162.837 263.993 162.837 263.993C162.837 263.993 156.6 262.476 156.6 257.241C156.6 252.005 156.084 244.767 156.084 244.767L163.353 240.61Z" fill="white" stroke="black" stroke-linecap="round" stroke-linejoin="round"/>
<path d="M158.254 256.102L167.01 258.379" stroke="black" stroke-linecap="round" stroke-linejoin="round"/>
<path d="M160.349 250.2L162.837 254.115C162.837 254.115 157.041 264.023 160.151 261.429C163.262 258.834 169.074 255.678 168.558 253.083C167.679 250.36 166.52 247.736 165.098 245.253" fill="white"/>
<path d="M160.349 250.2L162.837 254.115C162.837 254.115 157.041 264.023 160.151 261.429C163.262 258.834 169.074 255.678 168.558 253.083C167.679 250.36 166.52 247.736 165.098 245.253" stroke="black" stroke-linecap="round" stroke-linejoin="round"/>
<path d="M112.534 77.3793C112.534 77.3793 107.193 71.6131 94.8714 75.3156C82.5499 79.0181 79.6971 98.7448 80.0765 108.593C80.4558 118.441 89.9398 129.549 87.0718 134.48C84.2039 139.412 73.506 150.914 74.3254 163.312C75.1448 175.709 85.4178 185.496 100.213 180.974C115.008 176.452 112.534 158.349 109.591 151.733C106.647 145.117 112.883 142.28 114.932 127.895C116.98 113.509 103.839 101.598 103.839 91.3245C103.839 81.0515 114.461 82.7055 114.461 82.7055L112.534 77.3793Z" fill="black" stroke="black" stroke-linecap="round" stroke-linejoin="round"/>
<path d="M94.0219 116.377C95.9642 120.383 98.2252 124.662 100.471 129.275C107.967 144.571 102.11 150.095 90.7139 158.562C79.318 167.029 81.928 177.439 84.8566 179.047" stroke="white" stroke-width="0.5" stroke-linecap="round" stroke-linejoin="round"/>
<path d="M108.619 81.4309C108.619 81.4309 93.3235 82.7359 89.4085 92.493C87.0413 98.4261 88.8622 105.072 92.3523 112.811" stroke="white" stroke-width="0.5" stroke-linecap="round" stroke-linejoin="round"/>
<path d="M97.436 175.239C98.6128 175.681 99.8678 175.877 101.123 175.815" stroke="white" stroke-width="0.5" stroke-linecap="round" stroke-linejoin="round"/>
<path d="M112.535 80.4142C112.535 80.4142 98.21 83.009 94.9627 93.4186C91.7154 103.828 110.911 119.215 111.882 130.535C112.853 141.855 99.1812 148.471 94.3254 157.257C90.9111 163.418 91.2905 170.201 94.8868 173.615" stroke="white" stroke-width="0.5" stroke-linecap="round" stroke-linejoin="round"/>
<path d="M149.287 289.926C149.287 289.926 145.751 320.457 142.2 330.199C138.65 339.941 130.698 416.495 130.258 420.926C129.818 425.357 141.76 435.524 146.631 438.634C151.502 441.745 149.287 442.61 143.976 443.05C138.665 443.49 132.474 442.61 129.818 437.739C127.163 432.868 120.956 431.548 120.956 431.548L120.076 442.17H118.301L116.981 428.892C116.529 425.878 116.989 422.797 118.301 420.046C120.516 415.175 121.336 404.993 121.336 391.215C121.336 377.436 118.68 355.358 120 344.736C121.32 334.114 126.647 326.147 126.647 317.3C126.647 308.454 127.087 295.176 127.087 295.176L149.287 289.926Z" fill="white" stroke="black" stroke-linecap="round" stroke-linejoin="round"/>
<path d="M116.981 428.892C116.628 426.609 116.821 424.274 117.542 422.079C120.289 426.723 128.164 433.02 134.234 435.524C137.525 436.948 141.113 437.553 144.689 437.284C145.402 437.815 146.07 438.27 146.631 438.634C151.502 441.669 149.287 442.61 143.976 443.05C138.665 443.49 132.474 442.61 129.818 437.739C127.163 432.868 120.956 431.548 120.956 431.548L120.076 442.17H118.301L116.981 428.892Z" fill="black" stroke="black" stroke-linecap="round" stroke-linejoin="round"/>
<path d="M123.612 294.797C123.612 294.797 116.024 317.361 109.014 336.83C102.003 356.299 85.1143 401.002 83.339 408.969C81.5636 416.935 80.6834 431.548 75.7518 439.074C70.8201 446.601 66.0099 450.137 66.89 436.859C67.7701 423.581 75.7518 413.84 77.512 403.658C79.2722 393.476 80.1675 356.754 86.3586 340.381C92.5498 324.008 99.1961 310.73 100.016 305.859C100.621 301.012 100.915 296.131 100.896 291.246L123.612 294.797Z" fill="white" stroke="black" stroke-linecap="round" stroke-linejoin="round"/>
<path d="M67.8007 431.169C67.8661 433.672 68.6453 436.104 70.0465 438.179C72.5958 441.032 76.708 435.493 78.8476 432.109C78.1476 434.55 77.127 436.887 75.8127 439.059C70.9418 446.571 66.0708 450.121 66.9509 436.844C67.0973 434.934 67.3813 433.037 67.8007 431.169Z" fill="black" stroke="black" stroke-linecap="round" stroke-linejoin="round"/>
<path d="M120.122 116.681C120.122 116.681 117.466 118.896 115.691 133.949C113.915 149.002 124.993 195.906 124.993 195.906C124.993 195.906 105.964 227.074 101.533 242.567C97.1023 258.06 94.4468 316.102 94.4468 316.102C94.4468 316.102 103.749 319.653 122.777 320.973C141.806 322.293 151.988 317.437 151.988 317.437C151.988 317.437 152.868 234.6 152.868 221.839C152.868 209.077 153.763 180.049 155.083 176.513C156.404 172.978 160.394 163.676 160.394 160.14C160.394 156.604 133.779 118.896 133.779 118.896L120.122 116.681Z" fill="white" stroke="black" stroke-linecap="round" stroke-linejoin="round"/>
<path d="M101.487 242.567C104.977 230.428 119.423 198.137 124.583 192.583C132.428 195.193 146.737 197.772 153.126 195.86C152.928 200.413 152.822 217.408 152.822 221.763C152.822 234.6 151.942 317.361 151.942 317.361C151.942 317.361 141.76 322.232 122.731 320.897C103.703 319.561 94.4009 316.026 94.4009 316.026C94.4009 316.026 97.0564 258.06 101.487 242.567Z" fill="black" stroke="black" stroke-linecap="round" stroke-linejoin="round"/>
<path d="M129.939 64.5115C129.939 64.5115 134.689 54.1626 144.082 54.1626C153.475 54.1626 157.648 62.5085 155.569 69.8073C153.49 77.1062 161.821 75.0273 162.868 79.7313C163.915 84.4354 156.085 87.5461 151.912 87.5461C147.739 87.5461 129.939 64.5115 129.939 64.5115Z" fill="black" stroke="black" stroke-linecap="round" stroke-linejoin="round"/>
<path d="M143.657 63.4493C146.449 61.9319 149.726 60.8393 151.244 63.2065C154.173 67.7588 145.068 71.34 147.997 76.2261C150.925 81.1122 158.088 79.8072 157.754 81.4309C157.42 83.0545 152.883 84.0257 152.883 84.0257" stroke="white" stroke-width="0.5" stroke-linecap="round" stroke-linejoin="round"/>
<path d="M138.877 66.7573C138.877 66.7573 139.772 65.9834 141.108 65.0426" stroke="white" stroke-width="0.5" stroke-linecap="round" stroke-linejoin="round"/>
<path d="M154.021 88.5931C153.357 88.0994 152.834 87.4402 152.504 86.6812C151.745 81.0819 150.106 75.5736 147.011 72.478C142.328 68.0696 136.355 65.2777 129.97 64.5115C128.079 64.2328 126.149 64.4097 124.34 65.0274C116.283 67.8499 109.363 73.4188 110.85 86.8481C112.489 101.643 124.006 105.346 124.006 105.346L124.826 114.45L136.328 119.792L136.737 109.928C136.737 109.928 144.537 113.206 147.36 112.796C150.182 112.386 151.062 108.684 152.291 103.343C152.742 100.905 152.966 98.4314 152.959 95.9527L156.403 92.5233C158.361 90.5355 156.434 90.0499 154.021 88.5931Z" fill="white" stroke="black" stroke-linecap="round" stroke-linejoin="round"/>
<path d="M110.819 86.8481C109.302 73.4188 116.252 67.8499 124.309 65.0274C126.118 64.4097 128.048 64.2328 129.939 64.5115C134.293 65.0935 138.484 66.549 142.261 68.7907C139.954 68.3202 143.884 75.1032 140.273 79.4127C137.11 83.4133 133.078 86.641 128.482 88.8511C128.482 88.8511 124.385 85.5583 123.141 90.0802C121.897 94.6022 122.322 97.8798 125.614 98.7144C128.907 99.549 130.167 98.7144 130.167 98.7144C130.167 98.7144 127.982 103.889 124.097 106.028V105.285C124.097 105.285 112.534 101.658 110.819 86.8481Z" fill="black" stroke="black" stroke-linecap="round" stroke-linejoin="round"/>
<path d="M142.2 117.121L140 129.078L116.541 116.681L118.756 105.619L142.2 117.121Z" fill="white" stroke="black" stroke-linecap="round" stroke-linejoin="round"/>
<path d="M130.865 217.939C133.294 218.459 135.76 218.793 138.24 218.941C140.167 218.819 142.792 216.649 144.734 217.575C146.677 218.5 149.393 224.343 149.393 224.343C149.393 224.343 151.972 225.648 151.229 227.028C150.485 228.409 147.299 229.684 147.299 229.684C147.299 229.684 144.264 232.552 142.504 232.84C140.743 233.129 130.015 225.253 130.015 225.253L130.865 217.939Z" fill="white" stroke="black" stroke-linecap="round" stroke-linejoin="round"/>
<path d="M132.003 223.614C132.358 223.188 132.613 222.687 132.75 222.149C132.886 221.611 132.9 221.049 132.791 220.504C132.682 219.96 132.452 219.447 132.119 219.003C131.785 218.559 131.357 218.196 130.865 217.939L101.381 190.322L133.49 140.398C134.923 137.759 135.27 134.665 134.46 131.773C133.649 128.881 131.743 126.419 129.147 124.908C126.551 123.398 123.469 122.959 120.554 123.683C117.64 124.408 115.122 126.24 113.536 128.79L85.7059 184.1C84.2589 185.505 83.4224 187.422 83.377 189.437C83.3315 191.453 84.0809 193.406 85.4631 194.874L85.5694 194.98C88.3614 199.29 119.074 221.824 128.057 224.767C128.755 224.989 129.503 224.997 130.206 224.792C130.908 224.586 131.534 224.176 132.003 223.614Z" fill="white" stroke="black" stroke-linecap="round" stroke-linejoin="round"/>
<path d="M248.663 147.181C248.663 147.181 252.472 158.972 252.472 161.263C252.444 162.918 252.317 164.57 252.092 166.21L255.446 171.415C255.642 171.749 255.703 172.147 255.616 172.525C255.528 172.903 255.299 173.234 254.975 173.448L249.801 176.483C249.801 176.483 249.042 188.622 248.284 190.14C247.525 191.657 234.627 191.293 234.627 191.293L230.439 199.275L208.739 190.914L214.445 175.299L213.261 151.733C213.261 151.733 226.584 139.958 248.663 147.181Z" fill="white" stroke="black" stroke-linecap="round" stroke-linejoin="round"/>
<path d="M233.807 175.861C233.807 175.861 230.029 179.411 227.191 179.654C224.354 179.897 215.128 177.757 214.415 176.817C213.701 175.876 207.328 162.629 207.556 156.24C207.783 149.852 208.041 140.398 214.885 137.333C221.729 134.268 232.624 135.193 238.299 131.658C243.974 128.122 252.957 125.269 257.692 131.415C262.426 137.561 258.875 146.073 255.097 149.624C251.319 153.175 246.584 154.177 247.055 155.694C247.525 157.211 250.363 159.002 248.709 161.369C247.055 163.736 241.121 165.921 241.121 166.802C241.121 167.682 242.548 171.066 240.894 171.536C239.24 172.006 237.571 168.228 235.917 168.228C234.263 168.228 230.742 172.795 233.807 175.861Z" fill="black" stroke="black" stroke-linecap="round" stroke-linejoin="round"/>
<path d="M223.929 165.011C223.247 165.774 222.666 166.62 222.199 167.53" stroke="white" stroke-width="0.5" stroke-linecap="round" stroke-linejoin="round"/>
<path d="M255.006 140.505C254.706 143.109 253.756 145.596 252.245 147.738C250.734 149.88 248.709 151.609 246.356 152.765C240.287 155.906 232.199 158.471 226.827 162.416" stroke="white" stroke-width="0.5" stroke-linecap="round" stroke-linejoin="round"/>
<path d="M247.054 155.77C247.054 155.77 241.668 160.322 235.901 165.011C231.967 168.057 227.592 170.487 222.927 172.219" stroke="white" stroke-width="0.5" stroke-linecap="round" stroke-linejoin="round"/>
<path d="M233.428 176.498L236.463 177.257C236.279 178.675 236.387 180.117 236.781 181.492C237.175 182.867 237.847 184.147 238.754 185.254" fill="white"/>
<path d="M233.428 176.498L236.463 177.257C236.279 178.675 236.387 180.117 236.781 181.492C237.175 182.867 237.847 184.147 238.754 185.254" stroke="black" stroke-linecap="round" stroke-linejoin="round"/>
<path d="M236.948 168.349L258.374 163.038" stroke="black" stroke-linecap="round" stroke-linejoin="round"/>
<path d="M252.866 162.613L257.752 162.826C257.752 162.826 259.437 168.349 254.353 168.987" stroke="black" stroke-linecap="round" stroke-linejoin="round"/>
<path d="M231.258 424.962C231.258 424.962 250.985 437.42 254.459 437.42C257.934 437.42 259.664 440.546 257.934 440.895C256.205 441.244 245.461 441.578 238.208 441.927C230.954 442.276 226.068 441.578 221.926 441.578C217.783 441.578 212.912 441.927 210.833 440.895C208.754 439.864 212.229 428.073 212.229 425.994C212.229 423.915 228.83 423.566 231.258 424.962Z" fill="black" stroke="black" stroke-linecap="round" stroke-linejoin="round"/>
<path d="M256.69 437.936C249.027 440.455 236.599 438.801 229.134 438.119C223.231 437.587 213.959 437.466 210.181 437.436C210.029 439.211 210.181 440.562 210.773 440.895C212.852 441.927 217.707 441.578 221.865 441.578C226.023 441.578 230.863 442.276 238.147 441.927C245.431 441.578 256.159 441.229 257.874 440.895C259.224 440.622 258.587 438.832 256.69 437.936Z" fill="white" stroke="black" stroke-linecap="round" stroke-linejoin="round"/>
<path d="M246.842 339.379L231.273 417.451L234.521 425.554C232.19 428.929 228.674 431.302 224.673 432.2C220.223 433.075 215.702 433.543 211.167 433.597C211.167 433.597 209.438 424.932 210.485 423.885C211.532 422.838 211.865 418.695 211.865 418.695L220.864 340.062L246.842 339.379Z" fill="#D71635" stroke="black" stroke-linecap="round" stroke-linejoin="round"/>
<path d="M294.292 422.322C294.292 422.322 306.431 432.367 311.97 434.097C317.509 435.827 323.396 437.557 323.396 439.287C323.396 441.017 310.24 442.747 300.195 441.715C290.149 440.683 274.899 436.176 271.44 436.176C267.98 436.176 268.663 427.163 268.663 425.782C268.663 424.401 285.643 413.308 294.292 422.322Z" fill="black" stroke="black" stroke-linecap="round" stroke-linejoin="round"/>
<path d="M323.457 439.287C323.457 438.665 322.683 438.043 321.454 437.42C311.539 438.747 301.487 438.676 291.591 437.208C281.622 435.782 273.276 433.87 269.012 432.807C269.376 434.674 270.089 436.176 271.5 436.176C274.96 436.176 290.21 440.728 300.256 441.715C310.301 442.701 323.457 441.017 323.457 439.287Z" fill="white" stroke="black" stroke-linecap="round" stroke-linejoin="round"/>
<path d="M234.035 304.387C244.422 303.592 254.862 303.826 265.203 305.085C282.866 307.164 322.334 309.637 323.017 314.099C323.7 318.56 292.395 412.322 292.395 414.735C292.395 417.148 295.157 419.591 295.855 420.971C296.295 421.956 296.533 423.019 296.553 424.097C296.553 424.097 288.07 433.202 281.485 435.675C274.899 438.149 269.345 435.827 267.98 435.827C266.614 435.827 266.599 426.48 267.646 421.973C268.693 417.466 270.407 406.04 270.756 405.008C271.105 403.976 290.073 337.3 290.073 337.3C290.073 337.3 238.481 345.616 207.662 342.141C176.843 338.666 173.717 333.841 171.987 326.557C170.257 319.273 173.717 304.736 173.717 304.736L234.035 304.387Z" fill="#D71635" stroke="black" stroke-linecap="round" stroke-linejoin="round"/>
<path d="M230.135 326.83C229.435 327.843 228.654 328.797 227.798 329.683" stroke="black" stroke-linecap="round" stroke-linejoin="round"/>
<path d="M239.574 308.196C237.583 313.183 235.287 318.043 232.7 322.748" stroke="black" stroke-linecap="round" stroke-linejoin="round"/>
<path d="M235.446 311.671C231.267 318.566 224.938 323.897 217.434 326.845" stroke="black" stroke-linecap="round" stroke-linejoin="round"/>
<path d="M314.08 330.79C315.263 330.335 316.401 329.865 317.479 329.379Z" fill="white"/>
<path d="M314.08 330.79C315.263 330.335 316.401 329.865 317.479 329.379" stroke="black" stroke-linecap="round" stroke-linejoin="round"/>
<path d="M290.074 337.3C296.739 336.013 303.325 334.346 309.8 332.308Z" fill="white"/>
<path d="M290.074 337.3C296.739 336.013 303.325 334.346 309.8 332.308" stroke="black" stroke-linecap="round" stroke-linejoin="round"/>
<path d="M330.119 222.264C330.847 219.365 332.061 219.593 331.09 218.637C329.755 217.302 328.677 218.88 324.808 221.05C320.938 223.22 317.084 225.875 317.084 225.875C317.169 225.07 317.503 224.311 318.04 223.705C319.018 222.105 319.543 220.27 319.557 218.394C319.557 216.877 318.344 217.18 317.858 218.637C317.372 220.094 313.033 222.734 312.79 223.948C312.547 225.162 311.682 229.927 311.682 229.927C310.301 232.006 310.301 241.702 310.301 241.702L282.183 262.825L267.98 279.516C267.98 279.516 274.217 289.562 277.676 288.181C281.136 286.8 282.866 285.404 291.182 278.469C298.222 272.597 315.87 245.511 315.87 245.511C318.944 243.58 321.852 241.398 324.565 238.986C327.694 235.446 329.543 230.957 329.815 226.239C329.75 224.907 329.852 223.571 330.119 222.264Z" fill="white" stroke="black" stroke-linecap="round" stroke-linejoin="round"/>
<path d="M200.014 190.216C200.014 190.216 202.685 180.201 214.035 182.204C225.385 184.207 234.065 193.554 236.068 196.892C238.071 200.231 199.346 195.557 199.346 195.557L200.014 190.216Z" fill="white" stroke="black" stroke-linecap="round" stroke-linejoin="round"/>
<path d="M265.446 277.68C265.446 277.68 262.806 280.533 265.446 285.025C267.252 288.135 270.438 290.518 276.538 289.471C282.244 288.469 290.817 274.297 290.817 264.327C290.817 254.357 283.473 253.705 280.802 255.647C278.132 257.59 265.446 277.68 265.446 277.68Z" fill="white" stroke="black" stroke-linecap="round" stroke-linejoin="round"/>
<path d="M204.931 189.047C204.931 189.047 177.92 201.869 174.112 204.221C170.303 206.573 167.875 236.77 167.875 241.975C167.875 247.18 171.684 298.12 172.716 306.739C173.747 315.358 207.01 321.291 218.102 318.165C229.194 315.04 239.999 307.164 239.999 304.387C239.999 301.61 238.952 278.075 239.65 273.568C240.348 269.061 246.569 250.018 246.569 250.018L265.476 280.184C265.476 280.184 267.464 283.887 274.49 280.973C284.535 276.815 285.37 260.746 285.37 260.746C285.37 260.746 274.293 241.353 271.167 231.657C268.041 221.96 266.614 214.677 265.279 212.947C263.944 211.217 232.715 196.665 227.176 192.856C224.04 190.494 220.385 188.916 216.515 188.253C212.646 187.591 208.674 187.863 204.931 189.047Z" fill="white" stroke="black" stroke-linecap="round" stroke-linejoin="round"/>
<path d="M246.493 250.018L237.495 236.846" stroke="black" stroke-linecap="round" stroke-linejoin="round"/>
<path d="M245.036 248.136L229.179 240.321" stroke="black" stroke-linecap="round" stroke-linejoin="round"/>
<path d="M198.042 347.482L211.88 445.842C211.912 446.07 211.991 446.289 212.113 446.485C212.234 446.68 212.395 446.848 212.585 446.978C212.775 447.108 212.99 447.197 213.216 447.239C213.442 447.282 213.675 447.276 213.899 447.223C214.288 447.127 214.629 446.896 214.863 446.57C215.097 446.245 215.207 445.847 215.173 445.448L205.416 345.859L198.042 347.482Z" fill="black" stroke="black" stroke-linecap="round" stroke-linejoin="round"/>
<path d="M158.285 348.256L135.159 444.856C135.106 445.08 135.101 445.312 135.143 445.539C135.185 445.765 135.274 445.98 135.404 446.17C135.534 446.36 135.702 446.521 135.897 446.642C136.093 446.763 136.312 446.842 136.54 446.874C136.936 446.933 137.339 446.845 137.675 446.627C138.01 446.409 138.254 446.076 138.361 445.69L165.219 351.943L158.285 348.256Z" fill="black" stroke="black" stroke-linecap="round" stroke-linejoin="round"/>
<path d="M200.287 347.057L185.568 445.281C185.534 445.507 185.547 445.738 185.606 445.959C185.665 446.181 185.769 446.387 185.912 446.567C186.054 446.746 186.232 446.894 186.434 447.002C186.636 447.109 186.858 447.174 187.086 447.193C187.485 447.215 187.878 447.092 188.193 446.846C188.508 446.601 188.724 446.249 188.8 445.857L207.48 350.138L200.287 347.057Z" fill="black" stroke="black" stroke-linecap="round" stroke-linejoin="round"/>
<path d="M252.396 347.482L266.235 445.842C266.267 446.07 266.346 446.289 266.467 446.485C266.588 446.68 266.749 446.848 266.939 446.978C267.129 447.108 267.344 447.197 267.57 447.239C267.797 447.282 268.029 447.276 268.253 447.223C268.642 447.127 268.984 446.896 269.218 446.57C269.451 446.245 269.561 445.847 269.528 445.448L259.725 345.828L252.396 347.482Z" fill="black" stroke="black" stroke-linecap="round" stroke-linejoin="round"/>
<path d="M136.388 245.405L153.232 354.918H273.018C273.018 354.918 274.793 323.355 269.512 312.202C264.232 301.049 199.028 324.964 196.676 324.341C194.931 323.901 197.51 267.362 200.712 245.268C200.936 243.713 200.823 242.128 200.381 240.62C199.938 239.112 199.176 237.717 198.147 236.53C197.118 235.342 195.846 234.39 194.416 233.738C192.987 233.086 191.434 232.748 189.862 232.749H147.222C145.639 232.748 144.074 233.089 142.635 233.751C141.197 234.412 139.918 235.377 138.889 236.58C137.859 237.783 137.102 239.195 136.67 240.718C136.239 242.241 136.142 243.84 136.388 245.405Z" fill="#D71635" stroke="black" stroke-linecap="round" stroke-linejoin="round"/>
<path d="M269.512 312.202C264.232 301.049 199.028 324.964 196.676 324.341C194.931 323.901 197.51 267.362 200.712 245.268C200.992 243.733 200.93 242.154 200.531 240.645C200.131 239.137 199.404 237.734 198.401 236.538C197.398 235.343 196.144 234.382 194.728 233.726C193.312 233.07 191.769 232.734 190.208 232.742C188.647 232.75 187.108 233.101 185.698 233.772C184.289 234.443 183.045 235.416 182.054 236.622C181.063 237.828 180.351 239.237 179.967 240.75C179.583 242.263 179.537 243.842 179.832 245.374L196.676 354.887H273.018C273.018 354.887 274.793 323.355 269.512 312.202Z" fill="black" stroke="black" stroke-linecap="round" stroke-linejoin="round"/>
<path d="M330.119 222.264C330.119 222.264 328.192 224.191 325.293 227.575Z" fill="white"/>
<path d="M330.119 222.264C330.119 222.264 328.192 224.191 325.293 227.575" stroke="black" stroke-linecap="round" stroke-linejoin="round"/>
<path d="M329.815 226.179C329.815 226.179 327.463 230.959 326.021 233.129Z" fill="white"/>
<path d="M329.815 226.179C329.815 226.179 327.463 230.959 326.021 233.129" stroke="black" stroke-linecap="round" stroke-linejoin="round"/>
<path d="M5.34281 281.535C7.86175 282.627 14.0073 282.491 14.0225 282.491C14.0377 282.491 12.7024 278.469 12.581 278.227C11.2304 275.389 6.95129 270.731 3.47637 271.201C2.90113 271.295 2.35214 271.509 1.86528 271.829C1.37842 272.15 0.964649 272.569 0.651003 273.06C0.337357 273.552 0.130898 274.103 0.0451164 274.68C-0.0406656 275.256 -0.0038405 275.844 0.153189 276.406C0.729813 278.803 3.18806 280.594 5.34281 281.535Z" fill="black"/>
<path d="M85.9942 260.579C82.5041 260.2 78.4071 264.979 77.0869 267.847C76.9807 268.09 75.706 272.157 75.7667 272.157C75.0991 272.9 74.4011 273.674 73.6575 274.615C72.2918 276.284 70.7744 278.196 69.2418 280.381C67.591 282.723 66.0713 285.155 64.6895 287.665C63.132 290.48 61.8221 293.425 60.7745 296.466C60.7811 296.501 60.7811 296.537 60.7745 296.572C60.7745 295.556 60.7745 292.673 60.7745 292.46C60.3648 289.349 57.7396 283.583 54.3102 282.946C53.7389 282.854 53.1546 282.882 52.595 283.03C52.0354 283.177 51.5128 283.44 51.0611 283.802C50.6093 284.163 50.2383 284.616 49.9721 285.13C49.7058 285.643 49.5502 286.207 49.5152 286.785C49.3027 289.258 51.0326 291.732 52.8383 293.28C54.811 295.04 60.2738 296.739 60.7138 296.876C59.7216 300.03 58.9509 303.25 58.4073 306.512C58.0583 308.393 57.7852 310.29 57.5272 312.202C57.5272 311.307 57.5272 310.518 57.5272 310.411C57.1327 307.301 54.4923 301.534 51.0781 300.897C50.5023 300.807 49.914 300.839 49.3514 300.991C48.7888 301.143 48.2643 301.411 47.8122 301.779C47.3601 302.147 46.9903 302.606 46.7268 303.125C46.4634 303.645 46.3122 304.215 46.283 304.797C46.0858 307.27 47.8005 309.744 49.6214 311.307C51.4423 312.87 56.0098 314.433 57.2085 314.812C57.1175 315.555 57.0113 316.329 56.9202 317.012C56.5105 320.533 56.1008 324.053 55.6001 327.482C55.418 328.696 55.2055 329.88 54.9931 331.064C54.9931 330.275 54.9931 329.622 54.9931 329.546C54.5834 326.435 51.9582 320.669 48.5288 320.032C47.953 319.944 47.3651 319.978 46.8032 320.132C46.2414 320.286 45.7182 320.556 45.2676 320.926C44.8169 321.295 44.4488 321.754 44.1872 322.275C43.9256 322.795 43.7763 323.365 43.7489 323.947C43.5517 326.405 45.2664 328.878 47.0873 330.441C49.353 331.939 51.835 333.08 54.4468 333.825C54.1889 335.039 53.9309 336.238 53.6274 337.406C53.3998 338.196 53.248 338.924 52.9749 339.743C52.7018 340.563 52.4742 341.261 52.2314 342.05C51.7003 343.491 51.1692 344.994 50.6229 346.39C50.2435 347.376 49.8642 348.302 49.5 349.227C49.6821 348.028 50.0007 345.661 50.0159 345.464C49.9731 342.707 49.2262 340.006 47.846 337.619C47.8836 337.317 47.8836 337.011 47.846 336.708C47.7772 336.124 47.5848 335.562 47.2817 335.058C46.9785 334.554 46.5715 334.12 46.0877 333.786C45.604 333.451 45.0545 333.223 44.476 333.118C43.8974 333.012 43.303 333.031 42.7322 333.173C39.3332 334.068 37.1936 340.016 37.0267 343.142C37.0267 343.324 37.1481 345.343 37.2391 346.617C37.0722 345.874 36.9053 345.1 36.7232 344.402C36.3742 342.884 35.9645 341.367 35.5548 339.85C35.312 339.076 35.0844 338.332 34.8416 337.528C34.5988 336.724 34.2953 336.01 34.0222 335.161C33.3545 333.325 32.5958 331.504 31.7764 329.683C33.0814 329.364 37.7247 328.165 39.5912 326.754C41.4576 325.343 43.4151 322.991 43.3999 320.517C43.4179 319.928 43.31 319.342 43.0834 318.798C42.8568 318.254 42.5167 317.764 42.0858 317.362C41.6549 316.96 41.1432 316.655 40.5848 316.466C40.0263 316.277 39.4341 316.21 38.8476 316.269C35.3575 316.648 32.3227 322.202 31.7005 325.267C31.7005 325.464 31.4425 327.71 31.3515 328.954C30.8659 327.862 30.3652 326.769 29.8341 325.677C28.3166 322.551 26.5868 319.41 24.9328 316.284L23.4153 313.401C23.8857 313.294 29.4851 312.02 31.5184 310.366C33.5518 308.712 35.3423 306.618 35.3272 304.129C35.3427 303.541 35.2332 302.956 35.0057 302.413C34.7783 301.87 34.4381 301.381 34.0078 300.98C33.5774 300.578 33.0667 300.272 32.5094 300.083C31.9521 299.893 31.3609 299.824 30.7749 299.88C27.2848 300.26 24.2651 305.814 23.6278 308.879C23.6278 309.122 23.2788 312.354 23.2484 313.188C22.1559 311.079 21.0785 308.955 20.1073 306.83C18.7741 303.959 17.6285 301.004 16.6779 297.984C16.8904 297.984 22.7477 296.618 24.8417 294.949C26.693 293.522 28.6656 291.185 28.6353 288.712C28.6533 288.123 28.5454 287.537 28.3188 286.993C28.0922 286.449 27.7521 285.959 27.3212 285.557C26.8903 285.155 26.3786 284.849 25.8202 284.661C25.2617 284.472 24.6695 284.405 24.083 284.463C20.5929 284.843 17.5732 290.396 16.9359 293.462C16.9359 293.704 16.5717 297.195 16.5565 297.832C16.5565 297.65 16.4351 297.483 16.3744 297.301C15.512 294.248 14.918 291.125 14.599 287.969C14.417 286.223 14.3259 284.554 14.2652 282.916C15.3729 282.779 20.3349 282.111 22.5049 280.852C24.6748 279.592 26.7233 277.529 27.0572 275.07C27.1361 274.493 27.0929 273.905 26.9301 273.346C26.7674 272.786 26.4888 272.267 26.1125 271.822C25.7362 271.377 25.2706 271.016 24.7458 270.763C24.221 270.509 23.6488 270.369 23.0663 270.351C19.5459 270.351 15.9344 275.541 14.9632 278.515C14.9632 278.682 14.5687 280.381 14.3259 281.626C14.3259 280.897 14.3259 280.108 14.3259 279.425C14.3259 276.77 14.4928 274.342 14.6597 272.202C14.766 270.973 14.8874 269.866 15.0088 268.834C16.0254 268.136 20.077 265.283 21.3213 263.234C22.5656 261.186 23.5367 258.348 22.6263 256.042C22.4308 255.494 22.1221 254.994 21.7204 254.573C21.3188 254.152 20.833 253.821 20.2948 253.601C19.7566 253.38 19.178 253.276 18.5966 253.293C18.0153 253.311 17.4443 253.452 16.9207 253.705C13.7948 255.313 12.9754 261.58 13.4913 264.676C13.4913 264.934 14.7204 269.031 14.766 269.001C14.6294 269.987 14.4928 271.049 14.3714 272.218C14.159 274.372 13.9466 276.77 13.8707 279.471C13.7792 282.336 13.8501 285.203 14.0831 288.06C14.3066 291.265 14.8144 294.444 15.6006 297.559C15.6071 297.594 15.6071 297.63 15.6006 297.665C15.0543 296.8 13.4306 294.433 13.2789 294.266C11.2303 291.899 5.87381 288.515 2.65686 289.896C2.12645 290.136 1.65271 290.486 1.26656 290.922C0.880419 291.358 0.590544 291.87 0.415851 292.426C0.241158 292.981 0.185575 293.568 0.25273 294.146C0.319885 294.725 0.508269 295.283 0.805588 295.783C2.00436 297.953 4.85713 299.031 7.1788 299.364C9.78879 299.744 15.2819 298.151 15.7219 298.029C16.6245 301.175 17.7347 304.257 19.0451 307.255C19.8038 309 20.5626 310.745 21.4578 312.475C20.9571 311.732 20.5019 311.079 20.4412 310.958C18.3926 308.59 13.0361 305.207 9.81914 306.587C9.29768 306.853 8.83843 307.226 8.47166 307.682C8.10488 308.138 7.8389 308.667 7.69123 309.233C7.54356 309.8 7.51756 310.391 7.61494 310.968C7.71231 311.545 7.93086 312.095 8.25618 312.581C9.43978 314.751 12.3077 315.829 14.6142 316.162C16.9207 316.496 21.6703 315.252 22.9146 314.888C23.2484 315.555 23.5671 316.223 23.9009 316.876C25.4183 320.047 27.1027 323.203 28.5746 326.344C29.0905 327.452 29.5609 328.56 30.092 329.668L29.1967 328.393C27.1482 326.026 21.7917 322.657 18.5747 324.023C18.0451 324.266 17.5727 324.619 17.188 325.057C16.8033 325.495 16.5151 326.009 16.3419 326.565C16.1688 327.122 16.1146 327.709 16.183 328.288C16.2513 328.866 16.4406 329.425 16.7386 329.926C17.9374 332.095 20.7902 333.173 23.0967 333.507C25.8388 333.518 28.5665 333.108 31.1846 332.293C31.6398 333.446 32.095 334.599 32.4744 335.722C32.7324 336.511 33.0207 337.24 33.2179 338.044C33.4152 338.848 33.658 339.561 33.8704 340.381C34.2346 341.898 34.614 343.416 34.9326 344.933C35.1603 345.95 35.3575 346.936 35.5548 347.968C35.0389 346.86 34.0374 344.705 33.9008 344.538C32.2316 341.883 27.4517 337.74 24.0526 338.605C23.4933 338.767 22.9741 339.044 22.5287 339.419C22.0833 339.794 21.7216 340.258 21.4669 340.781C21.2123 341.305 21.0705 341.876 21.0506 342.458C21.0308 343.04 21.1333 343.619 21.3516 344.159C22.2014 346.481 24.8569 347.983 27.0875 348.711C29.5609 349.455 35.0085 348.711 35.6914 348.711C36.0252 350.335 36.3135 351.928 36.5866 353.431C37.4971 358.635 38.1041 363.021 38.4227 366.071C38.4227 366.617 38.5441 367.103 38.5897 367.588H27.9676L31.8219 442.807H49.8186L53.6729 367.588H43.8248L44.0524 367.148C45.4029 364.326 47.2694 360.289 49.2876 355.343C49.94 353.825 50.5925 352.11 51.245 350.381C51.9127 350.517 57.3148 351.61 59.8185 351.033C62.1099 350.517 64.8716 349.227 65.8883 346.981C66.1477 346.459 66.2941 345.888 66.3177 345.306C66.3414 344.723 66.2418 344.142 66.0256 343.601C65.8093 343.06 65.4812 342.57 65.0627 342.164C64.6442 341.758 64.1447 341.445 63.5969 341.246C60.2738 340.123 55.2055 343.901 53.3391 346.42C53.2329 346.572 52.2162 348.317 51.594 349.455L52.3983 347.33C52.9294 345.889 53.415 344.417 53.9157 342.854L54.5986 340.532C54.8565 339.759 55.0234 338.924 55.2359 338.105C55.6759 336.208 56.0401 334.265 56.374 332.293C57.6334 332.748 62.1705 334.326 64.5074 334.159C66.8442 333.992 69.7729 333.142 71.1234 331.124C71.4657 330.645 71.7024 330.099 71.8178 329.522C71.9331 328.944 71.9245 328.349 71.7926 327.775C71.6606 327.201 71.4082 326.662 71.0522 326.193C70.6962 325.724 70.2446 325.336 69.7274 325.055C66.6925 323.537 61.0173 326.42 58.8018 328.621C58.6653 328.772 57.2844 330.533 56.4954 331.519C56.6774 330.335 56.8595 329.152 57.0113 327.938C57.4513 324.463 57.77 320.927 58.119 317.407C58.2252 316.329 58.3466 315.252 58.4528 314.175C58.9081 314.341 64.2494 316.329 66.8746 316.147C69.1963 315.98 72.1249 315.131 73.4754 313.112C73.8178 312.633 74.0544 312.087 74.1698 311.51C74.2852 310.932 74.2766 310.337 74.1446 309.763C74.0126 309.189 73.7603 308.65 73.4042 308.181C73.0482 307.712 72.5966 307.324 72.0794 307.043C69.0445 305.449 63.3845 308.408 61.1539 310.609C60.987 310.776 58.9536 313.325 58.468 313.992C58.726 311.625 58.9991 309.273 59.3633 306.952C59.8305 303.825 60.5047 300.733 61.3815 297.695C61.5939 297.695 67.1477 299.865 69.8488 299.683C72.1704 299.516 75.0991 298.651 76.4496 296.648C76.7944 296.17 77.0331 295.624 77.1498 295.046C77.2665 294.468 77.2585 293.872 77.1263 293.297C76.9942 292.723 76.7409 292.183 76.3835 291.714C76.026 291.245 75.5726 290.858 75.0536 290.579C72.0187 288.97 66.3587 291.929 64.128 294.144C63.9611 294.311 61.776 297.058 61.4118 297.574L61.5484 297.043C62.5118 294.017 63.7407 291.082 65.2206 288.272C66.0248 286.755 66.8746 285.237 67.7244 283.871C68.7259 284.372 73.3085 286.603 75.7364 286.694C78.1643 286.785 81.0778 286.254 82.6559 284.342C83.0309 283.906 83.3111 283.397 83.4786 282.847C83.646 282.296 83.6971 281.718 83.6286 281.147C83.5601 280.576 83.3735 280.025 83.0806 279.53C82.7877 279.035 82.395 278.607 81.9275 278.272C78.9989 276.33 73.1264 278.651 70.6833 280.609C70.5468 280.715 69.3025 281.944 68.4224 282.855C68.8169 282.233 69.2114 281.58 69.606 281.004C71.1234 278.788 72.5498 276.861 73.8851 275.146C74.6438 274.19 75.4026 273.34 76.0247 272.551C77.2538 272.551 82.2158 272.369 84.3858 271.353C86.5557 270.336 88.9381 268.5 89.4388 266.087C89.6486 265.498 89.7226 264.87 89.6551 264.249C89.5876 263.627 89.3804 263.03 89.0491 262.5C88.7178 261.97 88.2708 261.522 87.7418 261.189C87.2128 260.857 86.6153 260.648 85.9942 260.579ZM47.3756 354.28C45.2663 359.136 43.324 363.097 41.9432 365.843L41.1693 367.361H40.9417C40.9417 366.829 40.7899 366.238 40.6989 365.585C40.274 362.55 39.6063 358.089 38.5593 352.854C38.2406 351.2 37.8613 349.44 37.4516 347.634C39.0916 346.972 40.6926 346.217 42.2467 345.373C44.3577 347.205 46.7117 348.737 49.242 349.925C48.6199 351.397 47.9826 352.884 47.3756 354.28Z" fill="black"/>
<path d="M67.618 282.885C67.618 282.885 68.7409 278.803 68.7713 278.53C69.2113 275.419 68.225 269.183 65.0536 267.65C64.5266 267.414 63.9563 267.291 63.379 267.288C62.8017 267.284 62.23 267.401 61.7005 267.631C61.1709 267.861 60.6949 268.199 60.303 268.623C59.911 269.046 59.6116 269.547 59.4239 270.093C58.5741 272.415 59.6515 275.268 60.9413 277.24C62.4588 279.607 67.618 282.885 67.618 282.885Z" fill="black"/>
<path d="M638.977 442.443H21.7612V450H638.977V442.443Z" fill="black"/>
</svg>
