<svg width="382" height="307" viewBox="0 0 382 307" fill="none" xmlns="http://www.w3.org/2000/svg">
<path d="M195 306.755C293.516 306.755 373.379 302.092 373.379 296.341C373.379 290.589 293.516 285.926 195 285.926C96.4845 285.926 16.6216 290.589 16.6216 296.341C16.6216 302.092 96.4845 306.755 195 306.755Z" fill="#F5F5F5"/>
<path d="M303.468 37.9403C297.948 40.9579 296.108 49.9004 298.693 53.792C289.125 56.6624 294.093 73.112 309.733 74.032C325.373 74.952 337.278 69.2387 329.596 57.0395C337.195 46.7999 333.699 35.3643 327.039 36.6247C319.89 22.3003 295.952 22.7235 303.468 37.9403Z" fill="#263238"/>
<path d="M320.12 75.136C317.707 75.1283 315.342 74.467 313.275 73.2224C313.242 73.2104 313.212 73.1912 313.187 73.1663C313.163 73.1414 313.144 73.1114 313.132 73.0783C313.12 73.0452 313.115 73.0099 313.119 72.9749C313.122 72.9399 313.133 72.9061 313.151 72.8758C313.169 72.8456 313.193 72.8196 313.222 72.7998C313.251 72.78 313.284 72.7669 313.319 72.7613C313.354 72.7558 313.389 72.7579 313.423 72.7676C313.457 72.7774 313.488 72.7944 313.514 72.8176C316.18 74.413 319.329 74.9989 322.39 74.4688C325.451 73.9387 328.22 72.3277 330.194 69.9288C332.706 66.8192 333.874 61.8328 329.486 57.1776C329.465 57.1552 329.448 57.1289 329.437 57.1002C329.426 57.0714 329.421 57.0408 329.422 57.0101C329.423 56.9793 329.429 56.949 329.442 56.9209C329.455 56.8928 329.473 56.8675 329.495 56.8464C329.517 56.8252 329.544 56.8087 329.572 56.7977C329.601 56.7867 329.632 56.7815 329.662 56.7824C329.693 56.7832 329.723 56.7901 329.751 56.8027C329.78 56.8152 329.805 56.8332 329.826 56.8556C334.371 61.7316 333.184 66.9756 330.553 70.2232C329.278 71.7546 327.684 72.988 325.881 73.8368C324.079 74.6856 322.112 75.1291 320.12 75.136Z" fill="#263238"/>
<path d="M296.964 56.8464C296.917 56.8451 296.871 56.8294 296.833 56.8014C296.796 56.7734 296.767 56.7345 296.752 56.69C294.305 49.6796 297.58 40.268 303.367 37.692C303.423 37.6719 303.485 37.6729 303.541 37.6949C303.597 37.7169 303.643 37.7583 303.671 37.8116C303.683 37.8393 303.689 37.8692 303.69 37.8996C303.69 37.9299 303.685 37.96 303.674 37.9882C303.663 38.0165 303.646 38.0422 303.625 38.064C303.604 38.0858 303.579 38.1032 303.551 38.1152C297.957 40.5992 294.802 49.7256 297.185 56.5152C297.195 56.5441 297.199 56.5748 297.197 56.6054C297.195 56.636 297.187 56.6659 297.173 56.6934C297.159 56.7208 297.14 56.7452 297.117 56.7652C297.094 56.7851 297.067 56.8002 297.037 56.8096L296.964 56.8464Z" fill="#263238"/>
<path d="M295.464 46.7172H295.381C295.325 46.6945 295.28 46.6516 295.255 46.597C295.229 46.5424 295.225 46.4802 295.243 46.4228C296.899 42.0344 300.027 38.6948 303.394 37.7012C303.453 37.6841 303.516 37.691 303.569 37.7203C303.623 37.7496 303.663 37.799 303.68 37.8576C303.697 37.9161 303.69 37.9791 303.661 38.0326C303.631 38.086 303.582 38.1257 303.523 38.1428C300.294 39.0628 297.286 42.3288 295.676 46.5884C295.656 46.6278 295.626 46.6609 295.589 46.6837C295.551 46.7065 295.508 46.7181 295.464 46.7172Z" fill="#263238"/>
<path d="M308.344 291.437L303.026 291.446L302.134 271.473L311.085 271.694L308.344 291.437Z" fill="#FFB573"/>
<path d="M299.098 119.084C299.098 119.084 298.629 174.514 297.46 198.646C297.414 199.363 297.414 200.082 297.46 200.799C299.208 224.986 302.106 271.473 302.106 271.473L311.113 271.703C311.113 271.703 318.961 234.581 314.103 200.955C321.914 162.922 326.118 128.984 319.043 119.075L299.098 119.084Z" fill="#D71635"/>
<path opacity="0.2" d="M314.186 141.1C311.426 150.355 314.112 180.108 315.538 193.834C317.479 183.917 319.135 174.376 320.359 165.581L314.186 141.1Z" fill="black"/>
<path d="M302.428 288.861H309.338C309.483 288.856 309.625 288.906 309.734 289.002C309.844 289.098 309.912 289.232 309.926 289.376L310.626 295.034C310.629 295.209 310.598 295.383 310.534 295.546C310.469 295.709 310.373 295.857 310.25 295.982C310.128 296.108 309.981 296.207 309.82 296.275C309.658 296.343 309.485 296.378 309.31 296.378C306.265 296.378 304.811 296.157 300.975 296.166C298.61 296.166 297.184 296.405 293.918 296.405C290.652 296.405 290.652 293.277 292.023 292.992C298.178 291.713 298.969 291.005 301.113 289.312C301.489 289.02 301.952 288.861 302.428 288.861Z" fill="#263238"/>
<path d="M304.701 78.2916C304.36 80.196 303.974 81.9716 303.56 83.8116C303.146 85.6516 302.723 87.4916 302.235 89.3316C301.269 93.0116 300.266 96.618 298.941 100.261C298.277 102.145 297.503 103.988 296.623 105.781C296.136 106.776 295.573 107.733 294.939 108.642C294.755 108.891 294.59 109.13 294.351 109.406C294.122 109.699 293.866 109.97 293.587 110.216C292.881 110.882 292.031 111.376 291.103 111.66C290.13 111.954 289.097 111.995 288.104 111.78C287.322 111.598 286.575 111.287 285.896 110.86C284.865 110.199 283.951 109.372 283.191 108.412C281.886 106.789 280.846 104.969 280.109 103.021C279.947 102.607 279.933 102.15 280.069 101.726C280.206 101.303 280.484 100.94 280.856 100.698C281.229 100.456 281.674 100.349 282.116 100.397C282.559 100.445 282.971 100.644 283.283 100.96L283.393 101.08C284.535 102.286 285.765 103.405 287.073 104.429C287.585 104.819 288.152 105.129 288.757 105.349C288.978 105.404 289.134 105.404 289.153 105.349C289.171 105.294 289.024 105.257 288.895 105.266C288.766 105.275 288.683 105.321 288.72 105.266C288.764 105.186 288.813 105.109 288.867 105.036C288.959 104.925 289.039 104.804 289.107 104.677C289.492 104.044 289.83 103.382 290.119 102.699C290.788 101.123 291.378 99.5141 291.885 97.8784C292.934 94.5112 293.891 91.006 294.719 87.4824C295.547 83.9588 296.365 80.3616 297.101 76.8472C297.328 75.8756 297.923 75.0297 298.76 74.4874C299.598 73.9451 300.613 73.7486 301.592 73.9393C302.571 74.1299 303.438 74.6928 304.011 75.5096C304.584 76.3264 304.818 77.3335 304.664 78.3191L304.701 78.2916Z" fill="#FFB573"/>
<path d="M296.338 111.559C296.338 113.822 331.611 114.264 331.611 111.274L313.588 106.674L296.338 111.559Z" fill="#263238"/>
<path d="M302.815 72.3575C312.115 70.8021 321.616 70.8955 330.884 72.6335C331.428 72.7196 331.948 72.9161 332.413 73.211C332.877 73.5058 333.277 73.8927 333.586 74.3479C333.896 74.803 334.109 75.3167 334.212 75.8573C334.315 76.3979 334.307 76.954 334.187 77.4911C329.2 99.8195 329.486 107.327 329.964 119.084H299.107C297.562 99.4699 296.743 88.2735 296.54 81.9163C296.375 77.0679 298.04 73.0659 302.815 72.3575Z" fill="#FFB573"/>
<path opacity="0.2" d="M330.792 78.8435C330.598 81.9599 331.01 85.0843 332.006 88.0435C332.402 85.9183 332.862 83.6367 333.386 81.1435L330.792 78.8435Z" fill="black"/>
<path d="M320.755 56.0551C319.835 60.5171 318.998 68.7143 322.126 71.6951C322.126 71.6951 320.902 76.2307 312.604 76.2307C303.468 76.2307 308.234 71.6951 308.234 71.6951C313.22 70.4991 313.091 66.8007 312.226 63.3323L320.755 56.0551Z" fill="#FFB573"/>
<path opacity="0.2" d="M317.277 59.0267L312.227 63.3599C312.441 64.1679 312.586 64.9928 312.659 65.8255C314.563 65.5495 317.176 63.4611 317.379 61.4647C317.492 60.6526 317.458 59.8267 317.277 59.0267Z" fill="black"/>
<path d="M325.576 48.3087C323.865 55.5859 323.303 58.7047 318.943 61.8419C312.392 66.5707 303.818 62.8907 303.303 55.2455C302.843 48.3731 305.704 37.6183 313.423 35.9255C315.118 35.5433 316.883 35.6004 318.55 36.0916C320.217 36.5827 321.731 37.4916 322.948 38.732C324.166 39.9723 325.046 41.5031 325.506 43.1791C325.966 44.8551 325.99 46.6208 325.576 48.3087Z" fill="#FFB573"/>
<path d="M322.797 37.3608C315.088 38.2164 317.434 52.5868 323.23 53.976C330.019 50.6548 334.205 38.0416 322.797 37.3608Z" fill="#263238"/>
<path d="M360.535 278.281L355.209 279.9L347.435 263.616L355.632 261.381L360.535 278.281Z" fill="#FFB573"/>
<path d="M353.673 278.272L360.517 275.622C360.637 275.576 360.769 275.574 360.891 275.616C361.012 275.658 361.114 275.742 361.18 275.852L364.243 281.023C364.317 281.152 364.362 281.295 364.375 281.443C364.388 281.59 364.369 281.739 364.319 281.879C364.269 282.019 364.19 282.146 364.086 282.252C363.983 282.359 363.857 282.441 363.719 282.495C361.318 283.415 360.159 283.884 357.15 285.052C355.31 285.77 352.421 288.162 349.864 289.146C347.306 290.131 346.184 287.794 347.104 286.984C349.596 284.809 351.56 282.093 352.845 279.045C352.922 278.866 353.036 278.705 353.179 278.573C353.321 278.44 353.489 278.337 353.673 278.272Z" fill="#263238"/>
<path d="M307.571 119.084C307.571 119.084 318.915 177.109 323.211 200.044C327.655 223.964 347.453 263.58 347.453 263.58L355.669 261.335C355.669 261.335 344.417 218.96 339.173 197.956C338.143 159.923 339.357 128.956 329.973 119.048L307.571 119.084Z" fill="#D71635"/>
<path d="M313.505 48.2627C313.404 48.8607 313.008 49.2931 312.585 49.1827C312.162 49.0723 311.96 48.5755 312.061 47.9775C312.162 47.3795 312.567 46.9471 312.981 47.0115C313.395 47.0759 313.616 47.6647 313.505 48.2627Z" fill="#263238"/>
<path d="M306.743 47.1128C306.642 47.7108 306.237 48.1432 305.823 48.0328C305.409 47.9224 305.198 47.4348 305.299 46.8276C305.4 46.2204 305.805 45.7972 306.219 45.9076C306.633 46.018 306.845 46.5148 306.743 47.1128Z" fill="#263238"/>
<path d="M306.384 45.972L305.014 45.3096C305.014 45.3096 305.566 46.5608 306.384 45.972Z" fill="#263238"/>
<path d="M308.638 48.548C307.879 49.8203 306.95 50.984 305.878 52.0072C306.147 52.2755 306.47 52.4826 306.825 52.6144C307.181 52.7462 307.561 52.7996 307.939 52.7708L308.638 48.548Z" fill="#ED893E"/>
<path d="M310.791 55.6687C310.483 55.6689 310.175 55.6412 309.871 55.5859C309.848 55.5826 309.826 55.5746 309.806 55.5626C309.786 55.5505 309.769 55.5346 309.755 55.5158C309.741 55.4969 309.732 55.4755 309.726 55.4528C309.721 55.4301 309.72 55.4065 309.724 55.3835C309.733 55.338 309.759 55.2975 309.796 55.2702C309.834 55.2429 309.88 55.2308 309.927 55.2363C310.669 55.3778 311.435 55.3433 312.162 55.1356C312.889 54.9279 313.557 54.5528 314.113 54.0403C314.129 54.0225 314.149 54.0082 314.171 53.9985C314.193 53.9888 314.217 53.9837 314.241 53.9837C314.266 53.9837 314.29 53.9888 314.312 53.9985C314.334 54.0082 314.354 54.0225 314.37 54.0403C314.401 54.0743 314.418 54.1186 314.418 54.1645C314.418 54.2105 314.401 54.2548 314.37 54.2887C313.407 55.204 312.12 55.7002 310.791 55.6687Z" fill="#263238"/>
<path d="M326.625 54.5832C325.891 55.8288 324.699 56.7372 323.303 57.1132C321.463 57.5824 320.543 55.9171 321.114 54.1875C321.601 52.6327 323.165 50.5075 325.015 50.7927C325.416 50.8661 325.793 51.0381 326.112 51.2932C326.431 51.5483 326.681 51.8785 326.841 52.2542C327 52.63 327.064 53.0395 327.026 53.4459C326.989 53.8524 326.851 54.2432 326.625 54.5832Z" fill="#FFB573"/>
<path d="M316.44 47.3427C316.366 47.342 316.293 47.3175 316.234 47.2728C316.174 47.2282 316.13 47.1656 316.109 47.0943C315.621 45.5211 313.606 44.8403 313.588 44.8403C313.543 44.8268 313.501 44.8042 313.464 44.774C313.428 44.7437 313.398 44.7063 313.377 44.6642C313.355 44.622 313.342 44.576 313.339 44.5288C313.336 44.4815 313.342 44.4342 313.358 44.3895C313.372 44.3442 313.394 44.3021 313.424 44.2657C313.455 44.2293 313.492 44.1995 313.534 44.178C313.576 44.1565 313.622 44.1438 313.67 44.1406C313.717 44.1374 313.764 44.1439 313.809 44.1595C313.901 44.1595 316.192 44.9599 316.79 46.9195C316.804 46.9648 316.809 47.0125 316.805 47.0598C316.8 47.107 316.786 47.153 316.764 47.1949C316.742 47.2368 316.712 47.2739 316.675 47.304C316.638 47.3341 316.596 47.3567 316.55 47.3703L316.44 47.3427Z" fill="#263238"/>
<path d="M305.234 43.6351C305.173 43.6344 305.113 43.6179 305.06 43.5873C305.006 43.5567 304.962 43.513 304.931 43.4603C304.884 43.3774 304.873 43.2794 304.899 43.188C304.925 43.0966 304.986 43.0192 305.069 42.9727C305.553 42.6797 306.101 42.5067 306.666 42.4683C307.231 42.4299 307.797 42.5272 308.316 42.752C308.4 42.7952 308.463 42.8696 308.492 42.9591C308.522 43.0486 308.515 43.146 308.473 43.2303C308.429 43.314 308.355 43.3772 308.265 43.4065C308.176 43.4358 308.079 43.4287 307.994 43.3867C307.579 43.2168 307.13 43.1465 306.682 43.1817C306.235 43.2168 305.802 43.3564 305.418 43.5891C305.363 43.6226 305.299 43.6386 305.234 43.6351Z" fill="#263238"/>
<path d="M333.405 73.9123C336.027 77.3439 338.41 80.8123 340.673 84.4739C341.795 86.3139 342.899 88.1539 343.911 90.1135C345.011 92.1441 345.919 94.2723 346.625 96.4708C346.727 96.7652 346.8 97.1056 346.883 97.3908L346.947 97.6575L347.03 98.0439C347.067 98.2848 347.092 98.5274 347.104 98.7708C347.146 99.5692 347.087 100.37 346.929 101.154C346.667 102.396 346.276 103.608 345.761 104.769C344.853 106.82 343.782 108.796 342.559 110.676C340.23 114.289 337.612 117.707 334.73 120.897C334.414 121.25 333.978 121.474 333.507 121.524C333.036 121.575 332.563 121.449 332.179 121.171C331.796 120.893 331.529 120.482 331.431 120.018C331.333 119.555 331.41 119.071 331.648 118.661V118.615C333.681 115.073 335.696 111.43 337.435 107.824C338.287 106.085 339.028 104.293 339.652 102.46C339.92 101.681 340.105 100.876 340.204 100.059C340.238 99.8177 340.238 99.573 340.204 99.332V99.2767V99.1663C340.139 98.9823 340.093 98.8167 340.011 98.6235C339.294 96.8987 338.452 95.2289 337.49 93.6279C336.478 91.9259 335.401 90.224 334.297 88.522C332.053 85.1548 329.697 81.7691 327.305 78.4939C326.732 77.6722 326.502 76.6596 326.662 75.6706C326.823 74.6817 327.362 73.7942 328.166 73.1961C328.97 72.598 329.975 72.3364 330.968 72.4667C331.962 72.5969 332.865 73.1089 333.488 73.8939L333.405 73.9123Z" fill="#FFB573"/>
<path d="M313.155 47.122L311.785 46.4596C311.785 46.4596 312.327 47.72 313.155 47.122Z" fill="#263238"/>
<path d="M297.405 79.7176C297.973 77.3964 298.705 75.1183 299.595 72.9004C301.006 72.4788 302.449 72.1711 303.909 71.9804C306.885 74.6174 309.333 77.7956 311.122 81.346C315.069 77.3532 322.622 73.3144 327.222 71.8424C328.778 71.7442 330.339 71.9409 331.822 72.422C328.685 82.3212 325.483 92.2756 331.16 94.8332C331.059 99.5344 331.325 105.367 331.565 111.264C326.201 110.676 304.931 109.654 296.292 111.55C295.85 105.57 295.694 100.51 295.721 96.1396C291.701 91.0152 295.731 84.0416 297.405 79.7176Z" fill="#263238"/>
<mask id="mask0_791_1387" style="mask-type:luminance" maskUnits="userSpaceOnUse" x="293" y="71" width="39" height="41">
<path d="M297.405 79.7176C297.973 77.3964 298.705 75.1183 299.595 72.9004C301.006 72.4788 302.449 72.1711 303.909 71.9804C306.885 74.6174 309.333 77.7956 311.122 81.346C315.069 77.3532 322.622 73.3144 327.222 71.8424C328.778 71.7442 330.339 71.9409 331.822 72.422C328.685 82.3212 325.483 92.2756 331.16 94.8332C331.059 99.5344 331.325 105.367 331.565 111.264C326.201 110.676 304.931 109.654 296.292 111.55C295.85 105.57 295.694 100.51 295.721 96.1396C291.701 91.0152 295.731 84.0416 297.405 79.7176Z" fill="white"/>
</mask>
<g mask="url(#mask0_791_1387)">
<g opacity="0.2">
<path d="M305.86 98.1267C305.812 98.1325 305.766 98.1509 305.727 98.18C305.688 98.209 305.658 98.2478 305.639 98.2923C304.987 100.122 305.006 102.124 305.694 103.941C305.059 103.408 304.434 102.883 303.854 102.35C304.372 101.242 304.573 100.012 304.433 98.7967C304.293 97.5817 303.819 96.4293 303.063 95.4679C303.034 95.4303 302.996 95.4005 302.953 95.3813C302.909 95.362 302.862 95.3538 302.814 95.3575C302.766 95.3614 302.719 95.379 302.68 95.4083C302.641 95.4376 302.611 95.4774 302.594 95.5232C301.92 97.4043 301.963 99.4674 302.713 101.319C301.885 100.565 301.094 99.8103 300.367 99.0835C300.911 97.9701 301.129 96.726 300.997 95.4941C300.865 94.2622 300.389 93.0924 299.622 92.1191C299.593 92.0815 299.555 92.0517 299.512 92.0324C299.468 92.0132 299.421 92.005 299.374 92.0087C299.325 92.0126 299.278 92.0302 299.239 92.0595C299.2 92.0888 299.17 92.1286 299.153 92.1744C298.484 94.0593 298.526 96.1237 299.272 97.9795C298.012 96.6639 296.963 95.468 296.181 94.4744C295.9 93.3619 295.342 92.3388 294.558 91.5006C293.775 90.6624 292.792 90.0364 291.701 89.6811C291.656 89.6734 291.611 89.6763 291.568 89.6896C291.525 89.7029 291.485 89.7262 291.453 89.7576C291.421 89.789 291.396 89.8277 291.382 89.8704C291.367 89.913 291.363 89.9585 291.37 90.0032C292.198 94.0788 295.197 94.7871 295.804 94.8883C296.236 95.4311 296.724 96.0292 297.313 96.6732C295.871 96.027 294.267 95.8345 292.713 96.1211C292.666 96.132 292.623 96.1559 292.589 96.19C292.554 96.2242 292.531 96.2673 292.52 96.3144C292.506 96.3599 292.504 96.4082 292.513 96.4548C292.523 96.5014 292.544 96.5448 292.575 96.5811C293.366 97.4831 294.393 98.1462 295.541 98.4956C296.688 98.8451 297.911 98.8671 299.07 98.5591C299.585 99.0927 300.137 99.6355 300.717 100.197C298.769 99.6396 296.689 99.763 294.82 100.546C294.775 100.57 294.738 100.605 294.713 100.648C294.687 100.691 294.673 100.74 294.673 100.79C294.673 100.84 294.687 100.889 294.713 100.932C294.738 100.975 294.775 101.01 294.82 101.034C295.87 101.688 297.074 102.055 298.31 102.099C299.547 102.142 300.773 101.861 301.867 101.282C302.64 102.009 303.458 102.736 304.305 103.463C302.42 102.612 300.287 102.488 298.316 103.113C298.27 103.132 298.23 103.162 298.199 103.2C298.168 103.239 298.148 103.285 298.141 103.334C298.136 103.382 298.143 103.43 298.16 103.475C298.178 103.52 298.206 103.56 298.242 103.592C299.211 104.376 300.377 104.877 301.613 105.04C302.849 105.202 304.105 105.019 305.243 104.512L305.317 104.466C305.346 104.435 305.365 104.397 305.372 104.355L306.412 105.202C306.444 105.245 306.489 105.277 306.54 105.294C307.092 105.735 307.654 106.168 308.224 106.591C308.274 106.634 308.338 106.657 308.403 106.657C308.469 106.657 308.533 106.634 308.583 106.591C308.604 106.561 308.619 106.528 308.628 106.492C308.636 106.457 308.637 106.42 308.631 106.384C308.625 106.348 308.612 106.314 308.593 106.283C308.573 106.252 308.548 106.225 308.518 106.204C307.994 105.809 307.47 105.413 306.964 104.999C307.442 103.903 307.614 102.698 307.461 101.513C307.309 100.327 306.838 99.2043 306.099 98.2647C306.075 98.2228 306.04 98.1879 305.998 98.1637C305.956 98.1394 305.908 98.1267 305.86 98.1267Z" fill="white"/>
<path d="M296.789 83.876C296.837 83.8702 296.882 83.8518 296.921 83.8227C296.96 83.7937 296.99 83.7549 297.009 83.7104C297.662 81.8805 297.642 79.8783 296.954 78.0616C297.589 78.5952 298.215 79.1196 298.794 79.6532C298.276 80.761 298.076 81.991 298.215 83.206C298.355 84.421 298.829 85.5734 299.585 86.5348C299.614 86.5724 299.652 86.6022 299.696 86.6215C299.739 86.6407 299.786 86.6489 299.834 86.6452C299.883 86.6413 299.929 86.6237 299.968 86.5944C300.007 86.5651 300.037 86.5253 300.055 86.4796C300.728 84.5985 300.685 82.5353 299.935 80.6836C300.763 81.438 301.554 82.1924 302.281 82.9192C301.738 84.0326 301.519 85.2767 301.651 86.5086C301.783 87.7405 302.26 88.9103 303.026 89.8836C303.055 89.9212 303.093 89.951 303.136 89.9703C303.18 89.9895 303.227 89.9977 303.275 89.994C303.323 89.9901 303.37 89.9725 303.409 89.9432C303.448 89.9139 303.478 89.8741 303.495 89.8284C304.164 87.9434 304.122 85.879 303.376 84.0232C304.636 85.3388 305.685 86.5348 306.467 87.5284C306.748 88.6408 307.306 89.6639 308.09 90.5021C308.873 91.3403 309.856 91.9663 310.947 92.3216C310.992 92.3293 311.037 92.3264 311.08 92.3131C311.124 92.2998 311.163 92.2765 311.195 92.2451C311.227 92.2137 311.252 92.175 311.266 92.1323C311.281 92.0897 311.285 92.0442 311.279 91.9996C310.451 87.924 307.451 87.2156 306.844 87.1144C306.412 86.5716 305.924 85.9736 305.335 85.3296C306.777 85.9783 308.383 86.1678 309.935 85.8724C309.982 85.8643 310.026 85.8426 310.06 85.8098C310.094 85.777 310.118 85.7348 310.129 85.6884C310.142 85.6428 310.145 85.5945 310.135 85.5479C310.125 85.5013 310.104 85.4579 310.073 85.4216C309.282 84.5196 308.255 83.8565 307.108 83.5071C305.96 83.1576 304.738 83.1356 303.578 83.4436C303.063 82.91 302.511 82.3672 301.931 81.806C303.88 82.3631 305.96 82.2397 307.829 81.4564C307.873 81.4329 307.91 81.3978 307.936 81.3548C307.962 81.3119 307.975 81.2627 307.975 81.2126C307.975 81.1624 307.962 81.1133 307.936 81.0703C307.91 81.0274 307.873 80.9923 307.829 80.9688C306.778 80.3147 305.575 79.9476 304.338 79.904C303.102 79.8604 301.875 80.1419 300.781 80.7204C300.009 79.9936 299.19 79.2668 298.343 78.54C300.228 79.3906 302.361 79.5151 304.333 78.8896C304.377 78.8696 304.417 78.8391 304.447 78.8006C304.478 78.7622 304.498 78.7169 304.507 78.6688C304.512 78.6209 304.505 78.5725 304.488 78.5278C304.47 78.483 304.442 78.443 304.406 78.4112C303.438 77.6267 302.271 77.1255 301.035 76.9631C299.8 76.8007 298.543 76.9835 297.405 77.4912L297.331 77.5372C297.302 77.5677 297.283 77.6061 297.276 77.6476L296.237 76.8012C296.204 76.7577 296.159 76.7255 296.108 76.7092C295.556 76.2676 294.995 75.8352 294.424 75.412C294.374 75.3692 294.311 75.3457 294.245 75.3457C294.179 75.3457 294.115 75.3692 294.065 75.412C294.024 75.4713 294.006 75.5443 294.017 75.6161C294.027 75.6879 294.064 75.753 294.121 75.7984C294.654 76.194 295.179 76.5896 295.685 77.0036C295.207 78.0994 295.035 79.3044 295.187 80.4902C295.339 81.676 295.81 82.7984 296.549 83.738C296.574 83.7799 296.609 83.8148 296.651 83.839C296.692 83.8633 296.74 83.876 296.789 83.876Z" fill="white"/>
<path d="M325.152 104.843C325.106 104.849 325.061 104.867 325.023 104.894C324.984 104.921 324.953 104.957 324.931 104.999C324.287 106.83 324.307 108.83 324.987 110.648C324.352 110.124 323.726 109.59 323.147 109.056C323.665 107.95 323.866 106.722 323.726 105.508C323.586 104.294 323.112 103.143 322.355 102.184C322.327 102.146 322.289 102.116 322.246 102.097C322.203 102.078 322.155 102.071 322.108 102.075C322.061 102.08 322.016 102.096 321.977 102.124C321.938 102.151 321.907 102.187 321.886 102.23C321.217 104.115 321.26 106.179 322.006 108.035C321.178 107.272 320.387 106.526 319.66 105.8C320.206 104.688 320.425 103.445 320.293 102.214C320.161 100.983 319.683 99.8148 318.915 98.8443C318.888 98.8046 318.85 98.7732 318.806 98.7537C318.762 98.7342 318.714 98.7274 318.666 98.7339C318.619 98.7397 318.575 98.757 318.536 98.7843C318.498 98.8116 318.466 98.848 318.445 98.8903C317.777 100.775 317.819 102.84 318.565 104.696C317.305 103.389 316.256 102.184 315.474 101.19C315.19 100.079 314.63 99.0579 313.847 98.2202C313.064 97.3824 312.083 96.7555 310.993 96.3971C310.949 96.3882 310.903 96.3902 310.86 96.403C310.817 96.4158 310.777 96.4391 310.745 96.4707C310.712 96.5039 310.687 96.5446 310.672 96.5895C310.658 96.6343 310.654 96.6819 310.662 96.7283C311.49 100.795 314.499 101.503 315.097 101.604C315.529 102.147 316.017 102.754 316.605 103.398C315.164 102.752 313.559 102.559 312.005 102.846C311.959 102.859 311.917 102.883 311.883 102.917C311.849 102.951 311.825 102.993 311.812 103.04C311.798 103.084 311.796 103.13 311.806 103.176C311.816 103.221 311.837 103.263 311.867 103.297C312.654 104.205 313.681 104.873 314.83 105.223C315.979 105.573 317.204 105.591 318.363 105.275C318.878 105.809 319.43 106.361 320.009 106.922C318.062 106.36 315.98 106.483 314.112 107.272C314.07 107.297 314.035 107.331 314.009 107.373C313.984 107.415 313.969 107.462 313.965 107.511C313.964 107.559 313.976 107.607 314.001 107.65C314.025 107.692 314.06 107.726 314.103 107.75C315.153 108.405 316.356 108.773 317.592 108.818C318.829 108.863 320.055 108.584 321.15 108.008C321.923 108.725 322.742 109.452 323.588 110.188C321.703 109.337 319.57 109.213 317.599 109.838C317.553 109.857 317.513 109.887 317.483 109.926C317.452 109.964 317.432 110.01 317.424 110.059C317.419 110.107 317.426 110.155 317.445 110.198C317.465 110.242 317.496 110.28 317.535 110.308C318.503 111.092 319.67 111.593 320.905 111.756C322.141 111.918 323.398 111.735 324.536 111.228L324.6 111.172C324.627 111.142 324.649 111.108 324.665 111.071L325.704 111.918C325.733 111.96 325.775 111.993 325.824 112.01C326.376 112.451 326.937 112.884 327.507 113.316C327.557 113.359 327.621 113.382 327.687 113.382C327.753 113.382 327.816 113.359 327.866 113.316C327.91 113.257 327.929 113.184 327.919 113.111C327.908 113.039 327.87 112.973 327.811 112.93C327.277 112.534 326.762 112.129 326.247 111.724C326.727 110.629 326.901 109.425 326.751 108.239C326.6 107.053 326.13 105.93 325.391 104.99C325.368 104.947 325.333 104.911 325.291 104.885C325.249 104.859 325.201 104.845 325.152 104.843Z" fill="white"/>
<path d="M342.844 111.2C342.795 111.204 342.748 111.221 342.709 111.251C342.67 111.28 342.64 111.32 342.623 111.366C341.967 113.194 341.983 115.197 342.669 117.014C342.034 116.481 341.418 115.947 340.829 115.423C341.349 114.316 341.552 113.086 341.414 111.871C341.276 110.656 340.802 109.503 340.047 108.541C340.017 108.502 339.978 108.471 339.933 108.452C339.887 108.433 339.838 108.425 339.789 108.431C339.741 108.437 339.696 108.456 339.658 108.485C339.619 108.514 339.588 108.552 339.569 108.596C338.899 110.478 338.942 112.54 339.688 114.392C338.86 113.638 338.078 112.884 337.351 112.157C337.895 111.043 338.113 109.799 337.981 108.567C337.849 107.335 337.373 106.166 336.606 105.192C336.577 105.155 336.539 105.125 336.496 105.106C336.453 105.086 336.405 105.078 336.358 105.082C336.309 105.086 336.262 105.103 336.223 105.133C336.184 105.162 336.154 105.202 336.137 105.248C335.464 107.132 335.506 109.198 336.257 111.053C334.996 109.737 333.938 108.541 333.165 107.548C332.884 106.435 332.326 105.412 331.543 104.574C330.759 103.736 329.776 103.11 328.685 102.754C328.64 102.744 328.594 102.746 328.55 102.758C328.505 102.771 328.465 102.794 328.432 102.826C328.399 102.858 328.375 102.897 328.361 102.941C328.348 102.985 328.345 103.031 328.354 103.076C329.182 107.152 332.181 107.86 332.788 107.962C333.211 108.504 333.708 109.102 334.297 109.746C332.855 109.102 331.251 108.909 329.697 109.194C329.651 109.209 329.61 109.234 329.577 109.267C329.543 109.301 329.518 109.342 329.504 109.388C329.491 109.434 329.49 109.483 329.502 109.529C329.513 109.576 329.536 109.619 329.568 109.654C330.358 110.555 331.384 111.217 332.53 111.566C333.675 111.916 334.896 111.938 336.054 111.632C336.579 112.166 337.121 112.709 337.701 113.27C335.756 112.713 333.679 112.836 331.813 113.62C331.769 113.642 331.731 113.676 331.705 113.718C331.679 113.76 331.666 113.809 331.666 113.859C331.665 113.908 331.676 113.956 331.699 113.999C331.721 114.043 331.754 114.08 331.794 114.107C332.848 114.758 334.052 115.124 335.29 115.168C336.527 115.211 337.755 114.931 338.851 114.356C339.624 115.079 340.433 115.806 341.28 116.536C339.395 115.685 337.262 115.561 335.29 116.186C335.245 116.204 335.205 116.234 335.176 116.273C335.146 116.312 335.129 116.358 335.125 116.407C335.12 116.455 335.127 116.503 335.144 116.548C335.162 116.593 335.19 116.633 335.226 116.665C336.195 117.448 337.362 117.949 338.597 118.111C339.833 118.274 341.089 118.091 342.227 117.585C342.249 117.589 342.27 117.589 342.292 117.585C342.326 117.557 342.349 117.518 342.356 117.474L343.396 118.321C343.427 118.362 343.468 118.393 343.515 118.413C344.067 118.854 344.629 119.287 345.199 119.71C345.249 119.753 345.312 119.776 345.378 119.776C345.444 119.776 345.508 119.753 345.558 119.71C345.581 119.681 345.598 119.649 345.607 119.613C345.617 119.578 345.619 119.541 345.614 119.505C345.609 119.468 345.596 119.434 345.577 119.403C345.558 119.371 345.533 119.344 345.502 119.324L343.939 118.118C344.419 117.023 344.593 115.819 344.442 114.633C344.291 113.447 343.822 112.324 343.083 111.384C343.064 111.334 343.032 111.29 342.99 111.258C342.947 111.225 342.897 111.205 342.844 111.2Z" fill="white"/>
<path d="M302.391 112.24C302.344 112.244 302.299 112.26 302.26 112.288C302.221 112.315 302.19 112.353 302.171 112.396C301.515 114.225 301.531 116.227 302.217 118.045C301.582 117.52 300.965 116.987 300.377 116.453C300.897 115.346 301.1 114.117 300.961 112.901C300.823 111.686 300.35 110.533 299.595 109.572C299.564 109.534 299.525 109.505 299.481 109.487C299.436 109.469 299.388 109.462 299.34 109.468C299.293 109.473 299.247 109.491 299.208 109.518C299.169 109.546 299.137 109.584 299.116 109.627C298.447 111.512 298.49 113.576 299.236 115.432C298.408 114.668 297.626 113.923 296.899 113.196C297.442 112.083 297.661 110.839 297.529 109.607C297.397 108.375 296.92 107.205 296.154 106.232C296.126 106.194 296.088 106.164 296.044 106.146C296 106.129 295.952 106.123 295.905 106.131C295.857 106.133 295.811 106.148 295.772 106.176C295.733 106.204 295.702 106.243 295.685 106.287C295.011 108.171 295.054 110.237 295.804 112.092C294.715 110.978 293.683 109.808 292.713 108.587C292.429 107.476 291.87 106.455 291.086 105.617C290.303 104.779 289.322 104.152 288.233 103.794C288.187 103.785 288.14 103.787 288.095 103.8C288.05 103.813 288.009 103.836 287.975 103.868C287.946 103.901 287.924 103.941 287.911 103.984C287.899 104.027 287.895 104.072 287.901 104.116C288.729 108.192 291.729 108.9 292.336 109.001C292.759 109.544 293.256 110.142 293.845 110.841C292.405 110.188 290.798 109.995 289.245 110.289C289.2 110.301 289.158 110.324 289.124 110.356C289.091 110.388 289.065 110.429 289.051 110.473C289.039 110.519 289.038 110.568 289.049 110.615C289.061 110.661 289.084 110.704 289.116 110.74C289.9 111.648 290.925 112.316 292.073 112.666C293.221 113.016 294.444 113.034 295.602 112.718C296.126 113.252 296.669 113.804 297.249 114.365C295.304 113.799 293.224 113.922 291.361 114.714C291.317 114.735 291.28 114.768 291.254 114.808C291.228 114.849 291.214 114.896 291.213 114.944C291.212 114.993 291.223 115.042 291.245 115.085C291.268 115.129 291.301 115.166 291.342 115.193C292.394 115.847 293.598 116.215 294.836 116.261C296.074 116.306 297.302 116.026 298.399 115.45C299.171 116.168 299.981 116.895 300.827 117.622C298.941 116.773 296.808 116.652 294.838 117.281C294.794 117.298 294.755 117.326 294.726 117.364C294.696 117.401 294.678 117.446 294.673 117.493C294.666 117.541 294.672 117.59 294.69 117.635C294.708 117.68 294.737 117.72 294.774 117.75C295.743 118.534 296.909 119.034 298.145 119.197C299.38 119.359 300.637 119.177 301.775 118.67C301.796 118.675 301.818 118.675 301.839 118.67C301.872 118.645 301.895 118.609 301.904 118.569L302.943 119.416C302.974 119.456 303.016 119.488 303.063 119.508C303.624 119.949 304.176 120.382 304.747 120.814C304.797 120.857 304.86 120.88 304.926 120.88C304.992 120.88 305.055 120.857 305.105 120.814C305.128 120.785 305.145 120.753 305.155 120.717C305.165 120.682 305.167 120.645 305.162 120.609C305.157 120.573 305.144 120.538 305.125 120.507C305.106 120.475 305.08 120.448 305.05 120.428L303.486 119.222C303.966 118.126 304.14 116.92 303.989 115.732C303.839 114.545 303.369 113.421 302.631 112.479C302.626 112.417 302.6 112.358 302.556 112.314C302.512 112.27 302.453 112.244 302.391 112.24Z" fill="white"/>
<path d="M324.563 73.4799C324.515 73.4866 324.47 73.5053 324.432 73.5343C324.393 73.5632 324.362 73.6015 324.342 73.6455C323.698 75.4767 323.718 77.4761 324.398 79.2944C323.763 78.7608 323.137 78.2363 322.558 77.7027C323.076 76.5949 323.276 75.3649 323.136 74.1499C322.997 72.9349 322.523 71.7825 321.766 70.8212C321.738 70.7835 321.7 70.7537 321.656 70.7345C321.613 70.7152 321.565 70.707 321.518 70.7108C321.469 70.7146 321.423 70.7322 321.384 70.7615C321.345 70.7908 321.315 70.8306 321.297 70.8763C320.628 72.7581 320.671 74.8198 321.417 76.6724C320.589 75.918 319.798 75.1635 319.071 74.4367C319.614 73.3233 319.832 72.0792 319.701 70.8473C319.569 69.6154 319.092 68.4456 318.326 67.4724C318.297 67.4341 318.26 67.4038 318.216 67.3844C318.172 67.3651 318.125 67.3574 318.077 67.362C318.029 67.3658 317.982 67.3834 317.943 67.4127C317.904 67.442 317.874 67.4818 317.856 67.5275C317.188 69.4125 317.23 71.4769 317.976 73.3327C316.716 72.0171 315.667 70.8211 314.885 69.8275C314.604 68.7151 314.046 67.692 313.262 66.8538C312.479 66.0156 311.495 65.3897 310.404 65.0344C310.36 65.0266 310.314 65.0295 310.271 65.0428C310.228 65.0561 310.189 65.0794 310.157 65.1108C310.124 65.1422 310.1 65.1809 310.085 65.2236C310.071 65.2662 310.067 65.3117 310.073 65.3563C310.901 69.4319 313.91 70.1403 314.508 70.2415C314.94 70.7843 315.428 71.3823 316.016 72.0263C314.575 71.3797 312.97 71.1871 311.416 71.4744C311.371 71.4885 311.33 71.5135 311.296 71.5472C311.262 71.5808 311.237 71.6221 311.223 71.6675C311.209 71.7131 311.207 71.7614 311.217 71.808C311.227 71.8546 311.248 71.898 311.279 71.9344C312.069 72.8363 313.097 73.4994 314.244 73.8489C315.392 74.1983 316.614 74.2203 317.774 73.9124C318.289 74.446 318.841 74.9888 319.42 75.55C317.472 74.9929 315.392 75.1162 313.523 75.8996C313.481 75.9246 313.446 75.9595 313.42 76.0011C313.395 76.0428 313.38 76.09 313.376 76.1387C313.375 76.1886 313.388 76.2378 313.412 76.2814C313.436 76.3249 313.471 76.3614 313.514 76.3872C314.564 77.0412 315.768 77.4083 317.005 77.4519C318.241 77.4955 319.468 77.214 320.561 76.6355C321.334 77.3623 322.153 78.0892 322.999 78.816C321.114 77.9653 318.981 77.8408 317.01 78.4663C316.964 78.4849 316.924 78.515 316.894 78.5537C316.863 78.5924 316.843 78.6384 316.835 78.6872C316.83 78.736 316.837 78.7853 316.857 78.8304C316.876 78.8756 316.907 78.9149 316.946 78.9448C317.913 79.7284 319.078 80.2292 320.312 80.3916C321.546 80.554 322.801 80.3716 323.938 79.8648L324.011 79.8188C324.04 79.7883 324.059 79.7498 324.066 79.7084L325.106 80.5548C325.14 80.5963 325.185 80.628 325.235 80.6467C325.787 81.0883 326.348 81.5207 326.919 81.9439C326.968 81.9867 327.032 82.0102 327.098 82.0102C327.164 82.0102 327.227 81.9867 327.277 81.9439C327.321 81.8854 327.34 81.8118 327.33 81.7393C327.319 81.6669 327.281 81.6015 327.222 81.5576C326.688 81.162 326.173 80.7664 325.658 80.3524C326.138 79.2575 326.312 78.0528 326.162 76.8668C326.011 75.6808 325.541 74.558 324.802 73.6179C324.776 73.5777 324.741 73.5442 324.699 73.5202C324.658 73.4962 324.611 73.4824 324.563 73.4799Z" fill="white"/>
<path d="M315.823 90.96C315.871 90.9559 315.916 90.9393 315.955 90.9118C315.994 90.8843 316.025 90.8469 316.044 90.8036C316.7 88.9749 316.684 86.9725 315.998 85.1548C316.633 85.6792 317.249 86.2128 317.838 86.7464C317.318 87.8531 317.115 89.0828 317.253 90.298C317.392 91.5133 317.865 92.6662 318.62 93.628C318.65 93.6653 318.69 93.6944 318.734 93.7126C318.779 93.7307 318.827 93.7374 318.875 93.7318C318.922 93.7263 318.968 93.7089 319.007 93.6811C319.046 93.6532 319.078 93.616 319.099 93.5728C319.768 91.6878 319.725 89.6234 318.979 87.7676C319.807 88.5281 320.589 89.2733 321.325 90.0032C320.782 91.1166 320.564 92.3607 320.695 93.5926C320.827 94.8245 321.304 95.9943 322.07 96.9676C322.1 97.0049 322.14 97.034 322.184 97.0521C322.229 97.0703 322.277 97.0769 322.325 97.0714C322.372 97.0659 322.418 97.0485 322.457 97.0207C322.496 96.9929 322.528 96.9556 322.549 96.9124C323.219 95.0269 323.173 92.961 322.42 91.1072C323.51 92.2219 324.541 93.3918 325.511 94.6124C325.795 95.7247 326.356 96.7473 327.141 97.5852C327.925 98.4232 328.909 99.0493 330.001 99.4056C330.045 99.4145 330.091 99.4125 330.134 99.3997C330.177 99.3869 330.217 99.3636 330.249 99.332C330.281 99.2979 330.304 99.2568 330.317 99.212C330.33 99.1672 330.332 99.1201 330.323 99.0744C329.504 95.008 326.495 94.2996 325.888 94.1984C325.465 93.6556 324.968 93.0576 324.379 92.3584C325.819 93.012 327.426 93.2047 328.979 92.9104C329.025 92.8985 329.066 92.8754 329.1 92.8433C329.134 92.8111 329.159 92.7709 329.173 92.7264C329.185 92.6801 329.186 92.6313 329.175 92.5847C329.163 92.5381 329.141 92.495 329.108 92.4596C328.324 91.5513 327.299 90.8836 326.151 90.5336C325.003 90.1836 323.78 90.1655 322.622 90.4816C322.107 89.948 321.555 89.396 320.975 88.8348C322.92 89.401 325 89.2774 326.863 88.4852C326.908 88.4629 326.945 88.4288 326.971 88.3865C326.997 88.3442 327.011 88.2956 327.011 88.246C327.014 88.198 327.003 88.1503 326.98 88.108C326.958 88.0657 326.924 88.0307 326.882 88.0068C325.83 87.3522 324.626 86.9841 323.388 86.9389C322.15 86.8937 320.922 87.173 319.825 87.7492C319.053 87.0316 318.243 86.3048 317.397 85.578C319.284 86.4222 321.415 86.5434 323.386 85.9184C323.43 85.9017 323.469 85.8732 323.498 85.8359C323.528 85.7985 323.546 85.7538 323.551 85.7068C323.56 85.6587 323.555 85.6092 323.537 85.5638C323.519 85.5184 323.489 85.4787 323.45 85.4492C322.483 84.6628 321.316 84.1604 320.08 83.9979C318.844 83.8355 317.587 84.0194 316.449 84.5292C316.428 84.5249 316.406 84.5249 316.385 84.5292C316.358 84.5592 316.336 84.5934 316.32 84.6304L315.281 83.784C315.252 83.7412 315.21 83.7089 315.161 83.692C314.609 83.2504 314.048 82.772 313.477 82.3856C313.427 82.3428 313.364 82.3193 313.298 82.3193C313.232 82.3193 313.169 82.3428 313.119 82.3856C313.075 82.4441 313.056 82.5177 313.066 82.5902C313.077 82.6626 313.115 82.728 313.174 82.772L314.738 83.9772C314.258 85.0736 314.084 86.2797 314.235 87.4671C314.385 88.6545 314.855 89.7789 315.593 90.7208C315.602 90.7796 315.629 90.8344 315.67 90.8772C315.711 90.9201 315.765 90.9491 315.823 90.96Z" fill="white"/>
</g>
</g>
<path d="M319.862 98.872L258.222 105.091C256.578 105.258 255.068 106.071 254.023 107.351C252.977 108.631 252.483 110.273 252.647 111.918L254.763 132.995C256.369 131.857 258.244 131.16 260.203 130.974C262.162 130.787 264.135 131.118 265.926 131.932C267.717 132.747 269.264 134.017 270.411 135.615C271.558 137.214 272.266 139.086 272.464 141.043C272.661 143.001 272.342 144.976 271.539 146.772C270.735 148.568 269.474 150.122 267.882 151.278C266.29 152.434 264.423 153.153 262.466 153.363C260.51 153.572 258.533 153.265 256.732 152.471L258.857 173.548C259.027 175.192 259.84 176.702 261.119 177.748C262.398 178.794 264.039 179.292 265.684 179.133L327.324 172.923C328.968 172.751 330.478 171.936 331.524 170.655C332.57 169.375 333.067 167.733 332.908 166.087L326.698 104.447C326.524 102.804 325.708 101.297 324.428 100.253C323.147 99.2086 321.507 98.7123 319.862 98.872Z" fill="#D71635"/>
<path opacity="0.3" d="M319.862 98.872L258.222 105.091C256.578 105.258 255.068 106.071 254.023 107.351C252.977 108.631 252.483 110.273 252.647 111.918L254.763 132.995C256.369 131.857 258.244 131.16 260.203 130.974C262.162 130.787 264.135 131.118 265.926 131.932C267.717 132.747 269.264 134.017 270.411 135.615C271.558 137.214 272.266 139.086 272.464 141.043C272.661 143.001 272.342 144.976 271.539 146.772C270.735 148.568 269.474 150.122 267.882 151.278C266.29 152.434 264.423 153.153 262.466 153.363C260.51 153.572 258.533 153.265 256.732 152.471L258.857 173.548C259.027 175.192 259.84 176.702 261.119 177.748C262.398 178.794 264.039 179.292 265.684 179.133L327.324 172.923C328.968 172.751 330.478 171.936 331.524 170.655C332.57 169.375 333.067 167.733 332.908 166.087L326.698 104.447C326.524 102.804 325.708 101.297 324.428 100.253C323.147 99.2086 321.507 98.7123 319.862 98.872Z" fill="black"/>
<path d="M336.68 117.778L333.828 116.536L327.131 118.247C326.363 118.448 325.683 118.898 325.199 119.526L323.782 121.366C323.48 121.769 323.327 122.264 323.349 122.767C323.371 123.27 323.566 123.75 323.901 124.126L325.502 125.892C325.886 126.313 326.419 126.568 326.987 126.602C327.556 126.636 328.116 126.448 328.547 126.076L332.181 122.958C332.181 122.958 336.561 120.906 336.68 117.778Z" fill="#FFB573"/>
<path d="M278.619 106.287L281.581 105.91C281.98 105.865 282.354 105.69 282.645 105.413C282.935 105.135 283.127 104.77 283.191 104.374L283.596 102.018C283.65 101.738 283.638 101.449 283.561 101.174C283.484 100.899 283.344 100.645 283.152 100.434C282.96 100.222 282.722 100.058 282.455 99.9547C282.189 99.8513 281.902 99.8114 281.618 99.8379L278.159 100.086C277.672 100.113 277.216 100.331 276.89 100.693C276.564 101.055 276.395 101.532 276.42 102.018L276.512 104.502C276.517 104.764 276.578 105.021 276.69 105.256C276.802 105.492 276.963 105.702 277.162 105.871C277.362 106.039 277.594 106.164 277.846 106.236C278.097 106.308 278.36 106.325 278.619 106.287Z" fill="#FFB573"/>
<path d="M324.72 38.6764C317.415 42.3564 304.581 40.6636 304.581 40.6636C304.581 40.6636 311.739 28.9612 324.72 38.6764Z" fill="#263238"/>
<path d="M196.178 272.099L192.507 291.207L183.215 288.962L186.886 269.854L196.178 272.099Z" fill="#FFB573"/>
<path d="M183.51 285.08L193.841 287.325C194.002 287.356 194.144 287.446 194.241 287.577C194.338 287.708 194.383 287.871 194.366 288.033L193.648 295.623C193.625 295.814 193.561 295.997 193.463 296.162C193.364 296.326 193.232 296.469 193.076 296.58C192.919 296.69 192.741 296.767 192.553 296.805C192.365 296.844 192.171 296.842 191.983 296.801C188.735 296.037 187.769 295.559 183.657 294.666C178.864 293.608 177.162 293.894 171.531 292.661C168.127 291.916 168.284 288.346 169.811 288.337C173.844 288.347 177.809 287.29 181.302 285.273C181.986 284.93 182.776 284.861 183.51 285.08Z" fill="#263238"/>
<path opacity="0.2" d="M196.187 272.108L194.292 281.952L184.991 279.707L186.886 269.854L196.187 272.108Z" fill="black"/>
<path d="M212.352 198.508C223.254 166.437 231.883 128.588 231.883 128.588L200.787 126.619C200.787 126.619 196.187 175.729 193.814 198.379C191.33 221.913 183.611 275.043 183.611 275.043L197.641 277.886C197.641 277.886 210.797 227.856 212.352 198.508Z" fill="#263238"/>
<path opacity="0.2" d="M217.541 146.436L225.085 155.765C223.162 162.968 220.917 171.064 218.451 179.335C217.036 168.428 216.731 157.405 217.541 146.436Z" fill="#263238"/>
<path d="M183.814 277.039L196.694 279.854C196.95 279.911 197.219 279.872 197.448 279.743C197.678 279.614 197.851 279.404 197.936 279.155L199.352 275.006C199.401 274.865 199.42 274.716 199.408 274.568C199.395 274.42 199.351 274.276 199.279 274.145C199.207 274.015 199.108 273.901 198.989 273.812C198.87 273.723 198.734 273.659 198.589 273.626L184.614 270.36C184.467 270.325 184.314 270.322 184.166 270.351C184.018 270.379 183.877 270.439 183.754 270.526C183.63 270.613 183.527 270.725 183.45 270.855C183.373 270.985 183.324 271.13 183.308 271.28L182.986 275.88C182.957 276.141 183.025 276.404 183.178 276.618C183.331 276.832 183.557 276.982 183.814 277.039Z" fill="#263238"/>
<path opacity="0.1" d="M183.814 277.039L196.694 279.854C196.95 279.911 197.219 279.872 197.448 279.743C197.678 279.614 197.851 279.404 197.936 279.155L199.352 275.006C199.401 274.865 199.42 274.716 199.408 274.568C199.395 274.42 199.351 274.276 199.279 274.145C199.207 274.015 199.108 273.901 198.989 273.812C198.87 273.723 198.734 273.659 198.589 273.626L184.614 270.36C184.467 270.325 184.314 270.322 184.166 270.351C184.018 270.379 183.877 270.439 183.754 270.526C183.63 270.613 183.527 270.725 183.45 270.855C183.373 270.985 183.324 271.13 183.308 271.28L182.986 275.88C182.957 276.141 183.025 276.404 183.178 276.618C183.331 276.832 183.557 276.982 183.814 277.039Z" fill="white"/>
<path d="M247.33 271.436L247.91 291.152L238.48 291.023L237.9 271.308L247.33 271.436Z" fill="#FFB573"/>
<path d="M238.241 286.975L248.269 287.122C248.431 287.122 248.588 287.182 248.709 287.29C248.83 287.399 248.906 287.549 248.922 287.711L249.731 295.292C249.747 295.484 249.722 295.677 249.658 295.858C249.595 296.04 249.494 296.206 249.362 296.347C249.231 296.487 249.071 296.598 248.894 296.673C248.717 296.748 248.526 296.786 248.333 296.782C245.003 296.681 243.954 296.405 239.749 296.341C234.837 296.258 233.779 296.874 228.019 296.792C224.533 296.736 223.971 293.204 225.462 292.891C229.419 292.1 233.097 290.278 236.125 287.61C236.724 287.137 237.48 286.91 238.241 286.975Z" fill="#263238"/>
<path opacity="0.2" d="M247.339 271.446L247.633 281.602L238.194 281.474L237.9 271.308L247.339 271.446Z" fill="black"/>
<path d="M244.984 197.855C242.316 164.118 244.57 145.921 240.651 129.168L212.352 127.41C212.352 127.41 221.138 176.998 225.986 199.428C230.834 221.858 236.051 276.34 236.051 276.34L249.961 276.515C249.961 276.515 251.663 224.176 244.984 197.855Z" fill="#263238"/>
<path d="M236.088 278.842L249.253 279.045C249.525 279.048 249.788 278.947 249.988 278.762C250.189 278.577 250.311 278.323 250.329 278.051L250.614 273.709C250.626 273.565 250.608 273.421 250.561 273.285C250.515 273.149 250.441 273.023 250.345 272.917C250.248 272.81 250.131 272.724 250 272.664C249.87 272.604 249.728 272.571 249.584 272.568L235.26 272.126C235.1 272.121 234.942 272.151 234.796 272.215C234.65 272.279 234.521 272.376 234.417 272.497C234.314 272.618 234.239 272.761 234.198 272.915C234.158 273.069 234.153 273.23 234.183 273.387L235.103 277.987C235.152 278.217 235.275 278.425 235.453 278.579C235.63 278.733 235.853 278.826 236.088 278.842Z" fill="#263238"/>
<path opacity="0.1" d="M236.088 278.842L249.253 279.045C249.525 279.048 249.788 278.947 249.988 278.762C250.189 278.577 250.311 278.323 250.329 278.051L250.614 273.709C250.626 273.565 250.608 273.421 250.561 273.285C250.515 273.149 250.441 273.023 250.345 272.917C250.248 272.81 250.131 272.724 250 272.664C249.87 272.604 249.728 272.571 249.584 272.568L235.26 272.126C235.1 272.121 234.942 272.151 234.796 272.215C234.65 272.279 234.521 272.376 234.417 272.497C234.314 272.618 234.239 272.761 234.198 272.915C234.158 273.069 234.153 273.23 234.183 273.387L235.103 277.987C235.152 278.217 235.275 278.425 235.453 278.579C235.63 278.733 235.853 278.826 236.088 278.842Z" fill="white"/>
<path d="M211.441 75.5132C210.355 77.8592 209.224 79.9384 207.991 82.082C206.758 84.2256 205.461 86.3048 204.026 88.3472C202.575 90.4559 200.989 92.4688 199.278 94.3732C197.38 96.5659 195.155 98.4526 192.682 99.9668L192.36 100.151C191.81 100.474 191.198 100.678 190.563 100.748C189.929 100.817 189.287 100.752 188.68 100.556C186.886 99.976 185.147 99.3228 183.445 98.6236C181.743 97.9244 180.087 97.1516 178.459 96.342C176.83 95.5324 175.239 94.6768 173.675 93.7568C172.111 92.8368 170.584 91.9168 169.075 90.8036C168.535 90.4206 168.145 89.8609 167.974 89.2213C167.802 88.5817 167.859 87.9023 168.135 87.3002C168.411 86.6982 168.888 86.2114 169.485 85.9239C170.081 85.6363 170.76 85.5661 171.402 85.7252H171.504C173.15 86.1208 174.852 86.5992 176.508 87.0316L181.486 88.3472C183.132 88.798 184.788 89.1752 186.417 89.58C188.045 89.9848 189.674 90.2976 191.274 90.6288L187.309 91.2268C188.687 90.0844 189.922 88.781 190.989 87.3444C192.25 85.7252 193.464 83.9404 194.669 82.1004C195.874 80.2604 196.969 78.3376 198.055 76.3872C199.14 74.4368 200.244 72.422 201.22 70.5636L201.275 70.4624C202.008 69.2411 203.175 68.3408 204.542 67.9408C205.909 67.5408 207.377 67.6704 208.653 68.3037C209.929 68.9371 210.92 70.0278 211.428 71.3587C211.936 72.6896 211.924 74.163 211.395 75.4856L211.441 75.5132Z" fill="#FFB573"/>
<path d="M213.704 59.4316C202.719 60.6828 194.384 77.6936 194.384 77.6936L205.719 89.7548C205.719 89.7548 210.769 83.738 216.197 76.1296C222.122 67.8404 222.398 58.4472 213.704 59.4316Z" fill="#D71635"/>
<path d="M212.352 61.98C216.574 60.4804 235.49 62.9 235.49 62.9C231.81 67.6472 228.737 106.959 228.396 129.554C224.376 130.106 208.957 129.048 205.396 128.22C205.856 119.351 209.555 77.7488 212.352 61.98Z" fill="white"/>
<path d="M200.143 73.9032C200.64 69.8151 202.62 66.0516 205.709 63.3277C208.797 60.6038 212.779 59.1093 216.897 59.128C224.8 59.1912 232.676 60.0605 240.403 61.7224C241.606 61.9771 242.746 62.4706 243.756 63.1736C244.765 63.8766 245.623 64.7749 246.279 65.8153C246.935 66.8558 247.376 68.0173 247.576 69.231C247.775 70.4448 247.729 71.6863 247.441 72.882C241.617 97.308 243.153 120.483 241.599 131.265C236.055 133.303 230.168 134.241 224.266 134.025C224.266 134.025 224.404 124.724 225.701 109.02C226.731 96.5352 228.581 67.178 232.389 62.302C232.389 62.302 218.737 60.462 214.514 61.9432C211.377 79.6532 209.077 133.298 209.077 133.308C202.397 132.829 199.251 129.112 199.352 128.008C198 106.306 198.681 86.6268 200.143 73.9032Z" fill="#D71635"/>
<path d="M232.877 46.7356C231.598 50.4156 230.117 56.9384 232.481 60.6C232.601 60.7701 232.682 60.9647 232.718 61.1698C232.753 61.3749 232.743 61.5853 232.687 61.7859C232.632 61.9865 232.533 62.1723 232.397 62.33C232.261 62.4876 232.092 62.6132 231.902 62.6976C228.101 64.8898 223.709 65.8357 219.344 65.4024C213.41 64.924 213.824 62.2468 215.351 60.508C215.712 60.1065 216.211 59.8566 216.749 59.8088C222.352 59.1372 222.407 55.7608 221.598 52.4488L232.877 46.7356Z" fill="#FFB573"/>
<path opacity="0.2" d="M228.277 49.0816L221.607 52.4764C221.818 53.2605 221.938 54.0661 221.966 54.8776C224.395 54.8776 227.835 53.2492 228.231 51.3816C228.434 50.6303 228.45 49.8405 228.277 49.0816Z" fill="black"/>
<path d="M223.982 33.9443C224.233 30.6257 222.428 27.7837 219.95 27.5966C217.472 27.4094 215.261 29.948 215.01 33.2666C214.759 36.5852 216.565 39.4272 219.042 39.6143C221.52 39.8015 223.731 37.263 223.982 33.9443Z" fill="#263238"/>
<path d="M236.483 36.68C235.251 43.9388 234.892 48.2536 230.862 51.63C224.799 56.6992 216.289 52.412 215.369 44.9324C214.532 38.2072 216.685 27.4524 224.027 25.2812C231.368 23.11 237.716 29.412 236.483 36.68Z" fill="#FFB573"/>
<path d="M234.901 42.8164C234.809 42.8164 234.698 42.6968 234.597 42.752C231.304 44.592 230.236 40.636 230.439 38.0048C230.506 37.1271 230.758 36.2735 231.179 35.4998C231.599 34.7262 232.177 34.0499 232.877 33.5152C229.307 33.92 225.848 31.62 225.793 29.4764C221.846 31.2152 217.09 31.3164 214.946 27.6364C212.802 23.9564 215.866 19.1448 219.951 20.4236C218.295 17.4612 225.296 11.5364 232.628 20.2764C232.858 13.9376 243.107 20.2764 241.424 26.5048C246.171 28.1424 250.237 37.1584 242.187 39.0812C241.654 47.4348 234.901 42.8164 234.901 42.8164Z" fill="#263238"/>
<path d="M238.783 45.098C237.669 46.4653 236.078 47.3594 234.331 47.6004C232.123 47.8488 231.635 45.604 232.767 43.5616C233.788 41.7216 236.161 39.3848 238.13 40.1024C240.099 40.82 240.219 43.35 238.783 45.098Z" fill="#FFB573"/>
<path d="M225.958 37.2228C225.903 37.83 225.544 38.2808 225.149 38.244C224.753 38.2072 224.477 37.692 224.532 37.0848C224.588 36.4776 224.946 36.036 225.342 36.0728C225.738 36.1096 226.004 36.6248 225.958 37.2228Z" fill="#263238"/>
<path d="M218.829 36.4316C218.773 37.0296 218.415 37.4804 218.019 37.4436C217.623 37.4068 217.357 36.8916 217.403 36.2936C217.449 35.6956 217.817 35.2356 218.212 35.2724C218.608 35.3092 218.921 35.8244 218.829 36.4316Z" fill="#263238"/>
<path d="M221.616 36.772C220.737 38.5358 219.619 40.1703 218.295 41.6296C218.677 41.9623 219.126 42.2079 219.612 42.3493C220.098 42.4907 220.61 42.5245 221.11 42.4484L221.616 36.772Z" fill="#630F0F"/>
<path d="M222.969 45.374C223.637 45.4209 224.307 45.3317 224.94 45.1119C225.572 44.8921 226.154 44.5462 226.649 44.0952C226.665 44.0783 226.678 44.0584 226.686 44.0365C226.695 44.0146 226.699 43.9913 226.699 43.9678C226.698 43.9443 226.693 43.9211 226.684 43.8996C226.674 43.878 226.661 43.8585 226.644 43.8422C226.627 43.8259 226.607 43.8131 226.585 43.8045C226.563 43.7959 226.54 43.7917 226.517 43.7921C226.493 43.7926 226.47 43.7976 226.448 43.807C226.427 43.8164 226.407 43.8299 226.391 43.8468C225.831 44.3425 225.161 44.6985 224.437 44.8856C223.712 45.0727 222.954 45.0856 222.223 44.9232C222.201 44.9179 222.178 44.9173 222.155 44.9215C222.132 44.9256 222.111 44.9345 222.092 44.9475C222.073 44.9605 222.057 44.9773 222.044 44.9969C222.032 45.0165 222.024 45.0384 222.021 45.0612C222.013 45.1075 222.022 45.1551 222.048 45.1945C222.074 45.2338 222.113 45.2618 222.159 45.2728C222.453 45.3188 222.711 45.3556 222.969 45.374Z" fill="#263238"/>
<path d="M228.314 35.76C228.371 35.7734 228.431 35.7734 228.488 35.76C228.531 35.7412 228.569 35.714 228.601 35.68C228.634 35.646 228.658 35.606 228.675 35.5623C228.691 35.5186 228.698 35.472 228.696 35.4254C228.694 35.3788 228.683 35.333 228.663 35.2908C228.447 34.7703 228.111 34.3082 227.683 33.9421C227.254 33.576 226.745 33.3163 226.198 33.184C226.105 33.1707 226.011 33.194 225.935 33.249C225.86 33.304 225.809 33.3863 225.793 33.4784C225.779 33.571 225.803 33.665 225.858 33.7406C225.913 33.8162 225.995 33.8674 226.087 33.8832C226.519 33.9946 226.919 34.2058 227.254 34.4998C227.59 34.7938 227.852 35.1624 228.019 35.576C228.05 35.628 228.093 35.6719 228.144 35.7039C228.195 35.7359 228.253 35.7552 228.314 35.76Z" fill="#263238"/>
<path d="M215.838 33.4968C215.895 33.512 215.955 33.5133 216.013 33.5005C216.071 33.4877 216.124 33.4612 216.169 33.4232C216.497 33.1261 216.891 32.9105 217.317 32.7938C217.744 32.6771 218.192 32.6627 218.626 32.7516C218.715 32.7772 218.811 32.7664 218.892 32.7215C218.973 32.6767 219.033 32.6015 219.058 32.5124C219.084 32.4222 219.074 32.3254 219.029 32.2428C218.984 32.1602 218.909 32.0985 218.819 32.0708C218.272 31.9462 217.702 31.9555 217.159 32.098C216.616 32.2406 216.116 32.5122 215.7 32.8896C215.667 32.9221 215.641 32.9608 215.624 33.0034C215.606 33.0461 215.597 33.0918 215.597 33.138C215.597 33.1842 215.606 33.2299 215.624 33.2726C215.641 33.3152 215.667 33.3539 215.7 33.3864C215.735 33.435 215.783 33.4732 215.838 33.4968Z" fill="#263238"/>
<path d="M249.63 72.3852C250.228 73.5536 250.716 74.5656 251.194 75.6604C251.673 76.7552 252.114 77.8132 252.593 78.8988C253.513 81.07 254.313 83.278 255.067 85.5136C256.602 90.0355 257.777 94.6713 258.582 99.378L258.83 101.218L258.959 102.138V102.359V102.764C258.959 103.058 259.005 103.352 259.005 103.684C258.969 105.361 258.636 107.018 258.021 108.578C257.105 110.961 255.939 113.24 254.543 115.377C253.276 117.377 251.903 119.309 250.431 121.164C248.988 123.009 247.452 124.781 245.831 126.472C245.365 126.965 244.737 127.275 244.062 127.345C243.387 127.415 242.709 127.24 242.152 126.852C241.595 126.464 241.196 125.889 241.027 125.232C240.857 124.575 240.93 123.879 241.231 123.27V123.197C243.135 119.232 245.15 115.22 246.751 111.31C247.165 110.335 247.533 109.36 247.855 108.412C248.175 107.528 248.442 106.624 248.655 105.708C248.804 105.138 248.857 104.547 248.811 103.96L248.765 103.776L248.591 103.012L248.25 101.494C247.189 97.3742 245.89 93.3194 244.359 89.35C243.623 87.326 242.785 85.3296 241.976 83.324C241.571 82.3304 241.139 81.3368 240.706 80.3524L239.418 77.482L239.345 77.3164C238.698 75.9622 238.616 74.4066 239.116 72.9919C239.617 71.5771 240.658 70.419 242.013 69.7724C243.367 69.1258 244.922 69.0437 246.337 69.544C247.752 70.0444 248.91 71.0862 249.557 72.4404L249.63 72.3852Z" fill="#FFB573"/>
<path d="M241.35 61.98C253.605 65.0712 256.99 80.7388 256.99 80.7388L241.773 91.65C241.773 91.65 238.001 87.7032 236.861 78.4296C236.336 74.0044 238.866 61.8604 241.35 61.98Z" fill="#D71635"/>
<path d="M243.236 121.32L236.152 123.97L241.58 131.238C241.58 131.238 247.698 128.064 246.539 124.54L243.236 121.32Z" fill="#FFB573"/>
<path d="M230.88 125C228.973 124.679 227.014 124.857 225.195 125.515L228.709 104.631C228.981 103 228.595 101.328 227.636 99.9816C226.678 98.6348 225.224 97.723 223.594 97.446L162.506 87.1604C160.878 86.8911 159.21 87.277 157.865 88.2336C156.521 89.1903 155.609 90.6401 155.33 92.2664L151.76 113.196C153.578 112.529 155.538 112.351 157.446 112.681C159.142 112.966 160.751 113.636 162.147 114.64C163.544 115.643 164.692 116.954 165.502 118.472C166.313 119.989 166.764 121.671 166.822 123.39C166.88 125.11 166.543 126.819 165.836 128.387C165.129 129.955 164.072 131.34 162.746 132.436C161.42 133.531 159.861 134.308 158.187 134.706C156.514 135.104 154.772 135.113 153.094 134.731C151.417 134.35 149.85 133.589 148.513 132.507L144.989 153.391C144.718 155.022 145.103 156.694 146.062 158.041C147.021 159.388 148.475 160.299 150.104 160.576L211.192 170.862C212.822 171.131 214.491 170.746 215.837 169.789C217.183 168.833 218.096 167.383 218.378 165.756L221.892 144.863C223.231 145.928 224.795 146.673 226.465 147.042C228.135 147.412 229.867 147.395 231.53 146.993C233.193 146.592 234.742 145.816 236.06 144.726C237.377 143.635 238.429 142.258 239.134 140.7C239.839 139.142 240.179 137.443 240.129 135.733C240.078 134.023 239.639 132.348 238.843 130.834C238.047 129.32 236.916 128.007 235.536 126.996C234.156 125.985 232.564 125.303 230.88 125Z" fill="#D71635"/>
<path opacity="0.6" d="M230.88 125C228.973 124.679 227.014 124.857 225.195 125.515L228.709 104.631C228.981 103 228.595 101.328 227.636 99.9816C226.678 98.6348 225.224 97.723 223.594 97.446L162.506 87.1604C160.878 86.8911 159.21 87.277 157.865 88.2336C156.521 89.1903 155.609 90.6401 155.33 92.2664L151.76 113.196C153.578 112.529 155.538 112.351 157.446 112.681C159.142 112.966 160.751 113.636 162.147 114.64C163.544 115.643 164.692 116.954 165.502 118.472C166.313 119.989 166.764 121.671 166.822 123.39C166.88 125.11 166.543 126.819 165.836 128.387C165.129 129.955 164.072 131.34 162.746 132.436C161.42 133.531 159.861 134.308 158.187 134.706C156.514 135.104 154.772 135.113 153.094 134.731C151.417 134.35 149.85 133.589 148.513 132.507L144.989 153.391C144.718 155.022 145.103 156.694 146.062 158.041C147.021 159.388 148.475 160.299 150.104 160.576L211.192 170.862C212.822 171.131 214.491 170.746 215.837 169.789C217.183 168.833 218.096 167.383 218.378 165.756L221.892 144.863C223.231 145.928 224.795 146.673 226.465 147.042C228.135 147.412 229.867 147.395 231.53 146.993C233.193 146.592 234.742 145.816 236.06 144.726C237.377 143.635 238.429 142.258 239.134 140.7C239.839 139.142 240.179 137.443 240.129 135.733C240.078 134.023 239.639 132.348 238.843 130.834C238.047 129.32 236.916 128.007 235.536 126.996C234.156 125.985 232.564 125.303 230.88 125Z" fill="white"/>
<path d="M232.84 131.109L235.168 133.335C235.616 133.766 236.202 134.023 236.823 134.06C237.444 134.098 238.057 133.912 238.553 133.538L241.58 131.265L236.152 123.997L232.794 127.364C232.547 127.611 232.352 127.905 232.22 128.228C232.088 128.551 232.022 128.897 232.027 129.246C232.031 129.595 232.105 129.94 232.245 130.26C232.384 130.58 232.587 130.868 232.84 131.109Z" fill="#FFB573"/>
<path d="M164.64 89.12L165.487 85.9828C165.628 85.6138 165.882 85.2983 166.212 85.0806C166.542 84.8628 166.932 84.7537 167.327 84.7684C168.525 84.7195 169.722 84.9039 170.85 85.3112L175.634 87.0776L175.404 89.028C175.211 90.7024 173.343 92.1008 171.227 92.1652C169.807 92.1842 168.389 92.0328 167.005 91.7144L166.489 91.604C166.196 91.5833 165.911 91.4996 165.653 91.3584C165.395 91.2173 165.171 91.0221 164.995 90.7863C164.819 90.5505 164.697 90.2795 164.636 89.9919C164.574 89.7043 164.576 89.4069 164.64 89.12Z" fill="#FFB573"/>
<path d="M89.2831 45.8156C92.3467 42.2552 96.9559 33.0092 88.2895 29.4764C81.8955 26.8636 68.3255 28.1976 60.5331 40.3324C55.2063 42.1724 53.6331 54.022 65.9335 56.5152C78.2339 59.0084 89.2831 45.8156 89.2831 45.8156Z" fill="#263238"/>
<path d="M117.076 274.114L103.019 275.282L105.401 291.805L117.15 290.848L117.076 274.114Z" fill="#FFC3BD"/>
<path opacity="0.2" d="M117.076 274.123L103.009 275.291L104.352 284.546L117.122 283.488L117.076 274.123Z" fill="black"/>
<path d="M90.2028 225.473C84.6828 204.313 70.386 179.124 79.448 158.764L118.833 158.644C118.833 158.644 119.808 200.55 120.084 220.284C120.36 240.92 118.64 279.744 118.64 279.744L102.531 280.968C102.531 280.968 91.4908 249.2 90.2028 225.473Z" fill="#D71635"/>
<path d="M101.73 281.602L119.137 280.324C119.285 280.311 119.424 280.245 119.529 280.139C119.633 280.033 119.697 279.893 119.707 279.744L120.075 273.304C120.081 273.215 120.067 273.125 120.035 273.042C120.002 272.958 119.952 272.883 119.887 272.821C119.821 272.76 119.744 272.713 119.658 272.686C119.573 272.658 119.483 272.649 119.394 272.66L100.074 275.227C99.9864 275.236 99.9018 275.265 99.8265 275.311C99.7512 275.358 99.6871 275.42 99.6387 275.494C99.5903 275.568 99.5589 275.651 99.5467 275.739C99.5345 275.826 99.5419 275.915 99.5682 276L101.095 281.17C101.138 281.302 101.224 281.417 101.339 281.495C101.454 281.573 101.591 281.611 101.73 281.602Z" fill="#263238"/>
<path opacity="0.2" d="M79.3099 178.792C79.1573 183.79 79.3602 188.792 79.9171 193.761C81.8399 200.412 84.2963 207.073 86.5043 213.532C89.3931 195.242 89.4023 173.926 79.3099 178.792Z" fill="black"/>
<path d="M65.0409 275.144L50.9281 275.282L50.9097 291.934L62.7041 291.842L65.0409 275.144Z" fill="#FFC3BD"/>
<path d="M49.7966 289.376C49.8105 289.284 49.8436 289.195 49.8938 289.116C49.9441 289.037 50.0103 288.969 50.0883 288.917C50.1663 288.865 50.2543 288.83 50.3467 288.814C50.439 288.798 50.5337 288.802 50.6246 288.824C54.1666 290.232 60.8826 289.156 63.4218 288.668C63.7021 288.61 63.9913 288.61 64.2714 288.669C64.5515 288.728 64.8166 288.843 65.0502 289.008C67.1272 290.341 69.3778 291.381 71.7386 292.1C72.2451 293.453 72.3723 294.92 72.1066 296.341H48.3154C48.9867 294.061 49.4819 291.732 49.7966 289.376Z" fill="#263238"/>
<path d="M103.846 289.376C103.86 289.284 103.893 289.195 103.944 289.116C103.994 289.037 104.06 288.969 104.138 288.917C104.216 288.865 104.304 288.83 104.396 288.814C104.489 288.798 104.584 288.802 104.674 288.824C108.216 290.232 114.932 289.156 117.472 288.668C117.752 288.61 118.041 288.61 118.321 288.669C118.601 288.728 118.866 288.843 119.1 289.008C121.805 290.922 129.018 292.1 129.018 292.1C129.524 293.454 129.648 294.921 129.376 296.341H102.365C103.036 294.061 103.532 291.732 103.846 289.376Z" fill="#263238"/>
<path opacity="0.2" d="M65.0409 275.153L50.9189 275.282L50.9097 284.611L63.7345 284.5L65.0409 275.153Z" fill="black"/>
<path d="M48.941 218.628C47.0274 197.257 41.029 168.47 47.837 158.644H93.929C93.929 158.644 84.5358 201.259 80.681 220.984C76.679 241.49 65.1698 280.866 65.1698 280.866L49.907 280.912C49.907 280.912 44.1202 243.027 48.941 218.628Z" fill="#D71635"/>
<path opacity="0.2" d="M51.7101 276.542C51.611 276.541 51.5148 276.508 51.4355 276.449C51.3561 276.389 51.2977 276.306 51.2685 276.211C50.1737 272.531 50.3485 230.257 53.1085 218.684C53.1085 217.156 52.7865 214.157 52.4185 210.358C51.1581 197.478 48.8213 173.558 52.3081 159.988C52.3386 159.866 52.4163 159.761 52.5242 159.696C52.632 159.631 52.7611 159.612 52.8831 159.643C53.0051 159.673 53.11 159.751 53.1747 159.859C53.2394 159.966 53.2586 160.096 53.2281 160.218C49.7781 173.64 52.1057 197.468 53.3569 210.275C53.7341 214.139 54.0377 217.184 54.0561 218.73C54.0607 218.769 54.0607 218.809 54.0561 218.849C51.4065 229.797 51.1489 272.393 52.2161 275.954C52.2507 276.069 52.2382 276.194 52.1813 276.301C52.1245 276.408 52.0279 276.488 51.9125 276.524C51.8482 276.55 51.7779 276.556 51.7101 276.542Z" fill="white"/>
<path d="M48.8491 281.483H66.1359C66.274 281.487 66.409 281.441 66.5156 281.353C66.6222 281.265 66.6932 281.141 66.7154 281.004L67.8563 274.868C67.8727 274.775 67.8682 274.68 67.8432 274.589C67.8181 274.498 67.7732 274.414 67.7115 274.342C67.6498 274.271 67.573 274.214 67.4866 274.176C67.4003 274.138 67.3065 274.12 67.2123 274.123L48.3891 274.96C48.3096 274.962 48.2315 274.981 48.1595 275.014C48.0875 275.048 48.0232 275.096 47.9706 275.156C47.9179 275.215 47.8781 275.285 47.8536 275.36C47.829 275.436 47.8203 275.516 47.8278 275.595L48.2142 280.894C48.228 281.054 48.3006 281.202 48.4179 281.311C48.5353 281.42 48.689 281.481 48.8491 281.483Z" fill="#263238"/>
<path d="M109.587 84.2072C110.507 87.8872 111.354 91.5672 112.173 95.2472C112.991 98.9272 113.764 102.607 114.482 106.287L115.586 111.807L116.616 117.327C117.325 121.007 117.95 124.742 118.594 128.459L117.095 125.101C117.295 125.79 117.727 126.388 118.318 126.794C119.496 127.59 120.823 128.137 122.219 128.404C124.08 128.834 125.978 129.083 127.886 129.149C128.907 129.204 129.956 129.241 131.014 129.223C131.539 129.223 132.072 129.223 132.606 129.223C133.139 129.223 133.719 129.223 134.087 129.223L135.393 129.315C136.493 129.385 137.539 129.811 138.375 130.529C139.211 131.246 139.791 132.215 140.028 133.291C140.265 134.367 140.145 135.491 139.688 136.493C139.23 137.494 138.459 138.32 137.491 138.846C136.755 139.251 136.231 139.554 135.605 139.876C134.979 140.198 134.4 140.474 133.765 140.796C132.532 141.33 131.272 141.836 129.965 142.259C128.64 142.694 127.291 143.056 125.927 143.345C124.489 143.631 123.036 143.834 121.575 143.952C119.997 144.064 118.411 144.04 116.837 143.878C115.087 143.731 113.363 143.367 111.703 142.793C109.842 142.172 108.074 141.3 106.45 140.198C104.738 139.012 103.212 137.576 101.924 135.939C101.368 135.248 100.955 134.454 100.709 133.602L100.424 132.581C99.4122 128.956 98.3726 125.34 97.4158 121.697L95.953 116.251L94.5638 110.786C93.6438 107.106 92.7238 103.481 91.8866 99.8196C91.0494 96.158 90.2122 92.4596 89.4854 88.7796C88.9646 86.1463 89.4919 83.4137 90.9552 81.1634C92.4185 78.913 94.7022 77.3225 97.3204 76.7303C99.9385 76.1381 102.684 76.5909 104.974 77.9925C107.263 79.3941 108.915 81.6337 109.578 84.2348L109.587 84.2072Z" fill="#FFC3BD"/>
<path d="M133.443 130.134L133.636 136.077C136.037 141.845 142.919 137.466 142.919 137.466L147.077 136.702C147.801 136.518 148.437 136.083 148.871 135.476C149.306 134.868 149.511 134.126 149.451 133.381L149.34 129.223C149.368 128.364 149.06 127.529 148.481 126.895C147.901 126.261 147.097 125.878 146.24 125.828L142.56 125.902C141.486 125.92 140.434 126.204 139.496 126.73L133.443 130.134Z" fill="#FFC3BD"/>
<path d="M102.54 73.9584C111.004 78.4112 116.533 94.1248 116.533 94.1248C114.749 101.485 107.554 114.908 100.893 114.825C100.893 114.825 91.1137 102.212 90.0557 93.0852C88.7677 82.0544 85.4281 64.9608 102.54 73.9584Z" fill="#263238"/>
<path d="M94.7203 71.3456C81.658 70.1037 68.4983 70.3135 55.4823 71.9712C47.9567 73.0292 42.6023 77.712 43.5223 93.1312C45.3623 124.411 42.5103 148.791 46.4847 160.034C46.4847 160.034 104.371 176.594 120.876 160.724C124.887 123.086 111.381 91.8432 105.236 78.8436C104.274 76.7967 102.801 75.0319 100.959 73.7187C99.1175 72.4056 96.969 71.5884 94.7203 71.3456Z" fill="#263238"/>
<path d="M90.3683 74.768C88.8687 73.296 87.2955 74.1516 86.5687 71.9344C86.2482 70.1938 86.5408 68.3959 87.3967 66.8468L69.5395 57.2052C69.8891 63.774 70.1559 68.9628 67.2395 71.5756C66.3931 76.47 75.5195 81.3552 87.6727 81.4288C95.4099 81.4748 92.5303 76.884 90.3683 74.768Z" fill="#FFC3BD"/>
<path opacity="0.2" d="M87.13 67.3988L73.0356 63.8752C76.596 69.478 83.0084 72.5416 86.4584 71.1892C86.3598 69.8893 86.5908 68.5856 87.13 67.3988Z" fill="black"/>
<path d="M81.2971 35.254C71.9683 33.184 63.9091 40.9304 65.7123 49.376C67.5155 57.8216 68.9415 63.5256 74.7835 66.396C86.3939 72.1184 92.0611 66.5984 93.0087 57.7756C93.8643 49.8268 90.7639 37.3424 81.2971 35.254Z" fill="#FFC3BD"/>
<path opacity="0.2" d="M79.4665 50.25C78.3703 49.9756 77.2101 50.1442 76.2373 50.7192C77.3341 50.7771 78.4315 50.6176 79.4665 50.25Z" fill="black"/>
<path opacity="0.2" d="M79.531 51.032C79.0154 51.0078 78.5008 51.0974 78.0238 51.2946C77.5468 51.4918 77.119 51.7916 76.771 52.1728C77.7629 51.9974 78.7047 51.6081 79.531 51.032Z" fill="black"/>
<path d="M66.89 56.5152C72.1064 57.6836 74.25 55.0708 74.25 52.1452C74.25 49.0356 71.3152 43.7824 68.0952 42.8164C69.2452 35.9164 88.2616 45.5764 86.4492 36.0176C86.4492 36.0176 85.934 34.38 81.0212 33.46C76.1084 32.54 62.98 35.5024 63.9 45.3188C64.82 55.1352 66.89 56.5152 66.89 56.5152Z" fill="#263238"/>
<path d="M60.2476 40.82C61.5245 38.2579 61.8849 35.3356 61.2688 32.54C61.2688 32.54 66.9912 36.3212 60.2476 40.82Z" fill="#263238"/>
<path d="M84.2411 59.1372C84.6313 59.1078 85.0188 59.0494 85.4003 58.9624C85.43 58.9558 85.4581 58.9435 85.483 58.9261C85.5078 58.9086 85.529 58.8864 85.5453 58.8608C85.5615 58.8351 85.5725 58.8065 85.5777 58.7766C85.5828 58.7466 85.5819 58.716 85.5751 58.6864C85.5698 58.6561 85.5583 58.6272 85.5412 58.6017C85.524 58.5761 85.5018 58.5544 85.4758 58.5379C85.4498 58.5215 85.4207 58.5106 85.3903 58.5061C85.3598 58.5015 85.3288 58.5034 85.2991 58.5116C84.3437 58.7446 83.3471 58.7512 82.3887 58.5308C81.4303 58.3104 80.5367 57.869 79.7791 57.242C79.7577 57.2197 79.732 57.202 79.7035 57.1899C79.6751 57.1778 79.6445 57.1716 79.6135 57.1716C79.5826 57.1716 79.552 57.1778 79.5236 57.1899C79.4951 57.202 79.4694 57.2197 79.4479 57.242C79.4052 57.2865 79.3813 57.3458 79.3813 57.4076C79.3813 57.4693 79.4052 57.5286 79.4479 57.5732C80.1034 58.1384 80.8647 58.5678 81.6876 58.8363C82.5104 59.1048 83.3784 59.207 84.2411 59.1372Z" fill="#263238"/>
<path d="M63.5873 56.92C64.1843 57.7293 64.9354 58.4126 65.7975 58.9305C66.6596 59.4483 67.6156 59.7906 68.6105 59.9376C71.2877 60.3056 72.2905 57.8308 71.2601 55.494C70.3401 53.3872 67.8377 50.664 65.2985 51.3632C62.7593 52.0624 62.1337 54.9052 63.5873 56.92Z" fill="#FFC3BD"/>
<path d="M80.9843 50.342C81.0947 51.0872 81.5731 51.6392 82.0607 51.5656C82.5483 51.492 82.8611 50.8204 82.7507 50.0752C82.6403 49.33 82.1711 48.7872 81.6835 48.8608C81.1959 48.9344 80.9199 49.56 80.9843 50.342Z" fill="#263238"/>
<path d="M89.7519 49.1644C89.8623 49.9188 90.3407 50.4616 90.8283 50.388C91.3159 50.3144 91.6287 49.652 91.5183 48.9068C91.4079 48.1616 90.9387 47.6096 90.4511 47.6832C89.9635 47.7568 89.6507 48.4192 89.7519 49.1644Z" fill="#263238"/>
<path d="M86.4399 50.1488L86.8631 56.46C86.8631 56.46 88.9331 56.8188 90.0555 55.6228C89.343 53.5166 88.0974 51.6308 86.4399 50.1488Z" fill="#ED847E"/>
<path d="M78.0957 48.64C78.0204 48.6605 77.9409 48.6602 77.8658 48.6392C77.7906 48.6182 77.7225 48.5772 77.6687 48.5206C77.6149 48.464 77.5775 48.3939 77.5604 48.3177C77.5432 48.2415 77.547 48.1622 77.5713 48.088C77.7463 47.4041 78.081 46.7714 78.5481 46.2421C79.0151 45.7127 79.601 45.3017 80.2577 45.0428C80.3688 45.008 80.489 45.0185 80.5924 45.0719C80.6957 45.1253 80.7739 45.2173 80.8097 45.328C80.8448 45.4402 80.8346 45.5618 80.7813 45.6666C80.728 45.7714 80.6359 45.8513 80.5245 45.8892C80.006 46.1007 79.5449 46.4318 79.1787 46.8555C78.8126 47.2792 78.5518 47.7835 78.4177 48.3272C78.3969 48.4033 78.3561 48.4725 78.2995 48.5275C78.2428 48.5826 78.1725 48.6214 78.0957 48.64Z" fill="#263238"/>
<path d="M92.6319 45.8156C92.5592 45.8223 92.486 45.8096 92.4198 45.779C92.3535 45.7483 92.2966 45.7006 92.2547 45.6408C91.9397 45.1838 91.5196 44.8091 91.0297 44.5481C90.5398 44.2872 89.9945 44.1476 89.4395 44.1412C89.3175 44.1412 89.2005 44.0927 89.1142 44.0064C89.028 43.9202 88.9795 43.8032 88.9795 43.6812C88.9795 43.5592 89.028 43.4422 89.1142 43.3559C89.2005 43.2696 89.3175 43.2212 89.4395 43.2212C90.1404 43.2156 90.8321 43.3801 91.4554 43.7005C92.0788 44.021 92.615 44.4879 93.0183 45.0612C93.0521 45.1083 93.0764 45.1616 93.0896 45.2181C93.1028 45.2746 93.1048 45.3331 93.0954 45.3903C93.086 45.4476 93.0654 45.5024 93.0348 45.5517C93.0042 45.601 92.9642 45.6437 92.9171 45.6776C92.8816 45.719 92.838 45.7526 92.7889 45.7764C92.7398 45.8001 92.6864 45.8135 92.6319 45.8156Z" fill="#263238"/>
<path d="M146.24 105.984C144.314 106.119 142.456 106.753 140.849 107.824L139.184 86.6636C139.047 85.0176 138.266 83.4922 137.009 82.4202C135.753 81.3482 134.124 80.8165 132.477 80.9412L70.7171 85.808C69.0721 85.9465 67.5482 86.7287 66.4766 87.9845C65.4051 89.2404 64.8726 90.8684 64.9947 92.5148L69.8707 154.274C70.0022 155.922 70.7824 157.45 72.0399 158.523C73.2975 159.596 74.9295 160.126 76.5775 159.997L138.328 155.121C139.976 154.987 141.503 154.206 142.577 152.95C143.651 151.693 144.184 150.062 144.06 148.414L142.385 127.3C144.139 128.122 146.076 128.471 148.006 128.312C150.778 127.845 153.275 126.357 155.004 124.141C156.733 121.925 157.569 119.141 157.348 116.339C157.126 113.537 155.863 110.919 153.806 109.002C151.75 107.086 149.051 106.008 146.24 105.984Z" fill="#D71635"/>
<path d="M56.6873 97.538L55.7673 99.2308L54.7093 101.126C54.0285 102.414 53.3293 103.702 52.6945 105.008C51.4188 107.554 50.2765 110.164 49.2721 112.828C48.7845 114.116 48.3521 115.395 48.0301 116.656C47.6627 117.862 47.3738 119.092 47.1653 120.336C46.7792 122.337 46.714 124.386 46.9721 126.408L44.8561 122.728C45.737 123.936 46.7874 125.011 47.9749 125.92C49.5357 127.166 51.1735 128.312 52.8785 129.352C54.6541 130.492 56.5585 131.587 58.4721 132.682L61.3977 134.31C62.3177 134.862 63.4217 135.414 64.2957 135.948L64.7373 136.215C65.7139 136.807 66.4689 137.703 66.8859 138.766C67.3029 139.83 67.3589 141 67.0452 142.098C66.7314 143.197 66.0654 144.161 65.1496 144.843C64.2339 145.526 63.1192 145.888 61.9773 145.875C60.5789 145.875 59.3829 145.783 58.0949 145.682C56.8069 145.58 55.5833 145.424 54.3321 145.222C51.7891 144.84 49.2726 144.299 46.7973 143.602C44.1775 142.868 41.6233 141.917 39.1613 140.76C36.2507 139.419 33.5759 137.617 31.2401 135.424C30.3996 134.622 29.7679 133.627 29.4001 132.526L29.1425 131.734C27.7019 127.365 27.1635 122.748 27.5601 118.164C27.8726 114.171 28.638 110.227 29.8417 106.407C30.9625 102.817 32.3525 99.3175 34.0001 95.9372C34.8005 94.2812 35.6193 92.6436 36.5393 91.052C36.9901 90.2516 37.4593 89.4512 37.9377 88.66L38.6921 87.464L39.0877 86.8568L39.5661 86.1484C41.0441 83.9119 43.3362 82.3402 45.955 81.7674C48.5738 81.1946 51.3127 81.6659 53.5894 83.081C55.8662 84.4962 57.5011 86.7436 58.1466 89.3455C58.7921 91.9473 58.3973 94.6983 57.0461 97.0136L56.6873 97.538Z" fill="#FFC3BD"/>
<path d="M49.5022 73.9584C34.2486 82.1096 28.563 100.316 28.563 100.316C31.5806 106.066 49.7782 112.276 56.623 110.584C56.623 110.584 63.1826 98.6236 64.535 87.9332C65.7862 78.0248 58.4354 69.1836 49.5022 73.9584Z" fill="#263238"/>
<path d="M60.1738 136.96L60.4866 142.903C63.0074 148.626 69.797 144.108 69.797 144.108L73.9462 143.262C74.666 143.064 75.292 142.616 75.7132 142C76.1343 141.383 76.3232 140.637 76.2462 139.895L76.0622 135.746C76.0848 134.882 75.7681 134.044 75.1799 133.411C74.5917 132.778 73.7789 132.401 72.9158 132.36L69.2358 132.507C68.1601 132.556 67.1136 132.872 66.1906 133.427L60.1738 136.96Z" fill="#FFC3BD"/>
</svg>
