<svg width="40" height="40" viewBox="0 0 40 40" fill="none" xmlns="http://www.w3.org/2000/svg">
<g clip-path="url(#clip0_269_5420)">
<path fill-rule="evenodd" clip-rule="evenodd" d="M19.9994 16V20H23.9994C23.9994 17.79 22.2094 16 19.9994 16ZM19.9994 8V12C24.4114 12 27.9994 15.588 27.9994 20H31.9994C31.9994 13.372 26.6274 8 19.9994 8ZM19.9994 0V4C28.8214 4 35.9994 11.178 35.9994 20H39.9994C39.9994 8.954 31.0454 0 19.9994 0ZM29.3034 36.4678C29.2794 36.5398 29.2814 36.5298 29.3034 36.4678V36.4678ZM28.2334 31.1562C26.8434 30.4083 25.4374 29.5559 23.9834 28.9619C21.1734 27.8159 21.3634 31.2038 19.3574 32.3018C18.0534 33.0158 16.2134 31.7219 15.0754 31.0059C13.0874 29.7539 11.3254 28.1062 9.86137 26.2002C9.11137 25.2262 7.45537 23.3943 7.65937 22.0283C7.98337 19.8603 10.5474 19.7516 9.81336 17.0996C9.42136 15.6796 8.71937 14.2821 8.19337 12.9141C7.48937 11.0801 7.19936 9.90586 5.14536 10.0059C3.66136 10.0779 2.67737 10.7123 1.76537 11.9023C-0.702626 15.1163 -0.330629 19.4496 1.32737 22.9756C3.67537 27.9656 7.69937 32.67 11.9974 35.71C14.9214 37.778 18.7734 39.6556 22.3134 39.9736C24.9054 40.2076 28.5314 38.8062 29.4594 35.9922C29.3954 36.1882 29.3334 36.3778 29.3034 36.4678C29.3254 36.3978 29.3734 36.2562 29.4594 35.9922C29.5534 35.7082 29.5994 35.566 29.6214 35.502C29.5934 35.586 29.5294 35.7823 29.4614 35.9863C30.2774 33.5063 30.3774 32.3102 28.2334 31.1562ZM29.6214 35.502C29.6374 35.45 29.6374 35.454 29.6214 35.502V35.502Z" fill="#D71635"/>
</g>
<defs>
<clipPath id="clip0_269_5420">
<rect width="40" height="40" fill="white"/>
</clipPath>
</defs>
</svg>
