<svg width="447" height="340" viewBox="0 0 447 340" fill="none" xmlns="http://www.w3.org/2000/svg">
<path d="M382.251 334.284C382.251 337.449 311.198 340 223.642 340C136.087 340 65.0234 337.449 65.0234 334.284C65.0234 331.118 136.076 328.578 223.642 328.578C311.209 328.578 382.251 331.129 382.251 334.284Z" fill="#D71635"/>
<path opacity="0.6" d="M382.251 334.284C382.251 337.449 311.198 340 223.642 340C136.087 340 65.0234 337.449 65.0234 334.284C65.0234 331.118 136.076 328.578 223.642 328.578C311.209 328.578 382.251 331.129 382.251 334.284Z" fill="white"/>
<path d="M73.6144 156.093C73.679 156.093 72.8716 152.077 72.7854 151.787C71.8596 148.923 68.3823 143.928 65.002 143.928C64.4412 143.945 63.8904 144.08 63.3852 144.324C62.88 144.568 62.4317 144.916 62.0694 145.344C61.707 145.772 61.4387 146.272 61.2818 146.811C61.125 147.349 61.083 147.915 61.1587 148.471C61.4063 150.839 63.5379 152.863 65.4649 154.026C67.7256 155.436 73.6144 156.093 73.6144 156.093Z" fill="#D71635"/>
<path d="M80.1491 129.05C76.9733 130.191 75.4015 136.069 75.4984 139.083C75.4984 139.342 76.1013 143.389 76.1659 143.389H76.2305C75.9721 144.315 75.7029 145.306 75.4338 146.404C74.9601 148.428 74.4434 150.71 74.0451 153.251C73.5832 155.972 73.2813 158.719 73.1408 161.475C72.9744 164.565 73.0789 167.663 73.4529 170.734C73.457 170.77 73.457 170.806 73.4529 170.841C73.0439 169.948 71.7951 167.483 71.6766 167.3C70.0188 164.781 65.3465 160.84 62.0846 161.777C61.55 161.942 61.0559 162.217 60.6345 162.585C60.2131 162.953 59.8736 163.405 59.6382 163.913C59.4027 164.42 59.2765 164.971 59.2677 165.531C59.2588 166.09 59.3676 166.645 59.587 167.16C60.4482 169.388 63.0319 170.766 65.1958 171.391C67.6396 172.08 73.0869 171.261 73.5175 171.197C73.9843 174.309 74.6531 177.387 75.5199 180.412C76.0259 182.178 76.5965 183.943 77.1563 185.698C76.7795 184.934 76.4242 184.255 76.3704 184.169C74.7125 181.65 70.0403 177.71 66.7783 178.646C66.2437 178.811 65.7497 179.087 65.3283 179.454C64.9068 179.822 64.5674 180.275 64.3319 180.782C64.0965 181.29 63.9703 181.841 63.9614 182.4C63.9526 182.96 64.0614 183.515 64.2807 184.029C65.142 186.247 67.7257 187.636 69.8896 188.249C72.0534 188.863 76.7472 188.249 77.9745 188.099C78.2005 188.766 78.4266 189.444 78.6635 190.112C79.74 193.341 80.9027 196.571 81.8931 199.736C82.2484 200.813 82.5498 201.975 82.862 203.095C82.5283 202.417 82.2268 201.846 82.173 201.771C80.5259 199.241 75.8429 195.311 72.5917 196.248C72.0562 196.412 71.561 196.686 71.1384 197.054C70.7157 197.421 70.3751 197.873 70.1386 198.381C69.902 198.888 69.7749 199.44 69.7654 200C69.7559 200.56 69.8642 201.116 70.0833 201.631C70.9446 203.849 73.5391 205.237 75.7029 205.851C77.8668 206.465 82.0977 205.926 83.5618 205.722C83.8524 206.874 84.1431 208.036 84.3692 209.167C84.4984 209.942 84.6814 210.674 84.7783 211.471L85.1012 213.774C85.2519 215.249 85.4242 216.767 85.5319 218.21C85.618 219.222 85.6826 220.18 85.7472 221.138C85.4134 220.061 84.6706 217.833 84.6706 217.661C83.4788 215.292 81.6997 213.268 79.5032 211.783C79.3809 211.513 79.2369 211.254 79.0725 211.008C78.7656 210.538 78.3635 210.139 77.8922 209.835C77.421 209.531 76.8912 209.329 76.3371 209.243C75.783 209.156 75.2169 209.188 74.6756 209.334C74.1343 209.48 73.6297 209.739 73.1946 210.093C70.6432 212.299 71.2783 218.35 72.4518 221.127C72.5163 221.289 73.5283 222.99 74.0881 224.045L72.7209 222.344C71.7735 221.192 70.8046 220.072 69.7711 218.866C69.24 218.307 68.7125 217.736 68.1886 217.155C67.6719 216.573 67.0582 216.024 66.4877 215.443C65.1312 214.14 63.6994 212.881 62.1815 211.654C63.1934 210.825 66.7137 207.853 67.7257 205.829C68.7377 203.806 69.459 200.974 68.4039 198.832C68.172 198.322 67.8356 197.867 67.4163 197.496C66.9971 197.125 66.5046 196.846 65.9706 196.677C65.4366 196.509 64.8732 196.454 64.3168 196.518C63.7605 196.581 63.2237 196.761 62.7413 197.045C59.8776 198.832 59.587 204.914 60.3298 207.81C60.3298 207.993 61.148 210.039 61.5894 211.148C60.6958 210.405 59.813 209.673 58.8872 208.994C56.2174 206.938 53.5045 204.936 50.7054 202.923L48.1971 201.06C48.5523 200.77 52.8155 197.325 53.9566 195.053C54.9686 193.04 55.6899 190.198 54.6348 188.066C54.4041 187.554 54.068 187.097 53.6484 186.723C53.2289 186.35 52.7353 186.069 52.1999 185.9C51.6645 185.73 51.0993 185.675 50.5413 185.739C49.9833 185.802 49.4449 185.983 48.9614 186.268C46.1085 188.066 45.8179 194.138 46.5607 197.034C46.6145 197.249 47.7234 200.178 48.0463 200.91C46.2054 199.542 44.3861 198.164 42.6636 196.733C40.3077 194.804 38.0782 192.725 35.989 190.51C36.1505 190.381 40.6181 186.796 41.7808 184.481C42.7928 182.468 43.5141 179.626 42.459 177.484C42.226 176.977 41.8891 176.524 41.4703 176.155C41.0515 175.786 40.5599 175.509 40.0274 175.341C39.4948 175.174 38.9331 175.12 38.3784 175.183C37.8238 175.246 37.2885 175.425 36.8072 175.708C33.9435 177.505 33.6636 183.588 34.3957 186.473C34.4495 186.667 35.2892 188.906 35.7198 189.95L35.5584 190.058C33.5133 187.771 31.6759 185.307 30.0679 182.694C29.1744 181.273 28.3885 179.852 27.6565 178.463C28.5608 177.882 32.6409 175.234 33.922 173.21C35.2031 171.186 36.1828 168.57 35.3646 166.331C35.1894 165.805 34.9067 165.321 34.5344 164.91C34.162 164.499 33.7083 164.171 33.202 163.945C32.6956 163.719 32.1478 163.601 31.5934 163.599C31.039 163.596 30.4902 163.709 29.9818 163.93C26.9459 165.394 25.9878 171.466 26.4077 174.394C26.4077 174.556 26.8383 176.181 27.1612 177.355C26.8383 176.73 26.4938 176.074 26.2031 175.46C25.1266 173.167 24.2115 170.992 23.4579 169.065C23.0381 167.989 22.672 166.912 22.3814 166.008C22.9627 164.985 25.2773 160.797 25.4926 158.472C25.7079 156.147 25.3634 153.315 23.6086 151.7C23.2081 151.307 22.7294 151.002 22.2035 150.806C21.6776 150.609 21.1162 150.525 20.5558 150.56C19.9955 150.595 19.4486 150.746 18.9508 151.006C18.453 151.266 18.0152 151.627 17.6661 152.066C15.6529 154.769 17.5799 160.55 19.324 163.004C19.4747 163.22 22.2091 166.234 22.2414 166.234V166.169C22.5428 167.084 22.8658 168.053 23.2534 169.119C23.9747 171.068 24.8036 173.264 25.8694 175.578C26.9877 178.105 28.253 180.563 29.6588 182.942C31.2265 185.608 33.0278 188.13 35.0416 190.478L35.117 190.553C34.2773 190.036 31.8873 188.669 31.6828 188.583C28.916 187.388 22.855 186.721 20.6374 189.261C20.2809 189.694 20.0197 190.198 19.8707 190.738C19.7217 191.279 19.6883 191.845 19.7725 192.4C19.8568 192.954 20.057 193.485 20.3599 193.957C20.6629 194.429 21.0619 194.832 21.5309 195.139C23.4687 196.517 26.3969 196.216 28.5392 195.57C30.9615 194.806 34.9985 191.113 35.3753 190.822C37.4811 193.162 39.7396 195.359 42.1361 197.4C43.5248 198.595 44.9566 199.758 46.4423 200.91C45.6995 200.49 45.032 200.113 44.9351 200.07C42.1684 198.875 36.1182 198.207 33.9005 200.748C33.5419 201.18 33.2786 201.682 33.1278 202.223C32.977 202.763 32.9421 203.33 33.0255 203.885C33.1088 204.44 33.3085 204.971 33.6114 205.443C33.9143 205.916 34.3137 206.319 34.7832 206.626C36.7318 208.004 39.6493 207.703 41.8024 207.057C43.9555 206.411 47.5188 203.289 48.4554 202.46L50.1349 203.773C52.8478 205.851 55.5176 207.907 58.1552 210.006C59.0702 210.749 59.9422 211.503 60.825 212.267C60.1683 211.89 59.6085 211.578 59.5116 211.535C56.7449 210.351 50.6947 209.673 48.477 212.224C48.1184 212.656 47.8551 213.158 47.7043 213.699C47.5535 214.24 47.5187 214.806 47.602 215.361C47.6853 215.916 47.885 216.447 48.1879 216.919C48.4909 217.392 48.8902 217.795 49.3597 218.102C51.3083 219.48 54.2257 219.179 56.3789 218.522C58.532 217.865 61.7616 215.055 62.8382 214.087C63.7102 214.883 64.5929 215.691 65.4111 216.509C65.9494 217.079 66.4877 217.585 67.0259 218.199L68.5654 219.954C69.5128 221.095 70.4817 222.268 71.3752 223.409C71.9996 224.206 72.5809 224.97 73.173 225.735C72.2687 224.992 70.4709 223.582 70.2987 223.463C67.7472 221.859 61.8693 220.287 59.2855 222.462C58.8686 222.837 58.5351 223.295 58.3068 223.807C58.0785 224.319 57.9605 224.873 57.9605 225.433C57.9605 225.994 58.0785 226.548 58.3068 227.06C58.5351 227.572 58.8686 228.03 59.2855 228.405C60.9973 230.063 63.9255 230.235 66.1539 229.89C68.5977 229.514 73.0331 226.661 73.5821 226.262C74.551 227.533 75.4769 228.781 76.3381 229.966C79.3202 234.089 81.6455 237.642 83.2388 240.139L83.4003 240.397L85.4673 239.396L85.1443 238.901C83.4756 236.414 81.0534 232.883 77.9422 228.781C76.9733 227.479 75.8967 226.122 74.7879 224.723C75.9396 223.465 77.0179 222.143 78.0175 220.761C80.3859 221.687 85.3273 221.719 85.9625 221.719C86.0701 223.323 86.1563 224.874 86.2101 226.338C86.4254 231.43 86.4039 235.671 86.3608 238.632C86.3608 238.75 86.3608 238.858 86.3608 238.976L88.6323 237.9C88.6323 234.95 88.5139 230.967 88.2232 226.252C88.1156 224.637 87.9756 222.904 87.8249 221.127C88.4493 220.976 93.5845 219.652 95.5223 218.102C97.2878 216.703 99.1395 214.42 99.0749 212.041C99.0792 211.48 98.9654 210.925 98.7409 210.411C98.5164 209.898 98.1863 209.437 97.772 209.059C97.3576 208.681 96.8684 208.395 96.3361 208.219C95.8038 208.043 95.2404 207.98 94.6825 208.036C91.3237 208.467 88.5247 213.86 87.9756 216.832C87.9756 217.004 87.7926 218.985 87.728 220.158C87.6634 219.437 87.5988 218.737 87.5235 218.005C87.3728 216.53 87.179 215.066 86.9852 213.484C86.856 212.73 86.7268 211.955 86.6084 211.18C86.49 210.405 86.2854 209.608 86.124 208.822C85.7149 206.981 85.2197 205.14 84.6706 203.3C85.9625 203.17 90.5486 202.632 92.5079 201.502C94.4672 200.371 96.6311 198.412 96.9325 196.044C97.0209 195.49 96.9919 194.925 96.8474 194.384C96.7029 193.842 96.4461 193.337 96.0938 192.902C95.7415 192.466 95.3016 192.11 94.8025 191.855C94.3034 191.601 93.7563 191.454 93.1969 191.425C89.8165 191.339 86.2208 196.248 85.2304 199.101C85.1658 199.273 84.6814 201.394 84.4445 202.567C84.1 201.491 83.7771 200.361 83.368 199.252C82.2914 196.022 81.0749 192.868 79.8907 189.67L78.8142 186.731C79.2771 186.731 84.7352 186.172 86.9314 184.901C88.8799 183.825 91.0546 181.812 91.356 179.443C91.4461 178.89 91.4183 178.324 91.2745 177.782C91.1307 177.24 90.8741 176.734 90.5215 176.298C90.1689 175.862 89.7281 175.506 89.2282 175.252C88.7283 174.998 88.1804 174.852 87.6204 174.825C84.24 174.739 80.6443 179.658 79.6539 182.501C79.5785 182.716 78.8895 185.73 78.7496 186.559C77.9745 184.406 77.2209 182.253 76.5965 180.1C75.6973 177.19 74.9783 174.227 74.4434 171.229C74.6587 171.229 80.3644 170.691 82.6144 169.399C84.563 168.269 86.7376 166.298 87.039 163.93C87.1274 163.376 87.0981 162.81 86.953 162.268C86.8078 161.726 86.5502 161.22 86.1967 160.785C85.8433 160.349 85.402 159.993 84.9016 159.739C84.4012 159.485 83.853 159.339 83.2926 159.312C79.923 159.226 76.3273 164.145 75.3369 166.987C75.2723 167.17 74.7448 169.507 74.5187 170.615H74.325C73.8803 167.583 73.7074 164.517 73.8082 161.454C73.8082 159.775 73.9697 158.16 74.1312 156.599C75.2077 156.599 80.106 156.599 82.2591 155.673C84.4122 154.747 86.6945 153.046 87.2543 150.732C87.4037 150.189 87.4368 149.622 87.3516 149.066C87.2664 148.51 87.0647 147.978 86.7599 147.506C86.455 147.033 86.0537 146.63 85.5824 146.324C85.111 146.017 84.5802 145.813 84.0247 145.726C80.6766 145.273 76.5642 149.763 75.2723 152.476C75.197 152.626 74.6479 154.209 74.2604 155.371C74.3357 154.661 74.4111 153.94 74.508 153.218C74.8525 150.688 75.3154 148.395 75.746 146.361C76.0044 145.209 76.252 144.208 76.4996 143.206C77.5761 142.668 81.7962 140.461 83.2496 138.663C84.7029 136.866 85.9732 134.293 85.4027 131.978C85.284 131.421 85.0476 130.895 84.7092 130.437C84.3708 129.979 83.9383 129.598 83.4408 129.321C82.9432 129.044 82.392 128.876 81.8243 128.829C81.2565 128.782 80.6854 128.858 80.1491 129.05Z" fill="#D71635"/>
<path d="M19.1302 181.09C21.7678 180.983 27.0429 178.27 27.0536 178.27C27.0644 178.27 24.2115 175.341 24.007 175.169C21.6493 173.296 15.9867 171.046 13.1769 172.919C12.719 173.242 12.3341 173.658 12.0473 174.139C11.7605 174.62 11.5782 175.157 11.5122 175.713C11.4462 176.269 11.498 176.833 11.6642 177.369C11.8305 177.904 12.1075 178.398 12.4771 178.819C13.9951 180.66 16.9125 181.176 19.1302 181.09Z" fill="#D71635"/>
<g opacity="0.5">
<path d="M73.6144 156.093C73.679 156.093 72.8716 152.077 72.7854 151.787C71.8596 148.923 68.3823 143.928 65.002 143.928C64.4412 143.945 63.8904 144.08 63.3852 144.324C62.88 144.568 62.4317 144.916 62.0694 145.344C61.707 145.772 61.4387 146.272 61.2818 146.811C61.125 147.349 61.083 147.915 61.1587 148.471C61.4063 150.839 63.5379 152.863 65.4649 154.026C67.7256 155.436 73.6144 156.093 73.6144 156.093Z" fill="white"/>
<path d="M80.1491 129.05C76.9733 130.191 75.4015 136.069 75.4984 139.083C75.4984 139.342 76.1013 143.389 76.1659 143.389H76.2305C75.9721 144.315 75.7029 145.306 75.4338 146.404C74.9601 148.428 74.4434 150.71 74.0451 153.251C73.5832 155.972 73.2813 158.719 73.1408 161.475C72.9744 164.565 73.0789 167.663 73.4529 170.734C73.457 170.77 73.457 170.806 73.4529 170.841C73.0439 169.948 71.7951 167.483 71.6766 167.3C70.0188 164.781 65.3465 160.84 62.0846 161.777C61.55 161.942 61.0559 162.217 60.6345 162.585C60.2131 162.953 59.8736 163.405 59.6382 163.913C59.4027 164.42 59.2765 164.971 59.2677 165.531C59.2588 166.09 59.3676 166.645 59.587 167.16C60.4482 169.388 63.0319 170.766 65.1958 171.391C67.6396 172.08 73.0869 171.261 73.5175 171.197C73.9843 174.309 74.6531 177.387 75.5199 180.412C76.0259 182.178 76.5965 183.943 77.1563 185.698C76.7795 184.934 76.4242 184.255 76.3704 184.169C74.7125 181.65 70.0403 177.71 66.7783 178.646C66.2437 178.811 65.7497 179.087 65.3283 179.454C64.9068 179.822 64.5674 180.275 64.3319 180.782C64.0965 181.29 63.9703 181.841 63.9614 182.4C63.9526 182.96 64.0614 183.515 64.2807 184.029C65.142 186.247 67.7257 187.636 69.8896 188.249C72.0534 188.863 76.7472 188.249 77.9745 188.099C78.2005 188.766 78.4266 189.444 78.6635 190.112C79.74 193.341 80.9027 196.571 81.8931 199.736C82.2484 200.813 82.5498 201.975 82.862 203.095C82.5283 202.417 82.2268 201.846 82.173 201.771C80.5259 199.241 75.8429 195.311 72.5917 196.248C72.0562 196.412 71.561 196.686 71.1384 197.054C70.7157 197.421 70.3751 197.873 70.1386 198.381C69.902 198.888 69.7749 199.44 69.7654 200C69.7559 200.56 69.8642 201.116 70.0833 201.631C70.9446 203.849 73.5391 205.237 75.7029 205.851C77.8668 206.465 82.0977 205.926 83.5618 205.722C83.8524 206.874 84.1431 208.036 84.3692 209.167C84.4984 209.942 84.6814 210.674 84.7783 211.471L85.1012 213.774C85.2519 215.249 85.4242 216.767 85.5319 218.21C85.618 219.222 85.6826 220.18 85.7472 221.138C85.4134 220.061 84.6706 217.833 84.6706 217.661C83.4788 215.292 81.6997 213.268 79.5032 211.783C79.3809 211.513 79.2369 211.254 79.0725 211.008C78.7656 210.538 78.3635 210.139 77.8922 209.835C77.421 209.531 76.8912 209.329 76.3371 209.243C75.783 209.156 75.2169 209.188 74.6756 209.334C74.1343 209.48 73.6297 209.739 73.1946 210.093C70.6432 212.299 71.2783 218.35 72.4518 221.127C72.5163 221.289 73.5283 222.99 74.0881 224.045L72.7209 222.344C71.7735 221.192 70.8046 220.072 69.7711 218.866C69.24 218.307 68.7125 217.736 68.1886 217.155C67.6719 216.573 67.0582 216.024 66.4877 215.443C65.1312 214.14 63.6994 212.881 62.1815 211.654C63.1934 210.825 66.7137 207.853 67.7257 205.829C68.7377 203.806 69.459 200.974 68.4039 198.832C68.172 198.322 67.8356 197.867 67.4163 197.496C66.9971 197.125 66.5046 196.846 65.9706 196.677C65.4366 196.509 64.8732 196.454 64.3168 196.518C63.7605 196.581 63.2237 196.761 62.7413 197.045C59.8776 198.832 59.587 204.914 60.3298 207.81C60.3298 207.993 61.148 210.039 61.5894 211.148C60.6958 210.405 59.813 209.673 58.8872 208.994C56.2174 206.938 53.5045 204.936 50.7054 202.923L48.1971 201.06C48.5523 200.77 52.8155 197.325 53.9566 195.053C54.9686 193.04 55.6899 190.198 54.6348 188.066C54.4041 187.554 54.068 187.097 53.6484 186.723C53.2289 186.35 52.7353 186.069 52.1999 185.9C51.6645 185.73 51.0993 185.675 50.5413 185.739C49.9833 185.802 49.4449 185.983 48.9614 186.268C46.1085 188.066 45.8179 194.138 46.5607 197.034C46.6145 197.249 47.7234 200.178 48.0463 200.91C46.2054 199.542 44.3861 198.164 42.6636 196.733C40.3077 194.804 38.0782 192.725 35.989 190.51C36.1505 190.381 40.6181 186.796 41.7808 184.481C42.7928 182.468 43.5141 179.626 42.459 177.484C42.226 176.977 41.8891 176.524 41.4703 176.155C41.0515 175.786 40.5599 175.509 40.0274 175.341C39.4948 175.174 38.9331 175.12 38.3784 175.183C37.8238 175.246 37.2885 175.425 36.8072 175.708C33.9435 177.505 33.6636 183.588 34.3957 186.473C34.4495 186.667 35.2892 188.906 35.7198 189.95L35.5584 190.058C33.5133 187.771 31.6759 185.307 30.0679 182.694C29.1744 181.273 28.3885 179.852 27.6565 178.463C28.5608 177.882 32.6409 175.234 33.922 173.21C35.2031 171.186 36.1828 168.57 35.3646 166.331C35.1894 165.805 34.9067 165.321 34.5344 164.91C34.162 164.499 33.7083 164.171 33.202 163.945C32.6956 163.719 32.1478 163.601 31.5934 163.599C31.039 163.596 30.4902 163.709 29.9818 163.93C26.9459 165.394 25.9878 171.466 26.4077 174.394C26.4077 174.556 26.8383 176.181 27.1612 177.355C26.8383 176.73 26.4938 176.074 26.2031 175.46C25.1266 173.167 24.2115 170.992 23.4579 169.065C23.0381 167.989 22.672 166.912 22.3814 166.008C22.9627 164.985 25.2773 160.797 25.4926 158.472C25.7079 156.147 25.3634 153.315 23.6086 151.7C23.2081 151.307 22.7294 151.002 22.2035 150.806C21.6776 150.609 21.1162 150.525 20.5558 150.56C19.9955 150.595 19.4486 150.746 18.9508 151.006C18.453 151.266 18.0152 151.627 17.6661 152.066C15.6529 154.769 17.5799 160.55 19.324 163.004C19.4747 163.22 22.2091 166.234 22.2414 166.234V166.169C22.5428 167.084 22.8658 168.053 23.2534 169.119C23.9747 171.068 24.8036 173.264 25.8694 175.578C26.9877 178.105 28.253 180.563 29.6588 182.942C31.2265 185.608 33.0278 188.13 35.0416 190.478L35.117 190.553C34.2773 190.036 31.8873 188.669 31.6828 188.583C28.916 187.388 22.855 186.721 20.6374 189.261C20.2809 189.694 20.0197 190.198 19.8707 190.738C19.7217 191.279 19.6883 191.845 19.7725 192.4C19.8568 192.954 20.057 193.485 20.3599 193.957C20.6629 194.429 21.0619 194.832 21.5309 195.139C23.4687 196.517 26.3969 196.216 28.5392 195.57C30.9615 194.806 34.9985 191.113 35.3753 190.822C37.4811 193.162 39.7396 195.359 42.1361 197.4C43.5248 198.595 44.9566 199.758 46.4423 200.91C45.6995 200.49 45.032 200.113 44.9351 200.07C42.1684 198.875 36.1182 198.207 33.9005 200.748C33.5419 201.18 33.2786 201.682 33.1278 202.223C32.977 202.763 32.9421 203.33 33.0255 203.885C33.1088 204.44 33.3085 204.971 33.6114 205.443C33.9143 205.916 34.3137 206.319 34.7832 206.626C36.7318 208.004 39.6493 207.703 41.8024 207.057C43.9555 206.411 47.5188 203.289 48.4554 202.46L50.1349 203.773C52.8478 205.851 55.5176 207.907 58.1552 210.006C59.0702 210.749 59.9422 211.503 60.825 212.267C60.1683 211.89 59.6085 211.578 59.5116 211.535C56.7449 210.351 50.6947 209.673 48.477 212.224C48.1184 212.656 47.8551 213.158 47.7043 213.699C47.5535 214.24 47.5187 214.806 47.602 215.361C47.6853 215.916 47.885 216.447 48.1879 216.919C48.4909 217.392 48.8902 217.795 49.3597 218.102C51.3083 219.48 54.2257 219.179 56.3789 218.522C58.532 217.865 61.7616 215.055 62.8382 214.087C63.7102 214.883 64.5929 215.691 65.4111 216.509C65.9494 217.079 66.4877 217.585 67.0259 218.199L68.5654 219.954C69.5128 221.095 70.4817 222.268 71.3752 223.409C71.9996 224.206 72.5809 224.97 73.173 225.735C72.2687 224.992 70.4709 223.582 70.2987 223.463C67.7472 221.859 61.8693 220.287 59.2855 222.462C58.8686 222.837 58.5351 223.295 58.3068 223.807C58.0785 224.319 57.9605 224.873 57.9605 225.433C57.9605 225.994 58.0785 226.548 58.3068 227.06C58.5351 227.572 58.8686 228.03 59.2855 228.405C60.9973 230.063 63.9255 230.235 66.1539 229.89C68.5977 229.514 73.0331 226.661 73.5821 226.262C74.551 227.533 75.4769 228.781 76.3381 229.966C79.3202 234.089 81.6455 237.642 83.2388 240.139L83.4003 240.397L85.4673 239.396L85.1443 238.901C83.4756 236.414 81.0534 232.883 77.9422 228.781C76.9733 227.479 75.8967 226.122 74.7879 224.723C75.9396 223.465 77.0179 222.143 78.0175 220.761C80.3859 221.687 85.3273 221.719 85.9625 221.719C86.0701 223.323 86.1563 224.874 86.2101 226.338C86.4254 231.43 86.4039 235.671 86.3608 238.632C86.3608 238.75 86.3608 238.858 86.3608 238.976L88.6323 237.9C88.6323 234.95 88.5139 230.967 88.2232 226.252C88.1156 224.637 87.9756 222.904 87.8249 221.127C88.4493 220.976 93.5845 219.652 95.5223 218.102C97.2878 216.703 99.1395 214.42 99.0749 212.041C99.0792 211.48 98.9654 210.925 98.7409 210.411C98.5164 209.898 98.1863 209.437 97.772 209.059C97.3576 208.681 96.8684 208.395 96.3361 208.219C95.8038 208.043 95.2404 207.98 94.6825 208.036C91.3237 208.467 88.5247 213.86 87.9756 216.832C87.9756 217.004 87.7926 218.985 87.728 220.158C87.6634 219.437 87.5988 218.737 87.5235 218.005C87.3728 216.53 87.179 215.066 86.9852 213.484C86.856 212.73 86.7268 211.955 86.6084 211.18C86.49 210.405 86.2854 209.608 86.124 208.822C85.7149 206.981 85.2197 205.14 84.6706 203.3C85.9625 203.17 90.5486 202.632 92.5079 201.502C94.4672 200.371 96.6311 198.412 96.9325 196.044C97.0209 195.49 96.9919 194.925 96.8474 194.384C96.7029 193.842 96.4461 193.337 96.0938 192.902C95.7415 192.466 95.3016 192.11 94.8025 191.855C94.3034 191.601 93.7563 191.454 93.1969 191.425C89.8165 191.339 86.2208 196.248 85.2304 199.101C85.1658 199.273 84.6814 201.394 84.4445 202.567C84.1 201.491 83.7771 200.361 83.368 199.252C82.2914 196.022 81.0749 192.868 79.8907 189.67L78.8142 186.731C79.2771 186.731 84.7352 186.172 86.9314 184.901C88.8799 183.825 91.0546 181.812 91.356 179.443C91.4461 178.89 91.4183 178.324 91.2745 177.782C91.1307 177.24 90.8741 176.734 90.5215 176.298C90.1689 175.862 89.7281 175.506 89.2282 175.252C88.7283 174.998 88.1804 174.852 87.6204 174.825C84.24 174.739 80.6443 179.658 79.6539 182.501C79.5785 182.716 78.8895 185.73 78.7496 186.559C77.9745 184.406 77.2209 182.253 76.5965 180.1C75.6973 177.19 74.9783 174.227 74.4434 171.229C74.6587 171.229 80.3644 170.691 82.6144 169.399C84.563 168.269 86.7376 166.298 87.039 163.93C87.1274 163.376 87.0981 162.81 86.953 162.268C86.8078 161.726 86.5502 161.22 86.1967 160.785C85.8433 160.349 85.402 159.993 84.9016 159.739C84.4012 159.485 83.853 159.339 83.2926 159.312C79.923 159.226 76.3273 164.145 75.3369 166.987C75.2723 167.17 74.7448 169.507 74.5187 170.615H74.325C73.8803 167.583 73.7074 164.517 73.8082 161.454C73.8082 159.775 73.9697 158.16 74.1312 156.599C75.2077 156.599 80.106 156.599 82.2591 155.673C84.4122 154.747 86.6945 153.046 87.2543 150.732C87.4037 150.189 87.4368 149.622 87.3516 149.066C87.2664 148.51 87.0647 147.978 86.7599 147.506C86.455 147.033 86.0537 146.63 85.5824 146.324C85.111 146.017 84.5802 145.813 84.0247 145.726C80.6766 145.273 76.5642 149.763 75.2723 152.476C75.197 152.626 74.6479 154.209 74.2604 155.371C74.3357 154.661 74.4111 153.94 74.508 153.218C74.8525 150.688 75.3154 148.395 75.746 146.361C76.0044 145.209 76.252 144.208 76.4996 143.206C77.5761 142.668 81.7962 140.461 83.2496 138.663C84.7029 136.866 85.9732 134.293 85.4027 131.978C85.284 131.421 85.0476 130.895 84.7092 130.437C84.3708 129.979 83.9383 129.598 83.4408 129.321C82.9432 129.044 82.392 128.876 81.8243 128.829C81.2565 128.782 80.6854 128.858 80.1491 129.05Z" fill="white"/>
<path d="M19.1302 181.09C21.7678 180.983 27.0429 178.27 27.0536 178.27C27.0644 178.27 24.2115 175.341 24.007 175.169C21.6493 173.296 15.9867 171.046 13.1769 172.919C12.719 173.242 12.3341 173.658 12.0473 174.139C11.7605 174.62 11.5782 175.157 11.5122 175.713C11.4462 176.269 11.498 176.833 11.6642 177.369C11.8305 177.904 12.1075 178.398 12.4771 178.819C13.9951 180.66 16.9125 181.176 19.1302 181.09Z" fill="white"/>
</g>
<path d="M49.9304 247.137C49.9304 247.137 65.9388 208.553 74.8957 210.232C83.8526 211.912 59.5333 271.747 59.5333 271.747C59.5333 271.747 87.6959 218.619 106.902 218.619C126.107 218.619 99.8609 277.334 75.5416 296.906C75.5416 296.906 113.942 255.523 136.356 264.48C158.77 273.437 91.5392 315.368 91.5392 315.368C91.5392 315.368 130.586 303.063 126.107 312.569C121.629 322.075 109.496 323.755 109.496 323.755L153.635 325.994H0L34.5681 322.635C34.5681 322.635 -1.2811 304.743 8.30021 297.465C17.8815 290.188 39.025 305.852 39.025 305.852C39.025 305.852 2.54066 265.589 9.5813 250.495C16.6219 235.402 47.9927 277.894 47.9927 277.894C47.9927 277.894 22.3815 223.657 27.5382 214.14C32.6949 204.624 49.9304 247.137 49.9304 247.137Z" fill="#D71635"/>
<path opacity="0.4" d="M49.9304 247.137C49.9304 247.137 65.9388 208.553 74.8957 210.232C83.8526 211.912 59.5333 271.747 59.5333 271.747C59.5333 271.747 87.6959 218.619 106.902 218.619C126.107 218.619 99.8609 277.334 75.5416 296.906C75.5416 296.906 113.942 255.523 136.356 264.48C158.77 273.437 91.5392 315.368 91.5392 315.368C91.5392 315.368 130.586 303.063 126.107 312.569C121.629 322.075 109.496 323.755 109.496 323.755L153.635 325.994H0L34.5681 322.635C34.5681 322.635 -1.2811 304.743 8.30021 297.465C17.8815 290.188 39.025 305.852 39.025 305.852C39.025 305.852 2.54066 265.589 9.5813 250.495C16.6219 235.402 47.9927 277.894 47.9927 277.894C47.9927 277.894 22.3815 223.657 27.5382 214.14C32.6949 204.624 49.9304 247.137 49.9304 247.137Z" fill="white"/>
<path d="M44.8174 249.171C58.8987 290.78 58.8987 320.224 58.8987 320.224C58.8987 320.224 42.2552 320.87 24.9658 308.069" stroke="#263238" stroke-linecap="round" stroke-linejoin="round"/>
<path d="M51.8574 271.574C54.7556 259.135 58.6067 246.938 63.3765 235.09" stroke="#263238" stroke-linecap="round" stroke-linejoin="round"/>
<path d="M93.4668 247.255L57.6176 300.383C57.6176 300.383 33.2876 279.928 24.9658 268.377" stroke="#263238" stroke-linecap="round" stroke-linejoin="round"/>
<path d="M58.252 313.183C58.252 313.183 96.0174 295.259 111.391 285.021" stroke="#263238" stroke-linecap="round" stroke-linejoin="round"/>
<path d="M372.842 156.093C372.777 156.093 373.595 152.077 373.67 151.787C374.596 148.923 378.084 143.928 381.454 143.928C382.015 143.945 382.566 144.08 383.071 144.324C383.576 144.568 384.024 144.916 384.387 145.344C384.749 145.772 385.017 146.272 385.174 146.811C385.331 147.349 385.373 147.915 385.297 148.471C385.05 150.839 382.918 152.863 380.991 154.026C378.73 155.436 372.842 156.093 372.842 156.093Z" fill="#D71635"/>
<path d="M366.307 129.05C369.483 130.191 371.065 136.069 370.958 139.083C370.958 139.342 370.355 143.389 370.301 143.389H370.237C370.484 144.315 370.753 145.306 371.022 146.404C371.496 148.428 372.013 150.71 372.411 153.251C372.873 155.972 373.175 158.719 373.315 161.475C373.487 164.565 373.383 167.663 373.003 170.734C372.999 170.77 372.999 170.806 373.003 170.841C373.423 169.948 374.672 167.483 374.78 167.3C376.437 164.78 381.11 160.84 384.372 161.777C384.907 161.94 385.402 162.215 385.825 162.582C386.247 162.95 386.587 163.402 386.823 163.91C387.059 164.418 387.184 164.97 387.192 165.53C387.2 166.09 387.09 166.645 386.869 167.16C386.008 169.388 383.424 170.766 381.26 171.39C378.817 172.079 373.369 171.261 372.939 171.197C372.477 174.31 371.808 177.388 370.936 180.412C370.434 182.178 369.888 183.939 369.3 185.698C369.677 184.933 370.032 184.255 370.086 184.169C371.744 181.65 376.427 177.71 379.678 178.646C380.213 178.81 380.709 179.084 381.131 179.452C381.553 179.819 381.893 180.272 382.129 180.78C382.365 181.288 382.491 181.84 382.499 182.4C382.507 182.959 382.397 183.515 382.175 184.029C381.314 186.247 378.73 187.636 376.567 188.249C374.403 188.863 369.709 188.249 368.482 188.099L367.803 190.112C366.727 193.341 365.554 196.571 364.574 199.736C364.219 200.813 363.906 201.975 363.594 203.095C363.939 202.417 364.229 201.846 364.283 201.771C365.941 199.241 370.613 195.311 373.864 196.248C374.4 196.412 374.895 196.686 375.318 197.054C375.74 197.421 376.081 197.873 376.318 198.381C376.554 198.888 376.681 199.44 376.691 200C376.7 200.56 376.592 201.115 376.373 201.631C375.512 203.848 372.917 205.237 370.753 205.851C368.589 206.465 364.359 205.926 362.894 205.722C362.604 206.874 362.324 208.036 362.098 209.167C361.958 209.942 361.775 210.674 361.678 211.47L361.355 213.774C361.204 215.249 361.032 216.767 360.924 218.21C360.838 219.222 360.774 220.18 360.709 221.138C361.054 220.061 361.786 217.833 361.839 217.661C363.035 215.294 364.813 213.271 367.007 211.783C367.129 211.511 367.276 211.251 367.448 211.008C367.753 210.537 368.154 210.136 368.624 209.832C369.094 209.527 369.623 209.324 370.177 209.238C370.731 209.152 371.297 209.183 371.838 209.33C372.378 209.478 372.882 209.737 373.315 210.092C375.878 212.299 375.232 218.35 374.058 221.127C373.994 221.289 373.036 222.99 372.422 224.045C372.885 223.474 373.315 222.968 373.8 222.344C374.736 221.192 375.705 220.072 376.739 218.866L378.321 217.155C378.838 216.573 379.463 216.024 380.033 215.443C381.379 214.14 382.811 212.881 384.285 211.654C383.284 210.825 379.753 207.853 378.741 205.829C377.729 203.805 377.008 200.974 378.063 198.832C378.295 198.321 378.632 197.864 379.052 197.492C379.472 197.12 379.965 196.84 380.501 196.671C381.036 196.503 381.601 196.449 382.158 196.513C382.716 196.578 383.254 196.759 383.736 197.045C386.589 198.832 386.88 204.914 386.137 207.81C386.137 207.993 385.319 210.039 384.878 211.148C385.771 210.405 386.654 209.673 387.58 208.994C390.25 206.938 393.016 204.936 395.762 202.923L398.27 201.06C397.915 200.77 393.652 197.325 392.51 195.053C391.509 193.04 390.777 190.198 391.832 188.066C392.063 187.554 392.399 187.097 392.819 186.723C393.238 186.35 393.732 186.069 394.267 185.899C394.802 185.73 395.368 185.675 395.926 185.739C396.484 185.802 397.022 185.983 397.506 186.268C400.369 188.066 400.649 194.138 399.906 197.034C399.852 197.249 398.744 200.177 398.431 200.91C400.262 199.542 402.081 198.164 403.814 196.732C406.17 194.803 408.4 192.725 410.489 190.51C410.327 190.381 405.86 186.796 404.697 184.481C403.685 182.468 402.964 179.626 404.019 177.484C404.25 176.973 404.585 176.517 405.004 176.145C405.423 175.772 405.915 175.492 406.449 175.323C406.983 175.153 407.547 175.098 408.104 175.16C408.661 175.223 409.198 175.402 409.681 175.686C412.545 177.484 412.836 183.566 412.093 186.451C412.039 186.645 411.199 188.884 410.779 189.929C410.829 189.971 410.883 190.007 410.941 190.036C412.983 187.75 414.817 185.285 416.421 182.673C417.325 181.252 418.1 179.831 418.832 178.442C417.928 177.861 413.848 175.212 412.566 173.188C411.285 171.164 410.317 168.548 411.124 166.309C411.298 165.776 411.582 165.286 411.959 164.87C412.335 164.455 412.794 164.123 413.307 163.896C413.82 163.67 414.374 163.554 414.935 163.556C415.496 163.558 416.049 163.678 416.561 163.908C419.607 165.373 420.554 171.444 420.135 174.373C420.135 174.534 419.704 176.16 419.392 177.333C419.704 176.709 420.049 176.052 420.339 175.438C421.416 173.145 422.331 170.971 423.084 169.044C423.515 167.967 423.87 166.89 424.161 165.986C423.569 164.963 421.265 160.776 421.039 158.45C420.813 156.125 421.179 153.294 422.934 151.679C423.333 151.286 423.811 150.981 424.336 150.785C424.861 150.588 425.422 150.505 425.981 150.539C426.541 150.574 427.087 150.726 427.584 150.985C428.081 151.244 428.517 151.606 428.865 152.045C430.889 154.747 428.962 160.528 427.218 162.983C427.068 163.198 424.322 166.212 424.29 166.212V166.148C423.989 167.063 423.666 168.032 423.278 169.097C422.568 171.046 421.739 173.242 420.673 175.557C419.546 178.081 418.278 180.54 416.873 182.92C415.305 185.587 413.504 188.109 411.49 190.456L411.415 190.532C412.254 190.015 414.644 188.648 414.849 188.561C417.626 187.366 423.677 186.699 425.894 189.24C426.251 189.672 426.513 190.175 426.663 190.715C426.813 191.255 426.847 191.821 426.764 192.376C426.681 192.93 426.482 193.461 426.18 193.933C425.878 194.406 425.48 194.809 425.011 195.118C423.063 196.496 420.145 196.194 417.992 195.548C415.57 194.784 411.533 191.091 411.167 190.801C409.061 193.14 406.803 195.338 404.406 197.378C403.017 198.573 401.575 199.736 400.1 200.888C400.843 200.468 401.51 200.091 401.607 200.048C404.374 198.853 410.424 198.186 412.642 200.726C413 201.158 413.264 201.661 413.415 202.201C413.565 202.742 413.6 203.308 413.517 203.863C413.433 204.418 413.234 204.949 412.931 205.422C412.628 205.894 412.229 206.297 411.759 206.604C409.821 207.982 406.893 207.681 404.751 207.035C402.608 206.389 399.023 203.267 398.098 202.438C397.527 202.88 397.021 203.321 396.407 203.752C393.705 205.829 391.025 207.886 388.387 209.985C387.472 210.728 386.6 211.481 385.717 212.246L387.031 211.514C389.797 210.329 395.848 209.651 398.065 212.203C398.424 212.634 398.687 213.137 398.838 213.677C398.989 214.218 399.024 214.784 398.94 215.339C398.857 215.894 398.657 216.425 398.354 216.898C398.051 217.37 397.652 217.773 397.183 218.08C395.234 219.458 392.317 219.157 390.174 218.5C388.032 217.844 384.791 215.034 383.715 214.065C382.843 214.862 381.96 215.669 381.153 216.487C380.604 217.058 380.076 217.564 379.538 218.177L377.988 219.932C377.051 221.073 376.071 222.247 375.178 223.388C374.553 224.185 373.972 224.949 373.391 225.713C374.284 224.97 376.093 223.56 376.254 223.442C378.806 221.838 384.695 220.266 387.268 222.441C387.685 222.815 388.018 223.273 388.246 223.785C388.475 224.297 388.593 224.851 388.593 225.412C388.593 225.972 388.475 226.527 388.246 227.038C388.018 227.55 387.685 228.009 387.268 228.383C385.545 230.041 382.617 230.213 380.399 229.869C377.945 229.492 373.509 226.639 372.96 226.241C371.991 227.511 371.065 228.76 370.204 229.944C367.222 234.067 364.897 237.62 363.304 240.117C363.304 240.214 363.196 240.29 363.142 240.376L361.075 239.375L361.398 238.879C363.067 236.393 365.5 232.862 368.6 228.76C369.58 227.457 370.646 226.101 371.754 224.701C370.6 223.446 369.522 222.123 368.525 220.74C366.146 221.665 361.215 221.698 360.569 221.698C360.472 223.302 360.386 224.852 360.321 226.316C360.106 231.408 360.128 235.65 360.181 238.61V238.955L357.91 237.878C357.91 234.929 358.028 230.945 358.33 226.23C358.427 224.615 358.567 222.882 358.728 221.106C358.093 220.955 352.958 219.631 351.02 218.08C349.265 216.681 347.414 214.399 347.478 212.02C347.472 211.458 347.585 210.902 347.809 210.388C348.033 209.873 348.363 209.412 348.778 209.033C349.192 208.655 349.682 208.369 350.215 208.194C350.748 208.018 351.312 207.957 351.871 208.015C355.219 208.445 358.028 213.839 358.577 216.81C358.577 216.982 358.75 218.963 358.814 220.137C358.89 219.415 358.943 218.716 359.03 217.984C359.17 216.509 359.363 215.045 359.568 213.462C359.686 212.709 359.815 211.933 359.934 211.158C360.052 210.383 360.257 209.587 360.418 208.801C360.827 206.96 361.323 205.119 361.872 203.278C360.58 203.149 356.004 202.61 354.034 201.48C352.064 200.35 349.911 198.39 349.621 196.022C349.53 195.469 349.558 194.902 349.702 194.36C349.846 193.818 350.102 193.313 350.455 192.877C350.808 192.441 351.248 192.084 351.748 191.831C352.248 191.577 352.796 191.431 353.356 191.404C356.726 191.317 360.321 196.227 361.312 199.079C361.376 199.252 361.861 201.372 362.098 202.546C362.442 201.469 362.765 200.339 363.174 199.23C364.251 196 365.467 192.846 366.652 189.649C367.018 188.669 367.362 187.689 367.728 186.71C367.265 186.71 361.807 186.15 359.611 184.88C357.662 183.803 355.488 181.79 355.186 179.422C355.098 178.868 355.127 178.303 355.271 177.762C355.416 177.22 355.673 176.715 356.025 176.28C356.377 175.844 356.817 175.488 357.316 175.233C357.815 174.979 358.363 174.832 358.922 174.803C362.302 174.717 365.898 179.637 366.888 182.479C366.964 182.694 367.653 185.709 367.793 186.538C368.568 184.384 369.332 182.231 369.946 180.078C370.855 177.171 371.574 174.208 372.099 171.207C371.884 171.207 366.189 170.669 363.939 169.377C361.979 168.247 359.805 166.277 359.514 163.908C359.424 163.355 359.452 162.789 359.596 162.247C359.739 161.705 359.996 161.199 360.349 160.763C360.701 160.328 361.142 159.971 361.642 159.717C362.142 159.463 362.69 159.318 363.25 159.29C366.619 159.204 370.215 164.124 371.205 166.966C371.27 167.149 371.808 169.485 372.034 170.594H372.217C372.662 167.561 372.835 164.495 372.734 161.432C372.734 159.753 372.573 158.138 372.411 156.577C371.335 156.577 366.447 156.577 364.294 155.651C362.141 154.725 359.848 153.025 359.288 150.71C359.139 150.168 359.106 149.6 359.191 149.044C359.276 148.488 359.478 147.957 359.782 147.484C360.087 147.012 360.489 146.609 360.96 146.302C361.431 145.995 361.962 145.791 362.518 145.704C365.866 145.252 369.978 149.741 371.281 152.454C371.345 152.605 371.905 154.187 372.282 155.35C372.207 154.639 372.131 153.918 372.034 153.197C371.701 150.667 371.227 148.374 370.796 146.339C370.538 145.187 370.29 144.186 370.043 143.185C368.966 142.647 364.746 140.44 363.304 138.642C361.861 136.844 360.569 134.271 361.15 131.956C361.274 131.413 361.509 130.901 361.843 130.453C362.176 130.006 362.599 129.634 363.084 129.36C363.57 129.086 364.108 128.917 364.663 128.864C365.218 128.81 365.778 128.874 366.307 129.05Z" fill="#D71635"/>
<path d="M427.326 181.09C424.688 180.983 419.413 178.27 419.413 178.27C419.413 178.27 422.244 175.341 422.449 175.169C424.807 173.296 430.469 171.046 433.279 172.919C433.738 173.241 434.125 173.656 434.412 174.138C434.7 174.619 434.883 175.156 434.949 175.712C435.015 176.269 434.963 176.834 434.796 177.369C434.628 177.904 434.35 178.398 433.979 178.819C432.461 180.66 429.576 181.176 427.326 181.09Z" fill="#D71635"/>
<g opacity="0.5">
<path d="M372.842 156.093C372.778 156.093 373.596 152.077 373.671 151.787C374.597 148.923 378.085 143.928 381.455 143.928C382.016 143.945 382.566 144.08 383.072 144.324C383.577 144.568 384.025 144.916 384.387 145.344C384.75 145.772 385.018 146.272 385.175 146.811C385.332 147.349 385.374 147.915 385.298 148.471C385.051 150.839 382.919 152.863 380.992 154.026C378.731 155.436 372.842 156.093 372.842 156.093Z" fill="white"/>
<path d="M366.307 129.05C369.483 130.191 371.065 136.069 370.958 139.083C370.958 139.342 370.355 143.389 370.301 143.389H370.237C370.484 144.315 370.753 145.306 371.022 146.404C371.496 148.428 372.013 150.71 372.411 153.251C372.873 155.972 373.175 158.719 373.315 161.476C373.487 164.565 373.383 167.663 373.003 170.734C372.999 170.77 372.999 170.806 373.003 170.841C373.423 169.948 374.672 167.483 374.78 167.3C376.437 164.781 381.11 160.84 384.372 161.777C384.907 161.94 385.402 162.215 385.825 162.582C386.247 162.95 386.587 163.402 386.823 163.91C387.059 164.418 387.184 164.97 387.192 165.53C387.2 166.09 387.09 166.645 386.869 167.16C386.008 169.388 383.424 170.766 381.26 171.391C378.817 172.08 373.369 171.261 372.939 171.197C372.477 174.31 371.808 177.388 370.936 180.412C370.434 182.178 369.888 183.94 369.3 185.698C369.677 184.934 370.032 184.255 370.086 184.169C371.744 181.65 376.427 177.71 379.678 178.646C380.213 178.81 380.709 179.084 381.131 179.452C381.553 179.819 381.893 180.272 382.129 180.78C382.365 181.288 382.491 181.84 382.499 182.4C382.507 182.96 382.397 183.515 382.175 184.029C381.314 186.247 378.73 187.636 376.567 188.249C374.403 188.863 369.709 188.249 368.482 188.099L367.803 190.112C366.727 193.341 365.554 196.571 364.574 199.736C364.219 200.813 363.906 201.975 363.594 203.095C363.939 202.417 364.229 201.846 364.283 201.771C365.941 199.241 370.613 195.311 373.864 196.248C374.4 196.412 374.895 196.686 375.318 197.054C375.74 197.421 376.081 197.873 376.318 198.381C376.554 198.888 376.681 199.44 376.691 200C376.7 200.56 376.592 201.116 376.373 201.631C375.512 203.849 372.917 205.237 370.753 205.851C368.589 206.465 364.359 205.926 362.894 205.722C362.604 206.874 362.324 208.036 362.098 209.167C361.958 209.942 361.775 210.674 361.678 211.471L361.355 213.774C361.204 215.249 361.032 216.767 360.924 218.21C360.838 219.222 360.774 220.18 360.709 221.138C361.054 220.061 361.786 217.833 361.839 217.661C363.035 215.294 364.813 213.271 367.007 211.783C367.129 211.511 367.276 211.251 367.448 211.008C367.753 210.537 368.154 210.137 368.624 209.832C369.094 209.527 369.623 209.324 370.177 209.238C370.731 209.152 371.297 209.183 371.838 209.33C372.378 209.478 372.882 209.737 373.315 210.093C375.878 212.299 375.232 218.35 374.058 221.127C373.994 221.289 373.036 222.99 372.422 224.045C372.885 223.474 373.315 222.968 373.8 222.344C374.736 221.192 375.705 220.072 376.739 218.866L378.321 217.155C378.838 216.573 379.463 216.024 380.033 215.443C381.379 214.14 382.811 212.881 384.285 211.654C383.284 210.825 379.753 207.853 378.741 205.829C377.729 203.806 377.008 200.974 378.063 198.832C378.295 198.321 378.632 197.864 379.052 197.492C379.472 197.12 379.965 196.84 380.501 196.671C381.036 196.503 381.601 196.449 382.158 196.513C382.716 196.578 383.254 196.759 383.736 197.045C386.589 198.832 386.88 204.914 386.137 207.81C386.137 207.993 385.319 210.039 384.878 211.148C385.771 210.405 386.654 209.673 387.58 208.994C390.25 206.938 393.016 204.936 395.762 202.923L398.27 201.06C397.915 200.77 393.652 197.325 392.51 195.053C391.509 193.04 390.777 190.198 391.832 188.066C392.063 187.554 392.399 187.097 392.819 186.723C393.238 186.35 393.732 186.069 394.267 185.9C394.802 185.73 395.368 185.675 395.926 185.739C396.484 185.802 397.022 185.983 397.506 186.268C400.369 188.066 400.649 194.138 399.906 197.034C399.852 197.249 398.744 200.178 398.431 200.91C400.262 199.542 402.081 198.164 403.814 196.733C406.17 194.804 408.4 192.725 410.489 190.51C410.327 190.381 405.86 186.796 404.697 184.481C403.685 182.468 402.964 179.626 404.019 177.484C404.25 176.973 404.585 176.517 405.004 176.145C405.423 175.772 405.915 175.492 406.449 175.323C406.983 175.153 407.547 175.098 408.104 175.16C408.661 175.223 409.198 175.402 409.681 175.686C412.545 177.484 412.836 183.566 412.093 186.451C412.039 186.645 411.199 188.884 410.779 189.929C410.829 189.971 410.883 190.007 410.941 190.036C412.983 187.75 414.817 185.285 416.421 182.673C417.325 181.252 418.1 179.831 418.832 178.442C417.928 177.861 413.848 175.212 412.566 173.188C411.285 171.164 410.317 168.548 411.124 166.309C411.298 165.776 411.582 165.286 411.959 164.871C412.335 164.455 412.794 164.123 413.307 163.897C413.82 163.67 414.374 163.554 414.935 163.556C415.496 163.558 416.049 163.678 416.561 163.908C419.607 165.373 420.554 171.444 420.135 174.373C420.135 174.534 419.704 176.16 419.392 177.333C419.704 176.709 420.049 176.052 420.339 175.438C421.416 173.145 422.331 170.971 423.084 169.044C423.515 167.967 423.87 166.891 424.161 165.986C423.569 164.964 421.265 160.776 421.039 158.45C420.813 156.125 421.179 153.294 422.934 151.679C423.333 151.286 423.811 150.981 424.336 150.785C424.861 150.588 425.422 150.505 425.981 150.539C426.541 150.574 427.087 150.726 427.584 150.985C428.081 151.244 428.517 151.606 428.865 152.045C430.889 154.747 428.962 160.528 427.218 162.983C427.068 163.198 424.322 166.212 424.29 166.212V166.148C423.989 167.063 423.666 168.032 423.278 169.097C422.568 171.046 421.739 173.242 420.673 175.557C419.546 178.081 418.278 180.54 416.873 182.92C415.305 185.587 413.504 188.109 411.49 190.456L411.415 190.532C412.254 190.015 414.644 188.648 414.849 188.562C417.626 187.367 423.677 186.699 425.894 189.24C426.251 189.672 426.513 190.175 426.663 190.715C426.813 191.255 426.847 191.821 426.764 192.376C426.681 192.93 426.482 193.461 426.18 193.933C425.878 194.406 425.48 194.809 425.011 195.118C423.063 196.496 420.145 196.194 417.992 195.548C415.57 194.784 411.533 191.091 411.167 190.801C409.061 193.14 406.803 195.338 404.406 197.378C403.017 198.573 401.575 199.736 400.1 200.888C400.843 200.468 401.51 200.091 401.607 200.048C404.374 198.853 410.424 198.186 412.642 200.727C413 201.158 413.264 201.661 413.415 202.201C413.565 202.742 413.6 203.308 413.517 203.863C413.433 204.418 413.234 204.949 412.931 205.422C412.628 205.894 412.229 206.297 411.759 206.605C409.821 207.983 406.893 207.681 404.751 207.035C402.608 206.389 399.023 203.267 398.098 202.438C397.527 202.88 397.021 203.321 396.407 203.752C393.705 205.829 391.025 207.886 388.387 209.985C387.472 210.728 386.6 211.481 385.717 212.246L387.031 211.514C389.797 210.329 395.848 209.651 398.065 212.203C398.424 212.634 398.687 213.137 398.838 213.677C398.989 214.218 399.024 214.784 398.94 215.339C398.857 215.894 398.657 216.425 398.354 216.898C398.051 217.37 397.652 217.773 397.183 218.081C395.234 219.459 392.317 219.157 390.174 218.5C388.032 217.844 384.791 215.034 383.715 214.065C382.843 214.862 381.96 215.669 381.153 216.487C380.604 217.058 380.076 217.564 379.538 218.177L377.988 219.932C377.051 221.073 376.071 222.247 375.178 223.388C374.553 224.185 373.972 224.949 373.391 225.713C374.284 224.971 376.093 223.56 376.254 223.442C378.806 221.838 384.695 220.266 387.268 222.441C387.685 222.815 388.018 223.273 388.246 223.785C388.475 224.297 388.593 224.851 388.593 225.412C388.593 225.972 388.475 226.527 388.246 227.039C388.018 227.55 387.685 228.009 387.268 228.383C385.545 230.041 382.617 230.213 380.399 229.869C377.945 229.492 373.509 226.639 372.96 226.241C371.991 227.511 371.065 228.76 370.204 229.944C367.222 234.067 364.897 237.62 363.304 240.118C363.304 240.214 363.196 240.29 363.142 240.376L361.075 239.375L361.398 238.88C363.067 236.393 365.5 232.862 368.6 228.76C369.58 227.457 370.646 226.101 371.754 224.701C370.6 223.446 369.522 222.123 368.525 220.74C366.146 221.665 361.215 221.698 360.569 221.698C360.472 223.302 360.386 224.852 360.321 226.316C360.106 231.408 360.128 235.65 360.181 238.61V238.955L357.91 237.878C357.91 234.929 358.028 230.945 358.33 226.23C358.427 224.615 358.567 222.882 358.728 221.106C358.093 220.955 352.958 219.631 351.02 218.081C349.265 216.681 347.414 214.399 347.478 212.02C347.472 211.458 347.585 210.902 347.809 210.388C348.033 209.873 348.363 209.412 348.778 209.034C349.192 208.655 349.682 208.369 350.215 208.194C350.748 208.018 351.312 207.957 351.871 208.015C355.219 208.445 358.028 213.839 358.577 216.81C358.577 216.982 358.75 218.963 358.814 220.137C358.89 219.415 358.943 218.716 359.03 217.984C359.17 216.509 359.363 215.045 359.568 213.462C359.686 212.709 359.815 211.933 359.934 211.158C360.052 210.383 360.257 209.587 360.418 208.801C360.827 206.96 361.323 205.119 361.872 203.278C360.58 203.149 356.004 202.611 354.034 201.48C352.064 200.35 349.911 198.39 349.621 196.022C349.53 195.469 349.558 194.902 349.702 194.36C349.846 193.818 350.102 193.313 350.455 192.877C350.808 192.441 351.248 192.085 351.748 191.831C352.248 191.577 352.796 191.431 353.356 191.404C356.726 191.317 360.321 196.227 361.312 199.079C361.376 199.252 361.861 201.372 362.098 202.546C362.442 201.469 362.765 200.339 363.174 199.23C364.251 196.001 365.467 192.846 366.652 189.649C367.018 188.669 367.362 187.69 367.728 186.71C367.265 186.71 361.807 186.15 359.611 184.88C357.662 183.803 355.488 181.79 355.186 179.422C355.098 178.868 355.127 178.303 355.271 177.762C355.416 177.22 355.673 176.716 356.025 176.28C356.377 175.844 356.817 175.488 357.316 175.233C357.815 174.979 358.363 174.832 358.922 174.803C362.302 174.717 365.898 179.637 366.888 182.479C366.964 182.694 367.653 185.709 367.793 186.538C368.568 184.385 369.332 182.231 369.946 180.078C370.855 177.171 371.574 174.208 372.099 171.208C371.884 171.208 366.189 170.669 363.939 169.377C361.979 168.247 359.805 166.277 359.514 163.908C359.424 163.355 359.452 162.789 359.596 162.247C359.739 161.705 359.996 161.199 360.349 160.764C360.701 160.328 361.142 159.971 361.642 159.717C362.142 159.463 362.69 159.318 363.25 159.29C366.619 159.204 370.215 164.124 371.205 166.966C371.27 167.149 371.808 169.485 372.034 170.594H372.217C372.662 167.562 372.835 164.496 372.734 161.432C372.734 159.753 372.573 158.138 372.411 156.577C371.335 156.577 366.447 156.577 364.294 155.651C362.141 154.726 359.848 153.025 359.288 150.71C359.139 150.168 359.106 149.6 359.191 149.044C359.276 148.488 359.478 147.957 359.782 147.484C360.087 147.012 360.489 146.609 360.96 146.302C361.431 145.995 361.962 145.791 362.518 145.704C365.866 145.252 369.978 149.741 371.281 152.454C371.345 152.605 371.905 154.187 372.282 155.35C372.207 154.639 372.131 153.918 372.034 153.197C371.701 150.667 371.227 148.374 370.796 146.339C370.538 145.187 370.29 144.186 370.043 143.185C368.966 142.647 364.746 140.44 363.304 138.642C361.861 136.844 360.569 134.271 361.15 131.956C361.274 131.413 361.509 130.901 361.843 130.453C362.176 130.006 362.599 129.634 363.084 129.36C363.57 129.086 364.108 128.917 364.663 128.864C365.218 128.81 365.778 128.874 366.307 129.05Z" fill="white"/>
<path d="M427.327 181.09C424.689 180.983 419.414 178.27 419.414 178.27C419.414 178.27 422.245 175.341 422.45 175.169C424.808 173.296 430.47 171.046 433.28 172.919C433.739 173.241 434.126 173.656 434.413 174.138C434.701 174.619 434.884 175.156 434.95 175.712C435.016 176.269 434.964 176.834 434.797 177.369C434.629 177.904 434.351 178.398 433.98 178.819C432.462 180.66 429.577 181.176 427.327 181.09Z" fill="white"/>
</g>
<path d="M396.526 247.137C396.526 247.137 380.518 208.553 371.561 210.232C362.604 211.912 386.923 271.747 386.923 271.747C386.923 271.747 358.761 218.619 339.555 218.619C320.35 218.619 346.596 277.334 370.926 296.906C370.926 296.906 332.515 255.523 310.112 264.48C287.709 273.437 354.95 315.368 354.95 315.368C354.95 315.368 315.903 303.063 320.382 312.569C324.86 322.075 337.025 323.755 337.025 323.755L292.887 325.994H446.457L411.889 322.635C411.889 322.635 447.738 304.743 438.135 297.465C428.532 290.188 407.41 305.852 407.41 305.852C407.41 305.852 443.895 265.589 436.854 250.495C429.813 235.402 398.443 277.894 398.443 277.894C398.443 277.894 424.054 223.657 418.897 214.14C413.74 204.624 396.526 247.137 396.526 247.137Z" fill="#D71635"/>
<path opacity="0.4" d="M396.526 247.137C396.526 247.137 380.518 208.553 371.561 210.232C362.604 211.912 386.923 271.747 386.923 271.747C386.923 271.747 358.761 218.619 339.555 218.619C320.35 218.619 346.596 277.334 370.926 296.906C370.926 296.906 332.515 255.523 310.112 264.48C287.709 273.437 354.95 315.368 354.95 315.368C354.95 315.368 315.903 303.063 320.382 312.569C324.86 322.075 337.025 323.755 337.025 323.755L292.887 325.994H446.457L411.889 322.635C411.889 322.635 447.738 304.743 438.135 297.465C428.532 290.188 407.41 305.852 407.41 305.852C407.41 305.852 443.895 265.589 436.854 250.495C429.813 235.402 398.443 277.894 398.443 277.894C398.443 277.894 424.054 223.657 418.897 214.14C413.74 204.624 396.526 247.137 396.526 247.137Z" fill="white"/>
<path d="M401.651 249.171C387.569 290.78 387.569 320.224 387.569 320.224C387.569 320.224 404.213 320.87 421.491 308.069" stroke="#263238" stroke-linecap="round" stroke-linejoin="round"/>
<path d="M394.61 271.574C391.704 259.136 387.85 246.939 383.08 235.09" stroke="#263238" stroke-linecap="round" stroke-linejoin="round"/>
<path d="M353.001 247.255L388.839 300.383C388.839 300.383 413.169 279.928 421.491 268.377" stroke="#263238" stroke-linecap="round" stroke-linejoin="round"/>
<path d="M388.205 313.183C388.205 313.183 350.44 295.259 335.077 285.021" stroke="#263238" stroke-linecap="round" stroke-linejoin="round"/>
<path d="M149.005 54.1003L140.21 40.0621H62.7412V54.1003V59.1493V292.696H381.616V54.1003H149.005Z" fill="#263238"/>
<path d="M379.517 60.5381H65.1104V287.604H379.517V60.5381Z" fill="white"/>
<mask id="mask0_255_2103" style="mask-type:luminance" maskUnits="userSpaceOnUse" x="65" y="60" width="315" height="228">
<path d="M379.518 60.5381H65.1113V287.604H379.518V60.5381Z" fill="white"/>
</mask>
<g mask="url(#mask0_255_2103)">
<path opacity="0.17" d="M381.057 58.5895H373.758V289.327H381.057V58.5895Z" fill="black"/>
<path opacity="0.17" d="M381.057 198.1H373.758V287.453H381.057V198.1Z" fill="black"/>
<path d="M379.927 57.4699H63.8623V69.818H379.927V57.4699Z" fill="#D71635" stroke="#263238" stroke-miterlimit="10"/>
</g>
<path d="M379.517 60.5381H65.1104V287.604H379.517V60.5381Z" stroke="#263238" stroke-linecap="round" stroke-linejoin="round"/>
<g opacity="0.17">
<path d="M228.918 81.7246H206.924C206.67 81.7246 206.418 81.6745 206.183 81.5771C205.947 81.4797 205.734 81.337 205.554 81.157C205.374 80.9771 205.231 80.7635 205.134 80.5284C205.036 80.2933 204.986 80.0413 204.986 79.7868C204.985 79.5314 205.034 79.2783 205.131 79.042C205.228 78.8056 205.37 78.5907 205.55 78.4096C205.73 78.2286 205.944 78.0848 206.18 77.9868C206.416 77.8887 206.669 77.8383 206.924 77.8383H228.918C229.173 77.8383 229.426 77.8887 229.662 77.9868C229.898 78.0848 230.112 78.2286 230.292 78.4096C230.472 78.5907 230.615 78.8056 230.711 79.042C230.808 79.2783 230.857 79.5314 230.856 79.7868C230.856 80.0413 230.806 80.2933 230.708 80.5284C230.611 80.7635 230.468 80.9771 230.288 81.157C230.108 81.337 229.895 81.4797 229.66 81.5771C229.425 81.6745 229.173 81.7246 228.918 81.7246Z" fill="black"/>
<path d="M272.906 81.7247H250.912C250.399 81.7218 249.908 81.5168 249.545 81.154C249.183 80.7912 248.977 80.2999 248.975 79.7869C248.975 79.2719 249.178 78.7779 249.542 78.4128C249.905 78.0477 250.397 77.8412 250.912 77.8383H272.906C273.423 77.8383 273.919 78.0436 274.284 78.409C274.65 78.7745 274.855 79.2701 274.855 79.7869C274.852 80.3018 274.646 80.7947 274.28 81.1578C273.915 81.5209 273.421 81.7247 272.906 81.7247Z" fill="black"/>
<path d="M316.904 81.7247H294.91C294.396 81.7247 293.902 81.5209 293.536 81.1578C293.171 80.7947 292.965 80.3018 292.962 79.7869C292.962 79.2701 293.167 78.7745 293.533 78.409C293.898 78.0436 294.394 77.8383 294.91 77.8383H316.904C317.419 77.8412 317.912 78.0477 318.275 78.4128C318.638 78.7779 318.842 79.2719 318.842 79.7869C318.839 80.2999 318.634 80.7912 318.272 81.154C317.909 81.5168 317.417 81.7218 316.904 81.7247Z" fill="black"/>
<path d="M360.893 81.7247H338.899C338.644 81.7247 338.392 81.6746 338.157 81.5772C337.922 81.4798 337.708 81.337 337.529 81.1571C337.349 80.9772 337.206 80.7636 337.108 80.5284C337.011 80.2933 336.961 80.0413 336.961 79.7869C336.96 79.5315 337.009 79.2784 337.105 79.042C337.202 78.8057 337.345 78.5908 337.525 78.4097C337.705 78.2286 337.919 78.0849 338.155 77.9868C338.391 77.8888 338.643 77.8383 338.899 77.8383H360.893C361.408 77.8412 361.9 78.0477 362.264 78.4128C362.627 78.7779 362.831 79.2719 362.83 79.7869C362.828 80.2999 362.623 80.7912 362.26 81.154C361.897 81.5168 361.406 81.7218 360.893 81.7247Z" fill="black"/>
</g>
<path d="M94.8223 174.405H128.055" stroke="#263238" stroke-width="3" stroke-linecap="round" stroke-linejoin="round"/>
<path d="M127.464 179.583H131.092" stroke="#263238" stroke-linecap="round" stroke-linejoin="round"/>
<path d="M106.654 179.583H125.268" stroke="#263238" stroke-linecap="round" stroke-linejoin="round"/>
<path d="M92.2822 179.583H104.684" stroke="#263238" stroke-linecap="round" stroke-linejoin="round"/>
<path d="M115.847 184.761H131.091" stroke="#263238" stroke-linecap="round" stroke-linejoin="round"/>
<path d="M107.525 184.761H113.446" stroke="#263238" stroke-linecap="round" stroke-linejoin="round"/>
<path d="M92.2822 184.761H104.899" stroke="#263238" stroke-linecap="round" stroke-linejoin="round"/>
<path d="M100.518 189.929H131.092" stroke="#263238" stroke-linecap="round" stroke-linejoin="round"/>
<path d="M92.2822 189.929H97.6758" stroke="#263238" stroke-linecap="round" stroke-linejoin="round"/>
<path d="M123.523 195.107H131.092" stroke="#263238" stroke-linecap="round" stroke-linejoin="round"/>
<path d="M109.065 195.107H120.886" stroke="#263238" stroke-linecap="round" stroke-linejoin="round"/>
<path d="M92.2822 195.107H106.654" stroke="#263238" stroke-linecap="round" stroke-linejoin="round"/>
<path d="M104.899 200.285H131.092" stroke="#263238" stroke-linecap="round" stroke-linejoin="round"/>
<path d="M92.2822 200.285H102.488" stroke="#263238" stroke-linecap="round" stroke-linejoin="round"/>
<path d="M170.611 174.405H203.844" stroke="#263238" stroke-width="3" stroke-linecap="round" stroke-linejoin="round"/>
<path d="M203.253 179.583H206.881" stroke="#263238" stroke-linecap="round" stroke-linejoin="round"/>
<path d="M182.442 179.583H201.056" stroke="#263238" stroke-linecap="round" stroke-linejoin="round"/>
<path d="M168.071 179.583H180.473" stroke="#263238" stroke-linecap="round" stroke-linejoin="round"/>
<path d="M191.637 184.761H206.881" stroke="#263238" stroke-linecap="round" stroke-linejoin="round"/>
<path d="M183.314 184.761H189.235" stroke="#263238" stroke-linecap="round" stroke-linejoin="round"/>
<path d="M168.071 184.761H180.688" stroke="#263238" stroke-linecap="round" stroke-linejoin="round"/>
<path d="M176.307 189.929H206.881" stroke="#263238" stroke-linecap="round" stroke-linejoin="round"/>
<path d="M168.071 189.929H173.465" stroke="#263238" stroke-linecap="round" stroke-linejoin="round"/>
<path d="M199.312 195.107H206.881" stroke="#263238" stroke-linecap="round" stroke-linejoin="round"/>
<path d="M184.854 195.107H196.675" stroke="#263238" stroke-linecap="round" stroke-linejoin="round"/>
<path d="M168.071 195.107H182.443" stroke="#263238" stroke-linecap="round" stroke-linejoin="round"/>
<path d="M180.688 200.285H206.881" stroke="#263238" stroke-linecap="round" stroke-linejoin="round"/>
<path d="M168.071 200.285H178.277" stroke="#263238" stroke-linecap="round" stroke-linejoin="round"/>
<path d="M246.4 174.405H279.634" stroke="#263238" stroke-width="3" stroke-linecap="round" stroke-linejoin="round"/>
<path d="M279.042 179.583H282.67" stroke="#263238" stroke-linecap="round" stroke-linejoin="round"/>
<path d="M258.231 179.583H276.845" stroke="#263238" stroke-linecap="round" stroke-linejoin="round"/>
<path d="M243.86 179.583H256.262" stroke="#263238" stroke-linecap="round" stroke-linejoin="round"/>
<path d="M267.426 184.761H282.67" stroke="#263238" stroke-linecap="round" stroke-linejoin="round"/>
<path d="M259.104 184.761H265.026" stroke="#263238" stroke-linecap="round" stroke-linejoin="round"/>
<path d="M243.86 184.761H256.478" stroke="#263238" stroke-linecap="round" stroke-linejoin="round"/>
<path d="M252.096 189.929H282.67" stroke="#263238" stroke-linecap="round" stroke-linejoin="round"/>
<path d="M243.86 189.929H249.254" stroke="#263238" stroke-linecap="round" stroke-linejoin="round"/>
<path d="M275.102 195.107H282.67" stroke="#263238" stroke-linecap="round" stroke-linejoin="round"/>
<path d="M260.644 195.107H272.464" stroke="#263238" stroke-linecap="round" stroke-linejoin="round"/>
<path d="M243.86 195.107H258.232" stroke="#263238" stroke-linecap="round" stroke-linejoin="round"/>
<path d="M256.478 200.285H282.67" stroke="#263238" stroke-linecap="round" stroke-linejoin="round"/>
<path d="M243.86 200.285H254.066" stroke="#263238" stroke-linecap="round" stroke-linejoin="round"/>
<path d="M322.19 174.405H355.424" stroke="#263238" stroke-width="3" stroke-linecap="round" stroke-linejoin="round"/>
<path d="M354.832 179.583H358.46" stroke="#263238" stroke-linecap="round" stroke-linejoin="round"/>
<path d="M334.021 179.583H352.634" stroke="#263238" stroke-linecap="round" stroke-linejoin="round"/>
<path d="M319.649 179.583H332.051" stroke="#263238" stroke-linecap="round" stroke-linejoin="round"/>
<path d="M343.215 184.761H358.459" stroke="#263238" stroke-linecap="round" stroke-linejoin="round"/>
<path d="M334.894 184.761H340.815" stroke="#263238" stroke-linecap="round" stroke-linejoin="round"/>
<path d="M319.649 184.761H332.267" stroke="#263238" stroke-linecap="round" stroke-linejoin="round"/>
<path d="M327.885 189.929H358.459" stroke="#263238" stroke-linecap="round" stroke-linejoin="round"/>
<path d="M319.649 189.929H325.043" stroke="#263238" stroke-linecap="round" stroke-linejoin="round"/>
<path d="M350.891 195.107H358.459" stroke="#263238" stroke-linecap="round" stroke-linejoin="round"/>
<path d="M336.434 195.107H348.254" stroke="#263238" stroke-linecap="round" stroke-linejoin="round"/>
<path d="M319.649 195.107H334.021" stroke="#263238" stroke-linecap="round" stroke-linejoin="round"/>
<path d="M332.267 200.285H358.459" stroke="#263238" stroke-linecap="round" stroke-linejoin="round"/>
<path d="M319.649 200.285H329.855" stroke="#263238" stroke-linecap="round" stroke-linejoin="round"/>
<path d="M368.697 157.729H75.875V97.3238H368.697V157.729Z" fill="#D71635"/>
<path opacity="0.7" d="M368.697 157.729H75.875V97.3238H368.697V157.729Z" fill="white"/>
<path d="M294.597 157.729H150.027V97.3238H294.597V157.729Z" fill="#D71635"/>
<path opacity="0.92" d="M294.597 157.729H150.027V97.3238H294.597V157.729Z" fill="white"/>
<path d="M265.057 114.828H274.907" stroke="#263238" stroke-linecap="round" stroke-linejoin="round"/>
<path d="M208.667 114.828H259.125" stroke="#263238" stroke-linecap="round" stroke-linejoin="round"/>
<path d="M169.719 114.828H203.318" stroke="#263238" stroke-linecap="round" stroke-linejoin="round"/>
<path d="M233.601 120.007H274.908" stroke="#263238" stroke-linecap="round" stroke-linejoin="round"/>
<path d="M211.036 120.007H227.066" stroke="#263238" stroke-linecap="round" stroke-linejoin="round"/>
<path d="M169.719 120.007H203.921" stroke="#263238" stroke-linecap="round" stroke-linejoin="round"/>
<path d="M192.046 125.185H274.908" stroke="#263238" stroke-linecap="round" stroke-linejoin="round"/>
<path d="M169.719 125.185H184.328" stroke="#263238" stroke-linecap="round" stroke-linejoin="round"/>
<path d="M254.378 130.363H274.908" stroke="#263238" stroke-linecap="round" stroke-linejoin="round"/>
<path d="M215.192 130.363H247.252" stroke="#263238" stroke-linecap="round" stroke-linejoin="round"/>
<path d="M169.719 130.363H208.668" stroke="#263238" stroke-linecap="round" stroke-linejoin="round"/>
<path d="M203.921 135.531H274.909" stroke="#263238" stroke-linecap="round" stroke-linejoin="round"/>
<path d="M169.719 135.531H197.386" stroke="#263238" stroke-linecap="round" stroke-linejoin="round"/>
<path d="M368.697 286.851H75.875V226.445H368.697V286.851Z" fill="#D71635"/>
<path opacity="0.7" d="M368.697 286.851H75.875V226.445H368.697V286.851Z" fill="white"/>
<mask id="mask1_255_2103" style="mask-type:luminance" maskUnits="userSpaceOnUse" x="305" y="201" width="66" height="87">
<path d="M370.958 201.922H305.945V287.227H370.958V201.922Z" fill="white"/>
</mask>
<g mask="url(#mask1_255_2103)">
<path d="M334.043 249.43C334.043 249.43 316.894 256.32 314.202 257.17C311.511 258.021 311.35 259.183 311.35 262.876C311.35 266.568 311.856 283.223 311.856 284.568C311.856 285.914 311.683 288.433 311.683 288.433H367.869C367.869 288.433 364.165 273.361 361.98 266.245C359.794 259.129 360.806 258.505 356.942 256.158C353.077 253.811 342.946 250.442 340.793 249.936C338.561 249.585 336.303 249.416 334.043 249.43Z" fill="#263238" stroke="#263238" stroke-linecap="round" stroke-linejoin="round"/>
<path d="M334.883 247.578C334.883 247.578 330.846 247.244 329.166 250.614C327.487 253.983 323.45 261.832 323.45 261.832L328.327 264.857L322.653 267.753C323.601 271.906 324.78 276.003 326.184 280.025C327.161 282.665 328.283 285.249 329.543 287.766C329.543 287.766 337.725 278.518 340.955 275.654C343.084 273.617 344.847 271.228 346.165 268.592L341.967 264.727L349.201 263.888C349.201 263.888 347.349 254.479 344.992 250.614C342.634 246.749 334.883 247.578 334.883 247.578Z" fill="#263238" stroke="#263238" stroke-linecap="round" stroke-linejoin="round"/>
<path d="M326.626 280.133C326.927 280.973 327.25 281.769 327.563 282.469" stroke="white" stroke-width="0.5" stroke-linecap="round" stroke-linejoin="round"/>
<path d="M327.239 254.802L323.45 261.832L328.327 264.857L323.105 267.817C323.105 267.817 324.322 273.125 325.851 277.883" stroke="white" stroke-width="0.5" stroke-linecap="round" stroke-linejoin="round"/>
<path d="M346.338 251.615L349.169 263.888L341.935 264.727L346.133 268.592C346.133 268.592 338.059 278.055 334.711 281.877" stroke="white" stroke-width="0.5" stroke-linecap="round" stroke-linejoin="round"/>
<path d="M356.909 270.444L353.884 289.111" stroke="white" stroke-width="0.5" stroke-linecap="round" stroke-linejoin="round"/>
<path d="M315.386 267.085C315.386 267.085 315.053 278.346 315.214 281.877C315.348 284.115 315.801 286.323 316.56 288.433" stroke="white" stroke-width="0.5" stroke-linecap="round" stroke-linejoin="round"/>
<path d="M346.488 274.987L349.341 271.122L351.699 274.987H346.488Z" fill="white" stroke="#263238" stroke-miterlimit="10"/>
<path d="M349.847 237.997C349.847 237.997 352.7 237.663 353.378 241.872C354.056 246.082 352.032 251.454 345.304 251.454C338.575 251.454 339.092 246.405 339.254 242.712C339.415 239.019 349.847 237.997 349.847 237.997Z" fill="#263238" stroke="#263238" stroke-miterlimit="10"/>
<path d="M333.203 244.897C333.203 244.897 333.031 249.763 332.697 255.318C332.363 260.873 329.672 268.431 329.672 274.815C329.649 278.352 329.818 281.889 330.178 285.408C330.178 285.408 335.722 274.643 338.241 268.431C340.76 262.219 343.624 244.219 343.624 244.219L333.203 244.897Z" fill="white" stroke="#263238" stroke-miterlimit="10"/>
<path d="M349.675 233.841C350.927 231.39 351.618 228.691 351.699 225.939C351.699 221.741 350.859 216.024 345.982 213.494C341.106 210.964 331.686 212.655 329.339 217.531C327.755 220.649 327.012 224.126 327.186 227.619C327.356 229.507 327.749 231.368 328.359 233.163C328.359 233.163 329.038 229.933 333.57 228.297C338.102 226.661 342.99 224.927 345.337 226.144C347.683 227.36 349.675 233.841 349.675 233.841Z" fill="#263238" stroke="#263238" stroke-linecap="round" stroke-linejoin="round"/>
<path d="M328.499 232.119C328.499 232.119 326.475 229.094 325.636 231.279C324.796 233.464 325.98 236.662 327.315 237.329C328.65 237.997 329.339 237.663 329.339 237.663L328.499 232.119Z" fill="white" stroke="#263238" stroke-linecap="round" stroke-linejoin="round"/>
<path d="M349.675 232.625C349.675 232.625 352.032 230.267 352.032 232.452C351.914 234.481 351.16 236.42 349.879 237.997C348.867 239.342 348.361 238.675 348.361 238.675L349.675 232.625Z" fill="white" stroke="#263238" stroke-linecap="round" stroke-linejoin="round"/>
<path d="M345.681 222.947L347.35 218.242C347.415 218.058 347.405 217.855 347.321 217.678C347.237 217.502 347.087 217.366 346.903 217.3C346.719 217.234 346.516 217.245 346.339 217.328C346.163 217.412 346.026 217.563 345.961 217.747L344.561 221.676C343.089 221.328 341.561 221.284 340.071 221.547C338.58 221.81 337.16 222.374 335.895 223.205C331.524 226.069 327.993 228.588 327.993 228.588C327.993 228.588 328.165 238.169 330.006 241.7C331.847 245.231 335.055 249.43 337.747 249.43C340.438 249.43 345.143 243.552 346.994 241.7C348.846 239.848 350.019 232.625 350.019 230.267C350.019 228.577 347.242 224.895 345.681 222.947Z" fill="white" stroke="#263238" stroke-miterlimit="10"/>
<path d="M339.059 266.138C336.329 266.385 333.577 266.017 331.007 265.061C330.237 268.285 329.79 271.578 329.672 274.89C329.649 278.428 329.818 281.964 330.178 285.483C330.178 285.483 335.722 274.718 338.241 268.506C338.51 267.774 338.801 266.967 339.059 266.138Z" fill="#D71635" stroke="#263238" stroke-miterlimit="10"/>
</g>
<mask id="mask2_255_2103" style="mask-type:luminance" maskUnits="userSpaceOnUse" x="229" y="201" width="66" height="87">
<path d="M294.76 201.922H229.747V287.227H294.76V201.922Z" fill="white"/>
</mask>
<g mask="url(#mask2_255_2103)">
<path d="M259.601 240.505C255.312 240.992 251.054 241.71 246.843 242.658C241.924 243.929 239.555 244.478 239.555 246.846C239.555 249.214 239.006 259.42 237.402 263.985C235.798 268.549 233.936 275.105 233.936 277.474C233.936 279.842 237.402 289.865 237.402 289.865H243.775C243.775 289.865 241.407 278.195 241.407 277.108C241.407 276.021 244.69 266.342 244.69 266.342L244.873 290.22H278.246L277.891 267.43C277.891 267.43 280.798 276.731 280.798 278.367C280.798 280.004 279.721 290.769 279.721 290.769H286.051C286.051 290.769 289.152 278.927 288.969 274.729C288.786 270.53 285.739 257.224 285.33 253.198C284.921 249.171 287.332 246.997 282.962 244.262C278.591 241.528 268.557 239.891 266.372 239.708C264.094 239.753 261.826 240.02 259.601 240.505Z" fill="#D71635" stroke="#263238" stroke-miterlimit="10"/>
<path d="M244.658 266.396L245.207 257.278L243.194 250.356" stroke="#263238" stroke-linecap="round" stroke-linejoin="round"/>
<path d="M277.837 255.824V267.483" stroke="#263238" stroke-linecap="round" stroke-linejoin="round"/>
<path d="M278.01 259.108L280.927 254.726" stroke="#263238" stroke-linecap="round" stroke-linejoin="round"/>
<path d="M262.702 252.907L261.614 289.908" stroke="#263238" stroke-linecap="round" stroke-linejoin="round"/>
<path d="M262.152 236.134C260.53 236.223 258.987 236.865 257.781 237.954C255.779 239.784 255.047 246.889 255.047 246.889C255.047 246.889 261.431 245.07 262.518 244.736C263.605 244.402 273.284 246.555 273.284 246.555C273.284 246.555 272.379 240.182 269.828 237.448C267.276 234.713 262.152 236.134 262.152 236.134Z" fill="#263238" stroke="#263238" stroke-linecap="round" stroke-linejoin="round"/>
<path d="M259.6 230.299C259.6 230.299 261.064 232.452 261.064 238.912C261.064 245.371 261.785 252.035 262.7 252.907C263.615 253.779 267.437 244.295 267.437 239.988C267.51 237.141 268.196 234.343 269.45 231.785C269.45 231.785 264.885 228.685 262.517 228.319C261.87 228.218 261.209 228.366 260.668 228.734C260.126 229.102 259.745 229.661 259.6 230.299Z" fill="white" stroke="#263238" stroke-linecap="round" stroke-linejoin="round"/>
<path d="M261.355 246.017C261.646 249.559 262.141 252.347 262.701 252.907C263.261 253.467 265.016 249.914 266.221 246.103C264.605 246.332 262.963 246.303 261.355 246.017Z" fill="#263238" stroke="#263238" stroke-linecap="round" stroke-linejoin="round"/>
<path d="M270.722 212.805C270.722 212.805 271.798 213.171 273.822 211.341C275.846 209.511 274.899 206.055 274.005 206.788C273.435 207.253 272.941 207.805 272.541 208.424C272.188 207.357 271.537 206.413 270.665 205.704C269.794 204.994 268.738 204.549 267.621 204.419C263.799 204.053 259.235 209.339 259.235 209.339C259.235 209.339 250.859 215.54 251.764 220.46C252.668 225.38 257.415 229.75 259.601 230.299C261.786 230.848 265.802 226.844 265.07 223.377C264.338 219.911 263.799 214.765 265.07 214.259C266.925 213.668 268.812 213.183 270.722 212.805Z" fill="#263238" stroke="#263238" stroke-linecap="round" stroke-linejoin="round"/>
<path d="M259.234 227.382C259.234 227.382 256.145 225.229 255.412 226.844C254.68 228.459 256.328 231.398 258.33 232.302C260.332 233.206 262.152 230.299 262.152 230.299C262.152 230.299 268.536 235.402 272.917 235.585C277.299 235.768 277.482 232.302 276.75 225.746C276.018 219.189 273.832 214.076 272.196 212.256C270.56 210.437 264.176 212.073 262.162 213.71C260.149 215.346 258.933 216.81 260.892 217.176C262.851 217.542 264.714 218.253 262.895 220.277C261.075 222.301 260.16 221.547 260.741 223.011C261.323 224.475 263.659 225.929 261.473 226.661L259.234 227.382Z" fill="white" stroke="#263238" stroke-linecap="round" stroke-linejoin="round"/>
</g>
<mask id="mask3_255_2103" style="mask-type:luminance" maskUnits="userSpaceOnUse" x="144" y="201" width="66" height="87">
<path d="M209.452 201.512H144.439V287.238H209.452V201.512Z" fill="white"/>
</mask>
<g mask="url(#mask3_255_2103)">
<path d="M179.127 237.071C179.127 237.071 156.153 239.805 155.443 241.808C154.732 243.81 146.335 263.339 147.605 265.137C148.876 266.935 151.438 267.29 153.44 267.29C154.858 267.163 156.2 266.59 157.273 265.653L151.438 290.414H193.725L195.006 273.092C195.006 273.092 199.926 275.246 203.209 274.923C206.493 274.6 205.761 272.005 205.028 267.085C204.296 262.165 203.952 249.581 202.66 247.212C201.368 244.844 185.887 238.277 185.887 238.277L179.127 237.071Z" fill="#263238" stroke="#263238" stroke-linecap="round" stroke-linejoin="round"/>
<path d="M195.35 266.762V255.459L196.254 253.273" stroke="white" stroke-linecap="round" stroke-linejoin="round"/>
<path d="M158.521 257.278L160.351 249.624L159.985 247.987" stroke="white" stroke-linecap="round" stroke-linejoin="round"/>
<path d="M163.322 291.189C163.322 291.189 166.778 276.236 168.425 266.945C170.072 257.655 176.93 237.071 176.93 237.071L187.512 239.988C187.512 239.988 180.396 260.766 178.577 269.701C176.758 278.637 175.229 291.297 175.229 291.297L163.322 291.189Z" fill="#D71635" stroke="#263238" stroke-miterlimit="10"/>
<path d="M178.395 234.918C178.395 234.918 175.294 234.918 174.196 237.071C173.098 239.224 171.645 247.643 171.645 247.643C171.645 247.643 178.211 244.725 178.761 244.725C179.31 244.725 181.861 244.908 183.131 246.362C184.402 247.815 187.147 251.282 187.147 251.282C187.147 251.282 191.335 244.542 190.247 240.172C189.875 238.731 189.057 237.445 187.911 236.496C186.765 235.547 185.348 234.983 183.863 234.886L178.395 234.918Z" fill="#D71635" stroke="#263238" stroke-miterlimit="10"/>
<path d="M177.318 230.117C177.318 230.117 176.952 242.885 177.318 246.523C177.684 250.162 178.233 251.077 178.233 251.077C178.233 251.077 181.333 245.974 182.238 244.155C183.142 242.335 185.887 240.322 187.168 238.686C188.449 237.05 189.321 230.849 189.321 230.849C189.321 230.849 184.585 234.498 182.033 233.583C180.228 232.785 178.619 231.601 177.318 230.117Z" fill="white" stroke="#263238" stroke-linecap="round" stroke-linejoin="round"/>
<path d="M184.854 207.046C181.754 207.498 178.729 209.048 177.857 212.074C177.124 214.625 176.78 223.011 176.586 227.199C176.392 231.387 178.589 236.683 180.408 237.233C181.927 237.771 183.561 237.898 185.145 237.599C186.06 237.233 190.258 231.581 191.346 230.483C192.433 229.384 195.716 219.179 195.716 215.54C195.797 213.745 195.289 211.973 194.271 210.493C193.253 209.012 191.78 207.904 190.075 207.337C188.375 206.875 186.596 206.776 184.854 207.046Z" fill="white" stroke="#263238" stroke-linecap="round" stroke-linejoin="round"/>
<path d="M193.885 224.152C193.885 224.152 196.803 221.59 196.038 224.874C195.803 225.855 195.356 226.772 194.727 227.561C194.098 228.35 193.304 228.991 192.399 229.438L193.885 224.152Z" fill="white" stroke="#263238" stroke-linecap="round" stroke-linejoin="round"/>
<path d="M176.93 220.643C176.93 220.643 174.777 218.641 174.777 221.375C174.861 223.165 175.5 224.885 176.607 226.295L176.93 220.643Z" fill="white" stroke="#263238" stroke-linecap="round" stroke-linejoin="round"/>
<path d="M193.886 224.152C194.831 221.364 195.442 218.473 195.705 215.54C195.785 213.745 195.278 211.973 194.26 210.493C193.242 209.012 191.768 207.904 190.064 207.337C188.363 206.875 186.584 206.776 184.842 207.046C181.742 207.498 178.717 209.048 177.845 212.074C177.284 215.09 176.956 218.146 176.865 221.213C177.791 220.492 179.718 218.727 179.309 216.627C178.76 213.893 177.662 212.623 179.664 211.341C181.667 210.06 184.046 211.891 187.329 212.989C190.613 214.087 193.886 212.623 194.801 213.527C195.716 214.431 191.883 218.274 192.432 219.728C192.981 221.181 194.252 222.828 193.886 224.109V224.152Z" fill="#263238" stroke="#263238" stroke-linecap="round" stroke-linejoin="round"/>
<path d="M167.629 259.108C167.629 259.108 164.894 255.275 163.075 255.092C161.256 254.909 156.874 259.108 156.874 259.108H167.629Z" fill="white" stroke="#263238" stroke-linecap="round" stroke-linejoin="round"/>
<path d="M184.95 259.463H187.512L188.051 264.577L185.316 263.845L184.95 259.463Z" fill="white" stroke="#263238" stroke-linecap="round" stroke-linejoin="round"/>
<path d="M187.513 259.463L192.067 261.477L193.154 267.128L188.051 264.577L187.513 259.463Z" fill="white" stroke="#263238" stroke-linecap="round" stroke-linejoin="round"/>
<path d="M202.078 269.368L176.015 259.162C174.512 259.9 173.103 260.815 171.816 261.886C171.056 262.65 170.494 263.589 170.18 264.62C170.18 264.62 182.571 273.555 188.589 276.29C194.607 279.024 203.359 279.939 204.812 278.443C206.266 276.946 205.889 271.338 204.995 270.423C204.512 269.924 203.961 269.497 203.359 269.152" fill="#263238"/>
<path d="M202.078 269.368L176.015 259.162C174.512 259.9 173.103 260.815 171.816 261.886C171.056 262.65 170.494 263.589 170.18 264.62C170.18 264.62 182.571 273.555 188.589 276.29C194.607 279.024 203.359 279.939 204.812 278.443C206.266 276.946 205.889 271.338 204.995 270.423C204.512 269.924 203.961 269.497 203.359 269.152" stroke="#263238" stroke-linecap="round" stroke-linejoin="round"/>
<path d="M184.95 258.602L185.316 263.888C185.316 263.888 166.175 268.259 159.07 269.54C151.965 270.821 148.132 269.895 147.045 266.622C145.958 263.35 149.597 259.323 151.233 258.419C152.869 257.515 184.95 258.602 184.95 258.602Z" fill="#263238" stroke="#263238" stroke-linecap="round" stroke-linejoin="round"/>
</g>
<mask id="mask4_255_2103" style="mask-type:luminance" maskUnits="userSpaceOnUse" x="79" y="201" width="58" height="87">
<path d="M136.571 201.922H79.0078V287.227H136.571V201.922Z" fill="white"/>
</mask>
<g mask="url(#mask4_255_2103)">
<path d="M114.547 246.103C114.547 246.103 121.846 247.923 124.763 248.838C127.681 249.753 128.585 250.84 128.585 253.025C128.585 255.211 126.949 264.867 126.949 266.332V276.182C126.949 278.916 129.683 288.939 129.683 288.939H94.157C94.157 288.939 90.1523 273.631 87.4178 265.255C84.6834 256.879 84.3173 253.951 87.0518 252.67C93.5518 250.288 100.184 248.283 106.914 246.663C109.442 246.298 111.993 246.111 114.547 246.103Z" fill="#D71635" stroke="#263238" stroke-miterlimit="10"/>
<path d="M125.128 258.128C125.128 258.128 127.281 268.162 126.582 271.801C125.882 275.439 120.93 289.305 120.93 289.305" stroke="#263238" stroke-linecap="round" stroke-linejoin="round"/>
<path d="M87.0298 252.659C87.0298 252.659 83.8002 253.209 84.6614 257.407C85.5227 261.606 81.3779 288.745 81.3779 288.745H89.3982C89.3982 288.745 94.8671 274.341 95.7714 270.885C96.6757 267.43 97.4185 264.685 95.7714 261.767" fill="#D71635"/>
<path d="M87.0298 252.659C87.0298 252.659 83.8002 253.209 84.6614 257.407C85.5227 261.606 81.3779 288.745 81.3779 288.745H89.3982C89.3982 288.745 94.8671 274.341 95.7714 270.885C96.6757 267.43 97.4185 264.685 95.7714 261.767" stroke="#263238" stroke-miterlimit="10"/>
<path d="M120.995 228.351L122.19 265.481H111.414V231.548L120.995 228.351Z" fill="#263238" stroke="#263238" stroke-linecap="round" stroke-linejoin="round"/>
<path d="M107.075 255.039C107.075 255.039 110.175 269.034 111.456 273.265C112.738 277.495 112.91 287.26 112.533 288.573C112.156 289.887 117.087 288.573 117.087 288.573C117.087 288.573 118.368 278.884 119.1 273.265C119.832 267.645 117.636 257.041 117.636 257.041L115.267 247.74L106.332 249.387L107.075 255.039Z" fill="white" stroke="#263238" stroke-linecap="round" stroke-linejoin="round"/>
<path d="M114.88 239.719C114.372 242.621 114.434 245.594 115.063 248.472C116.14 252.487 119.079 259.775 116.527 261.778C113.976 263.78 110.51 262.693 108.69 259.043C106.871 255.394 105.224 246.286 105.224 238.815C105.224 231.344 105.956 230.063 108.507 230.063C111.059 230.063 114.88 239.719 114.88 239.719Z" fill="white" stroke="#263238" stroke-linecap="round" stroke-linejoin="round"/>
<path d="M109.627 236.264C107.987 237.689 106.059 238.743 103.975 239.353C101.24 239.902 99.7869 232.614 99.4209 225.358C99.0548 218.102 100.885 214.054 104.707 212.235C108.528 210.416 117.83 211.32 121.479 212.773C125.129 214.227 129.5 216.606 129.5 220.427C129.5 224.249 124.569 227.382 123.116 228.243C121.662 229.104 118.196 230.396 116.011 232.614C114.122 234.209 111.959 235.446 109.627 236.264Z" fill="#263238" stroke="#263238" stroke-linecap="round" stroke-linejoin="round"/>
<path d="M109.626 236.264C109.626 236.264 111.779 241.732 115.827 241.905C119.875 242.077 124.439 232.797 124.579 228.781C124.719 224.766 120.564 217.844 120.564 217.844C120.564 217.844 113.458 234.067 109.626 236.264Z" fill="white" stroke="#263238" stroke-linecap="round" stroke-linejoin="round"/>
<path d="M108.539 228.06L108.895 267.43H96.6865L99.421 221.676" fill="#263238"/>
<path d="M108.539 228.06L108.895 267.43H96.6865L99.421 221.676" stroke="#263238" stroke-linecap="round" stroke-linejoin="round"/>
</g>
</svg>
