<svg width="415" height="410" viewBox="0 0 415 410" fill="none" xmlns="http://www.w3.org/2000/svg">
<g clip-path="url(#clip0_374_291)">
<path fill-rule="evenodd" clip-rule="evenodd" d="M188.085 140.162C190.057 143.186 191.76 146.323 193.171 149.572L209.907 149.37L213.469 164.291L198.414 171.662C198.615 175.225 198.526 178.787 198.122 182.327L212.73 190.549L208.361 205.246L191.67 204.104C190.079 207.263 188.197 210.287 186.047 213.2L194.605 227.606L183.47 238.136L169.557 228.793C166.555 230.787 163.396 232.49 160.169 233.902L160.371 250.638L145.45 254.178L138.079 239.122C134.516 239.324 130.954 239.211 127.414 238.831L119.214 253.438L104.517 249.047L105.66 232.356C102.501 230.765 99.4536 228.883 96.5635 226.732L82.1575 235.291L71.6274 224.133L80.9476 210.22C78.976 207.196 77.2733 204.059 75.8618 200.833L59.1258 201.034L55.5635 186.091L70.6192 178.72C70.4176 175.18 70.5072 171.595 70.9105 168.055L56.3028 159.855L60.6717 145.158L77.3629 146.278C78.9536 143.142 80.8356 140.095 82.964 137.204L74.428 122.776L85.5629 112.246L99.476 121.589C102.478 119.617 105.615 117.914 108.863 116.503L108.662 99.7667L123.561 96.2044L130.954 111.26C134.494 111.058 138.079 111.17 141.619 111.574L149.819 96.9437L164.516 101.335L163.373 118.049C166.532 119.639 169.557 121.521 172.469 123.65L186.876 115.114L197.406 126.271L188.085 140.162ZM163.216 148.048C148.228 132.208 123.225 131.491 107.407 146.48C91.5673 161.468 90.8728 186.449 105.861 202.311C120.827 218.151 145.831 218.868 161.671 203.88C177.488 188.914 178.183 163.91 163.216 148.048Z" fill="#F0F0F0"/>
<path fill-rule="evenodd" clip-rule="evenodd" d="M145.45 254.693C145.27 254.693 145.091 254.581 145.002 254.402L137.787 239.637C134.427 239.816 131.021 239.727 127.683 239.368L119.662 253.685C119.55 253.886 119.304 253.976 119.08 253.909L104.382 249.54C104.158 249.473 104.001 249.249 104.024 249.025L105.122 232.647C102.164 231.146 99.2742 229.354 96.5184 227.337L82.4037 235.716C82.202 235.828 81.9556 235.806 81.7988 235.627L71.2463 224.469C71.0895 224.313 71.0671 224.044 71.2015 223.842L80.3425 210.22C78.5053 207.352 76.8698 204.373 75.5255 201.326L59.1255 201.527C58.9015 201.527 58.6999 201.37 58.6327 201.146L55.0704 186.225C55.0255 185.979 55.1376 185.755 55.3392 185.643L70.0813 178.428C69.9244 175.068 70.0141 171.685 70.3725 168.324L56.0561 160.281C55.8545 160.169 55.7425 159.922 55.8097 159.698L60.201 145.001C60.2682 144.777 60.4698 144.643 60.7163 144.643L77.0714 145.763C78.5725 142.805 80.3649 139.915 82.3813 137.16L73.9796 123.045C73.8676 122.843 73.9124 122.574 74.0693 122.417L85.2266 111.887C85.3835 111.731 85.6523 111.708 85.8316 111.82L99.4758 120.984C102.321 119.146 105.323 117.511 108.348 116.167L108.146 99.7667C108.146 99.5426 108.303 99.3186 108.527 99.2738L123.448 95.7339C123.673 95.6667 123.919 95.7787 124.009 96.0027L131.245 110.745C134.606 110.588 137.989 110.678 141.327 111.036L149.37 96.7197C149.482 96.4956 149.729 96.406 149.953 96.4732L164.65 100.864C164.874 100.932 165.031 101.133 165.009 101.38L163.911 117.735C166.846 119.258 169.736 121.051 172.492 123.067L186.606 114.688C186.808 114.554 187.077 114.598 187.234 114.755L197.786 125.913C197.943 126.092 197.965 126.338 197.831 126.54L188.668 140.162C190.527 143.03 192.163 146.032 193.507 149.056L209.907 148.855C210.131 148.877 210.333 149.034 210.4 149.258L213.94 164.179C214.007 164.403 213.895 164.65 213.671 164.739L198.929 171.976C199.108 175.337 199.018 178.72 198.66 182.058L212.976 190.101C213.178 190.213 213.29 190.46 213.223 190.684L208.832 205.381C208.764 205.605 208.563 205.762 208.316 205.739L191.961 204.619C190.46 207.576 188.668 210.467 186.651 213.222L195.03 227.36C195.165 227.561 195.12 227.808 194.941 227.964L183.806 238.517C183.649 238.674 183.38 238.696 183.179 238.562L169.557 229.398C166.689 231.258 163.709 232.871 160.685 234.215L160.886 250.615C160.886 250.862 160.729 251.063 160.483 251.108L145.584 254.67C145.539 254.685 145.494 254.693 145.45 254.693ZM138.079 238.629C138.28 238.629 138.459 238.741 138.527 238.898L145.741 253.595L159.878 250.234L159.676 233.902C159.676 233.7 159.788 233.521 159.968 233.431C163.149 232.042 166.286 230.339 169.288 228.368C169.445 228.278 169.669 228.278 169.848 228.39L183.403 237.509L193.977 227.516L185.621 213.446C185.509 213.29 185.531 213.066 185.643 212.909C187.771 210.019 189.653 206.972 191.222 203.88C191.311 203.701 191.491 203.589 191.692 203.611L207.98 204.709L212.147 190.796L197.876 182.775C197.697 182.685 197.607 182.484 197.629 182.282C198.01 178.787 198.122 175.225 197.921 171.685C197.898 171.483 198.01 171.304 198.189 171.214L212.887 164.022L209.504 149.885L193.171 150.064C192.992 150.064 192.79 149.952 192.723 149.773C191.311 146.569 189.609 143.433 187.659 140.453C187.547 140.274 187.547 140.05 187.659 139.893L196.778 126.316L186.786 115.741L172.716 124.098C172.559 124.187 172.335 124.187 172.178 124.053C169.288 121.925 166.263 120.065 163.149 118.497C162.97 118.407 162.858 118.205 162.88 118.004L163.978 101.716L150.042 97.5486L142.044 111.82C141.955 111.977 141.753 112.089 141.551 112.067C138.056 111.663 134.494 111.574 130.976 111.775C130.775 111.775 130.573 111.663 130.483 111.484L123.292 96.7869L109.155 100.148L109.356 116.48C109.356 116.682 109.244 116.884 109.065 116.951C105.861 118.34 102.724 120.043 99.7447 122.014C99.5654 122.126 99.3638 122.126 99.1846 122.014L85.6075 112.896L75.0551 122.866L83.4119 136.936C83.5015 137.115 83.5015 137.339 83.3671 137.496C81.2611 140.363 79.3791 143.41 77.8108 146.525C77.7212 146.704 77.5419 146.793 77.3179 146.793L61.0299 145.673L56.8851 159.609L71.1567 167.63C71.3359 167.719 71.4255 167.921 71.4031 168.122C71.0223 171.617 70.9102 175.18 71.1119 178.697C71.1119 178.899 71.0223 179.101 70.8206 179.19L56.1458 186.382L59.5288 200.519L75.8392 200.317C76.0632 200.317 76.2425 200.452 76.3097 200.631C77.6988 203.813 79.4015 206.949 81.3731 209.951C81.4851 210.108 81.4851 210.332 81.3731 210.511L72.2545 224.089L82.2469 234.641L96.2944 226.307C96.4736 226.195 96.6977 226.217 96.8545 226.329C99.7447 228.457 102.769 230.339 105.883 231.908C106.063 231.997 106.175 232.176 106.152 232.378L105.055 248.689L118.968 252.833L126.988 238.584C127.078 238.405 127.28 238.293 127.481 238.338C130.976 238.719 134.539 238.831 138.056 238.629C138.071 238.629 138.079 238.629 138.079 238.629ZM134.561 215.194C134.173 215.194 133.792 215.187 133.418 215.172C122.732 214.88 112.806 210.422 105.48 202.67C90.3124 186.628 91.0294 161.267 107.048 146.121C114.8 138.795 124.95 134.919 135.614 135.21C146.301 135.524 156.226 139.96 163.552 147.734C178.698 163.754 178.003 189.115 161.984 204.261C154.523 211.34 144.822 215.194 134.561 215.194ZM134.471 136.196C124.479 136.196 115.024 139.96 107.721 146.861C92.1272 161.625 91.4326 186.36 106.197 201.975C113.367 209.548 123.023 213.872 133.441 214.163C143.836 214.455 153.739 210.691 161.289 203.544C176.905 188.779 177.6 164.045 162.835 148.407C155.666 140.856 146.01 136.51 135.592 136.219C135.218 136.204 134.845 136.196 134.471 136.196Z" fill="black"/>
<path fill-rule="evenodd" clip-rule="evenodd" d="M283.617 56.347C285.387 58.1169 287.023 59.9765 288.434 61.9705L299.726 59.3716L304.341 68.9383L295.245 76.1301C295.895 78.5273 296.365 80.947 296.612 83.3891L307.702 86.7945L306.918 97.3918L295.447 99.0721C294.842 101.447 294.013 103.777 293.005 106.062L300.913 114.531L294.931 123.314L284.133 119.034C282.385 120.804 280.525 122.44 278.531 123.874L281.153 135.143L271.586 139.758L264.372 130.662C261.997 131.312 259.555 131.76 257.113 132.029L253.707 143.119L243.133 142.313L241.43 130.842C239.077 130.237 236.747 129.408 234.462 128.377L225.971 136.286L217.211 130.304L221.468 119.505C219.698 117.757 218.062 115.898 216.628 113.904L205.359 116.503L200.743 106.936L209.84 99.7443C209.19 97.347 208.719 94.9273 208.473 92.4852L197.383 89.0798L198.167 78.4825L209.638 76.8022C210.243 74.4273 211.072 72.0973 212.08 69.812L204.171 61.3432L210.153 52.5607L220.952 56.8399C222.7 55.0699 224.559 53.4344 226.553 52.0005L223.932 40.7311L233.499 36.1158L240.713 45.212C243.088 44.5623 245.53 44.1142 247.972 43.8454L251.377 32.7552L261.952 33.5618L263.655 45.0328C266.007 45.6377 268.337 46.4667 270.623 47.4973L279.114 39.5885L287.874 45.5705L283.617 56.347ZM267.957 65.3536C255.477 56.8399 238.472 60.0437 229.981 72.523C221.468 84.9798 224.671 101.985 237.151 110.498C249.63 119.012 266.612 115.808 275.126 103.351C283.64 90.8945 280.413 73.8896 267.957 65.3536Z" fill="#F0F0F0"/>
<path fill-rule="evenodd" clip-rule="evenodd" d="M253.707 143.612C253.707 143.612 253.7 143.612 253.685 143.612L243.088 142.805C242.864 142.783 242.662 142.604 242.639 142.38L240.982 131.245C238.831 130.662 236.658 129.901 234.552 128.982L226.307 136.644C226.15 136.823 225.881 136.823 225.702 136.711L216.919 130.707C216.718 130.573 216.65 130.326 216.74 130.102L220.885 119.639C219.249 118.026 217.748 116.279 216.426 114.486L205.471 116.996C205.247 117.04 205 116.928 204.911 116.727L200.295 107.16C200.183 106.936 200.25 106.69 200.43 106.533L209.257 99.5426C208.674 97.3694 208.249 95.1066 208.002 92.8661L197.226 89.5503C197.002 89.4831 196.845 89.259 196.867 89.035L197.674 78.4377C197.696 78.2137 197.876 78.012 198.1 77.9896L209.235 76.3541C209.795 74.1809 210.556 72.0301 211.497 69.924L203.813 61.6792C203.656 61.5 203.633 61.2536 203.768 61.0519L209.75 52.2918C209.884 52.0902 210.131 52.0229 210.355 52.0902L220.818 56.2574C222.431 54.6219 224.178 53.1208 225.971 51.7989L223.461 40.8432C223.394 40.5967 223.506 40.3727 223.73 40.2607L233.297 35.6678C233.499 35.5781 233.767 35.623 233.902 35.8022L240.892 44.6519C243.088 44.0694 245.328 43.6437 247.591 43.3973L250.884 32.6208C250.952 32.3967 251.176 32.2399 251.4 32.2623L261.997 33.0689C262.221 33.0913 262.423 33.2705 262.445 33.4945L264.103 44.6295C266.254 45.212 268.427 45.9738 270.533 46.8923L278.755 39.2301C278.935 39.0508 279.203 39.0508 279.383 39.1628L288.165 45.1672C288.367 45.3016 288.434 45.5481 288.344 45.7721L284.2 56.235C285.835 57.8481 287.336 59.5956 288.658 61.388L299.614 58.8787C299.838 58.8339 300.084 58.9459 300.174 59.1475L304.789 68.7142C304.879 68.9383 304.834 69.1847 304.655 69.3415L295.827 76.3317C296.41 78.5273 296.836 80.7678 297.082 83.0082L307.859 86.324C308.083 86.3913 308.217 86.6153 308.217 86.8393L307.411 97.4366C307.388 97.6606 307.209 97.8623 306.985 97.8847L295.85 99.5202C295.267 101.693 294.528 103.844 293.587 105.95L301.272 114.195C301.429 114.374 301.451 114.621 301.317 114.822L295.335 123.583C295.2 123.784 294.954 123.851 294.73 123.784L284.267 119.617C282.631 121.252 280.906 122.754 279.114 124.075L281.623 135.031C281.69 135.278 281.578 135.502 281.354 135.614L271.788 140.207C271.586 140.296 271.317 140.251 271.183 140.05L264.17 131.222C261.997 131.805 259.756 132.231 257.494 132.477L254.2 143.254C254.133 143.478 253.931 143.612 253.707 143.612ZM243.558 141.842L253.349 142.581L256.62 131.872C256.687 131.67 256.866 131.536 257.068 131.514C259.488 131.267 261.885 130.819 264.237 130.169C264.439 130.125 264.641 130.192 264.753 130.349L271.72 139.131L280.57 134.874L278.038 123.986C277.994 123.784 278.083 123.583 278.24 123.448C280.189 122.059 282.049 120.446 283.774 118.676C283.931 118.542 284.132 118.497 284.334 118.564L294.73 122.686L300.264 114.598L292.624 106.398C292.489 106.242 292.467 106.04 292.534 105.838C293.542 103.598 294.371 101.268 294.976 98.9601C295.021 98.7585 295.178 98.6016 295.379 98.5792L306.447 96.9437L307.186 87.1754L296.477 83.882C296.276 83.8148 296.141 83.6579 296.119 83.4563C295.872 81.0366 295.402 78.6169 294.752 76.2645C294.707 76.0852 294.774 75.8612 294.931 75.7492L303.714 68.8038L299.457 59.9541L288.568 62.441C288.367 62.4858 288.165 62.4186 288.031 62.2617C286.642 60.3126 285.029 58.453 283.259 56.7055C283.124 56.571 283.079 56.3694 283.147 56.1678L287.269 45.7721L279.159 40.2383L270.959 47.8557C270.824 47.9902 270.6 48.035 270.421 47.9454C268.158 46.9372 265.85 46.1082 263.52 45.5033C263.319 45.4585 263.184 45.3016 263.162 45.1L261.526 34.0322L251.736 33.2929L248.465 44.0022C248.397 44.2038 248.218 44.3383 248.017 44.3607C245.597 44.6071 243.2 45.0552 240.847 45.7049C240.646 45.7497 240.444 45.6825 240.309 45.5257L233.364 36.7432L224.514 41L227.024 51.8885C227.068 52.0902 227.001 52.2918 226.844 52.4262C224.895 53.8153 223.036 55.4284 221.311 57.1984C221.154 57.3328 220.952 57.3776 220.75 57.3104L210.355 53.188L204.821 61.276L212.461 69.476C212.595 69.6328 212.618 69.8344 212.55 70.0361C211.542 72.2765 210.713 74.6066 210.108 76.9142C210.064 77.1158 209.907 77.2727 209.705 77.2951L198.637 78.9306L197.898 88.6989L208.607 91.9923C208.809 92.0596 208.943 92.2164 208.966 92.418C209.212 94.8377 209.683 97.2574 210.332 99.6098C210.377 99.7891 210.31 100.013 210.153 100.125L201.371 107.07L205.627 115.92L216.516 113.433C216.718 113.366 216.919 113.456 217.054 113.613C218.443 115.562 220.056 117.421 221.826 119.146C221.96 119.303 222.005 119.505 221.938 119.707L217.815 130.102L225.926 135.636L234.126 128.019C234.26 127.884 234.484 127.839 234.664 127.929C236.926 128.937 239.234 129.766 241.564 130.371C241.766 130.416 241.9 130.573 241.923 130.774L243.558 141.842ZM252.497 115.786C246.964 115.786 241.542 114.128 236.859 110.924C224.178 102.276 220.907 84.9126 229.555 72.2317C233.745 66.0929 240.063 61.9705 247.367 60.5814C254.671 59.2148 262.086 60.7607 268.225 64.9503C280.906 73.6208 284.177 90.9617 275.529 103.643C271.34 109.781 265.021 113.926 257.718 115.293C255.97 115.629 254.223 115.786 252.497 115.786ZM252.587 61.0967C250.907 61.0967 249.226 61.2535 247.568 61.5672C240.511 62.8891 234.417 66.877 230.384 72.8142C222.05 85.0246 225.209 101.761 237.419 110.095C243.334 114.15 250.481 115.629 257.516 114.307C264.573 112.985 270.667 108.997 274.7 103.083C283.035 90.8721 279.876 74.1361 267.665 65.7792C263.139 62.7098 257.919 61.0967 252.587 61.0967Z" fill="black"/>
<path d="M166.844 347.38L135.971 367.409C135.941 367.424 135.911 367.432 135.882 367.432L59.4602 367.23C59.3482 367.23 59.281 367.14 59.3706 367.096L89.9974 347.223C90.0273 347.208 90.0572 347.201 90.087 347.201L166.755 347.245C166.867 347.245 166.912 347.335 166.844 347.38Z" fill="#F0F0F0"/>
<path fill-rule="evenodd" clip-rule="evenodd" d="M135.882 367.925L59.4607 367.745C59.1695 367.745 58.923 367.566 58.8558 367.297C58.7886 367.073 58.8782 366.804 59.1023 366.67L89.729 346.797C89.8411 346.73 89.9531 346.708 90.0875 346.708L166.755 346.752C167.024 346.752 167.271 346.909 167.36 347.178C167.427 347.402 167.338 347.671 167.114 347.805L136.241 367.813C136.151 367.88 136.016 367.925 135.882 367.925ZM60.8274 366.737L135.792 366.916L165.366 347.738L90.1771 347.716L60.8274 366.737Z" fill="black"/>
<path d="M166.912 347.268V388.357L136.263 408.252C136.128 408.342 135.949 408.275 135.949 408.163V367.432C135.949 367.432 166.464 347.268 166.912 347.268Z" fill="#D71635"/>
<path d="M135.95 408.297L59.2822 408.096L59.3494 367.275L135.95 367.432C135.95 367.432 135.95 408.364 135.95 408.297Z" fill="#F0F0F0"/>
<path fill-rule="evenodd" clip-rule="evenodd" d="M135.95 408.79C135.935 408.79 135.927 408.79 135.927 408.79L59.2819 408.611C58.9906 408.611 58.7666 408.387 58.7666 408.096L58.8338 367.275C58.8338 367.14 58.901 367.006 58.9906 366.916C59.0803 366.827 59.2147 366.782 59.3491 366.782L135.95 366.916C136.219 366.916 136.443 367.14 136.443 367.432V408.297C136.443 408.432 136.398 408.544 136.286 408.656C136.196 408.745 136.062 408.79 135.95 408.79ZM59.7748 407.603L135.434 407.782V367.925L59.842 367.79L59.7748 407.603Z" fill="black"/>
<path d="M279.943 271.586L249.114 291.503L163.709 291.324C163.619 291.324 163.575 291.257 163.642 291.212L194.358 271.362L279.808 271.407C279.965 271.407 280.055 271.519 279.943 271.586Z" fill="#F0F0F0"/>
<path fill-rule="evenodd" clip-rule="evenodd" d="M249.115 292.019C249.115 292.019 249.107 292.019 249.092 292.019L163.709 291.817C163.418 291.817 163.194 291.66 163.127 291.414C163.059 291.167 163.149 290.921 163.351 290.786L194.089 270.936C194.164 270.891 194.254 270.869 194.358 270.869L279.809 270.914C280.122 270.914 280.391 271.093 280.458 271.362C280.548 271.608 280.436 271.877 280.212 272.011L249.383 291.929C249.294 291.989 249.204 292.019 249.115 292.019ZM165.165 290.809L248.958 291.01L278.531 271.922L194.493 271.877L165.165 290.809Z" fill="black"/>
<path d="M280.077 271.429V388.335L249.338 408.208C249.249 408.252 249.114 408.208 249.114 408.14V291.503C249.114 291.503 279.629 271.451 280.077 271.429Z" fill="#D71635"/>
<path d="M249.114 408.32L163.597 408.14C163.776 408.252 163.664 291.369 163.664 291.369L249.114 291.503C249.114 291.503 249.114 408.409 249.114 408.32Z" fill="#F0F0F0"/>
<path fill-rule="evenodd" clip-rule="evenodd" d="M249.114 408.835C249.114 408.835 249.107 408.835 249.092 408.835L163.597 408.656C163.35 408.656 163.149 408.476 163.104 408.252C163.089 408.193 163.089 408.125 163.104 408.051C163.261 405.519 163.149 292.511 163.149 291.369C163.149 291.234 163.216 291.1 163.306 291.01C163.395 290.921 163.53 290.854 163.664 290.854L249.114 291.01C249.383 291.01 249.607 291.234 249.607 291.503V408.32C249.607 408.454 249.562 408.588 249.45 408.678C249.361 408.79 249.226 408.835 249.114 408.835ZM164.09 407.648L248.599 407.827V292.019L164.157 291.862C164.157 295.85 164.179 322.78 164.202 349.71C164.202 364.317 164.202 378.903 164.179 389.858C164.179 395.325 164.157 399.896 164.157 403.099C164.135 405.586 164.135 406.931 164.09 407.648Z" fill="black"/>
<path d="M222.543 397.655C222.386 397.655 222.207 397.566 222.118 397.409C221.961 397.185 222.028 396.871 222.274 396.714L230.049 391.696C230.295 391.539 230.586 391.606 230.743 391.852C230.9 392.076 230.833 392.39 230.609 392.547L222.812 397.566C222.722 397.625 222.633 397.655 222.543 397.655Z" fill="black"/>
<path d="M391.248 188.085L360.128 212.102L275.866 211.878C275.731 211.878 275.686 211.766 275.754 211.699L306.425 188.017L391.248 188.085Z" fill="#F0F0F0"/>
<path fill-rule="evenodd" clip-rule="evenodd" d="M360.128 212.617L275.865 212.393C275.574 212.393 275.328 212.214 275.26 211.968C275.171 211.721 275.26 211.452 275.462 211.296L306.111 187.637C306.201 187.569 306.313 187.525 306.425 187.525L391.248 187.569C391.472 187.569 391.651 187.704 391.718 187.905C391.808 188.107 391.741 188.354 391.561 188.466L360.442 212.505C360.352 212.573 360.24 212.617 360.128 212.617ZM276.985 211.385L359.971 211.609L389.791 188.578L306.582 188.533L276.985 211.385Z" fill="black"/>
<path d="M391.248 188.107V384.571L360.599 408.252C360.487 408.342 360.285 408.275 360.285 408.14V212.102C360.285 212.102 390.8 188.107 391.248 188.107Z" fill="#D71635"/>
<path d="M360.285 408.297L275.664 408.073C275.843 408.208 275.731 211.945 275.731 211.945L360.285 212.102C360.285 212.102 360.285 408.365 360.285 408.297Z" fill="#F0F0F0"/>
<path fill-rule="evenodd" clip-rule="evenodd" d="M360.285 408.79L275.664 408.566C275.417 408.566 275.216 408.409 275.171 408.163C275.156 408.103 275.148 408.043 275.148 407.984C275.328 404.914 275.216 213.872 275.216 211.945C275.216 211.811 275.283 211.677 275.372 211.587C275.462 211.497 275.597 211.43 275.731 211.43L360.285 211.609C360.554 211.609 360.778 211.833 360.778 212.102V408.297C360.778 408.432 360.733 408.544 360.644 408.633C360.554 408.745 360.419 408.79 360.285 408.79ZM276.179 407.558L359.77 407.782V212.617L276.224 212.438C276.224 217.726 276.246 263.834 276.269 309.964C276.269 334.475 276.269 358.985 276.246 377.379C276.246 386.587 276.224 394.25 276.224 399.604C276.201 402.293 276.201 404.399 276.179 405.855C276.179 406.639 276.179 407.177 276.179 407.558Z" fill="black"/>
<path d="M311.667 384.638C311.51 384.638 311.354 384.571 311.264 384.437C311.085 384.213 311.129 383.899 311.354 383.72L335.864 364.81C336.088 364.631 336.402 364.676 336.558 364.9C336.738 365.124 336.693 365.438 336.469 365.595L311.958 384.526C311.869 384.593 311.779 384.638 311.667 384.638Z" fill="black"/>
<path d="M310.793 370.389C310.637 370.389 310.502 370.322 310.39 370.187C310.233 369.963 310.278 369.65 310.48 369.47L318.277 363.466C318.501 363.309 318.814 363.332 318.971 363.556C319.15 363.78 319.106 364.093 318.881 364.273L311.107 370.277C311.018 370.344 310.905 370.389 310.793 370.389Z" fill="black"/>
<path d="M25.3629 379.082L23.2793 397.566L31.1432 400.859L34.0334 380.695L25.3629 379.082Z" fill="#F0F0F0"/>
<path fill-rule="evenodd" clip-rule="evenodd" d="M31.1429 401.352C31.0831 401.352 31.0159 401.337 30.9412 401.307L23.0773 398.036C22.8756 397.946 22.7636 397.745 22.786 397.521L24.8696 379.015C24.8696 378.88 24.9593 378.768 25.0713 378.679C25.1833 378.589 25.3177 378.567 25.4522 378.589L34.1226 380.202C34.3915 380.247 34.5707 380.493 34.5483 380.762L31.6358 400.926C31.6134 401.083 31.5237 401.217 31.3893 401.285C31.3146 401.329 31.2325 401.352 31.1429 401.352ZM23.8166 397.252L30.7396 400.142L33.4729 381.098L25.8106 379.664L23.8166 397.252Z" fill="black"/>
<path d="M21.4419 395.818C21.1955 397.588 20.7922 400.837 20.7698 403.749C20.7474 405.586 22.1141 407.132 23.9288 407.356C29.0818 408.006 40.7097 408.745 50.6348 407.827C51.3294 407.782 52.5168 407.289 52.8529 405.586C53.9731 399.896 44.0704 398.484 33.2042 394.362C32.7785 394.205 32.3081 394.295 31.972 394.608L30.807 395.751C29.6419 396.893 27.8944 397.207 26.3933 396.557L22.831 395.056C22.2261 394.787 21.5316 395.168 21.4419 395.818Z" fill="#F0F0F0"/>
<path fill-rule="evenodd" clip-rule="evenodd" d="M40.3061 408.768C33.6296 408.768 27.4011 408.32 23.8837 407.849C21.8 407.58 20.2317 405.81 20.2541 403.749C20.299 400.769 20.7022 397.476 20.9487 395.751C21.0159 395.28 21.2847 394.899 21.7104 394.653C22.1137 394.429 22.6066 394.407 23.0323 394.586L26.5946 396.109C27.9164 396.669 29.4175 396.378 30.4481 395.392L31.6356 394.25C32.0837 393.802 32.7782 393.667 33.3831 393.891C35.9148 394.855 38.3569 395.661 40.7093 396.423C48.3044 398.91 54.2864 400.881 53.3454 405.676C52.9869 407.491 51.6875 408.252 50.6793 408.342C47.3186 408.633 43.7563 408.768 40.3061 408.768ZM22.4498 395.46C22.3602 395.46 22.278 395.482 22.2033 395.527C22.0689 395.616 21.9569 395.751 21.9345 395.908C21.7104 397.588 21.3071 400.859 21.2623 403.749C21.2399 405.317 22.4274 406.662 23.9957 406.863C29.3055 407.535 40.7541 408.23 50.5897 407.334C50.8361 407.311 52.0459 407.132 52.3596 405.497C53.1438 401.554 47.7891 399.806 40.3957 397.386C38.0432 396.602 35.5787 395.796 33.0246 394.832C32.7782 394.743 32.5093 394.787 32.3301 394.967L31.1651 396.109C29.8432 397.386 27.894 397.745 26.1913 397.028L22.629 395.504C22.5693 395.474 22.5095 395.46 22.4498 395.46Z" fill="black"/>
<path d="M20.7698 403.301C20.7698 403.301 20.7698 403.615 20.7698 403.749C20.7474 405.586 22.1141 407.132 23.9288 407.356C29.0818 408.006 40.7097 408.745 50.6348 407.827C51.3294 407.782 52.5168 407.289 52.8529 405.586C52.9649 405.071 52.8977 404.13 52.8977 404.13L52.1807 404.152C42.166 404.668 32.1064 404.421 22.1365 403.435L20.7698 403.301Z" fill="#F0F0F0"/>
<path fill-rule="evenodd" clip-rule="evenodd" d="M40.3061 408.768C33.6296 408.768 27.4011 408.32 23.8837 407.849C21.8 407.58 20.2317 405.81 20.2541 403.749L20.2765 403.301C20.2765 403.167 20.3438 403.032 20.4334 402.943C20.5454 402.853 20.6798 402.786 20.8143 402.808L22.1809 402.943C32.1061 403.906 42.188 404.152 52.158 403.66L52.8749 403.637C53.1438 403.615 53.3678 403.816 53.3902 404.085C53.4126 404.197 53.4574 405.116 53.3454 405.676C52.9869 407.491 51.6875 408.252 50.6793 408.342C47.3186 408.633 43.7563 408.768 40.3061 408.768ZM21.2623 403.861C21.3071 405.385 22.4722 406.662 23.9957 406.863C29.3055 407.535 40.7541 408.23 50.5897 407.334C50.8361 407.311 52.0459 407.132 52.3596 405.497C52.4044 405.273 52.4044 404.937 52.4044 404.645L52.2252 404.668C42.188 405.161 32.0612 404.914 22.0689 403.951L21.2623 403.861Z" fill="black"/>
<path d="M35.6904 401.016C35.5784 401.016 35.444 400.971 35.3544 400.859C35.1527 400.68 35.1527 400.344 35.3544 400.164L39.1631 396.356C39.3423 396.154 39.6784 396.154 39.8576 396.356C40.0593 396.535 40.0593 396.871 39.8576 397.05L36.0489 400.859C35.9593 400.971 35.8248 401.016 35.6904 401.016Z" fill="black"/>
<path d="M39.455 401.419C39.3206 401.419 39.1862 401.374 39.0965 401.262C38.8949 401.083 38.8949 400.769 39.0741 400.568L42.1211 397.386C42.3228 397.207 42.6364 397.185 42.8381 397.386C43.0397 397.566 43.0397 397.902 42.8605 398.103L39.8135 401.262C39.7015 401.352 39.567 401.419 39.455 401.419Z" fill="black"/>
<path d="M53.9283 257.202C53.9283 257.202 49.1338 259.98 47.2742 276.291C45.3922 292.579 46.0196 311.779 33.0026 330.823C22.6294 346.036 23.5256 371.711 22.0245 388.537C21.9573 389.366 22.5846 390.06 23.3911 390.083L33.3611 390.419C33.9884 390.441 34.5485 390.06 34.7502 389.455C36.5425 383.944 45.3922 357.327 55.3398 341.913C65.8474 325.603 78.6403 283.281 78.6403 283.281C78.6403 283.281 76.2655 272.594 75.9294 262.333C75.5933 252.094 53.9283 257.202 53.9283 257.202Z" fill="black"/>
<path d="M108.617 332.817L104.405 350.942L111.844 355.109L117.041 335.416L108.617 332.817Z" fill="#F0F0F0"/>
<path fill-rule="evenodd" clip-rule="evenodd" d="M111.843 355.602C111.754 355.602 111.672 355.58 111.597 355.535L104.159 351.368C103.979 351.278 103.867 351.054 103.912 350.83L108.124 332.705C108.147 332.57 108.236 332.436 108.371 332.369C108.483 332.302 108.617 332.279 108.752 332.324L117.198 334.923C117.444 335.013 117.601 335.281 117.534 335.528L112.336 355.221C112.291 355.378 112.179 355.49 112.045 355.557C111.985 355.587 111.918 355.602 111.843 355.602ZM104.988 350.696L111.53 354.347L116.436 335.752L108.976 333.444L104.988 350.696Z" fill="black"/>
<path d="M103.509 349.867C103.263 351.614 101.695 354.952 101.672 357.865C101.65 359.702 103.016 361.226 104.831 361.472C109.962 362.122 122.799 362.772 132.702 361.875C133.397 361.808 134.584 361.315 134.92 359.635C136.04 353.922 126.138 352.533 115.272 348.41C114.846 348.254 114.375 348.343 114.039 348.657L112.874 349.799C111.709 350.92 109.962 351.256 108.461 350.606L104.898 349.082C104.293 348.836 103.621 349.217 103.509 349.867Z" fill="#F0F0F0"/>
<path fill-rule="evenodd" clip-rule="evenodd" d="M121.589 362.816C114.89 362.816 108.371 362.435 104.764 361.965C102.68 361.696 101.134 359.926 101.156 357.865C101.179 355.938 101.829 353.877 102.366 352.219C102.68 351.233 102.926 350.404 103.016 349.799C103.083 349.329 103.352 348.926 103.778 348.702C104.181 348.455 104.674 348.433 105.1 348.634L108.662 350.136C109.984 350.696 111.507 350.427 112.538 349.419L113.703 348.298C114.173 347.85 114.846 347.693 115.45 347.94C118.005 348.903 120.424 349.687 122.777 350.472C130.372 352.958 136.376 354.93 135.413 359.725C135.054 361.539 133.755 362.279 132.747 362.368C129.319 362.682 125.42 362.816 121.589 362.816ZM104.517 349.508C104.428 349.508 104.345 349.531 104.271 349.575C104.136 349.643 104.047 349.777 104.024 349.934C103.912 350.628 103.643 351.502 103.33 352.51C102.814 354.123 102.187 356.095 102.165 357.865C102.142 359.433 103.33 360.778 104.898 360.979C109.558 361.562 122.485 362.301 132.657 361.382C132.903 361.36 134.113 361.158 134.427 359.523C135.211 355.602 129.856 353.855 122.463 351.435C120.111 350.651 117.669 349.844 115.114 348.881C114.868 348.791 114.577 348.836 114.397 349.015L113.232 350.158C111.911 351.435 109.961 351.793 108.259 351.076L104.696 349.553C104.637 349.523 104.577 349.508 104.517 349.508Z" fill="black"/>
<path d="M101.941 357.305C101.941 357.305 101.941 357.596 101.941 357.731C101.918 359.568 103.285 361.114 105.1 361.338C110.23 362.01 122.799 362.772 132.702 361.875C133.396 361.808 134.584 361.315 134.92 359.635C135.032 359.097 134.965 358.179 134.965 358.179L134.27 358.201C124.233 358.694 114.196 358.448 104.204 357.484L101.941 357.305Z" fill="#F0F0F0"/>
<path fill-rule="evenodd" clip-rule="evenodd" d="M122.552 362.794C115.114 362.794 108.146 362.256 105.032 361.853C102.949 361.584 101.403 359.814 101.425 357.731L101.447 357.282C101.447 357.148 101.492 357.014 101.604 356.924C101.716 356.834 101.851 356.79 101.985 356.79L104.248 356.991C114.173 357.955 124.278 358.201 134.247 357.708L134.942 357.663C135.233 357.663 135.457 357.865 135.457 358.134C135.48 358.246 135.525 359.164 135.412 359.725C135.054 361.539 133.755 362.279 132.746 362.368C129.475 362.682 125.958 362.794 122.552 362.794ZM102.433 357.843C102.478 359.366 103.621 360.643 105.167 360.845C109.67 361.427 122.306 362.323 132.657 361.382C132.903 361.36 134.113 361.158 134.427 359.523C134.471 359.321 134.494 358.985 134.494 358.694H134.292C124.278 359.209 114.128 358.963 104.158 357.977L102.433 357.843Z" fill="black"/>
<path d="M117.78 355.064C117.646 355.064 117.511 354.997 117.422 354.908C117.22 354.706 117.22 354.392 117.422 354.191L121.23 350.382C121.432 350.18 121.746 350.18 121.947 350.382C122.127 350.584 122.127 350.897 121.947 351.099L118.139 354.908C118.027 354.997 117.892 355.064 117.78 355.064Z" fill="black"/>
<path d="M121.522 355.445C121.388 355.445 121.276 355.401 121.164 355.311C120.962 355.109 120.962 354.796 121.164 354.594L124.211 351.435C124.39 351.233 124.704 351.233 124.905 351.413C125.107 351.614 125.107 351.928 124.928 352.129L121.881 355.289C121.791 355.401 121.657 355.445 121.522 355.445Z" fill="black"/>
<path d="M70.6416 284.468C70.6416 284.468 94.1438 291.458 119.125 278.038C119.864 277.657 120.648 278.486 120.2 279.203C118.945 281.197 115.338 286.081 113.479 291.167C111.149 297.44 106.287 329.86 104.674 339.964C104.539 340.882 105.212 341.711 106.13 341.734L115.742 342.047C116.347 342.07 116.907 341.734 117.175 341.174C120.648 333.96 145.315 277.299 144.442 266.724C143.523 255.275 128.422 255.858 122.956 255.522C117.332 255.163 72.3667 256.194 72.3667 256.194L70.6416 284.468Z" fill="black"/>
<path d="M5.0413 269.457C5.80305 268.539 6.81125 267.441 7.66262 266.59C8.78284 265.492 12.502 258.255 12.502 258.255L18.9992 260.115C18.9992 260.115 15.9522 265.425 16.6916 268.068C17.3637 270.533 17.9014 275.731 14.2943 279.517C13.8686 279.965 12.9725 280.077 12.6588 279.987C11.7178 279.786 11.6954 278.464 12.1659 277.613L13.4653 275.215C13.5774 275.014 13.3981 274.767 13.1741 274.79C12.1883 274.924 10.0375 275.551 7.79704 278.33C6.07191 280.458 2.66644 285.208 1.50141 284.424C-0.537385 283.012 0.784474 274.498 5.0413 269.457Z" fill="#F0F0F0"/>
<path fill-rule="evenodd" clip-rule="evenodd" d="M1.79269 285.006C1.58358 285.006 1.39688 284.946 1.23258 284.827C0.650069 284.446 0.291599 283.684 0.134768 282.586C-0.313319 279.248 1.27739 273.154 4.63805 269.121C5.4222 268.203 6.4304 267.127 7.32657 266.231C8.17794 265.38 11.0233 260.025 12.0539 258.031C12.1659 257.83 12.4124 257.717 12.6364 257.785L19.1337 259.622C19.2681 259.667 19.4025 259.779 19.4473 259.913C19.5145 260.07 19.5145 260.227 19.4249 260.361C18.6184 261.773 16.6244 265.918 17.1621 267.934C17.4982 269.144 18.932 275.372 14.6528 279.875C14.0927 280.458 12.9725 280.592 12.5468 280.48C12.0987 280.368 11.7402 280.077 11.5386 279.651C11.2473 279.024 11.3145 278.105 11.7178 277.389L12.8156 275.372C11.8299 275.619 10.0599 276.336 8.20034 278.643C7.93149 278.957 7.64023 279.338 7.32657 279.741C4.9293 282.788 3.06974 285.006 1.79269 285.006ZM12.7484 258.86C11.9195 260.451 9.05171 265.94 8.02111 266.948C7.16974 267.799 6.16154 268.875 5.4222 269.771C2.30799 273.468 0.694877 279.315 1.12056 282.452C1.23258 283.236 1.47903 283.774 1.79269 283.998C2.53204 284.199 5.4446 280.503 6.54242 279.114C6.85608 278.71 7.14734 278.33 7.41619 277.993C9.72384 275.148 11.9643 274.454 13.0845 274.297C13.3982 274.252 13.6894 274.386 13.8686 274.633C14.0255 274.879 14.0479 275.193 13.9135 275.462L12.5916 277.859C12.3676 278.307 12.3003 278.89 12.4572 279.226C12.5244 279.383 12.614 279.472 12.7708 279.517C12.9725 279.562 13.667 279.45 13.9359 279.181C17.8342 275.058 16.5124 269.301 16.1987 268.203C15.5714 265.895 17.4757 261.885 18.2599 260.428L12.7484 258.86Z" fill="black"/>
<path d="M160.751 187.793L156.562 180.714C155.867 179.549 153.694 179.19 152.619 179.997C128.892 197.696 103.643 190.482 99.7443 189.541C90.0656 187.256 85.2039 186.897 77.564 186.427C66.3842 185.755 50.3203 192.207 39.499 203.028C30.8957 211.632 16.2208 239.548 9.56671 258.927C9.27545 259.756 9.63392 260.652 10.3957 261.033L17.0722 264.506C17.9235 264.954 18.9765 264.618 19.4246 263.789C22.8077 257.381 37.5498 230.832 52.9416 222.05C54.0842 221.422 55.7869 222.095 55.7197 223.394C55.5181 227.472 52.9864 242.617 52.2022 256.62C52.1126 258.479 53.3897 260.115 55.2044 260.451L61.9481 261.705C73.7104 264.439 84.7334 261.392 89.5951 259.667C91.0738 259.129 91.7908 257.695 92.0148 256.127C92.3957 253.528 97.6159 232.759 107.138 219.003C108.325 217.278 110.14 216.09 112.246 215.956C120.737 215.463 144.889 212.08 160.662 189.967C161.11 189.317 161.155 188.466 160.751 187.793Z" fill="#D71635"/>
<path fill-rule="evenodd" clip-rule="evenodd" d="M17.8792 265.201C17.5207 265.201 17.1846 265.133 16.8486 264.954L10.1721 261.481C9.18629 260.966 8.7158 259.823 9.09667 258.77C15.9524 238.763 30.8513 210.982 39.1409 202.67C49.5589 192.252 65.7349 185.195 77.5868 185.934C85.4283 186.404 90.3125 186.785 99.8567 189.07C100.021 189.1 100.208 189.145 100.417 189.205C119.573 193.955 137.518 190.639 152.305 179.593C152.955 179.123 153.941 178.944 154.927 179.145C155.845 179.325 156.607 179.817 156.988 180.467L161.177 187.547C161.693 188.376 161.648 189.451 161.065 190.258C145.36 212.259 121.723 215.911 112.269 216.449C110.432 216.561 108.706 217.591 107.541 219.294C98.4901 232.378 93.001 252.811 92.5081 256.194C92.2169 258.21 91.2535 259.599 89.7524 260.137C84.3305 262.064 73.4868 264.909 61.8365 262.198L55.1152 260.944C53.054 260.563 51.5977 258.703 51.7098 256.597C52.2027 247.568 53.4125 238.226 54.2863 231.392C54.7792 227.718 55.1376 224.805 55.2272 223.372C55.2497 222.923 54.936 222.655 54.7344 222.543C54.2863 222.251 53.6365 222.251 53.1885 222.498C38.1775 231.034 23.8835 256.44 19.8732 264.013C19.4699 264.775 18.6857 265.201 17.8792 265.201ZM75.8841 186.875C64.4579 186.875 49.6038 193.619 39.8579 203.387C31.6355 211.609 16.871 239.211 10.0377 259.107C9.83602 259.689 10.0825 260.316 10.6426 260.608L17.3191 264.058C17.924 264.372 18.6633 264.148 18.977 263.543C23.0322 255.903 37.4382 230.295 52.6956 221.624C53.4573 221.176 54.4879 221.221 55.2721 221.691C55.8994 222.072 56.2579 222.722 56.213 223.416C56.1458 224.895 55.765 227.83 55.2945 231.527C54.4207 238.338 53.2109 247.658 52.718 256.664C52.6283 258.255 53.7262 259.667 55.2945 259.958L62.0382 261.213C73.4644 263.879 84.1065 261.078 89.4163 259.174C90.8502 258.681 91.3655 257.202 91.5223 256.06C91.8584 253.752 96.9442 232.849 106.712 218.734C108.057 216.762 110.073 215.575 112.224 215.463C121.522 214.903 144.8 211.318 160.236 189.675C160.595 189.183 160.617 188.555 160.326 188.04L156.114 180.983C155.89 180.579 155.375 180.266 154.725 180.131C154.03 179.997 153.336 180.109 152.91 180.4C138.079 191.468 119.349 194.918 100.17 190.168C99.9613 190.123 99.7821 190.079 99.6327 190.034C90.1557 187.771 85.2939 187.413 77.542 186.942C76.9894 186.897 76.4367 186.875 75.8841 186.875Z" fill="black"/>
<path d="M154.971 182.842C154.882 182.327 155.083 181.789 155.487 181.431C156.024 180.982 156.92 180.198 158.242 179.056C160.572 177.017 163.462 172.962 165.994 171.752C168.526 170.542 177.712 166.957 179.168 167.719C180.647 168.481 179.907 170.184 177.824 171.192C175.74 172.2 173.029 173.231 173.029 173.231C173.029 173.231 174.553 173.141 175.673 174.889C176.793 176.636 175.247 177.353 175.897 178.204C176.726 179.325 176.479 180.624 175.807 181.184C174.306 182.484 172.469 179.929 171.102 182.551C170.139 184.388 167.899 185.598 163.328 186.449C162.118 186.696 160.953 187.166 159.9 187.816C159.452 188.107 158.892 188.107 158.444 187.861C157.368 187.256 155.464 185.777 154.971 182.842Z" fill="#F0F0F0"/>
<path fill-rule="evenodd" clip-rule="evenodd" d="M159.139 188.555C158.803 188.555 158.489 188.466 158.198 188.309C157.033 187.637 155.016 186.068 154.479 182.932C154.367 182.215 154.613 181.498 155.151 181.05C155.689 180.602 156.607 179.817 157.907 178.675C158.735 177.958 159.632 176.972 160.573 175.919C162.298 174.06 164.068 172.11 165.77 171.304C166.868 170.766 177.466 166.263 179.392 167.271C180.087 167.607 180.445 168.19 180.445 168.839C180.423 169.87 179.504 170.945 178.048 171.64C176.905 172.2 175.561 172.76 174.575 173.141C175.091 173.432 175.628 173.88 176.099 174.62C176.861 175.83 176.547 176.703 176.345 177.263C176.211 177.689 176.189 177.779 176.301 177.913C177.286 179.235 176.995 180.848 176.144 181.565C175.315 182.282 174.396 182.08 173.657 181.923C172.716 181.744 172.156 181.61 171.551 182.797C170.498 184.814 168.056 186.068 163.44 186.964C162.275 187.166 161.178 187.614 160.147 188.242C159.833 188.443 159.497 188.555 159.139 188.555ZM155.464 182.752C155.935 185.508 157.682 186.852 158.691 187.435C158.982 187.592 159.34 187.569 159.632 187.39C160.752 186.696 161.984 186.203 163.239 185.956C167.54 185.15 169.758 184.052 170.655 182.327C171.618 180.467 172.917 180.758 173.881 180.938C174.598 181.095 175.046 181.162 175.494 180.803C175.92 180.445 176.211 179.459 175.494 178.518C175.046 177.936 175.248 177.375 175.404 176.927C175.584 176.434 175.763 175.964 175.248 175.157C174.307 173.701 173.119 173.723 173.052 173.723C172.805 173.746 172.581 173.567 172.537 173.32C172.492 173.074 172.626 172.85 172.85 172.76C172.873 172.738 175.561 171.729 177.6 170.744C178.855 170.139 179.437 169.355 179.437 168.839C179.437 168.727 179.437 168.414 178.944 168.145C177.869 167.607 169.534 170.609 166.219 172.2C164.695 172.939 162.97 174.799 161.334 176.614C160.349 177.667 159.43 178.675 158.579 179.437C157.257 180.579 156.338 181.363 155.801 181.811C155.532 182.058 155.42 182.394 155.464 182.752Z" fill="black"/>
<path d="M93.6507 167.249L81.1042 188.04C80.925 188.286 79.0879 188.219 77.0042 188.421C76.0409 188.533 75.0103 188.667 74.1813 188.824C73.4868 188.936 73.2851 189.832 73.8676 190.213L76.1305 191.692C80.8354 194.828 86.4365 196.442 92.06 196.061C93.6283 195.949 95.1294 195.702 96.4736 195.276L101.268 193.775C101.985 193.529 101.985 192.521 101.268 192.297L95.1518 190.437L100.305 179.481L93.6507 167.249Z" fill="#F0F0F0"/>
<path fill-rule="evenodd" clip-rule="evenodd" d="M90.4465 196.598C85.3831 196.598 80.2525 195.052 75.8388 192.117L73.5984 190.639C73.1503 190.348 72.9487 189.832 73.0607 189.317C73.1727 188.802 73.576 188.398 74.0913 188.309C75.1667 188.152 76.1077 188.017 76.959 187.928C77.8104 187.838 78.6394 187.793 79.2891 187.771C79.8716 187.749 80.4989 187.704 80.7454 187.659L93.2246 166.98C93.3142 166.823 93.4711 166.733 93.6503 166.733C93.8295 166.756 94.0088 166.845 94.0984 167.002L100.752 179.235C100.82 179.369 100.842 179.549 100.775 179.683L95.8459 190.123L101.402 191.826C101.962 191.983 102.298 192.454 102.321 193.036C102.321 193.596 101.962 194.067 101.425 194.246L96.6077 195.747C95.2858 196.173 93.7623 196.442 92.1044 196.554C91.5518 196.583 90.9991 196.598 90.4465 196.598ZM93.6279 168.257L81.5295 188.309C81.2607 188.69 80.7678 188.712 79.3563 188.779C78.7066 188.802 77.8776 188.846 77.0486 188.936C76.2421 189.003 75.3011 189.138 74.2705 189.317C74.0913 189.339 74.0465 189.474 74.0465 189.519C74.0241 189.563 74.0241 189.698 74.1585 189.787L76.3989 191.289C81.1038 194.403 86.6601 195.904 92.0372 195.545C93.6055 195.433 95.0618 195.187 96.3164 194.806L101.111 193.283C101.29 193.238 101.313 193.081 101.313 193.036C101.313 192.969 101.29 192.834 101.111 192.767L94.9946 190.93C94.8601 190.885 94.7481 190.773 94.6809 190.639C94.6137 190.504 94.6361 190.37 94.6809 190.235L99.7443 179.481L93.6279 168.257Z" fill="black"/>
<path d="M99.2513 179.907C99.9085 179.982 100.588 180.004 101.29 179.974L102.522 179.907C102.522 179.907 109.625 178.966 110.767 177.196C111.91 175.449 109.49 169.041 109.49 169.041C110.588 168.19 110.834 167.114 110.61 166.756C110.364 166.397 108.796 165.837 108.146 165.367C107.631 164.986 106.443 161.916 105.95 160.595C105.95 160.595 105.009 155.397 96.6972 156.069C77.6087 157.615 91.3201 175.292 91.3201 175.292C91.6189 175.635 91.9251 175.964 92.2387 176.278L99.2513 179.907Z" fill="#F0F0F0"/>
<path d="M100.685 180.49C99.6323 180.49 98.5793 180.355 97.5711 180.064C97.3247 179.997 97.1678 179.728 97.235 179.459C97.3022 179.19 97.5935 179.033 97.8624 179.101C98.9378 179.414 100.103 179.526 101.245 179.481L102.5 179.414C105.121 179.056 109.602 178.07 110.342 176.927C111.081 175.807 109.916 171.595 109.02 169.22C108.953 169.019 109.02 168.795 109.199 168.66C110.05 167.988 110.252 167.204 110.185 167.002C110.095 166.913 109.535 166.644 109.154 166.464C108.684 166.24 108.168 166.016 107.855 165.77C107.384 165.411 106.734 164.067 105.48 160.774C105.465 160.744 105.457 160.714 105.457 160.684C105.413 160.505 104.472 155.957 96.7197 156.584C92.0148 156.965 89.0126 158.309 87.8028 160.595C85.7416 164.47 89.0126 170.251 90.9618 173.701L91.141 174.015C91.2755 174.261 91.1859 174.575 90.9618 174.709C90.7154 174.844 90.4017 174.754 90.2673 174.508L90.088 174.194C88.0492 170.564 84.599 164.493 86.9066 160.124C88.2957 157.525 91.5667 155.979 96.6525 155.576C104.853 154.904 106.286 159.855 106.421 160.46C107.743 163.866 108.258 164.784 108.46 164.963C108.684 165.143 109.177 165.367 109.602 165.568C110.386 165.949 110.834 166.173 111.036 166.487C111.417 167.069 111.126 168.257 110.095 169.198C110.61 170.654 112.313 175.74 111.193 177.487C109.961 179.392 103.329 180.31 102.59 180.4L101.313 180.49C101.104 180.49 100.894 180.49 100.685 180.49Z" fill="black"/>
<path d="M92.7986 153.828C94.8598 153.403 97.2347 153.739 98.2653 153.38C99.9008 152.843 99.856 150.961 102.164 150.759C104.18 150.602 106.062 150.983 107.093 152.529C107.272 152.783 107.421 153.074 107.541 153.403C109.131 157.794 106.913 159.922 105.95 160.595C105.95 160.595 99.7664 163.574 98.691 164.426C97.7052 165.21 96.5177 167.114 97.1675 169.87C97.2571 170.228 97.0778 170.587 96.7642 170.766C96.3833 170.968 95.9128 170.878 95.6664 170.52C94.9046 169.422 93.2243 167.271 91.9697 167.764C90.5134 168.346 90.0205 171.998 92.709 172.895C93.5155 173.186 93.8068 174.261 93.2019 174.889C92.709 175.404 91.9697 175.785 90.827 175.493C90.827 175.493 84.1729 170.744 83.3888 164.515C82.6046 158.264 90.0205 154.366 92.7986 153.828Z" fill="black"/>
<path d="M341.197 194.94H323.722V148.362H341.197V194.94Z" fill="#FDBC31"/>
<path fill-rule="evenodd" clip-rule="evenodd" d="M341.197 195.433H323.721C323.453 195.433 323.229 195.209 323.229 194.94V148.362C323.229 148.093 323.453 147.869 323.721 147.869H341.197C341.466 147.869 341.69 148.093 341.69 148.362V194.94C341.69 195.209 341.466 195.433 341.197 195.433ZM324.237 194.425H340.682V148.877H324.237V194.425Z" fill="black"/>
<path d="M344.872 195.635H319.868C318.009 195.635 316.485 194.134 316.485 192.274V185.956C316.485 184.097 318.009 182.596 319.868 182.596H344.872C346.731 182.596 348.232 184.097 348.232 185.956V192.274C348.232 194.134 346.731 195.635 344.872 195.635Z" fill="#FDBC31"/>
<path fill-rule="evenodd" clip-rule="evenodd" d="M344.871 196.15H319.868C317.717 196.15 315.992 194.403 315.992 192.274V185.956C315.992 183.828 317.717 182.08 319.868 182.08H344.871C347 182.08 348.747 183.828 348.747 185.956V192.274C348.747 194.403 347 196.15 344.871 196.15ZM319.868 183.089C318.277 183.089 317 184.366 317 185.956V192.274C317 193.843 318.277 195.142 319.868 195.142H344.871C346.462 195.142 347.739 193.843 347.739 192.274V185.956C347.739 184.366 346.462 183.089 344.871 183.089H319.868Z" fill="black"/>
<path d="M365.529 203.745H299.212V199.04C299.212 195.993 301.676 193.529 304.723 193.529H359.995C363.042 193.529 365.529 195.993 365.529 199.04V203.745Z" fill="#FDBC31"/>
<path fill-rule="evenodd" clip-rule="evenodd" d="M365.529 204.261H299.212C298.92 204.261 298.696 204.037 298.696 203.745V199.041C298.696 195.725 301.407 193.014 304.723 193.014H359.995C363.333 193.014 366.021 195.725 366.021 199.041V203.745C366.021 204.037 365.797 204.261 365.529 204.261ZM299.704 203.253H365.013V199.041C365.013 196.285 362.773 194.022 359.995 194.022H304.723C301.967 194.022 299.704 196.285 299.704 199.041V203.253Z" fill="black"/>
<path d="M318.972 146.099C300.645 135.815 282.34 120.289 268.719 103.508C260.362 93.2022 247.031 73.912 251.646 60.5366C252.991 56.6831 256.374 51.8437 264.977 50.6563C271.228 49.8049 279.652 50.9923 290.07 54.1738L287.785 63.3596C278.464 60.5142 271.138 59.4164 266.03 60.1109C262.49 60.6038 260.339 61.9033 259.622 63.9645C257.92 68.8934 262.042 81.059 275.059 97.123C288.009 113.052 305.417 127.817 322.825 137.585L318.972 146.099Z" fill="#FDBC31"/>
<path fill-rule="evenodd" clip-rule="evenodd" d="M318.972 146.592C318.882 146.592 318.8 146.569 318.725 146.525C300.354 136.219 281.982 120.648 268.338 103.822C259.891 93.4262 246.471 73.9792 251.176 60.3798C252.543 56.3918 256.06 51.3732 264.91 50.1634C271.228 49.2896 279.742 50.477 290.205 53.7033C290.473 53.7705 290.608 54.0393 290.563 54.3082L288.278 63.4716C288.255 63.606 288.166 63.718 288.054 63.8076C287.919 63.8749 287.785 63.8749 287.651 63.8301C278.398 61.0071 271.138 59.9093 266.097 60.6038C262.759 61.0743 260.765 62.2617 260.093 64.1437C258.435 68.9382 262.558 80.8798 275.463 96.7869C288.345 112.694 305.708 127.414 323.072 137.16C323.296 137.272 323.385 137.563 323.273 137.809L319.42 146.301C319.375 146.435 319.263 146.525 319.129 146.569C319.084 146.584 319.032 146.592 318.972 146.592ZM269.212 50.9027C267.733 50.9027 266.344 50.9849 265.044 51.1492C256.71 52.3142 253.417 56.9967 252.117 60.7158C247.569 73.8448 260.81 92.9557 269.1 103.172C282.565 119.774 300.645 135.121 318.748 145.382L322.176 137.809C304.835 127.996 287.561 113.299 274.678 97.4366C261.527 81.2158 257.405 68.871 259.152 63.8076C259.936 61.5448 262.222 60.1333 265.963 59.618C271.049 58.9235 278.285 59.9541 287.426 62.7322L289.465 54.5098C281.489 52.1126 274.701 50.9027 269.212 50.9027Z" fill="black"/>
<path d="M346.305 145.561C364.34 135.278 382.354 119.751 395.751 102.97C403.974 92.6645 417.103 73.3743 412.555 60.0213C411.233 56.1678 407.895 51.306 399.426 50.141C393.287 49.2672 384.997 50.4546 374.758 53.6585L376.976 62.8219C386.162 59.9765 393.354 58.8787 398.395 59.5956C401.868 60.0661 403.996 61.3656 404.691 63.4492C406.371 68.3557 402.316 80.5213 389.501 96.5853C376.775 112.537 359.658 127.279 342.519 137.07L346.305 145.561Z" fill="#FDBC31"/>
<path fill-rule="evenodd" clip-rule="evenodd" d="M346.305 146.077C346.26 146.077 346.208 146.069 346.148 146.054C346.014 146.009 345.902 145.897 345.857 145.763L342.071 137.272C341.959 137.025 342.048 136.756 342.272 136.622C359.344 126.876 376.417 112.179 389.12 96.2716C401.801 80.3645 405.856 68.4005 404.22 63.606C403.571 61.724 401.599 60.5366 398.328 60.0885C393.354 59.394 386.23 60.4694 377.134 63.3148C376.999 63.3596 376.865 63.3372 376.73 63.2699C376.618 63.2027 376.529 63.0907 376.484 62.9563L374.266 53.7705C374.199 53.5016 374.355 53.2552 374.602 53.1656C384.908 49.9617 393.287 48.7743 399.493 49.6257C408.208 50.8579 411.659 55.8541 413.025 59.8645C417.641 73.4415 404.422 92.8885 396.132 103.284C382.712 120.11 364.632 135.681 346.552 146.009C346.477 146.054 346.395 146.077 346.305 146.077ZM343.168 137.272L346.552 144.844C364.363 134.605 382.107 119.236 395.348 102.657C403.526 92.4404 416.543 73.3071 412.062 60.1781C410.807 56.459 407.559 51.7765 399.359 50.6339C393.377 49.8049 385.311 50.9251 375.341 53.9945L377.335 62.1945C386.342 59.4388 393.444 58.3858 398.462 59.0803C402.137 59.5956 404.4 61.0071 405.161 63.2699C406.887 68.3333 402.831 80.6781 389.904 96.8989C377.223 112.761 360.218 127.458 343.168 137.272Z" fill="black"/>
<path d="M332.504 154.366C379.105 154.881 379.621 88.6541 389.635 35.9142L274.992 35.4885C284.268 89.7519 285.948 155.24 332.504 154.366Z" fill="#FDBC31"/>
<path fill-rule="evenodd" clip-rule="evenodd" d="M331.585 154.881C313.975 154.881 301.295 145.203 292.826 125.33C285.208 107.429 281.646 83.0978 278.196 59.5508C277.031 51.6197 275.843 43.4197 274.499 35.5781C274.476 35.4213 274.521 35.2645 274.611 35.1525C274.701 35.0404 274.857 34.9732 274.992 34.9732L389.657 35.3989C389.792 35.3989 389.926 35.4661 390.038 35.6005C390.128 35.7126 390.173 35.847 390.128 36.0038C388.425 44.988 386.969 54.5322 385.557 63.7628C382.13 86.212 378.59 109.423 371.129 126.495C362.795 145.584 350.315 154.859 333.042 154.859C332.862 154.859 332.683 154.859 332.504 154.859C332.19 154.874 331.884 154.881 331.585 154.881ZM275.597 35.9814C276.896 43.6661 278.061 51.6645 279.204 59.4164C282.632 82.8962 286.172 107.16 293.744 124.949C302.146 144.665 314.177 153.873 331.54 153.873C331.854 153.873 332.168 153.873 332.481 153.873C332.496 153.858 332.504 153.858 332.504 153.873C332.683 153.873 332.87 153.873 333.064 153.873C350.114 153.873 361.943 145.024 370.21 126.092C377.626 109.132 381.144 85.988 384.572 63.606C385.961 54.5771 387.372 45.2344 389.03 36.4071L275.597 35.9814Z" fill="black"/>
<path d="M375.565 97.0557C375.535 97.0557 375.505 97.0557 375.476 97.0557C375.207 96.9885 375.027 96.7197 375.072 96.4508C377.201 86.1 378.657 74.8082 380.046 63.8749C380.561 59.8421 381.077 55.6525 381.659 51.5749C381.682 51.306 381.928 51.1044 382.219 51.1492C382.488 51.194 382.69 51.4404 382.645 51.7093C382.085 55.7869 381.547 59.9765 381.032 64.0093C379.643 74.9426 378.187 86.2568 376.058 96.6525C376.013 96.8989 375.812 97.0557 375.565 97.0557Z" fill="black"/>
<path d="M333.49 151.274C333.243 151.274 333.019 151.073 332.997 150.804C332.974 150.535 333.176 150.289 333.445 150.266C350.495 148.787 361.898 136.734 369.337 112.313C369.426 112.044 369.718 111.887 369.964 111.977C370.233 112.044 370.39 112.336 370.3 112.604C365.528 128.243 356.521 149.28 333.535 151.274C333.52 151.274 333.505 151.274 333.49 151.274Z" fill="black"/>
<path d="M392.302 41.7842H273.447C271.206 41.7842 269.392 39.9694 269.392 37.7066V30.7836C269.392 28.5208 271.206 26.706 273.447 26.706H392.302C394.542 26.706 396.38 28.5208 396.38 30.7836V37.7066C396.38 39.9694 394.542 41.7842 392.302 41.7842Z" fill="#FDBC31"/>
<path fill-rule="evenodd" clip-rule="evenodd" d="M392.302 42.277H273.446C270.937 42.277 268.876 40.2382 268.876 37.7066V30.7836C268.876 28.2519 270.937 26.2131 273.446 26.2131H392.302C394.811 26.2131 396.872 28.2519 396.872 30.7836V37.7066C396.872 40.2382 394.811 42.277 392.302 42.277ZM273.446 27.1989C271.475 27.1989 269.884 28.812 269.884 30.7836V37.7066C269.884 39.6781 271.475 41.2913 273.446 41.2913H392.302C394.273 41.2913 395.864 39.6781 395.864 37.7066V30.7836C395.864 28.812 394.273 27.1989 392.302 27.1989H273.446Z" fill="black"/>
<path d="M357.26 33.4273C356.992 33.4273 356.768 33.2033 356.768 32.9344C356.768 32.6656 356.992 32.4191 357.26 32.4191L381.031 32.1503C381.031 32.1503 381.039 32.1503 381.054 32.1503C381.323 32.1503 381.547 32.3743 381.547 32.6656C381.547 32.9344 381.323 33.1585 381.054 33.1585L357.26 33.4273Z" fill="black"/>
<path d="M337.792 33.6514C337.523 33.6514 337.299 33.4273 337.276 33.1585C337.276 32.8672 337.5 32.6432 337.792 32.6432L351.033 32.4863C351.302 32.4863 351.526 32.7104 351.526 33.0016C351.548 33.2705 351.324 33.4945 351.033 33.4945L337.792 33.6514Z" fill="black"/>
<path d="M370.972 376.998C370.972 376.998 350.36 331.831 362.19 273.266C362.19 273.266 394.138 300.039 382.623 376.998H370.972Z" fill="#F0F0F0"/>
<path fill-rule="evenodd" clip-rule="evenodd" d="M382.622 377.491H370.972C370.771 377.491 370.591 377.379 370.524 377.2C370.457 377.088 365.304 365.639 361.652 347.178C358.291 330.151 355.58 303.49 361.697 273.154C361.742 272.997 361.854 272.84 362.033 272.796C362.19 272.728 362.369 272.773 362.503 272.885C362.839 273.154 370.658 279.831 377.178 296.074C383.183 311.017 389.075 337.208 383.115 377.066C383.071 377.312 382.869 377.491 382.622 377.491ZM371.308 376.483H382.174C387.999 337.096 382.174 311.219 376.26 296.455C370.905 283.102 364.52 276.201 362.503 274.252C356.656 304.027 359.322 330.196 362.638 346.954C365.931 363.668 370.479 374.601 371.308 376.483Z" fill="black"/>
<path d="M376.013 372.786C376.013 372.786 376.005 372.786 375.991 372.786C375.722 372.764 375.498 372.54 375.52 372.249C377.088 343.369 364.071 281.713 363.937 281.085C363.87 280.816 364.049 280.548 364.318 280.503C364.587 280.436 364.856 280.615 364.923 280.884C365.057 281.511 378.097 343.28 376.528 372.316C376.506 372.585 376.282 372.786 376.013 372.786Z" fill="black"/>
<path d="M391.718 303.557C391.718 303.557 365.147 351.525 381.121 372.293H389.68C389.68 372.293 406.752 334.789 391.718 303.557Z" fill="#F0F0F0"/>
<path fill-rule="evenodd" clip-rule="evenodd" d="M389.68 372.786H381.121C380.964 372.786 380.83 372.719 380.74 372.585C373.997 363.847 373.728 349.508 379.956 329.994C384.549 315.521 391.203 303.422 391.27 303.31C391.36 303.154 391.539 303.042 391.718 303.042C391.92 303.064 392.077 303.176 392.166 303.333C399.986 319.598 399.022 337.522 396.827 349.71C394.452 362.906 390.172 372.405 390.128 372.495C390.038 372.674 389.859 372.786 389.68 372.786ZM381.368 371.778H389.344C390.867 368.238 405.027 333.691 391.674 304.677C388.223 311.242 367.253 352.958 381.368 371.778Z" fill="black"/>
<path d="M385.109 374.063C384.84 374.063 384.616 373.839 384.616 373.57C384.078 359.926 387.372 332.1 389.388 316.731C389.433 316.462 389.68 316.26 389.948 316.305C390.217 316.35 390.419 316.596 390.396 316.865C388.38 332.212 385.087 359.971 385.624 373.526C385.624 373.817 385.423 374.041 385.131 374.063C385.131 374.063 385.124 374.063 385.109 374.063Z" fill="black"/>
<path d="M341.018 321.436C341.018 321.436 363.646 329.165 371.824 374.848H362.929C362.929 374.848 344.356 349.755 341.018 321.436Z" fill="#F0F0F0"/>
<path fill-rule="evenodd" clip-rule="evenodd" d="M371.824 375.34H362.929C362.772 375.34 362.615 375.273 362.526 375.139C362.347 374.892 343.841 349.62 340.525 321.503C340.502 321.323 340.57 321.167 340.704 321.055C340.838 320.943 341.018 320.898 341.174 320.965C341.421 321.032 347.044 323.026 353.721 330.666C359.86 337.701 368.06 351.032 372.317 374.758C372.339 374.892 372.317 375.049 372.205 375.161C372.115 375.273 371.98 375.34 371.824 375.34ZM363.176 374.332H371.219C366.984 351.278 359.008 338.261 353.026 331.405C347.918 325.536 343.37 323.049 341.623 322.242C345.006 348.41 361.45 371.913 363.176 374.332Z" fill="black"/>
<path d="M366.962 374.063C366.715 374.063 366.514 373.884 366.469 373.638C363.108 353.272 348.523 332.772 348.366 332.548C348.209 332.324 348.254 332.01 348.478 331.854C348.702 331.697 349.016 331.742 349.195 331.966C349.33 332.167 364.049 352.869 367.455 373.481C367.5 373.75 367.32 373.996 367.052 374.041C367.022 374.056 366.992 374.063 366.962 374.063Z" fill="black"/>
<path d="M349.733 371.218H405.543L406.797 397.61C407.111 404.085 401.936 409.507 395.461 409.507H363.602C355.917 409.507 349.711 403.279 349.711 395.616L349.733 371.218Z" fill="#F0F0F0"/>
<path fill-rule="evenodd" clip-rule="evenodd" d="M395.46 410H363.601C359.748 410 356.141 408.499 353.43 405.788C350.696 403.077 349.218 399.448 349.218 395.616L349.24 371.218C349.24 370.949 349.464 370.725 349.733 370.725H405.542C405.811 370.725 406.035 370.927 406.058 371.196L407.29 397.588C407.447 400.859 406.304 403.951 404.041 406.326C401.778 408.701 398.731 410 395.46 410ZM350.248 371.711L350.226 395.616C350.226 399.179 351.615 402.539 354.124 405.071C356.656 407.603 360.017 408.992 363.601 408.992H395.46C398.463 408.992 401.241 407.804 403.302 405.631C405.386 403.458 406.439 400.635 406.304 397.633L405.072 371.711H350.248Z" fill="black"/>
<path d="M57.3554 79.4683C57.2434 79.4683 57.109 79.4235 57.0193 79.3339C56.8177 79.1322 56.7953 78.8186 56.9969 78.6169C87.5565 45.8169 117.265 32.0383 136.779 26.2355C157.973 19.9623 172.133 21.4858 172.267 21.5082C172.536 21.5306 172.738 21.7995 172.693 22.0683C172.671 22.3372 172.424 22.5388 172.155 22.5164C171.999 22.494 158.018 20.9929 137.003 27.2213C117.623 32.9792 88.1166 46.6907 57.7363 79.2891C57.6243 79.4011 57.4898 79.4683 57.3554 79.4683Z" fill="black"/>
<path d="M64.6821 58.9459C64.5477 58.9459 64.4132 58.9011 64.3012 58.7891C64.122 58.565 64.1444 58.2514 64.346 58.0721C97.7958 28.3415 128.221 17.3858 147.847 13.4202C169.131 9.09618 182.708 11.8743 182.843 11.9191C183.112 11.9639 183.291 12.2328 183.246 12.5016C183.179 12.7705 182.91 12.9497 182.641 12.9049C182.507 12.8601 169.086 10.1268 147.982 14.406C128.49 18.3492 98.2663 29.2825 65.0182 58.8339C64.9285 58.9011 64.7941 58.9459 64.6821 58.9459Z" fill="black"/>
<path d="M198.548 6.04918C198.503 6.04918 198.451 6.04918 198.391 6.04918C196.98 5.95956 196.173 4.88415 195.366 3.85355C194.627 2.86776 193.933 1.94918 192.768 1.74754C191.356 1.5235 190.213 2.53169 189.004 3.6071C187.682 4.79454 186.337 6.02678 184.456 5.73552C182.798 5.48907 181.879 4.21202 181.072 3.0694C180.311 1.99399 179.639 1.05301 178.474 1.0082C177.488 0.963389 176.726 1.61312 175.897 2.28525C174.934 3.0694 173.836 3.96557 172.335 3.65191C171.551 3.49508 171.058 3.0918 170.61 2.73333C170.184 2.37486 169.848 2.10601 169.288 2.08361C168.347 2.0388 167.361 2.64372 166.33 3.89836C166.151 4.1 165.815 4.14481 165.613 3.96557C165.389 3.78634 165.367 3.47268 165.546 3.24863C166.801 1.74754 168.056 1.0082 169.333 1.07541C170.251 1.12022 170.789 1.56831 171.259 1.94918C171.64 2.28525 171.999 2.5541 172.536 2.66612C173.567 2.89016 174.351 2.24044 175.247 1.50109C176.144 0.784154 177.152 -0.0448078 178.518 9.01055e-07C180.176 0.067214 181.05 1.29945 181.901 2.48689C182.663 3.5623 183.358 4.57049 184.59 4.74973C186.001 4.95137 187.144 3.94317 188.331 2.86776C189.676 1.68033 191.042 0.448088 192.924 0.76175C194.493 1.0082 195.389 2.19563 196.173 3.24863C196.89 4.18962 197.495 4.99618 198.436 5.04098C199.78 5.1306 201.348 3.67432 202.939 0.851367C203.074 0.604919 203.387 0.515301 203.611 0.649728C203.858 0.784154 203.947 1.09782 203.813 1.34426C202.021 4.50328 200.295 6.04918 198.548 6.04918Z" fill="black"/>
<path d="M391.629 152.305C391.614 152.305 391.592 152.305 391.562 152.305C391.293 152.26 391.091 152.014 391.136 151.745L391.719 147.891C391.763 147.6 392.01 147.421 392.279 147.466C392.57 147.51 392.749 147.757 392.704 148.026L392.144 151.879C392.1 152.126 391.875 152.305 391.629 152.305Z" fill="black"/>
<path d="M390.307 161.289C390.277 161.289 390.247 161.289 390.217 161.289C389.948 161.244 389.747 160.998 389.791 160.707L390.374 156.853C390.419 156.584 390.665 156.405 390.934 156.45C391.225 156.472 391.405 156.741 391.36 157.01L390.8 160.863C390.755 161.11 390.531 161.289 390.307 161.289Z" fill="black"/>
<path d="M388.694 154.501C388.664 154.501 388.642 154.493 388.627 154.478L384.751 153.918C384.482 153.873 384.303 153.627 384.348 153.336C384.37 153.067 384.639 152.887 384.908 152.91L388.761 153.492C389.03 153.537 389.232 153.784 389.187 154.075C389.142 154.321 388.941 154.501 388.694 154.501Z" fill="black"/>
<path d="M397.678 155.845C397.648 155.845 397.619 155.837 397.589 155.822L393.735 155.262C393.466 155.217 393.287 154.949 393.31 154.68C393.354 154.411 393.623 154.209 393.892 154.254L397.746 154.837C398.014 154.881 398.216 155.128 398.171 155.397C398.126 155.666 397.925 155.845 397.678 155.845Z" fill="black"/>
<path fill-rule="evenodd" clip-rule="evenodd" d="M223.574 16.2432C222.431 16.2432 221.333 15.8623 220.415 15.1454C218.152 13.3978 217.681 10.1268 219.384 7.86393C220.191 6.78852 221.378 6.09399 222.722 5.91476C224.111 5.71312 225.478 6.09399 226.576 6.94536C228.839 8.6929 229.309 11.9639 227.607 14.2268C226.8 15.3246 225.613 16.0191 224.268 16.1984C224.029 16.2282 223.798 16.2432 223.574 16.2432ZM220.191 8.46885C218.824 10.306 219.182 12.9497 221.02 14.3612C221.916 15.0557 223.014 15.347 224.134 15.2126C225.209 15.0557 226.15 14.4956 226.8 13.6219C228.167 11.8071 227.808 9.16339 225.971 7.75191C225.075 7.05738 223.977 6.74372 222.857 6.90055C221.781 7.05738 220.84 7.61749 220.191 8.46885Z" fill="black"/>
</g>
<defs>
<clipPath id="clip0_374_291">
<rect width="414.033" height="410" fill="white"/>
</clipPath>
</defs>
</svg>
