<svg width="444" height="441" viewBox="0 0 444 441" fill="none" xmlns="http://www.w3.org/2000/svg">
<g opacity="0.1">
<path d="M400.248 81.0808C375.95 44.2016 329.763 22.3009 285.127 26.5163C240.491 30.7317 199.407 60.7528 182.706 101.526C174.147 122.336 171.473 145.681 158.719 164.297C145.645 183.384 123.852 194.768 102.475 204.279C81.0988 213.79 58.6096 222.553 41.7802 238.515C24.9508 254.478 15.0329 280.156 24.9508 300.954C35.0934 322.095 60.7066 330.548 79.205 345.312C97.7035 360.077 109.462 381.795 128.345 396.068C145.795 409.259 168.295 415.058 190.356 415.015C212.417 414.973 234.115 409.409 254.721 401.717C318.625 377.869 378.828 333.49 404.324 271.372C451.517 156.337 400.248 81.0808 400.248 81.0808Z" fill="#D71635"/>
<path d="M400.248 81.0808C375.95 44.2016 329.763 22.3009 285.127 26.5163C240.491 30.7317 199.407 60.7528 182.706 101.526C174.147 122.336 171.473 145.681 158.719 164.297C145.645 183.384 123.852 194.768 102.475 204.279C81.0988 213.79 58.6096 222.553 41.7802 238.515C24.9508 254.478 15.0329 280.156 24.9508 300.954C35.0934 322.095 60.7066 330.548 79.205 345.312C97.7035 360.077 109.462 381.795 128.345 396.068C145.795 409.259 168.295 415.058 190.356 415.015C212.417 414.973 234.115 409.409 254.721 401.717C318.625 377.869 378.828 333.49 404.324 271.372C451.517 156.337 400.248 81.0808 400.248 81.0808Z" fill="#D71635"/>
</g>
<path d="M341.097 395.662C341.097 395.662 356.611 395.576 373.815 371.61C388.847 350.651 360.313 285.762 344.318 270.837C328.323 255.912 297.189 337.427 300.805 358.076C305.951 387.498 328.13 394.913 341.097 395.662Z" fill="#D71635"/>
<path d="M366.272 355.348L342.392 379.089L344.8 439.581H336.893C336.797 439.163 337.096 397.491 337.353 348.886L319.047 331.329C320.438 331.329 317.977 328.954 317.699 328.719L337.439 342.392C337.599 312.018 337.749 287.56 337.749 287.56L339.536 285.324L340.531 317.806L357.414 305.652C357.168 305.887 354.675 308.262 356.066 308.262L340.702 323.54L342.136 370.337L368.198 351.582C367.845 351.946 364.272 355.348 366.272 355.348Z" stroke="#263238" stroke-miterlimit="10"/>
<path d="M412.074 415.358C412.074 415.358 430.947 414 440.362 396.1C450.526 376.746 425.737 330.837 413.069 327.435C399.161 323.679 377.207 360.366 381.7 388.868C384.782 408.318 403.355 414.866 412.074 415.358Z" fill="#D71635"/>
<path d="M426.239 380.266L413.08 390.719C412.673 366.176 412.331 346.575 412.331 346.575L410.715 344.735L410.116 369.802V370.348L398.946 361.586C398.946 361.586 400.733 363.404 399.813 363.415L409.977 374.467L409.292 403.29L392.42 390.013C392.42 390.013 394.945 392.591 393.65 392.602L409.132 409.442L409.046 412.769L408.95 416.353L408.425 439.089L413.882 439.024C413.754 431.717 413.636 424.046 413.518 416.386C413.411 409.859 413.283 403.322 413.197 397.042C413.197 396.571 413.197 396.132 413.197 395.672L425.287 382.438C424.174 382.449 426.239 380.266 426.239 380.266Z" stroke="#263238" stroke-miterlimit="10"/>
<path d="M388.568 429.427C386.814 428.015 383.658 428.047 380.887 428.165C381.09 426.4 381.828 424.656 382.042 422.88C382.212 421.964 382.12 421.018 381.778 420.152C381.435 419.285 380.856 418.532 380.106 417.98C377.067 415.84 371.718 416.674 367.524 417.894C368.101 413.743 363.683 409.699 357.766 409.057C351.85 408.415 345.27 411.303 343.537 415.358C341.14 413.069 336.358 412.149 332.367 413.219C328.376 414.288 325.541 417.273 325.744 420.151C322.685 419.948 319.272 419.809 316.736 421.125C313.013 423.072 313.269 427.009 310.402 429.556C309.476 429.379 308.519 429.456 307.633 429.781C306.748 430.105 305.967 430.663 305.374 431.396C304.4 432.669 304.229 434.124 303.64 435.494C302.442 438.233 298.462 438.575 294.664 439.773L389.713 440.565C391.778 439.902 393.543 438.489 393.458 436.959C393.372 435.43 390.815 434.188 388.836 434.948C389.521 434.98 390.612 431.054 388.568 429.427Z" fill="#D71635"/>
<path d="M431.3 433.589C430.23 432.733 428.283 432.744 426.593 432.819C426.711 431.749 427.16 430.679 427.299 429.609C427.404 429.047 427.348 428.467 427.138 427.935C426.928 427.403 426.572 426.942 426.111 426.603C424.25 425.298 420.965 425.801 418.397 426.549C418.751 424.003 416.044 421.521 412.417 421.136C408.79 420.751 404.756 422.505 403.697 424.987C402.231 423.586 399.289 423.03 396.85 423.693C394.411 424.356 392.667 426.175 392.795 427.972C390.912 427.844 388.826 427.748 387.274 428.561C384.985 429.759 385.135 432.166 383.391 433.728C382.821 433.621 382.233 433.669 381.688 433.869C381.144 434.068 380.664 434.412 380.299 434.863C379.838 435.649 379.479 436.49 379.229 437.366C378.501 439.046 376.019 439.249 373.729 439.987L431.985 440.469C433.248 440.062 434.328 439.196 434.285 438.265C434.243 437.334 432.659 436.564 431.45 437.034C431.878 437.002 432.552 434.595 431.3 433.589Z" fill="#D71635"/>
<path d="M195.999 248.766C193.373 246.965 190.304 245.916 187.125 245.734C183.945 245.551 180.777 246.241 177.962 247.73C175.147 249.218 172.792 251.448 171.153 254.179C169.514 256.909 168.653 260.035 168.663 263.22V263.327C168.132 262.646 167.462 262.085 166.698 261.681C165.935 261.278 165.094 261.04 164.232 260.984C163.37 260.929 162.506 261.056 161.697 261.359C160.887 261.661 160.151 262.131 159.537 262.738C159.17 259.242 157.477 256.019 154.806 253.733C152.135 251.447 148.689 250.272 145.178 250.451C141.667 250.629 138.357 252.146 135.931 254.691C133.505 257.236 132.147 260.614 132.137 264.129C131.564 263.725 130.898 263.473 130.201 263.396C129.504 263.32 128.799 263.421 128.152 263.692C127.505 263.962 126.937 264.393 126.502 264.943C126.067 265.493 125.779 266.144 125.664 266.836H222.885C222.885 264.49 222.212 262.193 220.946 260.218C219.68 258.242 217.874 256.671 215.743 255.691C213.612 254.71 211.244 254.361 208.92 254.685C206.596 255.008 204.414 255.991 202.632 257.517C202.043 255.831 201.203 254.244 200.139 252.81" stroke="#263238" stroke-linecap="round" stroke-linejoin="round"/>
<path d="M363.073 120.807C366.27 119.69 369.688 119.354 373.041 119.829C376.394 120.303 379.585 121.573 382.347 123.533C385.109 125.492 387.361 128.084 388.916 131.093C390.471 134.101 391.284 137.438 391.286 140.824V140.953C391.931 140.128 392.744 139.448 393.67 138.959C394.597 138.47 395.616 138.182 396.662 138.114C397.707 138.047 398.755 138.201 399.737 138.566C400.719 138.932 401.613 139.501 402.359 140.236C402.837 136.018 404.905 132.141 408.141 129.395C411.378 126.648 415.54 125.239 419.78 125.455C424.019 125.67 428.017 127.494 430.958 130.555C433.9 133.615 435.564 137.682 435.611 141.926C436.452 141.321 437.464 140.999 438.5 141.006C439.692 141.003 440.846 141.425 441.756 142.195C442.666 142.966 443.271 144.035 443.464 145.211H325.487C325.479 142.356 326.292 139.56 327.828 137.154C329.365 134.749 331.561 132.836 334.155 131.644C336.749 130.452 339.63 130.032 342.457 130.432C345.283 130.832 347.934 132.037 350.095 133.902C351.164 130.818 352.929 128.021 355.252 125.728" stroke="#263238" stroke-linecap="round" stroke-linejoin="round"/>
<path d="M1 96.1775H118.977C118.985 93.3231 118.173 90.5265 116.636 88.1211C115.099 85.7157 112.903 83.803 110.309 82.6111C107.716 81.4191 104.834 80.9982 102.008 81.3985C99.1816 81.7988 96.5301 83.0034 94.3695 84.8688C92.7303 80.1338 89.4666 76.1327 85.1575 73.5755C80.8484 71.0184 75.7727 70.0706 70.8312 70.9004C65.8897 71.7301 61.402 74.2838 58.1645 78.1082C54.927 81.9326 53.1492 86.7803 53.1465 91.791V91.9194C52.501 91.0942 51.6883 90.4147 50.7618 89.9256C49.8353 89.4364 48.8159 89.1485 47.7704 89.0808C46.7249 89.0132 45.6769 89.1672 44.695 89.5328C43.7132 89.8985 42.8197 90.4675 42.0732 91.2025C41.5955 86.9846 39.5276 83.1075 36.2909 80.3612C33.0541 77.6148 28.892 76.2059 24.6526 76.4214C20.4132 76.6369 16.4155 78.4607 13.474 81.5211C10.5324 84.5816 8.86839 88.6484 8.82091 92.893C7.97982 92.2879 6.96827 91.9658 5.9322 91.9729C4.74567 91.9774 3.59914 92.4023 2.69619 93.1721C1.79323 93.9418 1.19227 95.0067 1 96.1775Z" fill="white" stroke="#263238" stroke-miterlimit="10"/>
<path d="M158.231 137.882L161.89 160.756" stroke="#D71635" stroke-miterlimit="10"/>
<path d="M144.397 145.981L159.622 164.415" stroke="#D71635" stroke-miterlimit="10"/>
<path d="M141.99 161.634L156.241 167.208" stroke="#D71635" stroke-miterlimit="10"/>
<path d="M69.6875 201.444V183.823" stroke="#263238" stroke-linecap="round" stroke-linejoin="round"/>
<path d="M28.1971 201.444H69.6875V188.445H28.1971V201.444Z" fill="white" stroke="#263238" stroke-linecap="round" stroke-linejoin="round"/>
<path d="M28.1973 201.444V183.823" stroke="#263238" stroke-linecap="round" stroke-linejoin="round"/>
<path d="M174.195 439.838H258.053V293.819H174.195V439.838Z" fill="white" stroke="#263238" stroke-linecap="round" stroke-linejoin="round"/>
<path d="M90.6038 439.837H174.462L174.462 239.682H90.6038L90.6038 439.837Z" fill="white" stroke="#263238" stroke-linecap="round" stroke-linejoin="round"/>
<path d="M6.3606 439.848H90.2188L90.2187 201.091H6.3606L6.3606 439.848Z" fill="white" stroke="#263238" stroke-linecap="round" stroke-linejoin="round"/>
<path d="M74.6084 216.145V430.797" stroke="#D71635" stroke-linecap="round" stroke-linejoin="round"/>
<path d="M56.2705 216.145V430.797" stroke="#D71635" stroke-linecap="round" stroke-linejoin="round"/>
<path d="M37.9326 216.145V430.797" stroke="#D71635" stroke-linecap="round" stroke-linejoin="round"/>
<path d="M19.6055 216.145V430.797" stroke="#D71635" stroke-linecap="round" stroke-linejoin="round"/>
<path d="M160.542 250.017V269.992V289.956V309.931V329.895V349.881V369.856V389.82V409.795V429.77V430.155" stroke="#D71635" stroke-linecap="round" stroke-linejoin="round"/>
<path d="M142.204 250.017V269.992V289.956V309.931V329.895V349.881V369.856V389.82V409.795V429.77V430.155" stroke="#D71635" stroke-linecap="round" stroke-linejoin="round"/>
<path d="M123.855 250.017V269.992V289.956V309.931V329.895V349.881V369.856V389.82V409.795V429.77V430.155" stroke="#D71635" stroke-linecap="round" stroke-linejoin="round"/>
<path d="M105.528 250.017V269.992V289.956V309.931V329.895V349.881V369.856V389.82V409.795V429.77V430.155" stroke="#D71635" stroke-linecap="round" stroke-linejoin="round"/>
<path d="M160.542 250.017H156.947H139.808H122.657H105.528" stroke="#D71635" stroke-linecap="round" stroke-linejoin="round"/>
<path d="M160.542 269.992H156.947H139.808H122.657H105.528" stroke="#D71635" stroke-linecap="round" stroke-linejoin="round"/>
<path d="M160.542 289.957H156.947H139.808H122.657H105.528" stroke="#D71635" stroke-linecap="round" stroke-linejoin="round"/>
<path d="M160.542 309.931H156.947H139.808H122.657H105.528" stroke="#D71635" stroke-linecap="round" stroke-linejoin="round"/>
<path d="M160.542 329.896H156.947H139.808H122.657H105.528" stroke="#D71635" stroke-linecap="round" stroke-linejoin="round"/>
<path d="M160.542 349.881H156.947H139.808H122.657H105.528" stroke="#D71635" stroke-linecap="round" stroke-linejoin="round"/>
<path d="M160.542 369.856H156.947H139.808H122.657H105.528" stroke="#D71635" stroke-linecap="round" stroke-linejoin="round"/>
<path d="M160.542 389.82H156.947H139.808H122.657H105.528" stroke="#D71635" stroke-linecap="round" stroke-linejoin="round"/>
<path d="M160.542 409.795H156.947H139.808H122.657H105.528" stroke="#D71635" stroke-linecap="round" stroke-linejoin="round"/>
<path d="M160.542 429.77H156.947H139.808H122.657H105.528" stroke="#D71635" stroke-linecap="round" stroke-linejoin="round"/>
<path d="M249.846 305.866H186.455" stroke="#D71635" stroke-linecap="round" stroke-linejoin="round"/>
<path d="M249.846 325.841H186.455" stroke="#D71635" stroke-linecap="round" stroke-linejoin="round"/>
<path d="M249.846 345.805H186.455" stroke="#D71635" stroke-linecap="round" stroke-linejoin="round"/>
<path d="M249.846 365.78H186.455" stroke="#D71635" stroke-linecap="round" stroke-linejoin="round"/>
<path d="M249.846 385.754H186.455" stroke="#D71635" stroke-linecap="round" stroke-linejoin="round"/>
<path d="M249.846 405.729H186.455" stroke="#D71635" stroke-linecap="round" stroke-linejoin="round"/>
<path d="M249.846 425.694H186.455" stroke="#D71635" stroke-linecap="round" stroke-linejoin="round"/>
<path d="M443.465 440.469H405.12H400.658H1" stroke="#263238" stroke-linecap="round" stroke-linejoin="round"/>
<path d="M146.687 439.228C146.12 439.495 142.001 439.645 136.748 439.731C126.049 439.912 110.653 439.827 110.653 439.827C110.653 439.827 109.819 439.827 109.498 435.654C109.177 431.482 111.231 428.165 111.466 426.421C112.536 418.418 109.808 415.08 109.765 414.492C109.723 413.903 124.744 413.572 124.744 413.572L129.665 413.24L128.595 420.28C128.528 420.679 128.493 421.084 128.488 421.489C128.387 423.979 129.167 426.424 130.692 428.395C132.216 430.366 134.387 431.736 136.823 432.263H137.048C137.401 431.931 143.467 429.128 145.949 433.001C147.308 435.109 146.687 439.228 146.687 439.228Z" fill="#263238"/>
<mask id="mask0_364_7664" style="mask-type:luminance" maskUnits="userSpaceOnUse" x="109" y="413" width="38" height="27">
<path d="M146.687 439.228C146.12 439.495 142.001 439.645 136.748 439.731C126.049 439.912 110.653 439.827 110.653 439.827C110.653 439.827 109.819 439.827 109.498 435.654C109.177 431.482 111.231 428.165 111.466 426.421C112.536 418.418 109.808 415.08 109.765 414.492C109.723 413.903 124.744 413.572 124.744 413.572L129.665 413.24L128.595 420.28C128.528 420.679 128.493 421.084 128.488 421.489C128.387 423.979 129.167 426.424 130.692 428.395C132.216 430.366 134.387 431.736 136.823 432.263H137.048C137.401 431.931 143.467 429.128 145.949 433.001C147.308 435.109 146.687 439.228 146.687 439.228Z" fill="white"/>
</mask>
<g mask="url(#mask0_364_7664)">
<path opacity="0.2" d="M146.687 439.228C146.12 439.495 142.001 439.645 136.748 439.731C126.049 439.912 110.653 439.827 110.653 439.827C110.653 439.827 109.819 439.827 109.498 435.654C109.177 431.482 111.231 428.165 111.466 426.421C112.536 418.418 109.808 415.08 109.765 414.492C109.723 413.903 124.744 413.572 124.744 413.572L129.665 413.24L128.595 420.28C128.528 420.679 128.493 421.084 128.488 421.489C128.387 423.979 129.167 426.424 130.692 428.395C132.216 430.366 134.387 431.736 136.823 432.263H137.048C137.401 431.931 143.467 429.128 145.949 433.001C147.308 435.109 146.687 439.228 146.687 439.228Z" fill="white"/>
<path opacity="0.3" d="M136.748 439.752C126.049 439.934 110.653 439.848 110.653 439.848C110.653 439.848 109.819 439.848 109.498 435.675C109.177 431.503 111.231 428.186 111.466 426.442C112.536 418.44 109.808 415.101 109.765 414.513C109.723 413.925 124.744 413.593 124.744 413.593L129.665 413.261L128.595 420.301C128.528 420.701 128.493 421.105 128.488 421.51C125.097 424.313 122.401 426.571 122.401 426.571C122.401 426.571 136.149 431.107 136.748 439.752Z" fill="black"/>
</g>
<path d="M146.687 439.228C146.12 439.495 142.001 439.645 136.748 439.731C126.049 439.912 110.653 439.827 110.653 439.827C110.653 439.827 109.819 439.827 109.498 435.654C109.177 431.482 111.231 428.165 111.466 426.421C112.536 418.418 109.808 415.08 109.765 414.492C109.723 413.903 124.744 413.572 124.744 413.572L129.665 413.24L128.595 420.28C128.528 420.679 128.493 421.084 128.488 421.489C128.387 423.979 129.167 426.424 130.692 428.395C132.216 430.366 134.387 431.736 136.823 432.263H137.048C137.401 431.931 143.467 429.128 145.949 433.001C147.308 435.109 146.687 439.228 146.687 439.228Z" stroke="#263238" stroke-linecap="round" stroke-linejoin="round"/>
<path d="M132.917 404.039C133.42 406.724 134.672 407.484 133.859 408.746C133.741 408.939 133.623 409.164 133.506 409.399C132.874 410.704 132.2 412.545 129.718 413.24C126.798 414.064 112.814 414.823 109.797 414.449C106.78 414.075 105.068 411.239 104.897 408.843C104.726 406.446 106.031 404.948 105.828 402.263C105.624 399.577 103.527 398.796 103.388 397.01C103.249 395.223 104.982 392.623 104.961 390.837C104.961 387.07 105.025 391.179 105.774 369.77C106.191 357.563 109.144 354.91 105.774 341.065C104.554 336.069 91.459 245.609 91.459 245.609L131.847 248.027C131.847 248.027 132.489 263.434 133.217 281.633C134.137 304.785 135.196 332.452 135.228 338.679C135.292 351.325 134.158 369.043 133.206 384.77C132.81 391.478 132.136 396.1 133.206 398.679C133.333 398.948 133.409 399.238 133.431 399.535C133.613 401.236 132.404 401.354 132.917 404.039Z" fill="#D71635"/>
<mask id="mask1_364_7664" style="mask-type:luminance" maskUnits="userSpaceOnUse" x="91" y="245" width="45" height="170">
<path d="M132.917 404.039C133.42 406.724 134.672 407.484 133.859 408.746C133.741 408.939 133.623 409.164 133.506 409.399C132.874 410.704 132.2 412.545 129.718 413.24C126.798 414.064 112.814 414.823 109.797 414.449C106.78 414.075 105.068 411.239 104.897 408.843C104.726 406.446 106.031 404.948 105.828 402.263C105.624 399.577 103.527 398.796 103.388 397.01C103.249 395.223 104.982 392.623 104.961 390.837C104.961 387.07 105.025 391.179 105.774 369.77C106.191 357.563 109.144 354.91 105.774 341.065C104.554 336.069 91.459 245.609 91.459 245.609L131.847 248.027C131.847 248.027 132.489 263.434 133.217 281.633C134.137 304.785 135.196 332.452 135.228 338.679C135.292 351.325 134.158 369.043 133.206 384.77C132.81 391.478 132.136 396.1 133.206 398.679C133.333 398.948 133.409 399.238 133.431 399.535C133.613 401.236 132.404 401.354 132.917 404.039Z" fill="white"/>
</mask>
<g mask="url(#mask1_364_7664)">
<path opacity="0.3" d="M133.506 409.399C132.875 410.704 132.2 412.545 129.718 413.24C126.798 414.064 112.814 414.823 109.797 414.449C106.78 414.075 105.068 411.239 104.897 408.843C104.726 406.446 106.031 404.948 105.828 402.263C105.624 399.577 103.527 398.796 103.388 397.01C103.249 395.223 104.982 392.623 104.961 390.837C104.961 387.07 105.025 391.179 105.774 369.77C106.191 357.563 109.144 354.91 105.774 341.065C104.554 336.069 91.459 245.609 91.459 245.609L131.847 248.027C131.847 248.027 132.489 263.434 133.217 281.633C128.349 301.875 122.7 324.15 120.581 327.895L123.92 333.726C123.92 333.726 115.938 352.245 115.938 354.482C115.938 356.718 118.634 377.634 119.565 381.978C120.496 386.322 115.938 383.23 115.938 386.889C115.938 390.259 115.574 406.66 133.506 409.399Z" fill="black"/>
</g>
<path d="M132.917 404.039C133.42 406.724 134.672 407.484 133.859 408.746C133.741 408.939 133.623 409.164 133.506 409.399C132.874 410.704 132.2 412.545 129.718 413.24C126.798 414.064 112.814 414.823 109.797 414.449C106.78 414.075 105.068 411.239 104.897 408.843C104.726 406.446 106.031 404.948 105.828 402.263C105.624 399.578 103.527 398.796 103.388 397.01C103.249 395.223 104.982 392.623 104.961 390.836C104.961 387.07 105.025 391.179 105.774 369.77C106.191 357.563 109.144 354.91 105.774 341.065C104.554 336.069 91.459 245.609 91.459 245.609L131.847 248.027C131.847 248.027 132.489 263.434 133.217 281.633C134.137 304.785 135.196 332.452 135.228 338.679C135.292 351.325 134.158 369.043 133.206 384.77C132.81 391.478 132.136 396.1 133.206 398.679C133.333 398.948 133.409 399.238 133.431 399.535C133.613 401.236 132.404 401.354 132.917 404.039Z" stroke="#263238" stroke-linecap="round" stroke-linejoin="round"/>
<path d="M129.825 277.268C129.825 277.268 124.872 281.547 120.646 280.777" stroke="#263238" stroke-linecap="round" stroke-linejoin="round"/>
<path d="M129.333 285.356C129.333 285.356 120.988 283.344 120.036 281.654" stroke="#263238" stroke-linecap="round" stroke-linejoin="round"/>
<path d="M118.634 323.476C118.634 323.476 123.138 335.245 128.145 338.091" stroke="#263238" stroke-linecap="round" stroke-linejoin="round"/>
<path d="M128.371 401.589C128.371 401.589 118.367 404.681 113.392 402.423C108.417 400.166 117.319 407.591 126.67 406.938" stroke="#263238" stroke-linecap="round" stroke-linejoin="round"/>
<path d="M114.205 348.233C114.205 348.233 114.291 379.528 122.454 385.755" stroke="#263238" stroke-linecap="round" stroke-linejoin="round"/>
<path d="M122.593 418.408C124.523 417.638 126.572 417.207 128.648 417.135" stroke="#263238" stroke-linecap="round" stroke-linejoin="round"/>
<path d="M122.774 422.462C122.774 422.462 125.674 421.393 127.771 420.965" stroke="#263238" stroke-linecap="round" stroke-linejoin="round"/>
<path d="M123.32 426.346L127.996 424.945" stroke="#263238" stroke-linecap="round" stroke-linejoin="round"/>
<path d="M125.6 429.524L129.441 428.015" stroke="#263238" stroke-linecap="round" stroke-linejoin="round"/>
<path d="M129.954 432.252L132.19 430.53" stroke="#263238" stroke-linecap="round" stroke-linejoin="round"/>
<path d="M123.555 414.545C123.555 414.545 123.181 425.244 126.562 428.764C129.943 432.284 133.527 432.359 133.216 433.707" stroke="#263238" stroke-linecap="round" stroke-linejoin="round"/>
<path d="M92.7108 413.293C92.7108 413.293 77.5825 413.604 77.529 414.203C77.4755 414.802 79.6688 418.129 77.1759 426.122C76.641 427.865 73.9663 431.171 73.6239 435.333C73.2815 439.495 74.0626 439.495 74.0626 439.495C74.0626 439.495 108.299 439.688 110.193 438.907C110.193 438.907 111.519 434.798 110.546 432.755C108.62 428.7 101.548 431.974 101.773 432.017H101.548C96.2735 430.85 93.6202 425.597 95.4176 420.034L97.6965 413.005L92.7108 413.293Z" fill="#263238"/>
<mask id="mask2_364_7664" style="mask-type:luminance" maskUnits="userSpaceOnUse" x="73" y="413" width="38" height="27">
<path d="M92.7108 413.293C92.7108 413.293 77.5825 413.604 77.529 414.203C77.4755 414.802 79.6688 418.129 77.1759 426.122C76.641 427.865 73.9663 431.171 73.6239 435.333C73.2815 439.495 74.0626 439.495 74.0626 439.495C74.0626 439.495 108.299 439.688 110.193 438.907C110.193 438.907 111.519 434.798 110.546 432.755C108.62 428.7 101.548 431.974 101.773 432.017H101.548C96.2735 430.85 93.6202 425.597 95.4176 420.034L97.6965 413.005L92.7108 413.293Z" fill="white"/>
</mask>
<g mask="url(#mask2_364_7664)">
<path opacity="0.25" d="M92.7108 413.293C92.7108 413.293 77.5825 413.604 77.529 414.203C77.4755 414.802 79.6688 418.129 77.1759 426.122C76.641 427.865 73.9663 431.171 73.6239 435.333C73.2815 439.495 74.0626 439.495 74.0626 439.495C74.0626 439.495 108.299 439.688 110.193 438.907C110.193 438.907 111.519 434.798 110.546 432.755C108.62 428.7 101.548 431.974 101.773 432.017H101.548C96.2735 430.85 93.6202 425.597 95.4176 420.034L97.6965 413.005L92.7108 413.293Z" fill="white"/>
</g>
<path d="M92.7108 413.293C92.7108 413.293 77.5825 413.604 77.529 414.203C77.4755 414.802 79.6688 418.129 77.1759 426.122C76.641 427.865 73.9663 431.171 73.6239 435.333C73.2815 439.495 74.0626 439.495 74.0626 439.495C74.0626 439.495 108.299 439.688 110.193 438.907C110.193 438.907 111.519 434.798 110.546 432.755C108.62 428.7 101.548 431.974 101.773 432.017H101.548C96.2735 430.85 93.6202 425.597 95.4176 420.034L97.6965 413.005L92.7108 413.293Z" stroke="#263238" stroke-linecap="round" stroke-linejoin="round"/>
<path d="M128.263 248.027L88.2921 245.609C88.2921 245.609 85.8421 335.919 86.1524 340.905C87.1474 354.728 83.7451 357.37 81.2201 369.567C76.7908 390.965 77.3899 386.835 76.7908 390.59C76.5019 392.377 74.3193 394.977 74.1482 396.764C73.977 398.55 75.9456 399.331 75.6888 402.006C75.432 404.681 73.8486 406.2 73.6239 408.575C73.3992 410.95 74.6082 413.796 77.5611 414.171C80.514 414.545 94.6794 413.786 97.6965 412.962C100.714 412.138 101.58 409.752 102.607 408.479C103.634 407.206 102.522 406.457 102.468 403.771C102.415 401.086 103.624 401.011 103.784 399.257C103.813 398.969 103.788 398.679 103.709 398.401C103.057 395.844 104.533 391.232 106.074 384.492C109.711 368.797 113.916 351.101 116.013 338.487C117.083 332.196 120.838 304.015 123.92 280.713C123.92 280.713 126.872 275.951 128.37 266.729" fill="#D71635"/>
<mask id="mask3_364_7664" style="mask-type:luminance" maskUnits="userSpaceOnUse" x="73" y="245" width="56" height="170">
<path d="M128.263 248.027L88.2921 245.609C88.2921 245.609 85.8421 335.919 86.1524 340.905C87.1474 354.728 83.7451 357.37 81.2201 369.567C76.7908 390.965 77.3899 386.835 76.7908 390.59C76.5019 392.377 74.3193 394.977 74.1482 396.764C73.977 398.55 75.9456 399.331 75.6888 402.006C75.432 404.681 73.8486 406.2 73.6239 408.575C73.3992 410.95 74.6082 413.796 77.5611 414.171C80.514 414.545 94.6794 413.786 97.6965 412.962C100.714 412.138 101.58 409.752 102.607 408.479C103.634 407.206 102.522 406.457 102.468 403.771C102.415 401.086 103.624 401.011 103.784 399.257C103.813 398.969 103.788 398.679 103.709 398.401C103.057 395.844 104.533 391.232 106.074 384.492C109.711 368.797 113.916 351.101 116.013 338.487C117.083 332.196 120.838 304.015 123.92 280.713C123.92 280.713 126.872 275.951 128.37 266.729" fill="white"/>
</mask>
<g mask="url(#mask3_364_7664)">
<path opacity="0.3" d="M88.1636 248.744L87.8105 262.236C94.5754 262.784 101.374 262.784 108.138 262.236C121.341 261.059 129.376 255.206 129.376 255.206L128.306 248.027C128.306 248.027 113.327 252.061 105.956 251.494C98.5844 250.927 91.5231 250.039 88.1636 248.744Z" fill="black"/>
</g>
<path d="M128.263 248.027L88.2921 245.609C88.2921 245.609 85.8421 335.919 86.1524 340.905C87.1474 354.728 83.7451 357.37 81.2201 369.567C76.7908 390.965 77.3899 386.835 76.7908 390.59C76.5019 392.377 74.3193 394.977 74.1482 396.764C73.977 398.55 75.9456 399.331 75.6888 402.006C75.432 404.681 73.8486 406.2 73.6239 408.575C73.3992 410.95 74.6082 413.796 77.5611 414.171C80.514 414.545 94.6794 413.786 97.6965 412.962C100.714 412.138 101.58 409.752 102.607 408.479C103.634 407.206 102.522 406.457 102.468 403.771C102.415 401.086 103.624 401.011 103.784 399.257C103.813 398.969 103.788 398.679 103.709 398.401C103.057 395.844 104.533 391.232 106.074 384.492C109.711 368.797 113.916 351.101 116.013 338.487C117.083 332.196 120.838 304.015 123.92 280.713C123.92 280.713 126.872 275.951 128.37 266.729" stroke="#263238" stroke-linecap="round" stroke-linejoin="round"/>
<path d="M108.513 357.253C108.513 357.253 94.69 380.79 81.0488 388.483" stroke="#263238" stroke-linecap="round" stroke-linejoin="round"/>
<path d="M80.8135 401.589L95.6529 403.461C96.7228 403.6 98.1029 404.028 97.996 405.162C97.889 406.296 96.7442 406.81 95.7599 407.163C92.4558 408.395 88.8641 408.637 85.4247 407.858" stroke="#263238" stroke-linecap="round" stroke-linejoin="round"/>
<path d="M81.252 394.453C86.5826 397.509 92.6007 399.166 98.7447 399.267" stroke="#263238" stroke-linecap="round" stroke-linejoin="round"/>
<path d="M90.56 351.614C90.56 351.614 98.0492 351.903 101.901 351.561C99.0442 355.477 94.4116 357.178 89.9395 357.402" stroke="#263238" stroke-linecap="round" stroke-linejoin="round"/>
<path d="M96.1668 256.801C96.1668 256.801 95.0969 295.252 94.7118 311.247C94.3266 327.242 93.6419 345.89 93.6419 345.89C93.2787 346.461 93.0322 347.098 92.9165 347.765C92.8008 348.431 92.8183 349.114 92.9678 349.774L93.567 351.743L93.246 357.295C92.8161 357.8 92.5039 358.394 92.3318 359.034C92.1597 359.675 92.1321 360.345 92.251 360.997C92.7646 363.019 88.6134 377.11 88.6134 377.11L87.8965 378.041C87.1633 378.918 86.6728 379.973 86.4739 381.099C86.2749 382.225 86.3744 383.384 86.7625 384.46L85.2753 396.528C84.4758 397.183 83.9401 398.105 83.767 399.123C83.594 400.142 83.7953 401.189 84.3338 402.07L82.943 408.361C82.2373 408.96 81.7655 409.788 81.6109 410.7C81.4563 411.612 81.6287 412.55 82.0977 413.347L82.3331 413.7" stroke="#263238" stroke-linecap="round" stroke-linejoin="round"/>
<path d="M165.399 185.888C164.329 188.231 155.214 194.447 155.214 194.447C155.205 193.42 155.425 192.405 155.855 191.473C156.508 190.467 156.925 189.504 157.343 188.905C157.45 187.281 156.916 185.679 155.855 184.444C154.614 183.063 153.641 186.509 153.095 188.798C152.549 191.088 148.976 194.576 149.137 196.287C149.447 198.256 149.843 200.192 150.345 202.118C150.345 202.118 135.1 207.468 133.42 204.258C129.863 197.363 125.934 190.666 121.651 184.198C118.067 189.205 120.891 196.116 122.913 204.611C124.936 213.106 131.162 225.003 131.162 225.003C142.311 219.654 154.978 205.745 154.978 205.745C154.978 205.745 157.952 204.419 161.633 203.156C165.313 201.894 164.778 200.813 165.367 197.197C165.955 193.58 169.047 188.638 168.865 186.776C168.683 184.914 166.49 183.556 165.399 185.888Z" fill="white" stroke="#263238" stroke-linecap="round" stroke-linejoin="round"/>
<path d="M129.333 203.958C129.194 211.704 130.724 237.97 132.382 248.391L87.0079 247.246V246.487C90.3353 234.161 88.1741 220.809 82.9209 209.222C80.1392 203.07 78.8981 195.207 77.4645 187.76C73.8161 168.802 82.9744 162.928 90.6242 162.201C93.5771 162.061 93.8338 160.061 95.9736 160.221C97.4505 160.401 98.9489 160.217 100.339 159.686C101.291 163.57 106.566 174.975 108.374 176.28C109.252 176.974 110.318 177.387 111.434 177.467C112.55 177.547 113.664 177.29 114.633 176.73C116.451 175.456 116.954 173.028 117.371 170.845C117.559 169.662 117.897 168.508 118.377 167.411C121.052 168.748 125.717 170.332 129.183 176.569C133.463 190.339 131.109 181.512 134.404 201.712C134.971 204.804 129.333 203.958 129.333 203.958Z" fill="white" stroke="#263238" stroke-linecap="round" stroke-linejoin="round"/>
<path d="M122.197 168.117L117.811 166.587C120.785 176.805 118.207 188.413 110.685 183.823C103.164 179.233 100.179 166.041 97.9323 160.285C96.7554 159.922 91.973 159.75 89.4909 161.655C92.08 166.394 99.1199 175.81 98.2961 183.459C97.3546 192.018 90.6249 199.615 78.0537 191.013C79.7655 203.98 85.2006 213.331 86.2491 217.76C90.0793 233.808 87.5223 236.002 85.7355 251.836C103.924 261.112 125.931 256.501 135.571 253.676C132.629 237.542 133.923 196.886 122.197 168.117Z" fill="#D71635"/>
<mask id="mask4_364_7664" style="mask-type:luminance" maskUnits="userSpaceOnUse" x="78" y="160" width="58" height="98">
<path d="M122.197 168.117L117.811 166.587C120.785 176.805 118.207 188.413 110.685 183.823C103.164 179.233 100.179 166.041 97.9323 160.285C96.7554 159.922 91.973 159.75 89.4909 161.655C92.08 166.394 99.1199 175.81 98.2961 183.459C97.3546 192.018 90.6249 199.615 78.0537 191.013C79.7655 203.98 85.2006 213.331 86.2491 217.76C90.0793 233.808 87.5223 236.002 85.7355 251.836C103.924 261.112 125.931 256.501 135.571 253.676C132.629 237.542 133.923 196.886 122.197 168.117Z" fill="white"/>
</mask>
<g mask="url(#mask4_364_7664)">
<path opacity="0.3" d="M94.4766 236.226C94.4766 236.226 124.145 249.172 128.371 236.601C120.583 238.292 112.562 238.621 104.662 237.574L94.4766 236.226Z" fill="black"/>
<path opacity="0.3" d="M83.96 208.217L105.518 191.098C105.518 191.098 109.798 202.867 98.3286 209.618C90.5719 214.187 83.96 208.217 83.96 208.217Z" fill="black"/>
</g>
<path d="M122.197 168.117L117.811 166.587C120.785 176.805 118.207 188.413 110.685 183.823C103.164 179.233 100.179 166.041 97.9323 160.285C96.7554 159.922 91.973 159.75 89.4909 161.655C92.08 166.394 99.1199 175.81 98.2961 183.459C97.3546 192.018 90.6249 199.615 78.0537 191.013C79.7655 203.98 85.2006 213.331 86.2491 217.76C90.0793 233.808 87.5223 236.002 85.7355 251.836C103.924 261.112 125.931 256.501 135.571 253.676C132.629 237.542 133.923 196.886 122.197 168.117Z" stroke="#263238" stroke-linecap="round" stroke-linejoin="round"/>
<path d="M128.371 236.184C128.185 236.989 127.818 237.742 127.297 238.383C126.776 239.025 126.115 239.539 125.364 239.885" stroke="#263238" stroke-linecap="round" stroke-linejoin="round"/>
<path d="M120.582 241.041C111.558 241.863 102.49 240.049 94.4766 235.82" stroke="#263238" stroke-linecap="round" stroke-linejoin="round"/>
<path d="M162.157 168.535L152.871 193.302C152.706 193.744 152.644 194.218 152.691 194.687C152.737 195.156 152.89 195.608 153.138 196.009L154.861 198.77C155.706 200.128 158.691 200.535 159.975 199.658C160.444 199.342 160.815 198.901 161.045 198.384L170.203 173.638C170.44 173.072 170.504 172.449 170.386 171.847C170.268 171.244 169.973 170.691 169.54 170.257L166.651 167.465C166.389 167.203 166.077 166.998 165.732 166.863C165.388 166.728 165.019 166.666 164.65 166.68C164.28 166.694 163.917 166.784 163.584 166.945C163.251 167.106 162.955 167.334 162.714 167.614C162.473 167.884 162.285 168.196 162.157 168.535Z" fill="#263238"/>
<path d="M78.0322 175.2C78.2538 178.896 79.1456 182.521 80.6642 185.899C85.1256 196.512 102.158 222.928 105.892 224.714C109.626 226.501 147.789 205.959 150.55 203.145C151.334 202.269 151.863 201.194 152.078 200.037C152.293 198.88 152.186 197.687 151.769 196.587C151.769 196.587 151.716 199.219 153.962 198.727C155.375 198.416 154.209 194.051 154.209 194.051C154.209 194.051 156.798 192.222 154.326 188.841C154.326 188.841 157.814 188.841 157.536 186.209C157.44 185.139 147.169 185 145.596 187.964C143.681 191.558 141.776 200.931 141.776 200.931C141.776 200.931 116.912 207.35 111.755 208.302L98.3067 178.805" fill="white"/>
<path d="M78.0322 175.2C78.2538 178.896 79.1456 182.521 80.6642 185.899C85.1256 196.512 102.158 222.928 105.892 224.714C109.626 226.501 147.789 205.959 150.55 203.145C151.334 202.269 151.863 201.194 152.078 200.037C152.293 198.88 152.186 197.687 151.769 196.587C151.769 196.587 151.716 199.219 153.962 198.727C155.375 198.416 154.209 194.051 154.209 194.051C154.209 194.051 156.798 192.222 154.326 188.841C154.326 188.841 157.814 188.841 157.536 186.209C157.44 185.139 147.169 185 145.596 187.964C143.681 191.558 141.776 200.931 141.776 200.931C141.776 200.931 116.912 207.35 111.755 208.302L98.3067 178.805" stroke="#263238" stroke-linecap="round" stroke-linejoin="round"/>
<path d="M150.945 204.739C151.72 202.787 153.057 201.107 154.786 199.914C156.798 198.962 159.569 198.662 161.762 198.245C161.762 198.245 163.474 190.991 164.405 191.195C167.24 191.783 165.025 198.449 165.025 198.449" fill="white"/>
<path d="M150.945 204.739C151.72 202.787 153.057 201.107 154.786 199.914C156.798 198.962 159.569 198.662 161.762 198.245C161.762 198.245 163.474 190.991 164.405 191.195C167.24 191.783 165.025 198.449 165.025 198.449" stroke="#263238" stroke-linecap="round" stroke-linejoin="round"/>
<path d="M168.437 188.584C168.071 188.218 167.581 188.003 167.064 187.981C166.547 187.959 166.04 188.133 165.645 188.466C164.265 189.718 162.168 193.26 159.932 195.153" stroke="#263238" stroke-linecap="round" stroke-linejoin="round"/>
<path d="M148.591 196.202C149.201 194.854 153.534 192.575 154.39 195.495" stroke="#263238" stroke-linecap="round" stroke-linejoin="round"/>
<path d="M148.591 192.607C148.591 192.607 153.609 189.868 154.614 193.259" stroke="#263238" stroke-linecap="round" stroke-linejoin="round"/>
<path d="M149.223 189.397C149.223 189.397 151.309 188.991 151.769 188.948C153.427 188.787 155.235 188.573 156.134 188.573" stroke="#263238" stroke-linecap="round" stroke-linejoin="round"/>
<path d="M123.919 280.777C123.919 280.777 117.232 274.882 113.349 273.758L123.919 280.777Z" fill="#D71635"/>
<path d="M123.919 280.777C123.919 280.777 117.232 274.882 113.349 273.758" stroke="#263238" stroke-linecap="round" stroke-linejoin="round"/>
<path d="M90.1533 418.472C92.1245 417.699 94.211 417.261 96.3266 417.177" stroke="#263238" stroke-linecap="round" stroke-linejoin="round"/>
<path d="M90.0039 422.634C90.0039 422.634 92.9889 421.564 95.118 421.104" stroke="#263238" stroke-linecap="round" stroke-linejoin="round"/>
<path d="M90.207 426.539L95.0002 425.126" stroke="#263238" stroke-linecap="round" stroke-linejoin="round"/>
<path d="M92.208 429.77L96.188 428.24" stroke="#263238" stroke-linecap="round" stroke-linejoin="round"/>
<path d="M96.3271 432.541L98.713 430.797" stroke="#263238" stroke-linecap="round" stroke-linejoin="round"/>
<path d="M91.4591 414.545C91.4591 414.545 90.1538 425.458 93.2458 429C96.3378 432.541 99.8898 432.648 99.4726 434.028" stroke="#263238" stroke-linecap="round" stroke-linejoin="round"/>
<path d="M117.393 166.148C117.393 166.148 121.908 183.748 114.665 185.085C104.79 186.904 97.9316 160.253 97.9316 160.253C99.4402 160.157 99.6221 159.526 100.938 158.777C100.938 158.777 111.969 180.838 117.393 166.148Z" fill="#263238"/>
<path d="M87.3616 162.811C87.3616 162.811 77.0371 164.854 77.005 180.207C76.9729 195.56 83.7774 208.345 83.7774 208.345C83.7774 208.345 91.8337 207.692 96.9264 203.959C107.625 196.148 105.892 191.762 105.892 191.762L100.286 180.656C100.286 180.656 98.4456 173.542 90.4428 162.201L87.3616 162.811Z" fill="#263238"/>
<path d="M122.828 168.727C128.456 184.7 128.713 190.681 129.729 198.053C129.729 198.053 135.239 196.983 136.084 195.763C136.084 195.763 133.409 182.689 130.521 175.927C128.68 171.637 126.262 170.139 122.828 168.727Z" fill="#263238"/>
<path d="M117.383 150.592C117.383 150.592 116.58 165.228 116.634 166.405C116.73 168.62 118.335 171.562 116.859 173.221C116.044 173.988 115.019 174.493 113.914 174.67C112.81 174.848 111.677 174.689 110.664 174.216C108.657 173.218 106.921 171.749 105.603 169.936C103.066 166.828 100.864 163.461 99.0342 159.89C100.258 158.712 101.158 157.238 101.645 155.61C101.645 155.61 101.934 154.369 101.944 154.305C102.317 151.289 102.278 148.237 101.827 145.232C101.315 141.514 100.451 137.853 99.2482 134.298L117.383 150.592Z" fill="white" stroke="#263238" stroke-linecap="round" stroke-linejoin="round"/>
<path d="M102.169 164.565C104.701 165.392 107.157 166.437 109.508 167.689L102.169 164.565Z" fill="#263238"/>
<path d="M102.169 164.565C104.701 165.392 107.157 166.437 109.508 167.689" stroke="#263238" stroke-linecap="round" stroke-linejoin="round"/>
<path d="M99.9323 115.19C99.9323 115.19 90.8168 120.4 95.535 133.998C100.253 147.597 110.77 162.789 120.303 160.746C129.836 158.702 132.307 139.765 127.268 127.14C122.229 114.515 109.39 107.529 99.9323 115.19Z" fill="white" stroke="#263238" stroke-linecap="round" stroke-linejoin="round"/>
<path d="M127.119 140.289C127.183 141.359 126.744 142.343 126.145 142.429C125.546 142.515 125 141.573 124.936 140.46C124.872 139.348 125.289 138.417 125.91 138.374C126.53 138.331 127.055 139.166 127.119 140.289Z" fill="#263238"/>
<path d="M117.821 139.85C117.885 140.92 117.457 141.894 116.869 141.937C116.28 141.98 115.713 141.081 115.649 139.979C115.585 138.877 116.013 137.925 116.623 137.839C117.232 137.753 117.746 138.716 117.821 139.85Z" fill="#263238"/>
<path d="M121.32 117.533C115.211 111.584 106.898 109.744 100.243 115.125C100.243 115.125 91.1383 120.336 95.8565 133.945C97 137.189 98.384 140.343 99.997 143.381L100.168 143.531C100.168 143.531 97.1725 140.546 109.059 133.977C112.964 131.773 118.731 118.025 121.32 117.533Z" fill="#263238" stroke="#263238" stroke-linecap="round" stroke-linejoin="round"/>
<path d="M111.776 121.994C111.776 121.994 112.611 112.526 119.201 112.205C122.636 112.033 127.172 116.645 127.761 119.073C128.13 120.718 128.968 122.22 130.174 123.397C131.38 124.575 132.902 125.377 134.554 125.707C134.554 125.707 132.65 132.126 128.937 132.597C122.807 133.346 119.629 131.912 115.671 126.509C114.565 124.94 113.319 123.476 111.948 122.133L111.776 121.994Z" fill="#263238" stroke="#263238" stroke-linecap="round" stroke-linejoin="round"/>
<path d="M101.966 140.182C101.966 140.182 98.3601 132.757 95.1505 140.931C93.1498 146.024 101.153 150.1 103.891 148.752" fill="white"/>
<path d="M101.966 140.182C101.966 140.182 98.3601 132.757 95.1505 140.931C93.1498 146.024 101.153 150.1 103.891 148.752" stroke="#263238" stroke-linecap="round" stroke-linejoin="round"/>
<path d="M123.427 135.678C122.82 136.349 122.382 137.156 122.147 138.03C121.913 138.904 121.889 139.821 122.079 140.706C122.356 142.649 123.014 144.518 124.016 146.206L119.437 147.671" stroke="#263238" stroke-linecap="round" stroke-linejoin="round"/>
<path d="M115.425 151.02C116.145 151.739 117.054 152.237 118.047 152.457C119.04 152.677 120.075 152.609 121.031 152.261" stroke="#263238" stroke-linecap="round" stroke-linejoin="round"/>
<path d="M110.3 135.549C110.3 135.549 113.509 131.997 117.382 133.709" stroke="#263238" stroke-linecap="round" stroke-linejoin="round"/>
<path d="M125.192 134.608C125.192 134.608 129.397 133.292 128.862 137.005" stroke="#263238" stroke-linecap="round" stroke-linejoin="round"/>
<path d="M101.89 144.248C101.518 144.26 101.152 144.154 100.844 143.944C100.536 143.735 100.303 143.433 100.179 143.082C99.8684 142.408 99.7828 141.637 99.4725 140.942C99.3445 140.591 99.1091 140.29 98.7999 140.08C98.4906 139.871 98.1233 139.764 97.75 139.776" fill="#263238"/>
<path d="M101.89 144.248C101.518 144.26 101.152 144.154 100.844 143.944C100.536 143.735 100.303 143.433 100.179 143.082C99.8684 142.408 99.7828 141.637 99.4725 140.942C99.3445 140.591 99.1091 140.29 98.7999 140.08C98.4906 139.871 98.1233 139.764 97.75 139.776" stroke="#263238" stroke-linecap="round" stroke-linejoin="round"/>
<path d="M115.232 114.901C114.777 112.987 114.057 111.147 113.092 109.433C113.092 109.433 114.836 108.995 115.799 108.792C115.585 110.664 115.424 113.018 115.232 114.901Z" fill="#263238" stroke="#263238" stroke-linecap="round" stroke-linejoin="round"/>
<path d="M117.061 160.339L117.136 163.549C116.431 163.86 115.652 163.964 114.889 163.848C110.781 163.367 106.641 154.219 106.384 153.695L106.469 153.791C111.327 159.152 114.932 160.307 117.061 160.339Z" fill="#263238"/>
<path d="M255.859 191.131H282.896" stroke="#263238" stroke-linecap="round" stroke-linejoin="round"/>
<path d="M224.843 191.131H252.296" stroke="#263238" stroke-linecap="round" stroke-linejoin="round"/>
<path d="M210.218 191.131H218.659" stroke="#263238" stroke-linecap="round" stroke-linejoin="round"/>
<path d="M232.418 205.809H282.788" stroke="#263238" stroke-linecap="round" stroke-linejoin="round"/>
<path d="M218.659 205.809H224.843" stroke="#263238" stroke-linecap="round" stroke-linejoin="round"/>
<path d="M254.961 220.499H282.682" stroke="#263238" stroke-linecap="round" stroke-linejoin="round"/>
<path d="M227.101 220.499H250.863" stroke="#263238" stroke-linecap="round" stroke-linejoin="round"/>
<path d="M251.162 235.178H282.574" stroke="#263238" stroke-linecap="round" stroke-linejoin="round"/>
<path d="M235.542 235.178H246.701" stroke="#263238" stroke-linecap="round" stroke-linejoin="round"/>
<path d="M343.537 235.713H264.814L268.762 190.574H347.485L343.537 235.713Z" fill="white" stroke="#263238" stroke-linecap="round" stroke-linejoin="round"/>
<path d="M347.485 190.585H268.763" stroke="#263238" stroke-linecap="round" stroke-linejoin="round"/>
<path d="M343.537 235.713H264.814L291.722 210.164L305.395 221.815L321.401 209.939L343.537 235.713Z" fill="white" stroke="#263238" stroke-linecap="round" stroke-linejoin="round"/>
<path d="M347.485 190.574L321.401 209.939L305.396 221.815L291.723 210.164L268.763 190.574H347.485Z" fill="white" stroke="#263238" stroke-linecap="round" stroke-linejoin="round"/>
<path d="M202.686 191.131H182.925" stroke="#263238" stroke-linecap="round" stroke-linejoin="round"/>
<path d="M278.402 139.422C262.631 152.261 233.52 160.103 233.52 160.103L248.188 144.387C241.033 142.083 234.858 137.443 230.655 131.211C226.451 124.979 224.463 117.516 225.007 110.019C225.552 102.521 228.598 95.4241 233.658 89.865C238.718 84.3059 245.498 80.607 252.912 79.3615C260.325 78.116 267.941 79.396 274.54 82.9963C281.139 86.5965 286.338 92.3084 289.303 99.2161C292.267 106.124 292.827 113.827 290.891 121.09C288.955 128.354 284.636 134.757 278.626 139.273" fill="white"/>
<path d="M278.402 139.422C262.631 152.261 233.52 160.103 233.52 160.103L248.188 144.387C241.033 142.083 234.858 137.443 230.655 131.211C226.451 124.979 224.463 117.516 225.007 110.019C225.552 102.521 228.598 95.4241 233.658 89.865C238.718 84.3059 245.498 80.607 252.912 79.3615C260.325 78.116 267.941 79.396 274.54 82.9963C281.139 86.5965 286.338 92.3084 289.303 99.2161C292.267 106.124 292.827 113.827 290.891 121.09C288.955 128.354 284.636 134.757 278.626 139.273" stroke="#263238" stroke-linecap="round" stroke-linejoin="round"/>
<path d="M279.204 97.9963C284.658 97.9963 289.079 93.5751 289.079 88.1212C289.079 82.6673 284.658 78.2461 279.204 78.2461C273.75 78.2461 269.329 82.6673 269.329 88.1212C269.329 93.5751 273.75 97.9963 279.204 97.9963Z" fill="#D71635" stroke="#263238" stroke-linecap="round" stroke-linejoin="round"/>
<path d="M273.48 85.9174L279.204 92.3581L292.225 76.9517L291.765 76.4702L279.204 87.2761L275.877 83.6492L273.48 85.9174Z" fill="#263238" stroke="#263238" stroke-linecap="round" stroke-linejoin="round"/>
<path d="M241.116 104.33H277.995" stroke="#263238" stroke-linecap="round" stroke-linejoin="round"/>
<path d="M240.281 113.852H277.16" stroke="#263238" stroke-linecap="round" stroke-linejoin="round"/>
<path d="M239.458 123.374H276.327" stroke="#263238" stroke-linecap="round" stroke-linejoin="round"/>
<path d="M355.595 20.3007V37.1836L401.782 1.57764L355.595 20.3007Z" fill="#D71635" stroke="#263238" stroke-linecap="round" stroke-linejoin="round"/>
<path d="M355.595 20.3009L402.842 1L338.327 7.68683L355.595 20.3009Z" fill="#D71635" stroke="#263238" stroke-linecap="round" stroke-linejoin="round"/>
<path d="M361.147 23.7994L383.39 40.2543L402.841 1L361.147 23.7994Z" fill="#D71635" stroke="#263238" stroke-linecap="round" stroke-linejoin="round"/>
<path d="M361.147 23.7996L355.595 37.1839L367.428 28.4429L361.147 23.7996Z" fill="#D71635" stroke="#263238" stroke-linecap="round" stroke-linejoin="round"/>
<path d="M178.603 165.293C178.72 164.95 178.849 164.619 178.966 164.287" stroke="#263238" stroke-linecap="round" stroke-linejoin="round"/>
<path d="M180.368 160.243C190.318 130.532 188.531 112.675 204.687 83.8952C207.896 78.075 224.148 50.536 247.236 40.7143C259.241 35.611 266.88 43.2286 263.788 48.6208C256.887 60.625 231.541 46.235 256.887 32.0268C280.339 18.8885 330.26 44.5767 353.659 37.2051" stroke="#263238" stroke-linecap="round" stroke-linejoin="round" stroke-dasharray="2 4"/>
<path d="M355.659 36.4669C355.991 36.3278 356.312 36.1781 356.633 36.0176" stroke="#263238" stroke-linecap="round" stroke-linejoin="round"/>
</svg>
