<svg width="14" height="14" viewBox="0 0 14 14" fill="none" xmlns="http://www.w3.org/2000/svg">
<path fill-rule="evenodd" clip-rule="evenodd" d="M7.22375 2.90883C6.07568 2.86228 4.95511 3.18875 4.07072 3.81617C3.18757 4.44272 2.60643 5.32084 2.41286 6.27715C2.21965 7.23169 2.42083 8.22091 2.99157 9.06501C3.09315 9.21525 3.11908 9.40417 3.06173 9.57622L2.62579 10.884L4.37027 10.5129C4.49725 10.4858 4.62963 10.502 4.74642 10.5587C5.74634 11.0441 6.91694 11.1924 8.03685 10.9705C9.15663 10.7487 10.133 10.1756 10.793 9.37488C11.4512 8.57633 11.7523 7.60478 11.6578 6.63986C11.5632 5.67401 11.076 4.75655 10.2645 4.0644C9.45153 3.37096 8.3718 2.95538 7.22375 2.90883ZM1.71731 12.2493C1.77295 12.2525 1.82804 12.2475 1.88106 12.2353L4.42259 11.6945C5.61245 12.2236 6.96773 12.3716 8.26357 12.1149C9.62746 11.8447 10.8493 11.1408 11.6932 10.1169C12.5389 9.09094 12.9451 7.81456 12.8189 6.52612C12.6928 5.23862 12.0462 4.05065 11.0216 3.17676C9.99857 2.30414 8.66493 1.79964 7.27101 1.74312C5.87711 1.6866 4.5001 2.08111 3.39566 2.86465C2.28999 3.64906 1.52641 4.77588 1.26938 6.0457C1.03119 7.22246 1.24723 8.4292 1.86731 9.47014L1.19972 11.4729C1.18159 11.5242 1.17052 11.5784 1.16743 11.6341C1.16337 11.7057 1.17271 11.7763 1.19384 11.8429C1.2193 11.9236 1.2612 11.9955 1.31498 12.0555C1.36865 12.1157 1.43539 12.1654 1.51278 12.1997C1.57653 12.2282 1.64571 12.2453 1.71731 12.2493Z" fill="#9691A4"/>
</svg>
