<svg width="14" height="14" viewBox="0 0 14 14" fill="none" xmlns="http://www.w3.org/2000/svg">
<path fill-rule="evenodd" clip-rule="evenodd" d="M3.5 3.50008C3.17783 3.50008 2.91667 3.76124 2.91667 4.08341V11.0834C2.91667 11.4056 3.17783 11.6667 3.5 11.6667H10.5C10.8222 11.6667 11.0833 11.4056 11.0833 11.0834V4.08341C11.0833 3.76124 10.8222 3.50008 10.5 3.50008H3.5ZM1.75 4.08341C1.75 3.11691 2.5335 2.33341 3.5 2.33341H10.5C11.4665 2.33341 12.25 3.11691 12.25 4.08341V11.0834C12.25 12.0499 11.4665 12.8334 10.5 12.8334H3.5C2.5335 12.8334 1.75 12.0499 1.75 11.0834V4.08341Z" fill="#9691A4"/>
<path fill-rule="evenodd" clip-rule="evenodd" d="M9.33333 1.16675C9.6555 1.16675 9.91667 1.42792 9.91667 1.75008V4.08341C9.91667 4.40558 9.6555 4.66675 9.33333 4.66675C9.01117 4.66675 8.75 4.40558 8.75 4.08341V1.75008C8.75 1.42792 9.01117 1.16675 9.33333 1.16675Z" fill="#9691A4"/>
<path fill-rule="evenodd" clip-rule="evenodd" d="M4.66669 1.16675C4.98885 1.16675 5.25002 1.42792 5.25002 1.75008V4.08341C5.25002 4.40558 4.98885 4.66675 4.66669 4.66675C4.34452 4.66675 4.08335 4.40558 4.08335 4.08341V1.75008C4.08335 1.42792 4.34452 1.16675 4.66669 1.16675Z" fill="#9691A4"/>
<path fill-rule="evenodd" clip-rule="evenodd" d="M1.75 6.41674C1.75 6.09458 2.01117 5.83341 2.33333 5.83341H11.6667C11.9888 5.83341 12.25 6.09458 12.25 6.41674C12.25 6.73891 11.9888 7.00008 11.6667 7.00008H2.33333C2.01117 7.00008 1.75 6.73891 1.75 6.41674Z" fill="#9691A4"/>
</svg>
