<svg width="381" height="380" viewBox="0 0 381 380" fill="none" xmlns="http://www.w3.org/2000/svg">
<path d="M190.055 380C294.989 380 380.055 294.934 380.055 190C380.055 85.0659 294.989 0 190.055 0C85.1206 0 0.0546875 85.0659 0.0546875 190C0.0546875 294.934 85.1206 380 190.055 380Z" fill="#D71635" fill-opacity="0.06"/>
<mask id="mask0_376_2338" style="mask-type:luminance" maskUnits="userSpaceOnUse" x="0" y="0" width="381" height="380">
<path d="M190.055 380C294.989 380 380.055 294.934 380.055 190C380.055 85.0659 294.989 0 190.055 0C85.1206 0 0.0546875 85.0659 0.0546875 190C0.0546875 294.934 85.1206 380 190.055 380Z" fill="white"/>
</mask>
<g mask="url(#mask0_376_2338)">
<path d="M178.986 240.2C178.986 240.2 176.373 262.959 167.942 271.872C167.942 271.872 193.525 290.068 209.992 272.635C209.992 272.635 204.262 254.031 203.306 240.2H178.986Z" fill="#FFB89F"/>
<path d="M238.738 190C238.738 224.61 217.138 252.664 190.506 252.664C163.871 252.664 142.275 224.61 142.275 190C142.275 155.392 163.871 134.735 190.506 134.735C217.138 134.735 238.738 155.392 238.738 190Z" fill="#FFB89F"/>
<path d="M170.427 201.646C170.427 204.651 169.245 207.086 167.782 207.086C166.331 207.086 165.153 204.65 165.153 201.646C165.153 198.637 166.331 196.203 167.782 196.203C169.245 196.203 170.427 198.637 170.427 201.646Z" fill="#263C3F"/>
<path d="M216.914 201.646C216.914 204.651 215.737 207.086 214.274 207.086C212.817 207.086 211.64 204.65 211.64 201.646C211.64 198.637 212.818 196.203 214.274 196.203C215.737 196.203 216.914 198.637 216.914 201.646Z" fill="#263C3F"/>
<path d="M191.454 195.506C191.454 195.506 183.451 219.96 190.168 219.96C196.879 219.959 191.454 195.506 191.454 195.506Z" fill="#F9A993"/>
<path d="M176.221 222.263C176.221 222.263 193.618 229.911 204.968 222.397C204.968 222.397 192.225 239.132 176.221 222.263Z" fill="#F49B87"/>
<path d="M208.529 191.049C208.529 191.049 205.706 185.853 207.575 185.301C209.441 184.749 220.956 184.145 221.733 185.902C222.51 187.66 222.035 190.645 221.094 190.801C220.154 190.957 208.529 191.049 208.529 191.049Z" fill="#AD4B07"/>
<path d="M174.06 190.857C174.06 190.857 176.72 185.575 174.835 185.08C172.951 184.586 161.42 184.34 160.701 186.122C159.979 187.903 160.543 190.871 161.488 190.997C162.439 191.126 174.06 190.857 174.06 190.857Z" fill="#AD4B07"/>
<path d="M241.261 149.006C248.298 134.273 160.859 111.88 149.382 147.043C149.382 147.043 133.479 139.17 142.275 199.373C142.275 199.373 151.721 168.061 158.965 162.379C158.965 162.379 204.485 169.863 228.871 159.085C232.633 167.207 238.074 183.594 238.198 199.373C238.198 199.373 241.357 175.866 237.838 153.307C239.852 151.347 240.041 151.549 241.261 149.006Z" fill="#AD4B07"/>
<path d="M149.382 198.028C149.382 202.462 146.644 206.056 143.264 206.056C139.884 206.056 137.146 202.462 137.146 198.028C137.146 193.595 139.884 190 143.264 190C146.644 190 149.382 193.595 149.382 198.028Z" fill="#FFB89F"/>
<path d="M242.964 198.028C242.964 202.462 240.226 206.056 236.846 206.056C233.466 206.056 230.729 202.462 230.729 198.028C230.729 193.595 233.466 190 236.846 190C240.226 190 242.964 193.595 242.964 198.028Z" fill="#FFB89F"/>
<path d="M208.544 265.277C202.27 270.965 192.065 271.995 190.404 272.125C188.745 271.994 178.541 270.965 172.265 265.277L137.146 277.761L146.661 380.746H172.457H190.642H235.152L243.662 278.767L208.544 265.277Z" fill="#D71635"/>
<path d="M137.146 277.762C137.146 277.762 118.532 281.269 118.532 301.045C118.532 320.821 120.334 380.746 120.334 380.746H146.661L137.146 277.762Z" fill="#455A64"/>
<path d="M243.479 278.767C243.479 278.767 262.093 282.274 262.093 302.05C262.093 321.826 260.293 380.746 260.293 380.746H234.97L243.479 278.767Z" fill="#455A64"/>
</g>
<path d="M269.247 61.9054C269.247 37.1807 236.475 17.1363 196.05 17.1363C155.624 17.1363 122.852 37.1807 122.852 61.9054C122.852 86.631 155.624 106.675 196.05 106.675C211.419 106.675 225.676 103.772 237.454 98.8205C242.263 105.276 246.691 114.83 245.68 127.596C245.68 127.596 259.622 110.693 252.152 90.6502C262.817 82.8727 269.247 72.851 269.247 61.9054Z" fill="#D71635"/>
<path d="M263.073 61.9054C263.073 37.1807 230.301 17.1363 189.875 17.1363C149.45 17.1363 116.678 37.1807 116.678 61.9054C116.678 86.631 149.45 106.675 189.875 106.675C205.246 106.675 219.502 103.772 231.279 98.8205C236.089 105.276 240.516 114.83 239.506 127.596C239.506 127.596 253.449 110.693 245.978 90.6502C256.642 82.8727 263.073 72.851 263.073 61.9054Z" fill="white"/>
<path d="M153.988 55.1847H151.772C151.686 54.7112 151.528 54.2945 151.296 53.9347C151.064 53.5748 150.78 53.2694 150.444 53.0185C150.107 52.7675 149.731 52.5781 149.314 52.4503C148.902 52.3224 148.464 52.2585 148 52.2585C147.162 52.2585 146.412 52.4692 145.749 52.8906C145.091 53.312 144.57 53.9299 144.186 54.7443C143.808 55.5587 143.618 56.553 143.618 57.7273C143.618 58.911 143.808 59.91 144.186 60.7244C144.57 61.5388 145.093 62.1544 145.756 62.571C146.419 62.9877 147.165 63.196 147.993 63.196C148.453 63.196 148.888 63.1345 149.3 63.0114C149.717 62.8835 150.093 62.6965 150.429 62.4503C150.766 62.2041 151.05 61.9034 151.282 61.5483C151.518 61.1884 151.682 60.7765 151.772 60.3125L153.988 60.3196C153.869 61.0346 153.64 61.6927 153.299 62.294C152.962 62.8906 152.529 63.4067 151.999 63.8423C151.473 64.2732 150.872 64.607 150.195 64.8438C149.518 65.0805 148.779 65.1989 147.979 65.1989C146.72 65.1989 145.597 64.9006 144.613 64.304C143.628 63.7027 142.851 62.8433 142.283 61.7259C141.72 60.6084 141.438 59.2756 141.438 57.7273C141.438 56.1742 141.722 54.8414 142.29 53.7287C142.858 52.6113 143.635 51.7543 144.62 51.1577C145.605 50.5563 146.724 50.2557 147.979 50.2557C148.751 50.2557 149.471 50.367 150.138 50.5895C150.81 50.8073 151.414 51.1293 151.949 51.5554C152.484 51.9768 152.927 52.4929 153.277 53.1037C153.628 53.7098 153.864 54.4034 153.988 55.1847ZM169.249 57.7273C169.249 59.2803 168.964 60.6155 168.396 61.733C167.828 62.8456 167.049 63.7027 166.06 64.304C165.075 64.9006 163.955 65.1989 162.7 65.1989C161.441 65.1989 160.316 64.9006 159.327 64.304C158.342 63.7027 157.565 62.8433 156.997 61.7259C156.429 60.6084 156.145 59.2756 156.145 57.7273C156.145 56.1742 156.429 54.8414 156.997 53.7287C157.565 52.6113 158.342 51.7543 159.327 51.1577C160.316 50.5563 161.441 50.2557 162.7 50.2557C163.955 50.2557 165.075 50.5563 166.06 51.1577C167.049 51.7543 167.828 52.6113 168.396 53.7287C168.964 54.8414 169.249 56.1742 169.249 57.7273ZM167.075 57.7273C167.075 56.5436 166.884 55.5469 166.5 54.7372C166.121 53.9228 165.6 53.3073 164.938 52.8906C164.279 52.4692 163.534 52.2585 162.7 52.2585C161.862 52.2585 161.114 52.4692 160.456 52.8906C159.798 53.3073 159.277 53.9228 158.893 54.7372C158.515 55.5469 158.325 56.5436 158.325 57.7273C158.325 58.911 158.515 59.91 158.893 60.7244C159.277 61.5341 159.798 62.1496 160.456 62.571C161.114 62.9877 161.862 63.196 162.7 63.196C163.534 63.196 164.279 62.9877 164.938 62.571C165.6 62.1496 166.121 61.5341 166.5 60.7244C166.884 59.91 167.075 58.911 167.075 57.7273ZM183.725 50.4545V65H181.708L174.314 54.3324H174.179V65H171.985V50.4545H174.016L181.417 61.1364H181.551V50.4545H183.725ZM186.209 52.3438V50.4545H197.466V52.3438H192.928V65H190.74V52.3438H186.209ZM199.463 65H197.134L202.368 50.4545H204.904L210.138 65H207.809L203.696 53.0966H203.583L199.463 65ZM199.854 59.304H207.411V61.1506H199.854V59.304ZM223.636 55.1847H221.42C221.335 54.7112 221.176 54.2945 220.944 53.9347C220.712 53.5748 220.428 53.2694 220.092 53.0185C219.756 52.7675 219.379 52.5781 218.963 52.4503C218.551 52.3224 218.113 52.2585 217.649 52.2585C216.811 52.2585 216.06 52.4692 215.397 52.8906C214.739 53.312 214.218 53.9299 213.835 54.7443C213.456 55.5587 213.267 56.553 213.267 57.7273C213.267 58.911 213.456 59.91 213.835 60.7244C214.218 61.5388 214.742 62.1544 215.404 62.571C216.067 62.9877 216.813 63.196 217.642 63.196C218.101 63.196 218.537 63.1345 218.949 63.0114C219.365 62.8835 219.742 62.6965 220.078 62.4503C220.414 62.2041 220.698 61.9034 220.93 61.5483C221.167 61.1884 221.33 60.7765 221.42 60.3125L223.636 60.3196C223.518 61.0346 223.288 61.6927 222.947 62.294C222.611 62.8906 222.178 63.4067 221.647 63.8423C221.122 64.2732 220.52 64.607 219.843 64.8438C219.166 65.0805 218.428 65.1989 217.627 65.1989C216.368 65.1989 215.246 64.9006 214.261 64.304C213.276 63.7027 212.5 62.8433 211.931 61.7259C211.368 60.6084 211.086 59.2756 211.086 57.7273C211.086 56.1742 211.37 54.8414 211.939 53.7287C212.507 52.6113 213.283 51.7543 214.268 51.1577C215.253 50.5563 216.373 50.2557 217.627 50.2557C218.399 50.2557 219.119 50.367 219.787 50.5895C220.459 50.8073 221.063 51.1293 221.598 51.5554C222.133 51.9768 222.575 52.4929 222.926 53.1037C223.276 53.7098 223.513 54.4034 223.636 55.1847ZM225.545 52.3438V50.4545H236.802V52.3438H232.263V65H230.076V52.3438H225.545Z" fill="#666276"/>
<path d="M183.077 72.5344H185.278V82.1011C185.278 83.1191 185.039 84.0211 184.561 84.8071C184.083 85.5884 183.41 86.2039 182.544 86.6537C181.677 87.0988 180.662 87.3213 179.497 87.3213C178.337 87.3213 177.324 87.0988 176.457 86.6537C175.591 86.2039 174.918 85.5884 174.44 84.8071C173.962 84.0211 173.723 83.1191 173.723 82.1011V72.5344H175.918V81.9236C175.918 82.5817 176.062 83.1665 176.351 83.6778C176.644 84.1892 177.059 84.5917 177.594 84.8852C178.129 85.1741 178.763 85.3185 179.497 85.3185C180.236 85.3185 180.873 85.1741 181.408 84.8852C181.947 84.5917 182.359 84.1892 182.643 83.6778C182.932 83.1665 183.077 82.5817 183.077 81.9236V72.5344ZM196.402 76.3554C196.326 75.6831 196.014 75.1622 195.465 74.7929C194.915 74.4188 194.224 74.2318 193.391 74.2318C192.794 74.2318 192.278 74.3265 191.843 74.5159C191.407 74.7006 191.068 74.9563 190.827 75.283C190.59 75.6049 190.472 75.9719 190.472 76.3838C190.472 76.7295 190.552 77.0278 190.713 77.2787C190.879 77.5296 191.094 77.7403 191.36 77.9108C191.63 78.0765 191.918 78.2162 192.226 78.3298C192.534 78.4387 192.83 78.5287 193.114 78.5997L194.534 78.969C194.998 79.0827 195.474 79.2366 195.962 79.4307C196.45 79.6248 196.902 79.8805 197.318 80.1977C197.735 80.515 198.071 80.908 198.327 81.3767C198.587 81.8455 198.718 82.4065 198.718 83.0599C198.718 83.8838 198.505 84.6153 198.078 85.2545C197.657 85.8938 197.044 86.398 196.239 86.7673C195.439 87.1367 194.47 87.3213 193.334 87.3213C192.245 87.3213 191.303 87.1485 190.507 86.8028C189.712 86.4572 189.089 85.9671 188.639 85.3327C188.19 84.6935 187.941 83.9359 187.894 83.0599H190.095C190.138 83.5855 190.308 84.0235 190.607 84.3739C190.91 84.7195 191.296 84.9776 191.764 85.148C192.238 85.3137 192.756 85.3966 193.32 85.3966C193.94 85.3966 194.492 85.2995 194.975 85.1054C195.462 84.9065 195.846 84.6319 196.125 84.2815C196.405 83.9264 196.544 83.5121 196.544 83.0386C196.544 82.6078 196.421 82.255 196.175 81.9804C195.933 81.7058 195.604 81.4785 195.188 81.2986C194.776 81.1187 194.309 80.96 193.789 80.8227L192.07 80.354C190.905 80.0367 189.982 79.5704 189.3 78.9548C188.623 78.3393 188.284 77.5249 188.284 76.5117C188.284 75.6736 188.512 74.942 188.966 74.317C189.421 73.692 190.036 73.2067 190.813 72.8611C191.589 72.5107 192.465 72.3355 193.441 72.3355C194.425 72.3355 195.294 72.5083 196.047 72.854C196.805 73.1996 197.401 73.6755 197.837 74.2815C198.273 74.8829 198.5 75.5742 198.519 76.3554H196.402ZM203.847 72.5344L203.663 82.8966H201.695L201.511 72.5344H203.847ZM202.682 87.2148C202.289 87.2148 201.953 87.0775 201.674 86.8028C201.395 86.5235 201.257 86.1873 201.262 85.7943C201.257 85.4061 201.395 85.0746 201.674 84.8C201.953 84.5206 202.289 84.381 202.682 84.381C203.066 84.381 203.397 84.5206 203.677 84.8C203.956 85.0746 204.098 85.4061 204.103 85.7943C204.098 86.0547 204.029 86.2938 203.897 86.5117C203.769 86.7247 203.599 86.8952 203.386 87.023C203.172 87.1509 202.938 87.2148 202.682 87.2148Z" fill="#666276"/>
<path d="M124.759 169.14C124.759 175.827 121.237 180.153 116.244 180.153C113.524 180.153 111.606 179.083 111.027 176.675L110.937 176.006C109.198 178.547 106.613 179.663 103.892 179.663C98.7647 179.663 93.9944 175.516 93.9944 169.319C93.9944 163.567 97.6499 158.796 103.358 158.796C107.013 158.796 109.421 161.204 109.734 161.784V159.287H114.951V174.447C114.951 176.096 115.708 176.676 116.779 176.676C118.741 176.676 120.612 173.644 120.612 169.275C120.612 160.714 114.861 154.025 105.408 154.025C96.6705 154.025 89.6696 160.891 89.6696 169.452C89.6696 177.88 96.2695 184.077 104.829 184.077C107.416 184.077 110.804 183.229 113.3 181.401L115.306 184.834C112.677 186.796 108.263 188.044 104.829 188.044C93.8171 188.044 85.4785 180.107 85.4785 169.452C85.4785 158.574 94.2626 150.147 105.408 150.147C116.51 150.146 124.759 158.172 124.759 169.14ZM99.7013 169.095C99.7013 172.217 101.575 174.891 104.473 174.891C107.549 174.891 109.378 172.305 109.378 169.14C109.378 166.108 107.461 163.656 104.383 163.656C101.575 163.655 99.7013 166.108 99.7013 169.095Z" fill="white"/>
<path d="M144.816 190.566C142.611 169.807 153.618 149.279 174.34 143.564C191.192 138.916 212.429 141.594 225.021 154.512C232.726 162.415 236.35 173.642 237.217 184.449C237.38 186.472 237.473 188.538 237.341 190.567C237.244 192.032 239.519 192.023 239.614 190.567C240.814 172.173 231.761 152.723 214.915 144.455C200.202 137.236 180.122 137.487 165.395 144.455C154.295 149.708 147.213 160.174 144.188 171.81C142.635 177.78 141.887 184.399 142.542 190.567C142.695 192.009 144.97 192.025 144.816 190.566Z" fill="#0E3757"/>
<path d="M174.54 233.549C172.699 233.549 171.164 234.752 170.794 236.356C160.967 235.872 151.923 232.201 147.605 222.734C145.895 218.983 145.076 214.395 145.42 210.269C145.542 208.808 143.268 208.819 143.147 210.269C142.728 215.293 144.019 220.603 146.21 225.084C150.89 234.652 161.088 238.224 171.098 238.639C171.718 239.829 173.019 240.654 174.539 240.654C176.656 240.654 178.371 239.064 178.371 237.101C178.372 235.139 176.656 233.549 174.54 233.549Z" fill="#0E3757"/>
<path d="M236.53 185.87C245.606 185.87 247.508 191.93 247.508 199.404C247.508 206.881 245.606 212.941 236.53 212.941V185.87Z" fill="#0E3757"/>
<path d="M234.955 213.382C234.955 214.354 235.743 215.142 236.716 215.142C237.688 215.142 238.476 214.355 238.476 213.382V185.429C238.476 184.456 237.689 183.667 236.716 183.667C235.744 183.667 234.955 184.455 234.955 185.429V213.382Z" fill="#666276"/>
<path d="M146.227 185.87C137.151 185.87 135.25 191.93 135.25 199.404C135.25 206.881 137.151 212.941 146.227 212.941V185.87Z" fill="#0E3757"/>
<path d="M147.803 213.382C147.803 214.354 147.015 215.142 146.042 215.142C145.071 215.142 144.282 214.355 144.282 213.382V185.429C144.282 184.456 145.07 183.666 146.042 183.666C147.014 183.666 147.803 184.455 147.803 185.429V213.382Z" fill="#666276"/>
<path d="M71.8449 209.492C71.8449 215.609 66.84 220.614 60.7238 220.614H28.2871C22.171 220.614 17.166 215.609 17.166 209.492V138.256C17.166 132.14 22.171 127.135 28.2871 127.135H60.7238C66.84 127.135 71.8449 132.14 71.8449 138.256V209.492Z" fill="#D71635"/>
<path d="M65.9675 138.729H22.9189V203.097H65.9675V138.729Z" fill="white"/>
<path d="M54.0045 134.736C54.0045 135.608 53.298 136.315 52.4259 136.315H36.5854C35.7133 136.315 35.0059 135.608 35.0059 134.736C35.0059 133.863 35.7133 133.158 36.5854 133.158H52.4259C53.298 133.157 54.0045 133.863 54.0045 134.736Z" fill="#666276"/>
<path d="M49.5394 211.916C49.5394 214.731 47.2579 217.013 44.4426 217.013C41.6282 217.013 39.3467 214.73 39.3467 211.916C39.3467 209.102 41.6282 206.82 44.4426 206.82C47.2569 206.819 49.5394 209.102 49.5394 211.916Z" fill="#666276"/>
<path d="M99.0994 86.5082H70.3755C62.3733 86.5082 55.8262 93.0363 55.8262 101.016C55.8262 108.994 62.3733 115.522 70.3755 115.522H82.776C84.2855 121.163 85.4913 130.357 80.9137 138.729C80.9137 138.729 89.7387 134.548 90.8172 115.522H99.1003C107.102 115.522 113.65 108.994 113.65 101.016C113.649 93.0363 107.101 86.5082 99.0994 86.5082Z" fill="#666276"/>
<path d="M71.0962 103.299C72.7193 103.299 74.0351 101.983 74.0351 100.36C74.0351 98.737 72.7193 97.4211 71.0962 97.4211C69.473 97.4211 68.1572 98.737 68.1572 100.36C68.1572 101.983 69.473 103.299 71.0962 103.299Z" fill="white"/>
<path d="M84.7358 103.299C86.359 103.299 87.6748 101.983 87.6748 100.36C87.6748 98.737 86.359 97.4211 84.7358 97.4211C83.1127 97.4211 81.7969 98.737 81.7969 100.36C81.7969 101.983 83.1127 103.299 84.7358 103.299Z" fill="white"/>
<path d="M98.3765 103.299C99.9996 103.299 101.315 101.983 101.315 100.36C101.315 98.737 99.9996 97.4211 98.3765 97.4211C96.7533 97.4211 95.4375 98.737 95.4375 100.36C95.4375 101.983 96.7533 103.299 98.3765 103.299Z" fill="white"/>
<path d="M105.539 211.921C89.6507 211.921 76.7246 224.848 76.7246 240.737C76.7246 256.627 89.6507 269.553 105.539 269.553C121.426 269.553 134.355 256.627 134.355 240.737C134.355 224.848 121.426 211.921 105.539 211.921ZM130.989 239.097H123.234C123 233.32 121.806 228.228 120.434 224.174C121.479 223.744 122.537 223.254 123.602 222.71C127.851 226.967 130.582 232.72 130.989 239.097ZM113.326 265.045C111.369 265.674 109.31 266.05 107.181 266.186V257.791C110.642 257.969 113.703 258.619 116.196 259.368C115.391 261.241 114.445 263.135 113.326 265.045ZM119.306 260.447C119.891 260.679 120.408 260.904 120.864 261.111C120.013 261.751 119.128 262.346 118.203 262.878C118.596 262.064 118.963 261.254 119.306 260.447ZM94.9221 259.311C98.062 258.346 101.079 257.891 103.898 257.778V266.186C101.8 266.053 99.7643 265.688 97.8347 265.073C96.6971 263.136 95.7369 261.213 94.9221 259.311ZM92.9698 262.935C92.0168 262.392 91.1066 261.783 90.2336 261.125C90.7674 260.877 91.2984 260.642 91.8286 260.425C92.1796 261.258 92.5624 262.095 92.9698 262.935ZM97.792 216.413C99.737 215.791 101.787 215.422 103.898 215.288V223.75C100.462 223.575 97.4182 222.934 94.9385 222.193C96.1388 219.263 97.2827 217.259 97.792 216.413ZM91.8422 221.123C91.2048 220.872 90.6437 220.629 90.1572 220.406C91.0538 219.728 91.9868 219.097 92.9689 218.54C92.607 219.31 92.2278 220.175 91.8422 221.123ZM116.212 222.214C113.056 223.192 110.017 223.651 107.18 223.765V215.288C109.324 215.424 111.396 215.808 113.368 216.444C113.89 217.307 115.024 219.309 116.212 222.214ZM118.203 218.595C119.141 219.136 120.042 219.739 120.902 220.391C120.362 220.642 119.828 220.879 119.292 221.099C118.92 220.184 118.553 219.346 118.203 218.595ZM103.898 227.107V239.097H91.1911C91.4148 233.769 92.5106 229.076 93.7718 225.328C96.5544 226.19 99.9916 226.932 103.898 227.107ZM103.898 242.379V254.422C100.715 254.551 97.2927 255.083 93.7163 256.225C92.0232 251.368 91.2866 246.703 91.1629 242.378L103.898 242.379ZM107.181 254.429V242.379H119.981C119.86 246.709 119.118 251.382 117.421 256.246C114.617 255.37 111.138 254.607 107.181 254.429ZM107.181 239.097V227.11C110.364 226.982 113.788 226.453 117.368 225.31C118.631 229.06 119.729 233.759 119.954 239.097H107.181ZM87.4402 222.748C88.1913 223.144 89.2888 223.677 90.6865 224.239C89.3243 228.284 88.1431 233.351 87.9094 239.097H80.0882C80.4974 232.738 83.2127 227.002 87.4402 222.748ZM80.0891 242.379H87.8784C87.9976 247.055 88.7941 252.105 90.6328 257.362C89.6025 257.787 88.5632 258.267 87.5129 258.803C83.2436 254.541 80.4974 248.772 80.0891 242.379ZM123.597 258.773C122.869 258.39 121.831 257.884 120.512 257.35C122.353 252.096 123.146 247.052 123.264 242.378H130.989C130.582 248.757 127.848 254.512 123.597 258.773Z" fill="#D71635"/>
<path d="M357.217 185.278H277.369V227.508H357.217V185.278Z" fill="#666276"/>
<path d="M347.603 146.889H286.863V228.929H347.603V146.889Z" fill="white"/>
<path d="M317.293 214.051L277.369 185.278V242.827H357.217V185.278L317.293 214.051Z" fill="#D71635"/>
<path d="M339.5 153.03H295.088V155.923H339.5V153.03Z" fill="#D71635" fill-opacity="0.06"/>
<path d="M339.5 162.671H295.088V165.564H339.5V162.671Z" fill="#D71635" fill-opacity="0.06"/>
<path d="M339.5 172.313H295.088V175.205H339.5V172.313Z" fill="#D71635" fill-opacity="0.06"/>
<path d="M339.5 181.952H295.088V184.846H339.5V181.952Z" fill="#D71635" fill-opacity="0.06"/>
<path d="M339.5 191.595H295.088V194.487H339.5V191.595Z" fill="#D71635" fill-opacity="0.06"/>
<path d="M85.8552 285.394C75.1796 285.394 66.5273 294.048 66.5273 304.722C66.5273 309.42 68.2032 313.723 70.9894 317.071L85.8561 337.574L100.724 317.071C103.509 313.723 105.184 309.42 105.184 304.722C105.183 294.049 96.5298 285.394 85.8552 285.394ZM85.8552 317.054C79.0434 317.054 73.5219 311.535 73.5219 304.722C73.5219 297.913 79.0443 292.391 85.8552 292.391C92.6651 292.391 98.1866 297.912 98.1866 304.722C98.1866 311.534 92.6651 317.054 85.8552 317.054Z" fill="white"/>
<path d="M252.964 249.094C253.601 248.455 254.405 247.652 255.23 246.83C255.315 246.76 255.402 246.702 255.48 246.623L258.353 243.749C259.521 242.583 259.518 240.666 258.345 239.493L251.255 232.404C250.133 231.277 248.33 231.24 247.152 232.268L247.139 232.255L247 232.393L244.126 235.266L241.104 238.288C241.104 238.288 233.57 247.804 251.646 266.113L251.642 266.115C251.705 266.178 251.769 266.238 251.829 266.301C251.891 266.362 251.953 266.425 252.012 266.487L252.018 266.485C270.325 284.561 279.845 277.025 279.845 277.025L282.862 274.005L285.738 271.13L285.875 270.991L285.86 270.976C286.888 269.801 286.849 268 285.726 266.875L278.636 259.786C277.463 258.611 275.549 258.607 274.381 259.775L271.506 262.649C271.427 262.728 271.37 262.817 271.303 262.899C270.474 263.724 269.672 264.526 269.035 265.166C266.923 267.279 259.911 260.641 258.681 259.446C257.486 258.219 250.85 251.207 252.964 249.094Z" fill="white"/>
<path d="M284.415 110.595H291.015V112.795H280.695V111.055L286.255 105.775C287.615 104.475 287.855 103.655 287.855 102.875C287.855 101.595 286.975 100.855 285.255 100.855C283.895 100.855 282.755 101.315 281.975 102.315L280.155 100.915C281.235 99.4553 283.175 98.5953 285.475 98.5953C288.515 98.5953 290.475 100.135 290.475 102.615C290.475 103.975 290.095 105.215 288.155 107.035L284.415 110.595ZM304.703 107.415V109.615H302.223V112.795H299.703V109.615H292.023V107.815L298.923 98.7953H301.703L295.203 107.415H299.783V104.595H302.223V107.415H304.703ZM304.825 114.795L311.425 95.9553H313.665L307.065 114.795H304.825ZM313.602 98.7953H324.482V100.535L319.042 112.795H316.262L321.522 100.995H316.022V103.375H313.602V98.7953Z" fill="#666276"/>
<path d="M329.132 105.02C328.9 116.524 322.539 126.384 312.24 131.472C301.297 136.876 287.971 133.864 279.405 125.619C271.093 117.618 269.012 105.226 272.788 94.5894C276.493 84.1521 286.437 77.334 297.133 76.1027L297.602 81.6824L306.363 73.3238L296.344 66.7084L296.848 72.7064C285.123 74.0113 275.022 81.1768 270.12 92.1597C264.685 104.338 267.908 118.592 276.995 128.032C286.074 137.465 300.513 139.858 312.46 135.078C324.698 130.183 332.282 117.975 332.544 105.022C332.587 102.821 329.177 102.824 329.132 105.02Z" fill="#D71635"/>
<path d="M341.941 281.272V274.499H338.222C337.764 272.148 336.848 269.965 335.555 268.05L338.183 265.423L333.392 260.633L330.766 263.258C328.852 261.968 326.666 261.051 324.318 260.592V256.873H317.544V260.592C315.194 261.051 313.011 261.968 311.095 263.258L308.468 260.633L303.68 265.423L306.304 268.049C305.014 269.964 304.096 272.148 303.638 274.499H299.919V281.272H303.638C304.096 283.621 305.014 285.805 306.304 287.721L303.68 290.347L308.468 295.138L311.095 292.51C313.01 293.802 315.194 294.719 317.544 295.177V298.897H324.318V295.177C326.666 294.719 328.85 293.8 330.766 292.51L333.392 295.138L338.183 290.347L335.555 287.721C336.845 285.805 337.764 283.621 338.222 281.272H341.941ZM320.931 286.424C316.215 286.424 312.392 282.601 312.392 277.884C312.392 273.168 316.214 269.345 320.931 269.345C325.648 269.345 329.469 273.168 329.469 277.884C329.468 282.601 325.648 286.424 320.931 286.424Z" fill="#D71635"/>
<path d="M273.647 147.683V144.275H271.774C271.544 143.092 271.083 141.993 270.432 141.031L271.754 139.709L269.344 137.299L268.022 138.62C267.059 137.971 265.96 137.509 264.779 137.278V135.407H261.371V137.278C260.188 137.509 259.088 137.971 258.125 138.62L256.804 137.299L254.395 139.709L255.716 141.03C255.066 141.994 254.604 143.092 254.373 144.275H252.502V147.683H254.373C254.604 148.866 255.066 149.965 255.716 150.928L254.395 152.249L256.804 154.66L258.125 153.337C259.089 153.987 260.189 154.449 261.371 154.68V156.552H264.779V154.68C265.96 154.449 267.059 153.987 268.022 153.337L269.344 154.66L271.754 152.249L270.432 150.928C271.081 149.963 271.544 148.866 271.774 147.683H273.647ZM263.074 150.275C260.701 150.275 258.777 148.352 258.777 145.977C258.777 143.605 260.7 141.681 263.074 141.681C265.447 141.681 267.37 143.604 267.37 145.977C267.369 148.352 265.447 150.275 263.074 150.275Z" fill="#666276"/>
<path d="M147.894 124.896V121.487H146.021C145.791 120.304 145.33 119.205 144.679 118.243L146.001 116.921L143.591 114.511L142.27 115.832C141.307 115.183 140.206 114.721 139.026 114.49V112.619H135.618V114.49C134.435 114.721 133.335 115.183 132.372 115.832L131.051 114.511L128.642 116.921L129.963 118.242C129.313 119.206 128.851 120.305 128.621 121.487H126.75V124.896H128.621C128.852 126.078 129.314 127.177 129.963 128.14L128.642 129.461L131.051 131.871L132.372 130.549C133.336 131.199 134.436 131.661 135.618 131.891V133.763H139.026V131.891C140.207 131.661 141.307 131.198 142.27 130.549L143.591 131.871L146.001 129.461L144.679 128.14C145.329 127.175 145.791 126.077 146.021 124.896H147.894ZM137.321 127.488C134.949 127.488 133.024 125.565 133.024 123.191C133.024 120.818 134.948 118.894 137.321 118.894C139.694 118.894 141.618 120.817 141.618 123.191C141.617 125.565 139.694 127.488 137.321 127.488Z" fill="#D71635"/>
<path d="M62.6079 264.956V259.707H59.7244C59.3698 257.885 58.6605 256.192 57.6584 254.71L59.6944 252.674L55.9816 248.962L53.9465 250.997C52.4643 249.997 50.7693 249.285 48.9507 248.93V246.048H43.702V248.93C41.8797 249.286 40.1866 249.998 38.7025 250.997L36.6684 248.962L32.9574 252.674L34.9906 254.709C33.9913 256.192 33.2802 257.885 32.9246 259.707H30.043V264.956H32.9246C33.2811 266.777 33.9922 268.469 34.9906 269.954L32.9574 271.989L36.6684 275.701L38.7025 273.664C40.1866 274.666 41.8797 275.376 43.702 275.731V278.613H48.9507V275.731C50.7693 275.375 52.4625 274.663 53.9465 273.664L55.9816 275.701L59.6944 271.989L57.6584 269.954C58.6587 268.468 59.3707 266.777 59.7244 264.956H62.6079ZM46.3236 268.948C42.6681 268.948 39.7064 265.985 39.7064 262.33C39.7064 258.675 42.669 255.714 46.3236 255.714C49.98 255.714 52.9399 258.676 52.9399 262.33C52.9408 265.986 49.98 268.948 46.3236 268.948Z" fill="#666276"/>
<path d="M273.775 316.901C273.822 309.609 278.016 305.32 285.164 305.32C291.788 305.32 295.79 308.371 295.79 313.803C295.79 320.854 288.595 321.998 288.595 327.338H281.398C281.398 320.094 286.925 319.52 286.925 315.376C286.925 313.661 285.973 312.897 284.257 312.897C282.208 312.897 281.161 314.184 281.161 316.901H273.775ZM289.358 334.864C289.358 337.534 287.5 339.393 284.83 339.393C282.209 339.393 280.398 337.533 280.398 334.864C280.398 332.245 282.209 330.434 284.83 330.434C287.5 330.433 289.358 332.245 289.358 334.864Z" fill="#666276"/>
<path d="M80.0645 55.9693C80.0963 50.927 82.997 47.9608 87.9392 47.9608C92.5204 47.9608 95.2875 50.0704 95.2875 53.826C95.2875 58.7018 90.3117 59.4929 90.3117 63.1857H85.3349C85.3349 58.1762 89.1568 57.7806 89.1568 54.9135C89.1568 53.7269 88.4985 53.1994 87.3127 53.1994C85.8951 53.1994 85.1712 54.0897 85.1712 55.9683H80.0645V55.9693ZM90.8382 68.3916C90.8382 70.2366 89.5542 71.5224 87.7083 71.5224C85.896 71.5224 84.6438 70.2366 84.6438 68.3916C84.6438 66.5802 85.896 65.3281 87.7083 65.3281C89.5542 65.3272 90.8382 66.5793 90.8382 68.3916Z" fill="#D71635"/>
<path d="M277.171 43.2796C277.203 38.2373 280.103 35.2711 285.046 35.2711C289.628 35.2711 292.395 37.3807 292.395 41.1363C292.395 46.0121 287.418 46.8032 287.418 50.496H282.442C282.442 45.4865 286.264 45.0909 286.264 42.2238C286.264 41.0371 285.607 40.5097 284.421 40.5097C283.003 40.5097 282.279 41.4 282.279 43.2786L277.171 43.2796ZM287.946 55.7019C287.946 57.5469 286.662 58.8327 284.815 58.8327C283.003 58.8327 281.751 57.5469 281.751 55.7019C281.751 53.8905 283.003 52.6384 284.815 52.6384C286.662 52.6375 287.946 53.8896 287.946 55.7019Z" fill="#666276"/>
</svg>
