<svg width="404" height="300" viewBox="0 0 404 300" fill="none" xmlns="http://www.w3.org/2000/svg">
<path d="M363.392 277.001H336.683V277.202H363.392V277.001Z" fill="#EBEBEB"/>
<path d="M267.685 279.194H260.677V279.396H267.685V279.194Z" fill="#EBEBEB"/>
<path d="M335.876 269.517H320.401V269.718H335.876V269.517Z" fill="#EBEBEB"/>
<path d="M77.7145 270.872H42.8848V271.073H77.7145V270.872Z" fill="#EBEBEB"/>
<path d="M90.0041 270.872H84.8994V271.073H90.0041V270.872Z" fill="#EBEBEB"/>
<path d="M182.147 274.275H106.601V274.477H182.147V274.275Z" fill="#EBEBEB"/>
<path d="M192.832 228.058H37.1106C35.8893 228.058 34.7181 227.573 33.8545 226.71C32.991 225.846 32.5059 224.675 32.5059 223.454V4.56439C32.5165 3.35015 33.0063 2.18925 33.8687 1.3344C34.7311 0.479554 35.8963 -4.65519e-05 37.1106 3.38906e-09H192.832C193.437 3.38907e-09 194.036 0.119103 194.594 0.350512C195.153 0.581921 195.661 0.921103 196.088 1.34869C196.516 1.77628 196.855 2.2839 197.086 2.84257C197.318 3.40124 197.437 4.00001 197.437 4.60471V223.454C197.437 224.058 197.318 224.657 197.086 225.216C196.855 225.774 196.516 226.282 196.088 226.71C195.661 227.137 195.153 227.476 194.594 227.708C194.036 227.939 193.437 228.058 192.832 228.058ZM37.1106 0.161287C35.9435 0.163418 34.8247 0.627999 33.9995 1.45328C33.1742 2.27856 32.7096 3.39727 32.7075 4.56439V223.454C32.7096 224.621 33.1742 225.739 33.9995 226.565C34.8247 227.39 35.9435 227.855 37.1106 227.857H192.832C193.999 227.855 195.118 227.39 195.943 226.565C196.769 225.739 197.233 224.621 197.235 223.454V4.56439C197.233 3.39727 196.769 2.27856 195.943 1.45328C195.118 0.627999 193.999 0.163418 192.832 0.161287H37.1106Z" fill="#EBEBEB"/>
<path d="M367.262 228.058H211.541C210.32 228.058 209.148 227.573 208.285 226.71C207.421 225.846 206.936 224.675 206.936 223.454V4.56439C206.947 3.35015 207.436 2.18925 208.299 1.3344C209.161 0.479554 210.326 -4.65519e-05 211.541 3.38906e-09H367.262C368.484 3.38907e-09 369.655 0.485138 370.518 1.34869C371.382 2.21224 371.867 3.38347 371.867 4.60471V223.454C371.867 224.675 371.382 225.846 370.518 226.71C369.655 227.573 368.484 228.058 367.262 228.058ZM211.541 0.161287C210.374 0.163418 209.255 0.627999 208.43 1.45328C207.604 2.27856 207.14 3.39727 207.138 4.56439V223.454C207.14 224.621 207.604 225.739 208.43 226.565C209.255 227.39 210.374 227.855 211.541 227.857H367.262C368.43 227.855 369.548 227.39 370.373 226.565C371.199 225.739 371.663 224.621 371.665 223.454V4.56439C371.663 3.39727 371.199 2.27856 370.373 1.45328C369.548 0.627999 368.43 0.163418 367.262 0.161287H211.541Z" fill="#EBEBEB"/>
<path d="M403.794 264.025H0.579102V264.227H403.794V264.025Z" fill="#EBEBEB"/>
<path d="M358.763 20.4429H219.638V173.6H358.763V20.4429Z" fill="#E9E9E9"/>
<path d="M356.344 22.9189H222.323V170.891H356.344V22.9189Z" fill="#F9F9F9"/>
<path d="M274.37 106.836H257.25V171.278H274.37V106.836Z" fill="#F0F0F0"/>
<path d="M258.483 101.884H243.064V171.278H258.483V101.884Z" fill="#F0F0F0"/>
<path d="M245.774 135.44H230.355V171.286H245.774V135.44Z" fill="#EBEBEB"/>
<path d="M288.91 126.456H271.789V171.278H288.91V126.456Z" fill="#F0F0F0"/>
<path d="M247.355 108.691H245.774V110.279H247.355V108.691Z" fill="white"/>
<path d="M255.774 108.691H254.193V110.279H255.774V108.691Z" fill="white"/>
<path d="M247.355 113.852H245.774V115.44H247.355V113.852Z" fill="white"/>
<path d="M251.564 113.852H249.983V115.44H251.564V113.852Z" fill="white"/>
<path d="M255.774 119.005H254.193V120.593H255.774V119.005Z" fill="white"/>
<path d="M247.355 124.158H245.774V125.747H247.355V124.158Z" fill="white"/>
<path d="M251.564 124.158H249.983V125.747H251.564V124.158Z" fill="white"/>
<path d="M251.564 129.319H249.983V130.908H251.564V129.319Z" fill="white"/>
<path d="M255.774 129.319H254.193V130.908H255.774V129.319Z" fill="white"/>
<path d="M251.564 134.472H249.983V136.061H251.564V134.472Z" fill="white"/>
<path d="M255.774 134.472H254.193V136.061H255.774V134.472Z" fill="white"/>
<path d="M255.774 139.625H254.193V141.214H255.774V139.625Z" fill="white"/>
<path d="M251.564 144.786H249.983V146.375H251.564V144.786Z" fill="white"/>
<path d="M283.765 130.908H285.346V129.319H283.765V130.908Z" fill="white"/>
<path d="M275.346 130.908H276.926V129.319H275.346V130.908Z" fill="white"/>
<path d="M283.765 136.061H285.346V134.472H283.765V136.061Z" fill="white"/>
<path d="M279.555 136.061H281.136V134.472H279.555V136.061Z" fill="white"/>
<path d="M275.346 141.222H276.926V139.633H275.346V141.222Z" fill="white"/>
<path d="M283.765 146.367H285.346V144.778H283.765V146.367Z" fill="white"/>
<path d="M279.555 146.367H281.136V144.778H279.555V146.367Z" fill="white"/>
<path d="M279.555 151.528H281.136V149.94H279.555V151.528Z" fill="white"/>
<path d="M275.346 151.528H276.926V149.94H275.346V151.528Z" fill="white"/>
<path d="M279.555 156.689H281.136V155.101H279.555V156.689Z" fill="white"/>
<path d="M275.346 156.689H276.926V155.101H275.346V156.689Z" fill="white"/>
<path d="M275.346 161.842H276.926V160.254H275.346V161.842Z" fill="white"/>
<path d="M279.555 166.995H281.136V165.407H279.555V166.995Z" fill="white"/>
<path d="M309.031 172.391H325.829V92.6347H309.031V172.391Z" fill="#F0F0F0"/>
<path d="M324.611 172.391H339.739V86.5058H324.611V172.391Z" fill="#F5F5F5"/>
<path d="M337.086 172.399H352.215V128.045H337.086V172.399Z" fill="#EBEBEB"/>
<path d="M294.765 172.391H311.562V116.924H294.765V172.391Z" fill="#F5F5F5"/>
<path d="M335.538 96.917H337.086V94.9493H335.538V96.917Z" fill="white"/>
<path d="M327.28 96.917H328.829V94.9493H327.28V96.917Z" fill="white"/>
<path d="M335.538 103.296H337.086V101.328H335.538V103.296Z" fill="white"/>
<path d="M331.401 103.296H332.949V101.328H331.401V103.296Z" fill="white"/>
<path d="M327.28 109.666H328.829V107.699H327.28V109.666Z" fill="white"/>
<path d="M335.538 116.053H337.086V114.086H335.538V116.053Z" fill="white"/>
<path d="M331.401 116.053H332.949V114.086H331.401V116.053Z" fill="white"/>
<path d="M331.401 122.432H332.949V120.465H331.401V122.432Z" fill="white"/>
<path d="M327.28 122.432H328.829V120.465H327.28V122.432Z" fill="white"/>
<path d="M331.401 128.819H332.949V126.852H331.401V128.819Z" fill="white"/>
<path d="M327.28 128.819H328.829V126.852H327.28V128.819Z" fill="white"/>
<path d="M327.28 135.198H328.829V133.23H327.28V135.198Z" fill="white"/>
<path d="M331.401 141.569H332.949V139.601H331.401V141.569Z" fill="white"/>
<path d="M299.805 120.465H298.257V122.432H299.805V120.465Z" fill="white"/>
<path d="M308.063 120.465H306.515V122.432H308.063V120.465Z" fill="white"/>
<path d="M299.805 126.843H298.257V128.811H299.805V126.843Z" fill="white"/>
<path d="M303.934 126.843H302.386V128.811H303.934V126.843Z" fill="white"/>
<path d="M308.063 133.222H306.515V135.19H308.063V133.222Z" fill="white"/>
<path d="M299.805 139.609H298.257V141.577H299.805V139.609Z" fill="white"/>
<path d="M303.934 139.609H302.386V141.577H303.934V139.609Z" fill="white"/>
<path d="M303.934 145.988H302.386V147.956H303.934V145.988Z" fill="white"/>
<path d="M308.063 145.988H306.515V147.956H308.063V145.988Z" fill="white"/>
<path d="M303.934 152.367H302.386V154.335H303.934V152.367Z" fill="white"/>
<path d="M308.063 152.367H306.515V154.335H308.063V152.367Z" fill="white"/>
<path d="M308.063 158.746H306.515V160.713H308.063V158.746Z" fill="white"/>
<path d="M303.934 165.125H302.386V167.092H303.934V165.125Z" fill="white"/>
<path d="M264.975 54.8371C264.975 54.8371 222.509 60.8692 226.912 47.9663C231.315 35.0635 240.266 47.9663 240.266 47.9663C240.266 47.9663 244.871 39.902 249.895 42.2326C251.373 42.9622 252.649 44.0414 253.615 45.3765C254.58 46.7116 255.205 48.2622 255.435 49.8937C255.435 49.8937 256.927 45.5632 260.951 50.2001C264.975 54.8371 264.588 49.1921 264.975 54.8371Z" fill="#F0F0F0"/>
<path d="M300.692 69.5464C300.692 69.5464 266.427 74.385 269.975 63.9982C273.524 53.6113 280.749 63.9982 280.749 63.9982C280.749 63.9982 284.467 57.458 288.523 59.3692C289.716 59.9589 290.747 60.8304 291.527 61.9081C292.306 62.9859 292.812 64.2375 292.999 65.5546C292.999 65.5546 294.201 62.0627 297.451 65.8046C300.7 69.5464 300.386 64.9739 300.692 69.5464Z" fill="#F0F0F0"/>
<path d="M344.65 53.4423C344.65 53.4423 302.466 59.4341 306.837 46.6199C311.208 33.8057 320.102 46.6199 320.102 46.6199C320.102 46.6199 324.675 38.5556 329.667 40.9185C331.134 41.6435 332.402 42.716 333.361 44.0427C334.319 45.3695 334.939 46.9103 335.167 48.5312C335.167 48.5312 336.65 44.2329 340.65 48.8376C344.65 53.4423 344.263 47.8215 344.65 53.4423Z" fill="#F0F0F0"/>
<path d="M267.33 20.7896H264.976V173.6H267.33V20.7896Z" fill="#E9E9E9"/>
<path d="M311.619 20.7896H309.264V173.6H311.619V20.7896Z" fill="#E9E9E9"/>
<path d="M87.7788 111.876H53.3281V264.203H87.7788V111.876Z" fill="#E6E6E6"/>
<path d="M174.825 111.876H77.6094V264.203H174.825V111.876Z" fill="#F5F5F5"/>
<path d="M170.204 116.634H129.092V259.437H170.204V116.634Z" fill="#EBEBEB"/>
<path d="M124.302 116.634H83.1899V259.437H124.302V116.634Z" fill="#EBEBEB"/>
<path d="M129.092 170.1H165.236V162.657H129.092V170.1Z" fill="#F5F5F5"/>
<path d="M83.1898 170.1H119.334V162.657H83.1898V170.1Z" fill="#F5F5F5"/>
<path d="M129.092 214.526H165.236V207.083H129.092V214.526Z" fill="#F5F5F5"/>
<path d="M83.1898 214.526H119.334V207.083H83.1898V214.526Z" fill="#F5F5F5"/>
<path d="M152.325 259.437H156.252V218.688H152.325V259.437Z" fill="#FAFAFA"/>
<path d="M148.397 259.437H152.325V222.212H148.397V259.437Z" fill="#E0E0E0"/>
<path d="M156.252 259.437H160.179V222.212H156.252V259.437Z" fill="#E0E0E0"/>
<path d="M133.47 259.437H136.527V222.212H133.47V259.437Z" fill="#E0E0E0"/>
<path d="M129.084 259.437H133.471V219.333H129.084V259.437Z" fill="#F0F0F0"/>
<path d="M142.462 259.437H148.39V222.212H142.462V259.437Z" fill="#F5F5F5"/>
<path d="M136.535 259.437H142.462V219.873H136.535V259.437Z" fill="#E6E6E6"/>
<path d="M106.415 259.437H110.342V218.688H106.415V259.437Z" fill="#E0E0E0"/>
<path d="M102.496 259.437H106.423V222.212H102.496V259.437Z" fill="#E0E0E0"/>
<path d="M110.351 259.437H114.278V222.212H110.351V259.437Z" fill="#FAFAFA"/>
<path d="M87.5686 259.437H90.625V222.212H87.5686V259.437Z" fill="#E0E0E0"/>
<path d="M83.1819 259.437H87.5688V219.333H83.1819V259.437Z" fill="#F0F0F0"/>
<path d="M96.56 259.437H102.487V222.212H96.56V259.437Z" fill="#F5F5F5"/>
<path d="M90.6333 259.437H96.5605V219.873H90.6333V259.437Z" fill="#E6E6E6"/>
<path d="M133.019 173.334H129.092V207.325H133.019V173.334Z" fill="#FAFAFA"/>
<path d="M136.946 176.27H133.019V207.325H136.946V176.27Z" fill="#E0E0E0"/>
<path d="M151.865 176.27H148.809V207.325H151.865V176.27Z" fill="#E0E0E0"/>
<path d="M159.744 176.27H156.252V207.325H159.744V176.27Z" fill="#E0E0E0"/>
<path d="M156.253 173.874H151.866V207.325H156.253V173.874Z" fill="#F0F0F0"/>
<path d="M142.874 176.27H136.946V207.325H142.874V176.27Z" fill="#F5F5F5"/>
<path d="M148.809 174.326H142.881V207.325H148.809V174.326Z" fill="#E6E6E6"/>
<path d="M86.9073 173.334H82.98V207.325H86.9073V173.334Z" fill="#E0E0E0"/>
<path d="M90.835 176.27H86.9077V207.325H90.835V176.27Z" fill="#E6E6E6"/>
<path d="M105.754 176.27H102.697V207.325H105.754V176.27Z" fill="#E0E0E0"/>
<path d="M110.141 173.874H105.754V207.325H110.141V173.874Z" fill="#F0F0F0"/>
<path d="M114.512 173.874H110.125V207.325H114.512V173.874Z" fill="#F5F5F5"/>
<path d="M96.7622 176.27H90.835V207.325H96.7622V176.27Z" fill="#F5F5F5"/>
<path d="M102.697 174.326H96.77V207.325H102.697V174.326Z" fill="#E6E6E6"/>
<path d="M133.019 134.601H129.092V162.649H133.019V134.601Z" fill="#FAFAFA"/>
<path d="M136.946 131.601H133.019V162.657H136.946V131.601Z" fill="#E0E0E0"/>
<path d="M160.179 131.601H156.252V162.657H160.179V131.601Z" fill="#E0E0E0"/>
<path d="M151.865 131.601H148.809V162.657H151.865V131.601Z" fill="#E0E0E0"/>
<path d="M156.253 129.198H151.866V162.649H156.253V129.198Z" fill="#F0F0F0"/>
<path d="M142.874 131.601H136.946V162.657H142.874V131.601Z" fill="#F5F5F5"/>
<path d="M148.809 129.65H142.881V162.649H148.809V129.65Z" fill="#E6E6E6"/>
<path d="M106.415 162.657H110.342V134.609H106.415V162.657Z" fill="#FAFAFA"/>
<path d="M102.496 162.649H106.423V131.593H102.496V162.649Z" fill="#E0E0E0"/>
<path d="M110.351 162.649H114.278V131.593H110.351V162.649Z" fill="#E0E0E0"/>
<path d="M87.5686 162.649H90.625V131.593H87.5686V162.649Z" fill="#E0E0E0"/>
<path d="M83.1819 162.657H87.5688V137.19H83.1819V162.657Z" fill="#E0E0E0"/>
<path d="M96.56 162.649H102.487V131.593H96.56V162.649Z" fill="#F5F5F5"/>
<path d="M90.6333 162.657H96.5605V129.658H90.6333V162.657Z" fill="#E6E6E6"/>
<path d="M130.019 97.7876C130.019 97.7876 134.422 99.8763 135.535 96.328C136.648 92.7797 141.301 96.4651 142.228 92.2958C143.156 88.1266 146.962 90.8846 148.269 87.9814C149.575 85.0783 153.97 85.0057 153.696 82.03C153.422 79.0542 148.325 82.2316 146.002 81.3768C143.68 80.5219 142.196 85.4815 139.132 85.4896C136.067 85.4976 135.051 91.3442 133.043 90.6507C131.035 89.9572 129.454 94.949 130.019 97.7876Z" fill="#EBEBEB"/>
<path d="M129.076 99.2311C129.076 99.2311 137.947 89.0298 149.559 82.8606C149.559 82.8606 143.471 83.7315 128.253 98.8844L129.076 99.2311Z" fill="#E0E0E0"/>
<path d="M113.995 96.3363C113.995 96.3363 106.834 94.3041 109.157 89.0784C111.479 83.8527 102.399 83.4334 105.544 77.6997C108.689 71.966 101.512 71.3127 102.947 66.6677C104.382 62.0227 99.3987 57.5067 102.705 54.3616C106.011 51.2165 108.673 60.0066 112.197 61.3533C115.721 62.7001 112.431 69.9015 115.947 72.9982C119.463 76.0949 114.753 83.8285 117.753 85.0462C120.753 86.264 117.511 93.6428 113.995 96.3363Z" fill="#E0E0E0"/>
<path d="M113.624 98.9407C113.624 98.9407 113.624 78.2639 106.56 59.5305C106.56 59.5305 112.681 66.6513 114.915 99.3762L113.624 98.9407Z" fill="#FAFAFA"/>
<path d="M124.833 97.0136C124.833 97.0136 130.841 98.32 131.212 93.5782C131.583 88.8364 138.341 92.0702 138.293 86.5865C138.244 81.1027 143.72 83.4494 144.494 79.4576C145.268 75.4658 150.671 74.0868 149.486 70.4659C148.301 66.8451 142.938 72.2885 139.809 71.9014C136.68 71.5143 136.285 78.127 132.551 79.0302C128.817 79.9334 129.188 87.5058 126.519 87.2316C123.85 86.9574 123.334 93.6508 124.833 97.0136Z" fill="#E0E0E0"/>
<path d="M124.076 99.0861C124.076 99.0861 132.14 83.7639 144.631 72.7319C144.631 72.7319 137.374 75.5867 122.971 98.8925L124.076 99.0861Z" fill="#F5F5F5"/>
<path d="M96.8667 98.2069C96.8667 98.2069 92.6732 99.6505 91.899 95.8764C91.1249 92.1023 86.6008 95.1425 86.0524 90.7475C85.5041 86.3524 81.8106 88.5862 80.8268 85.4412C79.8429 82.2961 75.8027 81.5461 76.2704 78.5704C76.7382 75.5946 81.1897 79.5945 83.3832 79.0784C85.5766 78.5623 86.6089 83.8364 89.3991 84.3041C92.1894 84.7718 92.7216 90.8765 94.6087 90.4733C96.4957 90.0701 97.5924 95.4086 96.8667 98.2069Z" fill="#F0F0F0"/>
<path d="M97.6251 99.812C97.6251 99.812 90.1898 88.0945 80.0127 80.0625C80.0127 80.0625 85.5367 81.8689 98.4074 99.5862L97.6251 99.812Z" fill="#E0E0E0"/>
<path d="M102.351 95.8848C102.351 95.8848 99.5684 97.9493 95.1975 90.022C90.8267 82.0948 86.8429 72.6999 81.5688 69.8613C81.5688 69.8613 88.8267 68.5307 95.7459 78.1514C102.665 87.7721 103.802 95.0622 102.351 95.8848Z" fill="#E0E0E0"/>
<path d="M104.23 98.9973C102.045 93.9975 100.045 89.9411 98.2543 86.659C97.8949 85.446 97.8726 84.158 98.1898 82.9333C97.6858 83.7375 97.507 84.7035 97.6898 85.6348C96.206 82.9816 94.8834 80.8688 93.7222 79.1834C93.206 77.385 93.8028 76.7641 93.8028 76.7641C93.1335 77.0302 93.1093 77.8044 93.2222 78.4414C90.061 74.0141 88.2868 73.0061 88.2868 73.0061C89.0368 73.8851 89.7545 74.7803 90.4561 75.6915C89.5829 75.1684 88.5785 74.9054 87.561 74.9335C88.8379 75.1302 90.04 75.6617 91.0448 76.4738C92.4399 78.3447 93.7141 80.2559 94.8754 82.1188C93.7797 81.0776 92.4361 80.3336 90.9722 79.9575C91.2787 80.0382 93.1899 80.6591 95.6415 83.3768C96.964 85.5783 98.1091 87.7073 99.093 89.6508C97.8698 88.7215 96.3517 88.266 94.8189 88.3686C96.5388 88.5692 98.1593 89.2797 99.472 90.4089C100.865 93.1949 102.114 96.0507 103.214 98.9651L104.23 98.9973Z" fill="#F5F5F5"/>
<path d="M107.302 95.4733C107.302 95.4733 104.076 96.812 101.746 88.0703C99.4152 79.3286 97.7137 69.2562 93.3105 65.2563C93.3105 65.2563 100.697 65.6999 105.101 76.6754C109.504 87.6509 108.891 95.0136 107.302 95.4733Z" fill="#F5F5F5"/>
<path d="M108.383 98.9409C107.447 93.562 106.472 89.1508 105.512 85.5299C105.447 84.2696 105.726 83.0154 106.318 81.901C105.641 82.5657 105.238 83.4609 105.189 84.409C104.383 81.4816 103.576 79.1108 102.867 77.2076C102.794 75.3447 103.52 74.9173 103.52 74.9173C102.802 75.0141 102.593 75.7237 102.552 76.4011C100.536 71.3448 99.0604 69.9497 99.0604 69.9497C99.5766 70.9819 100.06 72.0222 100.52 73.0706C99.7974 72.3543 98.8854 71.8592 97.8911 71.6432C99.085 72.1395 100.126 72.9437 100.907 73.9738C101.818 76.127 102.601 78.2801 103.326 80.3768C102.509 79.1026 101.379 78.0588 100.044 77.3447C100.318 77.4979 102.028 78.5543 103.77 81.78C104.52 84.1993 105.133 86.6186 105.625 88.6992C104.659 87.5035 103.292 86.6984 101.778 86.4331C103.4 87.0374 104.804 88.1131 105.81 89.5218C106.505 92.5593 107.043 95.6304 107.423 98.7231L108.383 98.9409Z" fill="#E0E0E0"/>
<path d="M119.931 95.2153C119.931 95.2153 124.141 96.8281 126.915 85.401C129.689 73.9739 131.487 60.7888 137.14 55.4341C137.14 55.4341 127.544 56.2405 122.173 70.6917C116.802 85.143 117.818 94.675 119.931 95.2153Z" fill="#F5F5F5"/>
<path d="M118.6 99.7637C119.64 92.7397 120.761 86.9656 121.89 82.2238C121.923 80.5767 121.508 78.9516 120.689 77.5223C121.596 78.3628 122.152 79.515 122.245 80.748C123.197 76.9094 124.148 73.8047 125.027 71.3047C125.027 68.8855 124.108 68.3451 124.108 68.3451C125.043 68.4419 125.334 69.4016 125.406 70.2483C127.874 63.5953 129.745 61.7324 129.745 61.7324C129.108 63.0872 128.511 64.4662 127.947 65.8452C128.865 64.8925 130.033 64.2188 131.317 63.9017C129.782 64.5884 128.456 65.6677 127.471 67.0307C126.366 69.8612 125.414 72.6757 124.592 75.4417C125.612 73.7617 127.048 72.373 128.761 71.4096C128.406 71.6193 126.213 73.0224 124.06 77.2965C123.156 80.5222 122.447 83.5867 121.874 86.3608C123.092 84.7755 124.842 83.6842 126.801 83.2883C123.761 84.6995 122.334 86.3366 121.656 87.4414C120.872 91.4112 120.296 95.4192 119.931 99.4492L118.6 99.7637Z" fill="#E0E0E0"/>
<path d="M143.713 101.61L142.1 107.884C141.781 109.081 141.078 110.139 140.099 110.897C139.12 111.655 137.919 112.069 136.68 112.077H93.1575C91.9193 112.069 90.7181 111.655 89.7388 110.897C88.7596 110.139 88.0566 109.081 87.7383 107.884L86.1254 101.61C86.0147 101.181 86.0035 100.733 86.0927 100.299C86.1819 99.8658 86.369 99.4583 86.6398 99.1081C86.9106 98.758 87.2579 98.4743 87.6552 98.279C88.0524 98.0836 88.4891 97.9817 88.9318 97.981H140.898C141.342 97.9789 141.78 98.0788 142.18 98.2732C142.579 98.4675 142.928 98.751 143.2 99.1018C143.472 99.4526 143.66 99.8612 143.748 100.296C143.837 100.731 143.825 101.181 143.713 101.61Z" fill="#E6E6E6"/>
<path d="M202.186 300C288.541 300 358.545 295.913 358.545 290.871C358.545 285.83 288.541 281.742 202.186 281.742C115.832 281.742 45.8276 285.83 45.8276 290.871C45.8276 295.913 115.832 300 202.186 300Z" fill="#F5F5F5"/>
<path d="M286.144 280.799L267.984 240.534H225.525L232.025 278.218C232.101 278.658 232.091 279.108 231.993 279.544C231.895 279.979 231.713 280.391 231.456 280.755C231.199 281.12 230.873 281.431 230.496 281.669C230.119 281.908 229.699 282.07 229.259 282.146C229.078 282.178 228.894 282.194 228.711 282.194H210.09C209.611 282.194 209.152 282.384 208.813 282.723C208.474 283.062 208.284 283.521 208.284 284.001V286C208.284 286.48 208.474 286.939 208.813 287.278C209.152 287.617 209.611 287.807 210.09 287.807H284.83C285.35 287.807 285.848 287.6 286.216 287.233C286.583 286.865 286.79 286.367 286.79 285.847V283.767C286.784 282.743 286.565 281.732 286.144 280.799ZM266.484 275.799H246.097C245.455 275.797 244.833 275.569 244.342 275.155C243.851 274.74 243.522 274.166 243.412 273.533L240.339 255.792C240.278 255.439 240.286 255.078 240.365 254.728C240.443 254.379 240.589 254.049 240.795 253.756C241.001 253.463 241.263 253.214 241.565 253.022C241.867 252.83 242.204 252.7 242.557 252.638C242.715 252.626 242.874 252.626 243.033 252.638H258.444C258.97 252.639 259.485 252.791 259.928 253.077C260.37 253.363 260.72 253.771 260.936 254.251L269 271.993C269.184 272.409 269.263 272.864 269.228 273.317C269.193 273.771 269.045 274.208 268.799 274.591C268.552 274.973 268.215 275.288 267.816 275.508C267.418 275.727 266.971 275.844 266.516 275.848L266.484 275.799Z" fill="#263238"/>
<path opacity="0.5" d="M286.144 280.799L267.984 240.534H225.525L232.025 278.218C232.101 278.658 232.091 279.108 231.993 279.544C231.895 279.979 231.713 280.391 231.456 280.755C231.199 281.12 230.873 281.431 230.496 281.669C230.119 281.908 229.699 282.07 229.259 282.146C229.078 282.178 228.894 282.194 228.711 282.194H210.09C209.611 282.194 209.152 282.384 208.813 282.723C208.474 283.062 208.284 283.521 208.284 284.001V286C208.284 286.48 208.474 286.939 208.813 287.278C209.152 287.617 209.611 287.807 210.09 287.807H284.83C285.35 287.807 285.848 287.6 286.216 287.233C286.583 286.865 286.79 286.367 286.79 285.847V283.767C286.784 282.743 286.565 281.732 286.144 280.799ZM266.484 275.799H246.097C245.455 275.797 244.833 275.569 244.342 275.155C243.851 274.74 243.522 274.166 243.412 273.533L240.339 255.792C240.278 255.439 240.286 255.078 240.365 254.728C240.443 254.379 240.589 254.049 240.795 253.756C241.001 253.463 241.263 253.214 241.565 253.022C241.867 252.83 242.204 252.7 242.557 252.638C242.715 252.626 242.874 252.626 243.033 252.638H258.444C258.97 252.639 259.485 252.791 259.928 253.077C260.37 253.363 260.72 253.771 260.936 254.251L269 271.993C269.184 272.409 269.263 272.864 269.228 273.317C269.193 273.771 269.045 274.208 268.799 274.591C268.552 274.973 268.215 275.288 267.816 275.508C267.418 275.727 266.971 275.844 266.516 275.848L266.484 275.799Z" fill="white"/>
<path opacity="0.2" d="M266.483 275.799H246.097C245.454 275.797 244.833 275.569 244.342 275.155C243.851 274.74 243.521 274.166 243.411 273.533L240.339 255.792C240.277 255.439 240.286 255.078 240.364 254.728C240.442 254.379 240.589 254.048 240.795 253.756C241 253.463 241.262 253.213 241.564 253.022C241.867 252.83 242.204 252.7 242.556 252.638C242.715 252.626 242.874 252.626 243.032 252.638H258.443C258.97 252.639 259.485 252.791 259.927 253.077C260.369 253.363 260.719 253.771 260.935 254.251L268.999 271.993C269.184 272.408 269.262 272.864 269.227 273.317C269.192 273.771 269.045 274.208 268.798 274.591C268.552 274.973 268.214 275.288 267.816 275.508C267.417 275.727 266.97 275.844 266.515 275.847L266.483 275.799Z" fill="white"/>
<path d="M245.427 252.55H243.008C242.649 252.549 242.294 252.618 241.962 252.755C241.631 252.891 241.329 253.092 241.075 253.345C240.821 253.599 240.62 253.899 240.482 254.231C240.345 254.562 240.274 254.917 240.274 255.276C240.272 255.432 240.285 255.589 240.315 255.743L243.387 273.485C243.497 274.118 243.826 274.692 244.317 275.106C244.809 275.521 245.43 275.749 246.072 275.751H248.492C247.848 275.751 247.225 275.523 246.732 275.109C246.239 274.694 245.908 274.119 245.798 273.485L242.726 255.743C242.604 255.03 242.77 254.298 243.187 253.707C243.604 253.116 244.239 252.714 244.952 252.59C245.109 252.564 245.268 252.55 245.427 252.55Z" fill="#263238"/>
<path d="M288.547 280.799L270.37 240.574H267.951L286.112 280.799C286.539 281.739 286.759 282.759 286.757 283.791V285.871C286.757 286.391 286.551 286.89 286.183 287.257C285.816 287.625 285.317 287.831 284.798 287.831H287.217C287.474 287.831 287.728 287.78 287.965 287.682C288.203 287.583 288.418 287.439 288.6 287.257C288.781 287.074 288.925 286.858 289.022 286.621C289.12 286.383 289.169 286.128 289.168 285.871V283.791C289.178 282.761 288.966 281.74 288.547 280.799Z" fill="#263238"/>
<path opacity="0.2" d="M267.967 240.534H225.509L227.178 250.147H272.314L267.967 240.534Z" fill="black"/>
<path d="M328.869 244.76H147.745C146.962 244.775 146.184 244.635 145.455 244.35C144.727 244.064 144.061 243.637 143.497 243.094C142.933 242.551 142.482 241.903 142.169 241.185C141.856 240.468 141.687 239.696 141.672 238.913C141.655 238.645 141.655 238.375 141.672 238.107L153.148 107.255C153.331 105.459 154.165 103.792 155.494 102.569C156.822 101.346 158.552 100.652 160.357 100.618H341.489C343.071 100.59 344.599 101.191 345.737 102.289C346.876 103.387 347.532 104.892 347.562 106.473C347.579 106.742 347.579 107.011 347.562 107.279L336.054 238.131C335.875 239.923 335.045 241.588 333.72 242.81C332.396 244.031 330.67 244.725 328.869 244.76Z" fill="#263238"/>
<path opacity="0.3" d="M328.869 244.76H147.745C146.962 244.775 146.184 244.635 145.455 244.35C144.727 244.064 144.061 243.637 143.497 243.094C142.933 242.551 142.482 241.903 142.169 241.185C141.856 240.468 141.687 239.696 141.672 238.913C141.655 238.645 141.655 238.375 141.672 238.107L153.148 107.255C153.331 105.459 154.165 103.792 155.494 102.569C156.822 101.346 158.552 100.652 160.357 100.618H341.489C343.071 100.59 344.599 101.191 345.737 102.289C346.876 103.387 347.532 104.892 347.562 106.473C347.579 106.742 347.579 107.011 347.562 107.279L336.054 238.131C335.875 239.923 335.045 241.588 333.72 242.81C332.396 244.031 330.67 244.725 328.869 244.76Z" fill="white"/>
<path d="M142.938 223.986L141.704 238.131C141.528 239.703 141.982 241.28 142.968 242.517C143.954 243.754 145.391 244.549 146.962 244.727C147.231 244.745 147.5 244.745 147.769 244.727H328.869C330.674 244.696 332.405 244.003 333.733 242.78C335.061 241.556 335.892 239.887 336.07 238.09L337.312 223.946L142.938 223.986Z" fill="#D71635"/>
<path opacity="0.7" d="M142.938 223.986L141.704 238.131C141.528 239.703 141.982 241.28 142.968 242.517C143.954 243.754 145.391 244.549 146.962 244.727C147.231 244.745 147.5 244.745 147.769 244.727H328.869C330.674 244.696 332.405 244.003 333.733 242.78C335.061 241.556 335.892 239.887 336.07 238.09L337.312 223.946L142.938 223.986Z" fill="white"/>
<path d="M330.917 219.978H150.027C149.602 219.987 149.179 219.913 148.783 219.759C148.387 219.604 148.025 219.373 147.719 219.079C147.412 218.784 147.167 218.432 146.997 218.043C146.827 217.653 146.736 217.234 146.729 216.809C146.721 216.669 146.721 216.529 146.729 216.389L156.22 108.215C156.327 107.246 156.782 106.348 157.499 105.689C158.217 105.029 159.149 104.651 160.123 104.626H341.014C341.439 104.618 341.861 104.693 342.257 104.848C342.653 105.004 343.014 105.236 343.319 105.531C343.625 105.826 343.87 106.179 344.039 106.569C344.208 106.959 344.298 107.378 344.304 107.803C344.316 107.94 344.316 108.078 344.304 108.215L334.828 216.389C334.721 217.36 334.266 218.258 333.547 218.918C332.827 219.578 331.893 219.954 330.917 219.978Z" fill="#D71635"/>
<path opacity="0.8" d="M330.917 219.978H150.027C149.602 219.987 149.179 219.913 148.783 219.759C148.387 219.604 148.025 219.373 147.719 219.079C147.412 218.784 147.167 218.432 146.997 218.043C146.827 217.653 146.736 217.234 146.729 216.809C146.721 216.669 146.721 216.529 146.729 216.389L156.22 108.215C156.327 107.246 156.782 106.348 157.499 105.689C158.217 105.029 159.149 104.651 160.123 104.626H341.014C341.439 104.618 341.861 104.693 342.257 104.848C342.653 105.004 343.014 105.236 343.319 105.531C343.625 105.826 343.87 106.179 344.039 106.569C344.208 106.959 344.298 107.378 344.304 107.803C344.316 107.94 344.316 108.078 344.304 108.215L334.828 216.389C334.721 217.36 334.266 218.258 333.547 218.918C332.827 219.578 331.893 219.954 330.917 219.978Z" fill="#D71635"/>
<path opacity="0.8" d="M330.917 219.978H150.027C149.602 219.987 149.179 219.913 148.783 219.759C148.387 219.604 148.025 219.373 147.719 219.079C147.412 218.784 147.167 218.432 146.997 218.043C146.827 217.653 146.736 217.234 146.729 216.809C146.721 216.669 146.721 216.529 146.729 216.389L156.22 108.215C156.327 107.246 156.782 106.348 157.499 105.689C158.217 105.029 159.149 104.651 160.123 104.626H341.014C341.439 104.618 341.861 104.693 342.257 104.848C342.653 105.004 343.014 105.236 343.319 105.531C343.625 105.826 343.87 106.179 344.039 106.569C344.208 106.959 344.298 107.378 344.304 107.803C344.316 107.94 344.316 108.078 344.304 108.215L334.828 216.389C334.721 217.36 334.266 218.258 333.547 218.918C332.827 219.578 331.893 219.954 330.917 219.978Z" fill="white"/>
<g opacity="0.5">
<path d="M200.719 219.986H184.195L208.718 104.626H225.234L200.719 219.986Z" fill="white"/>
<path d="M211.17 219.986H206.944L231.467 104.626H235.693L211.17 219.986Z" fill="white"/>
<path d="M272.7 219.986H269.926L294.45 104.626H297.216L272.7 219.986Z" fill="white"/>
<path d="M283.16 219.986H278.935L303.45 104.626H307.676L283.16 219.986Z" fill="white"/>
</g>
<path d="M345.49 100.634H341.458C342.24 100.619 343.018 100.759 343.747 101.044C344.476 101.33 345.141 101.757 345.705 102.3C346.269 102.843 346.72 103.491 347.033 104.209C347.347 104.926 347.515 105.698 347.53 106.481C347.547 106.749 347.547 107.019 347.53 107.287L336.054 238.131C335.877 239.927 335.045 241.596 333.717 242.82C332.389 244.044 330.658 244.737 328.853 244.768H332.885C334.69 244.735 336.42 244.041 337.747 242.818C339.075 241.595 339.907 239.927 340.087 238.131L351.53 107.255C351.616 106.477 351.548 105.689 351.33 104.937C351.111 104.185 350.747 103.483 350.257 102.872C349.767 102.26 349.162 101.752 348.475 101.375C347.788 100.998 347.034 100.76 346.256 100.675C346.002 100.641 345.746 100.627 345.49 100.634Z" fill="#263238"/>
<path opacity="0.6" d="M345.49 100.634H341.458C342.24 100.619 343.018 100.759 343.747 101.044C344.476 101.33 345.141 101.757 345.705 102.3C346.269 102.843 346.72 103.491 347.033 104.209C347.347 104.926 347.515 105.698 347.53 106.481C347.547 106.749 347.547 107.019 347.53 107.287L336.054 238.131C335.877 239.927 335.045 241.596 333.717 242.82C332.389 244.044 330.658 244.737 328.853 244.768H332.885C334.69 244.735 336.42 244.041 337.747 242.818C339.075 241.595 339.907 239.927 340.087 238.131L351.53 107.255C351.616 106.477 351.548 105.689 351.33 104.937C351.111 104.185 350.747 103.483 350.257 102.872C349.767 102.26 349.162 101.752 348.475 101.375C347.788 100.998 347.034 100.76 346.256 100.675C346.002 100.641 345.746 100.627 345.49 100.634Z" fill="white"/>
<path d="M249.476 179.592C249.1 183.267 247.391 186.677 244.672 189.178C241.953 191.678 238.412 193.096 234.718 193.164C232.981 193.193 231.258 192.851 229.664 192.163C228.069 191.474 226.639 190.454 225.469 189.17C224.299 187.887 223.415 186.369 222.877 184.717C222.339 183.066 222.159 181.318 222.348 179.592C222.723 175.917 224.432 172.507 227.152 170.006C229.871 167.505 233.412 166.087 237.105 166.02L237.718 159.084C226.388 159.084 216.404 168.261 215.412 179.592C214.42 190.922 222.799 200.099 234.129 200.099C245.46 200.099 255.411 190.914 256.411 179.592H249.476Z" fill="#D71635"/>
<path d="M258.846 176.608C259.838 165.278 251.46 156.101 240.129 156.101L239.524 163.036C241.263 163.004 242.988 163.343 244.586 164.03C246.183 164.717 247.615 165.736 248.787 167.021C249.96 168.305 250.844 169.824 251.383 171.478C251.922 173.131 252.102 174.88 251.911 176.608H258.846Z" fill="#D71635"/>
<path opacity="0.3" d="M258.846 176.608C259.838 165.278 251.46 156.101 240.129 156.101L239.524 163.036C241.263 163.004 242.988 163.343 244.586 164.03C246.183 164.717 247.615 165.736 248.787 167.021C249.96 168.305 250.844 169.824 251.383 171.478C251.922 173.131 252.102 174.88 251.911 176.608H258.846Z" fill="black"/>
<path d="M241.856 179.592C241.684 181.265 240.906 182.817 239.669 183.955C238.431 185.093 236.819 185.738 235.138 185.769C234.346 185.784 233.561 185.63 232.833 185.318C232.106 185.005 231.453 184.541 230.919 183.957C230.385 183.372 229.981 182.681 229.735 181.928C229.49 181.175 229.407 180.379 229.493 179.592C229.657 177.912 230.433 176.351 231.673 175.206C232.913 174.061 234.531 173.412 236.219 173.382L236.493 170.221C233.954 170.28 231.524 171.265 229.661 172.991C227.799 174.717 226.631 177.065 226.38 179.592C226.251 180.781 226.376 181.983 226.747 183.12C227.118 184.256 227.727 185.3 228.534 186.183C229.34 187.066 230.326 187.767 231.424 188.239C232.522 188.711 233.709 188.944 234.904 188.922C237.436 188.867 239.861 187.887 241.722 186.169C243.583 184.451 244.752 182.112 245.009 179.592H241.856Z" fill="#D71635"/>
<path opacity="0.3" d="M241.856 179.592C241.684 181.265 240.906 182.817 239.669 183.955C238.431 185.093 236.819 185.738 235.138 185.769C234.346 185.784 233.561 185.63 232.833 185.318C232.106 185.005 231.453 184.541 230.919 183.957C230.385 183.372 229.981 182.681 229.735 181.928C229.49 181.175 229.407 180.379 229.493 179.592C229.657 177.912 230.433 176.351 231.673 175.206C232.913 174.061 234.531 173.412 236.219 173.382L236.493 170.221C233.954 170.28 231.524 171.265 229.661 172.991C227.799 174.717 226.631 177.065 226.38 179.592C226.251 180.781 226.376 181.983 226.747 183.12C227.118 184.256 227.727 185.3 228.534 186.183C229.34 187.066 230.326 187.767 231.424 188.239C232.522 188.711 233.709 188.944 234.904 188.922C237.436 188.867 239.861 187.887 241.722 186.169C243.583 184.451 244.752 182.112 245.009 179.592H241.856Z" fill="black"/>
<path d="M246.121 178.221C246.251 177.032 246.125 175.83 245.754 174.693C245.383 173.557 244.774 172.512 243.967 171.63C243.161 170.747 242.176 170.046 241.077 169.574C239.979 169.102 238.792 168.869 237.597 168.891L237.323 172.044C238.114 172.029 238.9 172.183 239.628 172.495C240.355 172.808 241.008 173.272 241.542 173.856C242.076 174.441 242.479 175.132 242.725 175.885C242.971 176.637 243.054 177.434 242.968 178.221H246.121Z" fill="#D71635"/>
<path d="M286.056 190.269H269.766C269.623 190.271 269.482 190.243 269.352 190.186C269.221 190.13 269.104 190.046 269.008 189.941C268.912 189.836 268.839 189.711 268.795 189.576C268.75 189.441 268.735 189.298 268.75 189.156C268.781 188.855 268.921 188.576 269.144 188.371C269.367 188.166 269.657 188.05 269.959 188.043H286.281C286.423 188.041 286.564 188.07 286.695 188.126C286.825 188.183 286.942 188.267 287.037 188.372C287.132 188.477 287.204 188.602 287.248 188.737C287.291 188.872 287.305 189.015 287.289 189.156C287.259 189.462 287.116 189.746 286.888 189.951C286.66 190.157 286.363 190.271 286.056 190.269Z" fill="#263238"/>
<path d="M281.596 194.648H269.378C269.236 194.65 269.095 194.622 268.965 194.565C268.835 194.509 268.718 194.425 268.623 194.319C268.527 194.214 268.455 194.09 268.412 193.955C268.368 193.819 268.354 193.676 268.37 193.535C268.4 193.233 268.54 192.953 268.763 192.748C268.986 192.543 269.277 192.427 269.58 192.422H281.789C281.935 192.415 282.08 192.44 282.215 192.495C282.35 192.55 282.471 192.634 282.57 192.741C282.669 192.848 282.744 192.975 282.788 193.113C282.833 193.252 282.847 193.399 282.829 193.543C282.797 193.848 282.653 194.129 282.425 194.333C282.197 194.538 281.902 194.65 281.596 194.648Z" fill="#263238"/>
<path d="M186.631 192.108H202.945C203.247 192.104 203.536 191.989 203.759 191.785C203.982 191.582 204.123 191.303 204.154 191.003C204.172 190.862 204.159 190.718 204.116 190.582C204.073 190.446 204.001 190.321 203.905 190.216C203.809 190.11 203.692 190.027 203.561 189.97C203.43 189.914 203.289 189.887 203.146 189.89H186.865C186.561 189.895 186.271 190.011 186.047 190.216C185.824 190.421 185.685 190.701 185.655 191.003C185.639 191.141 185.652 191.281 185.694 191.414C185.736 191.546 185.805 191.668 185.897 191.773C185.989 191.877 186.102 191.96 186.228 192.018C186.355 192.076 186.492 192.106 186.631 192.108Z" fill="#263238"/>
<path d="M190.34 196.487H202.557C202.86 196.48 203.15 196.364 203.373 196.159C203.595 195.954 203.736 195.675 203.767 195.374C203.783 195.232 203.769 195.088 203.725 194.953C203.681 194.817 203.608 194.692 203.512 194.586C203.416 194.481 203.298 194.397 203.167 194.341C203.035 194.285 202.894 194.258 202.751 194.261H190.542C190.238 194.265 189.946 194.381 189.721 194.586C189.497 194.791 189.355 195.071 189.324 195.374C189.309 195.515 189.324 195.659 189.369 195.794C189.413 195.929 189.486 196.053 189.582 196.158C189.678 196.264 189.795 196.347 189.926 196.404C190.056 196.46 190.198 196.489 190.34 196.487Z" fill="#263238"/>
<path d="M265.693 189.793H260.136L247.532 175.987H243.476L243.58 174.818H248.121L260.717 188.632H265.798L265.693 189.793Z" fill="#263238"/>
<path d="M206.146 192.221H211.703L224.307 178.407H228.363L228.267 177.245H223.718L211.122 191.051H206.042L206.146 192.221Z" fill="#263238"/>
<path opacity="0.1" d="M199.388 121.392H169.881L170.373 115.763H199.88L199.388 121.392Z" fill="black"/>
<path opacity="0.1" d="M198.404 132.642H168.897L169.389 127.013H198.896L198.404 132.642Z" fill="black"/>
<path opacity="0.1" d="M197.421 143.891H167.914L168.405 138.262H197.913L197.421 143.891Z" fill="black"/>
<path opacity="0.2" d="M198.896 127.013H169.389L169.881 121.392H199.388L198.896 127.013Z" fill="white"/>
<path opacity="0.2" d="M197.913 138.262H168.405L168.897 132.642H198.404L197.913 138.262Z" fill="white"/>
<path d="M186.59 143.246C182.639 143.246 181.978 136.601 181.284 129.537C180.639 123.085 179.97 116.336 176.51 116.336C173.679 116.336 170.438 125.868 169.43 129.537L168.857 129.432C169.508 127.136 170.283 124.878 171.179 122.666C173.075 118.069 174.889 115.739 176.566 115.739C180.518 115.739 181.179 122.392 181.873 129.448C182.518 135.9 183.187 142.649 186.647 142.649C189.405 142.649 192.55 133.593 193.647 129.746C193.669 129.67 193.718 129.605 193.785 129.562C193.851 129.519 193.931 129.502 194.009 129.513C194.047 129.52 194.082 129.535 194.114 129.557C194.145 129.579 194.171 129.607 194.191 129.64C194.211 129.672 194.223 129.709 194.228 129.747C194.233 129.784 194.23 129.823 194.219 129.859C193.584 132.047 192.836 134.201 191.977 136.311C190.09 140.916 188.268 143.246 186.59 143.246Z" fill="#D71635"/>
<path d="M172.978 140.182C169.978 140.182 168.946 130.714 168.841 129.634L169.438 129.529C169.712 132.327 170.905 139.585 173.026 139.585C175.147 139.585 176.381 135.254 177.526 131.069C178.8 126.44 180.002 122.069 182.655 122.069C184.889 122.069 185.252 125.69 185.631 129.529C185.969 132.956 186.324 136.496 188.05 136.496C189.776 136.496 190.76 132.956 191.703 129.529C192.751 125.69 193.743 122.069 195.977 122.069C196.961 122.069 197.735 123.319 198.34 125.884C198.591 126.989 198.785 128.106 198.921 129.23C198.928 129.311 198.905 129.392 198.855 129.456C198.806 129.52 198.734 129.563 198.655 129.577C198.618 129.585 198.58 129.586 198.543 129.578C198.506 129.57 198.471 129.555 198.441 129.533C198.41 129.511 198.385 129.482 198.366 129.45C198.347 129.417 198.336 129.381 198.332 129.343C198.026 126.65 197.147 122.666 195.913 122.666C194.171 122.666 193.203 126.206 192.26 129.634C191.211 133.472 190.211 137.093 187.977 137.093C185.744 137.093 185.389 133.472 185.01 129.634C184.663 126.206 184.316 122.666 182.59 122.666C180.421 122.666 179.236 126.997 178.091 131.182C176.833 135.811 175.631 140.182 172.978 140.182Z" fill="#D71635"/>
<g opacity="0.5">
<path d="M172.978 140.182C169.978 140.182 168.946 130.714 168.841 129.634L169.438 129.529C169.712 132.327 170.905 139.585 173.026 139.585C175.147 139.585 176.381 135.254 177.526 131.069C178.8 126.44 180.002 122.069 182.655 122.069C184.889 122.069 185.252 125.69 185.631 129.529C185.969 132.956 186.324 136.496 188.05 136.496C189.776 136.496 190.76 132.956 191.703 129.529C192.751 125.69 193.743 122.069 195.977 122.069C196.961 122.069 197.735 123.319 198.34 125.884C198.591 126.989 198.785 128.106 198.921 129.23C198.928 129.311 198.905 129.392 198.855 129.456C198.806 129.52 198.734 129.563 198.655 129.577C198.618 129.585 198.58 129.586 198.543 129.578C198.506 129.57 198.471 129.555 198.441 129.533C198.41 129.511 198.385 129.482 198.366 129.45C198.347 129.417 198.336 129.381 198.332 129.343C198.026 126.65 197.147 122.666 195.913 122.666C194.171 122.666 193.203 126.206 192.26 129.634C191.211 133.472 190.211 137.093 187.977 137.093C185.744 137.093 185.389 133.472 185.01 129.634C184.663 126.206 184.316 122.666 182.59 122.666C180.421 122.666 179.236 126.997 178.091 131.182C176.833 135.811 175.631 140.182 172.978 140.182Z" fill="black"/>
</g>
<path d="M197.614 144.456H167.51L170.018 116.126C170.026 116.037 170.067 115.954 170.132 115.893C170.198 115.832 170.284 115.797 170.373 115.795C170.416 115.794 170.458 115.802 170.497 115.818C170.536 115.835 170.571 115.859 170.6 115.891C170.628 115.923 170.649 115.96 170.662 116.001C170.674 116.041 170.677 116.084 170.671 116.126L168.252 143.835H197.671C197.713 143.835 197.754 143.843 197.793 143.86C197.831 143.877 197.866 143.902 197.894 143.933C197.922 143.965 197.943 144.001 197.956 144.041C197.969 144.081 197.974 144.124 197.969 144.166C197.952 144.247 197.908 144.321 197.843 144.374C197.779 144.427 197.698 144.456 197.614 144.456Z" fill="#263238"/>
<path d="M265.371 116.989H217.791L216.985 126.351L216.912 127.158L216.162 135.746L216.098 136.553L215.292 145.915H272.234L273.04 136.553L273.104 135.746L273.863 127.158L273.927 126.351L274.733 116.989H265.371ZM255.936 117.795H264.524L263.774 126.384H255.186L255.936 117.795ZM262.952 135.746H254.371L255.121 127.158H263.71L262.952 135.746ZM227.033 127.158H235.622L234.872 135.746H226.283L227.033 127.158ZM236.396 127.158H244.984L244.234 135.746H235.646L236.396 127.158ZM245.758 127.158H254.347L253.597 135.746H245.008L245.758 127.158ZM246.565 117.795H255.145L254.395 126.384H245.831L246.565 117.795ZM237.202 117.795H245.791L245.033 126.384H236.468L237.202 117.795ZM227.84 117.795H236.428L235.678 126.384H227.106L227.84 117.795ZM218.477 117.795H227.065L226.315 126.384H217.743L218.477 117.795ZM217.67 127.158H226.251L225.501 135.746H216.92L217.67 127.158ZM224.686 145.109H216.106L216.856 136.52H225.444L224.686 145.109ZM234.041 145.109H225.469L226.219 136.52H234.807L234.041 145.109ZM243.404 145.109H234.831L235.581 136.52H244.162L243.404 145.109ZM252.766 145.109H244.186L244.944 136.52H253.524L252.766 145.109ZM262.129 145.109H253.549L254.299 136.52H262.887L262.129 145.109ZM271.492 145.109H262.911L263.661 136.52H272.25L271.492 145.109ZM272.298 135.746H263.734L264.484 127.158H273.064L272.298 135.746ZM264.532 126.384L265.282 117.795H273.871L273.153 126.351L264.532 126.384Z" fill="#D71635"/>
<path d="M227.113 145.464H221.025L221.993 134.44H228.073L227.113 145.464Z" fill="#D71635"/>
<path d="M236.476 145.464H230.388L231.613 131.424H237.702L236.476 145.464Z" fill="#263238"/>
<path d="M246.29 145.464H240.21L241.436 131.424H247.524L246.29 145.464Z" fill="#D71635"/>
<path d="M255.193 145.464H249.104L251.016 123.69H257.104L255.193 145.464Z" fill="#263238"/>
<path d="M264.556 145.464H258.468L260.516 122.061H266.605L264.556 145.464Z" fill="#D71635"/>
<path opacity="0.2" d="M227.113 145.464H221.025L221.993 134.44H228.073L227.113 145.464Z" fill="black"/>
<path opacity="0.2" d="M246.29 145.464H240.21L241.436 131.424H247.524L246.29 145.464Z" fill="black"/>
<path opacity="0.2" d="M264.556 145.464H258.468L260.516 122.061H266.605L264.556 145.464Z" fill="black"/>
<path d="M311.264 219.986C314.192 197.221 317.087 172.786 317.087 172.786L293.7 172.641C293.7 172.641 291.539 198.124 289.837 219.986H311.264Z" fill="#263238"/>
<path opacity="0.6" d="M312.087 219.986C313.119 211.519 314.143 202.817 315.03 195.221C315.24 192.051 315.433 188.971 315.627 186.051C313.845 181.931 310.353 179.656 307.909 189.172C305.477 199.288 305.375 209.825 307.611 219.986H312.087Z" fill="black"/>
<path d="M330.78 219.986C329.708 197.608 328.546 172.31 328.546 172.31H305.966C305.966 172.31 307.926 198.422 309.998 219.986H330.78Z" fill="#263238"/>
<path d="M291.491 119.061C289.878 122.755 288.08 126.609 286.169 130.174C285.217 131.98 284.193 133.714 283.128 135.335C282.194 136.804 281.09 138.158 279.838 139.367C279.623 139.567 279.394 139.75 279.153 139.916C279.045 139.974 278.942 140.041 278.846 140.117C278.846 140.117 278.959 140.166 278.846 140.182C278.682 140.183 278.52 140.15 278.37 140.085C277.718 139.811 277.111 139.438 276.572 138.98C275.863 138.406 275.192 137.786 274.564 137.125C271.832 134.1 269.343 130.865 267.121 127.448L262.976 129.376C264.38 133.738 266.404 137.877 268.983 141.666C269.697 142.689 270.487 143.657 271.346 144.561C272.341 145.617 273.485 146.521 274.741 147.246C275.541 147.698 276.402 148.029 277.298 148.23C278.359 148.463 279.456 148.48 280.524 148.278C282.229 147.899 283.824 147.132 285.185 146.036C287.165 144.413 288.917 142.531 290.394 140.44C291.766 138.588 293.036 136.663 294.201 134.674C295.321 132.706 296.378 130.73 297.33 128.706C298.281 126.682 299.2 124.674 300.047 122.529L291.491 119.061Z" fill="#CE7A63"/>
<path d="M280.66 134.754L291.007 142.472C291.007 142.472 291.402 142.036 292.055 141.278C292.539 140.722 293.152 139.988 293.869 139.117C297.902 134.222 303.764 125.287 303.813 120.908C303.885 114.384 297.103 113.424 289.507 120.102C286.225 122.981 284.515 127.755 282.846 130.722C282.289 131.698 281.829 132.553 281.467 133.214C280.95 134.182 280.66 134.754 280.66 134.754Z" fill="#D71635"/>
<path opacity="0.3" d="M303.878 121.666C301.539 120.118 299.846 124.085 295.217 127.497C293.16 129.005 288.644 138.827 289.015 140.988L291.007 142.472C291.007 142.472 303.934 128.166 303.878 121.666Z" fill="black"/>
<path d="M264.129 130.948L258.209 126.263L264.306 122.344C264.306 122.344 269.145 127.618 267.83 129.432L264.129 130.948Z" fill="#CE7A63"/>
<path d="M280.66 133.746L291.966 142.206L290.555 143.673L279.797 135.73L280.66 133.746Z" fill="#D71635"/>
<path opacity="0.2" d="M280.66 133.746L291.966 142.206L290.555 143.673L279.797 135.73L280.66 133.746Z" fill="black"/>
<path d="M293.58 172.64H328.587C328.829 169.52 328.111 159.342 328.643 146.391C328.976 136.792 330.142 127.241 332.127 117.844C332.28 117.134 332.442 116.44 332.611 115.731C332.611 115.731 330.837 115.368 328.296 114.997C326.184 114.69 323.53 114.376 320.942 114.247C315.986 113.968 311.019 113.968 306.063 114.247C303.773 114.465 301.539 114.844 299.757 115.182C297.483 115.642 296.136 116.037 296.136 116.037C296.136 116.037 287.515 135.835 293.58 172.64Z" fill="#D71635"/>
<path d="M257.846 119.529L262.79 117.9L264.306 122.344L258.209 126.263L257.846 119.529Z" fill="#CE7A63"/>
<path d="M336.562 123.875C337.546 125.9 338.337 127.827 339.143 129.835C339.949 131.843 340.659 133.867 341.32 135.948C341.995 138.067 342.557 140.221 343.006 142.399C343.514 144.765 343.753 147.181 343.715 149.601C343.668 151.135 343.362 152.651 342.812 154.084C342.434 155.032 341.887 155.903 341.199 156.657C340.42 157.496 339.461 158.147 338.393 158.56C336.699 159.152 334.868 159.236 333.127 158.802C331.845 158.507 330.605 158.054 329.434 157.455C327.393 156.418 325.471 155.163 323.7 153.713C322.837 153.028 322.014 152.31 321.224 151.56C320.434 150.81 319.668 150.076 318.894 149.23L321.821 145.722C325.109 147.729 328.592 149.399 332.216 150.705C332.942 150.936 333.691 151.09 334.45 151.165C335.079 151.222 335.466 151.044 335.296 151.02C335.189 151.035 335.086 151.077 334.998 151.141C334.917 151.189 334.925 151.181 334.958 151.052C335.06 150.521 335.098 149.98 335.071 149.439C334.989 147.719 334.719 146.012 334.264 144.351C333.821 142.536 333.24 140.681 332.595 138.835C331.329 135.149 329.796 131.359 328.24 127.819L336.562 123.875Z" fill="#CE7A63"/>
<path d="M323.28 146.859L317.756 141.73L314.805 148.383C314.805 148.383 320.764 152.367 322.353 150.802L323.28 146.859Z" fill="#CE7A63"/>
<path d="M311.038 142.391L310.184 147.528L314.804 148.351L317.756 141.73L311.038 142.391Z" fill="#CE7A63"/>
<path opacity="0.3" d="M328.643 146.399C328.976 136.798 330.142 127.243 332.127 117.844C329.788 117.642 325.788 117.844 325.127 121.65C324.41 125.714 325.313 135.262 328.643 146.399Z" fill="black"/>
<path d="M324.256 126.972C325.683 131.426 327.375 135.791 329.321 140.045C329.74 141.004 330.127 141.851 330.45 142.544C331.006 143.754 331.361 144.488 331.361 144.488L344.457 137.811C344.457 137.811 344.312 137.262 344.054 136.343C343.861 135.649 343.594 134.73 343.248 133.698C341.32 127.521 337.32 116.481 333.054 115.706C326.7 114.553 321.926 119.19 324.256 126.972Z" fill="#D71635"/>
<path d="M312.369 119.166C321.006 118.932 322.304 114.707 322.361 114.521L322.417 114.336L320.941 114.247C315.986 113.968 311.018 113.968 306.063 114.247L305.256 114.336C304.894 114.636 304.616 115.025 304.446 115.464C304.277 115.903 304.222 116.378 304.289 116.844C304.668 118.319 306.708 118.811 308.458 119.021L312.369 119.166Z" fill="white"/>
<path d="M344.15 135.456L329.836 142.778L331.457 144.762L344.763 137.851L344.15 135.456Z" fill="#D71635"/>
<path opacity="0.2" d="M344.15 135.456L329.836 142.778L331.457 144.762L344.763 137.851L344.15 135.456Z" fill="black"/>
<path d="M314.506 123.634L310.248 119.787L305.079 123.384C305.079 123.384 299.692 118.279 303.692 114.513C304.499 114.408 305.257 114.311 306.063 114.231C311.019 113.952 315.986 113.952 320.942 114.231C321.958 114.279 322.974 114.368 323.974 114.465C323.675 115.924 322.151 120.674 314.506 123.634Z" fill="#D71635"/>
<path opacity="0.2" d="M314.506 123.634L310.248 119.787L305.079 123.384C305.079 123.384 299.692 118.279 303.692 114.513C304.499 114.408 305.257 114.311 306.063 114.231C311.019 113.952 315.986 113.952 320.942 114.231C321.958 114.279 322.974 114.368 323.974 114.465C323.675 115.924 322.151 120.674 314.506 123.634Z" fill="black"/>
<path d="M312.087 118.295C320.409 118.142 321.514 114.263 321.514 114.263C318.288 111.037 319.514 102.336 320.619 97.5376L316.635 100.844L311.216 105.344C311.377 106.067 311.493 106.8 311.563 107.537C311.853 110.473 311.095 113.182 306.772 114.174C306.772 114.174 301.635 117.569 309.256 118.206L312.087 118.295Z" fill="#CE7A63"/>
<path opacity="0.2" d="M311.216 105.368C311.377 106.091 311.493 106.824 311.563 107.562C313.587 107.15 316.288 104.997 316.571 102.933C316.669 102.249 316.691 101.557 316.635 100.868L311.216 105.368Z" fill="black"/>
<path d="M322.264 90.6671C320.877 97.0298 320.393 100.82 316.619 103.723C315.407 104.683 313.956 105.293 312.423 105.487C310.889 105.681 309.332 105.452 307.919 104.824C306.507 104.196 305.293 103.193 304.41 101.924C303.527 100.655 303.008 99.1692 302.91 97.6266C302.418 91.6993 304.764 82.3044 311.458 80.4899C312.899 80.0553 314.429 80.008 315.894 80.3529C317.359 80.6979 318.707 81.4228 319.803 82.4547C320.899 83.4866 321.703 84.789 322.135 86.2308C322.567 87.6725 322.612 89.2027 322.264 90.6671Z" fill="#CE7A63"/>
<path d="M312.224 91.3042C312.143 91.8203 311.797 92.2154 311.458 92.1751C311.119 92.1348 310.902 91.6751 310.982 91.1509C311.063 90.6268 311.401 90.2397 311.748 90.28C312.095 90.3203 312.305 90.78 312.224 91.3042Z" fill="#263238"/>
<path d="M306.296 90.5944C306.216 91.1186 305.869 91.5057 305.49 91.4654C305.111 91.425 304.934 90.9734 305.014 90.4493C305.095 89.9251 305.434 89.538 305.78 89.5783C306.127 89.6186 306.377 90.0702 306.296 90.5944Z" fill="#263238"/>
<path d="M308.135 91.0784C307.252 92.6068 306.167 94.0092 304.91 95.2476C305.716 96.2153 307.329 96.0137 307.329 96.0137L308.135 91.0784Z" fill="#BA4D3C"/>
<path d="M314.345 89.6107C314.399 89.6137 314.453 89.5996 314.498 89.5704C314.569 89.5297 314.621 89.4633 314.643 89.3851C314.666 89.3069 314.657 89.223 314.619 89.1511C314.395 88.7116 314.066 88.3343 313.66 88.0529C313.255 87.7715 312.787 87.5947 312.297 87.5382C312.215 87.536 312.135 87.566 312.075 87.6217C312.014 87.6775 311.978 87.7546 311.974 87.8366C311.972 87.8775 311.978 87.9184 311.992 87.9569C312.006 87.9955 312.027 88.0308 312.055 88.0609C312.083 88.091 312.116 88.1152 312.154 88.132C312.191 88.1489 312.231 88.1581 312.272 88.1592C312.651 88.2102 313.012 88.35 313.326 88.5673C313.64 88.7845 313.898 89.073 314.079 89.4091C314.099 89.4648 314.135 89.5136 314.182 89.5493C314.229 89.5851 314.286 89.6064 314.345 89.6107Z" fill="#263238"/>
<path d="M304.063 88.2638C304.113 88.2629 304.163 88.25 304.208 88.2262C304.253 88.2023 304.291 88.1683 304.321 88.1267C304.534 87.7939 304.821 87.5142 305.16 87.3087C305.498 87.1033 305.878 86.9777 306.272 86.9413C306.314 86.9424 306.355 86.935 306.394 86.9196C306.432 86.9042 306.468 86.8811 306.497 86.8516C306.526 86.8222 306.55 86.7871 306.565 86.7484C306.58 86.7098 306.588 86.6684 306.587 86.6268C306.585 86.5448 306.55 86.4668 306.492 86.4096C306.433 86.3523 306.354 86.3203 306.272 86.3203C305.776 86.3569 305.295 86.5077 304.867 86.7609C304.439 87.0141 304.075 87.3629 303.804 87.78C303.782 87.8133 303.765 87.8508 303.757 87.8903C303.749 87.9299 303.748 87.9707 303.756 88.0104C303.763 88.0502 303.779 88.088 303.801 88.1218C303.823 88.1556 303.852 88.1847 303.885 88.2074C303.936 88.2452 303.999 88.265 304.063 88.2638Z" fill="#263238"/>
<path d="M305.603 97.7391C305.603 97.7391 307.547 97.2392 313.022 97.094C312.425 98.7552 311.264 100.134 308.458 100.183C308.107 100.224 307.752 100.192 307.414 100.09C307.076 99.9871 306.764 99.8156 306.495 99.586C306.227 99.3565 306.009 99.0739 305.856 98.756C305.702 98.4381 305.616 98.0919 305.603 97.7391Z" fill="#263238"/>
<path d="M309.724 98.852C308.646 98.8167 307.584 99.1245 306.692 99.731C307.22 100.059 307.837 100.214 308.458 100.175C309.534 100.214 310.595 99.9056 311.482 99.2956C310.957 98.9675 310.342 98.8123 309.724 98.852Z" fill="#A02724"/>
<path d="M305.853 97.691C305.91 97.8936 306.023 98.0763 306.178 98.2187C306.334 98.3611 306.525 98.4576 306.732 98.4974C308.357 98.4535 309.976 98.2727 311.571 97.9571C311.824 97.9332 312.068 97.8471 312.281 97.7065C312.493 97.5658 312.667 97.3749 312.788 97.1507C310.466 97.1482 308.147 97.3288 305.853 97.691Z" fill="white"/>
<path d="M318.627 85.909C317.45 84.6994 317.111 83.2317 312.24 83.6671C307.37 84.1026 302.233 87.8525 302.329 83.6671C302.329 82.6994 303.184 83.8284 304.789 81.7317C304.789 81.7317 300.386 83.7236 301.765 80.9253C302.87 78.6673 304.12 82.1349 309.757 77.7802C315.394 73.4255 322.813 77.3528 324.95 83.2075C326.059 83.5653 327.001 84.3113 327.604 85.3083C328.207 86.3054 328.43 87.4865 328.232 88.6347C327.732 92.3766 322.482 95.1346 321.942 99.6909C321.861 100.336 322.668 101.384 322.022 101.755C321.652 101.965 320.74 100.61 320.74 100.61C320.613 100.865 320.52 101.137 320.466 101.417C320.337 102.021 321.66 103.586 320.523 104.271C319.877 104.658 319.595 103.505 319.208 101.546C319.044 100.677 318.998 99.7898 319.071 98.9086C319.345 94.9733 317.458 96.7797 317.531 94.2797C317.579 92.5459 318.966 89.6428 319.813 88.0299C319.952 87.7772 319.986 87.4796 319.908 87.2019C319.829 86.9241 319.645 86.6885 319.394 86.5461C319.104 86.3785 318.845 86.1631 318.627 85.909Z" fill="#263238"/>
<path d="M323.732 97.3119C322.703 98.5551 321.28 99.4089 319.7 99.7312C317.692 100.07 317.28 98.2151 318.256 96.4168C319.175 94.8039 321.329 92.6749 323.095 93.1911C324.861 93.7072 325.03 95.7474 323.732 97.3119Z" fill="#CE7A63"/>
<path d="M108.637 223.449L85.5433 220.761C85.4002 220.744 85.2619 220.7 85.1361 220.629C85.0103 220.559 84.8995 220.465 84.8101 220.352C84.7207 220.239 84.6545 220.11 84.6151 219.971C84.5758 219.833 84.5641 219.688 84.5807 219.545L84.6814 218.68L108.864 221.495L108.637 223.449Z" fill="#263238"/>
<path opacity="0.2" d="M108.637 223.449L85.5433 220.761C85.4002 220.744 85.2619 220.7 85.1361 220.629C85.0103 220.559 84.8995 220.465 84.8101 220.352C84.7207 220.239 84.6545 220.11 84.6151 219.971C84.5758 219.833 84.5641 219.688 84.5807 219.545L84.6814 218.68L108.864 221.495L108.637 223.449Z" fill="white"/>
<path d="M123.02 225.165L104.164 222.97C103.875 222.936 103.611 222.789 103.431 222.561C103.25 222.333 103.168 222.043 103.201 221.754L103.302 220.889L123.248 223.211L123.02 225.165Z" fill="#263238"/>
<path opacity="0.5" d="M123.02 225.165L104.164 222.97C103.875 222.936 103.611 222.789 103.431 222.561C103.25 222.333 103.168 222.043 103.201 221.754L103.302 220.889L123.248 223.211L123.02 225.165Z" fill="white"/>
<path d="M118.686 224.022L120.641 224.25L120.722 223.553L118.767 223.326L118.686 224.022Z" fill="#263238"/>
<path d="M115.633 223.67L117.587 223.897L117.669 223.201L115.714 222.973L115.633 223.67Z" fill="#263238"/>
<path d="M121.939 223.059L123.237 223.204L126.632 205.704L125.334 205.551L121.939 223.059Z" fill="#263238"/>
<path opacity="0.3" d="M121.939 223.059L123.237 223.204L126.632 205.704L125.334 205.551L121.939 223.059Z" fill="white"/>
<path d="M122.415 223.115L99.5767 220.454L102.98 202.946L125.818 205.607L122.415 223.115Z" fill="#D71635"/>
<path opacity="0.5" d="M122.415 223.115L99.5767 220.454L102.98 202.946L125.818 205.607L122.415 223.115Z" fill="white"/>
<path d="M75.795 184.786C75.166 186.035 74.4725 187.39 73.8516 188.713C73.2306 190.035 72.6016 191.374 72.0371 192.745C71.4726 194.116 70.9161 195.414 70.4242 196.729C69.9745 197.944 69.6318 199.196 69.4001 200.471C69.3181 200.901 69.2803 201.339 69.2872 201.777V201.89V201.825C69.1743 201.664 69.8597 202.462 70.3516 202.809C70.8436 203.156 71.4323 203.511 72.0371 203.85C74.4564 205.22 77.2708 206.438 79.9724 207.688L79.0611 211.462C77.4574 211.338 75.863 211.115 74.287 210.793C72.6738 210.484 71.084 210.064 69.5291 209.535C68.7018 209.254 67.8937 208.92 67.1098 208.535C66.1602 208.089 65.2735 207.519 64.4728 206.841C63.8892 206.333 63.398 205.727 63.0212 205.051C62.9647 204.946 62.9083 204.833 62.8599 204.729L62.7389 204.454C62.665 204.278 62.6004 204.097 62.5454 203.914C62.4393 203.584 62.3558 203.247 62.2954 202.906C62.1132 201.822 62.0753 200.718 62.1825 199.624C62.3744 197.859 62.7252 196.116 63.2309 194.414C63.7067 192.801 64.255 191.269 64.8437 189.761C65.4324 188.253 66.0695 186.794 66.763 185.358C67.4566 183.923 68.134 182.519 68.9646 181.068L75.795 184.786Z" fill="#FFB573"/>
<path d="M78.1741 207.809L83.9804 206.317L84.4643 211.543C84.4643 211.543 80.545 213.155 78.1338 210.631L78.1741 207.809Z" fill="#FFB573"/>
<path d="M86.3272 207.083L87.561 211.293L84.4643 211.543L83.9805 206.317L86.3272 207.083Z" fill="#FFB573"/>
<path d="M63.4805 190.938L71.7706 195.043C71.7706 195.043 73.8995 195.721 77.8188 189.455C82.359 182.197 79.8752 178.068 74.3995 177.874C68.9239 177.681 66.7788 184.592 63.4805 190.938Z" fill="#D71635"/>
<path opacity="0.5" d="M63.4805 190.938L71.7706 195.043C71.7706 195.043 73.8995 195.721 77.8188 189.455C82.359 182.197 79.8752 178.068 74.3995 177.874C68.9239 177.681 66.7788 184.592 63.4805 190.938Z" fill="white"/>
<path opacity="0.2" d="M66.5288 192.471L71.2706 194.817L73.6818 191.971L71.0045 184.834L70.2626 184.011L68.3997 183.745L66.5288 192.471Z" fill="black"/>
<path d="M63.4162 190.334L72.5934 195.027L71.3676 196.479L62.9243 192.172L63.4162 190.334Z" fill="#D71635"/>
<path d="M88.2381 159.318C88.5123 159.254 88.8429 159.496 88.9881 159.907C89.1332 160.318 89.0284 160.713 88.7542 160.802C88.48 160.891 88.1494 160.617 88.0042 160.213C87.8591 159.81 87.972 159.383 88.2381 159.318Z" fill="#2E353A"/>
<path d="M89.7061 163.705C90.012 163.673 90.3072 163.574 90.5706 163.415C90.834 163.256 91.0592 163.042 91.2303 162.786C90.1821 162.148 89.2223 161.375 88.3755 160.488L89.7061 163.705Z" fill="#ED893E"/>
<path d="M86.424 158.689C86.4739 158.379 86.5963 158.085 86.7813 157.832C86.9663 157.578 87.2086 157.372 87.4885 157.23C87.542 157.203 87.5845 157.159 87.6081 157.104C87.6318 157.049 87.6351 156.988 87.6175 156.931C87.5971 156.868 87.5529 156.815 87.4943 156.783C87.4357 156.752 87.3672 156.744 87.303 156.762C86.9402 156.931 86.6251 157.187 86.3858 157.508C86.1466 157.829 85.9907 158.205 85.9321 158.6C85.9263 158.632 85.927 158.665 85.9341 158.697C85.9412 158.728 85.9545 158.758 85.9733 158.784C85.9921 158.81 86.016 158.833 86.0435 158.85C86.0711 158.867 86.1017 158.878 86.1337 158.883H86.2627C86.3039 158.867 86.3404 158.841 86.3686 158.807C86.3968 158.773 86.4159 158.733 86.424 158.689Z" fill="#2E353A"/>
<path d="M76.3196 178.544C76.0373 179.777 75.8519 180.366 76.9647 180.906C79.2532 182.102 81.8643 182.535 84.4162 182.14C87.0532 181.689 87.529 180.745 87.4161 179.987C87.3256 179.696 87.1684 179.43 86.957 179.21C86.7456 178.99 86.4859 178.823 86.1984 178.721C85.6135 178.468 85.1167 178.047 84.7708 177.512C84.4249 176.976 84.2454 176.35 84.2549 175.713C84.1266 175.036 84.1266 174.341 84.2549 173.665L79.6098 170.544L76.0454 166.576C76.9212 170.509 77.0143 174.575 76.3196 178.544Z" fill="#FFB573"/>
<path d="M91.1653 181.302C91.1653 181.302 89.4153 176.463 86.5928 175.382C83.7703 174.302 75.3028 174.891 75.3028 174.891C74.8915 176.627 74.3524 178.33 73.6899 179.987L91.1653 181.302Z" fill="#D71635"/>
<path d="M73.8356 161.286C73.8946 159.381 74.7076 157.578 76.0959 156.273C77.4842 154.968 79.3341 154.268 81.2386 154.326C86.6982 154.52 89.8916 161.536 90.3836 166.318C90.9239 171.632 85.6982 176.076 80.7064 173.657C77.3758 172.044 76.4484 169.157 74.4404 164.366C74.0165 163.396 73.8101 162.345 73.8356 161.286Z" fill="#FFB573"/>
<path opacity="0.2" d="M74.7144 176.987C74.4079 178.003 74.0692 179.003 73.6821 179.987L89.8107 181.205C89.4157 180.246 88.9153 179.335 88.3188 178.487C84.448 176.914 77.6175 176.906 74.7144 176.987Z" fill="black"/>
<path d="M128.003 268.42L132.931 266.291L136.721 278.154L131.794 280.291L128.003 268.42Z" fill="#FFB573"/>
<path opacity="0.2" d="M128.003 268.42L132.931 266.291L134.826 272.219L129.842 274.178L128.003 268.42Z" fill="black"/>
<path d="M137.269 276.073C138.745 277.307 141.753 278.202 144.059 278.331C145.833 278.428 145.987 280.46 143.761 280.839C141.535 281.218 137.656 281.033 136.027 281.105C133.382 281.202 132.487 281.638 130.382 281.605C130.132 281.593 129.897 281.483 129.726 281.299C129.556 281.115 129.464 280.872 129.471 280.621L129.915 275.872C129.923 275.77 129.971 275.676 130.048 275.61C130.124 275.543 130.224 275.51 130.326 275.517L136.342 275.71C136.683 275.722 137.01 275.85 137.269 276.073Z" fill="#D71635"/>
<path d="M82.9966 219.454C82.9966 219.454 78.8597 224.357 82.1902 232.123C85.9562 240.921 105.94 237.058 116.867 239.865C118.423 255.405 127.495 271.315 127.495 271.315L135.076 268.348C135.076 268.348 131.794 255.969 129.326 234.042C128.116 223.252 100.738 222.075 100.738 222.075L82.9966 219.454Z" fill="#D71635"/>
<path d="M125.979 269.944L135.64 266.573L136.221 270.105L127.423 273.299L125.979 269.944Z" fill="#D71635"/>
<path d="M104.673 273.509L109.996 273.259L109.125 285.807L103.811 286.065L104.673 273.509Z" fill="#FFB573"/>
<path d="M110.576 284.492C112.052 285.718 114.536 287.428 116.818 287.758C118.286 287.968 119.391 290.178 116.641 290.178C113.891 290.178 110.996 289.92 109.326 289.863C106.681 289.783 105.802 290.016 103.681 290.016C103.43 290.006 103.194 289.897 103.023 289.712C102.852 289.528 102.761 289.284 102.77 289.033L103.206 284.283C103.216 284.182 103.264 284.089 103.341 284.023C103.417 283.957 103.516 283.923 103.617 283.928L109.633 284.113C109.982 284.126 110.316 284.26 110.576 284.492Z" fill="#D71635"/>
<path opacity="0.2" d="M104.197 280.436L109.487 280.444L109.995 273.259L104.673 273.517L104.197 280.436Z" fill="black"/>
<path d="M69.7068 220.309C69.7068 220.309 65.344 229.18 69.5858 234.825C73.4244 239.978 93.0207 240.316 102.996 240.316C102.004 252.469 103.101 277.412 103.101 277.412L111.077 277.299C111.077 277.299 116.722 253.3 117.859 236.51C118.504 227.18 85.2951 220.994 85.2951 220.994L69.7068 220.309Z" fill="#D71635"/>
<path d="M101.996 275.783L112.955 275.46L112.479 278.735L102.415 278.88L101.996 275.783Z" fill="#D71635"/>
<path d="M69.5448 221.574L97.4795 222.139L98.423 185.374C98.2479 183.369 97.3292 181.501 95.8475 180.139C94.3657 178.777 92.428 178.018 90.4152 178.011H74.085C73.3327 178.006 72.587 178.151 71.8916 178.437C71.1962 178.724 70.5651 179.147 70.0354 179.681C69.5058 180.216 69.0882 180.85 68.8073 181.548C68.5264 182.246 68.3878 182.993 68.3996 183.745L69.5448 221.574Z" fill="#D71635"/>
<path opacity="0.6" d="M69.5448 221.574L97.4795 222.139L98.423 185.374C98.2479 183.369 97.3292 181.501 95.8475 180.139C94.3657 178.777 92.428 178.018 90.4152 178.011H74.085C73.3327 178.006 72.587 178.151 71.8916 178.437C71.1962 178.724 70.5651 179.147 70.0354 179.681C69.5058 180.216 69.0882 180.85 68.8073 181.548C68.5264 182.246 68.3878 182.993 68.3996 183.745L69.5448 221.574Z" fill="white"/>
<path d="M98.0117 184.519L98.5359 186.584C98.7214 187.293 98.9149 188.003 99.1246 188.713C99.5439 190.124 99.931 191.535 100.439 192.914C100.947 194.293 101.399 195.656 101.947 196.946C102.473 198.241 103.074 199.503 103.745 200.729C104.058 201.318 104.399 201.891 104.77 202.446C104.864 202.542 104.98 202.614 105.107 202.656C105.235 202.698 105.371 202.709 105.503 202.688C106.111 202.65 106.715 202.564 107.31 202.43C110.122 201.718 112.879 200.804 115.56 199.696L117.632 202.978C116.388 204.048 115.07 205.028 113.689 205.914C112.27 206.842 110.769 207.638 109.205 208.293C108.336 208.663 107.434 208.952 106.511 209.156C105.329 209.43 104.103 209.463 102.907 209.253C102.032 209.087 101.206 208.729 100.487 208.204C100.092 207.917 99.7365 207.578 99.431 207.196L99.0036 206.672C98.466 205.962 97.9499 205.245 97.4553 204.519C95.6724 201.682 94.1939 198.666 93.0441 195.519C92.4796 193.987 91.9554 192.447 91.5119 190.882C91.2861 190.076 91.0764 189.326 90.8748 188.535C90.6732 187.745 90.4958 186.987 90.3184 186.116L98.0117 184.519Z" fill="#FFB573"/>
<path d="M116.705 203.325L122.108 200.72L119.124 196.422C119.124 196.422 115.092 197.704 114.875 201.196L116.705 203.325Z" fill="#FFB573"/>
<path d="M123.383 198.624L121.609 194.608L119.084 196.422L122.084 200.72L123.383 198.624Z" fill="#FFB573"/>
<path d="M92.9232 196.995L101.254 194.035C101.254 194.035 102.439 192.898 100.286 185.85C97.7779 177.632 93.028 176.818 89.3104 180.81C85.5927 184.801 90.3184 190.317 92.9232 196.995Z" fill="#D71635"/>
<path opacity="0.5" d="M92.9232 196.995L101.254 194.035C101.254 194.035 102.439 192.898 100.286 185.85C97.7779 177.632 93.028 176.818 89.3104 180.81C85.5927 184.801 90.3184 190.317 92.9232 196.995Z" fill="white"/>
<path d="M92.0366 196.269L101.762 192.85L101.972 194.737L93.0285 197.89L92.0366 196.269Z" fill="#D71635"/>
<path d="M77.0449 171.004C78.333 170.807 79.649 170.91 80.8915 171.302C81.1189 171.38 81.3665 171.374 81.5897 171.285C81.813 171.196 81.9972 171.031 82.1092 170.818C82.827 169.455 84.2543 166.697 84.8027 165.455C84.8027 165.455 87.3268 164.222 86.0688 160.81C84.8108 157.399 84.8027 156.319 84.8027 156.319C84.8027 156.319 88.722 152.891 85.0043 150.875C81.2867 148.859 82.9882 152.553 78.8916 153.359C74.7949 154.165 70.1499 158.198 71.8353 163.109C73.0772 166.73 75.3352 169.383 76.0126 170.52C76.1157 170.695 76.2695 170.835 76.4538 170.922C76.638 171.008 76.8441 171.037 77.0449 171.004Z" fill="#263238"/>
<path d="M83.061 161.802C84.432 161.593 85.9077 162.98 86.3916 164.221C86.9319 165.625 86.2303 167.221 84.7787 166.834C83.664 166.516 82.7035 165.802 82.0772 164.826C81.3191 163.584 81.6901 162.004 83.061 161.802Z" fill="#FFB573"/>
<path d="M81.069 273.13V242.735H76.2304V273.202L63.9082 276.428C62.8768 276.702 61.9649 277.309 61.3144 278.155C60.6639 279.001 60.3113 280.038 60.3115 281.105V282.097C60.3115 282.578 60.5027 283.04 60.843 283.38C61.1832 283.721 61.6448 283.912 62.126 283.912C62.6072 283.912 63.0687 283.721 63.409 283.38C63.7493 283.04 63.9405 282.578 63.9405 282.097C63.9381 281.532 64.1239 280.982 64.4684 280.534C64.8129 280.085 65.2967 279.765 65.8436 279.621L76.2304 276.88V282.097C76.2304 282.578 76.4216 283.04 76.7619 283.38C77.1022 283.721 77.5637 283.912 78.0449 283.912H79.2465C79.7277 283.912 80.1892 283.721 80.5295 283.38C80.8698 283.04 81.061 282.578 81.061 282.097V276.847L91.3994 279.71C91.9587 279.855 92.4526 280.185 92.801 280.646C93.1494 281.107 93.3318 281.673 93.3187 282.25C93.3144 282.731 93.5001 283.194 93.8354 283.538C94.1707 283.883 94.6284 284.081 95.109 284.089C95.3479 284.092 95.5852 284.048 95.8071 283.959C96.0289 283.871 96.2311 283.739 96.402 283.572C96.5728 283.405 96.709 283.206 96.8026 282.986C96.8962 282.766 96.9455 282.53 96.9476 282.291V281.299C96.9596 280.231 96.6181 279.19 95.9763 278.336C95.3345 277.483 94.4284 276.866 93.3993 276.581L81.069 273.13Z" fill="#263238"/>
<path d="M59.1343 287.291C59.1327 286.708 59.304 286.139 59.6264 285.653C59.9489 285.168 60.408 284.79 60.9457 284.566C61.4834 284.342 62.0755 284.282 62.647 284.395C63.2185 284.508 63.7438 284.787 64.1562 285.199C64.5687 285.61 64.8498 286.134 64.9641 286.706C65.0783 287.277 65.0205 287.869 64.7979 288.407C64.5754 288.946 64.1981 289.406 63.7139 289.73C63.2297 290.053 62.6603 290.226 62.0778 290.226C61.2985 290.226 60.551 289.917 59.9993 289.367C59.4475 288.817 59.1364 288.07 59.1343 287.291Z" fill="#D71635"/>
<path d="M92.23 287.291C92.2284 286.708 92.3997 286.139 92.7221 285.653C93.0446 285.168 93.5037 284.79 94.0414 284.566C94.5792 284.342 95.1712 284.282 95.7427 284.395C96.3142 284.508 96.8395 284.787 97.2519 285.199C97.6644 285.61 97.9455 286.134 98.0598 286.706C98.174 287.277 98.1162 287.869 97.8936 288.407C97.6711 288.946 97.2938 289.406 96.8096 289.73C96.3254 290.053 95.756 290.226 95.1735 290.226C94.3942 290.226 93.6467 289.917 93.095 289.367C92.5432 288.817 92.2321 288.07 92.23 287.291Z" fill="#D71635"/>
<path d="M75.6821 287.291C75.6805 286.708 75.8518 286.139 76.1743 285.653C76.4967 285.168 76.9559 284.79 77.4936 284.566C78.0313 284.342 78.6234 284.282 79.1949 284.395C79.7664 284.508 80.2916 284.787 80.7041 285.199C81.1165 285.61 81.3977 286.134 81.5119 286.706C81.6261 287.277 81.5683 287.869 81.3458 288.407C81.1232 288.946 80.746 289.406 80.2618 289.73C79.7775 290.053 79.2081 290.226 78.6256 290.226C77.8463 290.226 77.0989 289.917 76.5471 289.367C75.9953 288.817 75.6843 288.07 75.6821 287.291Z" fill="#D71635"/>
<path opacity="0.6" d="M81.0693 242.76H76.2388V249.622H81.0693V242.76Z" fill="black"/>
<path opacity="0.6" d="M72.6338 277.88L75.6821 277.073V273.372L72.6338 274.178V277.88Z" fill="black"/>
<path opacity="0.6" d="M84.6174 274.114L81.561 273.267V276.985L84.6174 277.831V274.114Z" fill="black"/>
<path d="M82.5933 240.719H111.939C112.833 240.719 113.691 241.074 114.323 241.707C114.955 242.339 115.31 243.196 115.31 244.09H82.5933V240.719Z" fill="#D71635"/>
<path opacity="0.5" d="M82.5933 240.719H111.939C112.833 240.719 113.691 241.074 114.323 241.707C114.955 242.339 115.31 243.196 115.31 244.09H82.5933V240.719Z" fill="black"/>
<path d="M61.7632 197.575C51.449 197.575 44.1024 205.269 44.6427 215.51L45.8201 237.897C45.9089 239.56 46.6324 241.127 47.8417 242.273C49.0509 243.419 50.6538 244.058 52.3199 244.058H93.7704L85.2061 215.51C82.1336 205.301 72.0775 197.575 61.7632 197.575Z" fill="#D71635"/>
<path opacity="0.1" d="M61.7632 197.575C51.449 197.575 44.1024 205.269 44.6427 215.51L45.8201 237.897C45.9089 239.56 46.6324 241.127 47.8417 242.273C49.0509 243.419 50.6538 244.058 52.3199 244.058H93.7704L85.2061 215.51C82.1336 205.301 72.0775 197.575 61.7632 197.575Z" fill="black"/>
<path opacity="0.3" d="M59.6747 197.721C50.4734 198.688 44.1429 206.003 44.6429 215.543L45.8203 237.897C45.909 239.561 46.6326 241.127 47.8418 242.273C49.0511 243.42 50.6539 244.058 52.3201 244.058H89.5933L81.029 215.511C78.1662 205.995 69.2309 198.672 59.6747 197.721Z" fill="black"/>
<path d="M98.4318 243.122C98.1314 242.82 97.9628 242.412 97.9628 241.985C97.9628 241.559 98.1314 241.151 98.4318 240.848L107.214 232.066C107.342 231.939 107.429 231.776 107.464 231.599C107.499 231.422 107.481 231.239 107.412 231.072C107.343 230.906 107.226 230.763 107.076 230.663C106.926 230.563 106.749 230.51 106.569 230.51H87.7466C87.3189 230.51 86.9087 230.34 86.6062 230.038C86.3037 229.735 86.1338 229.325 86.1338 228.897C86.1338 228.469 86.3037 228.059 86.6062 227.757C86.9087 227.454 87.3189 227.284 87.7466 227.284H106.399C107.171 227.27 107.933 227.464 108.604 227.845C109.275 228.227 109.831 228.783 110.214 229.453C110.639 230.237 110.799 231.138 110.669 232.02C110.54 232.903 110.128 233.72 109.496 234.349L100.714 243.122C100.564 243.272 100.386 243.391 100.191 243.473C99.9948 243.554 99.7849 243.595 99.5729 243.595C99.361 243.595 99.1511 243.554 98.9553 243.473C98.7595 243.391 98.5816 243.272 98.4318 243.122Z" fill="#263238"/>
<path opacity="0.2" d="M110.254 229.453C109.872 228.783 109.316 228.227 108.645 227.845C107.973 227.464 107.212 227.27 106.44 227.284H87.7466C87.3189 227.284 86.9087 227.454 86.6062 227.757C86.3037 228.059 86.1338 228.469 86.1338 228.897C86.1338 229.325 86.3037 229.735 86.6062 230.038C86.9087 230.34 87.3189 230.51 87.7466 230.51H106.569C106.715 230.506 106.86 230.542 106.988 230.615H110.625C110.557 230.212 110.432 229.821 110.254 229.453Z" fill="white"/>
<path d="M171.938 219.801H148.688C148.544 219.801 148.401 219.772 148.268 219.717C148.135 219.662 148.014 219.581 147.913 219.479C147.811 219.377 147.73 219.257 147.675 219.123C147.62 218.99 147.591 218.848 147.591 218.704V217.833H171.938V219.801Z" fill="#263238"/>
<path opacity="0.2" d="M171.938 219.801H148.688C148.544 219.801 148.401 219.772 148.268 219.717C148.135 219.662 148.014 219.581 147.913 219.479C147.811 219.377 147.73 219.257 147.675 219.123C147.62 218.99 147.591 218.848 147.591 218.704V217.833H171.938V219.801Z" fill="white"/>
<path d="M186.445 219.801H167.462C167.171 219.801 166.892 219.685 166.686 219.479C166.481 219.274 166.365 218.995 166.365 218.704V217.833H186.445V219.801Z" fill="#263238"/>
<path opacity="0.5" d="M186.445 219.801H167.462C167.171 219.801 166.892 219.685 166.686 219.479C166.481 219.274 166.365 218.995 166.365 218.704V217.833H186.445V219.801Z" fill="white"/>
<path d="M182.002 219.164H183.97V218.462H182.002V219.164Z" fill="#263238"/>
<path d="M178.938 219.164H180.905V218.462H178.938V219.164Z" fill="#263238"/>
<path d="M185.115 217.833H186.421L187.776 200.051H186.461L185.115 217.833Z" fill="#263238"/>
<path opacity="0.3" d="M185.115 217.833H186.421L187.776 200.051H186.461L185.115 217.833Z" fill="white"/>
<path d="M185.59 217.833H162.599L163.954 200.051H186.945L185.59 217.833Z" fill="#D71635"/>
<path opacity="0.4" d="M185.59 217.833H162.599L163.954 200.051H186.945L185.59 217.833Z" fill="white"/>
<path d="M146.656 180.987C145.946 183.511 145.769 186.221 149.398 187.205C149.398 187.205 152.785 191.979 148.72 195.18C146.146 191.791 142.898 188.971 139.18 186.898C141.543 184.785 141.083 178.761 140.535 175.463L146.656 180.987Z" fill="#CE7A63"/>
<path d="M151.164 167.874C151.439 167.802 151.777 168.06 151.914 168.479C152.051 168.899 151.914 169.342 151.656 169.407C151.398 169.471 151.043 169.229 150.906 168.802C150.769 168.374 150.882 167.939 151.164 167.874Z" fill="#2E353A"/>
<path d="M151.97 167.31L151.042 167.931C151.704 168.278 151.97 167.31 151.97 167.31Z" fill="#2E353A"/>
<path d="M152.188 172.439C152.471 172.419 152.745 172.336 152.992 172.197C153.239 172.057 153.452 171.864 153.615 171.632C152.709 171.01 151.895 170.263 151.196 169.415L152.188 172.439Z" fill="#BA4D3C"/>
<path d="M150.156 165.092C149.885 165.279 149.662 165.528 149.506 165.818C149.35 166.109 149.266 166.432 149.261 166.762C149.262 166.796 149.256 166.829 149.244 166.861C149.232 166.893 149.214 166.922 149.191 166.947C149.168 166.971 149.14 166.991 149.109 167.005C149.078 167.019 149.045 167.027 149.011 167.028C148.977 167.029 148.944 167.023 148.913 167.011C148.882 166.999 148.853 166.981 148.829 166.958C148.805 166.934 148.786 166.906 148.773 166.875C148.76 166.845 148.753 166.811 148.753 166.778C148.754 166.362 148.854 165.952 149.047 165.583C149.239 165.214 149.517 164.896 149.858 164.657C149.914 164.618 149.983 164.602 150.05 164.613C150.118 164.623 150.179 164.659 150.221 164.713C150.244 164.752 150.256 164.797 150.256 164.842C150.256 164.888 150.244 164.933 150.221 164.971C150.213 165.018 150.19 165.06 150.156 165.092Z" fill="#2E353A"/>
<path d="M135.358 168.14C135.528 166.172 136.474 164.351 137.986 163.079C139.498 161.808 141.454 161.189 143.423 161.358C149.197 161.786 152.398 169.294 152.785 174.334C153.221 179.939 147.39 183.511 142.132 180.785C138.608 178.963 137.931 176.753 135.899 171.648C135.443 170.539 135.258 169.336 135.358 168.14Z" fill="#CE7A63"/>
<path opacity="0.21" d="M132.543 174.77C124.979 165.213 134.269 162.464 134.269 162.464C137.18 158.431 141.979 157.625 146.366 159.294C150.753 160.964 149.462 163.931 147.858 164.222C150.857 168.189 149.14 170.165 148.148 170.447C149.72 180.431 140.092 184.326 132.543 174.77Z" fill="#263238"/>
<path d="M139.196 216.97C137.711 216.779 136.242 216.478 134.801 216.067C134.587 215.995 134.377 215.912 134.172 215.817L134.108 214.761C133.938 211.599 133.874 208.374 133.801 205.14L133.64 195.463H128.06C128.06 198.761 128.124 202.027 128.269 205.309C128.414 208.591 128.608 211.873 128.979 215.196L129.172 216.454L129.269 217.083C129.287 217.278 129.317 217.472 129.358 217.664C129.419 217.848 129.491 218.029 129.576 218.204C129.727 218.497 129.917 218.768 130.14 219.01C130.449 219.331 130.805 219.603 131.197 219.817C131.477 219.976 131.768 220.116 132.068 220.236C132.556 220.422 133.057 220.573 133.567 220.688C135.299 221.041 137.059 221.23 138.825 221.252C142.158 221.329 145.492 221.167 148.801 220.768L148.744 218.035C145.543 217.736 142.309 217.446 139.196 216.97Z" fill="#CE7A63"/>
<path d="M138.415 193.656C138.415 197.035 136.382 203.333 136.382 203.333L127.995 198.204C127.616 193.874 128.512 188.31 132.665 186.955C135.495 186.043 138.382 190.059 138.415 193.656Z" fill="#263238"/>
<path opacity="0.6" d="M132.39 191.229L130.463 193.132L130.092 199.495L136.382 203.357C136.382 203.357 138.414 197.035 138.414 193.68C138.394 192.803 138.234 191.934 137.938 191.108L135.043 190.237L132.39 191.229Z" fill="black"/>
<path d="M156.438 219.534C156.494 219.405 156.524 219.265 156.526 219.124C156.527 218.983 156.501 218.843 156.449 218.711C156.397 218.58 156.319 218.461 156.22 218.36C156.121 218.259 156.003 218.178 155.874 218.123L153.495 217.115C152.983 216.904 152.417 216.865 151.882 217.002L146.704 218.397L146.067 220.147C146.874 222.155 150.301 221.76 150.301 221.76L152.761 222.518C153.072 222.614 153.405 222.614 153.715 222.518C154.026 222.421 154.301 222.233 154.503 221.978L156.301 219.76C156.358 219.692 156.404 219.616 156.438 219.534Z" fill="#CE7A63"/>
<path d="M152.664 186.874C151.591 186.689 150.462 186.519 149.365 186.39C145.99 186.046 142.594 185.944 139.204 186.084C137.535 186.084 135.898 186.237 134.462 186.39H134.35C133.102 186.557 131.971 187.212 131.206 188.211C130.441 189.211 130.104 190.473 130.269 191.721C132.301 206.236 133.188 212.389 132.6 220.672L155.034 221.349C157.647 207.833 158.712 199.777 159.067 195.035C159.208 193.122 158.629 191.224 157.445 189.715C156.261 188.205 154.556 187.192 152.664 186.874Z" fill="#263238"/>
<path d="M178.704 270.057L184.002 269.557L187.574 282.605L182.276 283.105L178.704 270.057Z" fill="#CE7A63"/>
<path d="M140.205 220.663C131.681 231.953 132.358 241.574 141.165 241.574C149.011 241.574 158.793 242.042 169.39 241.364C171.72 258.453 180.623 278.363 180.623 278.363L186.502 277.815C186.502 277.815 181.139 252.816 180.728 235.356C180.47 224.8 150.664 225.679 150.664 225.679C150.664 225.679 145.439 220.696 140.205 220.663Z" fill="#263238"/>
<path opacity="0.3" d="M140.205 220.663C131.681 231.953 132.358 241.574 141.165 241.574C149.011 241.574 158.793 242.042 169.39 241.364C171.72 258.453 180.623 278.363 180.623 278.363L186.502 277.815C186.502 277.815 181.139 252.816 180.728 235.356C180.47 224.8 150.664 225.679 150.664 225.679C150.664 225.679 145.439 220.696 140.205 220.663Z" fill="white"/>
<path opacity="0.2" d="M181.429 245.574C181.082 242.05 180.832 238.574 180.759 235.357C180.501 224.801 150.696 225.68 150.696 225.68C150.037 225.082 149.345 224.522 148.623 224.002C147.47 224.147 146.809 224.244 146.809 224.244C146.809 224.244 142.309 224.172 137.825 224.139C131.914 233.816 133.285 241.558 141.164 241.558C145.825 241.558 151.188 241.719 156.994 241.711C164.881 239.558 173.042 236.873 176.743 235.695C177.969 239.138 179.539 242.447 181.429 245.574Z" fill="black"/>
<path d="M132.672 219.171L155.398 219.849C155.615 219.849 155.769 219.978 155.769 220.115L155.511 222.147C155.511 222.268 155.317 222.357 155.115 222.357L132.027 221.679C131.769 221.679 131.592 221.51 131.672 221.357L132.31 219.365C132.345 219.301 132.398 219.249 132.462 219.215C132.527 219.18 132.6 219.165 132.672 219.171Z" fill="#263238"/>
<path d="M170.172 212.381C167.752 212.696 165.236 213.002 162.825 213.188C161.667 213.299 160.504 213.342 159.341 213.317C159.025 213.309 158.709 213.276 158.398 213.22C158.191 212.32 158.048 211.407 157.97 210.486C157.882 209.349 157.858 208.204 157.882 207.059C157.906 205.914 158.011 204.704 158.132 203.543C158.188 202.954 158.261 202.341 158.349 201.785C158.438 201.228 158.527 200.591 158.616 200.116L153.172 198.954C153.011 199.696 152.898 200.317 152.801 200.987C152.704 201.656 152.632 202.293 152.559 202.986C152.425 204.326 152.363 205.672 152.374 207.019C152.352 209.84 152.804 212.645 153.713 215.317L153.801 215.575L153.874 215.752L153.971 215.978C154.043 216.117 154.124 216.252 154.212 216.381C154.51 216.808 154.898 217.163 155.35 217.422C155.881 217.719 156.464 217.913 157.067 217.994C157.869 218.107 158.681 218.126 159.487 218.051C160.845 217.934 162.192 217.719 163.519 217.405C166.043 216.814 168.52 216.037 170.93 215.083L170.172 212.381Z" fill="#CE7A63"/>
<path d="M149.705 192.963C147.931 195.446 151.479 202.22 151.479 202.22L158.495 201.777C158.495 201.777 160.325 193.067 157.1 189.293C155.358 187.277 151.576 190.374 149.705 192.963Z" fill="#263238"/>
<path d="M175.93 207.962C176.08 207.978 176.226 208.024 176.359 208.097C176.492 208.17 176.609 208.269 176.704 208.387C176.798 208.506 176.868 208.642 176.91 208.788C176.951 208.933 176.964 209.086 176.946 209.237L176.671 212.285C176.651 212.513 176.563 212.731 176.42 212.91C176.277 213.089 176.084 213.223 175.865 213.293L173.091 214.099C173.091 214.099 167.97 217.325 166.317 215.93L168.228 213.285L171.72 209.301C172.113 208.847 172.647 208.538 173.236 208.422L175.575 207.954C175.693 207.938 175.812 207.941 175.93 207.962Z" fill="#CE7A63"/>
<path d="M188.018 282.25C189.276 283.533 191.421 285.347 193.518 285.863C194.856 286.194 195.679 288.363 193.13 288.105C190.582 287.847 187.864 287.299 186.365 287.137C183.945 286.815 183.074 286.952 181.123 286.758C180.891 286.724 180.682 286.6 180.542 286.413C180.401 286.225 180.34 285.99 180.373 285.758L181.219 281.444C181.237 281.352 181.29 281.27 181.367 281.216C181.443 281.162 181.538 281.139 181.631 281.154L187.203 281.887C187.507 281.915 187.794 282.042 188.018 282.25Z" fill="#263238"/>
<path d="M147.817 164.229C147.817 164.229 150.575 167.358 148.745 170.737C148.745 170.737 147.059 172.85 147.817 177.285C148.576 181.721 151.971 185.293 144.342 185.253C137.165 185.213 128.157 186.664 129.165 179.656C129.165 179.656 125.891 176.584 129.576 173.302C129.576 173.302 126.794 169.447 130.229 166.399C130.229 166.399 128.455 160.1 134.6 160.415C134.6 160.415 135.971 154.149 142.519 157.665C142.519 157.665 145.293 153.246 149.495 157.665C149.495 157.665 156.333 158.221 151.511 162.197C151.511 162.213 151.745 165.439 147.817 164.229Z" fill="#263238"/>
<path d="M152.994 170.729C152.831 170.728 152.673 170.668 152.551 170.56C151.938 170.044 151.688 168.375 151.615 167.681L148.39 169.205L148.22 168.834L152.696 166.746C152.805 166.688 152.927 166.657 153.051 166.657C153.174 166.657 153.296 166.688 153.406 166.746C153.514 166.803 153.609 166.884 153.682 166.983C153.754 167.083 153.803 167.197 153.825 167.318C154.002 168.391 154.107 169.786 153.639 170.399C153.572 170.487 153.487 170.561 153.39 170.615C153.293 170.669 153.186 170.703 153.075 170.713L152.994 170.729ZM152.002 167.504C152.075 168.246 152.325 169.842 152.809 170.254C152.864 170.303 152.936 170.329 153.01 170.326C153.068 170.322 153.123 170.305 153.173 170.278C153.223 170.25 153.267 170.211 153.301 170.165C153.591 169.786 153.631 168.778 153.397 167.399C153.39 167.339 153.368 167.281 153.333 167.232C153.297 167.183 153.25 167.143 153.196 167.117C153.141 167.089 153.08 167.075 153.018 167.075C152.957 167.075 152.896 167.089 152.841 167.117L152.002 167.504Z" fill="#D71635"/>
<path d="M145.737 170.746C145.706 170.494 145.726 170.24 145.794 169.996C145.862 169.753 145.978 169.525 146.135 169.327C146.292 169.128 146.486 168.962 146.707 168.839C146.928 168.716 147.171 168.637 147.422 168.608C148.89 168.455 150.019 170.221 150.341 171.439C150.696 172.826 149.922 174.1 148.486 173.649C147.403 173.292 146.504 172.521 145.987 171.504C145.848 171.272 145.763 171.014 145.737 170.746Z" fill="#CE7A63"/>
<path d="M195.082 258.332L199.574 254.074L205.582 263.203L201.985 266.316L195.082 258.332Z" fill="#CE7A63"/>
<path d="M134.721 220.849C134.189 220.844 133.671 221.017 133.249 221.342C132.828 221.667 132.528 222.124 132.398 222.639C129.366 234.461 132.785 241.606 141.164 241.606C149.011 241.606 170.421 234.599 177.147 232.421C182.792 248.695 199.041 263.267 199.041 263.267L203.308 259.356C203.308 259.356 193.84 241.123 187.292 224.905C183.534 215.591 147.212 220.97 147.212 220.97C147.212 220.97 139.987 220.849 134.721 220.849Z" fill="#263238"/>
<path opacity="0.3" d="M134.721 220.849C134.189 220.844 133.671 221.017 133.249 221.342C132.828 221.667 132.528 222.124 132.398 222.639C129.366 234.461 132.785 241.606 141.164 241.606C149.011 241.606 170.421 234.599 177.147 232.421C182.792 248.695 199.041 263.267 199.041 263.267L203.308 259.356C203.308 259.356 193.84 241.123 187.292 224.905C183.534 215.591 147.212 220.97 147.212 220.97C147.212 220.97 139.987 220.849 134.721 220.849Z" fill="white"/>
<path d="M205.646 261.178C207.437 261.041 210.025 259.678 211.654 258.259C212.896 257.162 214.332 258.42 213.09 260.122C211.848 261.824 209.146 264.243 208.106 265.348C206.404 267.146 206.09 268.017 204.679 269.38C204.503 269.535 204.274 269.614 204.04 269.602C203.807 269.59 203.587 269.487 203.429 269.315L200.622 265.856C200.591 265.82 200.567 265.778 200.552 265.733C200.537 265.688 200.531 265.641 200.535 265.593C200.539 265.546 200.552 265.5 200.574 265.457C200.596 265.415 200.626 265.378 200.663 265.348L204.808 261.549C205.038 261.335 205.333 261.205 205.646 261.178Z" fill="#263238"/>
<path d="M141.051 273.13V242.735H136.212V273.202L123.898 276.428C122.865 276.7 121.952 277.307 121.3 278.153C120.648 278.999 120.294 280.037 120.293 281.105V282.097C120.293 282.578 120.485 283.04 120.825 283.38C121.165 283.721 121.627 283.912 122.108 283.912C122.589 283.912 123.051 283.721 123.391 283.38C123.731 283.04 123.922 282.578 123.922 282.097C123.92 281.532 124.106 280.982 124.45 280.534C124.795 280.085 125.279 279.765 125.826 279.621L136.212 276.88V282.097C136.212 282.578 136.404 283.04 136.744 283.38C137.084 283.721 137.546 283.912 138.027 283.912H139.228C139.71 283.912 140.171 283.721 140.511 283.38C140.852 283.04 141.043 282.578 141.043 282.097V276.847L151.381 279.71C151.926 279.862 152.404 280.189 152.743 280.641C153.081 281.094 153.26 281.645 153.252 282.21C153.248 282.692 153.435 283.156 153.772 283.501C154.109 283.845 154.569 284.042 155.051 284.049C155.289 284.051 155.525 284.006 155.746 283.917C155.967 283.828 156.168 283.696 156.338 283.529C156.508 283.362 156.644 283.163 156.737 282.944C156.83 282.724 156.879 282.489 156.881 282.25V281.258C156.893 280.191 156.552 279.149 155.91 278.296C155.268 277.443 154.362 276.826 153.333 276.541L141.051 273.13Z" fill="#263238"/>
<path d="M119.125 287.291C119.123 286.708 119.294 286.138 119.617 285.653C119.94 285.167 120.4 284.789 120.938 284.565C121.476 284.341 122.069 284.282 122.64 284.396C123.212 284.509 123.737 284.789 124.149 285.201C124.561 285.614 124.842 286.139 124.955 286.711C125.069 287.282 125.01 287.875 124.786 288.413C124.562 288.951 124.184 289.411 123.698 289.734C123.213 290.056 122.643 290.228 122.06 290.226C121.282 290.224 120.537 289.914 119.987 289.364C119.437 288.814 119.127 288.069 119.125 287.291Z" fill="#D71635"/>
<path d="M152.188 287.291C152.186 286.708 152.358 286.139 152.68 285.653C153.003 285.168 153.462 284.79 153.999 284.566C154.537 284.342 155.129 284.282 155.701 284.395C156.272 284.508 156.797 284.787 157.21 285.199C157.622 285.61 157.904 286.134 158.018 286.706C158.132 287.277 158.074 287.869 157.852 288.407C157.629 288.946 157.252 289.406 156.768 289.73C156.283 290.053 155.714 290.226 155.131 290.226C154.352 290.226 153.605 289.917 153.053 289.367C152.501 288.817 152.19 288.07 152.188 287.291Z" fill="#D71635"/>
<path d="M135.665 287.291C135.663 286.708 135.834 286.139 136.157 285.653C136.479 285.168 136.938 284.79 137.476 284.566C138.014 284.342 138.606 284.282 139.177 284.395C139.749 284.508 140.274 284.787 140.687 285.199C141.099 285.61 141.38 286.134 141.494 286.706C141.609 287.277 141.551 287.869 141.328 288.407C141.106 288.946 140.728 289.406 140.244 289.73C139.76 290.053 139.191 290.226 138.608 290.226C137.829 290.224 137.083 289.914 136.532 289.365C135.981 288.815 135.669 288.069 135.665 287.291Z" fill="#D71635"/>
<path opacity="0.6" d="M141.051 242.76H136.221V249.622H141.051V242.76Z" fill="black"/>
<path opacity="0.6" d="M132.616 277.88L135.664 277.074V273.372L132.616 274.179V277.88Z" fill="black"/>
<path opacity="0.6" d="M144.6 274.114L141.543 273.267V276.985L144.6 277.831V274.114Z" fill="black"/>
<path d="M142.576 240.719H171.93C172.822 240.721 173.678 241.077 174.308 241.709C174.939 242.341 175.293 243.197 175.293 244.09H142.576V240.719Z" fill="#D71635"/>
<path opacity="0.5" d="M142.576 240.719H171.93C172.822 240.721 173.678 241.077 174.308 241.709C174.939 242.341 175.293 243.197 175.293 244.09H142.576V240.719Z" fill="black"/>
<path d="M121.745 197.575C111.431 197.575 104.084 205.269 104.625 215.51L105.81 237.897C105.896 239.553 106.613 241.114 107.812 242.259C109.011 243.404 110.603 244.048 112.262 244.058H153.712L145.148 215.51C142.116 205.301 132.067 197.575 121.745 197.575Z" fill="#D71635"/>
<path opacity="0.1" d="M121.745 197.575C111.431 197.575 104.084 205.269 104.625 215.51L105.81 237.897C105.896 239.553 106.613 241.114 107.812 242.259C109.011 243.404 110.603 244.048 112.262 244.058H153.712L145.148 215.51C142.116 205.301 132.067 197.575 121.745 197.575Z" fill="black"/>
<path opacity="0.3" d="M119.664 197.721C110.455 198.688 104.124 206.003 104.624 215.543L105.81 237.897C105.896 239.553 106.612 241.114 107.812 242.259C109.011 243.404 110.603 244.048 112.261 244.058H149.534L140.97 215.511C138.148 205.995 129.22 198.672 119.664 197.721Z" fill="black"/>
<path d="M158.422 243.122C158.121 242.82 157.953 242.412 157.953 241.985C157.953 241.559 158.121 241.151 158.422 240.848L167.204 232.066C167.331 231.939 167.418 231.776 167.454 231.599C167.489 231.422 167.471 231.239 167.402 231.072C167.333 230.906 167.216 230.763 167.066 230.663C166.915 230.563 166.739 230.51 166.558 230.51H147.736C147.309 230.51 146.898 230.34 146.596 230.038C146.293 229.735 146.124 229.325 146.124 228.897C146.124 228.469 146.293 228.059 146.596 227.757C146.898 227.454 147.309 227.284 147.736 227.284H166.381C167.153 227.27 167.915 227.464 168.586 227.845C169.257 228.227 169.813 228.783 170.195 229.453C170.621 230.237 170.78 231.138 170.651 232.02C170.522 232.903 170.11 233.72 169.478 234.349L160.696 243.122C160.394 243.423 159.985 243.591 159.559 243.591C159.133 243.591 158.724 243.423 158.422 243.122Z" fill="#263238"/>
<path opacity="0.2" d="M170.195 229.453C169.813 228.783 169.257 228.227 168.586 227.845C167.915 227.464 167.153 227.27 166.381 227.284H147.736C147.309 227.284 146.898 227.454 146.596 227.757C146.293 228.059 146.124 228.469 146.124 228.897C146.124 229.325 146.293 229.735 146.596 230.038C146.898 230.34 147.309 230.51 147.736 230.51H166.558C166.702 230.508 166.844 230.544 166.97 230.615H170.607C170.529 230.209 170.391 229.818 170.195 229.453Z" fill="white"/>
</svg>
