<svg width="40" height="40" viewBox="0 0 40 40" fill="none" xmlns="http://www.w3.org/2000/svg">
<g clip-path="url(#clip0_269_5468)">
<path d="M36.2503 40.0025H3.75165C1.68374 40.0025 0.000976562 38.3201 0.000976562 36.2502V17.4901C0.000976562 17.4738 0.00978686 17.4613 0.00978686 17.4463C0.0110455 17.4011 0.0261488 17.3585 0.0362177 17.3146C0.0500625 17.2143 0.0676831 17.119 0.105441 17.025C0.110476 17.0075 0.111735 16.9887 0.119286 16.9724C0.144459 16.9185 0.183476 16.8733 0.218717 16.8244C0.252699 16.773 0.267803 16.7154 0.308078 16.6677C0.329475 16.6439 0.357164 16.6351 0.378561 16.6138C0.38863 16.6038 0.394923 16.59 0.404992 16.58C0.416319 16.5687 0.421354 16.5549 0.432681 16.5449L6.25125 11.4988V6.23457C6.25125 5.54379 6.81133 4.9834 7.50106 4.9834H13.7652L19.1822 0.285846C19.653 -0.120347 20.349 -0.120347 20.8197 0.285846L26.238 4.9834H32.5009C33.1919 4.9834 33.7507 5.54379 33.7507 6.23457V11.4988L39.5705 16.5449C39.5819 16.5549 39.5856 16.5699 39.5982 16.58C39.6083 16.59 39.6146 16.6038 39.6246 16.6151C39.646 16.6351 39.6737 16.6452 39.6939 16.6677C39.7341 16.7141 39.7493 16.7718 39.7807 16.8219C39.8172 16.8721 39.8575 16.9185 39.8827 16.9724C39.8902 16.9899 39.8915 17.0087 39.8965 17.0263C39.9343 17.119 39.9506 17.2131 39.9645 17.3109C39.9758 17.356 39.9909 17.3999 39.9922 17.4463C39.9922 17.4613 40.001 17.4738 40.001 17.4901V36.2502C40.001 38.3201 38.3182 40.0025 36.2503 40.0025ZM35.616 37.5014L20.1224 23.7661C20.0809 23.731 19.9198 23.731 19.8644 23.7786L4.38599 37.5014H35.616ZM2.39864 35.9205L11.365 27.9722L2.39864 20.1504V35.9205ZM3.15632 17.4926L6.25125 20.1918V14.8098L3.15632 17.4926ZM20.0016 2.88598L17.5826 4.9834H22.4194L20.0016 2.88598ZM26.1273 7.40426C26.009 7.44061 25.8894 7.48073 25.7661 7.48073C25.6201 7.48073 25.4741 7.45566 25.3344 7.40426H8.6917V22.3218L13.2517 26.2998L18.2219 21.8931C19.2276 21.0318 20.7744 21.0318 21.7649 21.8805L26.749 26.2985L31.3467 22.2892V7.40426H26.1273ZM33.7507 14.8098V20.1918L36.8444 17.4926L33.7507 14.8098ZM37.6398 20.1179L28.637 27.9722L37.6398 35.9531V20.1179Z" fill="#D71635"/>
</g>
<defs>
<clipPath id="clip0_269_5468">
<rect width="40" height="40" fill="white"/>
</clipPath>
</defs>
</svg>
