<svg width="335" height="268" viewBox="0 0 335 268" fill="none" xmlns="http://www.w3.org/2000/svg">
<path d="M287.937 266.19V186.893" stroke="#263238" stroke-linecap="round" stroke-linejoin="round"/>
<path d="M281.508 266.19V226.868" stroke="#263238" stroke-linecap="round" stroke-linejoin="round"/>
<path d="M289.946 199.892C289.946 199.892 283.468 199.155 280.811 194.025C278.155 188.896 277.902 175.664 287.993 160.999C298.083 146.334 303.374 146.18 305.131 158.146C306.888 170.113 306.635 187.49 302.503 194.074C298.371 200.658 289.946 199.892 289.946 199.892Z" fill="white" stroke="#263238" stroke-linecap="round" stroke-linejoin="round"/>
<path d="M292.244 172.27C293.439 168.195 294.865 164.541 296.523 162.039" stroke="#263238" stroke-linecap="round" stroke-linejoin="round"/>
<path d="M287.228 199.014C288.117 190.949 289.525 182.95 291.444 175.067" stroke="#263238" stroke-linecap="round" stroke-linejoin="round"/>
<path d="M293.805 225.631C293.805 225.631 289.645 222.406 289.982 217.769C290.32 213.131 295.66 203.891 308.737 198.03C321.814 192.17 325.545 194.25 321.75 203.23C317.956 212.21 310.507 224.093 304.886 226.903C299.265 229.714 293.805 225.631 293.805 225.631Z" fill="white" stroke="#263238" stroke-linecap="round" stroke-linejoin="round"/>
<path d="M306.951 207.544C309.481 205.24 311.996 203.328 314.182 202.288" stroke="#263238" stroke-linecap="round" stroke-linejoin="round"/>
<path d="M305.272 209.133C300.644 213.767 296.321 218.696 292.329 223.889C292.329 223.889 288.977 228.4 287.986 237.359" stroke="#263238" stroke-linecap="round" stroke-linejoin="round"/>
<path d="M291.444 252.417C291.444 252.417 289.033 250.548 289.23 247.864C289.427 245.18 292.519 239.825 300.101 236.424C307.682 233.024 309.833 234.239 307.633 239.446C305.434 244.653 301.119 251.532 297.873 253.155C294.627 254.778 291.444 252.417 291.444 252.417Z" fill="white" stroke="#263238" stroke-linecap="round" stroke-linejoin="round"/>
<path d="M299.039 241.969C300.292 240.759 301.712 239.734 303.255 238.926" stroke="#263238" stroke-linecap="round" stroke-linejoin="round"/>
<path d="M298.069 242.889C295.389 245.571 292.884 248.423 290.571 251.427C290.571 251.427 288.625 254.041 288.049 259.234" stroke="#263238" stroke-linecap="round" stroke-linejoin="round"/>
<path d="M282.062 214.909C282.062 214.909 286.215 211.683 285.885 207.046C285.555 202.408 280.207 193.168 267.124 187.307C254.04 181.447 250.323 183.527 254.117 192.507C257.911 201.487 265.36 213.37 270.981 216.18C276.603 218.991 282.062 214.909 282.062 214.909Z" fill="white" stroke="#263238" stroke-linecap="round" stroke-linejoin="round"/>
<path d="M268.915 196.822C266.762 194.738 264.325 192.969 261.678 191.566" stroke="#263238" stroke-linecap="round" stroke-linejoin="round"/>
<path d="M270.595 198.41C275.22 203.045 279.541 207.974 283.531 213.166C283.531 213.166 286.883 217.677 287.881 226.636" stroke="#263238" stroke-linecap="round" stroke-linejoin="round"/>
<path d="M280.018 250.724C280.018 250.724 284.234 250.857 286.342 248.321C288.45 245.784 289.715 238.701 284.444 230.051C279.174 221.401 275.809 220.797 273.701 227.121C271.592 233.445 270.363 242.713 272.471 246.585C274.579 250.457 280.018 250.724 280.018 250.724Z" fill="white" stroke="#263238" stroke-linecap="round" stroke-linejoin="round"/>
<path d="M280.678 244.273C280.741 245.137 280.783 246.002 280.804 246.859" stroke="#263238" stroke-linecap="round" stroke-linejoin="round"/>
<path d="M277.446 226.707C278.879 231.8 279.899 237 280.496 242.257" stroke="#263238" stroke-linecap="round" stroke-linejoin="round"/>
<path d="M8.18848 199.506H105.446V1" stroke="#263238" stroke-linecap="round" stroke-linejoin="round"/>
<path d="M208.655 199.506H111.397V1" stroke="#263238" stroke-linecap="round" stroke-linejoin="round"/>
<path d="M151.092 199.506H248.349V1" stroke="#263238" stroke-linecap="round" stroke-linejoin="round"/>
<path d="M228.505 47.6084L194.51 85.1734" stroke="#263238" stroke-linecap="round" stroke-linejoin="round"/>
<path d="M209.645 76.6711L200.215 87.0918" stroke="#263238" stroke-linecap="round" stroke-linejoin="round"/>
<path d="M134.719 37.7432L116.358 58.0294" stroke="#263238" stroke-linecap="round" stroke-linejoin="round"/>
<path d="M139.681 32.8032L152.09 19.094" stroke="#263238" stroke-linecap="round" stroke-linejoin="round"/>
<path d="M101.475 158.378L89.5645 171.54" stroke="#263238" stroke-linecap="round" stroke-linejoin="round"/>
<path d="M97.506 140.833L75.4209 165.236" stroke="#263238" stroke-linecap="round" stroke-linejoin="round"/>
<path d="M321.52 64.0192C328.737 45.9657 319.952 25.4797 301.899 18.2625C283.845 11.0453 263.359 19.8298 256.142 37.8833C248.925 55.9368 257.709 76.4227 275.763 83.64C293.816 90.8572 314.302 82.0727 321.52 64.0192Z" stroke="#263238" stroke-linecap="round" stroke-linejoin="round"/>
<path d="M288.842 81.6882C305.813 81.6882 319.57 67.9308 319.57 50.9602C319.57 33.9896 305.813 20.2322 288.842 20.2322C271.872 20.2322 258.114 33.9896 258.114 50.9602C258.114 67.9308 271.872 81.6882 288.842 81.6882Z" stroke="#263238" stroke-linecap="round" stroke-linejoin="round"/>
<path d="M288.842 53.0611C290.003 53.0611 290.943 52.1205 290.943 50.9601C290.943 49.7998 290.003 48.8591 288.842 48.8591C287.682 48.8591 286.741 49.7998 286.741 50.9601C286.741 52.1205 287.682 53.0611 288.842 53.0611Z" stroke="#263238" stroke-linecap="round" stroke-linejoin="round"/>
<path d="M288.843 53.061V63.3833" stroke="#263238" stroke-linecap="round" stroke-linejoin="round"/>
<path d="M286.742 50.9602H261.685" stroke="#263238" stroke-linecap="round" stroke-linejoin="round"/>
<path d="M128.963 135.927L117.383 117.953C124.439 106.546 126.831 92.8596 124.063 79.7354C121.294 66.6112 113.577 55.0576 102.514 47.4733C91.4507 39.889 77.8918 36.8568 64.652 39.0062C51.4123 41.1556 39.509 48.3215 31.4135 59.016C23.3179 69.7106 19.6522 83.1121 21.1774 96.4382C22.7026 109.764 29.3015 121.991 39.604 130.58C49.9065 139.169 63.1211 143.46 76.5041 142.562C89.8871 141.665 102.41 135.647 111.474 125.76L128.963 135.927Z" fill="#263238" stroke="#263238" stroke-linecap="round" stroke-linejoin="round"/>
<path d="M130.067 131.557L118.48 113.583C125.524 102.181 127.905 88.5041 125.131 75.3923C122.356 62.2806 114.639 50.741 103.581 43.1695C92.5222 35.598 78.9726 32.5762 65.7449 34.7315C52.5173 36.8868 40.6279 44.0537 32.5451 54.7441C24.4624 65.4345 20.8073 78.8271 22.3387 92.1414C23.8701 105.456 30.4704 117.669 40.7693 126.245C51.0681 134.821 64.2742 139.101 77.6457 138.197C91.0173 137.293 103.527 131.274 112.577 121.389L130.067 131.557Z" fill="white" stroke="#263238" stroke-linecap="round" stroke-linejoin="round"/>
<path d="M37.5241 93.6126V88.743L45.5065 76.4743C46.1108 75.5679 46.68 74.6825 47.221 73.8323C47.7415 73.0087 48.1838 72.1383 48.5421 71.2324C48.8862 70.3501 49.0602 69.4108 49.055 68.4638C49.1142 67.7045 48.9108 66.9479 48.4788 66.3207C48.2895 66.0907 48.0495 65.9076 47.7777 65.7857C47.5059 65.6638 47.2095 65.6064 46.9119 65.618C46.5959 65.5999 46.2795 65.6452 45.9814 65.7514C45.6833 65.8577 45.4095 66.0225 45.1762 66.2363C44.7396 66.6924 44.4464 67.2665 44.333 67.8876C44.1712 68.6474 44.0935 69.4227 44.1012 70.1994V71.8296H37.4398V70.0589C37.4152 68.2622 37.7373 66.4776 38.3884 64.8029C38.9823 63.2917 40.037 62.0059 41.4029 61.1279C43.0357 60.1657 44.9132 59.6994 46.8065 59.7858C49.8092 59.7858 52.0718 60.5634 53.5943 62.1187C55.1168 63.6739 55.8803 65.8405 55.885 68.6184C55.8977 69.8996 55.6812 71.1728 55.2456 72.3777C54.8062 73.5561 54.2383 74.6825 53.5521 75.7365C52.8495 76.8257 52.1046 77.957 51.3036 79.1445L45.1973 88.2793H54.9786V93.6126H37.5241Z" fill="#263238" stroke="#263238" stroke-linecap="round" stroke-linejoin="round"/>
<path d="M67.6903 93.6125V86.129H57.4102V81.0557L66.1233 60.2144H74.1268V81.0136H77.2186V86.129H74.1268V93.6125H67.6903ZM62.6521 80.9644H67.6903V67.1076L62.6521 80.9644Z" fill="#263238" stroke="#263238" stroke-linecap="round" stroke-linejoin="round"/>
<path d="M79.7832 93.6126L90.0142 60.1863H93.647L83.3739 93.6126H79.7832Z" fill="#263238" stroke="#263238" stroke-linecap="round" stroke-linejoin="round"/>
<path d="M98.1015 93.6126L105.367 65.4282H96.2324V60.1863H112.078V64.9293L104.833 93.6126H98.1015Z" fill="#263238" stroke="#263238" stroke-linecap="round" stroke-linejoin="round"/>
<path d="M44.0168 115.03C43.1974 115.06 42.3861 114.858 41.6769 114.447C41.0529 114.053 40.5629 113.48 40.2715 112.803C39.9383 112.017 39.7434 111.181 39.6953 110.329L41.1007 109.907C41.1622 110.563 41.2917 111.211 41.4871 111.84C41.6396 112.371 41.9451 112.845 42.3655 113.203C42.8342 113.565 43.4185 113.745 44.0097 113.709C44.6614 113.747 45.3027 113.533 45.8016 113.112C46.0343 112.856 46.2113 112.555 46.3214 112.227C46.4315 111.899 46.4722 111.552 46.441 111.207C46.4544 110.508 46.2586 109.82 45.8789 109.233C45.4281 108.589 44.9073 107.998 44.3259 107.469L41.2904 104.546C40.7938 104.078 40.3866 103.523 40.0888 102.909C39.8312 102.327 39.7018 101.697 39.7094 101.061C39.6767 100.552 39.7554 100.042 39.9398 99.5659C40.1243 99.0902 40.4101 98.6604 40.7774 98.3063C41.5605 97.6444 42.5637 97.3008 43.5881 97.3437C44.1476 97.338 44.7045 97.4186 45.2394 97.5826C45.7167 97.7285 46.1509 97.989 46.5042 98.3415C46.8734 98.7286 47.1539 99.1913 47.3264 99.6976C47.5427 100.353 47.6795 101.033 47.7339 101.721L46.3286 102.087C46.2885 101.452 46.1705 100.824 45.9772 100.218C45.8311 99.7452 45.5382 99.3317 45.141 99.0371C44.675 98.7388 44.1264 98.5961 43.5741 98.6296C42.9435 98.6014 42.3234 98.7981 41.8244 99.1847C41.5825 99.3995 41.3933 99.6672 41.2714 99.967C41.1496 100.267 41.0983 100.591 41.1217 100.913C41.1162 101.354 41.2073 101.79 41.3888 102.192C41.6511 102.67 41.9988 103.097 42.4147 103.45L45.4643 106.331C46.1432 106.956 46.7405 107.664 47.242 108.439C47.7399 109.232 47.9985 110.152 47.9869 111.088C48.013 111.846 47.8384 112.597 47.481 113.266C47.1604 113.84 46.6692 114.299 46.0756 114.58C45.4322 114.884 44.7282 115.038 44.0168 115.03Z" fill="#263238" stroke="#263238" stroke-linecap="round" stroke-linejoin="round"/>
<path d="M50.1436 114.819V97.5193H56.3974V98.7771H51.7878V105.27H55.5471V106.464H51.7878V113.597H56.4466V114.819H50.1436Z" fill="#263238" stroke="#263238" stroke-linecap="round" stroke-linejoin="round"/>
<path d="M58.668 114.819V97.5194H62.5748C63.4552 97.4767 64.3322 97.6555 65.1256 98.0394C65.7327 98.3756 66.2046 98.912 66.4606 99.5571C66.75 100.31 66.8885 101.112 66.8682 101.918C66.8728 102.529 66.7996 103.138 66.6504 103.731C66.534 104.264 66.2933 104.763 65.9477 105.186C65.5675 105.607 65.0539 105.885 64.4931 105.973L67.1422 114.819H65.5612L63.0246 106.317H60.263V114.819H58.668ZM60.263 105.122H62.4624C63.0473 105.156 63.6302 105.029 64.1488 104.757C64.5506 104.514 64.8522 104.135 64.9991 103.689C65.189 103.118 65.277 102.519 65.2591 101.918C65.3189 101.082 65.1255 100.247 64.7039 99.522C64.3315 98.995 63.6008 98.735 62.5046 98.735H60.263V105.122Z" fill="#263238" stroke="#263238" stroke-linecap="round" stroke-linejoin="round"/>
<path d="M69.6436 114.819V97.5193H71.2667V114.819H69.6436Z" fill="#263238" stroke="#263238" stroke-linecap="round" stroke-linejoin="round"/>
<path d="M77.3943 114.819L73.3398 97.5193H74.8998L78.1672 111.882L81.2379 97.5544H82.7487L78.8418 114.854L77.3943 114.819Z" fill="#263238" stroke="#263238" stroke-linecap="round" stroke-linejoin="round"/>
<path d="M84.8564 114.819V97.5193H86.4796V114.819H84.8564Z" fill="#263238" stroke="#263238" stroke-linecap="round" stroke-linejoin="round"/>
<path d="M93.5408 115.03C92.5887 115.098 91.6407 114.851 90.8425 114.327C90.2021 113.838 89.7404 113.152 89.5285 112.374C89.2748 111.488 89.1517 110.569 89.1631 109.648V102.747C89.1495 101.797 89.2749 100.85 89.5355 99.9366C89.7559 99.1727 90.226 98.5048 90.8706 98.0394C91.6659 97.5332 92.5993 97.2876 93.5408 97.3367C94.3968 97.2917 95.2472 97.4994 95.9861 97.934C96.5838 98.3473 97.0304 98.9443 97.2579 99.6345C97.5296 100.479 97.6601 101.362 97.6444 102.248V103.295H96.0985V102.298C96.1074 101.644 96.0462 100.992 95.9158 100.351C95.8273 99.8575 95.5657 99.4116 95.178 99.0934C94.6972 98.7604 94.1171 98.6018 93.5338 98.6437C92.9156 98.6014 92.3013 98.7698 91.7911 99.1215C91.385 99.4732 91.108 99.9506 91.0041 100.478C90.861 101.145 90.7926 101.826 90.8003 102.508V109.879C90.788 110.59 90.8707 111.299 91.0463 111.988C91.1643 112.505 91.4602 112.965 91.8825 113.287C92.3732 113.597 92.9475 113.746 93.5267 113.716C94.1129 113.755 94.6944 113.589 95.171 113.245C95.5589 112.904 95.8191 112.44 95.9088 111.931C96.0377 111.281 96.099 110.62 96.0915 109.957V108.825H97.6303V109.851C97.6435 110.761 97.5228 111.668 97.272 112.543C97.0758 113.271 96.6402 113.912 96.0353 114.363C95.2954 114.844 94.422 115.077 93.5408 115.03Z" fill="#263238" stroke="#263238" stroke-linecap="round" stroke-linejoin="round"/>
<path d="M100.161 114.819V97.5193H106.422V98.7771H101.805V105.27H105.565V106.464H101.805V113.597H106.464V114.819H100.161Z" fill="#263238" stroke="#263238" stroke-linecap="round" stroke-linejoin="round"/>
<path d="M223.06 194.214H260.703C260.703 194.214 240.325 244.322 244.169 266.702H206.021C206.021 266.702 213.139 209.476 223.06 194.214Z" fill="#263238" stroke="#263238" stroke-linecap="round" stroke-linejoin="round"/>
<path d="M190.49 122.289C190.49 122.289 190.863 129.07 203.49 133.026C216.117 136.982 228.934 133.026 236.094 138.647C243.254 144.268 243.064 152.968 240.612 157.303C238.16 161.639 234.204 165.967 245.889 171.054C257.575 176.142 250.597 191.032 245.699 196.498C240.802 201.965 232.349 204.6 222.898 202.717C213.447 200.834 202.358 178.032 190.301 165.967C178.243 153.902 176.767 131.648 184.461 125.268C192.156 118.888 190.49 122.289 190.49 122.289Z" fill="#263238" stroke="#263238" stroke-linecap="round" stroke-linejoin="round"/>
<path d="M188.551 97.8987C188.551 97.8987 193.751 95.6291 195.086 100.007C196.421 104.384 196.814 116.414 196.814 116.414L194.004 115.747C194.004 115.747 194.671 102.143 191.601 100.007C188.53 97.8706 186.134 102.677 186.134 102.677L188.551 97.8987Z" fill="#A6A6A6" stroke="#263238" stroke-linecap="round" stroke-linejoin="round"/>
<path d="M130.18 244.252L147.943 234.752C147.943 234.752 146.714 216.11 146.889 215.407C147.065 214.705 151.513 178.229 151.513 178.229L139.329 214.353L130.18 244.252Z" fill="#263238" stroke="#263238" stroke-linecap="round" stroke-linejoin="round"/>
<path d="M208.711 159.495C208.711 159.495 226.278 169.066 228.639 170.036C231 171.005 229.609 183.211 229.609 191.186C229.609 199.162 217.663 266.513 217.663 266.513H129.196C129.196 266.513 144.142 243.599 144.543 237.619C144.943 231.639 142.35 226.854 141.95 221.078C141.549 215.302 150.122 180.021 151.513 178.215C152.905 176.409 158.891 171.841 158.891 171.841L180.014 153.34L189.781 151.148L208.711 159.495Z" fill="#D71635" stroke="#263238" stroke-linecap="round" stroke-linejoin="round"/>
<path d="M150.079 244.097L147.128 250.169" stroke="#263238" stroke-linecap="round" stroke-linejoin="round"/>
<path d="M152.912 226.657C152.912 226.657 148.527 229.644 150.719 231.239C152.912 232.834 153.909 236.221 153.909 236.221L151.099 241.694" stroke="#263238" stroke-linecap="round" stroke-linejoin="round"/>
<path d="M173.563 241.174C174.751 241.266 176.002 241.336 177.309 241.371" stroke="#263238" stroke-linecap="round" stroke-linejoin="round"/>
<path d="M154.696 236.256C154.696 236.256 159.467 239.446 169.86 240.809" stroke="#263238" stroke-linecap="round" stroke-linejoin="round"/>
<path d="M142.807 108.832C141.967 109.242 141.266 109.891 140.792 110.697C140.319 111.503 140.093 112.431 140.144 113.364C140.144 116.836 142.954 123.631 142.954 123.631L144.557 123.104C144.557 123.104 141.626 116.035 142.027 113.498C142.157 112.758 142.488 112.069 142.983 111.505C143.479 110.941 144.121 110.524 144.838 110.301L144.304 108.565L142.807 108.832Z" fill="#A6A6A6" stroke="#263238" stroke-linecap="round" stroke-linejoin="round"/>
<path d="M149.673 126.688C150.375 130.201 149.174 133.37 147.038 133.785C144.901 134.199 142.625 131.677 141.95 128.163C141.276 124.65 142.449 121.474 144.585 121.066C146.721 120.659 148.998 123.181 149.673 126.688Z" fill="white" stroke="#263238" stroke-linecap="round" stroke-linejoin="round"/>
<path d="M156.158 125.556C157.486 130.039 155.933 134.459 152.686 135.394C149.44 136.328 145.73 133.503 144.395 129.02C143.06 124.537 144.62 120.117 147.866 119.183C151.112 118.248 154.83 121.073 156.158 125.556Z" fill="#263238" stroke="#263238" stroke-linecap="round" stroke-linejoin="round"/>
<path d="M168.195 149.995L171.35 160.254L160.978 173.324L159.249 183.421C159.249 183.421 157.528 212.231 158.512 216.672C159.495 221.113 159.495 222.336 159.495 222.336C159.495 222.336 180.927 197.461 191.516 182.192C202.106 166.923 204.565 157.556 204.565 157.556L194.222 151.935L189.303 129.027L168.195 149.995Z" fill="white" stroke="#263238" stroke-linecap="round" stroke-linejoin="round"/>
<path d="M184.552 140.066L171.349 160.254L167.667 148.372L184.552 140.066Z" fill="#263238" stroke="#263238" stroke-linecap="round" stroke-linejoin="round"/>
<path d="M159.341 182.852L159.243 183.422C159.243 183.422 157.521 212.231 158.505 216.672C159.489 221.113 159.489 222.336 159.489 222.336C159.489 222.336 180.92 197.461 191.509 182.192C192.339 180.997 193.112 179.838 193.849 178.714C180.59 183.253 167.07 183.33 159.341 182.852Z" fill="white" stroke="#263238" stroke-linecap="round" stroke-linejoin="round"/>
<path d="M154.148 87.0986C154.148 87.0986 144.276 93.0995 143.208 102.164C142.14 111.229 145.878 120.968 147.346 124.832C148.815 128.697 153.881 143.769 156.544 146.707C159.208 149.644 167.879 154.036 169.347 154.837C170.816 155.638 173.479 155.371 175.749 153.768C178.018 152.166 187.35 140.839 188.818 138.169C190.287 135.499 190.547 129.632 190.547 129.632C190.547 129.632 190.28 117.897 189.753 110.301C189.226 102.705 189.619 95.3621 183.352 88.9607C177.084 82.5594 160.283 82.4258 154.148 87.0986Z" fill="white" stroke="#263238" stroke-linecap="round" stroke-linejoin="round"/>
<path d="M189.753 110.301C189.218 102.698 189.619 95.3621 183.351 88.9607C177.083 82.5594 160.282 82.4258 154.148 87.0986C154.148 87.0986 144.275 93.0995 143.207 102.164C142.589 107.434 143.594 112.915 144.823 117.356C147.093 115.95 154.752 111.257 163.346 105.235C173.612 98.0323 176.95 86.8316 176.95 86.8316C176.95 86.8316 178.144 86.1641 177.884 87.6327C177.624 89.1013 173.612 97.7652 172.151 99.1003L170.682 100.428C170.682 100.428 171.883 100.161 177.35 106.696C182.817 113.231 185.881 115.901 187.483 116.702C188.334 117.01 189.228 117.183 190.132 117.215C190.027 114.819 189.9 112.402 189.753 110.301Z" fill="#263238" stroke="#263238" stroke-linecap="round" stroke-linejoin="round"/>
<path d="M173.331 124.439C173.5 125.416 173.142 126.301 172.523 126.406C171.905 126.512 171.272 125.809 171.118 124.832C170.963 123.856 171.308 122.97 171.926 122.858C172.544 122.745 173.156 123.462 173.331 124.439Z" fill="#263238" stroke="#263238" stroke-linecap="round" stroke-linejoin="round"/>
<path d="M158.393 126.568C158.568 127.552 158.21 128.43 157.592 128.542C156.973 128.655 156.334 127.945 156.186 126.961C156.039 125.978 156.369 125.106 156.987 124.994C157.606 124.881 158.224 125.591 158.393 126.568Z" fill="#263238" stroke="#263238" stroke-linecap="round" stroke-linejoin="round"/>
<path d="M167.21 118.431C167.21 118.431 171.616 114.967 175.642 117.764" stroke="#263238" stroke-linecap="round" stroke-linejoin="round"/>
<path d="M158.28 120.314C158.28 120.314 153.08 117.778 149.476 122.317" stroke="#263238" stroke-linecap="round" stroke-linejoin="round"/>
<path d="M159.215 120.433C159.215 120.433 162.813 122.169 163.08 125.5" stroke="#263238" stroke-linecap="round" stroke-linejoin="round"/>
<path d="M163.213 134.705C163.213 134.705 164.681 135.766 167.211 134.972" stroke="#263238" stroke-linecap="round" stroke-linejoin="round"/>
<path d="M162.151 140.305C165.14 140.176 168.08 139.497 170.822 138.302C175.488 136.3 177.357 133.503 177.357 133.503" stroke="#263238" stroke-linecap="round" stroke-linejoin="round"/>
<path d="M164.414 140.172C165.48 141.115 166.855 141.635 168.279 141.633C170.682 141.633 172.811 137.368 172.811 137.368C172.811 137.368 166.677 140.038 164.414 140.172Z" stroke="#263238" stroke-linecap="round" stroke-linejoin="round"/>
<path d="M192.148 130.299C195.536 130.299 198.282 126.508 198.282 121.832C198.282 117.156 195.536 113.365 192.148 113.365C188.76 113.365 186.014 117.156 186.014 121.832C186.014 126.508 188.76 130.299 192.148 130.299Z" fill="#263238" stroke="#263238" stroke-linecap="round" stroke-linejoin="round"/>
<path d="M194.748 126.835C196.922 126.835 198.683 123.941 198.683 120.37C198.683 116.8 196.922 113.906 194.748 113.906C192.575 113.906 190.813 116.8 190.813 120.37C190.813 123.941 192.575 126.835 194.748 126.835Z" fill="white" stroke="#263238" stroke-linecap="round" stroke-linejoin="round"/>
<path d="M147.037 130.854C147.037 130.854 147.079 144.711 150.677 145.913C154.275 147.114 164.147 144.711 164.147 144.711" stroke="#263238" stroke-width="2" stroke-linecap="round" stroke-linejoin="round"/>
<path d="M169.214 144.655C169.214 145.723 167.9 146.587 166.277 146.587C164.654 146.587 163.347 145.723 163.347 144.655C163.347 143.587 164.661 142.722 166.277 142.722C167.893 142.722 169.214 143.587 169.214 144.655Z" fill="#263238" stroke="#263238" stroke-linecap="round" stroke-linejoin="round"/>
<path d="M170.049 160.894C170.049 160.894 165.833 168.265 162.875 190.188C159.917 212.112 161.877 216.489 161.877 216.489L157.661 219.082C157.661 219.082 148.899 218.084 151.885 197.362C154.872 176.641 156.53 173.247 156.53 173.247L170.049 160.894Z" fill="#D71635" stroke="#263238" stroke-linecap="round" stroke-linejoin="round"/>
<path d="M196.751 153.34C196.751 153.34 187.187 176.057 177.223 190.209C167.259 204.361 153.719 224.661 153.719 224.661C153.719 224.661 160.893 221.275 176.043 209.905C191.192 198.536 206.532 172.439 208.127 169.853C209.722 167.267 212.111 161.287 212.111 161.287L196.751 153.34Z" fill="#D71635" stroke="#263238" stroke-linecap="round" stroke-linejoin="round"/>
<path d="M113.969 254.272C111.631 255.695 109.18 256.922 106.64 257.94C102.157 259.774 101.721 259.451 103.176 260.997C104.63 262.543 112.142 259.774 114.18 258.959C116.217 258.144 120.089 256.921 120.089 256.921C120.089 256.921 124.776 259.57 127.629 260.386C130.482 261.201 133.953 259.978 133.953 259.978C133.953 259.978 134.157 256.718 131.711 254.884C129.266 253.05 123.982 248.77 122.134 248.974C120.286 249.178 113.969 254.272 113.969 254.272Z" fill="white" stroke="#263238" stroke-linecap="round" stroke-linejoin="round"/>
<path d="M112.747 249.382C112.747 249.382 110.302 248.77 108.671 249.993C107.041 251.216 105.207 255.087 105.003 256.106C104.8 257.125 105.207 257.736 106.837 256.31C108.468 254.884 111.321 252.846 111.321 252.846L113.766 252.031L112.747 249.382Z" fill="white" stroke="#263238" stroke-linecap="round" stroke-linejoin="round"/>
<path d="M119.064 247.547C119.064 247.547 114.145 245.917 113.154 247.344C112.164 248.77 108.671 256.921 109.69 257.532C110.709 258.144 112.135 256.921 113.969 254.272C115.803 251.623 116.822 250.197 116.822 250.197L119.268 249.789L119.064 247.547Z" fill="white" stroke="#263238" stroke-linecap="round" stroke-linejoin="round"/>
<path d="M127.797 249.374C127.797 249.374 121.424 244.392 119.829 245.587C118.234 246.781 113.055 254.553 112.458 256.127C111.861 257.701 114.65 256.928 116.836 254.932C119.021 252.937 121.621 250.716 121.621 250.716L126.603 253.309L127.797 249.374Z" fill="white" stroke="#263238" stroke-linecap="round" stroke-linejoin="round"/>
<path d="M150.718 253.162C150.718 253.162 142.35 252.762 138.963 251.567C135.576 250.373 128.795 247.78 126.806 247.976C124.818 248.173 117.236 255.551 115.641 257.146C114.046 258.741 114.235 259.17 115.802 259.367C117.369 259.564 121.22 256.95 123.019 255.551C124.132 254.695 125.333 253.96 126.603 253.359C128.033 255.417 129.634 257.352 131.388 259.142C133.376 260.934 138.162 262.325 139.953 262.128C141.094 261.999 142.225 261.799 143.34 261.531L150.121 261.334L150.718 253.162Z" fill="white" stroke="#263238" stroke-linecap="round" stroke-linejoin="round"/>
<path d="M208.907 195.564C208.907 195.564 201.536 204.129 201.937 207.123C202.337 210.116 202.534 213.095 202.534 213.095L197.151 245.58C197.151 245.58 192.57 243.388 192.57 245.18V246.978L149.503 251.363L149.103 266.506L217.656 266.703C217.656 266.703 221.042 262.922 221.443 261.524C221.844 260.126 229.411 236.017 231.407 210.706C233.403 185.396 232.405 174.041 231.407 172.059C230.409 170.078 218.653 166.283 218.653 166.283" fill="#D71635"/>
<path d="M208.907 195.564C208.907 195.564 201.536 204.129 201.937 207.123C202.337 210.116 202.534 213.095 202.534 213.095L197.151 245.58C197.151 245.58 192.57 243.388 192.57 245.18V246.978L149.503 251.363L149.103 266.506L217.656 266.703C217.656 266.703 221.042 262.922 221.443 261.524C221.844 260.126 229.411 236.017 231.407 210.706C233.403 185.396 232.405 174.041 231.407 172.059C230.409 170.078 218.653 166.283 218.653 166.283" stroke="#263238" stroke-linecap="round" stroke-linejoin="round"/>
<path d="M198.747 245.39C198.747 245.39 205.12 249.571 208.908 250.569L198.747 245.39Z" fill="white"/>
<path d="M198.747 245.39C198.747 245.39 205.12 249.571 208.908 250.569" stroke="#263238" stroke-linecap="round" stroke-linejoin="round"/>
<path d="M138.963 204.965L143.882 189.176C145.877 187.222 147.623 185.029 149.082 182.648C151.19 179.086 151.19 172.403 150.86 171.216C150.529 170.028 155.167 164.688 156.481 162.784C157.795 160.88 158.554 157.436 156.776 154.914C154.998 152.391 154.106 156.551 152.919 158.476C151.731 160.402 147.571 162.334 147.571 162.334L143.179 165.904C143.179 165.904 135.907 172.284 135.45 173.176C134.993 174.069 134.115 176.887 134.115 176.887L134.712 185.494L130.854 200.482L138.963 204.965Z" fill="white" stroke="#263238" stroke-linecap="round" stroke-linejoin="round"/>
<path d="M140.18 160.711C140.18 160.711 143.742 155.09 144.782 153.291C145.822 151.492 147.452 144.388 148.492 144.859C149.532 145.33 150.6 147.669 150.277 150.796C149.954 153.923 146.265 161.034 146.265 161.034L140.18 160.711Z" stroke="#263238" stroke-linecap="round" stroke-linejoin="round"/>
<path d="M131.571 196.034L134.691 185.494L133.342 168.574L137.495 160.563L148.92 159.081C148.92 159.081 155.898 162.791 156.495 162.791C157.092 162.791 156.495 164.421 155.16 164.716C153.825 165.011 151.295 164.273 151.295 164.273L155.603 167.084C155.603 167.084 155.308 168.419 154.268 168.714C153.241 168.921 152.195 169.023 151.148 169.016C151.148 169.016 154.858 171.391 153.959 171.827C153.078 172.231 152.117 172.433 151.148 172.417H148.337L146.11 172.122L142.695 173.457C142.695 173.457 145.07 179.542 144.922 182.515C144.775 185.487 141.064 187.434 141.064 187.434" fill="white"/>
<path d="M131.571 196.034L134.691 185.494L133.342 168.574L137.495 160.563L148.92 159.081C148.92 159.081 155.898 162.791 156.495 162.791C157.092 162.791 156.495 164.421 155.16 164.716C153.825 165.011 151.295 164.273 151.295 164.273L155.603 167.084C155.603 167.084 155.308 168.419 154.268 168.714C153.241 168.921 152.195 169.023 151.148 169.016C151.148 169.016 154.858 171.391 153.959 171.827C153.078 172.231 152.117 172.433 151.148 172.417H148.337L146.11 172.122L142.695 173.457C142.695 173.457 145.07 179.542 144.922 182.515C144.775 185.487 141.064 187.434 141.064 187.434" stroke="#263238" stroke-linecap="round" stroke-linejoin="round"/>
<path d="M151.31 164.273C151.31 164.273 148.935 162.341 147.6 162.341C146.265 162.341 138.106 163.824 138.106 163.824" stroke="#263238" stroke-linecap="round" stroke-linejoin="round"/>
<path d="M151.162 169.024C151.162 169.024 147.304 166.916 146.116 166.916C144.929 166.916 135.576 169.291 135.576 169.291" stroke="#263238" stroke-linecap="round" stroke-linejoin="round"/>
<path d="M131.761 192.725L143.812 200.841C143.812 200.841 138.443 229.65 137.916 232.117C137.389 234.583 133.524 241.083 131.592 243.022C129.66 244.962 127.376 244.603 122.099 243.198C116.822 241.793 112.261 237.577 112.423 232.117C112.585 226.657 131.761 192.725 131.761 192.725Z" fill="#D71635" stroke="#263238" stroke-linecap="round" stroke-linejoin="round"/>
<path d="M69.4749 262.55H65.9756V263.625H69.4749V262.55Z" fill="white" stroke="#263238" stroke-linecap="round" stroke-linejoin="round"/>
<path d="M74.3226 262.55H70.8232V263.625H74.3226V262.55Z" fill="white" stroke="#263238" stroke-linecap="round" stroke-linejoin="round"/>
<path d="M79.1712 262.55H75.6719V263.625H79.1712V262.55Z" fill="white" stroke="#263238" stroke-linecap="round" stroke-linejoin="round"/>
<path d="M84.0277 262.55H80.5283V263.625H84.0277V262.55Z" fill="white" stroke="#263238" stroke-linecap="round" stroke-linejoin="round"/>
<path d="M88.8753 262.55H85.376V263.625H88.8753V262.55Z" fill="white" stroke="#263238" stroke-linecap="round" stroke-linejoin="round"/>
<path d="M93.7239 262.55H90.2246V263.625H93.7239V262.55Z" fill="white" stroke="#263238" stroke-linecap="round" stroke-linejoin="round"/>
<path d="M98.5726 262.55H95.0732V263.625H98.5726V262.55Z" fill="white" stroke="#263238" stroke-linecap="round" stroke-linejoin="round"/>
<path d="M103.421 262.55H99.9219V263.625H103.421V262.55Z" fill="white" stroke="#263238" stroke-linecap="round" stroke-linejoin="round"/>
<path d="M108.269 262.55H104.77V263.625H108.269V262.55Z" fill="white" stroke="#263238" stroke-linecap="round" stroke-linejoin="round"/>
<path d="M113.118 262.55H109.619V263.625H113.118V262.55Z" fill="white" stroke="#263238" stroke-linecap="round" stroke-linejoin="round"/>
<path d="M117.974 262.55H114.475V263.625H117.974V262.55Z" fill="white" stroke="#263238" stroke-linecap="round" stroke-linejoin="round"/>
<path d="M122.822 262.55H119.322V263.625H122.822V262.55Z" fill="white" stroke="#263238" stroke-linecap="round" stroke-linejoin="round"/>
<path d="M127.67 262.55H124.171V263.625H127.67V262.55Z" fill="white" stroke="#263238" stroke-linecap="round" stroke-linejoin="round"/>
<path d="M132.519 262.55H129.02V263.625H132.519V262.55Z" fill="white" stroke="#263238" stroke-linecap="round" stroke-linejoin="round"/>
<path d="M137.367 262.55H133.868V263.625H137.367V262.55Z" fill="white" stroke="#263238" stroke-linecap="round" stroke-linejoin="round"/>
<path d="M142.215 262.55H138.716V263.625H142.215V262.55Z" fill="white" stroke="#263238" stroke-linecap="round" stroke-linejoin="round"/>
<path d="M150.668 263.4H63.9648V266.45H150.668V263.4Z" fill="white" stroke="#263238" stroke-linecap="round" stroke-linejoin="round"/>
<path d="M150.662 263.4H117.426V266.45H150.662V263.4Z" fill="white" stroke="#263238" stroke-linecap="round" stroke-linejoin="round"/>
<path d="M91.0187 236.692H22.8522L9.16406 164.204H77.3306L91.0187 236.692Z" fill="#263238" stroke="white" stroke-linecap="round" stroke-linejoin="round"/>
<path d="M88.9465 234.858H22.8177L9.8252 166.038H75.947L88.9465 234.858Z" fill="#263238" stroke="white" stroke-linecap="round" stroke-linejoin="round"/>
<path d="M76.2137 229.377H27.0475L17.3857 178.215H66.552L76.2137 229.377Z" fill="#263238" stroke="white" stroke-linecap="round" stroke-linejoin="round"/>
<path d="M17.386 178.215L9.8252 166.038" stroke="#263238" stroke-linecap="round" stroke-linejoin="round"/>
<path d="M66.5518 178.215L75.9465 166.038" stroke="white" stroke-linecap="round" stroke-linejoin="round"/>
<path d="M76.2129 229.377L88.9454 234.858" stroke="white" stroke-linecap="round" stroke-linejoin="round"/>
<path d="M27.0475 229.377L22.8174 234.858" stroke="#263238" stroke-linecap="round" stroke-linejoin="round"/>
<path d="M47.0374 214.051H35.8438L42.9689 207.699H54.1625L47.0374 214.051Z" fill="#263238" stroke="white" stroke-linecap="round" stroke-linejoin="round"/>
<path d="M84.1746 262.634H43.2227V266.703H84.1746V262.634Z" fill="#263238" stroke="white" stroke-linecap="round" stroke-linejoin="round"/>
<path d="M60.7747 266.703H49.5811L35.8438 251.096H47.0374L60.7747 266.703Z" fill="#263238" stroke="white" stroke-linecap="round" stroke-linejoin="round"/>
<path d="M47.0374 214.312H35.8438V250.935H47.0374V214.312Z" fill="#263238" stroke="white" stroke-linecap="round" stroke-linejoin="round"/>
<path d="M210.924 259.739C212.523 262.642 214.953 265 217.901 266.513L210.924 259.739Z" fill="white"/>
<path d="M210.924 259.739C212.523 262.642 214.953 265 217.901 266.513" stroke="#263238" stroke-linecap="round" stroke-linejoin="round"/>
<path d="M0.578125 266.703H321.146" stroke="#263238" stroke-linecap="round" stroke-linejoin="round"/>
</svg>
