<svg width="318" height="291" viewBox="0 0 318 291" fill="none" xmlns="http://www.w3.org/2000/svg">
<path d="M160.694 195.204C152.904 177.519 154.056 148.553 157.667 146.141C161.639 143.495 167.929 157.074 174.226 153.102C180.523 149.129 184.824 140.514 179.525 126.936C174.226 113.357 167.273 122.3 162.302 125.596C157.332 128.892 153.359 125.931 154.357 114.007C155.087 105.211 158.517 89.0471 160.272 81.1827C161.063 81.5243 161.853 81.8526 162.63 82.2344C147.069 74.946 129.846 72.6282 122.565 74.946C115.283 77.2638 116.603 77.927 120.24 86.5351C127.843 104.495 99.0583 110.651 90.7652 96.8178C85.8013 88.538 93.1031 83.889 91.1135 77.927C89.1239 71.9651 52.3674 78.9185 47.7318 81.5712C47.7318 81.5712 56.668 108.367 55.3484 118C54.0287 127.633 49.3864 131.913 42.433 124.953C35.4796 117.993 26.5366 124.283 26.2017 135.885C25.8667 147.488 27.8563 156.746 35.8078 154.1C43.7594 151.454 50.0496 141.847 52.6956 154.1C55.3417 166.352 50.686 182.235 48.06 193.509C48.06 193.509 68.9269 202.452 78.5264 201.789C88.1258 201.126 94.0945 200.797 91.1135 194.835C88.1325 188.873 83.162 184.901 86.8061 178.276C90.4503 171.651 105.02 172.314 112.637 173.968C120.253 175.623 123.569 181.257 121.252 187.547C118.934 193.837 114.955 200.134 122.243 201.454C129.109 202.707 146.573 199.833 163.776 194.232C162.758 194.561 161.699 194.882 160.694 195.204Z" stroke="#263238" stroke-miterlimit="10"/>
<path d="M166.938 193.175C165.92 193.524 164.895 193.845 163.876 194.2C164.895 193.865 165.92 193.524 166.938 193.175Z" stroke="#263238" stroke-miterlimit="10"/>
<path d="M287.818 121.966C281.528 121.966 281.193 126.937 274.568 125.946C267.943 124.954 267.287 109.714 274.24 82.892C274.24 82.892 266.623 88.519 249.401 88.854C232.178 89.1889 225.224 87.1927 229.532 80.9024C233.839 74.6122 237.148 69.6417 233.504 64.6778C229.86 59.714 212.309 60.3705 206.709 64.6778C201.109 68.9852 205.054 73.949 209.027 79.5761C212.999 85.2031 208.357 88.519 201.738 88.854C195.12 89.1889 178.225 89.5239 162.657 82.2288C161.88 81.8604 161.09 81.5187 160.299 81.1771C158.544 89.0617 155.114 105.226 154.384 114.001C153.386 125.925 157.358 128.906 162.329 125.59C167.299 122.275 174.253 113.338 179.552 126.93C184.85 140.522 180.543 149.117 174.253 153.096C167.963 157.075 161.639 143.497 157.68 146.143C154.069 148.554 152.917 177.52 160.708 195.205C162.791 194.535 164.874 193.865 166.951 193.195C185.165 186.898 203.379 183.917 206.695 188.225C210.011 192.532 208.705 191.869 204.378 198.494C200.05 205.119 200.398 210.746 207.687 214.056C214.975 217.365 232.854 216.735 234.482 209.092C236.11 201.448 226.866 197.168 231.173 189.879C235.48 182.591 273.57 193.175 273.57 193.175C273.57 193.175 264.962 164.029 268.271 154.422C271.58 144.816 274.24 147.161 279.539 150.778C284.837 154.396 291.791 154.094 294.444 143.497C297.096 132.899 294.109 121.966 287.818 121.966Z" stroke="#263238" stroke-miterlimit="10"/>
<path d="M268.126 51.726C276.557 47.7461 280.166 37.685 276.186 29.254C272.206 20.823 262.145 17.2147 253.714 21.1946C245.283 25.1745 241.675 35.2356 245.655 43.6666C249.634 52.0976 259.695 55.7059 268.126 51.726Z" fill="#D71635" stroke="#263238" stroke-miterlimit="10"/>
<path d="M262.341 50.294C269.966 49.5114 275.514 42.6951 274.731 35.0694C273.948 27.4438 267.132 21.8964 259.506 22.6791C251.881 23.4617 246.333 30.278 247.116 37.9037C247.899 45.5293 254.715 51.0767 262.341 50.294Z" fill="white" stroke="#263238" stroke-miterlimit="10"/>
<path d="M265.264 45.6147C270.306 43.2165 272.448 37.1855 270.05 32.144C267.652 27.1025 261.621 24.9597 256.58 27.3579C251.538 29.7561 249.395 35.7871 251.793 40.8286C254.192 45.8701 260.223 48.0129 265.264 45.6147Z" fill="#D71635" stroke="#263238" stroke-miterlimit="10"/>
<path d="M267.3 36.4763C267.3 35.2137 266.926 33.9794 266.224 32.9295C265.523 31.8797 264.526 31.0614 263.359 30.5782C262.192 30.0951 260.909 29.9686 259.671 30.215C258.432 30.4613 257.295 31.0693 256.402 31.9621C255.509 32.8549 254.901 33.9925 254.655 35.2308C254.408 36.4692 254.535 37.7528 255.018 38.9193C255.501 40.0859 256.319 41.0829 257.369 41.7844C258.419 42.4859 259.653 42.8603 260.916 42.8603C261.755 42.8612 262.585 42.6967 263.36 42.3761C264.135 42.0556 264.839 41.5854 265.432 40.9924C266.025 40.3995 266.495 39.6953 266.816 38.9204C267.136 38.1454 267.301 37.3149 267.3 36.4763Z" fill="white" stroke="#263238" stroke-miterlimit="10"/>
<path d="M263.877 36.4754C263.878 35.8895 263.706 35.3164 263.381 34.8286C263.057 34.3408 262.595 33.9603 262.054 33.7351C261.513 33.51 260.917 33.4504 260.342 33.5639C259.768 33.6774 259.239 33.9588 258.825 34.3727C258.41 34.7865 258.127 35.3141 258.012 35.8886C257.898 36.4631 257.956 37.0588 258.18 37.6002C258.404 38.1417 258.783 38.6045 259.27 38.9301C259.757 39.2558 260.33 39.4296 260.916 39.4296C261.7 39.4296 262.452 39.1186 263.007 38.5647C263.562 38.0109 263.875 37.2595 263.877 36.4754Z" fill="#D71635" stroke="#263238" stroke-miterlimit="10"/>
<path d="M262.142 31.8481L260.922 36.477L265.29 37.435L262.142 31.8481Z" fill="#263238" stroke="#263238" stroke-miterlimit="10"/>
<path d="M264.004 34.4265L283.209 23.9629" stroke="#263238" stroke-width="2" stroke-miterlimit="10"/>
<path d="M277.047 27.4055L277.335 22.3881L286.358 17.23V22.9575L277.047 27.4055Z" fill="#263238" stroke="#263238" stroke-miterlimit="10"/>
<path d="M290.23 25.6835L286.278 22.7695L277.007 27.6396L281.475 30.2254L290.23 25.6835Z" fill="#263238" stroke="#263238" stroke-miterlimit="10"/>
<path d="M172.424 37.4995H165.712V53.483H172.424V37.4995Z" fill="#D71635" stroke="#263238" stroke-miterlimit="10"/>
<path d="M182.318 32.6567H175.606V53.4835H182.318V32.6567Z" fill="#D71635" stroke="#263238" stroke-miterlimit="10"/>
<path d="M192.212 37.4995H185.5V53.483H192.212V37.4995Z" fill="#D71635" stroke="#263238" stroke-miterlimit="10"/>
<path d="M202.113 31.605H195.401V53.4834H202.113V31.605Z" fill="#D71635" stroke="#263238" stroke-miterlimit="10"/>
<path d="M212.008 23.6011H205.295V53.4846H212.008V23.6011Z" fill="#D71635" stroke="#263238" stroke-miterlimit="10"/>
<path d="M203.098 10.9381L205.718 12.0568L187.905 29.1523L179.398 24.51L165.92 32.7027V35.1746L179.451 26.9484L188.254 31.7514L207.178 13.5841L208.189 16.2436L211.934 7.55518L203.098 10.9381Z" fill="#263238" stroke="#263238" stroke-linecap="round" stroke-linejoin="round"/>
<path d="M124.95 52.8124C134.027 50.6819 139.657 41.5968 137.527 32.5203C135.396 23.4439 126.311 17.813 117.235 19.9436C108.158 22.0741 102.527 31.1592 104.658 40.2357C106.789 49.3122 115.874 54.943 124.95 52.8124Z" fill="white" stroke="#263238" stroke-miterlimit="10"/>
<path d="M124.429 51.0126C132.509 49.1681 137.563 41.1232 135.718 33.0438C133.874 24.9644 125.829 19.91 117.75 21.7545C109.67 23.599 104.616 31.6439 106.46 39.7233C108.305 47.8027 116.35 52.8571 124.429 51.0126Z" fill="#D71635" stroke="#263238" stroke-miterlimit="10"/>
<path d="M123.155 49.8415C130.544 48.6963 135.606 41.7781 134.46 34.3893C133.315 27.0005 126.397 21.939 119.008 23.0842C111.619 24.2294 106.558 31.1475 107.703 38.5364C108.848 45.9252 115.766 50.9867 123.155 49.8415Z" fill="white" stroke="#263238" stroke-miterlimit="10"/>
<path d="M120.883 48.0569V45.9065C120.215 45.9278 119.551 45.8027 118.936 45.54C118.322 45.2773 117.772 44.8834 117.326 44.3859C116.536 43.4302 116.111 42.0033 116.053 40.1053L119.316 39.5493C119.326 40.2014 119.407 40.8505 119.557 41.4853C119.644 41.926 119.856 42.3327 120.166 42.6576C120.302 42.7859 120.462 42.8858 120.637 42.9514C120.812 43.017 120.998 43.0469 121.185 43.0394C121.374 43.0612 121.567 43.0295 121.74 42.9479C121.912 42.8662 122.059 42.7378 122.163 42.5772C122.346 42.2529 122.439 41.8848 122.431 41.5121C122.461 40.8023 122.272 40.1003 121.888 39.5024C121.463 38.9032 120.961 38.3626 120.394 37.8947L118.431 36.2133C118.004 35.8162 117.603 35.391 117.232 34.9405C116.871 34.4969 116.586 33.9967 116.388 33.4601C116.167 32.8276 116.06 32.1606 116.073 31.4906C116.042 30.8775 116.136 30.2644 116.349 29.6886C116.562 29.1128 116.89 28.5863 117.313 28.1412C118.221 27.3098 119.398 26.8341 120.629 26.8014V24.6846H121.741V26.7478C122.458 26.7588 123.161 26.9525 123.784 27.3105C124.284 27.6282 124.694 28.0687 124.976 28.59C125.258 29.1039 125.461 29.6571 125.579 30.2312C125.698 30.8008 125.774 31.3785 125.807 31.9595L122.504 32.4418C122.497 31.9343 122.45 31.4281 122.364 30.9279C122.316 30.5539 122.173 30.1985 121.948 29.8963C121.833 29.7691 121.689 29.6716 121.528 29.6121C121.367 29.5526 121.194 29.5329 121.024 29.5546C120.83 29.5517 120.639 29.5966 120.467 29.6854C120.296 29.7743 120.148 29.9042 120.039 30.0637C119.818 30.3822 119.701 30.7613 119.704 31.149C119.674 31.7598 119.854 32.3626 120.213 32.8572C120.565 33.3052 120.953 33.7241 121.372 34.1099L123.288 35.7712C123.796 36.2349 124.269 36.7365 124.701 37.2717C125.133 37.8164 125.483 38.4212 125.74 39.067C126.014 39.7852 126.148 40.5492 126.135 41.3178C126.145 42.0905 125.973 42.8548 125.633 43.5485C125.302 44.2019 124.802 44.7547 124.186 45.1496C123.521 45.5744 122.762 45.8276 121.975 45.8864V48.0569H120.883Z" fill="#263238"/>
<path d="M66.3815 23.312H35.0376V52.7803H66.3815V23.312Z" fill="white" stroke="#263238" stroke-miterlimit="10"/>
<path d="M66.3815 23.312H35.0376V30.8884H66.3815V23.312Z" fill="#D71635" stroke="#263238" stroke-linecap="round" stroke-linejoin="round"/>
<path d="M41.3344 35.0957H37.583V38.8471H41.3344V35.0957Z" fill="#D71635" stroke="#263238" stroke-linecap="round" stroke-linejoin="round"/>
<path d="M46.9613 35.0957H43.21V38.8471H46.9613V35.0957Z" fill="#D71635" stroke="#263238" stroke-linecap="round" stroke-linejoin="round"/>
<path d="M52.5817 35.0957H48.8303V38.8471H52.5817V35.0957Z" fill="#D71635" stroke="#263238" stroke-linecap="round" stroke-linejoin="round"/>
<path d="M58.2086 35.0957H54.4573V38.8471H58.2086V35.0957Z" fill="#D71635" stroke="#263238" stroke-linecap="round" stroke-linejoin="round"/>
<path d="M63.8358 35.0957H60.0845V38.8471H63.8358V35.0957Z" fill="#D71635" stroke="#263238" stroke-linecap="round" stroke-linejoin="round"/>
<path d="M41.3344 40.9902H37.583V44.7416H41.3344V40.9902Z" fill="#D71635" stroke="#263238" stroke-linecap="round" stroke-linejoin="round"/>
<path d="M46.9613 40.9902H43.21V44.7416H46.9613V40.9902Z" fill="#D71635" stroke="#263238" stroke-linecap="round" stroke-linejoin="round"/>
<path d="M52.5817 40.9902H48.8303V44.7416H52.5817V40.9902Z" fill="#D71635" stroke="#263238" stroke-linecap="round" stroke-linejoin="round"/>
<path d="M58.2086 40.9902H54.4573V44.7416H58.2086V40.9902Z" fill="#D71635" stroke="#263238" stroke-linecap="round" stroke-linejoin="round"/>
<path d="M63.8358 40.9902H60.0845V44.7416H63.8358V40.9902Z" fill="#D71635" stroke="#263238" stroke-linecap="round" stroke-linejoin="round"/>
<path d="M41.3344 46.8857H37.583V50.6371H41.3344V46.8857Z" fill="#D71635" stroke="#263238" stroke-linecap="round" stroke-linejoin="round"/>
<path d="M46.9613 46.8857H43.21V50.6371H46.9613V46.8857Z" fill="#D71635" stroke="#263238" stroke-linecap="round" stroke-linejoin="round"/>
<path d="M52.5817 46.8857H48.8303V50.6371H52.5817V46.8857Z" fill="#D71635" stroke="#263238" stroke-linecap="round" stroke-linejoin="round"/>
<path d="M58.2086 46.8857H54.4573V50.6371H58.2086V46.8857Z" fill="#D71635" stroke="#263238" stroke-linecap="round" stroke-linejoin="round"/>
<path d="M63.8358 46.8857H60.0845V50.6371H63.8358V46.8857Z" fill="#D71635" stroke="#263238" stroke-linecap="round" stroke-linejoin="round"/>
<path d="M42.0042 18.4883H39.3247V25.723H42.0042V18.4883Z" fill="#263238"/>
<path d="M48.7032 18.4883H46.0237V25.723H48.7032V18.4883Z" fill="#263238"/>
<path d="M55.3954 18.4883H52.7158V25.723H55.3954V18.4883Z" fill="#263238"/>
<path d="M62.0941 18.4883H59.4146V25.723H62.0941V18.4883Z" fill="#263238"/>
<path d="M7.77981 243.435C9.23345 244.071 12.7905 243.991 12.7905 243.991C12.7905 243.991 12.0269 241.667 11.9599 241.526C11.1761 239.891 8.71095 237.198 6.70129 237.466C6.36898 237.521 6.05188 237.645 5.77064 237.83C5.48939 238.015 5.2503 238.258 5.06893 238.541C4.88757 238.825 4.76799 239.144 4.71799 239.477C4.66799 239.81 4.68868 240.15 4.77872 240.474C5.11367 241.861 6.54052 242.899 7.77981 243.435Z" fill="#D71635"/>
<path d="M9.00573 253.745C10.513 253.96 13.6949 253.042 13.9428 252.968C14.4633 254.785 15.1056 256.564 15.8653 258.294C16.3008 259.305 16.7764 260.304 17.2587 261.315C16.9707 260.886 16.7094 260.511 16.6625 260.464C15.4835 259.091 12.3886 257.115 10.5264 257.939C10.2199 258.078 9.94624 258.28 9.7233 258.532C9.50036 258.785 9.33316 259.081 9.23262 259.402C9.13208 259.723 9.10048 260.062 9.13988 260.396C9.17928 260.731 9.28879 261.053 9.46125 261.342C10.1311 262.595 11.7991 263.218 13.1389 263.412C14.4787 263.606 17.2185 262.883 17.9353 262.675C18.1229 263.057 18.3104 263.445 18.5047 263.827C19.4224 265.656 20.3469 267.478 21.1842 269.293C21.4857 269.93 21.7603 270.573 22.035 271.216C21.7737 270.834 21.5594 270.546 21.5192 270.479C20.3335 269.139 17.2386 267.163 15.3763 267.954C15.0715 268.096 14.7998 268.3 14.5788 268.553C14.3579 268.807 14.1925 269.104 14.0934 269.425C13.9943 269.746 13.9636 270.085 14.0035 270.419C14.0433 270.753 14.1527 271.074 14.3246 271.363C14.9945 272.616 16.6692 273.232 18.0023 273.427C19.3353 273.621 21.8206 272.964 22.6915 272.757C22.9527 273.427 23.214 274.096 23.4417 274.766C23.5824 275.215 23.7566 275.644 23.8705 276.106C23.9843 276.568 24.125 277.004 24.2456 277.446C24.4533 278.31 24.6743 279.201 24.8552 280.052C24.9892 280.641 25.1031 281.211 25.2169 281.773C24.9222 281.137 24.326 279.898 24.2657 279.797C23.3011 278.263 20.5411 275.872 18.5784 276.367C18.2599 276.46 17.9642 276.618 17.7097 276.831C17.4553 277.044 17.2476 277.307 17.0997 277.604C16.9519 277.901 16.867 278.225 16.8506 278.557C16.8342 278.888 16.8864 279.219 17.0041 279.529C17.4932 280.869 19.0138 281.74 20.3536 282.135C21.7737 282.564 24.9222 282.169 25.3174 282.135C25.505 283.08 25.6792 283.997 25.8332 284.862C26.1682 286.784 26.4227 288.499 26.617 289.953H27.9568C27.7223 288.445 27.4209 286.657 27.0189 284.647C26.8314 283.689 26.6103 282.671 26.349 281.626C27.2986 281.246 28.2247 280.81 29.1224 280.32C30.1607 281.445 32.8134 282.758 33.1417 282.926C32.7799 283.817 32.4182 284.681 32.0632 285.485C31.3263 287.179 30.6296 288.68 30.0133 289.953H31.4536C31.9828 288.774 32.5656 287.434 33.1685 285.933C33.5436 285.029 33.9187 284.058 34.3006 283.06C34.6824 283.14 37.7974 283.77 39.251 283.441C40.5908 283.147 42.165 282.403 42.7612 281.097C42.9092 280.794 42.9919 280.463 43.0037 280.126C43.0156 279.789 42.9565 279.453 42.8301 279.14C42.7038 278.828 42.5131 278.545 42.2704 278.311C42.0277 278.077 41.7384 277.896 41.4214 277.781C39.4989 277.111 36.5715 279.322 35.493 280.775C35.4327 280.862 34.8231 281.867 34.4881 282.51C34.6422 282.102 34.7963 281.706 34.9437 281.284C35.2518 280.447 35.5332 279.603 35.8413 278.699L36.2432 277.359C36.3839 276.91 36.4777 276.428 36.605 275.952C36.8662 274.86 37.0739 273.735 37.2749 272.603C38.0117 272.871 40.6243 273.782 41.964 273.681C43.3038 273.581 45.0053 273.092 45.7824 271.893C45.9767 271.617 46.1108 271.304 46.1757 270.974C46.2406 270.643 46.2349 270.302 46.159 269.974C46.0831 269.646 45.9387 269.337 45.7353 269.069C45.5318 268.8 45.274 268.578 44.9785 268.416C43.1765 267.491 39.9477 269.2 38.6682 270.479C38.5878 270.559 37.7706 271.578 37.3284 272.147C37.4356 271.477 37.5495 270.807 37.6366 270.084C37.8844 268.074 38.072 266.031 38.3065 263.995C38.3668 263.372 38.4338 262.749 38.5007 262.126C38.762 262.226 41.8502 263.372 43.3641 263.271C44.7039 263.171 46.3987 262.682 47.1824 261.483C47.3758 261.207 47.5089 260.894 47.5732 260.563C47.6376 260.233 47.6316 259.893 47.5558 259.565C47.48 259.237 47.336 258.929 47.1331 258.66C46.9303 258.391 46.6732 258.169 46.3786 258.006C44.5766 257.075 41.3477 258.783 40.0616 260.062C39.9678 260.156 38.7955 261.63 38.5141 262.018C38.6548 260.645 38.8156 259.285 39.0233 257.946C39.2988 256.136 39.6881 254.347 40.1889 252.586C40.3094 252.633 43.5383 253.846 45.079 253.739C46.4188 253.645 48.1203 253.149 48.8973 251.95C49.0907 251.675 49.2238 251.361 49.2881 251.031C49.3524 250.701 49.3465 250.36 49.2707 250.032C49.1949 249.705 49.0509 249.396 48.848 249.128C48.6452 248.859 48.3881 248.636 48.0935 248.473C46.2915 247.542 43.0627 249.257 41.7832 250.53C41.6827 250.63 40.4434 252.211 40.2089 252.54C40.2089 252.439 40.2625 252.332 40.2893 252.231C40.8442 250.483 41.5549 248.788 42.4129 247.167C42.8684 246.263 43.3641 245.425 43.8598 244.628C44.4359 244.916 47.0753 246.196 48.4887 246.256C49.9022 246.316 51.5702 246.001 52.508 244.916C52.7311 244.664 52.8984 244.367 52.9988 244.045C53.0992 243.724 53.1305 243.385 53.0906 243.05C53.0508 242.715 52.9407 242.393 52.7676 242.104C52.5944 241.815 52.3622 241.566 52.086 241.373C50.3979 240.247 47.0016 241.6 45.5881 242.712C45.5077 242.773 44.7977 243.483 44.2885 244.005C44.5163 243.65 44.7441 243.275 44.9584 242.933C45.8025 241.661 46.6599 240.542 47.4236 239.584C47.8657 239.028 48.2744 238.539 48.6629 238.077C49.373 238.077 52.2401 237.976 53.4928 237.407C54.7454 236.837 56.1187 235.766 56.4134 234.366C56.4946 234.038 56.5058 233.698 56.4464 233.366C56.387 233.034 56.2583 232.718 56.0686 232.439C55.879 232.161 55.6327 231.925 55.3458 231.748C55.059 231.571 54.738 231.456 54.4038 231.411C52.3941 231.197 49.996 233.957 49.2591 235.612C49.1988 235.752 48.4619 238.104 48.4954 238.104H48.4887C48.1069 238.539 47.6983 239.008 47.2695 239.53C46.4791 240.495 45.6015 241.6 44.724 242.88C43.7465 244.229 42.8517 245.636 42.0444 247.093C41.142 248.715 40.3865 250.415 39.7869 252.171V252.238C39.7869 251.642 39.7869 249.981 39.7869 249.853C39.5525 248.058 38.0452 244.729 36.0557 244.36C35.7228 244.308 35.3828 244.327 35.0576 244.415C34.7324 244.503 34.4295 244.658 34.1684 244.871C33.9074 245.084 33.6942 245.35 33.5427 245.651C33.3912 245.952 33.3047 246.281 33.289 246.618C33.1752 248.045 34.2068 249.472 35.2116 250.369C36.3504 251.387 39.5056 252.379 39.7601 252.446C39.1911 254.249 38.7435 256.089 38.4204 257.952C38.2261 259.037 38.0653 260.136 37.9179 261.235C37.9179 260.726 37.9179 260.263 37.9179 260.203C37.6835 258.408 36.1762 255.078 34.1867 254.71C33.8544 254.658 33.5149 254.676 33.1901 254.764C32.8654 254.852 32.5628 255.007 32.3019 255.219C32.0409 255.431 31.8276 255.696 31.6757 255.996C31.5238 256.296 31.4367 256.625 31.4201 256.961C31.3062 258.388 32.3378 259.815 33.3426 260.719C34.3475 261.623 37.0404 262.521 37.7505 262.729L37.5897 264.001C37.3485 266.011 37.1141 268.061 36.826 270.03C36.7255 270.7 36.5983 271.41 36.471 272.1C36.471 271.645 36.471 271.256 36.471 271.203C36.2365 269.407 34.736 266.071 32.7397 265.703C32.4071 265.652 32.0674 265.671 31.7426 265.76C31.4179 265.848 31.1154 266.004 30.8546 266.217C30.5938 266.429 30.3806 266.695 30.2288 266.995C30.077 267.295 29.9898 267.624 29.9731 267.96C29.8592 269.387 30.8909 270.814 31.9024 271.712C32.9139 272.609 35.3322 273.433 36.1762 273.721C36.0289 274.391 35.8815 275.115 35.7073 275.791C35.58 276.24 35.4863 276.689 35.3322 277.131C35.1781 277.573 35.0441 278.029 34.9035 278.471C34.5953 279.308 34.2872 280.172 33.9723 280.983L33.3024 282.617C33.4096 281.948 33.5972 280.561 33.5972 280.44C33.5727 278.85 33.1439 277.291 32.3512 275.912C32.3645 275.736 32.3645 275.559 32.3512 275.383C32.3051 275.051 32.1903 274.733 32.0142 274.448C31.838 274.163 31.6044 273.919 31.3282 273.73C31.052 273.54 30.7394 273.411 30.4103 273.35C30.0812 273.288 29.7429 273.296 29.4171 273.373C27.461 273.896 26.2151 277.332 26.1213 279.141C26.1213 279.248 26.1883 280.413 26.2419 281.15C26.1481 280.722 26.0543 280.313 25.9471 279.871C25.7394 279.007 25.5117 278.149 25.2772 277.225C25.1432 276.783 25.0026 276.334 24.8686 275.885C24.7346 275.436 24.5537 274.974 24.393 274.512C24.0111 273.453 23.5623 272.402 23.0934 271.35C23.8504 271.169 26.5366 270.486 27.6084 269.655C28.6802 268.824 29.819 267.485 29.8123 266.058C29.8209 265.721 29.7586 265.386 29.6295 265.075C29.5004 264.764 29.3075 264.484 29.063 264.252C28.8186 264.02 28.5283 263.842 28.2108 263.73C27.8933 263.617 27.5557 263.573 27.2199 263.599C25.2102 263.82 23.4551 267.029 23.0934 268.804C23.0934 268.912 22.9527 270.211 22.8991 270.928C22.6111 270.298 22.323 269.669 22.0149 269.039C21.1105 267.23 20.1459 265.421 19.188 263.613L18.3171 261.951C18.5918 261.884 21.7938 261.141 23.0063 260.216C24.0848 259.392 25.2169 258.046 25.2102 256.619C25.2188 256.282 25.1565 255.948 25.0274 255.637C24.8983 255.325 24.7053 255.045 24.4609 254.813C24.2165 254.581 23.9262 254.404 23.6087 254.291C23.2912 254.179 22.9536 254.134 22.6178 254.161C20.6081 254.382 18.853 257.591 18.4913 259.366C18.4913 259.5 18.2903 261.375 18.2769 261.851C17.607 260.625 17.0175 259.406 16.4548 258.173C15.6725 256.516 15.0011 254.808 14.4452 253.062C14.5725 253.062 17.9219 252.272 19.1344 251.327C20.2062 250.503 21.345 249.157 21.3316 247.73C21.3411 247.393 21.2797 247.059 21.1514 246.748C21.0231 246.437 20.8307 246.156 20.5868 245.924C20.3429 245.692 20.053 245.514 19.7358 245.402C19.4186 245.289 19.0813 245.245 18.7458 245.271C16.7362 245.492 14.9811 248.701 14.6127 250.47C14.6127 250.61 14.405 252.627 14.3983 252.995L14.2911 252.687C13.7931 250.923 13.4502 249.118 13.2662 247.294C13.1523 246.29 13.1054 245.318 13.0719 244.38C13.7418 244.3 16.629 243.911 17.8348 243.181C19.0406 242.451 20.2665 241.265 20.4139 239.832C20.4601 239.498 20.4356 239.159 20.3419 238.835C20.2482 238.512 20.0874 238.212 19.87 237.954C19.6526 237.697 19.3835 237.489 19.0801 237.342C18.7768 237.196 18.4461 237.115 18.1095 237.105C16.0998 237.105 13.9964 240.1 13.4203 241.795C13.4203 241.888 13.1858 242.873 13.0518 243.597C13.0518 243.168 13.0518 242.732 13.0518 242.324C13.0518 240.79 13.1523 239.383 13.2461 238.144C13.3064 237.474 13.3734 236.804 13.4471 236.208C14.0299 235.806 16.3745 234.151 17.0979 232.966C17.8214 231.78 18.3774 230.145 17.8482 228.819C17.7344 228.503 17.5555 228.215 17.323 227.973C17.0906 227.731 16.8098 227.541 16.499 227.414C16.1881 227.288 15.8541 227.228 15.5188 227.24C15.1834 227.251 14.8541 227.332 14.5524 227.479C12.7504 228.41 12.2748 232.034 12.5427 233.816C12.5427 233.97 13.2528 236.342 13.2796 236.322H13.3198C13.2394 236.891 13.159 237.507 13.092 238.177C12.9647 239.423 12.8375 240.823 12.804 242.364C12.7472 244.022 12.7853 245.681 12.9179 247.335C13.0648 249.185 13.3741 251.018 13.8423 252.814V252.881C13.5208 252.379 12.5829 251.012 12.5025 250.912C11.3168 249.572 8.22196 247.596 6.35969 248.386C6.07398 248.531 5.82005 248.731 5.61285 248.974C5.40565 249.218 5.24937 249.501 5.15323 249.807C5.05709 250.112 5.02303 250.433 5.05306 250.752C5.08308 251.071 5.17659 251.38 5.32806 251.662C6.01804 252.928 7.66596 253.544 9.00573 253.745Z" fill="#D71635"/>
<path d="M43.7591 244.218C43.7591 244.218 44.429 241.853 44.429 241.699C44.6836 239.911 44.1075 236.3 42.2854 235.416C41.9784 235.277 41.6455 235.204 41.3085 235.203C40.9716 235.202 40.6382 235.272 40.3302 235.408C40.0221 235.545 39.7465 235.745 39.5212 235.996C39.2959 236.246 39.1262 236.542 39.0231 236.863C38.534 238.202 39.1503 239.857 39.8872 240.989C40.7447 242.322 43.7524 244.218 43.7591 244.218Z" fill="#D71635"/>
<path d="M255.041 243.435C256.494 244.071 260.052 243.991 260.052 243.991C260.052 243.991 259.288 241.667 259.221 241.526C258.437 239.891 255.972 237.198 253.962 237.466C253.63 237.521 253.313 237.645 253.032 237.83C252.75 238.015 252.511 238.258 252.33 238.541C252.149 238.825 252.029 239.144 251.979 239.477C251.929 239.81 251.95 240.15 252.04 240.474C252.375 241.861 253.802 242.899 255.041 243.435Z" fill="#D71635"/>
<path d="M256.267 253.745C257.774 253.96 260.956 253.042 261.204 252.968C261.728 254.784 262.37 256.563 263.127 258.294C263.562 259.305 264.038 260.304 264.52 261.315C264.232 260.886 263.971 260.511 263.924 260.464C262.745 259.091 259.65 257.115 257.788 257.939C257.481 258.078 257.208 258.28 256.985 258.532C256.762 258.785 256.595 259.081 256.494 259.402C256.394 259.723 256.362 260.062 256.401 260.396C256.441 260.731 256.55 261.053 256.723 261.342C257.393 262.595 259.061 263.218 260.4 263.412C261.74 263.606 264.48 262.883 265.197 262.675C265.384 263.057 265.572 263.445 265.766 263.827C266.684 265.656 267.608 267.478 268.446 269.293C268.747 269.93 269.022 270.573 269.296 271.216C269.035 270.834 268.821 270.546 268.781 270.479C267.595 269.139 264.507 267.163 262.638 267.954C262.332 268.094 262.059 268.298 261.836 268.55C261.614 268.803 261.447 269.1 261.347 269.422C261.246 269.743 261.215 270.082 261.254 270.416C261.292 270.751 261.401 271.074 261.573 271.363C262.243 272.616 263.917 273.232 265.25 273.427C266.583 273.621 269.069 272.964 269.939 272.757C270.201 273.427 270.469 274.096 270.69 274.766C270.83 275.215 271.005 275.644 271.118 276.106C271.232 276.568 271.373 277.004 271.494 277.446C271.701 278.31 271.922 279.201 272.103 280.052C272.237 280.641 272.351 281.211 272.465 281.773C272.17 281.137 271.574 279.898 271.514 279.797C270.549 278.263 267.789 275.872 265.826 276.367C265.503 276.46 265.202 276.62 264.945 276.836C264.687 277.053 264.477 277.321 264.329 277.623C264.182 277.926 264.099 278.256 264.087 278.592C264.075 278.929 264.133 279.264 264.259 279.576C264.748 280.916 266.269 281.787 267.608 282.182C269.028 282.611 272.177 282.215 272.572 282.182C272.76 283.127 272.934 284.044 273.088 284.908C273.423 286.831 273.677 288.546 273.872 290H275.211C274.977 288.492 274.676 286.704 274.274 284.694C274.086 283.736 273.865 282.718 273.604 281.673C274.553 281.293 275.479 280.857 276.377 280.367C277.415 281.492 280.068 282.805 280.396 282.972C280.035 283.863 279.673 284.728 279.318 285.531C278.581 287.226 277.884 288.727 277.268 290H278.708C279.237 288.821 279.82 287.481 280.423 285.98C280.798 285.076 281.173 284.105 281.555 283.106C281.937 283.187 285.052 283.816 286.506 283.488C287.845 283.194 289.42 282.45 290.016 281.144C290.164 280.841 290.247 280.51 290.258 280.173C290.27 279.836 290.211 279.5 290.085 279.187C289.958 278.874 289.768 278.592 289.525 278.358C289.282 278.123 288.993 277.943 288.676 277.828C286.754 277.158 283.826 279.368 282.748 280.822C282.687 280.909 282.078 281.914 281.743 282.557C281.897 282.148 282.051 281.753 282.205 281.331C282.507 280.494 282.788 279.65 283.096 278.745L283.498 277.406C283.639 276.957 283.732 276.475 283.86 275.999C284.121 274.907 284.329 273.782 284.53 272.649C285.266 272.917 287.879 273.829 289.219 273.728C290.559 273.628 292.26 273.139 293.037 271.939C293.231 271.664 293.365 271.351 293.43 271.02C293.495 270.69 293.49 270.349 293.414 270.021C293.338 269.693 293.193 269.384 292.99 269.116C292.787 268.847 292.529 268.625 292.233 268.463C290.431 267.538 287.202 269.246 285.923 270.526C285.843 270.606 285.025 271.625 284.583 272.194C284.69 271.524 284.804 270.854 284.891 270.131C285.139 268.121 285.327 266.078 285.528 264.041C285.588 263.418 285.655 262.795 285.722 262.173C285.983 262.273 289.071 263.418 290.585 263.318C291.925 263.218 293.62 262.729 294.404 261.529C294.597 261.254 294.73 260.941 294.794 260.61C294.859 260.28 294.853 259.94 294.777 259.612C294.701 259.284 294.557 258.976 294.354 258.707C294.152 258.438 293.894 258.215 293.6 258.053C291.798 257.122 288.569 258.83 287.283 260.109C287.189 260.203 286.017 261.677 285.735 262.065C285.876 260.692 286.037 259.332 286.244 257.992C286.52 256.183 286.909 254.393 287.41 252.633C287.531 252.68 290.759 253.893 292.3 253.786C293.64 253.692 295.342 253.196 296.119 251.997C296.312 251.721 296.445 251.408 296.509 251.078C296.574 250.747 296.568 250.407 296.492 250.079C296.416 249.751 296.272 249.443 296.069 249.174C295.866 248.906 295.609 248.683 295.315 248.52C293.513 247.589 290.284 249.304 289.004 250.577C288.904 250.677 287.665 252.258 287.43 252.586C287.43 252.486 287.484 252.379 287.511 252.278C288.065 250.53 288.776 248.835 289.634 247.214C290.09 246.31 290.585 245.472 291.081 244.675C291.657 244.963 294.296 246.243 295.71 246.303C297.123 246.363 298.791 246.048 299.729 244.963C299.952 244.711 300.12 244.414 300.22 244.092C300.32 243.771 300.352 243.431 300.312 243.097C300.272 242.762 300.162 242.44 299.989 242.151C299.816 241.862 299.583 241.612 299.307 241.419C297.619 240.294 294.223 241.647 292.809 242.759C292.736 242.82 292.019 243.53 291.51 244.052C291.738 243.697 291.965 243.322 292.18 242.98C293.03 241.708 293.881 240.589 294.645 239.631C295.087 239.075 295.496 238.586 295.884 238.124C296.594 238.124 299.461 238.023 300.714 237.454C301.967 236.884 303.34 235.813 303.635 234.412C303.716 234.085 303.727 233.745 303.668 233.413C303.608 233.081 303.479 232.765 303.29 232.486C303.1 232.208 302.854 231.972 302.567 231.795C302.28 231.618 301.959 231.503 301.625 231.458C299.615 231.244 297.21 234.004 296.474 235.658C296.413 235.799 295.676 238.15 295.71 238.15H295.757C295.375 238.586 294.966 239.055 294.538 239.577C293.747 240.542 292.87 241.647 291.992 242.927C291.026 244.277 290.142 245.684 289.346 247.14C288.444 248.762 287.688 250.461 287.089 252.218C287.091 252.24 287.091 252.263 287.089 252.285C287.089 251.689 287.089 250.027 287.089 249.9C286.854 248.105 285.347 244.776 283.357 244.407C283.024 244.355 282.684 244.374 282.359 244.462C282.034 244.55 281.731 244.705 281.47 244.918C281.209 245.131 280.996 245.397 280.844 245.698C280.693 245.999 280.606 246.328 280.591 246.665C280.477 248.092 281.508 249.518 282.513 250.416C283.652 251.434 286.807 252.426 287.062 252.493C286.493 254.296 286.045 256.136 285.722 257.999C285.528 259.084 285.367 260.183 285.22 261.282C285.22 260.772 285.22 260.31 285.22 260.25C284.985 258.455 283.478 255.125 281.488 254.757C281.156 254.705 280.816 254.723 280.492 254.811C280.167 254.899 279.864 255.054 279.603 255.266C279.343 255.478 279.129 255.743 278.977 256.043C278.825 256.343 278.738 256.672 278.722 257.008C278.608 258.435 279.639 259.861 280.644 260.766C281.649 261.67 284.342 262.568 285.052 262.775C285.005 263.197 284.945 263.619 284.891 264.048C284.65 266.058 284.416 268.108 284.128 270.077C284.027 270.747 283.9 271.457 283.773 272.147C283.773 271.692 283.773 271.303 283.773 271.249C283.538 269.454 282.038 266.118 280.041 265.75C279.709 265.699 279.369 265.718 279.044 265.806C278.72 265.895 278.417 266.051 278.156 266.263C277.895 266.476 277.682 266.741 277.53 267.042C277.379 267.342 277.291 267.671 277.275 268.007C277.161 269.434 278.192 270.861 279.204 271.759C280.216 272.656 282.641 273.48 283.478 273.768C283.33 274.438 283.183 275.162 283.009 275.838C282.882 276.287 282.788 276.736 282.634 277.178C282.48 277.62 282.346 278.076 282.205 278.518C281.897 279.355 281.589 280.219 281.274 281.03L280.604 282.664C280.711 281.994 280.899 280.608 280.899 280.487C280.878 278.896 280.449 277.337 279.653 275.959C279.655 275.782 279.644 275.605 279.619 275.43C279.573 275.098 279.458 274.78 279.282 274.495C279.106 274.21 278.872 273.966 278.596 273.776C278.32 273.587 278.007 273.458 277.678 273.396C277.349 273.335 277.011 273.343 276.685 273.42C274.729 273.942 273.483 277.379 273.389 279.188C273.389 279.295 273.456 280.46 273.51 281.197C273.416 280.769 273.322 280.36 273.215 279.918C273.008 279.054 272.78 278.196 272.545 277.272C272.411 276.83 272.271 276.381 272.137 275.932C272.003 275.483 271.822 275.021 271.661 274.559C271.279 273.5 270.83 272.449 270.362 271.397C271.118 271.216 273.805 270.533 274.877 269.702C275.948 268.871 277.087 267.532 277.08 266.105C277.089 265.768 277.027 265.433 276.898 265.122C276.769 264.811 276.576 264.531 276.331 264.299C276.087 264.067 275.796 263.889 275.479 263.777C275.161 263.664 274.824 263.62 274.488 263.646C272.478 263.867 270.723 267.076 270.362 268.851C270.362 268.958 270.221 270.258 270.167 270.975C269.879 270.345 269.591 269.715 269.283 269.086C268.379 267.277 267.414 265.468 266.456 263.66L265.585 261.998C265.86 261.931 269.062 261.188 270.274 260.263C271.353 259.439 272.485 258.093 272.478 256.666C272.487 256.329 272.425 255.995 272.296 255.683C272.166 255.372 271.973 255.092 271.729 254.86C271.485 254.628 271.194 254.45 270.877 254.338C270.559 254.226 270.222 254.181 269.886 254.208C267.876 254.429 266.121 257.637 265.759 259.413C265.759 259.547 265.558 261.422 265.545 261.898C264.909 260.672 264.286 259.453 263.723 258.22C262.952 256.562 262.292 254.855 261.747 253.109C261.874 253.109 265.224 252.318 266.436 251.374C267.508 250.55 268.647 249.204 268.633 247.777C268.643 247.44 268.581 247.106 268.453 246.795C268.325 246.483 268.132 246.203 267.888 245.971C267.645 245.739 267.355 245.561 267.037 245.449C266.72 245.336 266.383 245.292 266.047 245.318C264.038 245.539 262.283 248.748 261.914 250.517C261.914 250.657 261.707 252.674 261.7 253.042L261.593 252.734C261.095 250.97 260.752 249.165 260.568 247.341C260.461 246.336 260.407 245.365 260.374 244.427C261.043 244.347 263.931 243.958 265.136 243.228C266.342 242.498 267.568 241.312 267.715 239.879C267.762 239.545 267.737 239.206 267.643 238.882C267.55 238.559 267.389 238.259 267.172 238.001C266.954 237.744 266.685 237.536 266.382 237.389C266.078 237.243 265.748 237.162 265.411 237.152C263.401 237.152 261.298 240.147 260.722 241.841C260.722 241.935 260.487 242.92 260.353 243.643C260.353 243.215 260.353 242.779 260.353 242.371C260.353 240.837 260.454 239.43 260.548 238.191C260.608 237.521 260.675 236.851 260.749 236.255C261.331 235.853 263.676 234.198 264.4 233.012C265.123 231.827 265.679 230.192 265.15 228.866C265.036 228.55 264.857 228.262 264.625 228.02C264.392 227.778 264.111 227.588 263.801 227.461C263.49 227.335 263.156 227.275 262.82 227.286C262.485 227.298 262.156 227.379 261.854 227.526C260.052 228.457 259.576 232.081 259.878 233.863C259.878 234.017 260.548 236.389 260.615 236.369H260.648C260.568 236.938 260.487 237.554 260.42 238.224C260.293 239.47 260.166 240.87 260.132 242.411C260.076 244.069 260.114 245.728 260.246 247.381C260.393 249.232 260.702 251.065 261.171 252.861V252.928C260.849 252.426 259.911 251.059 259.831 250.959C258.645 249.619 255.55 247.643 253.688 248.433C253.381 248.573 253.108 248.776 252.885 249.029C252.662 249.281 252.495 249.578 252.394 249.9C252.294 250.222 252.262 250.561 252.301 250.896C252.341 251.231 252.45 251.553 252.623 251.843C253.279 252.928 254.927 253.544 256.267 253.745Z" fill="#D71635"/>
<path d="M291.02 244.218C291.02 244.218 291.69 241.853 291.69 241.699C291.944 239.911 291.368 236.3 289.546 235.416C289.239 235.277 288.906 235.204 288.569 235.203C288.232 235.202 287.899 235.272 287.591 235.408C287.283 235.545 287.007 235.745 286.782 235.996C286.557 236.246 286.387 236.542 286.284 236.863C285.795 238.202 286.411 239.857 287.148 240.989C288.005 242.322 290.986 244.218 291.02 244.218Z" fill="#D71635"/>
<path d="M226.899 103.999C226.899 103.999 227.107 96.4355 231.468 94.2919C235.828 92.1483 236.076 99.229 236.076 99.229C236.076 99.229 246.051 92.8918 248.215 97.6949C250.378 102.498 247.357 104.822 247.357 104.822C247.357 104.822 256.213 104.514 256.829 109.371C257.446 114.228 252.87 116.606 252.87 116.606C252.87 116.606 258.343 121.074 256.421 123.137C254.498 125.2 250.291 125.348 250.291 125.348C250.291 125.348 252.676 130.137 248.516 131.839C244.356 133.54 239.6 130.372 239.6 130.372C239.6 130.372 240.337 132.569 237.215 132.013C234.093 131.457 230.938 130.003 229.002 125.421C227.066 120.839 224.568 107.864 226.899 103.999Z" fill="#263238" stroke="#263238" stroke-linecap="round" stroke-linejoin="round"/>
<path d="M180.851 250.068C180.851 250.068 178.366 259.553 178.406 260.605C178.446 261.657 177.582 264.042 178.312 264.718C179.679 265.833 181.128 266.843 182.646 267.739C183.265 267.731 183.869 267.548 184.388 267.21C184.556 267.06 184.691 266.876 184.784 266.671C184.877 266.466 184.927 266.243 184.931 266.018C184.931 265.663 183.933 264.176 183.799 263.827C183.665 263.479 185.627 258.944 186.371 256.686C186.928 254.671 187.326 252.615 187.563 250.537L180.851 250.068Z" fill="#BDBDBD" stroke="#263238" stroke-miterlimit="10"/>
<path d="M183.551 256.673C183.551 256.673 182.137 260.022 182.044 260.598C181.95 261.174 180.034 262.782 180.288 264.068C180.543 265.355 183.37 265.013 184.763 261.208" fill="#BDBDBD"/>
<path d="M183.551 256.673C183.551 256.673 182.137 260.022 182.044 260.598C181.95 261.174 180.034 262.782 180.288 264.068C180.543 265.355 183.37 265.013 184.763 261.208" stroke="#263238" stroke-miterlimit="10"/>
<path d="M189.881 198.541C189.881 198.541 188.695 217.887 188.247 219.595C187.798 221.303 182.412 236.905 181.226 241.701C180.499 244.671 179.982 247.689 179.679 250.731L186.907 252.252L190.966 234.42C190.966 234.42 196.272 218.168 195.193 210.552C194.64 206.113 192.793 201.936 189.881 198.541Z" fill="#D71635" stroke="#263238" stroke-miterlimit="10"/>
<path d="M227.535 289.933C227.623 285.727 227.797 280.053 228.205 276.804C228.875 271.19 231.273 267.72 233.739 260.726C236.204 253.733 236.418 244.542 236.418 244.542L192.273 246.083C192.273 246.083 187.155 265.061 184.053 279.021C183.211 282.602 182.72 286.257 182.586 289.933" fill="#D71635"/>
<path d="M227.535 289.933C227.623 285.727 227.797 280.053 228.205 276.804C228.875 271.19 231.273 267.72 233.739 260.726C236.204 253.733 236.418 244.542 236.418 244.542L192.273 246.083C192.273 246.083 187.155 265.061 184.053 279.021C183.211 282.602 182.72 286.257 182.586 289.933" stroke="#263238" stroke-miterlimit="10"/>
<path d="M198.054 253.197L234.784 254.229L235.561 251.389L198.054 253.197Z" fill="#263238" stroke="#263238" stroke-linecap="round" stroke-linejoin="round"/>
<path d="M196.198 289.262C196.198 289.262 195.475 266.292 195.455 253.825L196.198 289.262Z" fill="white"/>
<path d="M196.198 289.262C196.198 289.262 195.475 266.292 195.455 253.825" stroke="#263238" stroke-miterlimit="10"/>
<path d="M224.354 149.947L229.713 153.551C229.713 153.551 236.056 159.218 237.617 163.907C239.178 168.597 238.046 196.444 236.472 205.44C234.898 214.437 238.83 225.644 240.23 231.968C241.63 238.291 242.24 250.055 242.24 250.055C242.24 250.055 243.231 251.435 226.028 252.031C208.826 252.627 196.828 253.525 195.421 253.806C194.571 253.98 193.709 254.09 192.842 254.134L192.172 248.025L190.504 253.056L186.934 252.238C186.934 252.238 189.151 241.306 189.707 237.045C190.263 232.785 193.773 218.289 193.82 212.836C193.867 207.383 189.312 198.607 188.421 193.208C187.53 187.809 189.325 178.551 193.78 171.558C198.235 164.564 201.222 161.858 209.931 154.717C218.639 147.576 224.354 149.947 224.354 149.947Z" fill="#D71635" stroke="#263238" stroke-miterlimit="10"/>
<path d="M210.393 231.572L228.366 233.609L227.354 228.906L216.14 227.941" stroke="#263238" stroke-miterlimit="10"/>
<path d="M204.109 227.681L203.198 230.762L207.707 231.271" stroke="#263238" stroke-miterlimit="10"/>
<path d="M210.855 196.885C210.011 196.103 209.235 195.249 208.538 194.333" stroke="#263238" stroke-miterlimit="10"/>
<path d="M217.105 202.165C217.105 202.165 215.21 200.732 213.133 198.95" stroke="#263238" stroke-miterlimit="10"/>
<path d="M224.353 149.947C224.353 149.947 218.639 147.569 209.931 154.717C201.222 161.864 198.241 164.577 193.766 171.558C191.093 175.873 189.316 180.682 188.541 185.699C188.648 186.221 188.762 186.75 188.89 187.293C191.382 197.824 194.155 202.915 194.155 202.915C194.155 202.915 198.978 178.92 207.372 169.193C215.765 159.466 229.706 153.551 229.706 153.551L224.353 149.947Z" fill="#D71635" stroke="#263238" stroke-miterlimit="10"/>
<path d="M203.406 103.143C203.406 103.143 197.116 109.017 196.647 113.646C196.178 118.275 195.689 122.268 194.905 123.762C194.122 125.256 190.169 126.234 191.509 128.491C192.849 130.749 194.101 130.702 194.101 130.702C194.101 130.702 196.111 140.69 197.638 142.09C199.166 143.49 204.572 142.686 204.572 142.686L206.246 154.797C206.246 154.797 194.999 164.772 192.809 178.672C190.618 192.572 193.123 200.504 193.123 200.504C193.123 200.504 194.59 178.605 199.655 170.406C204.719 162.206 216.482 154.442 218.217 153.042C219.952 151.642 224.353 149.934 224.353 149.934C224.353 149.934 222.263 145.245 221.982 143.128C221.701 141.011 221.794 137.896 222.19 137.045C222.585 136.195 229.612 133.642 232.238 125.59C234.864 117.538 230.999 108.033 226.879 103.987C222.759 99.9405 208.671 97.9309 203.406 103.143Z" fill="#BDBDBD" stroke="#263238" stroke-miterlimit="10"/>
<path d="M232.265 125.603C234.945 117.564 231.026 108.045 226.906 103.999C222.786 99.9526 208.678 97.9296 203.413 103.141C203.413 103.141 203.078 103.456 202.556 103.999C204.557 103.498 206.642 103.43 208.672 103.798C212.885 104.468 212.792 107.817 211.646 111.026C210.5 114.235 211.365 114.804 213.515 116.385C215.665 117.966 213.461 121 214.975 122.206C216.489 123.412 217.722 116.847 221.004 121.577C224.287 126.306 222.083 128.45 220.033 129.776C218.885 130.543 217.639 131.151 216.328 131.585C216.328 131.585 219.43 135.222 222.491 136.723C223.958 135.631 229.88 132.837 232.265 125.603Z" fill="#263238" stroke="#263238" stroke-linecap="round" stroke-linejoin="round"/>
<path d="M197.511 132.47C197.511 132.47 201.899 132.108 203.929 130.152" stroke="#263238" stroke-miterlimit="10"/>
<path d="M200.298 122.108C200.332 123.146 199.936 124.003 199.421 124.023C198.905 124.044 198.449 123.213 198.409 122.175C198.369 121.136 198.771 120.279 199.287 120.259C199.802 120.239 200.258 121.069 200.298 122.108Z" fill="#263238"/>
<path d="M198.409 117.866C198.409 117.866 199.822 115.963 201.845 118.207" stroke="#263238" stroke-miterlimit="10"/>
<path d="M204.572 142.699L209.803 140.729L206.159 147.274L204.572 142.699Z" fill="#263238" stroke="#263238" stroke-miterlimit="10"/>
<path d="M189.506 238.848L182.646 267.74L188.803 269.174L192.192 248.046L189.506 238.848Z" fill="white" stroke="#263238" stroke-miterlimit="10"/>
<path d="M195.568 169.675C194.251 172.542 193.323 175.572 192.809 178.685C190.618 192.578 193.123 200.516 193.123 200.516C193.123 200.516 194.577 178.913 199.554 170.593C198.195 170.439 196.858 170.131 195.568 169.675Z" fill="white" stroke="#263238" stroke-miterlimit="10"/>
<path d="M216.764 178.691L216.295 203.209L173.389 210.283L174.327 221.839C174.327 221.839 198.141 222.308 209.221 221.363C220.301 220.418 229.987 219.715 231.381 218.536C232.774 217.357 236.814 194.568 238.462 178.537C240.109 162.507 236.814 157.101 230.215 158.025" fill="#D71635"/>
<path d="M216.764 178.691L216.295 203.209L173.389 210.283L174.327 221.839C174.327 221.839 198.141 222.308 209.221 221.363C220.301 220.418 229.987 219.715 231.381 218.536C232.774 217.357 236.814 194.568 238.462 178.537C240.109 162.507 236.814 157.101 230.215 158.025" stroke="#263238" stroke-miterlimit="10"/>
<path d="M147.718 209.245L144.282 219.669L147.631 221.491C147.631 221.491 151.885 224.787 154.216 226.569C156.548 228.351 158.336 228.351 159.575 227.801C160.815 227.252 166.435 219.294 167.118 217.786C167.802 216.279 164.513 211.758 161.223 209.828C157.934 207.899 155.194 207.912 153.265 208.488C151.439 208.886 149.584 209.139 147.718 209.245Z" fill="white" stroke="#263238" stroke-miterlimit="10"/>
<path d="M173.389 210.283L167.963 209.814C166.26 209.37 164.527 209.054 162.778 208.87C161.364 208.87 159.475 210.283 158.531 210.993C157.586 211.703 147.216 223.018 147.216 223.018C147.216 223.018 148.161 224.9 149.574 224.431C150.988 223.962 153.594 222.776 153.594 222.776C153.594 222.776 150.767 225.61 152.18 227.024C153.594 228.437 155.952 228.437 155.952 228.437L157.606 227.492C158.302 228.041 159.102 228.442 159.958 228.671C161.137 228.906 163.026 228.437 164.647 227.492C166.268 226.548 170.481 221.631 170.481 221.631L174.099 220.231L173.389 210.283Z" fill="#BDBDBD" stroke="#263238" stroke-miterlimit="10"/>
<path d="M149.588 209.694C149.588 209.694 156.448 205.715 159.462 206.813C162.476 207.912 166.462 214.631 165.364 215.596C164.265 216.56 162.483 216.138 161.525 215.18C160.724 214.453 159.851 213.809 158.919 213.258C157.113 214.272 155.089 214.838 153.018 214.906" fill="white"/>
<path d="M149.588 209.694C149.588 209.694 156.448 205.715 159.462 206.813C162.476 207.912 166.462 214.631 165.364 215.596C164.265 216.56 162.483 216.138 161.525 215.18C160.724 214.453 159.851 213.809 158.919 213.258C157.113 214.272 155.089 214.838 153.018 214.906" stroke="#263238" stroke-miterlimit="10"/>
<path d="M170.046 225.268L167.869 224.102C167.693 224.009 167.538 223.882 167.412 223.729C167.286 223.576 167.191 223.4 167.133 223.21C167.075 223.02 167.055 222.821 167.075 222.623C167.094 222.426 167.152 222.234 167.246 222.059C167.339 221.884 167.466 221.729 167.62 221.604C167.773 221.478 167.95 221.384 168.14 221.327C168.329 221.27 168.529 221.25 168.726 221.27C168.923 221.29 169.114 221.349 169.289 221.443L171.466 222.602C171.819 222.791 172.083 223.112 172.199 223.495C172.316 223.877 172.276 224.291 172.089 224.645C171.9 224.998 171.579 225.261 171.196 225.378C170.813 225.495 170.4 225.455 170.046 225.268Z" fill="white" stroke="#263238" stroke-miterlimit="10"/>
<path d="M168.124 227.601L165.946 226.435C165.602 226.246 165.345 225.931 165.229 225.556C165.113 225.181 165.146 224.776 165.323 224.425C165.513 224.082 165.829 223.826 166.204 223.712C166.579 223.597 166.984 223.632 167.333 223.809L169.51 224.968C169.856 225.156 170.114 225.471 170.23 225.846C170.347 226.221 170.312 226.628 170.133 226.978C169.946 227.323 169.63 227.581 169.255 227.698C168.88 227.814 168.474 227.779 168.124 227.601Z" fill="white" stroke="#263238" stroke-miterlimit="10"/>
<path d="M165.926 229.657L163.749 228.491C163.573 228.398 163.418 228.272 163.292 228.118C163.166 227.965 163.071 227.788 163.014 227.598C162.957 227.408 162.938 227.209 162.958 227.011C162.978 226.814 163.038 226.622 163.133 226.448C163.226 226.273 163.353 226.119 163.506 225.993C163.66 225.867 163.836 225.773 164.026 225.716C164.216 225.659 164.415 225.64 164.612 225.659C164.81 225.679 165.001 225.738 165.176 225.832L167.353 226.997C167.528 227.091 167.682 227.218 167.808 227.371C167.933 227.525 168.028 227.701 168.085 227.891C168.142 228.081 168.161 228.28 168.141 228.477C168.122 228.675 168.063 228.866 167.969 229.041C167.876 229.215 167.749 229.37 167.595 229.496C167.442 229.621 167.265 229.715 167.075 229.773C166.886 229.83 166.686 229.849 166.489 229.829C166.292 229.809 166.101 229.751 165.926 229.657Z" fill="white" stroke="#263238" stroke-miterlimit="10"/>
<path d="M161.304 229.758L160.735 229.456C160.559 229.364 160.404 229.237 160.278 229.084C160.151 228.931 160.057 228.754 159.999 228.564C159.941 228.374 159.921 228.175 159.94 227.978C159.96 227.78 160.018 227.588 160.112 227.413C160.301 227.06 160.622 226.797 161.005 226.68C161.387 226.563 161.801 226.603 162.155 226.79L162.724 227.098C162.899 227.191 163.055 227.318 163.181 227.471C163.307 227.624 163.402 227.801 163.46 227.991C163.518 228.18 163.538 228.38 163.518 228.577C163.499 228.775 163.441 228.967 163.347 229.142C163.254 229.316 163.127 229.471 162.973 229.597C162.82 229.722 162.643 229.816 162.453 229.874C162.264 229.931 162.064 229.95 161.867 229.93C161.67 229.91 161.479 229.852 161.304 229.758Z" fill="white" stroke="#263238" stroke-miterlimit="10"/>
<path d="M147.719 209.246L118.927 197.074L119.992 216.145L143.767 221.591L147.719 209.246Z" fill="#263238" stroke="#263238" stroke-linecap="round" stroke-linejoin="round"/>
<path d="M143.766 221.591L147.719 209.245L143.693 207.463L143.612 207.872L139.928 220.66L143.766 221.591Z" fill="white" stroke="#263238" stroke-miterlimit="10"/>
<path d="M102.749 132.958L110.118 136.382C110.118 136.382 113.213 145.15 112.181 145.405C111.15 145.66 103.412 139.476 103.412 139.476L102.749 132.958Z" fill="white" stroke="#263238" stroke-linecap="round" stroke-linejoin="round"/>
<path d="M107.03 131.203L107.546 128.248C107.546 128.248 114.379 128.717 117.112 128.697C119.845 128.677 122.23 128.329 122.21 125.428C122.19 122.528 120.595 112.633 120.595 112.633C120.595 112.633 123.663 111.93 124.849 110.557C126.035 109.183 124.32 107.489 122.772 105.445C121.225 103.402 119.838 101.198 119.657 98.8069C119.477 96.4154 115.323 88.5912 115.323 88.5912C115.323 88.5912 115.993 87.3921 113.762 84.8465C111.532 82.3009 100.09 81.8588 92.7682 85.5164C85.4464 89.174 83.7784 94.4527 83.8119 100.254C83.8454 106.055 87.1613 114.234 87.1613 114.234C87.1613 114.234 84.9976 123.124 84.8301 123.613C84.6626 124.102 82.72 127.913 82.72 127.913C82.72 127.913 91.8773 134.297 95.22 137.165C98.5627 140.032 106.112 144.935 106.159 142.282C106.206 139.63 106.508 133.641 106.508 133.641L107.03 131.203Z" fill="white" stroke="#263238" stroke-linecap="round" stroke-linejoin="round"/>
<path d="M117.125 103.498C117.165 104.489 116.937 105.3 116.609 105.313C116.281 105.327 115.973 104.543 115.939 103.551C115.906 102.56 116.12 101.749 116.455 101.736C116.79 101.723 117.078 102.506 117.125 103.498Z" fill="#263238"/>
<path d="M112.322 100.221C112.322 100.221 113.843 97.6488 117.782 99.1627" stroke="#263238" stroke-width="2" stroke-linecap="round" stroke-linejoin="round"/>
<path d="M122.21 125.428C122.21 122.521 120.595 112.633 120.595 112.633C120.595 112.633 118.713 111.622 115.129 112.493C111.545 113.364 110.567 119.192 109.884 119.861C109.2 120.531 104.746 116.512 103.017 113.759C101.289 111.006 100.07 106.296 99.8823 103.543C99.6947 100.79 106.173 99.4031 107.184 96.8442C108.196 94.2852 103.419 91.5588 105.087 89.8506C106.755 88.1423 110.205 88.7988 111.913 89.1271C113.078 89.2846 114.263 89.0983 115.323 88.5912C115.323 88.5912 115.993 87.3921 113.762 84.8465C111.532 82.3009 100.09 81.8588 92.7681 85.5164C85.4463 89.174 83.7783 94.4527 83.8118 100.254C83.8453 104.943 86.0157 111.213 86.833 113.424C87.5246 113.723 88.2699 113.878 89.0235 113.879C89.6934 113.705 90.2025 111.655 90.5307 109.599C90.859 107.542 95.796 105.131 95.796 105.131C95.796 105.131 96.687 111.273 96.6937 112.466C96.7004 113.658 96.0238 119.64 99.3196 122.514C101.9 124.653 104.651 126.578 107.546 128.268C107.546 128.268 114.379 128.737 117.112 128.717C119.845 128.697 122.23 128.329 122.21 125.428Z" fill="#263238" stroke="#263238" stroke-linecap="round" stroke-linejoin="round"/>
<path d="M96.8475 109.366C96.8475 109.366 95.4274 101.18 93.0426 101.535C90.6578 101.89 89.3046 104.972 90.5238 108.904C91.743 112.836 94.1345 112.468 95.4944 112.119" fill="white"/>
<path d="M96.8475 109.366C96.8475 109.366 95.4274 101.18 93.0426 101.535C90.6578 101.89 89.3046 104.972 90.5238 108.904C91.743 112.836 94.1345 112.468 95.4944 112.119" stroke="#263238" stroke-linecap="round" stroke-linejoin="round"/>
<path d="M113.615 115.575C113.615 115.575 114.988 117.276 118.572 117.256" stroke="white" stroke-linecap="round" stroke-linejoin="round"/>
<path d="M75.284 289.933H111.458C111.578 288.031 112.985 280.715 112.985 275.919C112.985 270.379 116.797 234.641 116.797 234.641L69.7507 234.024L71.2915 255.896L75.284 289.933Z" fill="#263238" stroke="#263238" stroke-linecap="round" stroke-linejoin="round"/>
<path d="M79.9732 129.16C79.9732 129.16 71.727 139.737 69.4025 145.666C67.078 151.594 65.276 152.626 65.7918 160.102C66.3076 167.578 69.925 197.488 69.925 197.488L62.7036 236.428C71.2268 239.482 80.2109 241.05 89.2645 241.064C104.216 241.064 110.701 239.778 111.699 239.262C112.697 238.746 121.747 236.428 121.747 236.428C121.747 236.428 121.747 192.337 118.907 177.123C116.067 161.91 112.463 150.328 111.176 147.468C109.89 144.607 105.757 135.349 105.757 135.349L79.9732 129.16Z" fill="#263238" stroke="#263238" stroke-linecap="round" stroke-linejoin="round"/>
<path d="M111.197 147.468C109.904 144.634 105.777 135.349 105.777 135.349L79.9734 129.16C79.9734 129.16 78.2317 131.397 76.1216 134.391C81.7419 137.654 95.6554 145.719 96.4794 145.92C97.511 146.181 102.669 145.666 102.669 145.666L100.365 148.499C100.365 148.499 106.554 153.403 108.618 155.459C109.703 156.545 112.851 159.412 115.598 161.89C113.729 154.481 112.001 149.25 111.197 147.468Z" fill="#263238" stroke="#263238" stroke-linecap="round" stroke-linejoin="round"/>
<path d="M99.333 141.024L108.102 147.984L115.316 160.88L110.681 142.056L101.142 136.643L99.333 141.024Z" fill="white" stroke="#263238" stroke-linecap="round" stroke-linejoin="round"/>
<path d="M81.8021 124.264L108.798 136.429V145.968L77.9302 130.192L81.8021 124.264Z" fill="white" stroke="#263238" stroke-linecap="round" stroke-linejoin="round"/>
<path d="M117.5 221.845H70.8494V259.593H117.5V221.845Z" fill="#D71635" stroke="#263238" stroke-miterlimit="10"/>
<path d="M97.0353 239.838C97.0353 239.838 100.505 244.36 101.865 244.816C103.01 245.286 103.957 246.138 104.545 247.227C105.148 248.132 105.884 254.917 106.353 255.373C106.822 255.829 106.809 256.88 105.148 256.123C103.486 255.366 102.468 252.774 102.468 252.774L103.071 258.803C103.071 258.803 104.411 259.104 103.372 259.861C102.334 260.618 101.41 261.67 100.505 261.201C99.7006 260.722 98.9445 260.165 98.2478 259.54C97.1704 259.901 96.023 260.005 94.8983 259.841C93.2437 259.54 93.5586 260.143 92.0379 259.084C90.5173 258.026 90.524 259.238 89.7737 257.275C88.605 253.763 87.6476 250.184 86.9066 246.557C86.6052 244.595 86.3037 241.868 86.3037 241.868L97.0353 239.838Z" fill="white" stroke="#263238" stroke-linecap="round" stroke-linejoin="round"/>
<path d="M97.6449 236.972L98.6966 241.648L85.7276 243.457L85.1248 238.781L97.6449 236.972Z" fill="white" stroke="#263238" stroke-linecap="round" stroke-linejoin="round"/>
<path d="M81.025 138.451C81.025 138.451 72.0017 141.285 71.7471 145.411C71.4926 149.538 68.4982 199.585 69.791 202.934C71.0839 206.284 83.7648 240.227 83.7648 240.227L98.4621 238.425C98.4621 238.425 90.9326 199.062 90.6915 198.285C90.4503 197.508 95.7424 153.658 95.7424 153.658" fill="#263238"/>
<path d="M81.025 138.451C81.025 138.451 72.0017 141.285 71.7471 145.411C71.4926 149.538 68.4982 199.585 69.791 202.934C71.0839 206.284 83.7648 240.227 83.7648 240.227L98.4621 238.425C98.4621 238.425 90.9326 199.062 90.6914 198.285C90.4503 197.508 95.7424 153.658 95.7424 153.658" stroke="#263238" stroke-linecap="round" stroke-linejoin="round"/>
<path d="M93.994 166.252L90.6714 198.286L93.8399 218.188" stroke="#878787" stroke-linecap="round" stroke-linejoin="round"/>
<path d="M94.503 161.349L94.3289 163.051" stroke="#878787" stroke-linecap="round" stroke-linejoin="round"/>
<path d="M70.709 156.391L69.7175 186.469" stroke="#878787" stroke-linecap="round" stroke-linejoin="round"/>
<path d="M104.417 212.936L114.332 212.575L115.223 216.145L98.7971 217.197" stroke="#878787" stroke-linecap="round" stroke-linejoin="round"/>
<path d="M96.1577 213.231L101.436 213.043" stroke="#878787" stroke-linecap="round" stroke-linejoin="round"/>
<path d="M78.312 135.243L96.4994 145.921L102.689 145.667L100.365 148.5L112.349 158.046" stroke="#878787" stroke-linecap="round" stroke-linejoin="round"/>
<path d="M0.578613 289.932H306.374" stroke="#263238" stroke-miterlimit="10"/>
<path d="M87.0005 13.8667V59.1442" stroke="#263238" stroke-miterlimit="10"/>
<path d="M156.548 13.8667V59.1442" stroke="#263238" stroke-miterlimit="10"/>
<path d="M226.095 13.8667V59.1442" stroke="#263238" stroke-miterlimit="10"/>
</svg>
