<svg width="60" height="60" viewBox="0 0 60 60" fill="none" xmlns="http://www.w3.org/2000/svg">
<path d="M50.4441 29.203C50.4441 29.203 51.5567 14.215 37.8252 12.5058C26.0567 11.3041 22.4738 22.2412 22.4738 22.2412C22.4738 22.2412 18.9304 18.8332 14.1218 21.6172C9.81725 24.2744 10.5784 29.1395 10.5784 29.1395C10.5784 29.1395 1.01953 30.9978 1.01953 40.7418C1.2321 50.4738 11.3978 50.5715 11.3978 50.5715H27.4281V40.2858H22.2852L30.8567 31.7144L39.4281 40.2858H34.2852V50.5715H48.8001C48.8001 50.5715 58.263 50.5818 59.5915 41.323C60.2241 31.1984 50.4441 29.203 50.4441 29.203Z" fill="#D71635"/>
</svg>
