<svg width="373" height="787" viewBox="0 0 373 787" fill="none" xmlns="http://www.w3.org/2000/svg">
<g clip-path="url(#clip0_564_1422)">
<path d="M125.375 545.93C120.037 550.917 115.809 556.973 112.965 563.702C110.121 570.431 108.726 577.683 108.868 584.987C109.357 613.318 133.292 636.358 162.173 636.358H209.392C229.596 636.053 249.132 643.589 263.898 657.383C271.286 664.514 277.125 673.094 281.047 682.584C284.969 692.075 286.891 702.272 286.693 712.54C286.001 753.246 251.889 786.279 210.613 786.279H172.492C169.475 786.279 166.581 785.08 164.447 782.946C162.313 780.813 161.115 777.919 161.115 774.901C161.115 771.884 162.313 768.99 164.447 766.856C166.581 764.723 169.475 763.524 172.492 763.524H210.613C239.555 763.524 263.429 740.484 263.938 712.153C264.075 704.854 262.675 697.608 259.827 690.886C256.98 684.163 252.75 678.116 247.412 673.136C237.168 663.856 223.782 658.815 209.962 659.031H162.173C120.897 659.031 86.8668 625.958 86.0934 585.292C85.8942 575.023 87.8178 564.824 91.7439 555.332C95.6699 545.841 101.514 537.263 108.909 530.136C123.682 516.31 143.245 508.758 163.476 509.07H210.695C239.637 509.07 263.511 486.031 264.02 457.699C264.156 450.4 262.754 443.155 259.907 436.433C257.06 429.711 252.83 423.663 247.493 418.682C237.245 409.41 223.862 404.369 210.043 404.578H162.173C143.871 404.603 126.172 398.033 112.319 386.072C98.4666 374.111 89.3873 357.558 86.7447 339.448C86.3527 336.601 86.1352 333.733 86.0934 330.859C85.8942 320.59 87.8178 310.39 91.7439 300.899C95.6699 291.408 101.514 282.83 108.909 275.702C123.666 261.84 143.231 254.251 163.476 254.535H210.695C239.637 254.535 263.511 231.495 264.02 203.184C264.159 195.885 262.76 188.638 259.912 181.916C257.065 175.193 252.833 169.146 247.493 164.168C237.254 154.881 223.865 149.838 210.043 150.063H162.173C120.897 150.063 86.8668 116.969 86.0934 76.3036C85.8921 66.0371 87.8149 55.8399 91.7411 46.3517C95.6673 36.8636 101.512 28.2894 108.909 21.1672C123.66 7.29176 143.227 -0.305862 163.476 -0.0203411H175.097C178.034 0.103847 180.809 1.35789 182.844 3.47987C184.878 5.60186 186.013 8.4277 186.013 11.3672C186.013 14.3067 184.878 17.1325 182.844 19.2545C180.809 21.3765 178.034 22.6305 175.097 22.7547H162.885C149.044 22.5644 135.651 27.6596 125.436 37.0018C120.097 41.9803 115.868 48.0281 113.024 54.7509C110.18 61.4736 108.785 68.7204 108.93 76.0186C109.418 104.33 133.353 127.369 162.234 127.369H209.453C229.673 127.083 249.214 134.657 263.959 148.496C271.323 155.613 277.142 164.171 281.053 173.636C284.964 183.101 286.884 193.27 286.693 203.51C286.001 244.216 251.889 277.269 210.613 277.269H162.824C149.005 277.055 135.619 282.096 125.375 291.374C118.923 297.401 114.111 304.97 111.391 313.37C108.67 321.769 108.132 330.722 109.825 339.387C112.34 351.398 118.921 362.174 128.457 369.897C137.994 377.62 149.902 381.818 162.173 381.782H209.392C229.619 381.521 249.158 389.117 263.898 402.97C271.286 410.101 277.125 418.681 281.047 428.171C284.969 437.662 286.891 447.859 286.693 458.127C286.001 498.833 251.889 531.866 210.613 531.866H162.824C149.012 531.65 135.631 536.675 125.375 545.93Z" fill="#DFD8D6"/>
<path d="M13.8606 216.068C16.9127 216.255 19.9481 215.494 22.5514 213.89C34.9515 206.541 49.1509 202.785 63.5627 203.042H114.629C138.934 202.985 162.388 211.991 180.41 228.3C185.616 233.03 192.08 236.153 199.022 237.294C205.963 238.434 213.086 237.542 219.533 234.727C225.979 231.911 231.474 227.291 235.354 221.424C239.235 215.556 241.336 208.692 241.405 201.658C241.473 194.623 239.506 187.72 235.74 181.778C231.974 175.836 226.57 171.11 220.179 168.17C213.789 165.229 206.684 164.2 199.722 165.205C192.76 166.21 186.237 169.207 180.939 173.835C162.688 190.174 139.123 199.324 114.629 199.582H61.1C47.4092 199.437 34.0071 195.628 22.2868 188.551C20.3591 187.414 18.199 186.73 15.9688 186.55C13.7386 186.369 11.4965 186.697 9.41117 187.508C7.32583 188.319 5.45155 189.592 3.92936 191.232C2.40718 192.872 1.27672 194.835 0.623049 196.975C-0.0306238 199.115 -0.190468 201.375 0.155497 203.586C0.501462 205.797 1.34423 207.9 2.62043 209.738C3.89664 211.576 5.57301 213.1 7.52344 214.197C9.47387 215.293 11.6476 215.933 13.881 216.068H13.8606Z" fill="#00817D"/>
<path d="M13.8604 728.069C16.9135 728.267 19.9521 727.505 22.5511 725.891C34.9513 718.542 49.1506 714.786 63.5625 715.043H114.628C138.934 714.986 162.388 723.992 180.409 740.301C185.614 745.027 192.074 748.147 199.011 749.286C205.948 750.424 213.067 749.532 219.509 746.718C225.951 743.903 231.441 739.286 235.319 733.422C239.197 727.558 241.297 720.698 241.365 713.669C241.433 706.639 239.467 699.74 235.704 693.802C231.941 687.864 226.541 683.141 220.155 680.201C213.769 677.262 206.669 676.232 199.711 677.235C192.753 678.239 186.234 681.233 180.939 685.857C162.688 702.195 139.122 711.345 114.628 711.603H61.0998C47.4104 711.449 34.0108 707.64 22.2866 700.572C20.0182 699.233 17.4308 698.53 14.7966 698.537C10.9301 698.496 7.20165 699.972 4.41121 702.649C1.62077 705.325 -0.00926122 708.989 -0.129122 712.854C-0.248982 716.719 1.15088 720.477 3.77009 723.321C6.3893 726.166 10.0191 727.87 13.8807 728.069H13.8604Z" fill="#071952"/>
<path d="M358.173 315.696C355.127 315.511 352.099 316.271 349.502 317.874C337.102 325.223 322.903 328.978 308.491 328.722H257.425C233.12 328.779 209.666 319.773 191.644 303.464C186.437 298.734 179.974 295.61 173.032 294.47C166.091 293.33 158.967 294.221 152.521 297.037C146.075 299.853 140.58 304.473 136.699 310.34C132.819 316.208 130.718 323.072 130.649 330.106C130.581 337.14 132.548 344.044 136.314 349.986C140.08 355.928 145.484 360.653 151.874 363.594C158.265 366.534 165.369 367.564 172.332 366.559C179.294 365.554 185.817 362.556 191.115 357.929C209.369 341.582 232.944 332.432 257.446 332.182H310.954C324.651 332.324 338.061 336.133 349.787 343.213C351.713 344.334 353.868 345.004 356.09 345.175C358.311 345.345 360.543 345.01 362.617 344.196C364.691 343.382 366.555 342.109 368.067 340.473C369.58 338.837 370.703 336.88 371.353 334.749C372.002 332.617 372.161 330.366 371.818 328.165C371.475 325.963 370.638 323.868 369.37 322.035C368.103 320.203 366.437 318.68 364.498 317.583C362.559 316.485 360.396 315.84 358.173 315.696Z" fill="#FF5E5B"/>
<path d="M13.8606 471.315C16.9127 471.502 19.9481 470.742 22.5514 469.138C34.9515 461.789 49.1509 458.033 63.5627 458.289H114.629C138.934 458.233 162.388 467.238 180.41 483.547C185.616 488.277 192.08 491.401 199.022 492.541C205.963 493.681 213.086 492.79 219.533 489.974C225.979 487.158 231.474 482.538 235.354 476.671C239.235 470.804 241.336 463.939 241.405 456.905C241.473 449.871 239.506 442.967 235.74 437.025C231.974 431.084 226.57 426.358 220.179 423.417C213.789 420.477 206.684 419.447 199.722 420.452C192.76 421.458 186.237 424.455 180.939 429.083C162.688 445.421 139.123 454.571 114.629 454.829H61.1C47.4092 454.685 34.0071 450.876 22.2868 443.798C20.3591 442.662 18.199 441.978 15.9688 441.797C13.7386 441.617 11.4965 441.944 9.41117 442.755C7.32583 443.566 5.45155 444.839 3.92936 446.479C2.40718 448.119 1.27672 450.083 0.623049 452.223C-0.0306238 454.363 -0.190468 456.623 0.155497 458.833C0.501462 461.044 1.34423 463.147 2.62043 464.985C3.89664 466.823 5.57301 468.348 7.52344 469.444C9.47387 470.54 11.6476 471.18 13.881 471.315H13.8606Z" fill="#7E5C6A"/>
<path d="M358.173 570.943C355.127 570.758 352.099 571.519 349.502 573.121C337.102 580.47 322.903 584.226 308.491 583.969H257.425C233.12 584.026 209.666 575.02 191.644 558.711C186.437 553.981 179.974 550.858 173.032 549.718C166.091 548.577 158.967 549.469 152.521 552.285C146.075 555.1 140.58 559.72 136.699 565.588C132.819 571.455 130.718 578.319 130.649 585.354C130.581 592.388 132.548 599.292 136.314 605.233C140.08 611.175 145.484 615.901 151.874 618.841C158.265 621.782 165.369 622.811 172.332 621.806C179.294 620.801 185.817 617.804 191.115 613.176C209.369 596.83 232.944 587.679 257.446 587.429H310.954C324.651 587.571 338.061 591.381 349.787 598.461C351.713 599.581 353.868 600.252 356.09 600.422C358.311 600.592 360.543 600.258 362.617 599.444C364.691 598.629 366.555 597.357 368.067 595.721C369.58 594.085 370.703 592.128 371.353 589.996C372.002 587.865 372.161 585.614 371.818 583.412C371.475 581.211 370.638 579.115 369.37 577.283C368.103 575.45 366.437 573.928 364.498 572.83C362.559 571.732 360.396 571.087 358.173 570.943Z" fill="#FF824B"/>
<path d="M358.173 59.0035C355.142 58.766 352.111 59.4772 349.502 61.0388C337.102 68.3875 322.903 72.1435 308.491 71.8869H257.425C233.141 71.9882 209.69 63.0416 191.644 46.7916C186.44 42.0657 179.98 38.9456 173.043 37.8071C166.105 36.6686 158.987 37.5604 152.545 40.375C146.103 43.1896 140.612 47.8069 136.734 53.6706C132.857 59.5343 130.757 66.3943 130.689 73.4239C130.62 80.4536 132.586 87.3531 136.349 93.291C140.113 99.229 145.512 103.952 151.898 106.891C158.285 109.831 165.384 110.861 172.342 109.857C179.3 108.854 185.82 105.86 191.115 101.236C209.374 84.8978 232.946 75.7483 257.446 75.4894H310.954C324.65 75.6413 338.057 79.4497 349.787 86.5208C352.055 87.8629 354.643 88.5662 357.277 88.5561C361.196 88.6748 365.002 87.2319 367.857 84.5448C370.712 81.8577 372.383 78.1465 372.501 74.2275C372.62 70.3086 371.177 66.503 368.49 63.6479C365.803 60.7929 362.092 59.1222 358.173 59.0035Z" fill="#FFA515"/>
<path d="M178.459 95.4744C190.482 89.7657 195.6 75.3918 189.891 63.3693C184.183 51.3469 169.809 46.2286 157.786 51.9372C145.764 57.6459 140.645 72.0198 146.354 84.0423C152.063 96.0647 166.437 101.183 178.459 95.4744Z" fill="white"/>
<path d="M204.284 225.451C217.593 225.451 228.382 214.662 228.382 201.353C228.382 188.044 217.593 177.255 204.284 177.255C190.975 177.255 180.186 188.044 180.186 201.353C180.186 214.662 190.975 225.451 204.284 225.451Z" fill="white"/>
<path d="M166.712 354.489C180.021 354.489 190.81 343.7 190.81 330.391C190.81 317.082 180.021 306.293 166.712 306.293C153.403 306.293 142.614 317.082 142.614 330.391C142.614 343.7 153.403 354.489 166.712 354.489Z" fill="white"/>
<path d="M203.571 479.965C216.88 479.965 227.669 469.176 227.669 455.867C227.669 442.558 216.88 431.769 203.571 431.769C190.262 431.769 179.473 442.558 179.473 455.867C179.473 469.176 190.262 479.965 203.571 479.965Z" fill="white"/>
<path d="M166.712 609.716C180.021 609.716 190.81 598.927 190.81 585.618C190.81 572.309 180.021 561.52 166.712 561.52C153.403 561.52 142.614 572.309 142.614 585.618C142.614 598.927 153.403 609.716 166.712 609.716Z" fill="white"/>
<path d="M213.442 735.518C225.753 730.461 231.634 716.382 226.577 704.071C221.521 691.76 207.442 685.879 195.131 690.936C182.82 695.993 176.939 710.072 181.996 722.383C187.052 734.694 201.131 740.574 213.442 735.518Z" fill="white"/>
<path d="M162.095 80.56C158.775 80.56 156.255 77.96 156.255 73.36C156.255 68.76 158.775 66.16 162.095 66.16C165.435 66.16 167.955 68.76 167.955 73.36C167.955 77.96 165.435 80.56 162.095 80.56ZM162.095 78.3C164.015 78.3 165.335 76.74 165.335 73.36C165.335 69.98 164.015 68.42 162.095 68.42C160.195 68.42 158.875 69.98 158.875 73.36C158.875 76.74 160.195 78.3 162.095 78.3ZM168.894 66.36H174.454V80.36H171.854V68.54H168.894V66.36Z" fill="black"/>
<path d="M198.083 208.56C194.763 208.56 192.243 205.96 192.243 201.36C192.243 196.76 194.763 194.16 198.083 194.16C201.423 194.16 203.943 196.76 203.943 201.36C203.943 205.96 201.423 208.56 198.083 208.56ZM198.083 206.3C200.003 206.3 201.323 204.74 201.323 201.36C201.323 197.98 200.003 196.42 198.083 196.42C196.183 196.42 194.863 197.98 194.863 201.36C194.863 204.74 196.183 206.3 198.083 206.3ZM209.142 206.16H215.742V208.36H205.422V206.62L210.982 201.34C212.342 200.04 212.582 199.22 212.582 198.44C212.582 197.16 211.702 196.42 209.982 196.42C208.622 196.42 207.482 196.88 206.702 197.88L204.882 196.48C205.962 195.02 207.902 194.16 210.202 194.16C213.242 194.16 215.202 195.7 215.202 198.18C215.202 199.54 214.822 200.78 212.882 202.6L209.142 206.16Z" fill="black"/>
<path d="M196.204 464.2C192.884 464.2 190.364 461.6 190.364 457C190.364 452.4 192.884 449.8 196.204 449.8C199.544 449.8 202.064 452.4 202.064 457C202.064 461.6 199.544 464.2 196.204 464.2ZM196.204 461.94C198.124 461.94 199.444 460.38 199.444 457C199.444 453.62 198.124 452.06 196.204 452.06C194.304 452.06 192.984 453.62 192.984 457C192.984 460.38 194.304 461.94 196.204 461.94ZM216.301 458.62V460.82H213.821V464H211.301V460.82H203.621V459.02L210.521 450H213.301L206.801 458.62H211.381V455.8H213.821V458.62H216.301Z" fill="black"/>
<path d="M160.769 337.2C157.449 337.2 154.929 334.6 154.929 330C154.929 325.4 157.449 322.8 160.769 322.8C164.109 322.8 166.629 325.4 166.629 330C166.629 334.6 164.109 337.2 160.769 337.2ZM160.769 334.94C162.689 334.94 164.009 333.38 164.009 330C164.009 326.62 162.689 325.06 160.769 325.06C158.869 325.06 157.549 326.62 157.549 330C157.549 333.38 158.869 334.94 160.769 334.94ZM174.151 328.78C176.791 329.12 178.131 330.7 178.131 332.8C178.131 335.16 176.351 337.2 172.591 337.2C170.611 337.2 168.631 336.6 167.331 335.58L168.451 333.56C169.451 334.4 170.971 334.94 172.551 334.94C174.411 334.94 175.511 334.12 175.511 332.82C175.511 331.56 174.591 330.74 172.471 330.74H171.191V328.96L174.371 325.18H168.011V323H177.551V324.74L174.151 328.78Z" fill="black"/>
<path d="M157.152 594.2C153.832 594.2 151.312 591.6 151.312 587C151.312 582.4 153.832 579.8 157.152 579.8C160.492 579.8 163.012 582.4 163.012 587C163.012 591.6 160.492 594.2 157.152 594.2ZM157.152 591.94C159.072 591.94 160.392 590.38 160.392 587C160.392 583.62 159.072 582.06 157.152 582.06C155.252 582.06 153.932 583.62 153.932 587C153.932 590.38 155.252 591.94 157.152 591.94ZM169.149 585.42C173.289 585.42 174.949 587.22 174.949 589.7C174.949 592.16 173.169 594.2 169.409 594.2C167.429 594.2 165.429 593.6 164.149 592.58L165.249 590.56C166.269 591.4 167.789 591.94 169.369 591.94C171.229 591.94 172.329 591.12 172.329 589.8C172.329 588.46 171.469 587.62 168.569 587.62H165.189L165.909 580H174.129V582.18H168.109L167.809 585.42H169.149Z" fill="black"/>
<path d="M196.722 720.2C193.402 720.2 190.882 717.6 190.882 713C190.882 708.4 193.402 705.8 196.722 705.8C200.062 705.8 202.582 708.4 202.582 713C202.582 717.6 200.062 720.2 196.722 720.2ZM196.722 717.94C198.642 717.94 199.962 716.38 199.962 713C199.962 709.62 198.642 708.06 196.722 708.06C194.822 708.06 193.502 709.62 193.502 713C193.502 716.38 194.822 717.94 196.722 717.94ZM210.699 711.36C213.459 711.36 215.519 713.04 215.519 715.66C215.519 718.44 213.259 720.2 210.399 720.2C206.579 720.2 204.339 717.74 204.339 713.24C204.339 708.44 207.139 705.8 211.199 705.8C212.599 705.8 213.939 706.1 214.879 706.7L213.919 708.66C213.159 708.16 212.239 707.98 211.259 707.98C208.619 707.98 206.959 709.62 206.959 712.8V712.82C207.799 711.84 209.139 711.36 210.699 711.36ZM210.259 718.16C211.879 718.16 212.999 717.24 212.999 715.78C212.999 714.32 211.899 713.4 210.199 713.4C208.519 713.4 207.359 714.42 207.359 715.8C207.359 717.12 208.399 718.16 210.259 718.16Z" fill="black"/>
</g>
<defs>
<clipPath id="clip0_564_1422">
<rect width="372.054" height="786.36" fill="white"/>
</clipPath>
</defs>
</svg>
