<svg version="1.2" xmlns="http://www.w3.org/2000/svg" viewBox="0 0 68 91" width="68" height="91">
	<title>vetting1-svg</title>
	<style>
		.s0 { fill: #071952 } 
		.s1 { fill: #91eaff } 
		.s2 { fill: #f0bf9c } 
		.s3 { fill: #797c99 } 
		.s4 { fill: #a34262 } 
		.s5 { fill: #ffffff } 
		.s6 { fill: #e4e4e0 } 
		.s7 { fill: #e78882 } 
		.s8 { fill: #8c404c } 
		.s9 { fill: #77323f } 
		.s10 { fill: #e7faf9 } 
		.s11 { fill: #cc6164 } 
		.s12 { fill: #c7d2d7 } 
		.s13 { fill: #99a3b0 } 
		.s14 { fill: #abb5b9 } 
		.s15 { fill: #7a828d } 
	</style>
	<path id="Layer" class="s0" d="m66.1 25.7l-0.2 65.2-42.9-24.7 0.2-65.2z"/>
	<path id="Layer" class="s0" d="m66.1 25.7l1.6-0.9-0.2 65.2-1.6 0.9z"/>
	<path id="Layer" class="s0" d="m23.2 1l1.6-1 42.9 24.8-1.6 0.9z"/>
	<path id="Layer" class="s1" d="m39.8 21.4v2.1l-10.5-6v-2.1z"/>
	<path id="Layer" class="s1" d="m39.7 30.5v2.1l-10.4-6v-2.1z"/>
	<path id="Layer" class="s1" d="m38.9 24.8v2.1l-9.6-5.5v-2.1z"/>
	<path id="Layer" class="s1" d="m34.1 31.1v2.2l-4.8-2.8v-2.1z"/>
	<path id="Layer" class="s2" d="m47.7 30.9q0.1 0.1 0.3 0.2v0.6q-0.1-0.2-0.3-0.3c-0.3-0.2-0.5 0-0.5 0.3q0 0.3 0.1 0.5 0.2 0.2 0.4 0.4c0.2 0.1 0.4 0.1 0.5-0.1q0 0.3 0.1 0.6-0.2 0.1-0.3 0-0.2 0-0.3-0.1-0.4-0.2-0.7-0.7-0.2-0.4-0.2-0.9c0-0.5 0.4-0.8 0.9-0.5z"/>
	<path id="Layer" class="s1" d="m42.7 69v1.3l-13.5-7.8v-1.3z"/>
	<path id="Layer" class="s1" d="m59.4 76.3v1.3l-30.2-17.4v-1.4z"/>
	<path id="Layer" class="s1" d="m55.4 62.9v1.3l-26.2-15.1v-1.3z"/>
	<path id="Layer" class="s1" d="m59.4 68.3v1.3l-30.2-17.4v-1.3z"/>
	<path id="Layer" class="s1" d="m59.4 62.9v1.3l-30.2-17.4v-1.4z"/>
	<path id="Layer" class="s1" d="m59.4 60.5v1.3l-30.1-17.4v-1.3z"/>
	<path id="Layer" class="s3" d="m48.9 37.7v0.1l1.1 6.9q-0.7-0.5-1.3-1l-0.9-1.9q-0.1-0.2-0.1-0.4 0-0.2 0.1-0.3l0.7-0.7-0.5-0.4q-0.2-0.3-0.2-0.7-0.1-0.2 0-0.3z"/>
	<path id="Layer" class="s4" d="m50.9 39.7l0.5 1.4-0.3 0.3-0.2-0.2-0.3-0.1-0.2-0.6z"/>
	<path id="Layer" class="s5" d="m49.4 37.1q0.1 0.3 0.2 0.6 0.6 1 1.3 2l-0.5 0.8-0.3 0.4c-0.6-0.9-1-2-1.1-3.1v-0.1z"/>
	<path id="Layer" class="s1" d="m59.4 55v1.4l-30.1-17.5v-1.3z"/>
	<path id="Layer" class="s6" d="m49.6 37.1v0.6q-0.1-0.3-0.2-0.6 0.1 0 0.2 0z"/>
	<path id="Layer" class="s6" d="m52.8 40l-1.1 5.7-0.1-0.1-0.5-4.2 0.3-0.3 0.2 0.7c0.1-0.1 0.9-0.3 1.2-1.8z"/>
	<path id="Layer" class="s7" d="m47.7 31.4q0.2 0.1 0.3 0.3l0.1 0.7v0.1c0 0.1-0.2 0.2-0.4 0q-0.2-0.1-0.4-0.3-0.1-0.3-0.1-0.5c0-0.3 0.2-0.5 0.5-0.3z"/>
	<path id="Layer" class="s1" d="m59.4 52.7v1.3l-30.1-17.4v-1.3z"/>
	<path id="Layer" class="s0" d="m48.9 37.7l-1.1 1.3q-0.1 0.1-0.1 0.3 0.1 0.4 0.3 0.7l0.5 0.5-0.7 0.6q-0.1 0.1-0.1 0.3 0 0.2 0.1 0.4l0.9 1.9c-1.7-1.6-3.2-3.6-4.2-5.7q0.3-0.4 0.8-0.6 0.4-0.1 0.9 0z"/>
	<path id="Layer" class="s5" d="m51.9 35.5q0 0.2-0.2 0.4-0.2 0.1-0.4 0.1-0.2 0-0.4-0.1-0.2-0.1-0.4-0.3-0.4-0.5-0.6-1.1 0.4 0.3 0.8 0.5l0.1 0.1q0.4 0.2 0.9 0.3z"/>
	<path id="Layer" class="s7" d="m51.4 34.5q-0.1 0.1-0.3 0.2 0 0-0.1 0 0 0-0.1 0-0.1-0.1-0.2-0.3-0.1-0.2-0.2-0.3z"/>
	<path id="Layer" fill-rule="evenodd" class="s2" d="m53.4 32.7l0.3 3q-0.1 0.2-0.2 0.5 0 0.4-0.3 0.8-0.3 0.4-0.7 0.6h-0.1q-0.1 0.1-0.3 0.1c-0.4 0.1-0.8 0-1.1-0.3h-0.1-0.1q-0.7-0.5-1.2-1.1-0.1-0.2-0.2-0.4l-0.1-0.2q-0.7-1.2-1-2.6-0.1-0.3-0.1-0.6l0.2-2.6q0.1-0.3 0.2-0.6 0.1-0.3 0.4-0.6 0 0 0 0 0.2 0 0.3 0l0.1 0.1q0 0.1 0.1 0.1v0.1q0 0 0.1 0.1 0.5 0.7 1.2 1.3 0.4 0.3 0.9 0.3 0.4 0.1 0.8 0h0.1q0 0 0 0 0.1 0 0.1 0.1 0.1 0 0.1 0.1 0.3 0.6 0.5 1.2 0 0.3 0.1 0.6zm-2.1 3.3q0.2 0 0.4-0.1 0.2-0.2 0.2-0.4l-0.3-0.1q-0.4-0.1-0.8-0.4h-0.1q-0.4-0.2-0.8-0.5 0.1 0.6 0.6 1.1 0.1 0.1 0.4 0.3 0.2 0.1 0.4 0.1zm-2.5-5.1q0.1 0 0.1-0.1-0.1 0-0.1 0zm1.5 0.7q-0.1-0.2-0.2-0.3-0.1-0.2-0.3-0.3-0.1-0.1-0.2-0.2h-0.1q-0.1-0.1-0.4-0.1-0.1 0-0.2 0.2 0.7 0.2 1.4 0.7zm1.2 0.7q0.7 0.5 1.4 1-0.2-0.6-0.7-0.9l-0.1-0.1h-0.1q-0.1-0.1-0.3-0.1-0.1 0-0.3 0.1zm-0.1 2.2q0 0-0.1 0h0.1zm-0.9-0.4q0.1 0.2 0.2 0.3 0.1 0.2 0.2 0.3 0.1 0 0.1 0 0.1 0 0.2 0 0.1-0.1 0.2-0.2zm-0.6-1.8q0-0.1-0.1-0.2-0.1-0.2-0.2-0.2c-0.1-0.1-0.2 0-0.2 0.1q0 0.1 0.1 0.3 0 0.1 0.1 0.1c0.2 0.1 0.3 0 0.3-0.1zm2 1.1q0 0.2 0 0.3 0.1 0.1 0.2 0.2c0.2 0.1 0.3 0 0.3-0.2q0-0.1-0.1-0.2-0.1-0.1-0.2-0.2c-0.1-0.1-0.2 0-0.2 0.1zm-2.3-0.7q0.2 0 0.3 0.1h0.2q0-0.1-0.1-0.1l-0.1-0.1h-0.1q-0.3-0.2-0.6-0.2h-0.1l0.2 0.1 0.1 0.1 0.2 0.1zm2.8 1.6q0.1 0.1 0.2 0.1v-0.1q-0.1 0-0.2-0.1-0.2-0.2-0.5-0.4h-0.2l-0.1-0.1 0.1 0.1q0.1 0.1 0.2 0.2 0.1 0.1 0.2 0.2 0.1 0.1 0.3 0.1zm-1.9 2l0.8 0.5q-0.2-0.3-0.4-0.4-0.1-0.1-0.2-0.1 0 0-0.1 0h-0.1z"/>
	<path id="Layer" class="s7" d="m50.9 36.2q0.2 0.1 0.4 0.4l-0.8-0.5h0.1q0 0 0.1 0 0.1 0 0.2 0.1z"/>
	<path id="Layer" class="s6" d="m49 37.8c0.1 1.1 0.5 2.2 1.1 3.1l0.3-0.4 0.2 0.6-0.4 3.7-0.2-0.1z"/>
	<path id="Layer" class="s2" d="m52.1 37.9v1.2c-0.3 0.3-0.7 0.5-1.2 0.6q-0.7-1-1.2-2v-1.2 0.2c0.3 0.5 0.6 1 1.1 1.4h0.1 0.1q0.2 0.2 0.5 0.1 0.3 0 0.6-0.2z"/>
	<path id="Layer" class="s7" d="m49.8 32.5h0.1l0.1 0.1q0.1 0 0.2 0.1h-0.3q-0.1-0.1-0.2-0.1l-0.3-0.1v-0.1h-0.1l-0.1-0.1q0.3 0 0.6 0.1z"/>
	<path id="Layer" class="s8" d="m49.6 30.8q0.2 0 0.3 0.2 0.2 0.1 0.3 0.3 0.1 0.1 0.1 0.2-0.7-0.3-1.4-0.7 0.1-0.2 0.3-0.2 0.2 0 0.4 0.1z"/>
	<path id="Layer" class="s7" d="m54.1 35.1q0.2 0.1 0.4 0.4 0.1 0.2 0.1 0.5c0 0.3-0.2 0.4-0.5 0.3q-0.3-0.2-0.4-0.6l0.1-0.6q0-0.1 0.1-0.1 0.1 0 0.2 0.1z"/>
	<path id="Layer" class="s9" d="m51.6 27.6q-0.3-0.1-0.7 0-0.2 0.1-0.3 0.2-0.1 0.2-0.2 0.4 0 0.2 0 0.4 0 0.3 0 0.6 0.2 0.5 0.5 0.9-0.2-0.1-0.3-0.3-0.2-0.2-0.3-0.5-0.3-0.4-0.4-0.9-0.1-0.4-0.2-0.8 0-0.1 0-0.2c0-0.3 0.2-0.5 0.4-0.5q-0.1 0.1-0.2 0.3 0 0.1 0 0.3 0 0.4 0.2 0.9c0 0.1 0 0.2 0.1 0.3q0-0.1 0-0.2 0 0 0-0.1 0-0.2 0-0.4 0.1-0.2 0.2-0.4 0.2-0.2 0.4-0.2 0.5-0.1 0.8 0.2z"/>
	<path id="Layer" class="s1" d="m42.8 47.8v1.3l-13.5-7.8v-1.3z"/>
	<path id="Layer" fill-rule="evenodd" class="s8" d="m53.7 30.9q0.3 1.1 0.3 2.3 0 0.3 0 0.6l-0.1 0.7-0.1 0.5-0.1 0.7-0.3-3q0-0.3-0.1-0.6-0.1-0.6-0.4-1.2-0.1 0-0.1-0.1 0 0-0.1-0.1 0 0 0 0h-0.2q-0.4 0.1-0.8 0.1-0.5-0.1-0.8-0.3l-0.1-0.1q-0.7-0.5-1.2-1.3-0.1 0-0.1-0.1-0.1-0.1-0.1-0.2l-0.1-0.1q-0.1 0-0.2 0-0.1 0-0.1 0.1-0.3 0.2-0.4 0.6-0.1 0.2-0.2 0.5l-0.2 2.6-0.1-0.7-0.1-0.6-0.1-0.9q-0.1-0.3 0-0.6 0-1 0.3-2 0-0.3 0.3-0.5 0.1 0 0.2 0 0.1 0 0.2 0.1 0.1 0 0.2 0.1 0-0.3 0.2-0.5 0.1-0.2 0.4-0.3 0.2-0.2 0.4-0.2 0.3 0 0.5 0c0 0.2-0.1 0.3-0.2 0.5q0.6 0 1.1 0.3l0.1 0.1q0.4 0.2 0.7 0.4l0.1 0.1q-0.2 0-0.4 0-0.2 0-0.3 0.2h0.1 0.1l0.1 0.1q0.6 0.4 1.1 1.1l0.1 0.2h-0.4q0.4 0.3 0.7 0.7 0.1 0.4 0.2 0.8zm-3.1-1.1q0.2 0.2 0.3 0.3-0.3-0.4-0.4-0.9-0.1-0.3-0.1-0.6 0-0.2 0-0.4 0.1-0.2 0.2-0.4 0.2-0.1 0.3-0.2 0.4-0.1 0.7 0-0.3-0.3-0.8-0.2-0.2 0-0.3 0.2-0.2 0.2-0.3 0.4 0 0.2 0 0.4 0 0.1 0 0.1 0 0.1 0 0.2-0.1-0.2-0.1-0.3-0.2-0.5-0.2-0.9 0-0.2 0-0.3 0.1-0.2 0.2-0.3c-0.2 0-0.3 0.2-0.3 0.5q0 0.1 0 0.2 0 0.4 0.1 0.8 0.1 0.5 0.4 0.9 0.2 0.3 0.3 0.5zm0.7-1.3q0.2-0.1 0.4-0.1-0.2-0.1-0.4-0.1-0.2 0.1-0.3 0.1-0.1 0.1-0.1 0.2-0.1 0.3-0.1 0.5 0 0.1 0 0.2 0 0.3 0.1 0.6 0-0.3 0-0.5c0 0 0-0.1 0-0.1q0-0.3 0.1-0.5 0.1-0.2 0.3-0.3z"/>
	<path id="Layer" class="s1" d="m51.1 26c4.7 2.7 8.4 9.2 8.4 14.5 0 2.5-0.8 4.2-2.1 5.2-0.4-1.1-1-2.1-1.8-3l-2.7-2.8-0.5-1.1q-0.1-0.2-0.2-0.3v-0.8q0.1 0 0.2-0.1h0.1q0.4-0.2 0.7-0.6 0.3-0.4 0.4-0.8 0.2 0.3 0.5 0.5c0.5 0.3 1 0.1 1-0.5q-0.1-0.5-0.3-0.9-0.3-0.4-0.7-0.7-0.1-0.1-0.2-0.1l0.1-0.7q0-0.3 0-0.6 0-1.2-0.3-2.3-0.1-0.5-0.3-0.9-0.3-0.3-0.7-0.6l0.5-0.1-0.1-0.1q-0.5-0.7-1.2-1.2h-0.1l-0.2-0.1q0.2-0.1 0.3-0.1 0.2-0.1 0.4 0l-0.1-0.1q-0.3-0.3-0.6-0.4l-0.1-0.1q-0.5-0.3-1.1-0.3 0.1-0.3 0.2-0.5-0.3-0.1-0.5 0-0.3 0-0.5 0.1-0.2 0.2-0.4 0.4-0.1 0.2-0.2 0.4 0 0-0.1-0.1-0.1 0-0.2 0-0.2-0.1-0.3 0-0.2 0.2-0.3 0.5-0.3 0.9-0.3 1.9 0 0.3 0 0.6l0.1 0.9q-0.1-0.1-0.2-0.2c-0.5-0.3-1 0-1 0.6q0.1 0.4 0.3 0.9 0.3 0.4 0.7 0.6 0.1 0.1 0.2 0.1 0.2 0.1 0.3 0 0.3 1.4 1.1 2.6l0.1 0.2q0.1 0.2 0.2 0.4v0.8q-0.1 0-0.2 0l-0.5 0.6-2.7-0.4q-0.5 0-0.9 0.1-0.5 0.2-0.8 0.6c-1.2-2.3-1.8-4.7-1.9-7.2 0-5.3 3.8-7.5 8.5-4.8z"/>
	<path id="Layer" fill-rule="evenodd" class="s10" d="m63.3 26.8l-0.2 59-37.5-21.6 0.1-59.1zm-33.9-9.3l10.4 6v-2.1l-10.4-6c0 0 0 2.1 0 2.1zm0 1.8v2.1l9.5 5.5v-2.1l-9.5-5.5zm0 7.3l10.4 6v-2.1l-10.4-6zm0 3.9l4.8 2.8v-2.1l-4.8-2.8zm30.1 25.8v-1.3l-30.2-17.4v1.3l30.1 17.4zm0 6.5l-30.2-17.4v1.3l30.2 17.5zm0 6.8v-1.3l-30.2-17.4v1.3l30.2 17.4zm0 7.9zm0 0v-1.3l-30.2-17.4v1.3zm0-3.7l-30.1-17.4v1.3l30.1 17.4zm-16.6-3.5v-1.3l-13.5-7.9v1.4l13.5 7.8zm16.6-9.9l-30.2-17.4v1.3l30.2 17.5zm-30.1-11.4l26.1 15.1v-1.4l-26.1-15zm-0.1 4.1v1.3l8.4 4.8v-1.3l-8.3-4.8zm30.2-0.6l-30.2-17.4v1.3l30.2 17.4c0 0 0-1.3 0-1.3zm-30.1-11.3l13.5 7.8v-1.3l-13.5-7.9zm28.1 4.4c1.3-1 2.1-2.7 2.1-5.2 0-5.3-3.7-11.8-8.4-14.5-4.7-2.6-8.5-0.5-8.5 4.8 0.1 2.5 0.7 5 1.9 7.2q0.2 0.4 0.4 0.8 0.1 0.2 0.2 0.4 0.7 1.2 1.5 2.2 0.9 1.1 1.8 2l0.3 0.3q0.6 0.6 1.3 1l0.1 0.1q0.5 0.3 0.9 0.6l0.6 0.3h0.1q0.6 0.3 1.2 0.5c0.7 0.3 1.5 0.4 2.3 0.3 0.8-0.1 1.5-0.4 2.2-0.8z"/>
	<path id="Layer" class="s1" d="m29.2 54.6l8.4 4.8v-1.3l-8.4-4.8z"/>
	<path id="Layer" class="s1" d="m59.4 73.9v1.3l-30.2-17.4v-1.3z"/>
	<path id="Layer" class="s11" d="m51.1 41.4l0.5 4.2-0.6-0.3q-0.4-0.2-0.9-0.5l0.5-3.7 0.3 0.1z"/>
	<path id="Layer" class="s3" d="m52.8 39.9l1.1 2.6q0.1 0.2 0.1 0.4c0 0.2-0.1 0.4-0.3 0.4h-0.4l0.7 1.4q0.1 0.2 0.1 0.4 0 0.1 0 0.1-0.1 0.1-0.1 0.2l-1.1 0.8q-0.6-0.2-1.2-0.5l1.2-5.6z"/>
	<path id="Layer" class="s6" d="m52.1 38.5q0.1 0.1 0.2 0.3 0 0.2-0.2 0.3z"/>
	<path id="Layer" class="s5" d="m52.3 38.8l0.5 1.1v0.1c-0.3 1.5-1.1 1.7-1.2 1.8l-0.2-0.7-0.5-1.5c0.5 0 0.9-0.2 1.3-0.5q0.1-0.2 0.1-0.3z"/>
	<path id="Layer" class="s0" d="m52.1 37.7v0.2 0.1q-0.3 0.2-0.6 0.3-0.3 0-0.5-0.2h-0.1-0.1c-0.5-0.3-0.9-0.8-1.1-1.4l-0.1-0.2v-0.2q0.5 0.7 1.2 1.1h0.1l0.1 0.1c0.3 0.2 0.7 0.3 1.1 0.2z"/>
	<path id="Layer" class="s0" d="m52.8 39.9l2.7 2.8c0.8 0.9 1.5 1.9 1.9 3-0.7 0.4-1.4 0.7-2.2 0.8-0.8 0.1-1.6 0-2.3-0.3l1-0.8q0.1-0.1 0.1-0.2 0.1-0.1 0.1-0.1 0-0.3-0.1-0.4l-0.7-1.5h0.4q0.3 0 0.3-0.3 0-0.2-0.1-0.4z"/>
	<path id="Layer" class="s0" d="m49.7 31.8q0.1 0 0.1 0.2 0.1 0.1 0.1 0.2c0 0.2-0.1 0.2-0.2 0.2q-0.2-0.1-0.2-0.2-0.1-0.2-0.1-0.3c0-0.2 0.1-0.2 0.3-0.1z"/>
	<path id="Layer" class="s7" d="m52 33.7q0.2 0.2 0.4 0.4 0.1 0.1 0.2 0.1l0.1 0.1q-0.2 0-0.3-0.1l-0.2-0.2-0.3-0.2q-0.1 0-0.2-0.1l-0.1-0.1h0.2l0.1 0.1z"/>
	<path id="Layer" class="s0" d="m52.2 33.2q0.1 0.1 0.1 0.2 0.1 0.1 0.1 0.2c0 0.2-0.1 0.3-0.2 0.2q-0.2-0.1-0.2-0.2-0.1-0.1-0.1-0.2c0-0.2 0.1-0.3 0.3-0.2z"/>
	<path id="Layer" class="s8" d="m52.2 32.2l0.1 0.1q0.5 0.4 0.7 0.9-0.7-0.5-1.5-1 0.2-0.1 0.3-0.1 0.2 0 0.3 0.1z"/>
	<path id="Layer" class="s2" d="m54.1 34.6q0.4 0.3 0.7 0.7 0.2 0.4 0.2 0.9c0 0.6-0.4 0.8-0.9 0.5q-0.3-0.2-0.6-0.5 0.1-0.3 0.2-0.5 0.1 0.4 0.4 0.6c0.3 0.1 0.5 0 0.5-0.3q0-0.3-0.1-0.5-0.2-0.3-0.4-0.4-0.1-0.1-0.2-0.1 0 0-0.1 0v-0.5q0.2 0.1 0.3 0.1z"/>
	<path id="Layer" class="s9" d="m51.7 28.4q-0.2 0-0.4 0.1-0.2 0.1-0.3 0.3-0.1 0.2-0.1 0.5c0 0 0 0.1 0 0.1q0 0.2 0 0.5-0.1-0.3-0.1-0.6 0-0.1 0-0.2 0-0.2 0.1-0.5 0-0.1 0.1-0.2 0.2 0 0.3-0.1 0.2 0 0.4 0.1z"/>
	<path id="Layer" fill-rule="evenodd" class="s12" d="m47.5 11.8l7.4 4.2v4.5l-19.1-11v-4.5l7.4 4.2v-2.4c0-1.5 1-2 2.2-1.3q1 0.6 1.5 1.6 0.6 1 0.7 2.2zm-2.2-2.6c0.5 0.3 1 0.1 1-0.6q0-0.5-0.3-0.9-0.3-0.5-0.7-0.8c-0.6-0.3-1-0.1-1 0.6q0 0.5 0.3 1 0.2 0.4 0.7 0.7z"/>
	<path id="Layer" class="s13" d="m54.9 20.5v3.7l-19.1-11v-3.7z"/>
	<path id="Layer" class="s0" d="m18.3 64.1v0.1h-0.1l-0.1 0.1h-0.1-0.1-0.1-0.1-0.1-0.3-0.1-0.2-0.1-0.1q-0.3-0.1-0.5-0.2h-0.2q-0.1-0.1-0.3-0.2l-0.3-0.2-0.3-0.2-0.1-0.1q-0.2-0.1-0.4-0.3l-0.1-0.1q-0.2-0.2-0.3-0.4-0.1-0.1-0.1-0.1-0.2-0.2-0.3-0.4 0-0.1-0.1-0.1-0.1-0.2-0.2-0.5 0 0 0 0-0.1-0.3-0.2-0.6-0.2-0.4-0.1-0.9 0.1-0.4 0.4-0.8l-13.3 13.3q-0.3 0.3-0.4 0.8-0.1 0.4 0.1 0.8 0.1 0.3 0.2 0.6 0.1 0.2 0.2 0.3l0.1 0.2v0.1h0.1q0.1 0.2 0.2 0.3v0.1l0.1 0.1q0 0 0.1 0.1 0.1 0.1 0.2 0.2 0 0.1 0.1 0.1l0.1 0.2 0.3 0.2 0.1 0.1q0.1 0.1 0.3 0.1l0.1 0.1 0.3 0.2q0 0 0.1 0.1 0.1 0 0.2 0l0.1 0.1q0.2 0.1 0.5 0.2h0.1 0.2 0.1 0.1 0.1q0.1 0 0.2 0h0.1 0.1 0.1 0.1 0.1l0.1-0.1 0.1-0.1h0.1l13.3-13.2z"/>
	<path id="Layer" class="s3" d="m18.7 62.4c0.4 1.5-0.5 2.3-1.9 1.9-0.8-0.2-1.6-0.7-2.1-1.2-0.6-0.6-1.1-1.3-1.3-2.1-0.4-1.5 0.4-2.4 1.9-2 0.8 0.3 1.5 0.7 2.1 1.3 0.6 0.6 1 1.3 1.3 2.1z"/>
	<path id="Layer" class="s12" d="m25.8 54.8v0.1h-0.1-0.1-0.1-0.1-0.4-0.1q-0.2 0-0.4-0.1l-0.2-0.1-0.2-0.1-0.2-0.2q0 0-0.1 0-0.1-0.1-0.2-0.2h-0.1l-0.2-0.3q-0.1-0.1-0.2-0.3 0 0 0-0.1-0.1-0.1-0.2-0.2v-0.1q0-0.1-0.1-0.3-0.1-0.3 0-0.6 0-0.2 0.2-0.5l-8.4 8.3q-0.2 0.2-0.3 0.5 0 0.3 0.1 0.6 0 0.1 0.1 0.3c0 0.1 0.1 0.1 0.1 0.2l0.1 0.1v0.1q0 0 0 0l0.1 0.2h0.1v0.1q0.1 0.1 0.1 0.2h0.1v0.1h0.1l0.2 0.2 0.2 0.2q0.1 0 0.2 0.1l0.1 0.1h0.1 0.1q0.2 0.1 0.3 0.1h0.1 0.1 0.1 0.3 0.1 0.1 0.1l8.4-8.3z"/>
	<path id="Layer" class="s14" d="m26.1 53.7c0.2 1-0.3 1.5-1.3 1.3q-0.7-0.3-1.3-0.8-0.5-0.6-0.8-1.3c-0.2-1 0.3-1.5 1.2-1.3q0.8 0.3 1.4 0.8 0.5 0.6 0.8 1.3z"/>
	<path id="Layer" class="s15" d="m36.1 59.4q0.2-0.1 0.3-0.2l4.1-2.3q-0.2 0.1-0.4 0.2h-0.2l-0.2 0.1h-0.1q-0.4 0.2-0.7 0.2h-0.1q-0.2 0.1-0.4 0.1h-0.2q-0.2 0-0.3 0h-0.5-0.2-0.2-0.3-0.2l-0.3-0.1h-0.1l-0.3-0.1h-0.2l-0.3-0.1-0.2-0.1-0.5-0.1-0.4-0.3h-0.2l-0.3-0.2-0.2-0.1-0.5-0.2-0.5-0.3-0.4-0.4-0.2-0.1-0.3-0.2-0.2-0.2-0.3-0.2-0.2-0.2-0.3-0.2-0.2-0.2-0.3-0.2-0.2-0.2-0.3-0.3-0.2-0.2-0.2-0.2-0.2-0.2-0.3-0.4-0.1-0.1-0.5-0.5v-0.1q-0.2-0.2-0.4-0.4c-0.1-0.2-0.3-0.4-0.4-0.6q-0.3-0.4-0.6-0.8l-0.1-0.2q-0.4-0.5-0.7-1.1l-0.1-0.1q-0.2-0.4-0.4-0.8-0.1-0.2-0.2-0.3l-0.2-0.3-0.2-0.5v-0.1q-0.2-0.3-0.3-0.6-0.1-0.1-0.1-0.2-0.1-0.2-0.2-0.4v-0.2l-0.2-0.4-0.1-0.2q-0.1-0.3-0.2-0.5v-0.1l-0.2-0.6q0.1-0.1 0-0.2l-0.1-0.4q0-0.1-0.1-0.2c0-0.1-0.1-0.3-0.1-0.4 0-0.1 0-0.1 0-0.2l-0.1-0.4-0.1-0.2q0-0.3-0.1-0.5c0 0 0-0.1 0-0.1v-0.6q0-0.1 0-0.2c0 0 0-0.3-0.1-0.4v-0.2-0.4q0-0.1 0-0.2 0-0.3 0-0.5 0-0.3 0-0.6 0-0.1 0-0.2c0 0 0-0.2 0-0.3q0-0.2 0-0.3 0-0.1 0-0.3c0-0.1 0-0.1 0.1-0.2 0-0.1 0-0.2 0-0.3 0.1-0.1 0-0.2 0.1-0.2 0-0.1 0-0.2 0-0.3 0.1-0.1 0.1-0.2 0.1-0.3v-0.2c0-0.1 0.1-0.2 0.2-0.3v-0.2q0.1-0.3 0.2-0.5 0 0 0-0.1 0.2-0.3 0.4-0.6v-0.1q0.1-0.2 0.3-0.4l0.1-0.1q0.2-0.2 0.4-0.4v-0.1q0.2-0.2 0.4-0.3l0.1-0.1q0.2-0.2 0.5-0.3l-4.1 2.3q-0.2 0.2-0.4 0.3l-0.1 0.1q-0.2 0.2-0.4 0.4-0.2 0.2-0.4 0.4l-0.1 0.1q-0.2 0.2-0.3 0.4-0.2 0.4-0.4 0.7-0.1 0.2-0.2 0.5 0 0 0 0.1 0 0 0 0.1-0.1 0.2-0.2 0.3c0 0.1 0 0.1 0 0.1q0 0.1 0 0.1c0 0.1 0 0.2 0 0.3 0 0.1 0 0.1 0 0.1v0.2q0 0.1-0.1 0.2 0 0.1 0 0.1v0.2q0 0.1 0 0.2v0.1 0.2 0.3c0 0 0 0 0 0v0.3q0 0.1 0 0.2 0 0.3 0 0.5 0 0.3 0 0.5 0 0 0 0.1 0 0.1 0 0.2 0 0.1 0 0.2 0 0.1 0 0.2v0.2q0 0 0 0.1 0 0.2 0 0.3v0.2c0 0 0 0 0 0 0 0.2 0.1 0.4 0.1 0.5q0 0.1 0 0.1 0 0.2 0.1 0.5v0.2q0 0.2 0.1 0.3 0 0.1 0 0.1 0 0.2 0 0.3l0.1 0.1q0 0.1 0 0.3c0.1 0 0.1 0.1 0.1 0.2q0 0 0 0.1l0.1 0.3q0 0.1 0.1 0.2c0 0 0 0 0 0q0 0.3 0.1 0.6 0 0 0 0l0.2 0.5q0 0 0 0.1l0.1 0.2 0.1 0.2v0.2c0 0 0.1 0.1 0.1 0.2l0.1 0.1c0 0.1 0 0.2 0.1 0.3v0.2q0 0 0 0 0.2 0.3 0.3 0.5 0 0.1 0 0.2l0.2 0.3v0.1q0.1 0.2 0.2 0.3l0.1 0.3q0.2 0.4 0.5 0.8v0.1q0 0 0.1 0.1c0.2 0.3 0.4 0.7 0.7 1.1q0 0 0 0l0.1 0.1q0.3 0.4 0.6 0.8 0.2 0.3 0.4 0.6l0.3 0.4 0.1 0.1 0.4 0.5 0.1 0.1 0.3 0.3v0.1l0.2 0.1q0.1 0.2 0.2 0.3h0.1l0.2 0.2 0.1 0.2 0.1 0.1 0.3 0.2 0.1 0.1 0.1 0.1 0.2 0.2 0.2 0.1q0 0.1 0.1 0.1l0.2 0.2 0.1 0.1 0.2 0.1 0.2 0.2h0.1l0.2 0.2 0.2 0.1 0.5 0.3 0.4 0.3h0.1l0.3 0.2 0.1 0.1 0.2 0.1h0.1l0.2 0.1 0.2 0.1h0.1l0.4 0.2 0.4 0.1 0.2 0.1 0.2 0.1h0.1 0.2l0.1 0.1h0.2 0.2 0.1 0.1 0.2 0.1 0.2 0.2 0.7 0.3 0.2l0.5-0.1q0.4 0 0.7-0.2h0.1l0.3-0.1z"/>
	<g id="Layer" style="opacity: .5">
		<path id="Layer" class="s5" d="m31.1 33.5c5.8 3.3 10.4 11.3 10.4 17.9 0 6.6-4.7 9.2-10.4 5.9-5.8-3.3-10.4-11.3-10.4-17.9 0-6.6 4.7-9.3 10.4-5.9z"/>
	</g>
	<g id="Layer" style="opacity: .8">
		<path id="Layer" class="s5" d="m25.8 34.8c1.1 0.8 2 1.7 2.7 2.9 0.6 1.1 1 2.4 1.1 3.7 0 2.5-1.7 3.4-3.9 2.2-1.1-0.7-2-1.7-2.7-2.8-0.6-1.2-1-2.5-1.1-3.8 0-2.4 1.7-3.4 3.9-2.2z"/>
	</g>
	<path id="Layer" class="s12" d="m45.8 51q0 0 0-0.1c0 0 0-0.2 0-0.2q0-0.2 0-0.3c0-0.1 0-0.1 0-0.2v-0.3q0 0 0-0.1v-0.4-0.2q0 0 0 0c0-0.3-0.1-0.5-0.1-0.7q0 0 0-0.1 0-0.3-0.1-0.5 0-0.1 0-0.1 0-0.1-0.1-0.3c0-0.1 0-0.2 0-0.3 0-0.1 0-0.1 0-0.2 0 0-0.1-0.2-0.1-0.2 0-0.1 0-0.2 0-0.3l-0.1-0.2c0-0.1 0-0.2-0.1-0.3 0-0.1 0-0.1 0-0.1l-0.1-0.4c0-0.1-0.1-0.2-0.1-0.2v-0.1q-0.1-0.3-0.2-0.7-0.1-0.3-0.2-0.6 0-0.1 0-0.1c0-0.1-0.1-0.1-0.1-0.2l-0.1-0.3c0-0.1-0.1-0.2-0.1-0.2l-0.1-0.3q0-0.1-0.1-0.2l-0.1-0.3-0.1-0.2q0 0 0-0.1-0.1-0.3-0.3-0.6 0-0.1 0-0.1l-0.3-0.5q0-0.1 0-0.1l-0.2-0.4-0.1-0.3q-0.3-0.5-0.6-1 0-0.1 0-0.1-0.1-0.1-0.1-0.1-0.4-0.7-0.8-1.3-0.1-0.1-0.1-0.1c0-0.1 0-0.1-0.1-0.1q-0.3-0.6-0.7-1.1-0.2-0.3-0.5-0.7l-0.4-0.5-0.1-0.1-0.5-0.5q-0.1-0.1-0.1-0.2l-0.4-0.4-0.2-0.3-0.3-0.2-0.1-0.1-0.2-0.2-0.2-0.2-0.1-0.2-0.3-0.2-0.2-0.2-0.1-0.1-0.3-0.2-0.1-0.2-0.2-0.1-0.3-0.2-0.1-0.1-0.2-0.2-0.3-0.2-0.1-0.1-0.3-0.2-0.2-0.1q-0.3-0.2-0.6-0.4l-0.5-0.3-0.1-0.1q-0.2-0.1-0.4-0.2l-0.2-0.1-0.2-0.1-0.1-0.1-0.3-0.1-0.2-0.1-0.5-0.2-0.6-0.2-0.2-0.1h-0.3l-0.1-0.1h-0.2l-0.2-0.1h-0.2l-0.2-0.1h-0.1-0.2-0.3-0.1-0.2-0.3-0.8q-0.2 0-0.4 0h-0.2q-0.3 0-0.6 0.1h-0.1-0.1l-0.3 0.1h-0.2l-0.2 0.1h-0.1l-0.3 0.1-0.2 0.1q-0.2 0.1-0.5 0.2l-4 2.4q0.3-0.2 0.5-0.3h0.2l0.3-0.2 0.3-0.1-0.3-0.3h0.3 0.1 0.1c0.2 0 0.4-0.1 0.6-0.1h0.2 0.4 0.6 0.2 0.3q0.2 0 0.3 0l0.3 0.1h0.3l0.2 0.1h0.4l0.2 0.1 0.4 0.1 0.2 0.1q0.3 0.1 0.6 0.2l0.5 0.3h0.2q0.2 0.1 0.4 0.3 0.1 0 0.2 0.1l0.6 0.3 0.6 0.3h0.1q0.3 0.2 0.6 0.4l0.2 0.2 0.4 0.3 0.2 0.1q0.2 0.2 0.4 0.3l0.2 0.2 0.4 0.3 0.2 0.2 0.3 0.3 0.3 0.3q0.2 0.1 0.3 0.3c0.1 0.1 0.2 0.2 0.3 0.2l0.3 0.4 0.2 0.2 0.4 0.4 0.2 0.2q0.2 0.3 0.5 0.6 0 0.1 0.1 0.1 0.2 0.3 0.4 0.5c0.1 0.2 0.3 0.5 0.5 0.7 0.3 0.4 0.5 0.7 0.7 1.1l0.2 0.2q0.4 0.6 0.8 1.3l0.1 0.2 0.6 1 0.1 0.3 0.2 0.4q0.2 0.3 0.3 0.6 0.1 0 0.1 0.1 0.2 0.4 0.3 0.7c0 0.1 0.1 0.2 0.1 0.2q0.1 0.3 0.2 0.6c0.1 0.1 0.1 0.1 0.1 0.2l0.2 0.5 0.1 0.2q0.1 0.4 0.2 0.7v0.1l0.3 0.7q0 0.1 0 0.2 0.1 0.3 0.2 0.5c0 0.2 0 0.2 0 0.3 0.1 0.1 0.1 0.3 0.2 0.5v0.3q0.1 0.2 0.1 0.5c0.1 0.1 0 0.1 0.1 0.2q0.1 0.3 0.1 0.7 0 0 0 0c0 0.3 0.1 0.5 0.1 0.7v0.2q0 0.3 0.1 0.6c0 0.1 0 0.1 0 0.2 0 0.1 0 0.3 0 0.5 0 0.2 0 0.2 0 0.2q0 0.4 0 0.7 0 0.4 0 0.7 0 0.1 0 0.2c0 0.1 0 0.4 0 0.5 0 0.2 0 0.2 0 0.3l-0.1 0.4v0.2l-0.1 0.4q0 0.1 0 0.3c-0.1 0.1-0.1 0.2-0.1 0.3q-0.1 0.1-0.1 0.3c0 0.2-0.1 0.2-0.1 0.3 0 0.1-0.1 0.3-0.1 0.4l-0.1 0.2q-0.1 0.4-0.3 0.7-0.2 0.4-0.4 0.8 0 0.1 0 0.1-0.2 0.3-0.4 0.6l-0.1 0.1q-0.2 0.2-0.5 0.5-0.2 0.2-0.5 0.4l-0.1 0.1q-0.3 0.2-0.6 0.4l4-2.4q0.3-0.1 0.6-0.3l0.1-0.1q0.3-0.2 0.5-0.5 0.3-0.2 0.5-0.4l0.1-0.2q0.2-0.2 0.4-0.6 0 0 0 0 0.2-0.4 0.4-0.8 0.2-0.3 0.3-0.7 0 0 0 0 0-0.1 0.1-0.2c0 0 0-0.2 0.1-0.4q0 0 0-0.1v-0.2c0-0.1 0.1-0.2 0.1-0.3q0-0.1 0-0.1 0-0.1 0-0.2c0-0.1 0.1-0.2 0.1-0.3q0-0.1 0-0.2 0-0.1 0-0.2v-0.2-0.2-0.2q0-0.2 0-0.3c0-0.1 0-0.1 0-0.1 0 0 0-0.2 0-0.4q0 0 0-0.1v-0.1q0-0.3 0-0.6c0.4-0.3 0.4-0.5 0.4-0.7z"/>
	<path id="Layer" fill-rule="evenodd" class="s13" d="m29.1 31.9c7.1 4.1 12.7 13.9 12.7 22 0 8.1-5.7 11.4-12.7 7.3-7.1-4.1-12.8-13.9-12.8-22 0-8.1 5.8-11.4 12.8-7.3zm0 26.6c5.7 3.3 10.4 0.6 10.4-5.9 0-6.6-4.6-14.7-10.4-18-5.7-3.3-10.4-0.6-10.4 6 0 6.6 4.6 14.6 10.4 17.9z"/>
</svg>