<?xml version="1.0" encoding="utf-8"?>
<!-- Generator: Adobe Illustrator 26.0.1, SVG Export Plug-In . SVG Version: 6.00 Build 0)  -->
<svg version="1.1" id="Layer_1" xmlns="http://www.w3.org/2000/svg" xmlns:xlink="http://www.w3.org/1999/xlink" x="0px" y="0px"
	 viewBox="0 0 114.4 103.3" style="enable-background:new 0 0 114.4 103.3;" xml:space="preserve">
<style type="text/css">
	.st0{fill:#263238;}
	.st1{fill:#071952;}
	.st2{fill:#A36957;}
	.st3{fill:#7C3B29;}
	.st4{fill:#455A64;}
	.st5{fill:#FFBE9D;}
	.st6{fill:#EB996E;}
	.st7{opacity:0.2;}
	.st8{fill:#FBFBFB;}
	.st9{opacity:0.6;}
	.st10{fill:#FFFFFF;}
	.st11{opacity:0.6;fill:#FFFFFF;enable-background:new    ;}
	.st12{fill:#E0E0E0;}
	.st13{fill:#FAFAFA;}
</style>
<path class="st0" d="M67.9,56.5c0,0,0-0.2,0-0.4c0-0.3,0-0.7,0-1.3c0-1.1,0-2.8,0-5c0-4.3,0-10.6,0-18.4l0.1,0.1l-66.5,0l0.1-0.1
	c0,8.8,0,17.3,0,25.1l-0.1-0.1l47.6,0l13.8,0h3.7h1L67.9,56.5l-0.3,0h-0.9H63l-13.8,0l-47.7,0H1.4v-0.1c0-7.8,0-16.3,0-25.1v-0.1
	h0.1l66.5,0H68v0.1c0,7.8,0,14.1,0,18.4c0,2.2,0,3.8,0,5c0,0.6,0,1,0,1.3C67.9,56.3,67.9,56.5,67.9,56.5z"/>
<path class="st1" d="M9.3,41.6L10,43l1.6,0.2l-1.2,1.1l0.3,1.5l-1.4-0.7l-1.4,0.7l0.3-1.5L7,43.2L8.6,43L9.3,41.6z"/>
<path class="st1" d="M14.6,41.6l0.7,1.4l1.6,0.2l-1.2,1.1l0.3,1.5l-1.4-0.7l-1.4,0.7l0.3-1.5l-1.2-1.1l1.6-0.2L14.6,41.6z"/>
<path class="st1" d="M19.8,41.6l0.7,1.4l1.6,0.2L21,44.2l0.3,1.5l-1.4-0.7l-1.4,0.7l0.3-1.5l-1.1-1.1l1.6-0.2L19.8,41.6z"/>
<path class="st1" d="M25.1,41.6l0.7,1.4l1.6,0.2l-1.2,1.1l0.3,1.5l-1.4-0.7l-1.4,0.7l0.3-1.5l-1.2-1.1l1.6-0.2L25.1,41.6z"/>
<path class="st1" d="M30.3,41.6l0.7,1.4l1.6,0.2l-1.2,1.1l0.3,1.5l-1.4-0.7l-1.4,0.7l0.3-1.5L28,43.2l1.6-0.2L30.3,41.6z"/>
<path class="st1" d="M63.7,46.9c1.1-4.6-1.9-9.3-6.7-10.3c-4.8-1.1-9.7,1.8-10.8,6.4c-1.1,4.6,1.9,9.3,6.7,10.3
	C57.7,54.4,62.6,51.5,63.7,46.9z"/>
<path class="st0" d="M64.2,43.9c-0.2-0.2-0.6-0.2-0.8-0.4c-0.5-0.4-0.4-1.1-0.5-1.7c-0.1-0.7-0.6-1.2-1-1.8c-0.4-0.6-0.8-1.4-0.5-2
	l-5.1,8.9h7.9c0,0,0.2-1.4,0.3-1.8C64.6,44.6,64.5,44.1,64.2,43.9z"/>
<path class="st0" d="M53.7,35.1c0.2-0.7,1.1-1.1,1.8-1.2c0.8-0.1,1.2,0.2,1.9,0.1c1.1-0.2,1.7-0.6,2.4-0.5c0.8,0.1,1.5,0.4,2,0.9
	c0.4,0.5,0.4,1.5,0.3,2.1c-0.2,0.5-0.6,1-0.7,1.5c-0.1,0.5,0.1,1,0.2,1.5c0.4,1.5,0.1,3.2-1,4.4c-1,1.2-2.9,1.7-4.4,1"/>
<path class="st2" d="M58,49.8l0-2.2c0,0,2.3-0.3,2.8-3.2c0.3-1.4,0.2-3.7,0.1-5.7c-0.1-1.7-2-3.5-3.8-3.3l-5.8,1v0.9l0.2,12.6
	c0,0.8,0.4,1.6,1,2.2c0.6,0.6,1.4,0.9,2.3,0.9c0.4,0,0.9-0.1,1.3-0.2c0.4-0.2,0.8-0.4,1.1-0.7c0.3-0.3,0.5-0.6,0.7-1
	C57.9,50.6,58,50.2,58,49.8z"/>
<path class="st0" d="M59.9,40.5c0,0.1,0,0.2-0.1,0.3c-0.1,0.1-0.2,0.1-0.3,0.1c0,0-0.1,0-0.1,0c0,0-0.1,0-0.1-0.1
	c0,0-0.1-0.1-0.1-0.1c0,0,0-0.1,0-0.1c0-0.1,0-0.2,0.1-0.3c0.1-0.1,0.2-0.1,0.3-0.1c0,0,0.1,0,0.1,0c0,0,0.1,0,0.1,0.1
	c0,0,0.1,0.1,0.1,0.1C59.9,40.4,59.9,40.4,59.9,40.5z"/>
<path class="st0" d="M60.4,39.9c0,0-0.3-0.2-0.7-0.2c-0.4,0-0.7,0.2-0.8,0.1c0,0,0-0.1,0.2-0.2c0.2-0.1,0.4-0.2,0.6-0.2
	c0.2,0,0.4,0.1,0.6,0.2C60.3,39.8,60.4,39.9,60.4,39.9z"/>
<path class="st0" d="M55.9,40.4c0,0.1,0,0.2-0.1,0.3c-0.1,0.1-0.2,0.1-0.3,0.1c0,0-0.1,0-0.1,0c0,0-0.1,0-0.1-0.1
	c0,0-0.1-0.1-0.1-0.1c0,0,0-0.1,0-0.1c0-0.1,0-0.2,0.1-0.3c0.1-0.1,0.2-0.1,0.3-0.1c0,0,0.1,0,0.1,0s0.1,0,0.1,0.1
	c0,0,0.1,0.1,0.1,0.1C55.9,40.3,55.9,40.4,55.9,40.4z"/>
<path class="st0" d="M56.3,39.9c-0.1,0-0.3-0.2-0.7-0.2c-0.4,0-0.7,0.2-0.8,0.1c0-0.1,0-0.1,0.2-0.2c0.2-0.1,0.4-0.2,0.6-0.2
	c0.2,0,0.4,0.1,0.6,0.2C56.3,39.8,56.3,39.9,56.3,39.9z"/>
<path class="st0" d="M57.8,42.9c0.2-0.1,0.4-0.1,0.7-0.1c0.1,0,0.2,0,0.2-0.1c0-0.1,0-0.2-0.1-0.3l-0.3-0.8c-0.3-0.7-0.5-1.3-0.7-2
	c0.3,0.6,0.6,1.3,0.8,2c0.1,0.3,0.2,0.5,0.3,0.8c0.1,0.1,0.1,0.3,0.1,0.4c0,0,0,0.1-0.1,0.1c0,0-0.1,0-0.1,0.1c-0.1,0-0.1,0-0.2,0
	C58.2,42.9,58,42.9,57.8,42.9z"/>
<path class="st3" d="M57.9,47.6c-1.4,0-2.8-0.4-4-1.1c0,0,0.9,2,3.9,1.8L57.9,47.6z"/>
<path class="st3" d="M57.6,43.8c-0.1-0.1-0.2-0.2-0.3-0.2c-0.1,0-0.2-0.1-0.4-0.1c-0.1,0-0.2,0-0.3,0.1s-0.2,0.1-0.2,0.2
	c-0.1,0.1-0.1,0.1-0.1,0.2s0,0.2,0.1,0.2c0.1,0.1,0.1,0.1,0.2,0.1c0.1,0,0.2,0,0.3,0c0.2-0.1,0.4-0.2,0.5-0.3c0,0,0.1-0.1,0.1-0.1
	C57.6,43.9,57.6,43.9,57.6,43.8C57.6,43.9,57.6,43.8,57.6,43.8"/>
<path class="st0" d="M56.5,43.1c0.1,0,0.1,0.4,0.4,0.7c0.4,0.3,0.9,0.3,0.9,0.3c0,0.1-0.1,0.1-0.3,0.1c-0.3,0-0.5-0.1-0.7-0.3
	c-0.2-0.2-0.3-0.4-0.3-0.6C56.5,43.2,56.5,43.1,56.5,43.1z"/>
<path class="st0" d="M56.4,38.4c0,0.1-0.5,0-0.9,0.1c-0.5,0-0.9,0.2-0.9,0.1c0,0,0-0.1,0.2-0.2c0.2-0.1,0.4-0.2,0.7-0.2
	c0.2,0,0.5,0,0.7,0.1C56.4,38.3,56.5,38.3,56.4,38.4z"/>
<path class="st0" d="M60.2,38.8c-0.1,0.1-0.4,0-0.7,0c-0.3,0-0.6,0.1-0.7,0c0,0,0-0.1,0.1-0.2c0.2-0.1,0.4-0.2,0.6-0.1
	c0.2,0,0.4,0.1,0.6,0.2C60.2,38.7,60.3,38.7,60.2,38.8z"/>
<path class="st0" d="M54.8,34c0.3,0.5,0.5,1,0.6,1.5s0.1,1.1-0.1,1.6c-0.1,0.5-0.4,1-0.7,1.4c-0.3,0.4-0.8,0.8-1.2,1
	c-0.4,0.1-0.7,0.4-0.9,0.6c-0.3,0.4-0.1,0.9-0.1,1.4c0.1,0.6,0,1.3-0.2,1.9c-0.2,0.6-0.5,1.2-0.9,1.6C50.6,44,50,43,49.8,41.8
	c-0.1-0.6-0.2-1.2-0.4-1.8c-0.1-0.3-0.3-0.6-0.4-1c-0.2-0.6-0.2-1.3,0.1-1.9c0.4-1.1,1.3-2.1,2.4-2.6c1.1-0.5,2.4-0.6,3.6-0.2"/>
<path class="st0" d="M49.6,36c-1.3,1.9-0.7,3.1-1.2,4.1c-0.4,0.7-1.3,1-1.9,1.5c-0.8,0.7-1.2,1.8-1.2,2.9c0,1.1,0.4,2.1,0.7,3.1
	l7.2,0c0.6-1.7-0.8-3.5-0.4-5.2c0.2-0.6,0.5-1.1,0.5-1.7c0-0.4-0.1-0.8-0.2-1.2c-0.3-1.1-0.1-2.3,0.3-3.3"/>
<path class="st4" d="M62.1,35.2c0,0,0-0.1-0.2-0.2c-0.2-0.2-0.4-0.4-0.6-0.5c-0.4-0.2-0.8-0.2-1.1-0.2c-0.5,0-1,0.1-1.4,0.3
	c-0.5,0.2-0.9,0.3-1.4,0.4c-0.4,0.1-0.8,0.1-1.2,0.1c-0.3,0-0.5-0.1-0.8-0.2c-0.1,0-0.1-0.1-0.2-0.1c0,0,0,0-0.1,0
	c0,0,0.1,0.1,0.3,0.1c0.2,0.1,0.5,0.2,0.8,0.2c0.4,0,0.8,0,1.2-0.1c0.4-0.1,0.9-0.3,1.4-0.4c0.5-0.2,0.9-0.3,1.4-0.3
	c0.4,0,0.8,0.1,1.2,0.2c0.2,0.1,0.5,0.3,0.6,0.5C62,35,62,35.1,62.1,35.2C62.1,35.1,62.1,35.2,62.1,35.2z"/>
<path class="st4" d="M61,40L61,40c0.1,0.1,0.1,0.1,0.1,0.1c0,0,0.1,0.1,0.1,0.1c0.2,0.2,0.3,0.5,0.3,0.8c0,0.2,0,0.4,0,0.6
	c0,0.2,0,0.4,0,0.7c0,0.2,0,0.5,0.1,0.7c0.1,0.2,0.2,0.5,0.4,0.7c0.2,0.2,0.4,0.3,0.7,0.4c0.2,0.1,0.4,0.3,0.6,0.5
	c0.2,0.4,0.2,0.8,0.1,1.2c-0.1,0.3-0.2,0.5-0.3,0.8c0,0.1-0.1,0.2-0.1,0.2c0,0,0,0,0,0.1c0,0,0,0,0-0.1c0,0,0.1-0.1,0.1-0.2
	c0.1-0.3,0.2-0.5,0.3-0.8c0-0.2,0.1-0.4,0-0.6c0-0.2-0.1-0.4-0.2-0.6c-0.1-0.2-0.3-0.4-0.5-0.5c-0.2-0.1-0.5-0.3-0.7-0.4
	c-0.2-0.2-0.3-0.4-0.4-0.7c-0.1-0.2-0.1-0.5-0.1-0.7c0-0.2,0-0.5,0-0.7c0-0.2,0-0.4,0-0.6c0-0.3-0.1-0.5-0.3-0.8
	C61.1,40.1,61,40,61,40z"/>
<path class="st4" d="M48.8,47.3C48.8,47.3,48.8,47.3,48.8,47.3c0-0.1-0.1-0.1-0.1-0.1c0-0.1-0.1-0.2-0.2-0.4
	c-0.1-0.2-0.1-0.5-0.2-0.7c-0.1-0.3-0.1-0.6,0-1c0.1-0.4,0.2-0.8,0.5-1.1c0.3-0.3,0.6-0.6,1-0.9c0.2-0.1,0.4-0.3,0.5-0.5
	c0.2-0.2,0.3-0.4,0.3-0.7c0.1-0.5,0.1-1-0.1-1.6c-0.1-0.5-0.2-1-0.2-1.6c0-0.3,0.1-0.5,0.2-0.7c0.1-0.2,0.3-0.4,0.5-0.6
	c0.4-0.3,0.8-0.5,1.2-0.7c0.4-0.2,0.8-0.3,1.1-0.4c0.3-0.1,0.6-0.3,0.9-0.5c0.2-0.2,0.4-0.3,0.5-0.5c0.1-0.1,0.1-0.3,0.2-0.4
	c0-0.1,0-0.2,0-0.2c0,0.1,0,0.1,0,0.2c0,0.2-0.1,0.3-0.2,0.4c-0.1,0.2-0.3,0.4-0.5,0.6c-0.3,0.2-0.6,0.4-0.9,0.5
	c-0.3,0.1-0.7,0.3-1.1,0.4c-0.4,0.2-0.8,0.4-1.2,0.7c-0.2,0.2-0.3,0.4-0.4,0.6c-0.1,0.2-0.2,0.5-0.2,0.7c0,0.5,0.1,1.1,0.2,1.6
	c0.1,0.5,0.2,1.1,0.1,1.6c-0.1,0.3-0.2,0.5-0.3,0.7c-0.2,0.2-0.3,0.4-0.6,0.5c-0.4,0.3-0.7,0.6-1,0.9c-0.2,0.3-0.4,0.7-0.5,1.1
	c-0.1,0.6,0,1.1,0.1,1.7c0.1,0.2,0.1,0.3,0.2,0.4L48.8,47.3C48.7,47.3,48.8,47.3,48.8,47.3z"/>
<path class="st4" d="M54.9,34.7C54.9,34.7,54.8,34.7,54.9,34.7h-0.2c-0.1,0-0.3,0-0.6,0c-0.7,0-1.3,0-2,0.2
	c-0.5,0.1-0.9,0.3-1.3,0.6c-0.4,0.3-0.8,0.7-1,1.2c-0.2,0.5-0.3,1.1-0.3,1.7c0,0.6,0,1.2-0.1,1.8c-0.1,0.3-0.2,0.6-0.3,0.9
	c-0.2,0.3-0.4,0.5-0.7,0.6C48,42,47.4,42.2,47,42.5c-0.4,0.3-0.7,0.8-0.8,1.3c-0.1,0.4-0.1,0.9,0,1.3c0.1,0.4,0.2,0.7,0.4,1
	c0.1,0.2,0.3,0.5,0.4,0.7c0.1,0.2,0.2,0.3,0.3,0.4l0.1,0.1c0,0,0,0,0,0l0,0l-0.1-0.1c-0.1-0.1-0.2-0.2-0.3-0.4
	c-0.2-0.2-0.3-0.5-0.5-0.7c-0.2-0.3-0.3-0.7-0.4-1c-0.1-0.4-0.1-0.9,0-1.3c0.1-0.5,0.4-1,0.8-1.3c0.4-0.4,1-0.6,1.5-0.9
	c0.3-0.2,0.5-0.4,0.6-0.6c0.2-0.3,0.3-0.6,0.3-0.9c0.1-0.6,0.1-1.2,0.1-1.8c0-0.6,0.1-1.1,0.3-1.7c0.2-0.5,0.6-0.9,1-1.2
	c0.4-0.3,0.8-0.5,1.3-0.6c0.7-0.2,1.3-0.2,2-0.2c0.2,0,0.4,0,0.5,0.1L54.9,34.7L54.9,34.7z"/>
<path class="st4" d="M51.1,47.6c0.2-0.1,0.3-0.2,0.5-0.3c0.2-0.2,0.3-0.3,0.4-0.5c0.1-0.3,0.2-0.5,0.2-0.8c0-0.4,0-0.7-0.1-1
	c-0.1-0.4-0.2-0.8-0.4-1.2c-0.2-0.4-0.3-0.9-0.4-1.3c-0.1-0.5-0.1-1,0-1.5c0.1-0.2,0.2-0.5,0.3-0.7c0.1-0.2,0.3-0.4,0.5-0.5
	c0.4-0.3,0.8-0.6,1.1-0.8c0.3-0.2,0.7-0.5,0.9-0.8c0.2-0.3,0.4-0.6,0.6-0.9c0.2-0.5,0.3-1,0.3-1.5c0-0.1,0-0.2,0-0.2
	c0-0.1,0-0.1,0-0.2l0-0.1c0,0,0,0,0,0c0,0.2,0.1,0.4,0.1,0.6c0,0.5-0.1,1-0.3,1.5c-0.1,0.3-0.3,0.6-0.6,0.9
	c-0.3,0.3-0.6,0.6-0.9,0.8c-0.4,0.3-0.7,0.5-1.1,0.8c-0.2,0.2-0.3,0.3-0.5,0.5c-0.1,0.2-0.2,0.4-0.3,0.7c-0.1,0.5-0.1,1,0,1.4
	c0.1,0.4,0.2,0.9,0.4,1.3c0.2,0.4,0.3,0.8,0.4,1.2c0.1,0.3,0.1,0.7,0.1,1.1c0,0.3-0.1,0.6-0.2,0.9c-0.1,0.2-0.2,0.4-0.4,0.5
	c-0.1,0.1-0.2,0.2-0.4,0.2L51.1,47.6L51.1,47.6z"/>
<path class="st0" d="M55.2,36c0.8,0.5,1.6,1,2.5,1c0.5-0.1,1.1-0.2,1.6-0.4c0.5-0.2,1.1-0.2,1.6,0c0.3,0,0.4-0.4,0.3-0.7
	c-0.2-0.2-0.4-0.4-0.7-0.5c-1.7-0.5-3.3,0.1-5.2,0.2"/>
<path class="st4" d="M62,36.4c0-0.1,0.1-0.2,0.1-0.3c0-0.1,0-0.3-0.1-0.4c-0.1-0.1-0.2-0.2-0.3-0.3c-0.2-0.1-0.3-0.1-0.5-0.2
	c-0.2,0-0.4,0-0.6,0.1c-0.4,0.1-0.9,0.4-1.4,0.7c-0.2,0.1-0.5,0.2-0.8,0.2c-0.2,0-0.5,0.1-0.7,0.1c-0.4,0-0.8-0.1-1.2-0.2
	c-0.3-0.1-0.5-0.2-0.7-0.4c-0.1,0-0.1-0.1-0.2-0.1c0,0,0,0-0.1-0.1c0.3,0.2,0.6,0.4,1,0.5c0.6,0.2,1.3,0.3,1.9,0.2
	c0.3,0,0.5-0.1,0.8-0.2c0.5-0.2,0.9-0.5,1.4-0.7c0.2-0.1,0.4-0.1,0.7-0.1c0.2,0,0.4,0.1,0.6,0.2c0.1,0.1,0.2,0.2,0.3,0.4
	c0.1,0.1,0.1,0.2,0.1,0.3C62.1,36.2,62.1,36.3,62,36.4C62,36.4,62,36.4,62,36.4z"/>
<path class="st0" d="M102.9,21.1c0.5,0.1,1,0.2,1.6,0.1c0.5-0.1,1-0.3,1.4-0.6c0.4-0.3,0.8-0.7,1-1.2c0.2-0.5,0.3-1,0.3-1.5
	c0-0.9-0.5-1.9-0.2-2.8c0.2-0.6,0.7-1.1,0.9-1.7c0.3-0.9-0.3-1.9-0.9-2.7c-0.3-0.5-0.7-1-1.2-1.4c-0.2-0.2-0.5-0.4-0.8-0.4
	c-0.3-0.1-0.6-0.1-1-0.1"/>
<path class="st0" d="M93.8,8.9c0.1,0.7-0.4,1.3-0.9,1.9c-0.5,0.5-1,1.1-1.1,1.8c-0.2,1.2,1.1,2.4,0.8,3.6c-0.1,0.7-0.7,1.2-0.8,1.9
	c-0.1,0.7,0.3,1.3,0.7,1.8c0.5,0.5,1,0.9,1.4,1.4c0,0,0.8,1.3,3.4,0.5"/>
<path class="st0" d="M105.2,10c0-0.6-0.6-1.1-1.2-1.4c-0.6-0.2-1.3-0.3-1.9-0.7c-0.5-0.3-0.8-0.8-1.3-1.2c-0.5-0.5-1.2-0.9-1.9-1
	c-0.7-0.2-1.5-0.2-2.2,0c-0.7,0.2-1.4,0.5-1.9,1.1c-0.5,0.5-0.9,1.1-1.1,1.8c-0.2,0.9-0.1,2,0.7,2.6c0.9,0.7,2.2,0.6,3.3,0.3
	c1.1-0.2,2.4-0.4,3.3,0.2c0.6,0.4,0.9,1,1.2,1.6c0.3,0.6,0.8,1.2,1.4,1.4c0.7,0.2,1.5-0.2,1.6-0.8"/>
<path class="st5" d="M102.6,10.1c0.3,0,0.5,0.2,0.7,0.4c0.2,0.2,0.3,0.5,0.3,0.7l-0.7,14.6c0,1.7-2.7,2.7-4.6,2.6c-1.9,0-2-1-2-2.6
	c0-2.7,0-3.8,0-3.7c0,0-2.5-0.4-3-3.5c-0.2-1.5-0.2-4,0-6.1c0.1-1.8,1.4-4.1,3.3-3.9L102.6,10.1z"/>
<path class="st0" d="M93.9,14.4c0,0.1,0,0.2,0.1,0.3c0.1,0.1,0.2,0.1,0.3,0.1c0.1,0,0.1,0,0.2,0c0,0,0.1,0,0.1-0.1
	c0,0,0.1-0.1,0.1-0.1c0,0,0-0.1,0-0.1c0-0.1,0-0.2-0.1-0.3c-0.1-0.1-0.2-0.1-0.3-0.1c-0.1,0-0.1,0-0.2,0c-0.1,0-0.1,0-0.1,0.1
	c0,0-0.1,0.1-0.1,0.1S93.9,14.4,93.9,14.4z"/>
<path class="st0" d="M93.9,13.7c0.1,0.1,0.4-0.2,0.8-0.2c0.4,0,0.8,0.2,0.8,0.2c0-0.1,0-0.1-0.2-0.2c-0.2-0.1-0.4-0.2-0.7-0.2
	c-0.2,0-0.4,0.1-0.6,0.2C93.9,13.5,93.8,13.6,93.9,13.7z"/>
<path class="st0" d="M98.3,14.5c0,0.1,0,0.2,0.1,0.3c0.1,0.1,0.2,0.1,0.3,0.1c0.1,0,0.1,0,0.2,0c0.1,0,0.1,0,0.1-0.1
	c0,0,0.1-0.1,0.1-0.1c0,0,0-0.1,0-0.1c0-0.1,0-0.2-0.1-0.3c-0.1-0.1-0.2-0.1-0.3-0.1c-0.1,0-0.1,0-0.2,0c0,0-0.1,0-0.1,0.1
	c0,0-0.1,0.1-0.1,0.1C98.3,14.4,98.3,14.5,98.3,14.5z"/>
<path class="st0" d="M98.2,13.9c0.1,0.1,0.4-0.2,0.8-0.2c0.4,0,0.8,0.2,0.8,0.2c0-0.1,0-0.1-0.2-0.2c-0.2-0.1-0.4-0.2-0.7-0.2
	c-0.2,0-0.5,0.1-0.6,0.2C98.2,13.8,98.2,13.9,98.2,13.9z"/>
<path class="st0" d="M96.6,17.1c-0.2-0.1-0.5-0.1-0.7-0.1c-0.1,0-0.2,0-0.2-0.1c0-0.1,0-0.2,0.1-0.3l0.3-0.8
	c0.3-0.7,0.6-1.4,0.8-2.1c-0.1,0-0.5,0.9-0.9,2.1c-0.1,0.3-0.2,0.6-0.3,0.8c-0.1,0.1-0.1,0.3-0.1,0.4c0,0,0,0.1,0.1,0.1
	c0,0,0.1,0,0.1,0.1c0.1,0,0.1,0,0.2,0C96.1,17.1,96.4,17.1,96.6,17.1z"/>
<path class="st6" d="M96.3,22.1c1.5,0,3-0.3,4.3-1.1c0,0-1.1,2.1-4.3,1.8V22.1z"/>
<path class="st6" d="M96.8,18.1c0.1-0.1,0.2-0.2,0.3-0.2c0.1,0,0.3-0.1,0.4-0.1c0.1,0,0.2,0,0.3,0.1c0.1,0,0.2,0.1,0.2,0.2
	c0.1,0.1,0.1,0.2,0.1,0.2c0,0.1,0,0.2-0.1,0.3c-0.1,0.1-0.2,0.1-0.3,0.2c-0.1,0-0.2,0-0.3,0c-0.2-0.1-0.4-0.2-0.6-0.3
	c0,0-0.1-0.1-0.1-0.1C96.7,18.2,96.7,18.2,96.8,18.1C96.7,18.2,96.7,18.1,96.8,18.1"/>
<path class="st0" d="M98,13.2c0,0.1,0.5,0.1,1,0.1s0.9,0.2,1,0.1c0,0,0-0.2-0.2-0.3c-0.2-0.1-0.5-0.2-0.7-0.3c-0.3,0-0.5,0-0.8,0.1
	C98.1,13.1,98,13.1,98,13.2z"/>
<path class="st0" d="M94,12.6c0.1,0.1,0.4,0,0.7,0c0.4,0,0.7,0.1,0.7,0c0,0,0-0.1-0.2-0.2c-0.2-0.1-0.4-0.2-0.6-0.2
	c-0.2,0-0.4,0.1-0.6,0.2C94,12.5,94,12.6,94,12.6z"/>
<path class="st0" d="M104.8,20.2c-0.4,0.1-0.9,0.1-1.3,0c-0.4-0.1-0.8-0.3-1.2-0.6c-0.3-0.3-0.6-0.7-0.7-1.1s-0.2-0.8-0.2-1.3
	c0.1-0.8,0.5-1.5,0.2-2.2c-0.4-0.9-1.7-1.2-2.1-2.2c-0.2-0.5,0-1.2-0.3-1.7c-0.2-0.5-0.8-0.8-1.3-1c-0.5-0.2-1.1-0.3-1.6-0.7
	C96,9.1,95.7,8.5,96,8c2.4,0.3,4.7,0.8,7,1.6c0.5,0.2,1.1,0.4,1.4,0.9c0.3,0.4,0.3,1.1,0.3,1.6l-0.4,8.3"/>
<path class="st4" d="M106.5,10.2c0,0,0,0.1,0.1,0.1c0,0.1,0,0.1,0,0.2c0,0.1-0.1,0.1-0.1,0.2c-0.1,0.1-0.2,0.1-0.3,0.2
	c-0.1,0-0.2,0.1-0.3,0.1c-0.3,0-0.6-0.1-0.8-0.2c-0.3-0.2-0.6-0.2-0.9-0.3c-0.4,0-0.8,0-1.1,0.1c-0.4,0.1-0.8,0.1-1.3,0.2
	c-0.5,0-1-0.1-1.3-0.5c-0.3-0.3-0.6-0.7-0.8-1.1c-0.2-0.4-0.4-0.7-0.6-1.1c-0.2-0.3-0.5-0.5-0.8-0.6c-0.3-0.1-0.7-0.1-1-0.1
	c-0.5,0.1-0.9,0.4-1.1,0.8c-0.1,0.1-0.2,0.3-0.2,0.5c0,0,0-0.1,0-0.1c0-0.1,0.1-0.2,0.2-0.4c0.1-0.2,0.3-0.4,0.5-0.5
	c0.2-0.1,0.4-0.3,0.7-0.3c0.3-0.1,0.7-0.1,1,0c0.4,0.1,0.7,0.3,1,0.6c0.2,0.3,0.5,0.7,0.6,1.1c0.2,0.4,0.4,0.8,0.7,1.1
	c0.3,0.3,0.8,0.4,1.2,0.4c0.4,0,0.8-0.1,1.3-0.1c0.4-0.1,0.8-0.1,1.2-0.1c0.3,0,0.7,0.1,1,0.3c0.2,0.1,0.5,0.2,0.8,0.2
	c0.2,0,0.4-0.1,0.5-0.2c0,0,0.1-0.1,0.1-0.1c0-0.1,0-0.1,0-0.2C106.5,10.3,106.5,10.2,106.5,10.2z"/>
<path class="st0" d="M104.7,9.4c-0.5-0.1-1-0.4-1.3-0.8c-0.3-0.4-0.5-0.9-0.5-1.4c0-0.5,0.2-1,0.6-1.4c0.4-0.4,0.8-0.7,1.4-0.7
	c0.3-0.1,0.5-0.1,0.8,0c0.2,0.1,0.5,0.2,0.6,0.4c0.3,0.4,0.3,1,0.6,1.3c0.4,0.3,1,0.2,1.5,0.3c0.4,0.1,0.7,0.3,1,0.7
	c0.2,0.3,0.3,0.7,0.3,1.1c-0.1,0.4-0.2,0.8-0.5,1.1c-0.3,0.3-0.6,0.5-1,0.7c-0.8,0.3-1.6,0.3-2.4,0c-0.8-0.2-1.5-0.6-2.2-1"/>
<path class="st4" d="M108.6,7.1c0,0.2-0.1,0.4-0.2,0.6c-0.3,0.4-0.6,0.8-1.1,1c-0.4,0.3-0.9,0.4-1.4,0.5c-0.2,0-0.4,0-0.6,0
	c0,0,0.2,0,0.6-0.1c0.5-0.1,1-0.2,1.4-0.5c0.4-0.3,0.8-0.6,1.1-1C108.3,7.5,108.4,7.3,108.6,7.1z"/>
<path class="st1" d="M106.9,10.5c-0.4-0.5-0.9-1-1.5-1.3c-0.6-0.3-1.2-0.5-1.9-0.6c0.2,0,0.4,0,0.6,0c0.5,0.1,1,0.2,1.4,0.5
	c0.4,0.2,0.8,0.5,1.1,0.9C106.7,10.2,106.8,10.3,106.9,10.5z"/>
<path class="st0" d="M98.3,17.7c-0.2,0.3-0.5,0.5-0.8,0.6c-0.3,0.2-0.6,0.3-1,0.3c0.3-0.2,0.6-0.3,0.9-0.5
	C97.7,18,98,17.9,98.3,17.7z"/>
<path class="st1" d="M106.6,10.2c0,0,0.1,0,0.1,0c0.1,0,0.2-0.1,0.4-0.1c0.4-0.1,0.9,0,1.3,0c0.3,0.1,0.6,0.2,0.9,0.3
	c0.1,0,0.2,0.1,0.2,0.2c0,0.1,0.1,0.2,0.1,0.3c0,0.1-0.1,0.2-0.2,0.3c-0.1,0.1-0.2,0.1-0.3,0.1c-0.2,0-0.4,0-0.6,0
	c-0.2,0-0.4,0-0.6-0.1c-0.2,0-0.4-0.1-0.6-0.2c-0.2-0.1-0.4-0.2-0.5-0.4c-0.1-0.1-0.1-0.2-0.1-0.3s0-0.2,0-0.3
	c0-0.2,0.1-0.4,0.1-0.6c0.1-0.4,0.2-0.7,0.4-1.1c0.1-0.1,0.1-0.2,0.2-0.2c0.1-0.1,0.2-0.1,0.3-0.1c0.1,0,0.2,0,0.3,0
	c0.1,0,0.2,0.1,0.2,0.2c0.1,0.2,0,0.3,0,0.5c-0.1,0.1-0.1,0.3-0.2,0.4c-0.2,0.4-0.5,0.7-0.9,1c-0.1,0.1-0.2,0.1-0.3,0.2
	c-0.1,0-0.1,0.1-0.1,0c0,0,0.1-0.1,0.4-0.3c0.3-0.3,0.6-0.6,0.8-1c0.1-0.1,0.1-0.2,0.2-0.4c0.1-0.1,0.1-0.3,0-0.4
	c0-0.1-0.1-0.1-0.2-0.1c-0.1,0-0.1,0-0.2,0c-0.1,0-0.1,0.1-0.2,0.1c-0.1,0-0.1,0.1-0.2,0.2c-0.2,0.3-0.3,0.7-0.4,1
	c-0.1,0.4-0.3,0.8,0,1.1c0.3,0.3,0.6,0.4,1,0.5c0.2,0,0.4,0.1,0.6,0.1c0.2,0,0.4,0,0.5,0c0.2,0,0.3-0.1,0.3-0.3c0-0.1,0-0.1,0-0.2
	c0-0.1-0.1-0.1-0.1-0.2c-0.3-0.1-0.5-0.2-0.8-0.3c-0.4-0.1-0.9-0.1-1.3-0.1C106.7,10.2,106.6,10.2,106.6,10.2z"/>
<path class="st4" d="M103.3,8.5C103.3,8.5,103.3,8.5,103.3,8.5c-0.1,0.2-0.2,0.2-0.2,0.3c-0.2,0.1-0.3,0.2-0.5,0.2
	c-0.2,0-0.4,0-0.6,0c-0.5-0.1-1-0.4-1.4-0.8c-0.4-0.4-0.8-0.9-1.4-1.2c-0.6-0.3-1.2-0.4-1.8-0.2c-0.5,0.1-1,0.4-1.3,0.8
	c-0.2,0.3-0.4,0.6-0.5,0.9c-0.1,0.2-0.1,0.4-0.1,0.4c0,0,0,0,0-0.1c0-0.1,0-0.2,0-0.3c0.1-0.4,0.3-0.8,0.6-1.1
	c0.3-0.3,0.7-0.6,1.2-0.7c0.7-0.2,1.4-0.1,2,0.2c0.6,0.3,1,0.9,1.5,1.3c0.3,0.4,0.8,0.7,1.3,0.8c0.3,0.1,0.7,0,1-0.2
	C103.1,8.7,103.2,8.6,103.3,8.5z"/>
<path class="st1" d="M91.1,27.9c0,0-2.3,1.4-2.5,4.7c-0.3,3.4-1,10.4-1,10.4l-8.6,2l1,4.9L94,46.2L91.1,27.9z"/>
<path class="st1" d="M103.2,24l1.4,1.5c0,0,3.7,0.8,4.5,1.2c0.8,0.3-1.3,7.5-1.3,7.5l0.3,14.7c0,0.3,0,0.5-0.2,0.8
	c-0.1,0.2-0.3,0.5-0.5,0.6c-0.2,0.2-0.4,0.3-0.7,0.4c-0.3,0.1-0.5,0.1-0.8,0.1l-13.9-1.2L91,32.9l0.1-5.1l3.3-1.1l1.9-1.8l1.5,3.3
	L103.2,24z"/>
<path class="st1" d="M109.1,26.6c0,0,2.8,1,3.1,5.1c0.2,2.7,1.1,7.3,1.8,10.1c0.2,0.8,0.2,1.6,0.1,2.4c-0.1,0.8-0.5,1.6-0.9,2.2
	c-0.6,0.8-1.3,1.5-2.2,2c-0.9,0.5-1.9,0.8-2.9,0.8l-6,0.3l-2.5-3.9l6.7-1.9l1.6-9.3L109.1,26.6z"/>
<path class="st0" d="M110.3,46c0-0.1-0.1-0.3-0.1-0.4c-0.1-0.4-0.2-0.8-0.4-1.2c-0.2-0.6-0.6-1-1.2-1.4c-0.3-0.2-0.6-0.3-1-0.4
	c-0.4,0-0.8,0-1.2,0.1c-1.4,0.3-2.8,0.6-4.1,1.1l-1.2,0.4c-0.1,0.1-0.3,0.1-0.5,0.1c0.1-0.1,0.3-0.1,0.4-0.2l1.2-0.4
	c1.3-0.5,2.7-0.8,4.1-1.1c0.4-0.1,0.8-0.1,1.2-0.1c0.4,0.1,0.8,0.2,1.1,0.4c0.5,0.4,0.9,0.9,1.2,1.5c0.2,0.4,0.3,0.8,0.3,1.2
	C110.3,45.7,110.3,45.9,110.3,46z"/>
<path class="st0" d="M106.5,34.5c0,0.1,0,0.2,0.1,0.3c0,0.2,0,0.5,0.1,0.8c0,0.7,0.1,1.7,0.1,2.7c0,0.9,0.1,1.8,0.3,2.7
	c0.1,0.7,0.3,1.1,0.3,1.1c-0.1-0.1-0.1-0.2-0.1-0.3c0-0.1-0.1-0.2-0.1-0.3c0-0.1-0.1-0.3-0.1-0.5c-0.2-0.9-0.3-1.8-0.4-2.7
	c-0.1-1.1-0.1-2-0.1-2.7c0-0.3,0-0.6,0-0.8C106.5,34.7,106.5,34.6,106.5,34.5z"/>
<path class="st0" d="M112.5,47.5c-0.1,0.1-0.2,0.2-0.3,0.3c-0.3,0.3-0.6,0.5-1,0.7c-1.2,0.7-2.5,1.1-3.9,1.2c-0.8,0-1.5,0-2.2-0.2
	c-0.7-0.1-1.3-0.4-1.8-0.5c-0.4-0.1-0.8-0.1-1.2-0.2c-0.2,0-0.3,0-0.4-0.1c0,0,0.2,0,0.4,0c0.4,0,0.8,0,1.2,0.1
	c0.5,0.1,1.1,0.3,1.8,0.4c0.7,0.1,1.5,0.2,2.2,0.1c1.3-0.1,2.6-0.5,3.8-1.1C111.6,48.1,112.1,47.8,112.5,47.5z"/>
<path class="st0" d="M104.6,39.6c-0.1,0.1-0.2,0.2-0.3,0.3c-0.3,0.3-0.5,0.6-0.8,0.8c-0.4,0.4-0.9,0.8-1.3,1.1
	c-0.6,0.4-1.2,0.8-1.8,1.1c-0.6,0.3-1.3,0.6-2,0.9c-0.5,0.2-1.1,0.4-1.7,0.5c-0.4,0.1-0.8,0.2-1.2,0.2c-0.1,0-0.3,0-0.4,0
	c0.1,0,0.3-0.1,0.4-0.1c0.3-0.1,0.7-0.1,1.1-0.3c0.6-0.2,1.1-0.3,1.7-0.5c0.7-0.3,1.3-0.6,1.9-0.9c0.6-0.3,1.2-0.7,1.8-1.1
	c0.5-0.4,1-0.7,1.3-1.1c0.4-0.3,0.7-0.6,0.8-0.8C104.3,39.7,104.4,39.6,104.6,39.6z"/>
<g class="st7">
	<path d="M96,44.4c-0.4-0.3-0.1-1,0.3-1.2c0.4-0.2,1-0.2,1.5-0.2c1.3,0,2.5-0.5,3.4-1.2c0.7-0.6,1.3-1.3,2.3-1.4
		c-0.2,0.7-1.1,1.4-1.7,1.8c-1.8,1.2-3.9,1.7-6,2.4"/>
</g>
<path class="st0" d="M104.3,25.7c-0.1,0.1-0.1,0.2-0.2,0.2c-0.1,0.1-0.4,0.3-0.6,0.6c-0.5,0.5-1.3,1.1-2.1,1.8
	c-0.4,0.3-0.8,0.7-1.3,0.9c-0.2,0.1-0.4,0.2-0.7,0.2c-0.2,0-0.4,0-0.6-0.1c-0.3-0.1-0.5-0.3-0.7-0.5c0-0.1-0.1-0.1-0.1-0.2
	c0,0,0-0.1,0-0.1c0,0,0,0.1,0.1,0.3c0.2,0.2,0.4,0.4,0.7,0.4c0.2,0.1,0.4,0.1,0.6,0c0.2,0,0.4-0.1,0.6-0.2c0.4-0.3,0.8-0.6,1.2-0.9
	c0.8-0.7,1.6-1.3,2.1-1.8c0.3-0.2,0.5-0.4,0.7-0.5C104.2,25.8,104.2,25.7,104.3,25.7z"/>
<path class="st0" d="M97.4,28.4c-0.1,0.2-0.3,0.4-0.5,0.5c-0.2,0.2-0.4,0.3-0.6,0.4c-0.1,0-0.2,0.1-0.2,0.1c-0.1,0-0.2,0-0.3,0
	c-0.2-0.1-0.3-0.2-0.3-0.4c-0.3-0.6-0.5-1.1-0.7-1.5c-0.1-0.2-0.2-0.4-0.2-0.6c0.1,0.2,0.3,0.4,0.3,0.6c0.2,0.4,0.5,0.9,0.7,1.5
	c0.1,0.1,0.1,0.3,0.2,0.3c0.1,0,0.1,0,0.2,0c0.1,0,0.1,0,0.2-0.1c0.2-0.1,0.4-0.2,0.6-0.4C97.2,28.6,97.4,28.3,97.4,28.4z"/>
<path class="st0" d="M97.4,35c0,0,0-1.5,0.1-3.4c0.1-1.9,0.2-3.4,0.3-3.4c0,0,0,1.5-0.1,3.4C97.6,33.5,97.5,35,97.4,35z"/>
<path class="st0" d="M91.4,34.3c-0.1-0.6-0.1-1.3,0-1.9C91.5,33.1,91.5,33.7,91.4,34.3z"/>
<path class="st8" d="M103.6,28.5C103.6,28.5,103.6,28.5,103.6,28.5C103.6,28.5,103.6,28.5,103.6,28.5
	C103.6,28.5,103.6,28.5,103.6,28.5z"/>
<path class="st8" d="M104.2,28.6C104.2,28.6,104.2,28.6,104.2,28.6C104.2,28.6,104.2,28.6,104.2,28.6
	C104.2,28.6,104.2,28.6,104.2,28.6l0.1,0c0.1,0,0.2,0,0.3,0c0,0,0,0,0,0s0,0,0,0c0,0,0,0,0,0c0.1,0,0,0,0.1,0c0.1,0,0,0,0.1,0
	c0,0,0,0,0,0s0,0,0,0c0,0,0,0,0,0c0,0,0,0,0,0c0,0,0,0,0.1,0c0,0,0,0,0,0h0c0,0,0,0,0.1,0c0.1,0,0.1,0,0.2,0h0c0,0,0,0,0,0h0.3
	c0,0,0,0,0,0s0,0,0,0c0,0,0,0,0,0h0c0,0,0,0,0,0h0.1c0,0,0,0,0,0h0c0,0,0.1,0,0.1,0c0,0,0-0.3,0-0.3h0c0,0,0,0,0,0c0,0,0,0,0,0
	c0,0,0,0,0,0c0,0,0,0,0,0c0,0,0,0,0,0c0,0,0,0-0.1,0c0,0,0,0,0,0c0,0,0,0,0,0l-0.4,0h-0.4c0,0,0,0,0,0c0,0,0,0-0.1,0
	c-0.1,0-0.2,0-0.3,0c0,0-0.1,0-0.1,0c0,0-0.2,0-0.2,0c0,0,0,0,0,0c0,0,0,0,0,0c0,0,0,0-0.1,0c0,0,0,0-0.1,0c0,0-0.1,0-0.1,0l0,0
	c0,0-0.1,0.2-0.1,0.3c0,0,0,0,0,0h0c0,0,0,0,0,0c0,0,0,0,0,0c0.1,0,0.2,0.1,0.3,0.1h0.1C104.1,28.6,104.1,28.6,104.2,28.6z"/>
<path class="st8" d="M103.8,29.7C103.8,29.7,103.8,29.7,103.8,29.7C103.8,29.7,103.8,29.7,103.8,29.7
	C103.8,29.7,103.8,29.7,103.8,29.7z"/>
<path class="st8" d="M104.2,29.8C104.2,29.8,104.2,29.8,104.2,29.8C104.2,29.8,104.2,29.8,104.2,29.8c0.1,0,0.2,0,0.3,0c0,0,0,0,0,0
	c0,0,0,0,0,0s0,0,0,0c0,0,0,0,0,0c0,0,0,0,0,0c0,0,0,0,0,0s0,0,0,0c0,0,0,0,0,0c0,0,0,0,0,0c0,0,0,0,0,0c0,0,0,0,0,0
	c0,0,0.1,0,0.1,0h0c0,0,0,0,0,0l0.2,0v0c0,0,0,0,0,0c0,0,0,0,0,0h0.1c0,0,0,0,0,0c0,0,0.1,0,0.1,0c0,0,0,0,0.1,0c0,0,0-0.3,0-0.3
	c0,0,0,0,0,0s0,0,0,0s0,0,0,0c0,0,0,0,0,0c0,0,0,0,0,0c0,0,0,0,0,0c0,0-0.2,0-0.2,0c-0.1,0-0.2,0-0.3,0c0,0,0,0,0,0c0,0,0,0,0,0
	c-0.1,0-0.1,0-0.2,0c0,0,0,0-0.1,0c0,0-0.1,0-0.1,0c0,0,0,0,0,0c0,0,0,0,0,0c0,0,0,0,0,0c0,0,0,0,0,0c0,0-0.1,0-0.1,0l0,0
	c0,0-0.1,0.2-0.1,0.3c0,0,0,0,0,0c0.1,0,0.1,0,0.2,0L104.2,29.8C104.1,29.8,104.2,29.8,104.2,29.8z"/>
<path class="st8" d="M103.3,31.8C103.3,31.8,103.3,31.8,103.3,31.8C103.3,31.8,103.3,31.8,103.3,31.8
	C103.3,31.8,103.3,31.8,103.3,31.8C103.3,31.8,103.3,31.8,103.3,31.8z"/>
<path class="st8" d="M103.7,31.8C103.8,31.8,103.7,31.8,103.7,31.8C103.8,31.8,103.8,31.8,103.7,31.8c0.1,0,0.3,0,0.3,0c0,0,0,0,0,0
	c0,0,0,0,0,0c0,0,0,0,0,0c0,0,0,0,0,0c0,0,0,0,0,0c0,0,0,0,0,0c0,0,0,0,0,0c0,0,0,0,0,0c0,0,0,0,0,0c0,0,0,0,0,0c0,0,0,0,0,0
	c0,0,0.1,0,0.1,0c0,0,0,0,0,0s0.2,0,0.2,0v0c0,0,0,0,0,0c0,0,0,0,0,0h0c0,0,0,0,0,0c0,0,0.1,0,0.1,0c0,0,0,0,0.1,0c0,0,0-0.3,0-0.3
	c0,0,0,0,0,0c0,0,0,0,0,0c0,0,0,0,0,0c0,0,0,0,0,0c0,0,0,0,0,0c0,0,0,0,0,0c0,0,0,0,0,0c0,0,0,0,0,0c-0.1,0-0.2,0-0.3,0
	c-0.1,0-0.2,0-0.3,0c0,0,0,0,0,0c0,0,0,0,0,0c-0.1,0-0.2,0-0.3,0c0,0,0,0-0.1,0s-0.2,0-0.2,0c0,0,0,0,0,0c0,0,0,0,0,0c0,0,0,0-0.1,0
	c0,0,0,0-0.1,0c0,0-0.1,0-0.1,0l0,0c0,0,0,0.2,0,0.3c0,0,0,0,0,0c0.1,0,0.1,0,0.2,0c0,0,0,0,0.1,0C103.6,31.8,103.7,31.8,103.7,31.8
	z"/>
<path class="st8" d="M103.6,33.6C103.6,33.6,103.6,33.6,103.6,33.6C103.6,33.6,103.6,33.6,103.6,33.6
	C103.6,33.6,103.6,33.6,103.6,33.6z"/>
<path class="st8" d="M104,33.6C104,33.6,104,33.6,104,33.6C104,33.6,104,33.6,104,33.6c0.1,0,0.2,0,0.3,0c0,0,0,0,0,0c0,0,0,0,0,0
	c0,0,0,0,0,0c0,0,0,0,0,0c0,0,0,0,0,0c0,0,0,0,0,0c0,0,0,0,0,0c0,0,0,0,0,0c0,0,0,0,0,0c0,0,0,0,0,0c0,0,0.1,0,0.1-0.1c0,0,0,0,0,0
	s0.2,0,0.2,0c0,0,0,0,0,0c0,0,0,0,0,0h0c0,0,0,0,0,0h0.1c0,0,0,0,0.1,0c0,0,0-0.3,0-0.3c0,0,0,0,0,0c0,0,0,0,0,0s0,0,0,0
	c0,0,0,0,0,0c0,0,0,0,0,0c0,0,0,0,0,0c0,0-0.2,0-0.2,0.1c-0.1,0-0.2,0-0.3,0.1c0,0,0,0,0,0c0,0,0,0,0,0c-0.1,0-0.1,0-0.2,0
	c0,0,0,0-0.1,0c0,0-0.1,0-0.1,0c0,0,0,0,0,0c0,0,0,0,0,0l0,0c0,0,0,0,0,0c0,0-0.1,0-0.1,0l0,0c0,0,0,0.2,0.1,0.3c0,0,0,0,0,0
	c0.1,0,0.1,0,0.2,0h0C103.9,33.6,103.9,33.6,104,33.6z"/>
<path class="st8" d="M103.4,35.5C103.4,35.5,103.4,35.5,103.4,35.5C103.4,35.5,103.4,35.5,103.4,35.5z"/>
<path class="st8" d="M103.8,35.5C103.8,35.5,103.8,35.5,103.8,35.5C103.8,35.5,103.8,35.5,103.8,35.5c0.1,0,0.2,0,0.3,0c0,0,0,0,0,0
	c0,0,0,0,0,0c0,0,0,0,0,0c0,0,0,0,0,0c0,0,0,0,0,0c0,0,0,0,0,0c0,0,0,0,0,0c0,0,0,0,0,0c0,0,0,0,0,0c0,0,0,0,0,0c0,0,0.1,0,0.1,0
	c0,0,0,0,0,0c0,0,0.2,0,0.2,0v0c0,0,0,0,0,0c0,0,0,0,0,0c0,0,0,0,0,0c0,0,0,0,0.1,0c0,0,0,0,0.1,0c0,0,0-0.3,0-0.3c0,0,0,0,0,0
	c0,0,0,0,0,0s0,0,0,0s0,0,0,0c0,0,0,0,0,0c0,0,0,0,0,0c0,0,0,0,0,0c0,0-0.2,0-0.2,0c-0.1,0-0.2,0-0.3,0c0,0,0,0,0,0c0,0,0,0,0,0
	c-0.1,0-0.1,0-0.2,0c0,0,0,0-0.1,0c0,0-0.1,0-0.1,0c0,0,0,0,0,0c0,0,0,0,0,0c0,0,0,0,0,0c0,0,0,0,0,0c0,0-0.1,0-0.1,0l0,0
	c0,0,0,0.2,0,0.3c0,0,0,0,0,0c0.1,0,0.1,0,0.2,0h0C103.6,35.5,103.7,35.5,103.8,35.5z"/>
<path class="st8" d="M103.4,37.1C103.4,37.1,103.4,37.1,103.4,37.1C103.5,37.1,103.5,37.1,103.4,37.1
	C103.5,37.1,103.4,37.1,103.4,37.1z"/>
<path class="st8" d="M103.8,37.2C103.8,37.2,103.8,37.2,103.8,37.2C103.9,37.2,103.9,37.2,103.8,37.2c0.1,0,0.2,0,0.3,0.1
	c0,0,0,0,0,0c0,0,0,0,0,0c0,0,0,0,0,0c0,0,0,0,0,0h0c0,0,0,0,0,0c0,0,0,0,0,0c0,0,0,0,0,0c0,0,0,0,0,0h0c0,0,0.1,0,0.1,0
	c0,0,0,0,0,0s0.2,0,0.2,0c0,0,0,0,0,0c0,0,0,0,0,0c0,0,0,0,0,0c0,0,0,0,0,0h0.1c0,0,0,0,0.1,0c0,0,0.1-0.2,0.1-0.3h0c0,0,0,0,0,0
	c0,0,0,0,0,0c0,0,0,0,0,0s0,0,0,0c0,0,0,0,0,0c0,0,0,0,0,0c0,0,0,0,0,0l-0.3,0c-0.1,0-0.2,0-0.3,0c0,0,0,0,0,0c0,0,0,0,0,0
	c-0.1,0-0.2,0-0.2,0c0,0,0,0-0.1,0c0,0-0.1,0-0.2,0c0,0,0,0,0,0c0,0,0,0,0,0h-0.1c0,0,0,0-0.1,0c0,0-0.1,0-0.1,0v0
	c0,0-0.1,0.2,0,0.3c0,0,0,0,0,0c0.1,0,0.1,0,0.2,0h0.1C103.7,37.1,103.8,37.2,103.8,37.2z"/>
<path class="st8" d="M103.7,38.8C103.7,38.8,103.7,38.8,103.7,38.8C103.7,38.8,103.7,38.8,103.7,38.8
	C103.7,38.8,103.7,38.8,103.7,38.8z"/>
<path class="st8" d="M104.1,38.7C104.1,38.7,104.1,38.7,104.1,38.7C104.1,38.7,104.1,38.7,104.1,38.7
	C104.1,38.7,104.1,38.7,104.1,38.7h0.3c0,0,0,0,0,0s0,0,0,0c0,0,0,0,0,0c0,0,0,0,0,0c0,0,0,0,0,0c0,0,0,0,0,0c0,0,0,0,0,0
	c0,0,0,0,0,0c0,0,0,0,0,0c0,0,0,0,0,0c0,0,0,0,0,0c0,0,0.1,0,0.1,0v0c0.1,0,0.1,0,0.2,0v0c0,0,0,0,0,0c0,0,0,0,0,0c0,0,0,0,0,0
	l0.1,0c0,0,0,0,0.1,0l0.1-0.3c0,0,0,0,0,0c0,0,0,0,0,0s0,0,0,0c0,0,0,0,0,0s0,0,0,0c0,0,0,0,0,0c0,0,0,0,0,0c0,0,0,0,0,0
	c0,0-0.2,0-0.3,0c-0.1,0-0.2,0-0.3,0c0,0,0,0,0,0c0,0,0,0,0,0c-0.1,0-0.2,0-0.3,0c0,0,0,0-0.1,0c-0.1,0-0.1,0-0.2,0c0,0,0,0,0,0
	c0,0,0,0,0,0c0,0,0,0-0.1,0c0,0,0,0-0.1,0c0,0-0.1,0-0.1,0h0c0,0,0,0.2,0.1,0.3c0,0,0,0,0,0c0,0,0,0,0,0c0,0,0.1,0,0.2,0h0
	C104,38.8,104,38.8,104.1,38.7z"/>
<path class="st8" d="M104,41.4C104,41.4,104,41.4,104,41.4C104,41.4,104,41.4,104,41.4L104,41.4z"/>
<path class="st8" d="M104.3,41.2C104.3,41.2,104.3,41.2,104.3,41.2C104.4,41.2,104.4,41.2,104.3,41.2c0,0,0.2-0.1,0.2-0.1
	c0,0,0,0,0,0c0,0,0,0,0,0c0,0,0,0,0,0c0,0,0,0,0,0c0,0,0,0,0,0c0,0,0,0,0,0c0,0,0,0,0,0c0,0,0,0,0,0c0,0,0,0,0,0
	c0,0,0.1-0.1,0.1-0.1c0,0,0,0,0,0s0.1-0.1,0.2-0.1c0,0,0,0,0,0c0,0,0,0,0,0c0,0,0,0,0,0l0.1,0c0,0,0,0,0,0c0,0-0.1-0.2-0.1-0.2
	c0,0,0,0,0,0c0,0,0,0,0,0c0,0,0,0,0,0c0,0,0,0,0,0c0,0,0,0,0,0h0c0,0-0.2,0.1-0.2,0.1c-0.1,0-0.2,0.1-0.2,0.1c-0.1,0,0,0,0,0
	c0,0,0,0,0,0c-0.1,0-0.1,0.1-0.2,0.1c0,0,0,0,0,0c0,0-0.1,0.1-0.1,0.1c0,0,0,0,0,0c0,0,0,0,0,0c0,0,0,0,0,0c0,0,0,0,0,0
	c0,0-0.1,0-0.1,0h0c0,0,0.1,0.2,0.2,0.2c0,0,0,0,0,0c0.1,0,0.1,0,0.2-0.1l0,0L104.3,41.2z"/>
<path class="st8" d="M104.2,42.5C104.2,42.5,104.3,42.5,104.2,42.5c0.1,0,0.1,0,0.1,0c0,0,0,0,0,0c0,0,0,0,0,0c0,0,0,0,0,0
	c0,0,0,0,0,0c0,0,0,0,0,0c0,0,0,0,0,0c0,0,0.1,0,0.1,0c0,0,0,0,0,0c0,0,0.1,0,0.1,0c0,0,0,0,0,0v0h0.1c0,0,0,0,0,0c0,0,0-0.3,0-0.3
	c0,0,0,0,0,0h0c0,0,0,0,0,0c0,0-0.1,0-0.2,0c-0.1,0-0.1,0-0.2,0c0,0,0,0,0,0c0,0,0,0,0,0c0,0-0.1,0-0.1,0c0,0,0,0,0,0
	c0,0-0.1,0-0.1,0c0,0,0,0,0,0c0,0,0,0,0,0c0,0,0,0,0,0c0,0,0,0,0,0c0,0,0,0,0,0c0,0,0,0,0,0l0,0c0,0.1,0,0.2,0,0.3
	C104.1,42.5,104.2,42.5,104.2,42.5C104.2,42.5,104.2,42.5,104.2,42.5C104.2,42.5,104.2,42.5,104.2,42.5z"/>
<g class="st9">
	<path class="st10" d="M99.7,30.6C99.7,30.6,99.7,30.6,99.7,30.6C99.7,30.6,99.7,30.6,99.7,30.6z"/>
	<path class="st10" d="M100,30.6C100,30.6,100,30.6,100,30.6C100,30.6,100,30.6,100,30.6c0.1,0,0.1,0,0.2,0c0,0,0,0,0,0c0,0,0,0,0,0
		c0,0,0,0,0,0c0,0,0,0,0,0c0,0,0,0,0,0c0,0,0,0,0,0c0,0,0,0,0,0c0,0,0,0,0,0c0,0,0.1,0,0.1-0.1v0c0,0,0.1,0,0.1,0c0,0,0,0,0,0v0
		l0.1,0c0,0,0,0,0,0c0,0-0.1-0.2-0.1-0.3v0c0,0,0,0,0,0c0,0,0,0,0,0c0,0,0,0,0,0l-0.2,0.1c0,0-0.1,0-0.2,0.1c0,0,0,0,0,0
		c0,0,0,0,0,0c-0.1,0-0.1,0-0.2,0c0,0,0,0,0,0c0,0-0.1,0-0.1,0c0,0,0,0,0,0c0,0,0,0,0,0c0,0,0,0,0,0c0,0,0,0,0,0c0,0,0,0-0.1,0v0
		c0,0.1,0,0.2,0,0.3c0,0,0.1,0,0.1,0h0L100,30.6z"/>
</g>
<g class="st9">
	<path class="st10" d="M99.8,31.9C99.8,31.8,99.8,31.9,99.8,31.9c0.1,0,0.1,0,0.2,0c0,0,0,0,0,0c0,0,0,0,0,0c0,0,0,0,0,0s0,0,0,0
		c0,0,0,0,0,0c0,0,0,0,0,0c0,0,0.1,0,0.1,0v0c0,0,0.1,0,0.1,0c0,0,0,0,0,0c0,0,0,0,0,0c0,0,0,0,0,0h0c0,0,0,0,0,0c0,0,0-0.2,0.1-0.3
		c0,0,0,0,0,0c0,0,0,0,0,0c0,0,0,0,0,0c0,0,0,0,0,0h-0.2c-0.1,0-0.1,0-0.2,0c0,0,0,0,0,0c0,0,0,0,0,0c0,0-0.1,0-0.1,0c0,0,0,0,0,0
		c0,0-0.1,0-0.1,0c0,0,0,0,0,0c0,0,0,0,0,0c0,0,0,0,0,0h0c0,0,0,0,0,0c0,0,0,0-0.1,0v0c0,0.1,0,0.2,0,0.3c0,0,0.1,0,0.1,0h0
		L99.8,31.9z"/>
</g>
<g class="st9">
	<path class="st10" d="M99.9,33.2C99.9,33.2,99.9,33.2,99.9,33.2C99.9,33.2,99.9,33.2,99.9,33.2C99.9,33.2,99.9,33.2,99.9,33.2z"/>
	<path class="st10" d="M100.2,33.2C100.2,33.2,100.2,33.2,100.2,33.2C100.3,33.2,100.3,33.2,100.2,33.2c0.1,0,0.2,0,0.2,0
		c0,0,0,0,0,0c0,0,0,0,0,0c0,0,0,0,0,0c0,0,0,0,0,0c0,0,0,0,0,0c0,0,0,0,0,0h0c0,0,0.1,0,0.1-0.1v-0.1c0,0,0.1,0,0.2,0v0
		c0,0,0,0,0,0v0l0.1,0c0,0,0,0,0,0c0,0-0.1-0.2-0.1-0.3c0,0,0,0,0,0c0,0,0,0,0,0c0,0,0,0,0,0c0,0,0,0,0,0c0,0,0,0,0,0l-0.2,0.1
		c0,0-0.1,0-0.2,0c0,0,0,0,0,0c0,0,0,0,0,0c-0.1,0-0.1,0-0.2,0c0,0,0,0,0,0c0,0-0.1,0-0.1,0c0,0,0,0,0,0c0,0,0,0,0,0s0,0,0,0
		c0,0,0,0,0,0c0,0,0,0,0,0c0,0,0,0-0.1,0l0,0c0,0.1,0,0.2,0,0.3c0,0,0,0,0,0c0,0,0.1,0,0.1,0h0L100.2,33.2z"/>
</g>
<g class="st9">
	<path class="st10" d="M99.8,35.4L99.8,35.4C99.9,35.4,99.9,35.4,99.8,35.4C99.8,35.4,99.8,35.4,99.8,35.4z"/>
	<path class="st10" d="M100.2,35.3C100.2,35.3,100.2,35.3,100.2,35.3C100.2,35.3,100.2,35.3,100.2,35.3c0.1,0,0.2,0,0.2-0.1
		c0,0,0,0,0,0c0,0,0,0,0,0c0,0,0,0,0,0c0,0,0,0,0,0c0,0,0,0,0,0c0,0,0,0,0,0c0,0,0,0,0,0c0,0,0,0,0,0c0,0,0,0,0,0
		c0,0,0.1-0.1,0.1-0.1c0,0,0,0,0,0s0.1-0.1,0.2-0.1c0,0,0,0,0,0v0l0.1,0c0,0,0,0,0,0c0,0-0.1-0.2-0.1-0.3c0,0,0,0,0,0s0,0,0,0
		s0,0,0,0c0,0,0,0,0,0c0,0,0,0,0,0c0,0,0,0,0,0c0,0-0.2,0.1-0.2,0.1c-0.1,0-0.1,0.1-0.2,0.1c0,0,0,0,0,0c0,0,0,0,0,0
		c-0.1,0-0.1,0-0.2,0.1c0,0,0,0,0,0c0,0-0.1,0-0.1,0c0,0,0,0,0,0c0,0,0,0,0,0c0,0,0,0,0,0c0,0,0,0,0,0c0,0,0,0-0.1,0h0
		c0,0.1,0.1,0.2,0.1,0.3c0,0,0,0,0,0c0,0,0.1,0,0.1,0l0,0C100,35.3,100.1,35.3,100.2,35.3z"/>
</g>
<g class="st9">
	<path class="st10" d="M99.6,37.5C99.6,37.5,99.6,37.5,99.6,37.5C99.6,37.5,99.6,37.5,99.6,37.5C99.6,37.5,99.6,37.5,99.6,37.5
		C99.6,37.5,99.6,37.5,99.6,37.5z"/>
	<path class="st10" d="M100,37.5C100,37.5,100,37.6,100,37.5C100,37.5,100.1,37.5,100,37.5c0.1,0,0.2,0,0.3,0c0,0,0,0,0,0s0,0,0,0
		s0,0,0,0c0,0,0,0,0,0c0,0,0,0,0,0c0,0,0,0,0,0c0,0,0,0,0,0c0,0,0,0,0,0c0,0,0,0,0,0c0,0,0,0,0,0h0c0,0,0.1,0,0.1-0.1c0,0,0,0,0,0
		l0.2-0.1v0c0,0,0,0,0,0c0,0,0,0,0,0h0c0,0,0,0,0,0l0.1,0c0,0,0,0,0.1,0c0,0-0.1-0.2-0.1-0.3c0,0,0,0,0,0c0,0,0,0,0,0s0,0,0,0
		s0,0,0,0c0,0,0,0,0,0c0,0,0,0,0,0c0,0,0,0,0,0c0,0-0.2,0.1-0.2,0.1l-0.3,0.1c0,0,0,0,0,0c0,0,0,0,0,0c-0.1,0-0.2,0-0.2,0
		c0,0,0,0-0.1,0c0,0-0.1,0-0.2,0c0,0,0,0,0,0c0,0,0,0,0,0c0,0,0,0-0.1,0c0,0,0,0-0.1,0c0,0-0.1,0-0.1,0l0,0c0,0,0,0.2,0,0.3
		c0,0,0,0,0,0c0.1,0,0.1,0,0.2,0h0.1C99.9,37.5,99.9,37.5,100,37.5z"/>
</g>
<g class="st9">
	<path class="st10" d="M99.5,39.6C99.5,39.6,99.5,39.6,99.5,39.6C99.6,39.6,99.6,39.6,99.5,39.6C99.5,39.6,99.5,39.6,99.5,39.6z"/>
	<path class="st10" d="M99.9,39.6C99.9,39.6,99.9,39.6,99.9,39.6C99.9,39.6,99.9,39.6,99.9,39.6C100,39.6,100,39.6,99.9,39.6l0.3,0
		c0,0,0,0,0,0c0,0,0,0,0,0c0,0,0,0,0,0c0,0,0,0,0,0c0,0,0,0,0,0c0,0,0,0,0,0c0,0,0,0,0,0c0,0,0,0,0,0c0,0,0,0,0,0h0c0,0,0.1,0,0.1,0
		v0c0.1,0,0.1,0,0.2,0v0c0,0,0,0,0,0c0,0,0,0,0,0h0c0,0,0,0,0,0c0,0,0,0,0.1,0c0,0,0,0,0.1,0l0.1-0.2c0,0,0,0,0,0c0,0,0,0,0,0
		c0,0,0,0,0,0s0,0,0,0c0,0,0,0,0,0c0,0,0,0,0,0h0c0,0-0.2,0-0.3-0.1c-0.1,0-0.2,0-0.3,0c0,0,0,0,0,0c0,0,0,0,0,0c-0.1,0-0.1,0-0.2,0
		c0,0,0,0-0.1,0c0,0-0.1,0-0.2,0c0,0,0,0,0,0c0,0,0,0,0,0h0c0,0,0,0,0,0c0,0-0.1,0-0.1,0l0,0c0,0.1,0,0.2,0,0.3c0,0,0,0,0,0
		c0.1,0,0.1,0,0.2,0h0C99.8,39.7,99.9,39.6,99.9,39.6z"/>
</g>
<g class="st9">
	<path class="st10" d="M100.2,41C100.2,41,100.2,41,100.2,41C100.2,41,100.2,41,100.2,41C100.2,41,100.2,41,100.2,41z"/>
	<path class="st10" d="M100.5,41C100.5,41,100.5,41,100.5,41C100.6,41,100.6,41,100.5,41c0.1,0,0.2,0,0.2,0c0,0,0,0,0,0c0,0,0,0,0,0
		c0,0,0,0,0,0c0,0,0,0,0,0c0,0,0,0,0,0c0,0,0,0,0,0h0c0,0,0,0,0,0c0,0,0.1,0,0.1,0v0c0.1,0,0.1,0,0.2,0c0,0,0,0,0,0c0,0,0,0,0,0
		c0,0,0,0,0,0c0,0,0,0,0.1,0c0,0,0,0,0,0c0,0,0-0.3,0-0.3h0c0,0,0,0,0,0c0,0,0,0,0,0c0,0,0,0,0,0h0h0c0,0-0.2,0-0.2,0
		c-0.1,0-0.2,0-0.2,0c0,0,0,0,0,0c0,0,0,0,0,0c-0.1,0-0.1,0-0.2,0c0,0,0,0,0,0c0,0-0.1,0-0.1,0c0,0,0,0,0,0c0,0,0,0,0,0c0,0,0,0,0,0
		c0,0,0,0,0,0c0,0,0,0-0.1,0l0,0c0,0.1,0,0.2,0,0.3c0,0,0.1,0,0.1,0c0,0,0,0,0,0c0,0,0.1,0,0.1-0.1C100.5,40.9,100.5,41,100.5,41z"
		/>
</g>
<g class="st9">
	<path class="st10" d="M99.4,44.3C99.4,44.3,99.4,44.3,99.4,44.3C99.4,44.3,99.4,44.3,99.4,44.3C99.4,44.3,99.4,44.3,99.4,44.3z"/>
	<path class="st10" d="M99.9,44.2C99.9,44.2,99.9,44.2,99.9,44.2C100,44.2,100,44.2,99.9,44.2C100,44.2,100,44.2,99.9,44.2
		c0.1,0,0.3-0.1,0.4-0.1s0,0,0,0s0,0,0,0c0,0,0,0,0,0c0,0,0,0,0.1,0c0.1,0,0,0,0,0c0,0,0,0,0,0c0,0,0,0,0,0c0,0,0,0,0,0c0,0,0,0,0,0
		c0,0,0,0,0.1,0c0,0,0,0,0,0l0.1,0c0,0,0.1-0.1,0.2-0.1h0c0,0,0,0,0,0s0.2-0.1,0.3-0.1c0,0,0,0,0,0c0,0,0,0,0,0h0c0,0,0,0,0,0l0.1,0
		c0,0,0,0,0,0c0,0,0,0,0.1,0c0,0-0.1-0.2-0.1-0.3h0c0,0,0,0,0,0c0,0,0,0,0,0c0,0,0,0,0,0c0,0,0,0,0,0c0,0,0,0,0,0s0,0-0.1,0
		c0,0,0,0,0,0c0,0,0,0,0,0c-0.1,0-0.3,0.1-0.3,0.1l-0.3,0.1c0,0,0,0-0.1,0c0,0,0,0,0,0c-0.1,0-0.2,0.1-0.3,0.1c0,0-0.1,0-0.1,0
		c0,0-0.2,0-0.2,0c0,0,0,0,0,0c0,0,0,0,0,0c0,0,0,0-0.1,0c0,0,0,0-0.1,0c0,0-0.1,0-0.1,0l0,0c0,0,0,0.2,0.1,0.3h0c0,0,0,0,0,0
		c0,0,0,0,0,0c0.1,0,0.2,0,0.2,0l0.1,0C99.8,44.2,99.9,44.2,99.9,44.2z"/>
</g>
<path class="st8" d="M95.1,43.4L95.1,43.4C95.1,43.4,95.1,43.4,95.1,43.4C95.1,43.4,95.1,43.4,95.1,43.4z"/>
<path class="st8" d="M95.6,43.5C95.6,43.5,95.6,43.6,95.6,43.5C95.6,43.6,95.6,43.6,95.6,43.5C95.6,43.6,95.6,43.6,95.6,43.5l0.1,0
	c0.1,0,0.2,0.1,0.3,0.1c0,0,0,0,0,0c0,0,0,0,0,0c0,0,0,0,0,0c0.1,0,0,0,0.1,0s0,0,0.1,0c0,0,0,0,0,0s0,0,0,0s0,0,0,0c0,0,0,0,0,0
	c0,0,0,0,0,0c0,0,0,0,0.1,0c0,0,0.1,0,0.2,0h0c0,0,0,0,0,0s0.2,0.1,0.3,0.1s0,0,0,0s0,0,0,0c0,0,0,0,0,0h0c0,0,0,0,0,0
	c0,0,0.1,0,0.1,0h0h0c0,0,0.1,0,0.1,0c0,0,0.1-0.2,0.1-0.2h0c0,0,0,0,0,0s0,0,0,0c0,0,0,0,0,0c0,0,0,0,0,0c0,0,0,0,0,0c0,0,0,0,0,0
	s0,0,0,0c0,0,0,0-0.1,0c0,0,0,0,0,0c0,0,0,0,0,0h0l-0.3-0.1c-0.1,0-0.3-0.1-0.4-0.1c0,0,0,0,0,0c0,0,0,0-0.1,0
	c-0.1,0-0.2-0.1-0.3-0.1c0,0-0.1,0-0.1,0c0,0-0.2-0.1-0.2-0.1c0,0,0,0,0,0c0,0,0,0,0,0c0,0,0,0-0.1,0c0,0,0,0-0.1,0c0,0-0.1,0-0.1,0
	l0,0c0,0-0.1,0.2-0.1,0.3c0,0,0,0,0,0h0c0,0,0,0,0,0c0,0,0,0,0,0c0.1,0,0.2,0.1,0.2,0.1h0.1C95.5,43.5,95.5,43.5,95.6,43.5z"/>
<path class="st8" d="M95.3,42.4C95.3,42.4,95.3,42.4,95.3,42.4C95.3,42.4,95.3,42.4,95.3,42.4L95.3,42.4z"/>
<path class="st8" d="M95.7,42.4C95.7,42.4,95.7,42.4,95.7,42.4C95.7,42.4,95.7,42.4,95.7,42.4c0,0,0.2,0,0.2,0s0,0,0,0c0,0,0,0,0,0
	c0,0,0,0,0,0c0,0,0,0,0,0c0,0,0,0,0,0c0,0,0,0,0,0c0,0,0,0,0,0c0,0,0,0,0,0c0,0,0,0,0,0c0,0,0.1,0,0.1,0c0,0,0,0,0,0
	c0.1,0,0.1,0,0.2,0c0,0,0,0,0,0c0,0,0,0,0,0c0,0,0,0,0,0c0,0,0,0,0,0h0.1c0,0,0,0,0.1,0c0,0,0-0.2,0-0.3c0,0,0,0,0,0c0,0,0,0,0,0
	c0,0,0,0,0,0s0,0,0,0c0,0,0,0,0,0c0,0,0,0,0,0c0,0,0,0,0,0h-0.2c-0.1,0-0.2,0-0.2,0c0,0,0,0,0,0c0,0,0,0,0,0c-0.1,0-0.1,0-0.2,0
	c0,0,0,0-0.1,0c0,0-0.1,0-0.1,0c0,0,0,0,0,0c0,0,0,0,0,0c0,0,0,0,0,0c0,0,0,0,0,0c0,0-0.1,0-0.1,0v0c0,0.1,0,0.2,0,0.3
	c0.1,0,0.1,0,0.2,0h0C95.6,42.4,95.6,42.4,95.7,42.4z"/>
<path class="st8" d="M95.2,40.7L95.2,40.7C95.2,40.7,95.2,40.7,95.2,40.7C95.2,40.7,95.2,40.7,95.2,40.7z"/>
<path class="st8" d="M95.6,40.7C95.6,40.7,95.6,40.7,95.6,40.7C95.6,40.7,95.6,40.7,95.6,40.7c0.1,0,0.2,0,0.2,0c0,0,0,0,0,0
	c0,0,0,0,0,0c0,0,0,0,0,0c0,0,0,0,0,0c0,0,0,0,0,0c0,0,0,0,0,0h0c0,0,0,0,0,0c0,0,0.1,0,0.1-0.1c0,0,0,0,0,0c0.1,0,0.1,0,0.2-0.1
	c0,0,0,0,0,0c0,0,0,0,0,0c0,0,0,0,0,0l0.1,0c0,0,0,0,0,0c0,0-0.1-0.2-0.1-0.3c0,0,0,0,0,0c0,0,0,0,0,0c0,0,0,0,0,0c0,0,0,0,0,0
	c0,0,0,0,0,0c0,0-0.2,0.1-0.2,0.1c-0.1,0-0.2,0.1-0.2,0.1c0,0,0,0,0,0c0,0,0,0,0,0c-0.1,0-0.1,0-0.2,0.1c0,0,0,0-0.1,0
	c0,0-0.1,0-0.1,0c0,0,0,0,0,0c0,0,0,0,0,0c0,0,0,0,0,0c0,0,0,0,0,0c0,0-0.1,0-0.1,0h0c0,0.1,0,0.2,0.1,0.3c0,0,0,0,0,0
	c0.1,0,0.1,0,0.2,0l0,0C95.4,40.8,95.6,40.7,95.6,40.7z"/>
<path class="st8" d="M95.4,39.1C95.4,39.1,95.4,39.1,95.4,39.1C95.4,39.1,95.4,39.1,95.4,39.1C95.4,39.1,95.4,39.1,95.4,39.1z"/>
<path class="st8" d="M95.8,38.9C95.8,38.9,95.8,38.9,95.8,38.9C95.8,38.9,95.8,38.9,95.8,38.9c0.1,0,0.2-0.1,0.2-0.1c0,0,0,0,0,0
	c0,0,0,0,0,0c0,0,0,0,0,0c0,0,0,0,0,0c0,0,0,0,0,0c0,0,0,0,0,0c0,0,0,0,0,0c0,0,0,0,0,0c0,0,0,0,0,0l0,0c0,0,0.1,0,0.1-0.1
	c0,0,0,0,0,0c0.1,0,0.1,0,0.2,0c0,0,0,0,0,0c0,0,0,0,0,0c0,0,0,0,0.1,0c0,0,0,0,0.1,0v-0.3c0,0,0,0,0,0c0,0,0,0,0,0c0,0,0,0,0,0
	c0,0,0,0,0,0c0,0,0,0,0,0c0,0,0,0,0,0c0,0,0,0,0,0h0c-0.1,0-0.2,0-0.3,0.1c-0.1,0-0.2,0.1-0.3,0.1c0,0,0,0,0,0c0,0,0,0,0,0
	c-0.1,0-0.1,0.1-0.2,0.1c0,0,0,0-0.1,0c0,0-0.1,0.1-0.2,0.1c0,0,0,0,0,0c0,0,0,0,0,0l0,0c0,0,0,0,0,0c0,0-0.1,0-0.1,0h0
	c0,0,0.1,0.2,0.2,0.2c0,0,0,0,0,0c0.1,0,0.1,0,0.2-0.1l0,0C95.6,38.9,95.7,38.9,95.8,38.9z"/>
<path class="st8" d="M94.5,36.9C94.5,36.9,94.5,36.9,94.5,36.9C94.5,36.9,94.5,36.9,94.5,36.9C94.5,36.9,94.5,36.9,94.5,36.9z"/>
<path class="st8" d="M94.9,37C94.9,37,94.9,37,94.9,37C95,37,95,37,94.9,37C95,37,95,37,94.9,37L94.9,37c0.2,0,0.3,0,0.4,0
	c0,0,0,0,0,0s0,0,0,0s0,0,0,0c0,0,0,0,0.1,0s0,0,0,0c0,0,0,0,0,0c0,0,0,0,0,0c0,0,0,0,0,0c0,0,0,0,0,0c0,0,0,0,0,0h0
	c0,0,0.1,0,0.1-0.1h0v0l0.2-0.1v0c0,0,0,0,0,0c0,0,0,0,0,0h0c0,0,0,0,0,0l0.1,0c0,0,0,0,0.1,0c0,0,0-0.3,0-0.3c0,0,0,0,0,0
	c0,0,0,0,0,0s0,0,0,0c0,0,0,0,0,0c0,0,0,0-0.1,0c0,0,0,0,0,0c0,0,0,0,0,0c0,0-0.2,0.1-0.3,0.1l-0.3,0.1c0,0,0,0,0,0c0,0,0,0,0,0
	c-0.1,0-0.2,0-0.3,0c0,0,0,0-0.1,0c0,0-0.2,0-0.2,0c0,0,0,0,0,0s0,0,0,0c0,0,0,0-0.1,0c0,0,0,0-0.1,0c0,0-0.1-0.1-0.1-0.1l0,0
	c0,0-0.1,0.2,0,0.3c0,0,0,0,0,0h0c0,0,0,0,0,0c0,0,0,0,0,0c0.1,0,0.1,0,0.2,0h0.1C94.8,37,94.9,37,94.9,37z"/>
<path class="st8" d="M95.4,35.1C95.4,35.1,95.5,35.1,95.4,35.1C95.5,35.1,95.5,35.1,95.4,35.1C95.4,35.1,95.4,35.1,95.4,35.1z"/>
<path class="st8" d="M95.8,35.1C95.8,35.1,95.8,35.1,95.8,35.1C95.9,35.1,95.9,35.1,95.8,35.1c0.1,0,0.2,0,0.3,0c0,0,0,0,0,0
	c0,0,0,0,0,0s0,0,0,0c0,0,0,0,0,0s0,0,0,0c0,0,0,0,0,0c0,0,0,0,0,0c0,0,0,0,0,0c0,0,0,0,0,0c0,0,0,0,0,0c0,0,0,0,0,0
	c0,0,0.1,0,0.1-0.1c0,0,0,0,0,0s0.2,0,0.2,0c0,0,0,0,0,0s0,0,0,0c0,0,0,0,0,0c0,0,0,0,0,0h0.1c0,0,0,0,0.1,0c0,0,0-0.3,0-0.3
	c0,0,0,0,0,0c0,0,0,0,0,0c0,0,0,0,0,0s0,0,0,0c0,0,0,0,0,0c0,0,0,0,0,0c0,0,0,0,0,0l-0.3,0.1c-0.1,0-0.2,0-0.3,0.1h0c0,0,0,0,0,0
	c-0.1,0-0.1,0-0.2,0c0,0,0,0-0.1,0c0,0-0.1,0-0.2,0c0,0,0,0,0,0c0,0,0,0,0,0l0,0c0,0,0,0-0.1,0c0,0-0.1,0-0.1,0l0,0
	c0,0,0,0.2,0.1,0.3c0,0,0,0,0,0c0.1,0,0.1,0,0.2,0h0.1C95.7,35.1,95.8,35.1,95.8,35.1z"/>
<path class="st8" d="M95.2,33.6C95.2,33.6,95.2,33.6,95.2,33.6C95.2,33.6,95.2,33.6,95.2,33.6C95.2,33.6,95.2,33.6,95.2,33.6
	C95.2,33.6,95.2,33.6,95.2,33.6z"/>
<path class="st8" d="M95.5,33.4C95.5,33.4,95.5,33.4,95.5,33.4C95.5,33.4,95.5,33.4,95.5,33.4c0.1,0,0.1-0.1,0.2-0.1c0,0,0,0,0,0
	c0,0,0,0,0,0c0,0,0,0,0,0c0,0,0,0,0,0c0,0,0,0,0,0c0,0,0,0,0,0c0,0,0,0,0,0c0,0,0,0,0,0c0,0,0,0,0,0c0,0,0,0,0,0
	c0,0,0.1-0.1,0.1-0.1v0v0c0,0,0.1-0.1,0.2-0.1c0,0,0,0,0,0c0,0,0,0,0,0l0.1,0c0,0,0,0,0,0c0,0-0.1-0.2-0.1-0.2c0,0,0,0,0,0
	c0,0,0,0,0,0c0,0,0,0,0,0c0,0,0,0,0,0c0,0,0,0,0,0c0,0-0.2,0.1-0.2,0.1c0,0-0.1,0.1-0.2,0.1c0,0,0,0,0,0c0,0,0,0,0,0
	c-0.1,0-0.1,0.1-0.2,0.1c0,0,0,0,0,0c0,0-0.1,0.1-0.1,0.1c0,0,0,0,0,0c0,0,0,0,0,0c0,0,0,0,0,0l0,0c0,0,0,0,0,0c0,0-0.1,0-0.1,0h0
	c0,0,0.1,0.2,0.2,0.2c0,0,0.1,0,0.1-0.1l0,0C95.4,33.5,95.4,33.4,95.5,33.4z"/>
<path class="st8" d="M95.2,31.8C95.2,31.8,95.2,31.8,95.2,31.8C95.2,31.8,95.2,31.8,95.2,31.8C95.2,31.8,95.2,31.8,95.2,31.8
	C95.2,31.8,95.2,31.8,95.2,31.8z"/>
<path class="st8" d="M95.5,31.6C95.6,31.6,95.5,31.6,95.5,31.6C95.6,31.6,95.6,31.6,95.5,31.6c0,0,0.2-0.1,0.2-0.1c0,0,0,0,0,0
	c0,0,0,0,0,0c0,0,0,0,0,0c0,0,0,0,0,0c0,0,0,0,0,0c0,0,0,0,0,0c0,0,0,0,0,0c0,0,0,0,0,0c0,0,0,0,0,0c0,0,0.1-0.1,0.1-0.1v0
	c0,0,0,0,0,0s0.2-0.1,0.2-0.1c0,0,0,0,0,0c0,0,0,0,0,0l0.1,0c0,0,0,0,0,0c0,0-0.1-0.2-0.1-0.2h0c0,0,0,0,0,0s0,0,0,0s0,0,0,0
	c0,0,0,0,0,0c0,0,0,0,0,0c0,0,0,0,0,0c0,0-0.2,0.1-0.2,0.2c-0.1,0-0.2,0.1-0.2,0.2c-0.1,0,0,0,0,0c0,0,0,0,0,0
	c-0.1,0-0.1,0.1-0.2,0.1c0,0,0,0,0,0c0,0-0.1,0.1-0.1,0.1c0,0,0,0,0,0c0,0,0,0,0,0c0,0,0,0,0,0c0,0,0,0,0,0c0,0-0.1,0-0.1,0h0
	c0,0,0.1,0.2,0.2,0.2v0c0,0,0,0,0,0c0.1,0,0.1-0.1,0.2-0.1l0,0L95.5,31.6z"/>
<path class="st8" d="M96,30.1C96,30.1,96,30.1,96,30.1C96,30.1,96,30,96,30.1C96.1,30,96.1,30,96,30.1C96.1,30,96.1,30,96,30.1
	c0.1-0.1,0.1-0.1,0.1-0.1c0,0,0,0,0,0s0,0,0,0c0,0,0,0,0,0c0,0,0,0,0,0c0,0,0,0,0-0.1c0,0,0,0,0,0c0,0,0,0,0.1-0.1c0,0,0,0,0,0v0
	l0,0c0,0,0,0,0,0c0,0-0.2-0.2-0.2-0.2v0c0,0,0,0,0,0c0,0-0.1,0.1-0.1,0.1c0,0-0.1,0.1-0.1,0.1c0,0,0,0,0,0c0,0,0,0,0,0
	c0,0-0.1,0-0.1,0.1c0,0,0,0,0,0c0,0-0.1,0-0.1,0c0,0,0,0,0,0c0,0,0,0,0,0s0,0,0,0c0,0,0,0,0,0c0,0,0,0,0,0c0,0,0,0,0,0h0
	c0.1,0.1,0.1,0.1,0.2,0.2c0,0,0.1,0,0.1,0l0,0C95.9,30.1,96,30.1,96,30.1z"/>
<path class="st8" d="M100.8,27.6C100.8,27.6,100.8,27.6,100.8,27.6C100.8,27.6,100.8,27.6,100.8,27.6
	C100.8,27.6,100.8,27.6,100.8,27.6C100.8,27.6,100.8,27.6,100.8,27.6z"/>
<path class="st8" d="M101.1,27.5C101.1,27.5,101.1,27.5,101.1,27.5C101.1,27.5,101.1,27.5,101.1,27.5c0.1,0,0.2-0.1,0.2-0.1
	c0,0,0,0,0,0c0,0,0,0,0,0c0,0,0,0,0,0c0,0,0,0,0,0c0,0,0,0,0,0c0,0,0,0,0,0c0,0,0,0,0,0c0,0,0,0,0,0c0,0,0,0,0,0
	c0,0,0.1-0.1,0.1-0.1v0c0.1,0,0.1-0.1,0.2-0.1c0,0,0,0,0,0c0,0,0,0,0,0c0,0,0,0,0,0c0,0,0,0,0.1,0c0,0,0,0,0,0c0,0-0.1-0.2-0.1-0.2
	c0,0,0,0,0,0c0,0,0,0,0,0c0,0,0,0,0,0c0,0,0,0,0,0s0,0,0,0c0,0,0,0,0,0c0,0,0,0,0,0c0,0,0,0,0,0c0,0-0.2,0.1-0.2,0.2
	c-0.1,0-0.2,0.1-0.2,0.2c0,0,0,0,0,0c0,0,0,0,0,0c-0.1,0-0.1,0.1-0.2,0.1c0,0,0,0,0,0c0,0-0.1,0.1-0.1,0.1c0,0,0,0,0,0s0,0,0,0
	c0,0,0,0,0,0c0,0,0,0,0,0c0,0-0.1,0-0.1,0h0c0,0,0.1,0.2,0.2,0.2c0,0,0,0,0,0s0,0,0,0c0.1,0,0.1-0.1,0.2-0.1l0,0L101.1,27.5z"/>
<path class="st8" d="M100.7,26.7C100.7,26.7,100.7,26.7,100.7,26.7C100.7,26.6,100.7,26.6,100.7,26.7
	C100.8,26.6,100.8,26.6,100.7,26.7C100.7,26.6,100.7,26.6,100.7,26.7L100.7,26.7c0.1-0.1,0.1-0.1,0.1-0.1c0,0,0,0,0,0
	c0,0,0,0,0.1-0.1h0v0c0,0,0,0,0,0c0,0,0,0,0,0s-0.2-0.2-0.2-0.2c0,0-0.1,0.1-0.1,0.1c0,0-0.1,0.1-0.1,0.1c0,0,0,0,0,0c0,0,0,0,0,0
	c0,0,0,0-0.1,0.1c0,0,0,0,0,0c0,0,0,0,0,0c0,0,0,0,0,0c0,0,0,0,0,0c0,0,0,0,0,0c0,0,0,0,0,0h0c0.1,0.1,0.1,0.1,0.2,0.2
	c0,0,0,0,0.1,0v0C100.6,26.7,100.7,26.7,100.7,26.7z"/>
<g class="st9">
	<path class="st10" d="M95.5,27.5C95.5,27.5,95.5,27.5,95.5,27.5C95.5,27.5,95.5,27.5,95.5,27.5C95.5,27.5,95.5,27.5,95.5,27.5z"/>
	<path class="st10" d="M95.6,27.7C95.6,27.7,95.6,27.7,95.6,27.7C95.6,27.8,95.6,27.8,95.6,27.7c0,0.1,0.1,0.1,0.1,0.1c0,0,0,0,0,0
		c0,0,0,0,0,0c0,0,0,0,0,0c0,0,0,0,0,0c0,0,0,0,0,0c0,0,0,0,0,0c0,0,0,0,0,0h0c0,0,0.1,0,0.1,0l0,0c0,0,0.1,0.1,0.1,0.1c0,0,0,0,0,0
		c0,0,0,0,0,0c0,0,0,0,0,0c0,0,0,0,0,0c0,0,0,0,0,0l0.2-0.2c0,0,0,0,0,0c0,0,0,0,0,0c0,0,0,0,0,0l-0.1-0.1c0,0-0.1-0.1-0.1-0.1
		c0,0,0,0,0,0c0,0,0,0,0,0c0,0-0.1-0.1-0.1-0.1c0,0,0,0,0,0c0,0,0-0.1-0.1-0.1c0,0,0,0,0,0c0,0,0,0,0,0c0,0,0,0,0,0c0,0,0,0,0,0
		c0,0,0,0,0,0v0c-0.1,0-0.2,0.1-0.2,0.1c0,0,0,0,0,0c0,0,0,0.1,0.1,0.1l0,0L95.6,27.7z"/>
</g>
<g class="st9">
	<path class="st10" d="M96.2,26.8C96.2,26.9,96.2,26.9,96.2,26.8C96.2,26.9,96.2,26.9,96.2,26.8C96.2,26.9,96.2,26.9,96.2,26.8z"/>
	<path class="st10" d="M96.3,27.1C96.3,27.1,96.3,27.1,96.3,27.1C96.3,27.1,96.3,27.1,96.3,27.1c0.1,0.1,0.1,0.1,0.1,0.1
		c0,0,0,0,0,0c0,0,0,0,0,0c0,0,0,0,0,0c0,0,0,0,0,0c0,0,0,0,0,0s0,0,0,0c0,0,0,0,0,0c0,0,0,0,0,0c0,0,0,0,0,0c0,0,0.1,0,0.1,0
		c0,0,0,0,0,0s0.1,0.1,0.1,0.1c0,0,0,0,0,0c0,0,0,0,0,0c0,0,0,0,0,0c0,0,0,0,0,0c0,0,0,0,0,0c0,0,0.2-0.2,0.2-0.2c0,0,0,0,0,0
		c0,0,0,0,0,0c0,0,0,0,0,0c0,0,0,0,0,0c0,0-0.1-0.1-0.1-0.1L96.8,27c0,0,0,0,0,0c0,0,0,0,0,0c0,0-0.1-0.1-0.1-0.1c0,0,0,0,0,0
		c0,0,0-0.1-0.1-0.1c0,0,0,0,0,0c0,0,0,0,0,0c0,0,0,0,0,0c0,0,0,0,0,0c0,0,0,0,0,0c0,0,0,0,0-0.1v0c-0.1,0-0.2,0.1-0.3,0.1
		c0,0,0,0.1,0.1,0.1l0,0L96.3,27.1z"/>
</g>
<g class="st9">
	<path class="st10" d="M91.3,30.6C91.3,30.6,91.3,30.6,91.3,30.6C91.3,30.6,91.3,30.6,91.3,30.6C91.3,30.6,91.3,30.6,91.3,30.6z"/>
	<path class="st10" d="M91.5,30.8C91.5,30.8,91.5,30.8,91.5,30.8C91.5,30.8,91.6,30.8,91.5,30.8c0.1,0.1,0.1,0.1,0.2,0.1
		c0,0,0,0,0,0c0,0,0,0,0,0c0,0,0,0,0,0s0,0,0,0c0,0,0,0,0,0c0,0,0,0,0,0s0,0,0,0c0,0,0,0,0,0c0,0,0,0,0,0c0,0,0.1,0,0.1,0l0,0
		C92,31,92,31,92.1,31c0,0,0,0,0,0c0,0,0,0,0,0c0,0,0,0,0,0c0,0,0,0,0.1,0c0,0,0,0,0,0l0.2-0.2c0,0,0,0,0,0c0,0,0,0,0,0c0,0,0,0,0,0
		s0,0,0,0c0,0,0,0,0,0c0,0,0,0,0,0c0,0,0,0,0,0c0,0-0.2-0.1-0.2-0.1c-0.1,0-0.1-0.1-0.2-0.1c0,0,0,0,0,0c0,0,0,0,0,0
		c-0.1,0-0.1-0.1-0.2-0.1c0,0,0,0,0,0c0,0-0.1-0.1-0.1-0.1c0,0,0,0,0,0c0,0,0,0,0,0c0,0,0,0,0,0c0,0,0,0,0,0c0,0,0,0,0,0
		c0,0,0,0-0.1,0v0c-0.1,0.1-0.1,0.2-0.1,0.2c0,0,0,0,0,0c0,0,0.1,0.1,0.1,0.1h0C91.4,30.6,91.5,30.8,91.5,30.8z"/>
</g>
<g class="st9">
	<path class="st10" d="M92.2,29.9C92.2,29.9,92.2,29.9,92.2,29.9c0.1,0,0.1,0,0.1,0c0,0,0,0,0,0c0,0,0,0,0,0c0,0,0,0,0,0s0,0,0,0
		c0,0,0,0,0,0h0c0,0,0.1,0,0.1,0v0c0,0,0.1,0,0.1,0v0c0,0,0,0,0,0c0,0,0,0,0,0h0c0,0,0,0,0,0c0,0,0.1-0.2,0.1-0.3c0,0,0,0,0,0
		c0,0,0,0,0,0c0,0,0,0,0,0c0,0,0,0,0,0c-0.1,0-0.1,0-0.2,0c-0.1,0-0.1,0-0.2,0c0,0,0,0,0,0c0,0,0,0,0,0c0,0-0.1,0-0.1,0c0,0,0,0,0,0
		c0,0-0.1,0-0.1,0c0,0,0,0,0,0c0,0,0,0,0,0s0,0,0,0h0c0,0,0,0,0,0s0,0-0.1,0v0c0,0.1,0,0.2-0.1,0.3c0,0,0.1,0,0.1,0c0,0,0,0,0,0
		C92.1,29.8,92.2,29.9,92.2,29.9z"/>
</g>
<g class="st9">
	<path class="st10" d="M92.2,28.6C92.2,28.6,92.2,28.6,92.2,28.6C92.2,28.6,92.2,28.6,92.2,28.6C92.2,28.6,92.2,28.6,92.2,28.6z"/>
	<path class="st10" d="M92.5,28.5C92.5,28.5,92.5,28.5,92.5,28.5C92.5,28.5,92.5,28.5,92.5,28.5c0.1,0,0.1,0,0.2,0c0,0,0,0,0,0
		c0,0,0,0,0,0c0,0,0,0,0,0s0,0,0,0c0,0,0,0,0,0c0,0,0,0,0,0c0,0,0,0,0,0c0,0,0,0,0,0c0,0,0.1,0,0.1-0.1c0,0,0,0,0,0
		c0.1,0,0.1,0,0.2,0v0v0l0.1,0c0,0,0,0,0,0c0,0-0.1-0.2-0.1-0.3c0,0,0,0,0,0c0,0,0,0,0,0c0,0,0,0,0,0c0,0-0.2,0.1-0.2,0.1
		c0,0-0.1,0-0.2,0.1c0,0,0,0,0,0c0,0,0,0,0,0c-0.1,0-0.1,0-0.2,0c0,0,0,0,0,0c0,0-0.1,0-0.1,0c0,0,0,0,0,0c0,0,0,0,0,0c0,0,0,0,0,0
		c0,0,0,0,0,0c0,0,0,0,0,0c0,0,0,0,0,0c0,0,0,0-0.1,0l0,0c0,0.1,0,0.2,0.1,0.3c0,0,0.1,0,0.1,0h0C92.3,28.6,92.5,28.5,92.5,28.5z"/>
</g>
<g class="st9">
	<path class="st10" d="M91.8,33.4C91.8,33.4,91.8,33.4,91.8,33.4C91.8,33.4,91.8,33.4,91.8,33.4L91.8,33.4z"/>
	<path class="st10" d="M92.1,33.4C92.1,33.4,92.1,33.4,92.1,33.4C92.1,33.4,92.1,33.4,92.1,33.4c0.1,0,0.1,0,0.2,0c0,0,0,0,0,0
		c0,0,0,0,0,0c0,0,0,0,0,0c0,0,0,0,0,0c0,0,0,0,0,0c0,0,0,0,0,0c0,0,0,0,0,0h0c0,0,0.1,0,0.1,0v0c0,0,0.1,0,0.2,0c0,0,0,0,0,0v0h0.1
		c0,0,0,0,0,0c0,0,0-0.2,0-0.3c0,0,0,0,0,0s0,0,0,0s0,0,0,0s0,0,0,0c0,0,0,0,0,0h0c0,0-0.2,0-0.2,0c-0.1,0-0.1,0-0.2,0c0,0,0,0,0,0
		c0,0,0,0,0,0c-0.1,0-0.1,0-0.2,0c0,0,0,0,0,0c0,0-0.1,0-0.1,0c0,0,0,0,0,0c0,0,0,0,0,0c0,0,0,0,0,0c0,0,0,0,0,0c0,0,0,0,0,0
		c0,0,0,0-0.1,0h0c0,0.1,0,0.2,0.1,0.3c0,0,0.1,0,0.1,0h0C91.9,33.4,92.1,33.4,92.1,33.4z"/>
</g>
<g class="st9">
	<path class="st10" d="M92.6,34.4C92.6,34.4,92.6,34.4,92.6,34.4C92.6,34.4,92.6,34.4,92.6,34.4C92.7,34.4,92.7,34.4,92.6,34.4
		c0.1,0,0.1-0.1,0.1-0.1v0c0,0,0,0,0.1,0c0,0,0,0,0,0h0c0,0,0,0,0,0c0,0-0.1-0.2-0.1-0.2c0,0-0.1,0-0.1,0c0,0-0.1,0-0.1,0.1h0
		c0,0-0.1,0-0.1,0c0,0,0,0,0,0c0,0-0.1,0-0.1,0c0,0,0,0,0,0c0,0,0,0,0,0c0,0,0,0,0,0c0,0,0,0,0,0c0,0,0,0,0,0h0
		c0,0.1,0.1,0.2,0.1,0.3c0,0,0,0,0.1,0C92.5,34.5,92.5,34.5,92.6,34.4C92.5,34.5,92.6,34.4,92.6,34.4z"/>
</g>
<g class="st9">
	<path class="st10" d="M92.5,36.6C92.5,36.6,92.5,36.6,92.5,36.6c0.1,0,0.1,0,0.1,0c0,0,0,0,0,0c0,0,0,0,0,0c0,0,0,0,0,0
		c0,0,0,0,0,0c0,0,0,0,0,0c0,0,0,0,0,0c0,0,0,0,0,0c0,0,0.1,0,0.1,0c0,0,0,0,0,0c0,0,0.1,0,0.1,0v0c0,0,0,0,0,0c0,0,0,0,0,0l0,0
		c0,0,0,0,0,0c0,0,0.1-0.2,0.1-0.3c0,0,0,0,0,0c0,0,0,0,0,0c0,0-0.1,0-0.1,0c0,0-0.1,0-0.1,0c0,0,0,0,0,0c0,0,0,0,0,0
		c0,0-0.1,0-0.1,0c0,0,0,0,0,0c0,0-0.1,0-0.1,0c0,0,0,0,0,0c0,0,0,0,0,0c0,0,0,0,0,0h0c0,0,0,0,0,0c0,0,0,0,0,0v0
		c0,0.1-0.1,0.2-0.1,0.3c0,0,0.1,0,0.1,0L92.5,36.6C92.4,36.6,92.5,36.6,92.5,36.6z"/>
</g>
<g class="st9">
	<path class="st10" d="M92.7,38.8C92.7,38.8,92.7,38.8,92.7,38.8C92.7,38.8,92.7,38.8,92.7,38.8c0.1,0,0.1,0,0.1-0.1c0,0,0,0,0,0
		c0,0,0,0,0,0c0,0,0,0,0,0c0,0,0,0,0,0c0,0,0,0,0,0l0,0c0,0,0.1,0,0.1-0.1v0c0,0,0.1,0,0.1,0c0,0,0,0,0,0c0,0,0,0,0,0v0h0
		c0,0,0,0,0,0s-0.1-0.2-0.1-0.3c0,0,0,0,0,0c0,0,0,0,0,0c0,0,0,0,0,0h0l-0.1,0.1c0,0-0.1,0-0.1,0.1c0,0,0,0,0,0c0,0,0,0,0,0
		c0,0-0.1,0-0.1,0c0,0,0,0,0,0c0,0-0.1,0-0.1,0c0,0,0,0,0,0c0,0,0,0,0,0s0,0,0,0l0,0c0,0,0,0,0,0c0,0,0,0,0,0h0
		c0,0.1,0.1,0.2,0.1,0.3c0,0,0.1,0,0.1,0l0,0C92.6,38.8,92.7,38.8,92.7,38.8z"/>
</g>
<g class="st9">
	<path class="st10" d="M93,40.1C93,40.1,93,40.1,93,40.1C93,40.1,93,40.1,93,40.1c0.1,0,0.1,0,0.2,0c0,0,0,0,0,0c0,0,0,0,0,0
		c0,0,0,0,0,0c0,0,0,0,0,0h0c0,0,0,0,0,0c0,0,0,0,0,0c0,0,0,0,0-0.1c0,0,0,0,0,0c0,0,0.1-0.1,0.1-0.1c0,0,0,0,0,0c0,0,0,0,0,0l0,0
		c0,0,0,0,0,0c0,0-0.2-0.2-0.2-0.2c0,0,0,0,0,0c0,0-0.1,0.1-0.1,0.1c0,0-0.1,0-0.1,0.1c0,0,0,0,0,0c0,0,0,0,0,0c0,0-0.1,0-0.1,0
		c0,0,0,0,0,0c0,0-0.1,0-0.1,0c0,0,0,0,0,0c0,0,0,0,0,0l0,0c0,0,0,0,0,0c0,0,0,0,0,0v0c0,0.1,0,0.2,0,0.3c0,0,0.1,0,0.1,0L93,40.1
		L93,40.1z"/>
</g>
<g class="st9">
	<path class="st10" d="M92.6,42.3C92.6,42.3,92.6,42.3,92.6,42.3C92.6,42.4,92.6,42.4,92.6,42.3c0.1,0,0.1,0.1,0.1,0.1c0,0,0,0,0,0
		c0,0,0,0,0,0c0,0,0,0,0,0c0,0,0,0,0,0c0,0,0,0,0,0c0,0,0,0,0,0c0,0,0,0,0,0c0,0,0,0,0,0c0,0,0.1,0,0.1,0v0c0,0,0.1,0,0.1,0
		c0,0,0,0,0,0c0,0,0,0,0,0c0,0,0,0,0,0l0,0c0,0,0,0,0,0c0,0,0.1-0.2,0.1-0.2c0,0,0,0,0,0s0,0,0,0c0,0,0,0,0,0l-0.1,0
		c0,0-0.1,0-0.1,0c0,0,0,0,0,0c0,0,0,0,0,0c0,0-0.1,0-0.1-0.1c0,0,0,0,0,0c0,0-0.1,0-0.1,0c0,0,0,0,0,0c0,0,0,0,0,0c0,0,0,0,0,0
		c0,0,0,0,0,0c0,0,0,0,0,0c0,0,0,0,0,0v0c0,0.1-0.1,0.2-0.1,0.3c0,0,0.1,0,0.1,0h0C92.5,42.3,92.6,42.3,92.6,42.3z"/>
</g>
<g class="st9">
	<path class="st10" d="M93.2,44.1C93.2,44.1,93.2,44.1,93.2,44.1C93.2,44.1,93.2,44.1,93.2,44.1c0.1,0,0.1,0,0.2,0c0,0,0,0,0,0
		c0,0,0,0,0,0s0,0,0,0c0,0,0,0,0,0c0,0,0,0,0,0c0,0,0.1,0,0.1,0c0,0,0,0,0,0c0,0,0.1,0,0.1,0c0,0,0,0,0,0h0c0,0,0,0,0,0
		c0,0,0-0.3,0-0.3c0,0,0,0,0,0h0h0c0,0-0.1,0-0.1,0c0,0-0.1,0-0.2,0c0,0,0,0,0,0s0,0,0,0c0,0,0,0,0,0c0,0-0.1,0-0.1,0c0,0,0,0,0,0
		c0,0-0.1,0-0.1,0c0,0,0,0,0,0c0,0,0,0,0,0c0,0,0,0,0,0c0,0,0,0,0,0c0,0,0,0,0,0c0,0,0,0,0,0v0c0,0.1,0,0.2,0.1,0.3c0,0,0.1,0,0.1,0
		h0C93,44.1,93.2,44.1,93.2,44.1z"/>
</g>
<g class="st9">
	<path class="st10" d="M93.2,46.1C93.2,46.1,93.2,46.1,93.2,46.1C93.2,46.1,93.2,46.1,93.2,46.1C93.2,46.1,93.2,46.1,93.2,46.1
		C93.2,46.1,93.2,46.1,93.2,46.1z"/>
	<path class="st10" d="M93.4,46.1C93.4,46.1,93.4,46.1,93.4,46.1c0.1,0,0.1,0,0.1,0c0,0,0,0,0,0c0,0,0,0,0,0c0,0,0,0,0,0
		c0,0,0,0,0,0c0,0,0,0,0,0s0,0,0,0c0,0,0.1,0,0.1,0c0,0,0,0,0,0c0,0,0.1,0,0.1,0v0c0,0,0,0,0,0c0,0,0,0,0,0h0c0,0,0,0,0,0l0-0.3
		c0,0,0,0,0,0c0,0,0,0,0,0c0,0,0,0,0,0c-0.1,0-0.1,0-0.2,0c-0.1,0-0.1,0-0.2,0c0,0,0,0,0,0c0,0,0,0,0,0c0,0-0.1,0-0.1,0c0,0,0,0,0,0
		c0,0-0.1,0-0.1,0c0,0,0,0,0,0c0,0,0,0,0,0c0,0,0,0,0,0l0,0c0,0,0,0,0,0c0,0,0,0-0.1,0l0,0c0,0.1,0.1,0.2,0.1,0.3c0,0,0.1,0,0.1,0h0
		L93.4,46.1z"/>
</g>
<g class="st9">
	<path class="st10" d="M107.2,27.5C107.2,27.5,107.2,27.5,107.2,27.5C107.2,27.5,107.2,27.5,107.2,27.5
		C107.2,27.5,107.2,27.5,107.2,27.5z"/>
	<path class="st10" d="M107.5,27.4C107.5,27.4,107.5,27.4,107.5,27.4C107.6,27.4,107.6,27.4,107.5,27.4c0.1,0,0.2,0,0.2-0.1
		c0,0,0,0,0,0s0,0,0,0c0,0,0,0,0,0c0,0,0,0,0,0c0,0,0,0,0,0c0,0,0,0,0,0c0,0,0,0,0,0c0,0,0,0,0,0c0,0,0,0,0,0c0,0,0,0,0,0
		c0,0,0,0,0,0c0,0,0.1-0.1,0.1-0.1c0,0,0,0,0,0s0.2-0.1,0.2-0.1c0,0,0,0,0,0c0,0,0,0,0,0c0,0,0,0,0.1,0c0,0,0,0,0,0
		c0,0-0.1-0.2-0.1-0.3c0,0,0,0,0,0s0,0,0,0s0,0,0,0c0,0,0,0,0,0c0,0,0,0,0,0c0,0,0,0,0,0c0,0-0.2,0.1-0.2,0.1
		c-0.1,0-0.2,0.1-0.2,0.1c0,0,0,0,0,0c0,0,0,0,0,0c-0.1,0-0.1,0-0.2,0.1c0,0,0,0-0.1,0c0,0-0.1,0-0.1,0c0,0,0,0,0,0c0,0,0,0,0,0l0,0
		c0,0,0,0,0,0c0,0-0.1,0-0.1,0h0c0,0,0.1,0.2,0.1,0.3c0,0,0,0,0,0c0,0,0,0,0,0c0.1,0,0.1,0,0.2,0l0,0
		C107.4,27.4,107.5,27.4,107.5,27.4z"/>
</g>
<g class="st9">
	<path class="st10" d="M108,28.1C108,28.1,108.1,28.1,108,28.1C108.1,28.1,108.1,28.1,108,28.1C108.1,28.1,108.1,28.1,108,28.1z"/>
	<path class="st10" d="M108.4,28.1C108.4,28.1,108.4,28.1,108.4,28.1C108.4,28.1,108.4,28.1,108.4,28.1c0.1,0,0.2,0,0.2,0
		c0,0,0,0,0,0c0,0,0,0,0,0c0,0,0,0,0,0c0,0,0,0,0,0c0,0,0,0,0,0c0,0,0,0,0,0c0,0,0,0,0,0c0,0,0,0,0,0c0,0,0,0,0,0c0,0,0,0,0,0h0
		c0,0,0.1,0,0.1-0.1c0,0,0,0,0,0c0.1,0,0.1,0,0.2,0c0,0,0,0,0,0h0c0,0,0,0,0,0h0.1c0,0,0,0,0,0c0,0,0-0.3,0-0.3c0,0,0,0,0,0
		c0,0,0,0,0,0s0,0,0,0s0,0,0,0c0,0,0,0,0,0c0,0,0,0,0,0c0,0,0,0,0,0l-0.2,0c-0.1,0-0.2,0-0.2,0.1c0,0,0,0,0,0c0,0,0,0,0,0
		c-0.1,0-0.1,0-0.2,0c0,0,0,0-0.1,0c0,0-0.1,0-0.1,0c0,0,0,0,0,0c0,0,0,0,0,0s0,0,0,0c0,0,0,0,0,0c0,0,0,0,0,0c0,0-0.1,0-0.1,0l0,0
		c0,0.1,0,0.2,0.1,0.3c0,0,0,0,0,0c0.1,0,0.1,0,0.2,0h0C108.3,28.1,108.3,28.1,108.4,28.1z"/>
</g>
<g class="st9">
	<path class="st10" d="M109.3,29.7C109.3,29.7,109.3,29.7,109.3,29.7C109.3,29.7,109.3,29.7,109.3,29.7c0.1,0,0.1,0,0.2,0
		c0,0,0,0,0,0c0,0,0,0,0,0c0,0,0,0,0,0s0,0,0,0c0,0,0,0,0,0c0,0,0,0,0,0c0,0,0,0,0,0h0c0,0,0.1,0,0.1-0.1v0c0,0,0.1,0,0.1,0v0
		c0,0,0,0,0,0v0c0,0,0,0,0,0c0,0,0,0,0,0c0,0,0-0.3,0-0.3c0,0,0,0,0,0c0,0,0,0,0,0c0,0,0,0,0,0h0.1c0,0,0,0,0,0c-0.1,0-0.1,0-0.2,0
		c-0.1,0-0.1,0-0.2,0.1c0,0,0,0,0,0c0,0,0,0,0,0c-0.1,0-0.1,0-0.2,0c0,0,0,0,0,0c0,0-0.1,0-0.1,0c0,0,0,0,0,0c0,0,0,0,0,0
		c0,0,0,0,0,0l0,0c0,0,0,0,0,0c0,0,0,0-0.1,0h0c0,0.1,0.1,0.2,0.1,0.2c0,0,0.1,0,0.1,0L109.3,29.7C109.2,29.7,109.3,29.7,109.3,29.7
		z"/>
</g>
<g class="st9">
	<path class="st10" d="M109.2,31.1C109.2,31.1,109.2,31.1,109.2,31.1C109.2,31.1,109.2,31.1,109.2,31.1
		C109.2,31.1,109.2,31.1,109.2,31.1C109.2,31.1,109.2,31.1,109.2,31.1z"/>
	<path class="st10" d="M109.6,31C109.6,31,109.6,31,109.6,31C109.6,31,109.6,31,109.6,31c0.1,0,0.2,0,0.2,0c0,0,0,0,0,0c0,0,0,0,0,0
		c0,0,0,0,0,0c0,0,0,0,0,0c0,0,0,0,0,0c0,0,0,0,0,0c0,0,0,0,0,0c0,0,0,0,0,0c0,0,0,0,0,0c0,0,0,0,0,0l0,0c0,0,0.1,0,0.1-0.1
		c0,0,0,0,0,0c0.1,0,0.1,0,0.2,0c0,0,0,0,0,0c0,0,0,0,0,0h0v0l0.1,0c0,0,0,0,0,0c0,0,0-0.2,0-0.3h0c0,0,0,0,0,0c0,0,0,0,0,0
		c0,0,0,0,0,0c0,0,0,0,0,0l-0.2,0.1c-0.1,0-0.2,0-0.2,0.1c0,0,0,0,0,0c0,0,0,0,0,0c-0.1,0-0.1,0-0.2,0c0,0,0,0-0.1,0l-0.1,0
		c0,0,0,0,0,0c0,0,0,0,0,0c0,0,0,0,0,0c0,0,0,0,0,0c0,0-0.1,0-0.1,0h0c0,0,0,0.2,0.1,0.3c0,0,0,0,0,0s0,0,0,0c0.1,0,0.1,0,0.2,0h0
		C109.4,31.1,109.6,31,109.6,31z"/>
</g>
<g class="st9">
	<path class="st10" d="M109.5,32.3C109.5,32.3,109.5,32.3,109.5,32.3C109.6,32.3,109.5,32.3,109.5,32.3z"/>
	<path class="st10" d="M109.9,32.2C109.9,32.2,109.9,32.2,109.9,32.2C110,32.2,110,32.2,109.9,32.2c0.1,0,0.2,0,0.3,0c0,0,0,0,0,0
		c0,0,0,0,0,0c0,0,0,0,0,0s0,0,0,0c0,0,0,0,0,0c0,0,0,0,0,0c0,0,0,0,0,0c0,0,0,0,0,0c0,0,0,0,0,0c0,0,0,0,0,0c0,0,0.1,0,0.1-0.1v0
		c0.1,0,0.1,0,0.2,0c0,0,0,0,0,0c0,0,0,0,0,0c0,0,0,0,0,0h0.1c0,0,0,0,0.1,0c0,0,0-0.3,0-0.3c0,0,0,0,0,0s0,0,0,0c0,0,0,0,0,0
		c0,0,0,0,0,0c0,0,0,0,0,0c0,0,0,0,0,0c0,0-0.2,0-0.3,0.1c-0.1,0-0.2,0-0.3,0.1c0,0,0,0,0,0c0,0,0,0,0,0c-0.1,0-0.2,0-0.2,0
		c0,0,0,0-0.1,0c0,0-0.1,0-0.2,0c0,0,0,0,0,0c0,0,0,0,0,0c0,0,0,0,0,0c0,0,0,0,0,0c0,0-0.1,0-0.1,0h0c0,0,0,0.2,0.1,0.3c0,0,0,0,0,0
		h0c0,0,0,0,0,0c0,0,0,0,0,0c0.1,0,0.1,0,0.2,0l0.1,0C109.8,32.3,109.9,32.3,109.9,32.2z"/>
</g>
<g class="st9">
	<path class="st10" d="M109.8,33.9L109.8,33.9C109.9,33.9,109.9,33.9,109.8,33.9C109.9,33.9,109.8,33.9,109.8,33.9z"/>
	<path class="st10" d="M110.2,33.9C110.2,33.9,110.2,33.9,110.2,33.9C110.2,33.9,110.2,33.9,110.2,33.9c0.1,0,0.2,0,0.2,0s0,0,0,0
		c0,0,0,0,0,0c0,0,0,0,0,0c0,0,0,0,0,0c0,0,0,0,0,0c0,0,0,0,0,0c0,0,0,0,0,0c0,0,0,0,0,0c0,0,0,0,0,0h0c0,0,0,0,0,0c0,0,0.1,0,0.1,0
		v0c0.1,0,0.1,0,0.2,0c0,0,0,0,0,0c0,0,0,0,0,0h0.1c0,0,0,0,0.1,0c0,0,0-0.3,0-0.3c0,0,0,0,0,0c0,0,0,0,0,0c0,0,0,0,0,0c0,0,0,0,0,0
		l-0.2,0c-0.1,0-0.2,0-0.2,0c0,0,0,0,0,0c0,0,0,0,0,0c-0.1,0-0.1,0-0.2,0c0,0,0,0-0.1,0c0,0-0.1,0-0.1,0c0,0,0,0,0,0c0,0,0,0,0,0
		c0,0,0,0,0,0c0,0,0,0,0,0c0,0-0.1,0-0.1,0l0,0c0,0.1,0,0.2,0,0.3c0.1,0,0.1,0,0.2,0h0L110.2,33.9z"/>
</g>
<g class="st9">
	<path class="st10" d="M110.4,35.1C110.4,35.1,110.4,35.1,110.4,35.1C110.5,35.1,110.5,35.1,110.4,35.1c0,0,0.2,0.1,0.2,0.1
		c0,0,0,0,0,0c0,0,0,0,0,0c0,0,0,0,0,0c0,0,0,0,0,0c0,0,0,0,0,0c0,0,0,0,0,0v0c0,0,0,0,0,0c0,0,0,0,0,0c0,0,0,0,0,0c0,0,0.1,0,0.1,0
		h0l0,0c0.1,0,0.1,0.1,0.2,0.1c0,0,0,0,0,0c0,0,0,0,0,0c0,0,0,0,0,0l0.1,0c0,0,0,0,0.1,0l0.2-0.2c0,0,0,0,0,0s0,0,0,0c0,0,0,0,0,0
		c0,0,0,0,0,0c0,0,0,0,0,0c0,0,0,0,0,0c0,0,0,0,0,0c0,0,0,0,0,0c0,0-0.2-0.1-0.2-0.1c-0.1,0-0.2-0.1-0.3-0.1c0,0,0,0,0,0
		c0,0,0,0,0,0c-0.1,0-0.1-0.1-0.2-0.1c0,0,0,0-0.1,0c0,0-0.1,0-0.2,0c0,0,0,0,0,0c0,0,0,0,0,0h-0.1c0,0,0,0,0,0c0,0-0.1,0-0.1,0l0,0
		c0,0-0.1,0.2,0,0.3c0,0,0,0,0,0c0,0,0,0,0,0l0.2,0.1h0C110.3,35,110.4,35.1,110.4,35.1z"/>
</g>
<g class="st9">
	<path class="st10" d="M110.2,36.3C110.2,36.3,110.2,36.3,110.2,36.3C110.2,36.3,110.2,36.3,110.2,36.3
		C110.2,36.3,110.2,36.3,110.2,36.3z"/>
	<path class="st10" d="M110.5,36.3C110.5,36.3,110.5,36.4,110.5,36.3C110.6,36.3,110.6,36.3,110.5,36.3c0.1,0,0.2,0,0.2,0
		c0,0,0,0,0,0s0,0,0,0c0,0,0,0,0,0c0,0,0,0,0,0c0,0,0,0,0,0c0,0,0,0,0,0c0,0,0,0,0,0c0,0,0,0,0,0c0,0,0,0,0,0c0,0,0.1,0,0.1,0
		c0,0,0,0,0,0c0.1,0,0.1,0,0.2,0v0c0,0,0,0,0,0c0,0,0,0,0,0h0.1c0,0,0,0,0.1,0c0,0,0.1-0.2,0.1-0.3c0,0,0,0,0,0c0,0,0,0,0,0
		c0,0,0,0,0,0c0,0,0,0,0,0c0,0,0,0,0,0c0,0,0,0,0,0c0,0,0,0,0,0l-0.2,0c-0.1,0-0.2,0-0.2,0c0,0,0,0,0,0c0,0,0,0,0,0
		c-0.1,0-0.1,0-0.2,0c0,0,0,0-0.1,0c0,0-0.1,0-0.1,0c0,0,0,0,0,0s0,0,0,0c0,0,0,0,0,0c0,0,0,0,0,0c0,0,0,0-0.1,0v0
		c0,0.1,0,0.2,0,0.3c0,0,0,0,0,0c0,0,0,0,0,0c0,0,0.1,0,0.1,0h0L110.5,36.3z"/>
</g>
<g class="st9">
	<path class="st10" d="M110.9,38.8C110.9,38.8,110.9,38.8,110.9,38.8C111,38.8,110.9,38.8,110.9,38.8z"/>
	<path class="st10" d="M111.2,38.7C111.2,38.7,111.2,38.7,111.2,38.7C111.2,38.7,111.2,38.7,111.2,38.7c0.1,0,0.1-0.1,0.2-0.1
		c0,0,0,0,0,0c0,0,0,0,0,0c0,0,0,0,0,0s0,0,0,0c0,0,0,0,0,0c0,0,0,0,0,0h0c0,0,0,0,0,0c0,0,0.1-0.1,0.1-0.1v0c0,0,0.1-0.1,0.1-0.1
		c0,0,0,0,0,0v0l0,0c0,0,0,0,0,0c0,0-0.1-0.2-0.1-0.2c0,0,0,0,0,0s0,0,0,0c0,0,0,0,0,0c0,0,0,0,0,0c0,0,0,0,0,0l-0.2,0.1
		c0,0-0.1,0.1-0.2,0.1h0c0,0,0,0,0,0c0,0-0.1,0.1-0.1,0.1c0,0,0,0,0,0c0,0-0.1,0-0.1,0.1c0,0,0,0,0,0c0,0,0,0,0,0s0,0,0,0
		c0,0,0,0,0,0c0,0,0,0,0,0c0,0,0,0-0.1,0h0c0,0.1,0.1,0.2,0.1,0.2c0,0,0.1,0,0.1-0.1l0,0C111.1,38.7,111.1,38.7,111.2,38.7z"/>
</g>
<g class="st9">
	<path class="st10" d="M111.3,40.4C111.3,40.4,111.3,40.4,111.3,40.4C111.3,40.4,111.3,40.4,111.3,40.4
		C111.3,40.4,111.3,40.4,111.3,40.4C111.3,40.4,111.3,40.4,111.3,40.4z"/>
	<path class="st10" d="M111.6,40.3C111.6,40.3,111.6,40.3,111.6,40.3C111.7,40.3,111.7,40.3,111.6,40.3c0.1,0,0.2-0.1,0.2-0.1
		c0,0,0,0,0,0c0,0,0,0,0,0c0,0,0,0,0,0c0,0,0,0,0,0c0,0,0,0,0,0c0,0,0,0,0,0c0,0,0,0,0,0c0,0,0,0,0,0c0,0,0,0,0,0
		c0,0,0.1-0.1,0.1-0.1c0,0,0,0,0,0c0,0,0.2-0.1,0.2-0.1c0,0,0,0,0,0c0,0,0,0,0,0c0,0,0,0,0.1,0c0,0,0,0,0,0c0,0-0.1-0.2-0.1-0.3h0
		c0,0,0,0,0,0c0,0,0,0,0,0c0,0,0,0,0,0c0,0,0,0,0,0c0,0-0.2,0.1-0.2,0.1c-0.1,0-0.2,0.1-0.2,0.1c0,0,0,0,0,0c0,0,0,0,0,0
		c-0.1,0-0.1,0-0.2,0.1c0,0,0,0,0,0c0,0-0.1,0-0.1,0c0,0,0,0,0,0c0,0,0,0,0,0c0,0,0,0,0,0c0,0,0,0,0,0c0,0-0.1,0-0.1,0h0
		c0,0.1,0.1,0.2,0.1,0.3c0,0,0,0,0,0c0.1,0,0.1,0,0.2,0l0,0C111.5,40.3,111.6,40.3,111.6,40.3z"/>
</g>
<g class="st9">
	<path class="st10" d="M111.7,41.7C111.7,41.7,111.7,41.7,111.7,41.7C111.7,41.8,111.7,41.8,111.7,41.7c0.1,0,0.1,0.1,0.1,0.1
		c0,0,0,0,0,0c0,0,0,0,0,0c0,0,0,0,0,0c0,0,0,0,0,0c0,0,0,0,0,0c0,0,0,0,0,0c0,0,0,0,0,0c0,0,0,0,0,0c0,0,0.1,0,0.1,0l0,0
		c0,0,0.1,0,0.1,0.1c0,0,0,0,0,0c0,0,0,0,0,0c0,0,0,0,0,0l0,0c0,0,0,0,0,0l0.1-0.2c0,0,0,0,0,0c0,0,0,0,0,0c0,0,0,0,0,0l-0.2-0.1
		c-0.1,0-0.1,0-0.2-0.1c0,0,0,0,0,0c0,0,0,0,0,0c0,0-0.1,0-0.1-0.1c0,0,0,0,0,0c0,0-0.1,0-0.1,0c0,0,0,0,0,0c0,0,0,0,0,0s0,0,0,0h0
		c0,0,0,0,0,0c0,0,0,0,0,0v0c-0.1,0.1-0.1,0.2-0.1,0.3c0,0,0,0,0,0C111.6,41.7,111.6,41.7,111.7,41.7
		C111.6,41.7,111.6,41.7,111.7,41.7L111.7,41.7z"/>
</g>
<g class="st9">
	<path class="st10" d="M111.9,43.7C111.9,43.7,111.9,43.7,111.9,43.7c0,0,0,0.1,0.1,0.1C112,43.8,112,43.8,111.9,43.7
		c0.1,0.1,0.1,0.1,0.1,0.1c0,0,0,0,0,0c0,0,0,0,0,0c0,0,0,0,0,0v0c0,0,0,0,0,0c0,0,0.1,0,0.1,0h0c0,0,0,0.1,0.1,0.1c0,0,0,0,0,0h0
		c0,0,0,0,0,0c0,0,0,0,0,0l0.2-0.1h0c0,0,0,0,0,0c0,0,0,0,0,0c0,0,0,0,0,0l-0.1-0.1c0,0-0.1-0.1-0.1-0.1c0,0,0,0,0,0c0,0,0,0,0,0
		c0,0,0-0.1-0.1-0.1c0,0,0,0,0,0c0,0,0-0.1,0-0.1c0,0,0,0,0,0c0,0,0,0,0,0c0,0,0,0,0,0c0,0,0,0,0,0c0,0,0,0,0,0v0
		c-0.1,0-0.2,0.1-0.2,0.2c0,0,0,0.1,0,0.1c0,0,0,0,0,0C111.9,43.5,111.9,43.7,111.9,43.7z"/>
</g>
<g class="st9">
	<path class="st10" d="M111.4,45C111.4,45,111.4,45,111.4,45C111.4,45,111.4,45,111.4,45C111.4,45,111.4,45,111.4,45z"/>
	<path class="st10" d="M111.5,45.3C111.5,45.3,111.5,45.3,111.5,45.3C111.5,45.3,111.5,45.3,111.5,45.3c0,0.1,0,0.2,0,0.2
		c0,0,0,0,0,0c0,0,0,0,0,0c0,0,0,0,0,0c0,0,0,0,0,0c0,0,0,0,0,0c0,0,0,0,0,0c0,0,0,0,0,0c0,0,0,0,0,0c0,0,0,0,0,0c0,0,0,0,0,0
		c0,0,0,0.1,0.1,0.1h0c0,0.1,0,0.1,0,0.2c0,0,0,0,0,0h0c0,0,0,0,0,0.1c0,0,0,0,0,0l0.3,0v0c0,0,0,0,0,0s0,0,0,0s0,0,0,0s0,0,0,0
		c0,0,0,0,0,0c0,0,0,0,0,0c0,0,0,0,0,0c0,0-0.1-0.2-0.1-0.2c0-0.1,0-0.1-0.1-0.2c0,0,0,0,0,0c0,0,0,0,0,0c0-0.1,0-0.1,0-0.2
		c0,0,0,0,0,0c0,0,0-0.1,0-0.1c0,0,0,0,0,0s0,0,0,0c0,0,0,0.1,0,0.1c0,0,0,0,0,0c0,0,0,0,0-0.1l0,0c0,0-0.2,0-0.3,0.1c0,0,0,0,0,0
		c0,0,0,0.1,0,0.1C111.5,45.1,111.5,45.2,111.5,45.3C111.5,45.2,111.5,45.3,111.5,45.3z"/>
</g>
<g class="st9">
	<path class="st10" d="M111.1,46.5C111.1,46.5,111.1,46.5,111.1,46.5C111.1,46.5,111.1,46.5,111.1,46.5
		C111.1,46.6,111.1,46.6,111.1,46.5C111.1,46.6,111.1,46.6,111.1,46.5C111.1,46.6,111.1,46.6,111.1,46.5c-0.1,0.1-0.1,0.1-0.1,0.1
		l0,0c0,0,0,0,0,0.1h0v0c0,0,0,0,0,0c0,0,0,0,0,0l0.2,0.2v0c0,0,0-0.1,0-0.1c0,0,0-0.1,0-0.1c0,0,0,0,0,0c0,0,0,0,0.1-0.1
		c0,0,0,0,0,0c0,0,0,0,0,0c0,0,0,0,0,0c0,0,0,0,0,0c0,0,0,0,0,0c0,0,0,0,0,0c0,0,0,0,0,0c0,0,0,0,0,0h0c-0.1-0.1-0.1-0.1-0.2-0.2
		c0,0,0,0,0,0L111.1,46.5L111.1,46.5z"/>
</g>
<g class="st9">
	<path class="st10" d="M110,47C110,47,110,47,110,47C110,47,110,47,110,47z"/>
	<path class="st10" d="M109.8,47.2C109.8,47.2,109.8,47.2,109.8,47.2C109.8,47.2,109.8,47.2,109.8,47.2c0,0.1-0.1,0.1-0.1,0.2
		c0,0,0,0,0,0c0,0,0,0,0,0c0,0,0,0,0,0c0,0,0,0,0,0c0,0,0,0,0,0v0c0,0,0,0,0,0c0,0,0,0,0,0c0,0,0,0,0,0c0,0,0,0,0,0c0,0,0,0.1,0,0.1
		l0,0c0,0,0,0.1-0.1,0.1c0,0,0,0,0,0c0,0,0,0,0,0c0,0,0,0,0,0c0,0,0,0,0,0.1c0,0,0,0,0,0l0.2,0.1c0,0,0,0,0,0s0,0,0,0s0,0,0,0
		c0,0,0,0,0,0c0,0,0,0,0,0c0,0,0,0,0,0c0,0,0,0,0,0c0,0,0.1-0.2,0.1-0.2c0,0,0.1-0.1,0.1-0.2c0,0,0,0,0,0c0,0,0,0,0,0c0,0,0,0,0,0
		c0-0.1,0-0.1,0.1-0.2c0,0,0,0,0,0c0,0,0-0.1,0-0.1c0,0,0,0,0,0c0,0,0,0,0,0c0,0,0,0,0,0c0,0,0,0,0,0c0,0,0,0,0-0.1h0
		c-0.1,0-0.2-0.1-0.3-0.1c0,0,0,0,0,0c0,0,0,0.1-0.1,0.1c0,0,0,0,0,0C109.9,47.1,109.8,47.2,109.8,47.2z"/>
</g>
<g class="st9">
	<path class="st10" d="M108.6,47.3C108.6,47.3,108.6,47.3,108.6,47.3C108.6,47.3,108.6,47.3,108.6,47.3
		C108.6,47.3,108.6,47.3,108.6,47.3C108.6,47.3,108.6,47.3,108.6,47.3z"/>
	<path class="st10" d="M108.3,47.6C108.3,47.6,108.3,47.6,108.3,47.6C108.3,47.6,108.3,47.6,108.3,47.6
		C108.3,47.7,108.3,47.7,108.3,47.6L108.3,47.6c-0.1,0.1-0.1,0.2-0.2,0.2c0,0,0,0,0,0c0,0,0,0,0,0c0,0,0,0,0,0c0,0,0,0,0,0
		c0,0,0,0,0,0v0v0h0c0,0,0,0,0,0c0,0,0,0,0,0c0,0,0,0,0,0c0,0,0,0.1,0,0.1v0c0,0,0,0,0,0c0,0-0.1,0.2-0.1,0.2c0,0,0,0,0,0s0,0,0,0
		c0,0,0,0,0,0v0c0,0,0,0,0,0c0,0,0,0,0,0.1c0,0,0,0,0,0.1l0.2,0.1c0,0,0,0,0,0c0,0,0,0,0,0c0,0,0,0,0,0c0,0,0,0,0,0c0,0,0,0,0,0
		c0,0,0,0,0,0c0,0,0,0,0,0c0,0,0,0,0,0l0.1-0.2c0-0.1,0.1-0.2,0.1-0.2c0,0,0,0,0,0c0,0,0,0,0,0c0-0.1,0.1-0.1,0.1-0.2c0,0,0,0,0-0.1
		c0,0,0.1-0.1,0.1-0.1c0,0,0,0,0,0c0,0,0,0,0,0c0,0,0,0,0-0.1c0,0,0,0,0,0c0,0,0,0,0.1-0.1h0c0,0-0.2-0.2-0.2-0.2c0,0,0,0,0,0
		c0,0-0.1,0.1-0.1,0.1c0,0,0,0,0,0C108.4,47.6,108.4,47.6,108.3,47.6z"/>
</g>
<g class="st9">
	<path class="st10" d="M107.1,47.3C107.1,47.3,107.1,47.3,107.1,47.3C107.1,47.3,107.1,47.3,107.1,47.3
		C107.1,47.3,107.1,47.3,107.1,47.3z"/>
	<path class="st10" d="M106.8,47.6C106.8,47.6,106.8,47.6,106.8,47.6C106.7,47.6,106.7,47.6,106.8,47.6
		C106.7,47.6,106.7,47.6,106.8,47.6c0,0.1-0.2,0.2-0.2,0.2c0,0,0,0,0,0c0,0,0,0,0,0s0,0,0,0c0,0,0,0,0,0c0,0,0,0,0,0c0,0,0,0,0,0
		s0,0,0,0c0,0,0,0,0,0c0,0,0,0,0,0c0,0,0,0,0,0c0,0,0,0,0,0c0,0-0.1,0.1-0.1,0.1v0v0c0,0-0.1,0.2-0.2,0.2c0,0,0,0,0,0c0,0,0,0,0,0
		c0,0,0,0,0,0l-0.1,0.1c0,0,0,0,0,0c0,0,0,0,0,0.1l0.2,0.2c0,0,0,0,0,0c0,0,0,0,0,0c0,0,0,0,0,0s0,0,0,0c0,0,0,0,0,0c0,0,0,0,0,0
		c0,0,0,0,0,0c0,0,0.2-0.2,0.2-0.2c0.1-0.1,0.2-0.2,0.2-0.3c0,0,0,0,0,0c0,0,0,0,0,0c0.1-0.1,0.1-0.1,0.2-0.2c0,0,0,0,0-0.1
		c0,0,0.1-0.1,0.1-0.1c0,0,0,0,0,0c0,0,0,0,0,0c0,0,0,0,0-0.1c0,0,0,0,0,0c0,0,0.1,0,0.1-0.1h0c0,0-0.2-0.2-0.2-0.2c0,0,0,0,0,0
		s0,0,0,0c0,0,0,0,0,0s-0.1,0.1-0.2,0.2l0,0C106.9,47.5,106.8,47.6,106.8,47.6z"/>
</g>
<g class="st9">
	<path class="st10" d="M105.2,47.6C105.2,47.6,105.2,47.6,105.2,47.6C105.1,47.6,105.1,47.6,105.2,47.6c-0.1,0.1-0.1,0.1-0.1,0.1
		c0,0,0,0,0,0c0,0,0,0,0,0c0,0,0,0,0,0c0,0,0,0,0,0s0,0,0,0s0,0,0,0c0,0,0,0,0,0c0,0,0,0,0,0c0,0,0,0,0,0c0,0,0,0.1,0,0.1
		c0,0,0,0,0,0c0,0-0.1,0.1-0.1,0.1c0,0,0,0,0,0c0,0,0,0,0,0c0,0,0,0,0,0l0,0c0,0,0,0,0,0c0,0,0.2,0.2,0.2,0.2c0,0,0,0,0,0
		c0,0,0,0,0,0v0c0,0,0,0,0,0c0,0,0,0,0,0c0,0,0,0,0,0c0,0,0.1-0.1,0.1-0.1c0,0,0.1-0.1,0.1-0.1c0,0,0,0,0,0c0,0,0,0,0,0
		c0,0,0.1-0.1,0.1-0.1c0,0,0,0,0,0c0,0,0.1-0.1,0.1-0.1c0,0,0,0,0,0c0,0,0,0,0,0c0,0,0,0,0,0c0,0,0,0,0,0c0,0,0,0,0,0c0,0,0,0,0,0h0
		c0,0-0.2-0.2-0.2-0.2c0,0-0.1,0-0.1,0.1c0,0,0,0,0,0C105.3,47.5,105.2,47.6,105.2,47.6z"/>
</g>
<g class="st9">
	<path class="st10" d="M104.3,47.3L104.3,47.3C104.3,47.3,104.3,47.3,104.3,47.3z"/>
	<path class="st10" d="M104.1,47.5C104.1,47.5,104.1,47.5,104.1,47.5C104.1,47.5,104.1,47.5,104.1,47.5c-0.1,0.1-0.1,0.1-0.1,0.1
		c0,0,0,0,0,0c0,0,0,0,0,0c0,0,0,0,0,0c0,0,0,0,0,0h0c0,0,0,0,0,0c0,0,0,0,0,0c0,0,0,0,0,0c0,0,0,0,0,0c0,0,0,0.1,0,0.1l0,0
		c0,0-0.1,0.1-0.1,0.1c0,0,0,0,0,0c0,0,0,0,0,0c0,0,0,0,0,0l0,0c0,0,0,0,0,0l0.2,0.2c0,0,0,0,0,0c0,0,0,0,0,0s0,0,0,0c0,0,0,0,0,0
		c0,0,0,0,0,0c0,0,0.1-0.1,0.1-0.1c0,0,0.1-0.1,0.1-0.1c0,0,0,0,0,0c0,0,0,0,0,0c0,0,0.1-0.1,0.1-0.1c0,0,0,0,0,0
		c0,0,0.1-0.1,0.1-0.1c0,0,0,0,0,0v0c0,0,0,0,0,0c0,0,0,0,0,0c0,0,0,0,0,0h0c-0.1-0.1-0.1-0.1-0.2-0.2c0,0-0.1,0-0.1,0.1L104.1,47.5
		L104.1,47.5z"/>
</g>
<g class="st9">
	<path class="st10" d="M103,47.5C103,47.5,103,47.5,103,47.5C102.9,47.5,103,47.5,103,47.5c0,0-0.1,0.2-0.1,0.2c0,0,0,0,0,0
		c0,0,0,0,0,0c0,0,0,0,0,0c0,0,0,0,0,0c0,0,0,0,0,0v0c0,0,0,0,0,0c0,0,0,0,0,0c0,0,0,0,0,0c0,0,0,0,0,0c0,0,0,0.1,0,0.1l0,0
		c0,0.1,0,0.1-0.1,0.1h0c0,0,0,0,0,0c0,0,0,0,0,0c0,0,0,0,0,0c0,0,0,0,0,0.1c0,0,0,0,0,0l0.2,0.2c0,0,0,0,0,0c0,0,0,0,0,0
		c0,0,0,0,0,0c0,0,0,0,0,0c0,0,0,0,0,0c0,0,0,0,0,0c0,0,0,0,0,0c0,0,0.1-0.2,0.1-0.2c0-0.1,0.1-0.1,0.1-0.2c0,0,0,0,0,0c0,0,0,0,0,0
		c0-0.1,0-0.1,0.1-0.2c0,0,0,0,0-0.1c0,0,0-0.1,0-0.1c0,0,0,0,0,0c0,0,0,0,0,0s0,0,0,0c0,0,0,0,0,0s0,0,0,0c0,0,0,0,0-0.1h0
		c-0.1,0-0.2-0.1-0.3-0.1v0c0,0,0,0.1-0.1,0.1v0L103,47.5z"/>
</g>
<path class="st8" d="M102.5,45.3C102.5,45.3,102.5,45.3,102.5,45.3C102.5,45.3,102.5,45.4,102.5,45.3
	C102.5,45.4,102.5,45.3,102.5,45.3C102.5,45.3,102.5,45.3,102.5,45.3z"/>
<path class="st8" d="M102.7,45.5C102.7,45.5,102.7,45.5,102.7,45.5C102.7,45.5,102.7,45.5,102.7,45.5c0,0,0.1,0.1,0.1,0.1
	C102.8,45.6,102.7,45.6,102.7,45.5c0.1,0.1,0.1,0.1,0.1,0.1c0,0,0,0,0,0c0,0,0,0,0,0v0c0,0,0,0,0,0c0,0,0,0,0.1,0h0c0,0,0,0.1,0,0.1
	h0h0h0c0,0,0,0,0,0c0,0,0,0,0,0h0.3c0,0,0,0,0,0s0,0,0,0s0,0,0,0c0,0,0,0,0,0c0,0,0,0,0,0c0,0,0,0,0,0c0-0.1,0-0.1-0.1-0.2
	c0-0.1-0.1-0.1-0.1-0.2c0,0,0,0,0,0c0,0,0,0,0,0c0,0-0.1-0.1-0.1-0.1c0,0,0,0,0,0c0,0-0.1-0.1-0.1-0.1c0,0,0,0,0,0c0,0,0,0,0,0
	c0,0,0,0,0,0h0c0,0,0,0,0,0c0,0,0,0-0.1,0v0c-0.1,0.1-0.1,0.2-0.1,0.3c0,0,0.1,0,0.1,0.1h0C102.5,45.4,102.7,45.5,102.7,45.5z"/>
<path class="st8" d="M103.6,44.7C103.6,44.7,103.6,44.7,103.6,44.7C103.6,44.7,103.6,44.7,103.6,44.7
	C103.6,44.7,103.6,44.7,103.6,44.7C103.6,44.7,103.6,44.7,103.6,44.7z"/>
<path class="st8" d="M103.7,45C103.7,45,103.7,45,103.7,45C103.7,45,103.7,45,103.7,45c0,0,0.1,0.2,0.1,0.2c0,0,0,0,0,0c0,0,0,0,0,0
	c0,0,0,0,0,0c0,0,0,0,0,0c0,0,0,0,0,0s0,0,0,0c0,0,0,0,0,0c0,0,0,0,0,0c0,0,0,0,0,0c0,0,0,0,0,0c0,0,0.1,0.1,0.1,0.1h0
	c0,0,0.1,0.1,0.1,0.2c0,0,0,0,0,0h0c0,0,0,0,0,0.1c0,0,0,0,0,0l0.3-0.1c0,0,0,0,0,0c0,0,0,0,0,0c0,0,0,0,0,0s0,0,0,0c0,0,0,0,0,0
	c0,0,0,0,0,0c0,0,0,0,0,0c0,0-0.1-0.2-0.1-0.2c0,0-0.1-0.1-0.1-0.2c0,0,0,0,0,0c0,0,0,0,0,0c0-0.1-0.1-0.1-0.1-0.2c0,0,0,0,0,0
	c0,0,0-0.1-0.1-0.1c0,0,0,0,0,0c0,0,0,0,0,0c0,0,0,0,0,0c0,0,0,0,0,0c0,0,0,0,0,0c0,0,0,0,0-0.1v0c0,0-0.2,0.1-0.3,0.1
	c0,0,0,0.1,0.1,0.1c0,0,0,0,0,0L103.7,45z"/>
<path class="st8" d="M104.7,44.7C104.7,44.8,104.7,44.7,104.7,44.7C104.7,44.8,104.7,44.8,104.7,44.7c0,0.1,0.1,0.1,0.1,0.2
	c0,0,0,0,0,0c0,0,0,0,0,0c0,0,0,0,0,0c0,0,0,0,0,0c0,0,0,0,0,0c0,0,0,0,0,0c0,0,0,0,0,0c0,0,0,0,0,0c0,0,0,0,0,0c0,0,0,0,0,0
	c0,0,0.1,0.1,0.1,0.1h0c0,0,0.1,0.1,0.1,0.1c0,0,0,0,0,0c0,0,0,0,0,0c0,0,0,0,0,0.1c0,0,0,0,0,0l0.3-0.1c0,0,0,0,0,0c0,0,0,0,0,0
	c0,0,0,0,0,0c0,0,0,0,0,0c0,0,0,0,0,0c0,0,0,0,0,0c0,0-0.1-0.2-0.1-0.2c0,0-0.1-0.1-0.1-0.2c0,0,0,0,0,0c0,0,0,0,0,0
	c0-0.1-0.1-0.1-0.1-0.2c0,0,0,0,0,0c0,0,0-0.1-0.1-0.1c0,0,0,0,0,0c0,0,0,0,0,0c0,0,0,0,0,0l0,0c0,0,0,0,0,0c0,0,0,0,0-0.1v0
	c0,0-0.2,0.1-0.2,0.1c0,0,0,0,0,0c0,0,0,0.1,0.1,0.1C104.6,44.6,104.6,44.6,104.7,44.7C104.6,44.7,104.7,44.7,104.7,44.7z"/>
<path class="st8" d="M105.8,44C105.8,44,105.8,44,105.8,44C105.8,44,105.8,44,105.8,44C105.8,44,105.8,44,105.8,44z"/>
<path class="st8" d="M105.9,44.2C105.9,44.2,105.9,44.2,105.9,44.2C105.9,44.3,105.9,44.3,105.9,44.2l0.1,0.2c0,0,0,0,0,0
	c0,0,0,0,0,0c0,0,0,0,0,0c0,0,0,0,0,0c0,0,0,0,0,0s0,0,0,0c0,0,0,0,0,0c0,0,0,0,0,0v0c0,0,0,0,0,0c0,0,0.1,0.1,0.1,0.1h0
	c0,0.1,0,0.1,0.1,0.2h0c0,0,0,0,0,0c0,0,0,0,0,0c0,0,0,0,0,0.1c0,0,0,0,0,0h0.3c0,0,0,0,0,0c0,0,0,0,0,0c0,0,0,0,0,0c0,0,0,0,0,0
	s0,0,0,0c0,0,0,0,0,0c0,0,0,0,0,0c0,0,0,0,0,0c0-0.1,0-0.2-0.1-0.2c0-0.1-0.1-0.2-0.1-0.2c0,0,0,0,0,0c0,0,0,0,0,0
	c0,0-0.1-0.2-0.1-0.2c0,0,0,0,0,0c0,0-0.1-0.1-0.1-0.1c0,0,0,0,0,0s0,0,0,0l0,0c0,0,0,0,0,0c0,0,0,0,0-0.1v0c0,0-0.2,0.1-0.2,0.2h0
	c0,0,0,0,0,0c0,0,0.1,0.1,0.1,0.1l0,0C105.9,44.1,105.9,44.2,105.9,44.2z"/>
<path class="st8" d="M107.2,43.9C107.2,43.9,107.2,43.9,107.2,43.9C107.2,43.9,107.2,43.9,107.2,43.9z"/>
<path class="st8" d="M107.4,44.2C107.4,44.2,107.4,44.2,107.4,44.2C107.4,44.2,107.4,44.2,107.4,44.2c0,0.1,0.1,0.2,0.1,0.2
	c0,0,0,0,0,0c0,0,0,0,0,0c0,0,0,0,0,0c0,0,0,0,0,0c0,0,0,0,0,0c0,0,0,0,0,0c0,0,0,0,0,0c0,0,0.1,0.1,0.1,0.1h0c0,0.1,0,0.1,0.1,0.2
	c0,0,0,0,0,0c0,0,0,0,0,0c0,0,0,0,0,0.1c0,0,0,0,0,0l0.3,0v0c0,0,0,0,0,0c0,0,0,0,0,0c0,0,0,0,0,0c0,0,0,0,0,0c0,0-0.1-0.2-0.1-0.2
	c0-0.1-0.1-0.2-0.1-0.2c0,0,0,0,0,0c0,0,0,0,0,0c0-0.1-0.1-0.1-0.1-0.2c0,0,0,0,0,0c0,0,0-0.1-0.1-0.1c0,0,0,0,0,0c0,0,0,0,0,0
	c0,0,0,0,0,0c0,0,0,0,0,0c0,0,0,0,0-0.1v0c0,0-0.2,0.1-0.2,0.2c0,0,0,0,0,0s0,0.1,0.1,0.1l0,0C107.3,44.1,107.4,44.1,107.4,44.2z"/>
<path class="st8" d="M108.6,44C108.6,44,108.6,44,108.6,44C108.6,44.1,108.6,44.1,108.6,44c0,0.1,0.1,0.1,0.1,0.2c0,0,0,0,0,0
	c0,0,0,0,0,0c0,0,0,0,0,0c0,0,0,0,0,0c0,0,0,0,0,0c0,0,0,0,0,0c0,0,0,0,0,0c0,0,0,0.1,0.1,0.1h0c0,0,0,0.1,0.1,0.1c0,0,0,0,0,0h0
	c0,0,0,0,0,0.1c0,0,0,0,0,0l0.3,0v0c0,0,0,0,0,0s0,0,0,0c0,0,0,0,0,0c0,0,0,0,0,0c0,0-0.1-0.2-0.1-0.2c0-0.1-0.1-0.1-0.1-0.2
	c0,0,0,0,0,0c0,0,0,0,0,0c0-0.1-0.1-0.1-0.1-0.2c0,0,0,0,0,0c0,0,0-0.1-0.1-0.1c0,0,0,0,0,0c0,0,0,0,0,0c0,0,0,0,0,0c0,0,0,0,0,0
	c0,0,0,0,0-0.1v0c0,0-0.2,0.1-0.2,0.2c0,0,0,0,0,0c0,0,0,0.1,0.1,0.1l0,0C108.5,43.9,108.6,44,108.6,44z"/>
<path class="st8" d="M109,42.3C109,42.3,109,42.3,109,42.3C109,42.4,109,42.4,109,42.3z"/>
<path class="st8" d="M109.2,42.5C109.2,42.5,109.2,42.5,109.2,42.5C109.2,42.6,109.2,42.6,109.2,42.5c0.1,0.1,0.1,0.1,0.1,0.1
	c0,0,0,0,0,0c0,0,0,0,0,0c0,0,0,0,0,0s0,0,0,0c0,0,0,0,0,0c0,0,0,0,0,0c0,0,0,0,0,0c0,0,0,0,0,0c0,0,0.1,0,0.1,0l0,0
	c0,0,0.1,0.1,0.1,0.1c0,0,0,0,0,0c0,0,0,0,0,0c0,0,0,0,0,0c0,0,0,0,0,0c0,0,0,0,0,0l0.2-0.2c0,0,0,0,0,0c0,0,0,0,0,0c0,0,0,0,0,0
	c0,0,0,0,0,0c0,0,0,0,0,0c0,0,0,0,0,0c0,0-0.1-0.1-0.2-0.1c0,0-0.1-0.1-0.2-0.1c0,0,0,0,0,0c0,0,0,0,0,0c0,0-0.1-0.1-0.1-0.1
	c0,0,0,0,0,0c0,0-0.1-0.1-0.1-0.1c0,0,0,0,0,0c0,0,0,0,0,0c0,0,0,0,0,0c0,0,0,0,0,0c0,0,0,0,0,0v0c-0.1,0.1-0.1,0.1-0.2,0.2
	c0,0,0.1,0.1,0.1,0.1c0,0,0,0,0,0C109.1,42.4,109.2,42.5,109.2,42.5z"/>
<path class="st8" d="M109,41.5C109,41.5,109,41.5,109,41.5C109.1,41.4,109.1,41.5,109,41.5c0.1,0,0.1,0,0.2,0c0,0,0,0,0,0
	c0,0,0,0,0,0c0,0,0,0,0,0s0,0,0,0c0,0,0,0,0,0c0,0,0,0,0,0h0c0,0,0.1,0,0.1,0c0,0,0,0,0,0c0,0,0.1,0,0.1,0c0,0,0,0,0,0c0,0,0,0,0,0
	h0.1c0,0,0,0,0,0c0,0,0-0.3,0-0.3c0,0,0,0,0,0c0,0,0,0,0,0c0,0,0,0,0,0c0,0-0.1,0-0.2,0c-0.1,0-0.1,0-0.2,0h0c0,0,0,0,0,0
	c0,0-0.1,0-0.2,0c0,0,0,0,0,0c0,0-0.1,0-0.1,0c0,0,0,0,0,0c0,0,0,0,0,0s0,0,0,0c0,0,0,0,0,0c0,0,0,0,0,0c0,0,0,0-0.1,0v0
	c0,0.1,0,0.2,0,0.3c0,0,0.1,0,0.1,0h0L109,41.5z"/>
<path class="st8" d="M107.9,40.4C107.9,40.4,107.9,40.4,107.9,40.4C107.9,40.4,107.9,40.4,107.9,40.4
	C107.9,40.4,107.9,40.4,107.9,40.4z"/>
<path class="st8" d="M108.2,40.4C108.2,40.4,108.2,40.4,108.2,40.4C108.2,40.4,108.2,40.4,108.2,40.4c0.1,0,0.1,0,0.2,0c0,0,0,0,0,0
	c0,0,0,0,0,0c0,0,0,0,0,0c0,0,0,0,0,0c0,0,0,0,0,0c0,0,0,0,0,0c0,0,0,0,0,0c0,0,0,0,0,0c0,0,0,0,0,0c0,0,0,0,0,0
	c0,0,0.1-0.1,0.1-0.1c0,0,0,0,0,0s0.1-0.1,0.1-0.1c0,0,0,0,0,0c0,0,0,0,0,0l0,0c0,0,0,0,0,0c0,0-0.1-0.2-0.1-0.2c0,0,0,0,0,0
	c0,0,0,0,0,0c0,0,0,0,0,0l-0.1,0.1c0,0-0.1,0.1-0.2,0.1c0,0,0,0,0,0c0,0,0,0,0,0c0,0-0.1,0-0.1,0c0,0,0,0,0,0c0,0-0.1,0-0.1,0
	c0,0,0,0,0,0c0,0,0,0,0,0c0,0,0,0,0,0c0,0,0,0,0,0c0,0,0,0,0,0c0,0,0,0-0.1,0l0,0c0,0.1,0,0.2,0.1,0.3c0,0,0.1,0,0.1,0c0,0,0,0,0,0
	C108.1,40.4,108.1,40.4,108.2,40.4z"/>
<path class="st8" d="M107.7,39.5C107.7,39.5,107.7,39.5,107.7,39.5C107.7,39.5,107.7,39.5,107.7,39.5
	C107.7,39.5,107.7,39.5,107.7,39.5z"/>
<path class="st8" d="M108,39.4C108.1,39.4,108,39.4,108,39.4C108.1,39.4,108.1,39.4,108,39.4c0.1,0,0.2-0.1,0.2-0.1c0,0,0,0,0,0
	c0,0,0,0,0,0c0,0,0,0,0,0c0,0,0,0,0,0c0,0,0,0,0,0c0,0,0,0,0,0c0,0,0,0,0,0c0,0,0,0,0,0c0,0,0,0,0,0c0,0,0,0,0,0
	c0,0,0.1-0.1,0.1-0.1v0l0.2-0.1c0,0,0,0,0,0c0,0,0,0,0,0c0,0,0,0,0,0l0.1,0c0,0,0,0,0,0c0,0-0.2-0.2-0.2-0.2c0,0,0,0,0,0
	c0,0,0,0,0,0c0,0,0,0,0,0c0,0,0,0,0,0c0,0,0,0,0,0c0,0,0,0,0,0c0,0-0.1,0.1-0.2,0.1c0,0-0.1,0.1-0.2,0.1c0,0,0,0,0,0c0,0,0,0,0,0
	c-0.1,0-0.1,0.1-0.2,0.1c0,0,0,0,0,0c0,0-0.1,0-0.1,0.1c0,0,0,0,0,0c0,0,0,0,0,0c0,0,0,0,0,0c0,0,0,0,0,0c0,0-0.1,0-0.1,0h0
	c0,0,0.1,0.2,0.1,0.3c0,0,0,0,0,0c0.1,0,0.1,0,0.2-0.1c0,0,0,0,0,0L108,39.4z"/>
<path class="st8" d="M107.5,38.1C107.5,38.1,107.5,38.1,107.5,38.1C107.5,38.1,107.5,38.1,107.5,38.1
	C107.5,38.1,107.5,38.1,107.5,38.1z"/>
<path class="st8" d="M107.7,37.9C107.7,37.9,107.7,37.9,107.7,37.9C107.8,37.9,107.8,37.9,107.7,37.9c0.1,0,0.1-0.1,0.2-0.1
	c0,0,0,0,0,0c0,0,0,0,0,0c0,0,0,0,0,0c0,0,0,0,0,0c0,0,0,0,0,0c0,0,0,0,0,0c0,0,0,0,0,0h0l0,0c0,0,0.1-0.1,0.1-0.1v0
	c0,0,0.1-0.1,0.1-0.1c0,0,0,0,0,0c0,0,0,0,0,0l0,0c0,0,0,0,0,0c0,0-0.1-0.2-0.1-0.2v0c0,0,0,0,0,0c0,0,0,0,0,0c0,0,0,0,0,0
	c0,0-0.1,0.1-0.2,0.1c-0.1,0-0.1,0.1-0.2,0.1c0,0,0,0,0,0c0,0,0,0,0,0c0,0-0.1,0.1-0.1,0.1c0,0,0,0,0,0c0,0-0.1,0.1-0.1,0.1
	c0,0,0,0,0,0c0,0,0,0,0,0s0,0,0,0c0,0,0,0,0,0c0,0,0,0,0,0c0,0,0,0-0.1,0h0c0,0,0.1,0.2,0.2,0.2c0,0,0,0,0,0c0,0,0.1,0,0.1-0.1l0,0
	C107.6,37.9,107.7,37.9,107.7,37.9z"/>
<path class="st8" d="M107.3,36.6C107.3,36.6,107.3,36.6,107.3,36.6C107.3,36.6,107.3,36.6,107.3,36.6z"/>
<path class="st8" d="M107.5,36.5C107.5,36.5,107.5,36.5,107.5,36.5C107.6,36.5,107.6,36.5,107.5,36.5c0.1,0,0.1-0.1,0.2-0.1
	c0,0,0,0,0,0c0,0,0,0,0,0c0,0,0,0,0,0c0,0,0,0,0,0c0,0,0,0,0,0c0,0,0,0,0,0c0,0,0,0,0,0c0,0,0,0,0,0c0,0,0,0,0,0
	c0,0,0.1-0.1,0.1-0.1c0,0,0,0,0,0c0,0,0.1-0.1,0.1-0.1c0,0,0,0,0,0c0,0,0,0,0,0l0,0c0,0,0,0,0,0c0,0-0.1-0.2-0.1-0.2c0,0,0,0,0,0
	s0,0,0,0c0,0,0,0,0,0c0,0,0,0,0,0h0c0,0-0.1,0.1-0.2,0.1c-0.1,0-0.1,0.1-0.2,0.1c0,0,0,0,0,0c0,0,0,0,0,0c0,0-0.1,0.1-0.1,0.1
	c0,0,0,0,0,0c0,0-0.1,0-0.1,0.1c0,0,0,0,0,0c0,0,0,0,0,0s0,0,0,0c0,0,0,0,0,0c0,0,0,0,0,0c0,0,0,0-0.1,0h0c0,0.1,0.1,0.2,0.2,0.2
	c0,0,0.1,0,0.1-0.1l0,0C107.4,36.5,107.5,36.5,107.5,36.5z"/>
<path class="st8" d="M107.1,35.5L107.1,35.5C107.2,35.5,107.1,35.5,107.1,35.5z"/>
<path class="st8" d="M107.4,35.4C107.4,35.4,107.4,35.4,107.4,35.4C107.5,35.4,107.5,35.4,107.4,35.4c0.1,0,0.1-0.1,0.2-0.1
	c0,0,0,0,0,0c0,0,0,0,0,0c0,0,0,0,0,0c0,0,0,0,0,0c0,0,0,0,0,0c0,0,0,0,0,0c0,0,0,0,0,0c0,0,0,0,0,0c0,0,0.1-0.1,0.1-0.1
	c0,0,0,0,0,0c0,0,0.1-0.1,0.1-0.1c0,0,0,0,0,0c0,0,0,0,0,0l0,0c0,0,0,0,0,0l-0.2-0.2c0,0,0,0,0,0s0,0,0,0c0,0,0,0,0,0c0,0,0,0,0,0
	c0,0,0,0,0,0h0l-0.1,0.1c0,0-0.1,0.1-0.1,0.1c0,0,0,0,0,0c0,0,0,0,0,0c0,0-0.1,0.1-0.1,0.1c0,0,0,0,0,0c0,0-0.1,0-0.1,0.1
	c0,0,0,0,0,0c0,0,0,0,0,0c0,0,0,0,0,0c0,0,0,0,0,0c0,0,0,0,0,0c0,0,0,0-0.1,0h0c0,0,0.1,0.2,0.1,0.2c0,0,0.1,0,0.1-0.1l0,0
	C107.2,35.4,107.4,35.4,107.4,35.4z"/>
<path class="st8" d="M107.4,34.5C107.4,34.5,107.4,34.5,107.4,34.5C107.4,34.5,107.4,34.5,107.4,34.5c0.1,0,0.1-0.1,0.1-0.1v0
	c0,0,0,0,0.1,0c0,0,0,0,0,0c0,0,0,0,0,0v0h0c0,0,0,0,0,0c0,0-0.1-0.2-0.1-0.3c0,0,0,0,0,0l-0.1,0c0,0-0.1,0-0.1,0c0,0,0,0,0,0
	c0,0-0.1,0-0.1,0c0,0,0,0,0,0c0,0,0,0-0.1,0c0,0,0,0,0,0s0,0,0,0c0,0,0,0,0,0c0,0,0,0,0,0c0,0,0,0,0,0v0c0,0.1,0.1,0.2,0.1,0.3
	c0,0,0,0,0.1,0c0,0,0,0,0,0C107.2,34.6,107.4,34.5,107.4,34.5z"/>
<path class="st8" d="M104.4,27.3C104.4,27.3,104.5,27.3,104.4,27.3c0.1,0,0.1,0,0.1-0.1c0,0,0,0,0,0c0,0,0,0,0,0c0,0,0,0,0,0
	s0,0,0,0c0,0,0,0,0,0c0,0,0,0,0,0c0,0,0,0,0,0c0,0,0.1,0,0.1-0.1c0,0,0,0,0,0c0,0,0.1,0,0.1,0v0v0h0c0,0,0,0,0,0
	c0,0-0.1-0.2-0.1-0.3c0,0,0,0,0,0c0,0,0,0,0,0c0,0,0,0,0,0h0l-0.2,0.1c0,0-0.1,0-0.2,0.1h0c0,0,0,0,0,0c0,0-0.1,0-0.1,0c0,0,0,0,0,0
	c0,0-0.1,0-0.1,0c0,0,0,0,0,0c0,0,0,0,0,0c0,0,0,0,0,0c0,0,0,0,0,0c0,0,0,0,0,0c0,0,0,0-0.1,0h0c0,0.1,0.1,0.2,0.1,0.3
	c0,0,0.1,0,0.1,0l0,0C104.3,27.3,104.4,27.3,104.4,27.3z"/>
<path class="st8" d="M103.9,26.6C103.9,26.6,103.9,26.6,103.9,26.6C103.9,26.6,103.9,26.6,103.9,26.6c0,0,0.1-0.1,0.1-0.1
	c0,0,0,0,0,0c0,0,0,0,0,0c0,0,0,0,0,0s0,0,0,0c0,0,0,0,0,0c0,0,0-0.1,0-0.1c0,0,0,0,0,0c0,0,0.1-0.1,0.1-0.1c0,0,0,0,0,0
	c0,0,0,0,0,0c0,0,0,0,0,0c0,0,0,0,0,0c0,0-0.2-0.2-0.2-0.2v0c0,0,0,0,0,0c0,0,0,0,0,0c0,0-0.1,0.1-0.1,0.1c0,0-0.1,0.1-0.1,0.1
	c0,0,0,0,0,0c0,0,0,0,0,0c0,0-0.1,0.1-0.1,0.1c0,0,0,0,0,0c0,0-0.1,0-0.1,0.1c0,0,0,0,0,0c0,0,0,0,0,0c0,0,0,0,0,0c0,0,0,0,0,0
	c0,0,0,0,0,0c0,0,0,0,0,0h0c0.1,0.1,0.1,0.1,0.2,0.2c0,0,0.1,0,0.1-0.1c0,0,0,0,0,0C103.8,26.7,103.9,26.6,103.9,26.6z"/>
<path class="st8" d="M88.9,34C88.9,34,88.9,34,88.9,34c0.1,0,0.1,0,0.2,0c0,0,0,0,0,0c0,0,0,0,0,0s0,0,0,0c0,0,0,0,0,0c0,0,0,0,0,0
	c0,0,0.1,0,0.1-0.1c0,0,0,0,0,0s0.1,0,0.1,0s0,0,0,0s0,0,0,0c0,0,0,0,0,0h0c0,0,0,0,0,0c0,0-0.1-0.2-0.1-0.3c0,0,0,0,0,0
	c0,0,0,0,0,0h0l-0.1,0c0,0-0.1,0-0.1,0c0,0,0,0,0,0c0,0,0,0,0,0c0,0,0,0,0,0c0,0-0.1,0-0.1,0c0,0,0,0,0,0c0,0-0.1,0-0.1,0
	c0,0,0,0,0,0c0,0,0,0,0,0l0,0c0,0,0,0,0,0c0,0,0,0,0,0v0c0,0.1,0,0.2,0,0.3c0,0,0.1,0,0.1,0h0L88.9,34z"/>
<path class="st8" d="M88.8,32.8c0,0,0.1,0,0.1,0c0,0,0,0,0,0c0,0,0,0,0,0c0,0,0,0,0,0c0,0,0,0,0,0c0,0,0,0,0,0c0,0,0.1,0,0.1,0
	c0,0,0,0,0,0c0,0,0.1,0,0.1,0c0,0,0,0,0,0c0,0,0,0,0,0h0c0,0,0,0,0,0c0,0,0-0.2,0-0.3c0,0,0,0,0,0c0,0,0,0,0,0c0,0-0.1,0-0.1,0
	c0,0-0.1,0-0.1,0c0,0,0,0,0,0c0,0,0,0,0,0c0,0,0,0,0,0c0,0-0.1,0-0.1,0c0,0,0,0,0,0c0,0-0.1,0-0.1,0c0,0,0,0,0,0c0,0,0,0,0,0
	c0,0,0,0,0,0c0,0,0,0,0,0c0,0,0,0,0,0c0,0,0,0,0,0v0c0,0.1,0,0.2,0,0.3c0,0,0.1,0,0.1,0h0L88.8,32.8z"/>
<path class="st8" d="M89,31.5C89,31.5,89,31.5,89,31.5C89,31.5,89,31.5,89,31.5C89.1,31.5,89.1,31.5,89,31.5
	C89.1,31.5,89.1,31.5,89,31.5c0.1,0,0.1,0,0.1,0c0,0,0,0,0,0c0,0,0,0,0,0c0,0,0,0,0.1,0c0,0,0,0,0,0c0,0,0.1,0,0.1,0c0,0,0,0,0,0h0
	c0,0,0,0,0,0c0,0,0.1-0.2,0.1-0.3c0,0,0,0,0,0c0,0-0.1,0-0.1,0c0,0-0.1,0-0.1,0c0,0,0,0,0,0c0,0-0.1,0-0.1,0c0,0,0,0,0,0
	c0,0,0,0-0.1,0c0,0,0,0,0,0c0,0,0,0,0,0h0c0,0,0,0,0,0s0,0,0,0v0c0,0.1,0,0.2-0.1,0.3C88.9,31.5,88.9,31.6,89,31.5L89,31.5
	C88.9,31.6,89,31.5,89,31.5z"/>
<path class="st8" d="M89.3,30.5C89.3,30.5,89.4,30.6,89.3,30.5C89.4,30.6,89.4,30.6,89.3,30.5C89.4,30.6,89.4,30.6,89.3,30.5
	c0.1,0,0.1,0,0.1,0v0c0,0,0.1,0,0.1,0c0,0,0,0,0,0c0,0,0,0,0,0c0,0,0,0,0,0c0,0,0.1-0.2,0.1-0.3c0,0-0.1,0-0.1,0c0,0-0.1,0-0.1,0
	c0,0,0,0-0.1,0c0,0,0,0,0,0c0,0,0,0,0,0c0,0,0,0,0,0h0c0,0,0,0,0,0v0c0,0.1-0.1,0.2-0.1,0.3C89.2,30.6,89.3,30.6,89.3,30.5
	C89.3,30.6,89.3,30.6,89.3,30.5C89.3,30.6,89.3,30.5,89.3,30.5z"/>
<g class="st7">
	<path d="M94.5,26.8c0.2,0.9,0.5,1.7,1,2.5c0.1,0.3,0.3,0.5,0.6,0.6c0.5,0.2,1-0.2,1.4-0.5c0,0.2,0.1,0.4,0.2,0.6
		c0.1,0.2,0.3,0.3,0.6,0.3c0.4,0,0.9-0.1,1.3-0.3c1-0.6,1.8-1.3,2.4-2.2c-0.6,0.4-1.1,0.8-1.7,1.2c-0.4,0.3-1,0.5-1.4,0.3
		c-0.5-0.2-0.6-0.8-1.1-0.8c-0.6,0-1,0.9-1.6,0.8c-0.4,0-0.5-0.4-0.7-0.7L94.5,26.8"/>
</g>
<g class="st7">
	<path d="M101.3,49.9c0-0.1-0.1-0.3,0-0.4c0-0.1,0.1-0.3,0.2-0.4c0.1-0.1,0.2-0.2,0.3-0.2c0.1,0,0.3-0.1,0.4-0.1
		c0.6,0,1.2,0.1,1.7,0.4c1.3,0.4,2.6,0.5,4,0.5c-0.6,0.5-1.3,0.7-2.1,0.7c-0.8,0-1.5,0-2.2-0.1l-2.3-0.3"/>
</g>
<path class="st5" d="M85.1,82.1l0.1,12.6l5.9-0.4l1.3-12.3L85.1,82.1z"/>
<path class="st1" d="M91.2,91.9c0,0-4.2,2.8-6.2,0.4l-0.5,1.2l-2.4,8.4c-0.1,0.3-0.1,0.5,0.1,0.8c0.1,0.2,0.3,0.4,0.6,0.6
	c0.2,0.1,0.4,0.1,0.6,0.1c0.2,0,0.4-0.1,0.6-0.3c1.7-1.6,8-7.3,7.9-8.1l0-2.1c0-0.2-0.1-0.4-0.2-0.6S91.5,91.9,91.2,91.9L91.2,91.9z
	"/>
<path class="st11" d="M83.1,103.3l8.9-9.1v0.5c0,0.5-0.2,0.7-0.4,1c-0.7,0.9-2.7,3-7.4,7.4c-0.1,0.1-0.3,0.2-0.5,0.3
	C83.4,103.3,83.3,103.3,83.1,103.3L83.1,103.3z"/>
<g class="st9">
	<path class="st10" d="M90.7,92.8c-0.1,0.1-0.2,0.2-0.3,0.4c0,0.2,0,0.3,0.1,0.5c0.1,0.1,0.2,0.2,0.4,0.3c0.2,0,0.3,0,0.5-0.1
		c0.1-0.1,0.2-0.3,0.3-0.4c0-0.2,0-0.3-0.1-0.5c-0.1-0.1-0.3-0.2-0.5-0.2C90.9,92.7,90.8,92.8,90.7,92.8"/>
</g>
<path class="st0" d="M85.6,98.6c-0.1,0-0.3-0.5-1-0.8c-0.7-0.3-1.3-0.2-1.3-0.2c0-0.1,0.1-0.1,0.4-0.1c0.3,0,0.7,0,1,0.2
	c0.3,0.1,0.6,0.4,0.7,0.7C85.6,98.4,85.7,98.6,85.6,98.6z"/>
<path class="st0" d="M84.8,100c-0.1,0-0.4-0.3-1-0.5s-1.1-0.1-1.1-0.1c0-0.1,0.5-0.3,1.2-0.1C84.6,99.5,84.9,100,84.8,100z"/>
<path class="st0" d="M87.1,96.8c-0.1,0.1-0.6-0.5-1.5-0.8c-0.9-0.3-1.7-0.3-1.7-0.4c0-0.1,0.8-0.2,1.7,0.2
	C86.7,96.1,87.2,96.8,87.1,96.8z"/>
<path class="st0" d="M87.3,94.2c0,0.1-0.6-0.2-1.4-0.2c-0.8,0-1.4,0.1-1.5,0.1c0-0.1,0.6-0.4,1.5-0.3C86.7,93.8,87.4,94.2,87.3,94.2
	z"/>
<path class="st0" d="M85.4,94c0-0.1,0-0.3,0.1-0.4c0.1-0.4,0.3-0.7,0.5-1c0.2-0.2,0.4-0.4,0.7-0.5c0.1,0,0.2,0,0.3,0
	c0.1,0,0.2,0.1,0.2,0.2c0.1,0.2,0.1,0.3,0.1,0.5c-0.1,0.3-0.3,0.7-0.6,0.9C86.3,93.9,86,94,85.6,94c-0.4,0-0.7-0.2-1-0.4
	c-0.3-0.2-0.5-0.5-0.6-0.9c0-0.1,0-0.2,0-0.3c0-0.1,0-0.2,0.1-0.2c0.1-0.1,0.1-0.1,0.2-0.2c0.1,0,0.2,0,0.3,0
	c0.3,0.1,0.5,0.3,0.7,0.5c0.3,0.3,0.5,0.6,0.6,0.9c0.1,0.1,0.1,0.3,0.1,0.4c-0.2-0.4-0.5-0.9-0.8-1.2c-0.2-0.2-0.4-0.3-0.6-0.4
	c0,0-0.1,0-0.2,0c-0.1,0-0.1,0-0.1,0.1c0,0.1,0,0.1,0,0.2c0,0.1,0,0.1,0,0.2c0.1,0.3,0.3,0.5,0.6,0.7c0.3,0.2,0.6,0.3,0.9,0.3
	c0.3,0,0.6-0.1,0.9-0.2c0.3-0.2,0.5-0.4,0.5-0.7c0-0.1,0-0.2,0-0.4c0,0-0.1-0.1-0.1-0.1c0,0-0.1,0-0.2,0c-0.2,0.1-0.4,0.2-0.6,0.4
	C85.8,93.1,85.6,93.5,85.4,94z"/>
<path class="st5" d="M71.2,71.3l-7.2,13.1l5.8,3.3L79,75.2L71.2,71.3z"/>
<path class="st1" d="M64.8,82.7L64.6,83c0,0-8-1.3-8.9-0.2l12.9,7.5l2.4-4.2C68.6,85.9,66.5,84.8,64.8,82.7z"/>
<g class="st9">
	<path class="st10" d="M68.9,86.7c0.1,0.1,0.2,0.2,0.2,0.4c0,0.1-0.1,0.3-0.2,0.4c-0.1,0.1-0.3,0.2-0.4,0.2c-0.2,0-0.3-0.1-0.4-0.2
		c-0.1-0.1-0.2-0.3-0.2-0.4s0.1-0.3,0.2-0.4c0.1-0.1,0.3-0.1,0.4-0.1C68.7,86.5,68.8,86.6,68.9,86.7"/>
</g>
<g class="st9">
	<path class="st10" d="M68.6,90.3l0.6-1l-12.5-6.8c0,0-0.7-0.1-0.9,0.3L68.6,90.3z"/>
</g>
<path class="st0" d="M64.5,83c0,0.1,0.3,0.3,0.4,0.6c0.2,0.4,0.2,0.7,0.3,0.7c0.1,0,0.2-0.4,0-0.8C65,83.1,64.6,83,64.5,83z"/>
<path class="st0" d="M62.8,82.8c-0.1,0,0.2,0.3,0.2,0.7c0.1,0.4-0.1,0.7,0,0.7c0.1,0,0.3-0.3,0.2-0.8C63.2,83,62.9,82.7,62.8,82.8z"
	/>
<path class="st0" d="M61.1,83.9c0,0,0.3-0.2,0.4-0.6c0.1-0.4-0.2-0.7-0.2-0.7c-0.1,0,0,0.3,0,0.7C61.2,83.6,61,83.9,61.1,83.9z"/>
<path class="st12" d="M78,73.8v26.9h1.9V71.6L78,73.8z"/>
<path class="st12" d="M107.6,69.6h-1.9v31.2h1.9V69.6z"/>
<path class="st12" d="M105.7,73.8H79.9v2h25.9V73.8z"/>
<path class="st1" d="M107.3,63.9H81c-0.6,0-1.2,0.5-1.2,1.1v3.4c0,0.6,0.5,1.1,1.2,1.1h26.3c0.6,0,1.2-0.5,1.2-1.1V65
	C108.5,64.4,108,63.9,107.3,63.9z"/>
<path class="st0" d="M106.4,50.6c0,0,3.9,6.6,3.3,11.2c-0.6,4.6-1.6,4.6-1.6,4.6l-12.6-0.7l-1.8-14.5l3.1-1.7L106.4,50.6z"/>
<path class="st4" d="M73.5,35.5l3.2,14.4l14.9,1.3l9.6-0.6l-3.5-3.2l-4,0.8l-1.4-13.9L73.5,35.5z"/>
<path class="st5" d="M94.3,47.3c0.4,1.2,2.5,0.1,2.5,0.1l-0.1,2l-1.3,0.9c0,0,0,0.6,0.8,0.6c0.4,0.1,0.8,0,1.2-0.1l0,0.3
	c0,0.1,0.1,0.3,0.2,0.4c0.1,0.1,0.3,0.2,0.4,0.2c0.1,0,0.3,0,0.4-0.1c0,0,0.9,0.6,1.7,0.2c0.5-0.3,0.9-0.8,1.1-1.3l0.1-1.7l1.1-0.7
	c0,0,0.9-1.6-0.2-2.7c-0.3-0.3-0.7-0.5-1.1-0.6c-0.4-0.1-0.8-0.1-1.2,0.1l-1.7,0.6c-0.4,0-0.9,0.1-1.2,0.3c-0.3,0.2-0.6,0.4-1,0.6
	C96,46.4,94.2,47.1,94.3,47.3z"/>
<path class="st6" d="M98.3,49c0,0,0.1,0.1,0.1,0.3c0.1,0.3,0.1,0.6,0,0.9c0,0.2-0.1,0.3-0.2,0.4c-0.1,0.1-0.2,0.2-0.4,0.2
	c-0.2,0.1-0.4,0-0.4-0.1c0,0,0.1,0,0.3-0.1c0.1-0.1,0.2-0.1,0.3-0.2c0.1-0.1,0.1-0.2,0.2-0.3c0-0.3,0.1-0.5,0-0.8
	C98.2,49.2,98.2,49,98.3,49z"/>
<path class="st6" d="M96.7,47.4c0.1,0.3,0.1,0.7,0,1c0,0.3,0,0.7-0.2,1C96.5,48.8,96.6,48.1,96.7,47.4L96.7,47.4z"/>
<path class="st6" d="M99.7,49.5c0.1,0.1,0.1,0.3,0.1,0.4c0,0.3,0,0.7-0.2,1c-0.2,0.3-0.5,0.5-0.8,0.6c-0.2,0.1-0.4,0.1-0.4,0.1
	c0.1-0.1,0.2-0.1,0.4-0.2c0.3-0.1,0.5-0.3,0.7-0.6c0.1-0.3,0.2-0.6,0.2-0.9C99.7,49.7,99.7,49.5,99.7,49.5z"/>
<path class="st0" d="M102.1,48.6c0.1-0.3,0.2-0.5,0.4-0.7c0.1-0.3,0.2-0.6,0.3-0.9c0-0.4,0-0.7-0.2-1.1c-0.1-0.3-0.4-0.6-0.7-0.8
	c-0.2-0.2-0.5-0.3-0.8-0.4c-0.3-0.1-0.6-0.1-0.9-0.1c0.1,0,0.2,0,0.2,0c0.2,0,0.4,0,0.7,0.1c0.3,0.1,0.6,0.2,0.9,0.4
	c0.3,0.2,0.6,0.5,0.7,0.9c0.2,0.4,0.2,0.8,0.2,1.1c0,0.3-0.1,0.6-0.3,0.9c-0.1,0.2-0.2,0.4-0.4,0.5
	C102.1,48.6,102.1,48.7,102.1,48.6z"/>
<path class="st13" d="M84.3,42.2c0,0.2-0.1,0.4-0.2,0.5c-0.1,0.1-0.2,0.3-0.4,0.3c-0.2,0.1-0.4,0.1-0.5,0.1s-0.3-0.1-0.5-0.2
	s-0.2-0.3-0.3-0.5s0-0.4,0.1-0.5c0.1-0.2,0.2-0.3,0.3-0.4c0.2-0.1,0.3-0.2,0.5-0.2c0.2,0,0.5,0.1,0.7,0.3
	C84.2,41.8,84.3,42,84.3,42.2z"/>
<path class="st0" d="M86.1,58L86.1,58c-1,0.6-1.8,1.3-2.3,2.2c-0.5,0.9-0.7,1.9-0.7,3l0.9,19.5l9.1,0.9L93.5,66l3.8-0.4L91,58.7
	c-0.6-0.6-1.4-1.1-2.3-1.2C87.8,57.4,86.8,57.6,86.1,58z"/>
<path class="st0" d="M68.8,74.8L81,51.4c0,0,1.7-2.4,4.1-2.3c2.4,0.1,17.5,4.7,17.5,4.7v11.8l-5.3-0.1l-12-1.1l-8.1,14.9L68.8,74.8z
	"/>
<path class="st4" d="M97.8,65.5c0,0-0.1-0.1-0.1-0.1l-0.3-0.3l-1-1.2l-3.7-4.4c-0.9-1.4-2.9-2.2-5-1.9c-1.1,0.2-2.1,0.6-2.9,1.3
	c-0.4,0.4-0.7,0.8-1,1.3c-0.2,0.5-0.4,1-0.4,1.6c-0.1,0.7-0.1,1.3,0,2c0,0.7,0,1.3,0,2c0,1.3,0,2.5,0.1,3.7c0.1,2.4,0.1,4.5,0.2,6.3
	c0.1,1.8,0.1,3.2,0.2,4.2c0,0.5,0,0.9,0.1,1.1c0,0.1,0,0.2,0,0.3c0,0,0,0.1,0,0.1c0,0,0-0.1,0-0.1c0-0.1,0-0.2,0-0.3
	c0-0.3,0-0.7-0.1-1.1c-0.1-1-0.2-2.4-0.2-4.2s-0.2-3.9-0.2-6.3c0-1.2-0.1-2.4-0.1-3.7c0-0.6,0-1.3,0-2c0-0.7,0-1.3,0-2
	c0-0.6,0.2-1.1,0.4-1.6c0.2-0.5,0.6-1,1-1.3c0.8-0.7,1.8-1.2,2.9-1.4c2.1-0.3,4.2,0.5,5.1,1.9l3.7,4.4c0.4,0.5,0.8,0.9,1,1.2
	L97.8,65.5C97.8,65.5,97.8,65.5,97.8,65.5z"/>
<path class="st4" d="M93.3,73.8c0,0-0.1-2.5-0.1-5.5c0-3,0-5.5,0.1-5.5c0,0,0.1,2.5,0.1,5.5C93.4,71.4,93.4,73.8,93.3,73.8z"/>
<path class="st4" d="M105.4,55.4c-0.1,0-0.1,0-0.2-0.1l-0.5-0.2l-1.8-0.7c-1.5-0.6-3.6-1.3-5.9-2.1c-2.3-0.8-4.4-1.4-6-1.8l-1.8-0.5
	l-0.5-0.1c-0.1,0-0.1,0-0.2-0.1c0.1,0,0.1,0,0.2,0l0.5,0.1c0.4,0.1,1.1,0.3,1.8,0.5c1.6,0.4,3.7,1,6,1.8c2.3,0.8,4.4,1.6,5.8,2.2
	c0.7,0.3,1.3,0.6,1.7,0.7l0.5,0.2C105.3,55.4,105.4,55.4,105.4,55.4z"/>
<path class="st4" d="M105.8,52.9c-0.4,0-0.8,0-1.1,0c-0.7,0-1.6-0.1-2.7-0.1l-2.7-0.1c-0.4,0-0.7,0-1.1-0.1c0.1,0,0.2,0,0.3,0
	c0.2,0,0.5,0,0.8,0c0.7,0,1.7,0,2.7,0c1.1,0,2,0.1,2.7,0.2c0.3,0,0.6,0.1,0.8,0.1C105.6,52.9,105.7,52.9,105.8,52.9z"/>
<path class="st4" d="M78.7,76.4c0,0-0.3-0.4-1-1.1c-0.4-0.4-0.7-0.7-1.1-1c-0.5-0.4-1-0.7-1.6-1.1c-0.6-0.3-1.1-0.6-1.7-0.8
	c-0.5-0.2-1-0.4-1.5-0.5c-0.9-0.2-1.4-0.3-1.4-0.3c0.1,0,0.3,0,0.4,0c0.2,0,0.3,0,0.5,0.1c0.2,0,0.4,0.1,0.6,0.1
	c0.5,0.1,1,0.3,1.5,0.5c0.6,0.2,1.2,0.5,1.7,0.8c0.6,0.3,1.1,0.7,1.6,1.1c0.4,0.3,0.8,0.7,1.1,1.1c0.2,0.2,0.3,0.3,0.4,0.5
	c0.1,0.1,0.2,0.2,0.3,0.4C78.6,76.2,78.7,76.3,78.7,76.4z"/>
<path class="st4" d="M93.6,80.8c0,0-0.5-0.2-1.3-0.6c-2.2-0.9-4.6-1.2-6.9-1.1c-0.9,0.1-1.5,0.2-1.5,0.1c0.1,0,0.3-0.1,0.4-0.1
	c0.4-0.1,0.7-0.1,1.1-0.1c1.2-0.1,2.4-0.1,3.6,0.1c1.2,0.2,2.3,0.5,3.4,1c0.3,0.1,0.7,0.3,1,0.5C93.4,80.7,93.5,80.7,93.6,80.8z"/>
</svg>
