<svg width="76" height="76" viewBox="0 0 76 76" fill="none" xmlns="http://www.w3.org/2000/svg">
<g clip-path="url(#clip0_567_1509)">
<path d="M55.1529 7.07434C55.1529 7.07434 53.6388 7.16232 52.7976 9.34694C51.9564 11.5316 49.7766 16.1721 49.7766 16.1721L42.6301 15.0797C42.6301 15.0797 41.4524 16.1721 42.2059 17.279C42.7106 17.6969 50.1131 19.3024 50.9469 19.1338C51.7808 18.9651 55.0725 13.8188 55.0725 13.8188C55.0725 13.8188 57.4205 9.18565 57.0913 8.26195C56.7622 7.33825 55.1529 7.07434 55.1529 7.07434Z" fill="#113570"/>
<path d="M61.3122 45.8918C61.8737 45.8918 62.3289 45.4355 62.3289 44.8728C62.3289 44.31 61.8737 43.8538 61.3122 43.8538C60.7506 43.8538 60.2954 44.31 60.2954 44.8728C60.2954 45.4355 60.7506 45.8918 61.3122 45.8918Z" fill="#333333"/>
<path d="M53.0681 39.2426C53.0696 39.4444 53.0112 39.6421 52.9003 39.8107C52.7895 39.9792 52.6312 40.111 52.4456 40.1892C52.2599 40.2675 52.0553 40.2887 51.8576 40.2502C51.6599 40.2117 51.478 40.1153 51.3351 39.973C51.1921 39.8308 51.0946 39.6493 51.0547 39.4514C51.0149 39.2535 51.0346 39.0483 51.1114 38.8617C51.1881 38.675 51.3184 38.5154 51.4858 38.4032C51.6531 38.2909 51.85 38.2309 52.0514 38.2309C52.3198 38.2309 52.5773 38.3372 52.7678 38.5268C52.9582 38.7163 53.0662 38.9736 53.0681 39.2426Z" fill="#333333"/>
<path d="M71.5964 39.2426C71.5935 39.4429 71.5318 39.6378 71.4189 39.8031C71.3061 39.9684 71.1472 40.0968 70.962 40.1721C70.7769 40.2474 70.5736 40.2663 70.3778 40.2265C70.1819 40.1867 70.0021 40.09 69.8608 39.9484C69.7195 39.8067 69.6229 39.6265 69.5833 39.4302C69.5436 39.2339 69.5625 39.0303 69.6376 38.8447C69.7127 38.6591 69.8408 38.4998 70.0057 38.3867C70.1707 38.2737 70.3652 38.2118 70.565 38.2089C70.7013 38.2059 70.8367 38.2306 70.9632 38.2815C71.0897 38.3324 71.2046 38.4084 71.301 38.505C71.3974 38.6016 71.4732 38.7167 71.524 38.8435C71.5748 38.9703 71.5994 39.106 71.5964 39.2426Z" fill="#333333"/>
<path d="M62.8848 39.096L62.7166 39.2059C62.6467 39.2509 62.5733 39.2901 62.4971 39.3232L62.0144 44.037H60.6831L60.1418 39.3232C60.0705 39.2926 60.002 39.2558 59.937 39.2133L59.7541 39.096L51.6274 38.7954V39.3012L59.7541 39.6018C59.8097 39.6451 59.8684 39.6843 59.9297 39.7191L60.1345 39.8217L60.6831 44.5429H62.007L62.4971 39.8217L62.7166 39.7118L62.8702 39.6091L70.9895 39.3086V38.8101L62.8848 39.096Z" fill="url(#paint0_linear_567_1509)"/>
<path d="M71.0041 38.0257V38.8028L62.8848 39.096C62.7656 39.1877 62.6353 39.264 62.4971 39.3233L62.0144 44.0371H60.6831L60.1418 39.3233C60.0705 39.2926 60.002 39.2558 59.937 39.2133L59.7541 39.096L51.6274 38.7954V38.0257L59.7541 37.7251C59.8738 37.6401 60.0011 37.5665 60.1345 37.5052L60.6245 32.7914H61.9558L62.5191 37.4759L62.7239 37.5785C62.7846 37.6142 62.8432 37.6533 62.8995 37.6958L71.0041 38.0257Z" fill="#615D6C"/>
<path d="M62.0803 33.935C62.0344 33.8861 61.9798 33.8464 61.9193 33.8177C61.7123 33.711 61.4828 33.6553 61.25 33.6553C61.0172 33.6553 60.7877 33.711 60.5807 33.8177C60.5236 33.8483 60.4718 33.8879 60.4271 33.935H60.3247V38.4069C60.3325 38.4896 60.3625 38.5687 60.4114 38.6358C60.4603 38.7029 60.5264 38.7555 60.6027 38.7881C60.8097 38.8948 61.0391 38.9505 61.272 38.9505C61.5048 38.9505 61.7343 38.8948 61.9413 38.7881C62.0185 38.7569 62.0854 38.7046 62.1345 38.6373C62.1837 38.5699 62.213 38.4901 62.2192 38.4069V33.935H62.0803Z" fill="url(#paint1_linear_567_1509)"/>
<path d="M61.9192 33.5465C62.2922 33.7591 62.2922 34.1036 61.9192 34.3235C61.7121 34.4303 61.4827 34.486 61.2499 34.486C61.0171 34.486 60.7876 34.4303 60.5806 34.3235C60.4997 34.2959 60.4294 34.2436 60.3797 34.1739C60.33 34.1042 60.3032 34.0207 60.3032 33.935C60.3032 33.8493 60.33 33.7658 60.3797 33.6961C60.4294 33.6265 60.4997 33.5741 60.5806 33.5465C60.7876 33.4397 61.0171 33.384 61.2499 33.384C61.4827 33.384 61.7121 33.4397 61.9192 33.5465Z" fill="#4D4D4D"/>
<path d="M62.4605 30.79C62.2797 30.6262 62.061 30.5103 61.8241 30.4528C61.4504 30.3519 61.0567 30.3519 60.683 30.4528C60.4462 30.5103 60.2274 30.6262 60.0466 30.79H59.8638V34.1916C59.8638 34.4775 60.1271 34.7634 60.6465 34.9247C61.0427 35.042 61.4644 35.042 61.8607 34.9247C62.38 34.7707 62.6434 34.4848 62.6434 34.1916V30.79H62.4605Z" fill="url(#paint2_linear_567_1509)"/>
<path d="M61.2463 31.6111C61.9977 31.6111 62.6068 31.2467 62.6068 30.7973C62.6068 30.3479 61.9977 29.9836 61.2463 29.9836C60.4949 29.9836 59.8857 30.3479 59.8857 30.7973C59.8857 31.2467 60.4949 31.6111 61.2463 31.6111Z" fill="#4D4D4D"/>
<path d="M58.7081 35.8704L47.8677 29.5584V28.6567L58.7008 34.9687L58.7081 35.8704Z" fill="#535685"/>
<path d="M58.7008 34.9687L47.8677 28.6567L48.5187 26.9999L59.3518 33.3192L58.7008 34.9687Z" fill="#696FA3"/>
<path d="M59.3517 33.3192L48.5186 26.9999L58.4593 21.2451L69.2997 27.5644L59.3517 33.3192Z" fill="#7B81B3"/>
<path d="M70.7262 10.4613L59.8931 4.14201L61.9266 2.96906L72.767 9.28101L70.7262 10.4613Z" fill="#7B81B3"/>
<path d="M69.2999 27.5644L58.4595 21.2451L59.8932 4.14203L70.7263 10.4613L69.2999 27.5644Z" fill="#696FA3"/>
<path d="M70.7261 10.4613L72.7669 9.28101L71.5819 28.4221L69.1095 29.8517L58.708 35.8704L58.7007 34.9687L59.3517 33.3192L69.2997 27.5644L70.7261 10.4613Z" fill="#535685"/>
<path d="M57.3985 25.3871C57.3985 25.3871 52.9146 31.2519 52.2416 33.026C51.5687 34.8001 49.3158 49.4253 49.3158 49.4253C49.3158 49.4253 47.0774 52.3577 47.2969 53.2447C47.5163 54.1318 52.2343 52.1231 52.6805 50.7742V48.7509L53.5802 48.3037L57.3985 33.9277C57.3985 33.9277 62.7748 30.3282 63.0016 28.3048C63.2283 26.2815 60.756 23.811 57.3985 25.3871Z" fill="#1F2F3F"/>
<path d="M54.9117 22.6086C54.9117 22.6086 48.6503 26.736 47.3044 28.3048C45.9584 29.8736 41.928 44.0737 41.928 44.0737C41.928 44.0737 39.463 46.5442 40.1359 47.0061C40.8089 47.4679 44.1663 46.3316 44.6198 45.4372C45.0734 44.5428 43.9469 45.8844 45.0661 44.5355C46.1852 43.1866 51.1153 31.2812 51.1153 31.2812L57.6181 27.2125L54.9117 22.6086Z" fill="#1F2F3F"/>
<path d="M54.056 20.0868C54.056 20.9372 53.5439 24.4854 53.5439 25.0059C53.8877 26.1129 55.6798 29.1625 58.0498 29.6464C59.0523 29.782 60.0684 29.782 61.0708 29.6464C62.0071 29.4704 63.2652 27.579 63.8284 26.7506C63.8092 25.3609 63.5262 23.9876 62.9946 22.704C61.7878 21.8902 60.501 21.2024 59.1543 20.6513C57.8377 19.9988 54.9118 18.7526 54.056 20.0868Z" fill="#1F2F3F"/>
<path d="M54.0558 20.0868C54.4581 21.8463 57.9692 23.4517 59.8564 23.5617C61.3778 23.657 62.5336 23.3491 62.9944 22.682C64.0697 20.1968 66.2348 13.8262 65.7155 12.1401C64.5895 10.604 63.2119 9.27046 61.6412 8.19601C59.9807 7.16235 56.3745 6.84712 54.897 7.33097C53.4194 7.81481 53.6315 11.0771 53.6754 13.1078C53.7413 14.9185 53.9095 18.0122 54.0558 20.0868Z" fill="#C7BFCE"/>
<path d="M62.1021 8.26196C62.1502 8.76276 62.0931 9.26812 61.9344 9.74543C61.7756 10.2227 61.5188 10.6614 61.1804 11.0331C60.7843 12.2896 60.2953 13.5148 59.7175 14.6985C58.986 16.0548 57.9985 22.3301 57.9985 22.3301C57.9985 22.3301 59.2274 29.9689 59.4615 30.4601C59.6956 30.9513 63.0238 29.9689 64.1283 28.1215C64.472 27.5229 64.6417 26.8398 64.6184 26.1495L64.0039 22.3301C64.0039 22.3301 66.1984 14.2074 66.1984 13.1004C66.1984 11.9934 65.957 11.1284 65.5839 10.9011C65.2109 10.6739 62.1021 8.26196 62.1021 8.26196Z" fill="#113C7A"/>
<path d="M58.1304 7.41893C58.1304 7.41893 56.6674 9.44961 56.5943 10.7399C56.5211 12.0301 56.1627 14.4053 56.1627 14.4053L54.9338 22.6527L52.4761 25.585L53.0905 20.2921C53.0905 20.2921 52.8491 10.3147 53.3392 9.08306C53.6172 8.28928 54.1806 7.62795 54.9192 7.22833C55.402 6.84712 58.1304 7.41893 58.1304 7.41893Z" fill="#113C7A"/>
<path d="M57.1207 10.3L57.4279 11.9641L57.0622 12.7632L57.2451 13.4376L55.709 20.7613L55.8919 21.9342L57.1207 21.0105L58.1009 13.5623L58.6568 12.6386L58.5983 12.0814L59.8857 11.2823L57.1207 10.3Z" fill="#113C7A"/>
<path d="M61.1366 7.41895C61.5532 7.53534 61.9158 7.79484 62.1607 8.15204L62.5338 8.93646C62.3161 9.77791 61.8433 10.531 61.1805 11.0917C60.5786 11.5454 60.0046 12.035 59.4616 12.5579L59.03 11.451L57.8011 11.8175L57.4281 10.4026L56.5723 10.7105C56.7392 10.164 56.9445 9.62991 57.1867 9.11239C57.3988 8.69453 61.1366 7.41895 61.1366 7.41895Z" fill="white"/>
<path d="M57.4717 7.08167C57.4717 6.64181 59.0005 6.14331 59.7612 6.14331C60.5219 6.14331 61.268 6.48787 61.2973 6.91306C61.2973 6.91306 61.4436 8.18132 61.5606 8.85577C61.6484 10.0361 59.6807 11.1943 58.5982 10.7765C58.4172 10.726 58.2534 10.6269 58.1245 10.49C57.9956 10.353 57.9064 10.1834 57.8667 9.9994L57.4717 7.08167Z" fill="#FF7240"/>
<path d="M55.7526 6.84711C55.6965 6.3747 55.6965 5.8973 55.7526 5.4249C55.6942 5.18338 55.6503 4.93858 55.621 4.6918C55.5817 3.76545 55.8942 2.85861 56.4955 2.15397C57.0968 1.44932 57.9422 0.999241 58.8614 0.894376C59.6088 0.721247 60.3937 0.828523 61.0675 1.19593C61.7414 1.56334 62.2577 2.16543 62.5188 2.8884C62.8167 3.87179 62.7677 4.92803 62.3798 5.87942C62.062 6.52399 61.5503 7.05226 60.9168 7.3896C60.9288 7.68699 60.8384 7.97946 60.6608 8.21799C59.9294 8.84845 58.3494 10.0287 57.5009 9.68418C57.1373 9.57979 56.8152 9.36457 56.5792 9.06839C56.2095 8.36668 55.9317 7.62009 55.7526 6.84711Z" fill="#FF9554"/>
<path d="M57.5302 0.447211C57.5302 0.447211 55.2407 1.67881 55.4017 3.48223C55.6504 4.71383 56.8646 4.94842 57.8594 4.94842C58.8542 4.94842 59.3224 5.76215 59.6662 5.85012C59.8796 5.90032 60.0979 5.92736 60.3172 5.93076L60.7268 6.75182L60.9755 5.43959L61.3851 7.16236C62.16 6.60411 62.7121 5.78841 62.9432 4.86044C63.1845 3.46756 63.1845 2.07467 62.3653 1.19496C61.7306 0.592743 60.9279 0.198599 60.0642 0.0650137C59.2004 -0.0685719 58.3165 0.0647485 57.5302 0.447211Z" fill="#171E26"/>
<path d="M60.9316 5.53485C61.2827 5.05101 61.9923 5.22696 61.9923 5.98938C62.0266 6.31424 61.936 6.63999 61.7389 6.90018C61.5418 7.16037 61.2531 7.33541 60.9316 7.3896V5.53485Z" fill="#FF9554"/>
<path d="M12.2229 49.2714L10.5771 48.311L10.5332 29.4778L12.179 30.4381L12.2229 49.2714Z" fill="#CB6A50"/>
<path d="M12.179 30.4381L10.5332 29.4778L32.9016 16.5313L34.5474 17.4917L12.179 30.4381Z" fill="#DBDBDB"/>
<path d="M34.5476 17.4916L34.5915 36.3249L12.2231 49.2713L12.1792 30.4381L34.5476 17.4916Z" fill="#F58688"/>
<path d="M13.7807 26.8533L13.7368 45.6865L51.9928 67.7967L52.0367 48.9634L13.7807 26.8533Z" fill="#F5A588"/>
<path d="M13.7588 37.3879L52.0148 59.498L52.0368 48.9634L13.7807 26.8533L13.7588 37.3879Z" fill="#CF7A68"/>
<path d="M50.6106 69.6294L48.9575 68.669L48.9136 49.8358L50.5594 50.7888L50.6106 69.6294Z" fill="#CB6A50"/>
<path d="M50.5594 50.7888L48.9136 49.8358L71.282 36.8893L72.9278 37.8497L50.5594 50.7888Z" fill="#DBDBDB"/>
<path d="M72.928 37.8497L72.9792 56.6829L50.6108 69.6294L50.5596 50.7888L72.928 37.8497Z" fill="#F5B99C"/>
<path d="M75.9998 37.3585L75.9925 39.1326L50.6323 53.9045V52.1304L75.9998 37.3585Z" fill="#E18B70"/>
<path d="M50.6326 52.1304V53.9045L6.79541 28.3708L6.80273 26.5967L50.6326 52.1304Z" fill="#D78C63"/>
<path d="M76 37.3585L50.6326 52.1304L6.80273 26.5967L32.1629 11.8248L76 37.3585Z" fill="#FFC5A8"/>
<path d="M58.5763 29.1479L58.0131 29.8223C57.6233 30.0998 57.2652 30.4194 56.9452 30.7754C56.7257 31.1126 56.1625 32.7474 56.3893 32.7987C56.636 32.9077 56.9023 32.965 57.1719 32.9673C57.8598 32.9285 58.5076 32.6304 58.9852 32.1327C59.4628 31.635 59.7349 30.9746 59.7467 30.2842L60.032 29.771L58.5763 29.1479Z" fill="#FF9554"/>
<path d="M58.6566 28.3928L58.1519 29.2798C58.579 29.7577 59.1315 30.1057 59.7465 30.2841L60.0464 30.4161L60.4633 29.4851L58.6566 28.3928Z" fill="white"/>
<path d="M64.7133 11.0844C64.9492 11.0169 65.1993 11.0175 65.4349 11.0863C65.6704 11.155 65.8818 11.2891 66.0446 11.4729C66.485 12.0247 66.7273 12.709 66.7322 13.4156C66.6996 16.3188 66.492 19.2174 66.1104 22.0955C65.9422 22.8286 60.6171 29.7637 60.6171 29.7637C60.6171 29.7637 59.3882 30.1815 58.269 28.4954L62.6944 20.7466C62.6944 20.7466 63.1992 14.3687 63.1992 13.2764C63.2228 12.8059 63.3772 12.3515 63.6447 11.9642C63.9122 11.5769 64.2823 11.2722 64.7133 11.0844Z" fill="#113570"/>
<path d="M42.6523 15.2484L41.9208 15.1604C41.6263 15.6703 41.5423 16.2754 41.6868 16.8465C41.7227 16.9129 41.7544 16.9815 41.7819 17.0518L42.4329 17.1764C42.6037 16.889 42.7116 16.5684 42.7494 16.236C42.7873 15.9036 42.7541 15.567 42.6523 15.2484Z" fill="white"/>
<path d="M41.8403 15.417L41.1088 15.2191L39.7336 14.486C39.7336 14.486 39.0899 14.0974 39.0899 14.288C39.0881 14.4224 39.1208 14.5551 39.1848 14.6732C39.2489 14.7913 39.3421 14.8909 39.4557 14.9625C39.7044 15.0798 39.7336 15.2191 39.7336 15.2191L38.8339 15.0505C38.8339 15.0505 37.605 14.9918 37.6343 15.1311C37.6783 15.35 37.8072 15.5425 37.9927 15.6663C38.5442 16.1482 39.1393 16.5777 39.7702 16.9492C40.2594 16.957 40.7484 16.9276 41.2331 16.8612L41.5404 16.7806L41.9061 16.8319C41.9061 16.8319 42.2938 16.3994 41.8403 15.417Z" fill="#FF9554"/>
<path d="M40.2457 25.0132C41.321 25.629 41.321 26.6333 40.2457 27.2491L33.3992 31.2372C32.8018 31.5405 32.1414 31.6986 31.4717 31.6986C30.802 31.6986 30.1417 31.5405 29.5443 31.2372L22.6685 27.2125C21.6005 26.5967 21.5932 25.5923 22.6685 24.9765L29.515 20.9885C30.1112 20.6811 30.772 20.5208 31.4425 20.5208C32.1129 20.5208 32.7737 20.6811 33.3699 20.9885L40.2457 25.0132Z" fill="#E18B70"/>
<path d="M34.1377 26.0395V26.0982L34.0865 26.1421H34.0353L31.1972 27.7256L28.1323 25.9515V26.1641L31.1972 27.9382L34.0353 26.3547V26.3181V26.1055C34.0628 26.0746 34.0982 26.0517 34.1377 26.0395Z" fill="#BAC0D2"/>
<path d="M33.9914 25.7463C34.2108 25.8709 34.2035 26.0762 33.9914 26.2008L31.1533 27.7843L28.0884 26.0102L30.4876 24.1775C30.6105 24.1126 30.7474 24.0787 30.8863 24.0787C31.0252 24.0787 31.162 24.1126 31.2849 24.1775L33.9914 25.7463Z" fill="white"/>
<path d="M38.1903 19.0458C38.3208 19.126 38.4331 19.2326 38.5201 19.3589C38.607 19.4851 38.6666 19.6282 38.695 19.7789L40.158 29.6684C40.1946 29.9323 40.0263 30.0276 39.7922 29.8883L24.8117 21.2084C24.6827 21.1266 24.5714 21.0195 24.4847 20.8935C24.3979 20.7676 24.3375 20.6253 24.307 20.4754L22.844 10.5786C22.8075 10.322 22.9684 10.2267 23.2098 10.366L38.1903 19.0458Z" fill="#C7C9D7"/>
<path d="M40.4066 29.5657V29.4851L38.9437 19.5956V19.493V19.3904V19.3024L38.8925 19.2437L23.9119 10.5712H23.6705H23.634L23.3926 10.7472H23.4511H23.5242H23.6047C23.6366 10.7558 23.6664 10.7708 23.6925 10.7912L38.673 19.471L38.7608 19.5297L38.8486 19.603L38.929 19.6909L39.0022 19.7789C39.0259 19.8079 39.0456 19.84 39.0607 19.8742C39.0807 19.9069 39.0978 19.9412 39.1119 19.9768L39.1558 20.0795V20.1821L40.6187 30.0716V30.1595C40.6223 30.1814 40.6223 30.2037 40.6187 30.2255V30.2695C40.6109 30.2914 40.5953 30.3097 40.5749 30.3208L40.8162 30.1449C40.8366 30.1337 40.8523 30.1155 40.8601 30.0936V30.0349L40.4066 29.5657Z" fill="white"/>
<path opacity="0.2" d="M29.8878 24.632L28.0737 26.0176L31.1386 27.7917L33.2818 26.5967L29.8878 24.632Z" fill="#777DB2"/>
<path d="M31.7823 21.6996L31.1386 28.0262L28.0591 26.2375L29.266 20.3214L31.7823 21.6996Z" fill="#BAC0D2"/>
<path d="M47.604 39.3013L52.2781 42.0284L59.8489 37.6445L55.1674 34.9247L47.604 39.3013Z" fill="#E18B70"/>
<path d="M46.7412 37.6811L46.7485 38.8467L51.4226 41.5665V40.4082L46.7412 37.6811Z" fill="#CBDCEB"/>
<path d="M51.4224 40.4082V41.5665L58.9931 37.1899L58.9858 36.0316L51.4224 40.4082Z" fill="#A6D0F4"/>
<path d="M46.7412 37.6811L51.4226 40.4082L58.9861 36.0316L54.312 33.3045L46.7412 37.6811Z" fill="white"/>
<path d="M40.9404 33.8837L45.6145 36.6034L53.1853 32.2269L48.5039 29.4998L40.9404 33.8837Z" fill="white"/>
<path d="M35.3449 62.4744C37.927 63.9406 37.9416 66.3818 35.3449 67.8773L23.356 74.8637C21.9153 75.6 20.3211 75.9839 18.7039 75.9839C17.0867 75.9839 15.4924 75.6 14.0517 74.8637L1.94585 67.8627C-0.628929 66.3965 -0.643558 63.9479 1.94585 62.4597L13.9713 55.4514C15.412 54.715 17.0062 54.3312 18.6234 54.3312C20.2406 54.3312 21.8349 54.715 23.2756 55.4514L35.3449 62.4744Z" fill="#CBDCEB"/>
<path d="M16.2972 70.993C16.2972 71.1945 16.2375 71.3915 16.1258 71.5591C16.0141 71.7267 15.8553 71.8573 15.6695 71.9344C15.4837 72.0115 15.2793 72.0317 15.0821 71.9924C14.8848 71.9531 14.7037 71.856 14.5615 71.7135C14.4193 71.571 14.3224 71.3894 14.2832 71.1918C14.244 70.9941 14.2641 70.7892 14.3411 70.603C14.418 70.4168 14.5484 70.2577 14.7156 70.1457C14.8828 70.0337 15.0793 69.974 15.2804 69.974C15.4142 69.973 15.5469 69.9987 15.6707 70.0496C15.7945 70.1004 15.9069 70.1754 16.0015 70.2703C16.0962 70.3651 16.171 70.4778 16.2218 70.6019C16.2725 70.7259 16.2981 70.8589 16.2972 70.993Z" fill="#333333"/>
<path d="M7.02958 65.3335C7.03102 65.5356 6.97242 65.7336 6.86126 65.9023C6.7501 66.071 6.59138 66.2028 6.4053 66.2808C6.21921 66.3588 6.01417 66.3797 5.81627 66.3406C5.61836 66.3015 5.43652 66.2043 5.29389 66.0613C5.15126 65.9184 5.05428 65.7361 5.01528 65.5378C4.97628 65.3394 4.99702 65.134 5.07488 64.9475C5.15274 64.761 5.2842 64.6019 5.45252 64.4905C5.62084 64.3791 5.81843 64.3204 6.02014 64.3218C6.28786 64.3218 6.5446 64.4284 6.73391 64.6181C6.92322 64.8078 7.02958 65.0652 7.02958 65.3335Z" fill="#333333"/>
<path d="M25.5652 65.3335C25.5667 65.5353 25.5083 65.733 25.3974 65.9016C25.2866 66.0701 25.1283 66.2018 24.9427 66.2801C24.757 66.3583 24.5523 66.3796 24.3546 66.3411C24.1569 66.3026 23.9751 66.2061 23.8321 66.0639C23.6892 65.9217 23.5916 65.7402 23.5518 65.5423C23.512 65.3444 23.5317 65.1392 23.6084 64.9525C23.6852 64.7659 23.8155 64.6063 23.9828 64.494C24.1502 64.3817 24.3471 64.3218 24.5485 64.3218C24.8169 64.3218 25.0744 64.4281 25.2648 64.6177C25.4553 64.8072 25.5633 65.0645 25.5652 65.3335Z" fill="#333333"/>
<path d="M16.8458 65.2162L16.6848 65.3261C16.615 65.3711 16.5416 65.4103 16.4654 65.4434L15.9753 70.1572H14.644L14.1027 65.4434L13.8979 65.3335C13.8356 65.3004 13.7768 65.2611 13.7224 65.2162L5.5957 64.9156V65.4214L13.7224 65.722L13.9052 65.8393C13.9713 65.8779 14.0397 65.9121 14.1101 65.9419L14.6513 70.6631H15.9826L16.4727 65.9419L16.6922 65.832L16.8384 65.7293L24.9578 65.4288V64.9303L16.8458 65.2162Z" fill="url(#paint3_linear_567_1509)"/>
<path d="M24.9651 64.1459V64.923L16.8384 65.2162C16.7218 65.3079 16.594 65.3842 16.4581 65.4434L15.968 70.1572H14.6367L14.0954 65.4434L13.8906 65.3335C13.8283 65.3004 13.7695 65.2611 13.715 65.2162L5.58838 64.9156V64.1459L13.715 63.8453C13.8337 63.7587 13.9612 63.685 14.0954 63.6254L14.5782 58.9116H15.9168L16.4507 63.6327L16.6629 63.7353L16.8384 63.8526L24.9651 64.1459Z" fill="#615D6C"/>
<path d="M16.0411 60.0552C15.998 60.0045 15.9459 59.9623 15.8875 59.9306C15.6805 59.8238 15.451 59.7681 15.2182 59.7681C14.9854 59.7681 14.756 59.8238 14.5489 59.9306C14.4905 59.9623 14.4384 60.0045 14.3953 60.0552H14.2417V64.5271C14.2495 64.6098 14.2795 64.6889 14.3284 64.756C14.3773 64.8231 14.4434 64.8757 14.5197 64.9083C14.7267 65.015 14.9561 65.0707 15.189 65.0707C15.4218 65.0707 15.6512 65.015 15.8582 64.9083C15.9345 64.8757 16.0006 64.8231 16.0495 64.756C16.0984 64.6889 16.1284 64.6098 16.1362 64.5271V60.0552H16.0411Z" fill="url(#paint4_linear_567_1509)"/>
<path d="M15.8876 59.6666C15.9694 59.6923 16.041 59.7434 16.0918 59.8127C16.1426 59.8819 16.17 59.9656 16.17 60.0515C16.17 60.1375 16.1426 60.2211 16.0918 60.2904C16.041 60.3596 15.9694 60.4108 15.8876 60.4364C15.6806 60.5431 15.4511 60.5988 15.2183 60.5988C14.9855 60.5988 14.756 60.5431 14.549 60.4364C14.4672 60.4108 14.3956 60.3596 14.3448 60.2904C14.294 60.2211 14.2666 60.1375 14.2666 60.0515C14.2666 59.9656 14.294 59.8819 14.3448 59.8127C14.3956 59.7434 14.4672 59.6923 14.549 59.6666C14.756 59.5599 14.9855 59.5042 15.2183 59.5042C15.4511 59.5042 15.6806 59.5599 15.8876 59.6666Z" fill="#4D4D4D"/>
<path d="M16.4361 56.9102C16.2532 56.7453 16.0318 56.6293 15.7924 56.573C15.4214 56.4702 15.0296 56.4702 14.6586 56.573C14.4192 56.6293 14.1978 56.7453 14.0149 56.9102H13.8394V60.3117C13.8394 60.5977 14.0954 60.8836 14.6147 61.0448C15.011 61.1622 15.4327 61.1622 15.829 61.0448C16.3556 60.8909 16.6116 60.605 16.6116 60.3117V56.9102H16.4361Z" fill="url(#paint5_linear_567_1509)"/>
<path d="M15.2145 57.7312C15.9659 57.7312 16.5751 57.3669 16.5751 56.9175C16.5751 56.4681 15.9659 56.1038 15.2145 56.1038C14.4631 56.1038 13.854 56.4681 13.854 56.9175C13.854 57.3669 14.4631 57.7312 15.2145 57.7312Z" fill="#4D4D4D"/>
<path d="M16.8605 59.3734L6.45166 53.3107L16.0047 47.7758L26.4209 53.8458L16.8605 59.3734Z" fill="#7B81B3"/>
<path d="M22.566 60.6124C22.566 60.6124 21.9004 62.6797 22.3831 63.1635C22.573 63.3735 22.8161 63.528 23.0866 63.6106C23.357 63.6932 23.6448 63.7008 23.9192 63.6327C24.2151 63.533 24.5057 63.418 24.7897 63.2881L24.9287 62.863L25.0896 63.1415C25.2908 63.101 25.4837 63.0266 25.6601 62.9216C25.982 62.7383 26.911 62.3718 27.2986 62.1299C27.6863 61.8879 28.3666 61.4627 28.4251 60.9349C28.4836 60.4071 26.5891 60.5904 26.0844 60.6124C25.7416 60.5934 25.4026 60.5318 25.075 60.4291C24.8921 60.4291 22.9317 60.671 22.9317 60.671" fill="#171E26"/>
<path d="M15.7922 48.8462C15.7922 48.8462 22.295 46.8008 23.9701 47.2627C25.6452 47.7245 26.384 48.289 26.4791 49.0367C26.5742 49.7845 25.3599 60.4877 25.3599 60.4877C25.0692 60.7998 24.7029 61.0312 24.2967 61.1597C23.8904 61.2881 23.4579 61.3092 23.0411 61.2208C21.922 60.9422 21.8342 60.6637 21.8342 60.6637C21.8342 60.6637 21.8342 54.2344 21.644 53.3327C21.5456 52.6804 21.5779 52.015 21.7391 51.3753C21.7391 51.3753 17.8331 52.8415 16.7212 52.0278C15.6094 51.2141 14.8633 49.9385 15.7922 48.8462Z" fill="#171E26"/>
<path d="M14.0591 49.8138C14.0591 49.8138 14.7906 53.1641 16.7802 54.6522C18.7698 56.1404 24.3436 54.5276 24.3436 54.5276L25.6383 54.0658L27.2183 54.249C27.2183 54.249 27.0647 59.8719 27.2183 60.6123C27.4518 62.1754 27.5764 63.753 27.5913 65.3334C27.5913 65.7073 29.3249 66.3231 30.1954 65.7073L30.9268 65.2088C30.9268 65.2088 32.1703 55.7739 32.046 53.7872C32.063 53.1292 31.8986 52.4792 31.5708 51.9088C31.243 51.3384 30.7645 50.8697 30.188 50.5542C29.4566 50.1804 20.6789 49.6892 20.1522 49.5646C19.6256 49.4399 14.0591 49.8138 14.0591 49.8138Z" fill="#1F2F3F"/>
<path d="M22.7633 37.3805C22.7816 37.0325 22.7088 36.6858 22.5523 36.3747C22.3958 36.0635 22.1609 35.7987 21.8709 35.6064C20.5689 34.7414 18.7988 33.6344 17.6504 33.0259C16.1874 32.2928 14.7245 31.4791 13.993 31.4058C11.7986 31.2005 10.4746 33.2459 10.6867 35.9363C10.8685 37.7481 11.2537 39.5335 11.8351 41.2586C12.1267 42.405 12.2911 43.5802 12.3252 44.7628C12.3398 45.3561 12.2582 45.9478 12.0838 46.5149C11.901 46.9621 11.7108 47.5706 11.5645 48.0471C11.4958 48.2906 11.5 48.5491 11.5768 48.7902C11.6535 49.0314 11.7993 49.2446 11.9961 49.4033C13.3808 50.5883 15.0876 51.3313 16.8969 51.5366C20.0203 51.7492 21.2346 51.1114 21.2346 51.1114L21.8709 50.9648C22.0352 50.8996 22.1799 50.7932 22.2914 50.6559C22.4028 50.5185 22.4771 50.3548 22.5073 50.1804C22.5732 49.6672 22.0246 47.248 21.9148 46.3756C22.0977 44.6015 22.4488 41.977 22.5585 40.7967C22.6683 39.6165 22.7195 38.4508 22.7633 37.3805Z" fill="#F2F8FD"/>
<path d="M20.4592 30.7167C20.7097 29.2465 20.7097 27.7444 20.4592 26.2741C20.2417 25.5677 19.7871 24.9584 19.1725 24.5495C18.5579 24.1406 17.8211 23.9574 17.0871 24.0309C15.3535 24.1188 14.0734 24.8886 13.6492 26.1862C13.3886 27.216 13.484 28.304 13.9198 29.2725C14.3386 29.9971 14.9693 30.5754 15.7265 30.9293C16.6401 31.4226 17.5916 31.8418 18.572 32.1829C19.4863 32.4395 20.1446 31.7137 20.4592 30.7167Z" fill="#FF9554"/>
<path d="M15.3536 30.2328C16.574 29.966 17.8501 30.1813 18.9159 30.834C18.9159 30.834 18.2283 33.6124 18.221 33.6124C16.9483 33.6784 15.1415 33.0479 14.71 32.5201L15.3536 30.2328Z" fill="#FF9554"/>
<path d="M18.9159 28.9353C18.5501 28.4368 17.826 28.6127 17.826 29.4044C17.7899 29.7374 17.883 30.0714 18.0858 30.3375C18.2887 30.6036 18.5859 30.7814 18.9159 30.834C18.9159 30.2475 18.9378 29.639 18.9159 28.9353Z" fill="#FF9554"/>
<path d="M14.9732 31.6624C16.0055 32.3749 17.2058 32.8045 18.455 32.9087L18.9158 33.7297C18.1869 33.926 17.428 33.9856 16.6775 33.9057C15.7723 33.7628 14.9504 33.2936 14.3661 32.5861L14.2417 32.3442L14.9732 31.6624Z" fill="#F2F8FD"/>
<path d="M13.0494 26.8166C12.9978 26.1895 13.1364 25.5614 13.447 25.0146C13.7577 24.4678 14.2259 24.0278 14.7903 23.7523C16.7653 22.8432 19.34 23.4517 20.3568 24.8373C21.0444 26.0175 20.0861 26.9779 19.874 27.4031C19.6619 27.8283 19.874 28.686 19.6619 29.0086C19.4498 29.3311 19.7131 29.8076 19.7131 29.8076L19.362 30.1449C19.2037 29.8354 19.0071 29.5473 18.7768 29.2872C18.5647 29.1259 17.9064 29.7197 18.0453 30.2842C18.1606 30.653 18.4013 30.9695 18.7256 31.1785L18.294 31.4644C17.8873 31.6623 17.4355 31.7483 16.9847 31.7137C16.3005 31.6785 15.6319 31.496 15.0244 31.1785C14.2558 30.7041 13.6212 30.0403 13.181 29.2505C12.9496 28.8914 12.8157 28.478 12.7927 28.0511C12.7696 27.6242 12.8581 27.1987 13.0494 26.8166Z" fill="#673E29"/>
<path d="M14.688 62.731L4.27183 56.661L3.03564 39.6531L13.4445 45.7158L14.688 62.731Z" fill="#535685"/>
<path d="M13.4445 45.7158L3.03564 39.6531L4.98868 38.5168L15.4048 44.5795L13.4445 45.7158Z" fill="#7B81B3"/>
<path d="M15.4047 44.5795L16.8603 59.3734L26.4207 53.8459L27.0497 54.7036V55.5686L17.0578 61.3528L14.6878 62.731L13.4443 45.7158L15.4047 44.5795Z" fill="#696FA3"/>
<path d="M28.1397 65.5461C28.1397 65.5461 27.4741 67.6134 27.9569 68.0972C28.1463 68.3078 28.3893 68.4628 28.66 68.5454C28.9306 68.6281 29.2186 68.6354 29.493 68.5664C29.7902 68.4704 30.081 68.3553 30.3634 68.2219L30.5024 67.7967L30.6706 68.0826C30.8689 68.0361 31.0588 67.9595 31.2339 67.8553C31.5557 67.672 32.4847 67.3128 32.8724 67.0636C33.2601 66.8143 33.9403 66.3965 34.0061 65.8686C34.072 65.3408 32.1628 65.5241 31.6581 65.5461C31.3155 65.5263 30.9765 65.4647 30.6487 65.3628C30.4658 65.3628 28.5055 65.6047 28.5055 65.6047" fill="#171E26"/>
<path d="M33.5088 38.077C33.5088 38.077 34.5621 36.7721 34.9717 36.7134C35.7295 36.585 36.5035 36.585 37.2612 36.7134C37.7586 36.8967 37.6343 37.2706 37.5099 37.5785C37.1522 38.0575 36.6318 38.3887 36.047 38.5095L35.4252 38.6341L34.6938 39.008L33.5088 38.077Z" fill="#FF9554"/>
<path d="M20.4958 34.7854C21.363 34.9777 22.1198 35.5044 22.6025 36.2516C23.334 37.4979 26.077 40.3496 26.6914 40.5988C27.3059 40.8481 32.7626 37.8717 33.5087 37.7471C33.6782 37.7213 33.851 37.7299 34.0171 37.7723C34.1831 37.8147 34.339 37.8902 34.4754 37.9941C34.6119 38.098 34.7261 38.2283 34.8113 38.3773C34.8966 38.5263 34.9511 38.6909 34.9717 38.8614C35.096 39.5945 29.3979 44.4476 27.2912 44.5722C25.1846 44.6968 21.7174 41.7205 20.2325 40.3496C18.7476 38.9787 18.5135 34.7854 20.4958 34.7854Z" fill="#F2F8FD"/>
</g>
<defs>
<linearGradient id="paint0_linear_567_1509" x1="51.6201" y1="41.2806" x2="71.0042" y2="41.2806" gradientUnits="userSpaceOnUse">
<stop offset="0.16" stop-color="#443F54"/>
<stop offset="0.55" stop-color="#2A253A"/>
</linearGradient>
<linearGradient id="paint1_linear_567_1509" x1="60.3028" y1="36.3029" x2="62.1973" y2="36.3029" gradientUnits="userSpaceOnUse">
<stop offset="0.05" stop-color="#E5E5E5"/>
<stop offset="0.55" stop-color="#CCCCCC"/>
</linearGradient>
<linearGradient id="paint2_linear_567_1509" x1="59.8638" y1="32.6887" x2="62.6434" y2="32.6887" gradientUnits="userSpaceOnUse">
<stop offset="0.16" stop-color="#443F54"/>
<stop offset="0.55" stop-color="#2A253A"/>
</linearGradient>
<linearGradient id="paint3_linear_567_1509" x1="5.58839" y1="67.4008" x2="24.9724" y2="67.4008" gradientUnits="userSpaceOnUse">
<stop offset="0.16" stop-color="#443F54"/>
<stop offset="0.55" stop-color="#2A253A"/>
</linearGradient>
<linearGradient id="paint4_linear_567_1509" x1="14.271" y1="62.4231" x2="16.1655" y2="62.4231" gradientUnits="userSpaceOnUse">
<stop offset="0.05" stop-color="#E5E5E5"/>
<stop offset="0.55" stop-color="#CCCCCC"/>
</linearGradient>
<linearGradient id="paint5_linear_567_1509" x1="13.832" y1="58.8089" x2="16.6043" y2="58.8089" gradientUnits="userSpaceOnUse">
<stop offset="0.16" stop-color="#443F54"/>
<stop offset="0.55" stop-color="#2A253A"/>
</linearGradient>
<clipPath id="clip0_567_1509">
<rect width="76" height="76" fill="white"/>
</clipPath>
</defs>
</svg>
