<svg width="100" height="92" viewBox="0 0 100 92" fill="none" xmlns="http://www.w3.org/2000/svg">
<path d="M74.9209 56.7737L79.6828 91.4821" stroke="#213033" stroke-width="1.01" stroke-miterlimit="10"/>
<path d="M60.6742 57.5516L55.9902 91.7043" stroke="#213033" stroke-width="1.01" stroke-miterlimit="10"/>
<path d="M78.0566 54.4176H57.8727C56.8791 54.4176 56.0737 55.2212 56.0737 56.2125V56.2292C56.0737 57.2204 56.8791 58.024 57.8727 58.024H78.0566C79.0501 58.024 79.8556 57.2204 79.8556 56.2292V56.2125C79.8556 55.2212 79.0501 54.4176 78.0566 54.4176Z" fill="#000103"/>
<path d="M33.9462 75.9005L30.4263 83.8135L35.1771 85.5139L39.6772 77.0841L33.9462 75.9005Z" fill="#FFAD9E"/>
<path d="M30.1864 82.5021L22.0438 83.2356C21.7507 83.2605 21.4747 83.384 21.2612 83.586C21.0477 83.7879 20.9093 84.0562 20.8687 84.347L35.3215 90.2817L35.7281 84.7248L30.1864 82.5021Z" fill="#000103"/>
<path d="M34.9767 91.8265L20.1172 85.7417L20.6964 84.2914L35.5559 90.3706L34.9767 91.8265Z" fill="#FEFEFF"/>
<path d="M52.1696 60.1356L38.5744 82.7244L30.4819 78.8957L42.228 55.3733C42.535 54.6361 43 53.9749 43.5904 53.4362C44.1809 52.8974 44.8824 52.4942 45.6457 52.2548C46.409 52.0154 47.2156 51.9457 48.0087 52.0505C48.8019 52.1554 49.5625 52.4322 50.237 52.8616C51.4078 53.6174 52.2545 54.7812 52.6118 56.1261C52.9691 57.471 52.8115 58.9004 52.1696 60.1356Z" fill="#3A933C"/>
<path d="M77.99 44.5262C77.99 44.5262 81.432 51.1945 76.3192 54.2175C75.5709 54.6503 74.7319 54.9034 73.8686 54.9565L51.9191 58.8464L44.2388 48.5328L60.6131 44.5707L77.99 44.5262Z" fill="#4CAF52"/>
<path d="M52.3643 74.8559L56.8477 82.2577L60.919 79.2625L56.5692 70.7549L52.3643 74.8559Z" fill="#FFAD9E"/>
<path d="M55.6559 81.7242L51.6514 88.9148C51.5086 89.1715 51.4547 89.468 51.498 89.7583C51.5413 90.0487 51.6794 90.3167 51.8909 90.5207L64.8957 81.8298L60.5682 78.3456L55.6559 81.7242Z" fill="#000103"/>
<path d="M65.971 82.9967L52.5986 91.9266L51.7354 90.6263L65.1078 81.6908L65.971 82.9967Z" fill="#FEFEFF"/>
<path d="M50.3037 51.3501L61.0974 75.4226L53.3948 79.9959L40.7909 56.9404C40.3624 56.2618 40.0853 55.499 39.9787 54.7039C39.872 53.9089 39.9383 53.1003 40.1729 52.3331C40.4076 51.5659 40.8051 50.8582 41.3384 50.258C41.8718 49.6578 42.5285 49.1794 43.2638 48.8551C44.536 48.3055 45.9696 48.2574 47.2759 48.7203C48.5822 49.1833 49.6641 50.123 50.3037 51.3501Z" fill="#4CAF52"/>
<path d="M53.523 58.5352L49.9307 56.7737" stroke="#3A933C" stroke-width="0.75" stroke-miterlimit="10"/>
<path d="M42.3618 37.8524L46.1491 37.5579L46.0321 41.381H42.7517L42.3618 37.8524Z" fill="#FCC3CB"/>
<path d="M42.6399 37.8524C42.6399 37.8524 33.9514 34.4682 34.9149 41.3754H43.2692L42.6399 37.8524Z" fill="#FFC9BD"/>
<path d="M55.4944 22.1152C55.4944 22.1152 51.5958 30.2561 50.7381 38.5914C50.6434 39.525 51.5846 40.453 52.3087 41.0365C53.9795 42.3646 56.7142 41.0365 57.3212 39.1138C57.3212 39.1138 62.0553 23.4545 61.5429 23.0933C61.4259 23.0099 55.4944 22.1152 55.4944 22.1152Z" fill="#071952"/>
<path d="M53.0161 35.6686L41.0361 35.3685L41.9272 41.5089L53.9184 41.57C54.3736 41.599 54.8271 41.4926 55.2217 41.2644C55.8915 40.8638 56.383 40.2235 56.5962 39.474C56.8094 38.7244 56.7281 37.922 56.369 37.2301C56.0645 36.6342 55.5692 36.1569 54.9617 35.874C54.3543 35.5911 53.6695 35.5188 53.0161 35.6686Z" fill="#071952"/>
<path d="M64.8069 18.9701L56.7255 21.1539C56.3305 21.2068 55.9711 21.4095 55.7221 21.72C55.4731 22.0306 55.3538 22.4249 55.3888 22.821L60.613 44.5485C60.613 44.5485 63.5705 47.8826 77.9677 44.504L75.957 22.3264C76.0573 21.4707 75.0047 20.1315 74.1581 20.037L64.8069 18.9701Z" fill="#071952"/>
<path d="M58.4965 35.224C58.6636 35.9519 56.8257 27.9333 56.8257 27.8611" stroke="#071952" stroke-width="0.76" stroke-miterlimit="10"/>
<path d="M60.3287 41.8868H46.6333V40.3253H60.3287C60.4304 40.326 60.5309 40.3467 60.6246 40.3862C60.7182 40.4257 60.8031 40.4832 60.8745 40.5555C60.9459 40.6277 61.0023 40.7133 61.0405 40.8073C61.0788 40.9013 61.098 41.0018 61.0973 41.1033C61.0988 41.3087 61.0188 41.5063 60.8749 41.6531C60.7309 41.7998 60.5345 41.8839 60.3287 41.8868Z" fill="#9198AA"/>
<path d="M48.4325 41.8868H29.162C28.6534 41.8803 28.1608 41.7087 27.7588 41.3978C27.3568 41.087 27.0673 40.6539 26.9342 40.1641L23.2304 26.7442C23.1756 26.5502 23.1664 26.3462 23.2034 26.148C23.2405 25.9499 23.3228 25.7629 23.444 25.6017C23.5653 25.4404 23.7221 25.3092 23.9024 25.2182C24.0827 25.1273 24.2815 25.079 24.4836 25.0771H42.902C43.2423 25.079 43.5724 25.1935 43.8405 25.4026C44.1086 25.6118 44.2996 25.9039 44.3834 26.233L48.4325 41.8868Z" fill="#AFB4C3"/>
<path d="M34.2022 35.2518C35.1496 35.2518 35.9176 34.4756 35.9176 33.5181C35.9176 32.5605 35.1496 31.7843 34.2022 31.7843C33.2548 31.7843 32.4868 32.5605 32.4868 33.5181C32.4868 34.4756 33.2548 35.2518 34.2022 35.2518Z" stroke="white" stroke-width="0.61" stroke-miterlimit="10"/>
<path d="M68.605 24.4658C71.3979 29.9553 74.5322 35.2651 77.9896 40.3641C78.5465 41.1587 79.8609 41.5533 80.83 41.5144C83.0077 41.4199 83.9267 39.0527 83.108 37.1244C83.108 37.1244 76.0681 20.8427 75.1046 20.5816C74.9542 20.5371 68.605 24.4658 68.605 24.4658Z" fill="#071952"/>
<path d="M63.5703 38.3581L67.3632 38.0636L67.2406 41.8923H63.9602L63.5703 38.3581Z" fill="#FFC9BD"/>
<path d="M63.8542 38.3582C63.8542 38.3582 55.1658 34.9796 56.1293 41.8868H64.4836L63.8542 38.3582Z" fill="#FFC9BD"/>
<path d="M79.8889 35.5908L66.2715 36.002L66.5332 42.1535L80.6854 41.8535C81.1592 41.7863 81.6116 41.6127 82.0085 41.3459C82.4053 41.079 82.7363 40.7257 82.9766 40.3127C83.2168 39.8997 83.3599 39.4377 83.3953 38.9615C83.4306 38.4853 83.3572 38.0073 83.1805 37.5635C82.931 36.9155 82.4715 36.3694 81.8751 36.0119C81.2786 35.6544 80.5795 35.5062 79.8889 35.5908Z" fill="#071952"/>
<path d="M71.2338 27.8611L74.8373 35.7408L66.2658 36.0019L66.2603 38.0635" stroke="#071952" stroke-width="0.76" stroke-miterlimit="10"/>
<path d="M74.8374 35.7408L76.7366 36.6855" stroke="#071952" stroke-width="0.76" stroke-miterlimit="10"/>
<path d="M55.7117 4.01099C55.6338 4.09434 51.6348 5.56692 55.7117 10.2736L58.8474 4.63892L55.7117 4.01099Z" fill="black"/>
<path d="M57.5052 5.04455C57.5052 5.04455 55.6617 5.74472 55.4891 6.95613L55.322 4.93897C55.322 4.93897 54.0688 2.36613 56.1518 0.876877C56.9974 0.279874 58.0144 -0.0271718 59.0499 0.00188815C60.0853 0.0309481 61.0834 0.39454 61.894 1.03802C62.6459 1.59371 66.0711 3.93873 66.0711 3.93873C66.0711 3.93873 68.8559 4.7667 66.4889 8.93993L64.417 9.22889L63.1861 6.13926L60.0505 5.07234L57.5052 5.04455Z" fill="black"/>
<path d="M58.6022 11.1293C58.6656 11.4926 58.6197 11.8664 58.4704 12.2037C58.3211 12.541 58.0751 12.8266 57.7633 13.0246C57.4516 13.2226 57.088 13.324 56.7186 13.3161C56.3491 13.3083 55.9903 13.1914 55.6873 12.9803C55.3843 12.7693 55.1507 12.4734 55.016 12.1301C54.8813 11.7867 54.8515 11.4113 54.9303 11.051C55.0092 10.6908 55.1932 10.362 55.4591 10.1059C55.725 9.84988 56.0609 9.67813 56.4246 9.61232C56.9148 9.52658 57.4191 9.63805 57.8272 9.92234C58.2353 10.2066 58.514 10.6406 58.6022 11.1293Z" fill="#EFB2A8"/>
<path d="M59.6104 13.93L61.0195 20.5427C61.3481 22.4043 62.5566 22.3209 64.2498 22.0042C65.6978 21.7374 66.8563 21.0484 66.7505 19.4591L65.4695 12.274L59.6104 13.93Z" fill="#FFC9BD"/>
<path d="M60.6853 18.8756C60.6853 18.8756 65.0963 16.8918 64.7733 13.5299L59.939 15.4026L60.6853 18.8756Z" fill="#DD9790"/>
<path d="M62.7626 16.0805L60.6295 16.475C60.111 16.5717 59.5783 16.5624 59.0635 16.4478C58.5487 16.3331 58.0626 16.1154 57.6347 15.8078C57.2067 15.5003 56.8457 15.1093 56.5735 14.6585C56.3014 14.2078 56.1237 13.7066 56.0513 13.1853L55.305 8.223C55.1248 7.0473 55.4074 5.84763 56.0936 4.87507C56.7798 3.90251 57.8164 3.23244 58.9864 3.00507C61.4649 2.54385 64.2831 4.11645 64.7398 6.61149L65.4916 12.274C65.6102 13.1362 65.3935 14.011 64.886 14.7189C64.3785 15.4267 63.6187 15.9139 62.7626 16.0805Z" fill="#FFC9BD"/>
<path d="M58.1011 11.485V12.4241C58.1017 12.4699 58.1117 12.515 58.1306 12.5567C58.1494 12.5984 58.1767 12.6358 58.2106 12.6666C58.2446 12.6973 58.2845 12.7208 58.328 12.7355C58.3714 12.7502 58.4174 12.7558 58.4631 12.752L58.9477 12.7131" stroke="#131314" stroke-width="0.45" stroke-linecap="round" stroke-linejoin="round"/>
<path d="M60.2956 7.91182C60.2956 7.91182 59.2764 7.94516 59.3544 8.46751C59.3544 8.46751 59.4101 8.82871 60.2956 8.7787C61.1812 8.72868 61.4095 8.61199 61.4095 8.25635C61.4095 7.90071 60.769 7.8507 60.2956 7.91182Z" fill="black"/>
<path d="M56.4134 9.15102C56.4134 9.15102 57.2265 8.92319 57.3713 9.41775C57.3713 9.41775 57.466 9.75673 56.7531 9.93455C56.0402 10.1124 55.784 10.029 55.6726 9.76229C55.5612 9.49556 56.0235 9.21771 56.4134 9.15102Z" fill="black"/>
<path d="M59.772 10.618C59.7893 10.6895 59.8274 10.7542 59.8815 10.8041C59.9356 10.854 60.0033 10.8867 60.076 10.8983C60.1488 10.9099 60.2233 10.8997 60.2903 10.8691C60.3572 10.8384 60.4136 10.7887 60.4523 10.7262C60.491 10.6637 60.5102 10.5911 60.5077 10.5177C60.5051 10.4442 60.4808 10.3732 60.4378 10.3135C60.3949 10.2538 60.3352 10.2081 60.2662 10.1822C60.1973 10.1563 60.1222 10.1513 60.0505 10.1679C59.9543 10.1917 59.8712 10.2521 59.8192 10.3363C59.7671 10.4204 59.7502 10.5216 59.772 10.618Z" fill="black"/>
<path d="M56.4578 11.107C56.4684 11.1549 56.4883 11.2001 56.5164 11.2403C56.5445 11.2804 56.5803 11.3146 56.6217 11.341C56.663 11.3673 56.7093 11.3852 56.7576 11.3937C56.8059 11.4022 56.8555 11.4011 56.9034 11.3904C56.9772 11.3752 57.0447 11.3383 57.0973 11.2845C57.15 11.2308 57.1854 11.1626 57.199 11.0887C57.2126 11.0147 57.2038 10.9384 57.1737 10.8695C57.1436 10.8006 57.0936 10.7422 57.0301 10.7018C56.9665 10.6614 56.8924 10.6408 56.817 10.6427C56.7417 10.6446 56.6687 10.6688 56.6073 10.7123C56.5458 10.7558 56.4988 10.8166 56.4722 10.8869C56.4456 10.9572 56.4406 11.0339 56.4578 11.107Z" fill="black"/>
<path d="M57.4883 14.1522L57.6053 13.4965C57.6699 13.3933 57.7581 13.3067 57.8626 13.244C57.9671 13.1812 58.085 13.144 58.2067 13.1353L60.0001 12.9853C60.1137 12.9736 60.2284 12.987 60.3362 13.0245C60.4439 13.0619 60.5422 13.1225 60.6239 13.202L61.1196 13.8466L57.4883 14.1522Z" fill="black"/>
<path d="M63.8653 10.1458C63.8653 10.1458 62.0162 9.95131 62.9018 6.5616C62.9018 6.5616 58.5353 7.46737 57.4492 4.33884L59.4431 2.2439L63.8987 3.04408L65.3746 5.86699L65.1741 8.36204L63.8653 10.1458Z" fill="black"/>
<path d="M67.5472 9.45673C67.5956 9.70128 67.5952 9.95297 67.5457 10.1973C67.4963 10.4417 67.3988 10.6738 67.2591 10.8805C67.1193 11.0871 66.9399 11.2641 66.7312 11.4012C66.5226 11.5383 66.2888 11.6329 66.0434 11.6795C65.676 11.7492 65.2962 11.7089 64.9518 11.5635C64.6075 11.4182 64.3139 11.1744 64.1082 10.8628C63.9025 10.5512 63.7938 10.1859 63.7959 9.81281C63.798 9.43973 63.9108 9.07562 64.12 8.76639C64.3292 8.45716 64.6255 8.21664 64.9715 8.07518C65.3175 7.93371 65.6978 7.89762 66.0643 7.97145C66.4308 8.04528 66.7672 8.22574 67.0311 8.49006C67.295 8.75438 67.4746 9.09074 67.5472 9.45673Z" fill="#FFC9BD"/>
<path d="M65.1797 10.4736C65.1797 10.4736 64.9346 9.12886 66.249 9.10107" stroke="#131314" stroke-width="0.45" stroke-linecap="round" stroke-linejoin="round"/>
<path d="M57.4495 4.3555C57.0081 4.46106 56.5992 4.6727 56.2585 4.97197C55.9178 5.27124 55.6555 5.64908 55.4946 6.07259L56.0516 2.04939L58.7249 1.13806L60.7467 1.79933L60.4014 4.37773L57.4495 4.3555Z" fill="black"/>
<path d="M59.9447 20.2648L62.8074 19.4202L66.5111 19.1423L67.6919 19.2813C67.6919 19.2813 67.5248 22.1597 62.4454 22.6765C58.0176 23.1544 59.9447 20.2648 59.9447 20.2648Z" fill="#FFC9BD"/>
<path d="M15.5333 43.8984L7.99219 91.6877H10.2534L20.9636 42.9871L15.5333 43.8984Z" fill="#435D60"/>
<path d="M84.9073 43.8984L92.454 91.6877H90.1928L79.4771 42.9871L84.9073 43.8984Z" fill="#435D60"/>
<path d="M99.7054 41.8867H0V46.0377H99.7054V41.8867Z" fill="#213033"/>
<path d="M22.0496 34.5072C22.0496 34.5072 23.1635 41.4311 17.9894 41.6811C12.8154 41.9312 14.0406 34.4572 14.0406 34.4572L22.0496 34.5072Z" fill="#FEFEFF"/>
<path d="M13.478 40.153C12.9871 40.1726 12.5015 40.0462 12.0828 39.7899C11.6641 39.5336 11.3311 39.159 11.1263 38.7135C10.9214 38.268 10.8538 37.7719 10.9321 37.288C11.0104 36.8041 11.2311 36.3544 11.5661 35.9959C11.901 35.6374 12.3352 35.3863 12.8135 35.2745C13.2918 35.1627 13.7926 35.1953 14.2523 35.368C14.7121 35.5408 15.11 35.8459 15.3955 36.2447C15.6811 36.6436 15.8414 37.118 15.8562 37.6079C15.8787 38.26 15.6409 38.8943 15.195 39.3715C14.7491 39.8488 14.1315 40.1298 13.478 40.153ZM13.3554 36.002C13.0254 36.0109 12.7053 36.1171 12.4358 36.3073C12.1662 36.4975 11.9591 36.7631 11.8407 37.0707C11.7223 37.3782 11.6979 37.7138 11.7705 38.0352C11.8432 38.3566 12.0096 38.6492 12.2488 38.8763C12.488 39.1034 12.7893 39.2546 13.1146 39.311C13.44 39.3673 13.7747 39.3262 14.0767 39.1929C14.3786 39.0596 14.6341 38.84 14.8111 38.5619C14.988 38.2837 15.0785 37.9595 15.0709 37.6302C15.0606 37.1919 14.8778 36.7753 14.562 36.4706C14.2461 36.1659 13.8226 35.9975 13.3833 36.002H13.3554Z" fill="#FEFEFF"/>
<path d="M18.9529 29.606C18.9529 29.606 21.398 25.9996 18.396 23.8269C14.7424 21.1818 19.9165 16.1139 19.9165 16.1139" stroke="#FEFEFF" stroke-width="0.79" stroke-miterlimit="10"/>
<path d="M14.4973 19.3868C14.4973 19.3868 11.4786 24.2436 15.0543 26.383C18.2957 28.3279 15.912 31.1119 15.912 31.1119" stroke="#FEFEFF" stroke-width="0.79" stroke-miterlimit="10"/>
</svg>
