<svg width="90" height="106" viewBox="0 0 90 106" fill="none" xmlns="http://www.w3.org/2000/svg">
<path d="M88.8518 81.4215C88.9828 68.3068 70.684 57.491 47.9801 57.2638C25.2763 57.0366 6.76488 67.4841 6.63381 80.5989C6.50274 93.7137 24.8016 104.529 47.5055 104.757C70.2093 104.984 88.7207 94.5363 88.8518 81.4215Z" fill="#D7D7D7"/>
<path d="M63.9583 13.3363L41.2063 0.211495C41.0456 0.0980708 40.8573 0.0303416 40.6612 0.0155156C40.4652 0.000689638 40.2688 0.0393209 40.0929 0.127299L37.8501 1.42262L40.491 3.47893L41.1383 3.31378V57.2443C41.1383 58.5105 41.9053 59.9807 42.8536 60.5279L62.8029 75.1359V76.0361L65.1234 74.6825C65.447 74.4591 65.6736 73.9895 65.6736 73.3289V16.6199C65.6736 15.3537 64.9065 13.8836 63.9583 13.3363Z" fill="#999999"/>
<path d="M60.4788 18.1514V15.6062L58.2392 17.2901L48.462 13.1904L41.138 7.85368V3.30064L40.4907 3.46255L37.853 1.40947L40.0959 0.114156C40.2718 0.0270742 40.4678 -0.0113384 40.6636 0.00289655C40.8593 0.0171315 41.0477 0.0834957 41.2092 0.195113L63.958 13.3426C64.6516 13.8063 65.1683 14.491 65.4241 15.2856L60.4788 18.1514Z" fill="#E6E6E6"/>
<path d="M61.6992 75.9324L38.9666 62.7914C38.0151 62.2441 37.248 60.7739 37.248 59.5077V2.802C37.248 1.53583 38.0151 0.956171 38.9666 1.50668L61.7154 14.6477C62.6636 15.1949 63.4307 16.6651 63.4307 17.9313V74.6338C63.4145 75.9 62.6475 76.4829 61.6992 75.9324Z" fill="#CCCCCC"/>
<path d="M37.7329 59.8445V3.05452C37.7329 2.13484 38.2928 1.71063 38.9854 2.10894L61.663 15.2111C62.3523 15.6094 62.9122 16.6813 62.9122 17.6009V74.3909C62.9122 75.3138 62.3523 75.7348 61.663 75.3365L38.9854 62.2376C38.2928 61.836 37.7329 60.7674 37.7329 59.8445Z" fill="#333333"/>
<path d="M62.2491 18.2066V73.2123C62.2491 74.0315 61.6698 74.3554 60.9546 73.9441L39.6784 61.6548C39.3023 61.4119 38.989 61.0834 38.764 60.6962C38.539 60.309 38.4087 59.874 38.3838 59.4268V4.42121C38.3838 3.60192 38.9599 3.27162 39.6784 3.68288L43.5621 5.93026C43.7392 6.04589 43.8645 6.22586 43.9116 6.43219L44.0896 7.25472C44.1835 7.68306 44.3626 8.08813 44.6161 8.44584C44.8696 8.80355 45.1925 9.10659 45.5654 9.33694L55.0513 14.8161C55.7763 15.2339 56.3977 15.0752 56.5271 14.4405L56.7084 13.8285C56.7537 13.673 56.8961 13.6342 57.0579 13.7281L60.9416 15.9754C61.3202 16.2176 61.636 16.546 61.8633 16.9339C62.0905 17.3217 62.2228 17.7578 62.2491 18.2066Z" fill="#071952"/>
<path d="M46.4456 8.54365C46.4456 8.98405 46.122 9.15892 45.7563 8.93871C45.5558 8.80827 45.389 8.63238 45.2692 8.42533C45.1494 8.21828 45.0801 7.98589 45.0669 7.74702C45.0669 7.30985 45.3744 7.13499 45.7563 7.35519C45.9566 7.48494 46.1235 7.66022 46.2433 7.86675C46.3631 8.07328 46.4324 8.30522 46.4456 8.54365Z" fill="#666666"/>
<path d="M46.1348 8.3656C46.1348 8.60524 45.9665 8.68943 45.7561 8.57933C45.6469 8.50839 45.5558 8.41288 45.49 8.30043C45.4243 8.18798 45.3857 8.06169 45.3774 7.93167C45.3774 7.69204 45.549 7.60784 45.7561 7.71471C45.8657 7.78597 45.9571 7.88199 46.0229 7.99504C46.0887 8.1081 46.127 8.23502 46.1348 8.3656Z" fill="#333333"/>
<path d="M53.6371 11.7269L46.8891 7.84095C46.8275 7.79726 46.7772 7.73952 46.7423 7.67251C46.7074 7.6055 46.689 7.53115 46.6885 7.45559V7.18357C46.6885 7.03461 46.7759 6.96661 46.8891 7.03137L53.6371 10.9173C53.6991 10.9608 53.7499 11.0185 53.7853 11.0855C53.8208 11.1524 53.8399 11.2269 53.841 11.3027V11.5747C53.8539 11.7237 53.7504 11.7917 53.6371 11.7269Z" fill="black"/>
<path d="M65.0425 25.3566C64.9583 25.3182 64.8654 25.3028 64.7733 25.3119C64.6812 25.321 64.5932 25.3543 64.5182 25.4085C64.3047 25.5479 64.1271 25.7359 64 25.9571C63.8729 26.1782 63.7998 26.4263 63.7867 26.6811V33.42C63.7787 33.5109 63.7944 33.6023 63.8325 33.6852C63.8705 33.7681 63.9294 33.8396 64.0036 33.8928L64.4113 34.1292C64.3369 34.0766 64.2778 34.005 64.2402 33.9219C64.2026 33.8388 64.188 33.7471 64.1978 33.6564L64.2107 26.9175C64.2246 26.663 64.2984 26.4154 64.4261 26.1948C64.5538 25.9742 64.7317 25.7869 64.9454 25.6481C65.0201 25.5933 65.1082 25.5596 65.2004 25.5505C65.2926 25.5414 65.3856 25.5572 65.4697 25.5963L65.0425 25.3566Z" fill="#E6E6E6"/>
<path d="M64.9294 25.6484C65.334 25.4121 65.6641 25.5999 65.6673 26.0694L65.6867 32.8083C65.6733 33.0634 65.5997 33.3117 65.472 33.5328C65.3444 33.754 65.1662 33.9418 64.9521 34.081C64.5443 34.3141 64.2142 34.1231 64.2142 33.6567L64.2109 26.9179C64.2231 26.6648 64.2944 26.4181 64.4192 26.1976C64.544 25.9771 64.7187 25.789 64.9294 25.6484Z" fill="#BFBFBF"/>
<path d="M65.0491 26.4058C65.3727 26.2115 65.6543 26.367 65.6543 26.7491V32.2769C65.6427 32.4862 65.5821 32.6898 65.4776 32.8715C65.373 33.0531 65.2274 33.2077 65.0523 33.3228C64.7287 33.5139 64.4471 33.3552 64.4438 32.9763V27.4486C64.4527 27.2387 64.5124 27.0341 64.6178 26.8524C64.7232 26.6708 64.8713 26.5175 65.0491 26.4058Z" fill="#CCCCCC"/>
<path d="M52.8825 60.4431L51.6332 59.721C47.1994 57.1595 43.6069 50.2911 43.6069 44.378V27.5388C43.6069 21.6257 47.1994 18.9055 51.6332 21.467L52.8825 22.1989C57.3164 24.7604 60.9088 31.6288 60.9088 37.5419V54.381C60.9023 60.2844 57.3099 63.0014 52.8825 60.4431Z" fill="#0081ED"/>
<path d="M36.3318 33.7958C36.2321 33.7411 36.1216 33.709 36.0082 33.7019C35.2605 33.6404 34.309 34.5342 33.9401 35.6449L30.5062 45.5703C30.3153 46.1499 30.4092 46.6389 30.7134 46.8138L31.4804 47.2606C31.1794 47.0858 31.0856 46.5968 31.2765 46.0171L34.7104 36.0918C35.0761 34.9843 36.0276 34.0905 36.7784 34.1488C36.892 34.1554 37.0026 34.1875 37.1021 34.2427L36.3318 33.7958Z" fill="#E6E6E6"/>
<path d="M36.7852 34.1484C37.5296 34.2067 37.7562 35.1976 37.2772 36.2954L33.0957 46.1593C32.7721 46.8555 32.1863 47.3639 31.7138 47.3283C31.2412 47.2927 31.0503 46.7163 31.2833 46.0135L34.7172 36.0882C35.0829 34.9807 36.0344 34.0869 36.7852 34.1484Z" fill="#A6A6A6"/>
<path d="M56.786 38.1188L45.6754 40.1492L34.5615 38.1188C34.5615 38.1188 35.6328 59.0835 43.316 61.9364L43.3452 61.9138C44.8761 62.414 46.5264 62.414 48.0574 61.9138L48.148 61.8781C48.4137 61.7824 48.6704 61.6632 48.915 61.5219C49.0674 61.4328 49.2134 61.3333 49.352 61.224C55.8604 56.6548 56.786 38.1188 56.786 38.1188Z" fill="#F2F2F2"/>
<path d="M53.5597 42.4026C49.2327 44.8993 42.2031 44.8993 37.834 42.3734C33.4648 39.8476 33.4551 35.79 37.7854 33.3062C42.1158 30.8224 49.155 30.816 53.5112 33.3353C57.8674 35.8547 57.8901 39.9026 53.5597 42.4026Z" fill="#CACACA"/>
<path d="M38.0861 35.4732C34.3772 33.242 34.5034 29.6799 38.3709 27.5232C42.2384 25.3665 48.3747 25.428 52.0868 27.6624C55.799 29.8968 55.6663 33.4557 51.802 35.6124C47.9378 37.7691 41.7951 37.7076 38.0861 35.4732Z" fill="#F2F2F2"/>
<path d="M56.5693 27.9088C56.3392 26.9929 55.9807 26.1142 55.5045 25.2988C55.0095 24.4497 54.3947 23.6764 53.6792 23.0028C53.2895 22.6356 52.873 22.2979 52.4332 21.9925C52.2552 21.8694 52.0157 21.714 51.8312 21.6039C51.6467 21.4938 51.3231 21.3189 51.103 21.2023C50.695 20.9918 50.2733 20.8089 49.8408 20.6551C49.3553 20.4769 48.9605 20.3766 48.6433 20.2924C48.3262 20.2082 47.7048 20.0948 47.4912 20.0689C47.2776 20.043 47.0963 20.0106 46.9248 19.9977C46.1999 19.9426 46.1869 19.9394 45.805 19.9362C44.8484 19.9258 43.8939 20.0258 42.9602 20.2341C42.7692 20.2762 42.5168 20.3377 42.3323 20.3928C41.9763 20.5029 41.5006 20.6615 41.151 20.7943C40.9342 20.8785 40.6494 21.008 40.439 21.1181C40.2286 21.2282 40.0183 21.3383 39.837 21.442C39.5878 21.5715 39.2739 21.7658 39.0376 21.9309C38.8629 22.0475 38.6363 22.2191 38.4648 22.3454C38.1929 22.5462 37.8661 22.8539 37.6136 23.0773C37.2881 23.3784 36.9852 23.7031 36.7074 24.0488C36.4021 24.4458 36.118 24.8587 35.8563 25.2858C35.7099 25.5221 35.5791 25.7676 35.4646 26.0209C35.2802 26.4451 35.0504 27.0183 34.9047 27.4555C34.7682 27.8947 34.6665 28.3441 34.6005 28.7994C34.5272 29.3253 34.4861 29.8552 34.4775 30.3861C34.4804 30.6772 34.5074 30.9674 34.5584 31.254C34.6201 31.5863 34.7144 31.9117 34.84 32.2255C34.9292 32.4401 35.0296 32.6498 35.141 32.8537C35.2025 32.967 35.2963 33.1095 35.3643 33.2196C35.5293 33.4737 35.7143 33.7141 35.9177 33.9385C36.2129 34.2759 36.5378 34.5858 36.8887 34.8647C37.1735 35.0946 37.5845 35.3569 37.8887 35.5512C38.3467 35.8294 38.8249 36.073 39.3192 36.2798C39.7303 36.445 40.2901 36.6425 40.7076 36.7817C40.9342 36.8562 41.2481 36.9339 41.4812 36.9955C42.7796 37.3096 44.1099 37.4726 45.4458 37.4812C45.9312 37.4812 46.5785 37.4553 47.064 37.4262C47.3067 37.4262 47.6303 37.3711 47.8731 37.3452C47.9572 37.3452 48.7696 37.2286 49.4621 37.07C49.7081 37.0117 50.0382 36.9372 50.281 36.8627C50.7114 36.7299 51.2843 36.5389 51.7082 36.3802C51.9445 36.2928 52.2487 36.1503 52.4753 36.0564C52.7018 35.9625 52.9186 35.8329 53.1031 35.7325C53.2876 35.6322 53.621 35.4087 53.8378 35.2824C53.9931 35.182 54.1873 35.0298 54.3394 34.923C54.5433 34.774 54.7958 34.5408 54.9867 34.3692C55.2099 34.1579 55.4186 33.9318 55.6113 33.6924C55.8003 33.4511 55.9754 33.1992 56.1356 32.9379C56.2151 32.8075 56.2865 32.6723 56.3493 32.5331C56.4496 32.3097 56.5726 32.0053 56.647 31.7753C56.7501 31.4359 56.8163 31.0863 56.8444 30.7326C56.8962 29.7828 56.8034 28.8307 56.5693 27.9088Z" fill="#F2F2F2"/>
<path d="M41.6974 36.0492L36.0207 32.7688C35.8353 32.6396 35.6831 32.4684 35.5762 32.2692C35.4694 32.07 35.411 31.8485 35.4058 31.6225C35.4058 29.618 36.6227 28.708 38.1211 29.5661L39.5743 30.4049C41.076 31.2727 42.2929 33.5978 42.2929 35.5861C42.3026 36.0363 42.0307 36.2435 41.6974 36.0492Z" fill="#1D1D1C"/>
<path d="M38.0698 32.1923C38.0698 32.8044 37.6393 33.0505 37.0989 32.7429C36.8172 32.5625 36.5824 32.3179 36.4136 32.0292C36.2448 31.7404 36.1469 31.4156 36.1279 31.0816C36.1279 30.4728 36.5584 30.2267 37.0989 30.5343C37.3801 30.7143 37.6147 30.9584 37.7834 31.2466C37.9522 31.5348 38.0503 31.8589 38.0698 32.1923Z" fill="#1381F2"/>
<path d="M37.7007 31.9785C37.7007 32.3542 37.4353 32.5063 37.1084 32.3185C36.9356 32.2072 36.7917 32.0564 36.6887 31.8785C36.5858 31.7005 36.5266 31.5006 36.5161 31.2952C36.5161 30.9196 36.7783 30.7674 37.1084 30.9714C37.2791 31.0811 37.4216 31.2294 37.5245 31.4043C37.6273 31.5793 37.6877 31.776 37.7007 31.9785Z" fill="#0F6ADC"/>
<path d="M40.9443 33.8341C40.9443 34.4429 40.5138 34.689 39.9734 34.3814C39.6923 34.2005 39.4578 33.9558 39.2891 33.6671C39.1204 33.3784 39.0222 33.054 39.0024 32.7202C39.0024 32.1114 39.4361 31.8652 39.9734 32.1729C40.2546 32.3536 40.4892 32.5983 40.658 32.887C40.8267 33.1757 40.9248 33.5002 40.9443 33.8341Z" fill="#1381F2"/>
<path d="M40.5844 33.6205C40.5844 33.9961 40.319 34.1451 39.9922 33.9443C39.8193 33.833 39.6755 33.6822 39.5725 33.5042C39.4695 33.3263 39.4104 33.1264 39.3999 32.921C39.3999 32.5454 39.6653 32.3964 39.9922 32.5972C40.165 32.7085 40.3088 32.8593 40.4118 33.0373C40.5148 33.2152 40.574 33.4151 40.5844 33.6205Z" fill="#0F6ADC"/>
<path d="M52.022 47.1144C52.022 48.2673 52.8375 48.7336 53.8408 48.1539C54.369 47.8106 54.8089 47.3476 55.1249 46.8024C55.4409 46.2572 55.6241 45.6453 55.6597 45.016C55.6597 43.8632 54.8441 43.3969 53.8408 43.9798C53.3127 44.3224 52.8728 44.7848 52.5568 45.3295C52.2408 45.8741 52.0575 46.4857 52.022 47.1144Z" fill="#E6E6E6"/>
<path d="M52.4131 46.5185C52.4131 47.0917 52.8177 47.3216 53.3161 47.0334C53.578 46.8635 53.7963 46.6342 53.9531 46.3642C54.11 46.0941 54.2011 45.7909 54.219 45.479C54.219 44.9058 53.8145 44.6759 53.3161 44.9641C53.0541 45.134 52.8358 45.3633 52.6789 45.6334C52.5221 45.9034 52.431 46.2067 52.4131 46.5185Z" fill="#CACACA"/>
<path d="M53.912 45.2234C53.8322 45.1861 53.7439 45.171 53.6562 45.1795C53.5685 45.188 53.4848 45.22 53.4136 45.272C53.2092 45.4039 53.0389 45.5824 52.9168 45.793C52.7947 46.0035 52.7243 46.24 52.7113 46.4831C52.702 46.5695 52.7159 46.6569 52.7518 46.7361C52.7877 46.8152 52.8441 46.8833 52.9152 46.9332L54.8992 48.0893C54.8283 48.0384 54.7721 47.9697 54.7363 47.8901C54.7005 47.8105 54.6863 47.7228 54.6953 47.6359C54.7076 47.3931 54.7774 47.1567 54.8989 46.9461C55.0205 46.7355 55.1903 46.5569 55.3943 46.4248C55.4655 46.3728 55.5492 46.3409 55.6369 46.3323C55.7246 46.3238 55.8129 46.339 55.8927 46.3763L53.912 45.2234Z" fill="#A6A6A6"/>
<path d="M55.3944 46.4119C55.7828 46.1885 56.0967 46.3698 56.0967 46.8135C56.0855 47.0562 56.0165 47.2927 55.8955 47.5034C55.7745 47.7141 55.6049 47.8928 55.4009 48.0246C55.0125 48.2513 54.6953 48.0699 54.6953 47.623C54.7076 47.3802 54.7775 47.1437 54.899 46.9332C55.0205 46.7226 55.1903 46.5439 55.3944 46.4119Z" fill="#A6A6A6"/>
<path d="M55.9642 45.1587C55.8656 45.101 55.7547 45.0676 55.6406 45.0616C54.893 45.0001 53.9415 45.8938 53.5725 47.0046L50.1419 56.9332C49.9477 57.5096 50.0416 57.9986 50.3458 58.1767L51.1128 58.6236C50.8119 58.4455 50.718 57.9565 50.9089 57.3801L54.3428 47.4515C54.7085 46.344 55.66 45.4502 56.4109 45.5085C56.5249 45.5145 56.6359 45.5478 56.7345 45.6056L55.9642 45.1587Z" fill="#E6E6E6"/>
<path d="M56.4173 45.5088C57.1649 45.5703 57.3882 46.558 56.9092 47.6558L52.7278 57.5293C52.4203 58.2256 51.8184 58.734 51.3458 58.6951C50.8733 58.6563 50.6986 58.0831 50.9154 57.3998L54.3492 47.4712C54.715 46.341 55.6665 45.4473 56.4173 45.5088Z" fill="#A6A6A6"/>
<path d="M23.3892 92.6955C23.4043 89.9055 19.5014 87.6226 14.6719 87.5965C9.84232 87.5703 5.91496 89.8109 5.89988 92.6008C5.88479 95.3908 9.78769 97.6737 14.6172 97.6998C19.4468 97.726 23.3741 95.4854 23.3892 92.6955Z" fill="#0068BF"/>
<path d="M4.78352 38.7116C4.65093 38.5185 4.48157 38.3534 4.28512 38.2259C3.72521 37.8308 3.06498 37.6009 2.49537 37.2187C2.05306 36.9041 1.65186 36.5353 1.30113 36.121C1.18785 35.9947 1.04221 35.8554 0.873918 35.891C0.831908 35.9046 0.788479 35.9133 0.744474 35.9169C0.673272 35.9169 0.627953 35.8425 0.572934 35.7971C0.523202 35.7522 0.461409 35.7229 0.395192 35.7127C0.328974 35.7025 0.261223 35.7119 0.200304 35.7398C0.139384 35.7677 0.08797 35.8128 0.0523891 35.8696C0.0168082 35.9264 -0.00138105 35.9924 8.17824e-05 36.0594C0.00732991 36.1682 0.0430485 36.2732 0.10365 36.3638C0.404274 36.8197 0.728352 37.2596 1.07457 37.6818C1.3247 38.1197 1.65393 38.5073 2.0455 38.8249C2.27205 38.9707 2.53745 39.0549 2.74782 39.22C2.88874 39.3328 2.99987 39.4785 3.07146 39.6442C3.10059 39.709 3.13294 39.7835 3.2009 39.7964C3.23587 39.8059 3.27274 39.8059 3.30771 39.7964C3.64053 39.7251 3.98466 39.7251 4.31747 39.7964C4.42525 39.8175 4.53663 39.8108 4.64111 39.777C5.06832 39.5762 4.98417 39.003 4.78352 38.7116Z" fill="#FFB78C"/>
<path d="M9.19116 91.5829C9.13615 91.8543 9.13615 92.134 9.19116 92.4054C9.22597 92.5895 9.31323 92.7596 9.44242 92.8951C9.57162 93.0307 9.73725 93.1261 9.91935 93.1696C10.3829 93.2358 10.8555 93.1566 11.2722 92.9429C11.6492 92.75 11.9942 92.4998 12.2949 92.2014C12.4179 92.088 12.5085 91.9326 12.6185 91.8322C12.7938 91.7057 12.9883 91.6084 13.1946 91.544C13.4156 91.4843 13.6319 91.4085 13.8419 91.3173C14.0369 91.1977 14.2144 91.0517 14.3694 90.8834C14.5631 90.7016 14.7407 90.5033 14.9002 90.2908C15.2073 89.8433 15.3344 89.2963 15.2562 88.7591C15.2387 88.6479 15.1911 88.5435 15.1187 88.4574C15.0462 88.3712 14.9517 88.3064 14.8452 88.2701C14.7125 88.2377 14.5215 88.3349 14.3986 88.3575C14.0361 88.4288 13.6768 88.5097 13.3208 88.6036C12.6084 88.7936 11.9089 89.0294 11.2269 89.3096C10.7659 89.4775 10.3352 89.7192 9.95171 90.0253C9.7241 90.2183 9.53897 90.4565 9.40799 90.7247C9.29551 90.9991 9.22251 91.288 9.19116 91.5829Z" fill="#CACACA"/>
<path d="M13.797 74.6301C13.797 73.6424 13.797 72.6515 13.7517 71.6671C13.6837 70.456 13.4669 69.261 13.3374 68.0564C13.228 67.0337 13.1815 66.0052 13.1982 64.9768C13.1265 65.0839 13.0305 65.1726 12.918 65.2357C12.8055 65.2987 12.6798 65.3343 12.5509 65.3395C12.295 65.3476 12.0406 65.2978 11.8066 65.1937C11.1497 64.9055 10.5625 64.4792 10.0848 63.9438C9.98462 63.8283 9.86921 63.727 9.74174 63.6426C9.63494 63.5778 9.49901 63.607 9.39544 63.5487C9.29188 63.4904 8.84849 63.1148 8.8938 62.9949C8.29795 64.5878 8.21756 66.3278 8.66401 67.9689C8.71903 68.1697 8.79347 68.3673 8.85173 68.568C9.03707 69.2379 9.14565 69.9267 9.17537 70.6211C9.2757 72.1625 9.41809 73.704 9.58962 75.2422C9.63169 75.6275 9.67702 76.0096 9.72556 76.395C9.79365 76.6771 9.8284 76.9662 9.82911 77.2564C9.71184 77.9518 9.5409 78.6372 9.31777 79.3062C9.03111 80.2934 8.88298 81.3157 8.87762 82.3437C8.93161 83.2524 9.03641 84.1573 9.19155 85.0542C9.32424 86.1066 9.35661 89.4744 9.36308 90.0994C9.36308 90.3488 9.36308 90.5949 9.36308 90.8443C9.36308 91.0936 9.44399 91.1422 9.66083 91.1681C10.4327 91.2382 11.2071 91.0638 11.8745 90.6694C12.1344 90.4994 12.3497 90.2695 12.5024 89.9991C12.562 89.8558 12.5864 89.7003 12.5736 89.5457C12.5736 87.8035 12.6124 86.0645 12.6998 84.3256C12.8291 82.6438 13.0757 80.9731 13.4377 79.3256C13.5154 78.9111 13.5866 78.4966 13.6481 78.0789C13.7321 77.6399 13.7808 77.1948 13.7937 76.748C13.7937 76.2525 13.7937 75.7603 13.7937 75.2648C13.7937 75.0543 13.7937 74.8406 13.797 74.6301Z" fill="#333333"/>
<path d="M8.76389 41.8327C8.68773 41.8816 8.61427 41.9345 8.54382 41.9914C8.27043 42.2375 8.01817 42.5061 7.78973 42.7945C7.60849 43.005 7.42078 43.2154 7.2266 43.4162C6.64806 44.0173 6.02488 44.5737 5.36242 45.0807C5.521 42.856 5.11322 39.8055 5.08409 39.5756C5.06893 39.4703 5.02212 39.3721 4.94986 39.294C4.87761 39.2159 4.78332 39.1616 4.67954 39.1384C4.00921 38.8902 3.26941 38.9075 2.61146 39.187C2.40109 40.4273 1.96418 45.1001 2.00625 46.1817C2.00254 46.8852 2.08405 47.5865 2.24898 48.2704C2.34792 48.6581 2.54653 49.0131 2.82508 49.3002C3.18432 49.6467 3.73127 49.6532 4.19407 49.6694C4.60334 49.6774 5.01274 49.6645 5.42067 49.6305C6.61194 49.5845 7.78277 49.3062 8.86746 48.8112C9.2376 48.6572 9.54454 48.382 9.73806 48.0308C9.82808 47.7946 9.87839 47.5451 9.88694 47.2924C10.0261 45.9971 10.4145 44.7277 10.6346 43.4356C10.696 43.0762 10.6701 42.7265 10.709 42.3702C10.7316 42.15 10.7478 41.878 10.9517 41.755C11.1088 41.6736 11.2783 41.6189 11.4534 41.5931C11.051 41.4856 10.6367 41.4291 10.2203 41.4247C9.70655 41.4241 9.20262 41.5653 8.76389 41.8327Z" fill="#071952"/>
<path d="M13.9068 92.6677C13.7946 92.9821 13.7176 93.3079 13.677 93.6392C13.5863 94.3775 13.609 95.5821 14.4602 95.8412C14.6215 95.8871 14.7903 95.9008 14.9569 95.8813C15.1235 95.8619 15.2847 95.8097 15.4311 95.7279C15.6965 95.5821 15.9133 95.3457 16.1884 95.2227C16.4355 95.1341 16.6963 95.0902 16.9587 95.0932L18.6481 94.9895C19.1196 94.9947 19.5877 94.909 20.0268 94.7369C20.592 94.4353 21.0162 93.9236 21.2081 93.3121C21.2734 93.1471 21.3074 92.9714 21.3084 92.794C21.3073 92.7047 21.2878 92.6166 21.251 92.5352C21.2143 92.4539 21.1611 92.381 21.0948 92.3212C20.9671 92.2313 20.817 92.1786 20.6612 92.169C20.3062 92.1355 19.9492 92.1279 19.5931 92.1463C18.3601 92.1722 17.1205 92.088 15.9004 92.2661C15.5952 92.3083 15.2942 92.3766 15.0007 92.4701C14.745 92.5576 14.677 92.6385 14.4861 92.386C14.4052 92.2759 14.211 91.9293 14.2854 91.7901C14.1368 92.0724 14.0102 92.3659 13.9068 92.6677Z" fill="white"/>
<path d="M18.5479 62.0625C18.2243 63.3805 17.0592 64.4005 15.7484 64.7568C14.416 65.0746 13.0148 64.9237 11.7806 64.3293C11.478 64.2372 11.1685 64.1701 10.855 64.1285C10.7125 64.0864 10.02 63.6234 10.0264 63.4809C10.0116 64.6035 10.2953 65.7099 10.8485 66.6868C11.1592 67.2632 11.5129 67.8153 11.9068 68.3383C12.2693 68.8338 12.6997 69.2418 12.8324 69.8506C12.9651 70.4594 13.0881 71.1459 13.156 71.7936C13.2984 72.8784 13.3599 73.9729 13.4247 75.0675C13.5121 76.5571 13.6933 78.0629 13.5994 79.5525C13.5768 79.912 13.47 80.2617 13.4441 80.6309C13.4052 81.2267 13.4797 83.2895 13.4926 83.7396C13.5476 85.6826 13.8163 87.6256 13.9295 89.5686C13.9965 90.6384 13.9726 91.7119 13.8583 92.7777C13.7904 93.3897 15.1173 93.584 15.5413 93.5679C16.1496 93.5235 16.7402 93.3432 17.2695 93.04C17.687 92.8198 17.7162 87.7875 17.8359 86.6541C17.9626 85.4041 18.0069 84.1471 17.9686 82.8912C17.8863 81.7281 17.9341 80.5593 18.111 79.4068C18.3343 78.3025 18.5511 77.195 18.7356 76.0811C18.9492 74.8052 19.2923 73.5779 19.4541 72.2923C19.8943 68.8629 19.3344 65.4174 18.5479 62.0625Z" fill="#424242"/>
<path d="M19.4859 46.0945C19.055 45.6091 18.5556 45.1891 18.0036 44.8478C16.6891 43.9679 15.3134 43.1834 13.8869 42.5C12.9924 42.0516 12.0454 41.7165 11.068 41.5026C10.3042 41.3472 9.35593 41.4832 8.78309 42.0434C8.41084 42.4338 8.14264 42.9115 8.00312 43.4326C7.61025 44.6381 7.41142 45.8984 7.41409 47.1664C7.43674 48.099 7.48529 49.0252 7.55973 49.9546C7.93084 54.635 8.22643 59.3197 8.44651 64.0088C8.49182 64.922 8.86076 65.3915 9.59543 65.9517C9.8683 66.1529 10.1651 66.3193 10.479 66.4472C11.227 66.7276 12.0121 66.8967 12.8092 66.9491C13.9546 67.077 15.1106 67.077 16.256 66.9491C16.8321 66.8814 17.4009 66.7611 17.9551 66.5897C18.2982 66.4828 19.1979 66.3015 19.3532 65.9647C19.4079 65.8267 19.4343 65.6791 19.4309 65.5307C19.5604 62.2083 19.7545 58.8793 19.7901 55.5536C19.7901 54.4299 19.7319 53.2868 19.8225 52.1695C19.871 51.5899 19.9649 50.9908 19.9649 50.4079C20.0232 49.6534 20.0814 48.8989 20.1332 48.1411C20.1957 47.7927 20.1757 47.4345 20.075 47.0951C19.9532 46.7892 19.7933 46.4997 19.5992 46.2338L19.4859 46.0945Z" fill="#071952"/>
<path d="M18.8778 36.004C18.9167 36.2825 18.9426 36.5642 18.962 36.8427C19.0118 37.0844 19.0313 37.3313 19.0202 37.5778C18.9843 37.719 18.9356 37.8567 18.8746 37.9891C18.797 38.2215 18.7439 38.4613 18.716 38.7047C18.6254 39.2941 18.5359 39.8835 18.4474 40.4728C18.404 40.8837 18.3015 41.2862 18.1432 41.6678C18.062 41.8577 17.9408 42.0279 17.7877 42.1665C17.6346 42.3051 17.4534 42.409 17.2564 42.4709C17.1658 42.4968 17.0719 42.5065 16.9813 42.5389C16.7616 42.6434 16.591 42.8291 16.5055 43.057C16.4227 43.278 16.3276 43.4942 16.2207 43.7046C16.1986 43.7505 16.1623 43.788 16.1172 43.8115C16.0728 43.8245 16.0256 43.8245 15.9812 43.8115C14.6867 43.6464 13.3436 43.4877 12.2011 42.84C12.3338 42.1924 12.6607 41.5771 12.5247 40.9359C12.4423 40.6335 12.3262 40.3413 12.1785 40.0648C11.7286 39.0383 11.7189 37.879 11.7545 36.7585C11.7654 36.0166 11.9901 35.2935 12.4018 34.6763C12.7885 34.1708 13.3349 33.8112 13.952 33.6562C14.4893 33.5166 15.0461 33.4685 15.5993 33.5137C16.1651 33.5426 16.7226 33.6629 17.2499 33.87C17.6725 34.0212 18.0531 34.2709 18.36 34.5986C18.661 35.0092 18.8404 35.4962 18.8778 36.004Z" fill="#FFE5CC"/>
<path d="M13.9877 34.9003C13.6835 34.7349 13.3562 34.6159 13.0168 34.5473C12.9035 34.5473 12.7547 34.5959 12.6511 34.5732C12.5475 34.5505 12.4666 34.3789 12.4213 34.2688C12.0243 34.6427 11.7234 35.1071 11.5443 35.6224C11.3607 36.1827 11.2882 36.7733 11.3306 37.3614C11.446 38.1871 11.6635 38.9953 11.9779 39.7674L12.3016 40.7033C12.339 40.8338 12.3992 40.9566 12.4796 41.066C12.5538 41.1573 12.6479 41.2304 12.7547 41.2797C13.2497 41.4933 13.8087 41.5038 14.3114 41.3088C14.6066 41.2244 14.8804 41.0775 15.114 40.8782C15.4186 40.5439 15.6531 40.1519 15.8034 39.7253C15.9544 39.2955 16.2406 38.9263 16.619 38.6729C16.8318 38.5621 17.0732 38.5185 17.3113 38.548C17.5494 38.5775 17.773 38.6786 17.9524 38.838C18.3273 38.3114 18.5825 37.709 18.7 37.0732C18.7938 36.2377 18.4216 35.4249 18.0527 34.6671C18.0061 34.8464 17.9144 35.0107 17.7864 35.1445C17.6584 35.2783 17.4982 35.377 17.3213 35.4313C16.9667 35.5377 16.5927 35.562 16.2273 35.5026C15.4534 35.423 14.6973 35.2196 13.9877 34.9003Z" fill="#733118"/>
<path d="M11.5276 34.7413C11.4132 34.9196 11.3442 35.1232 11.3267 35.3344C11.3092 35.5455 11.3437 35.7577 11.4273 35.9524C11.4563 35.8977 11.5003 35.8524 11.5543 35.822C11.6082 35.7916 11.6697 35.7773 11.7315 35.7808C11.8567 35.7882 11.9812 35.8055 12.1037 35.8326C12.2419 35.8456 12.3814 35.8324 12.5147 35.7937C12.6086 35.7614 12.696 35.6869 12.8028 35.7063C12.9045 35.7447 13.003 35.7913 13.0973 35.8456C13.353 35.9621 13.5795 36.1208 13.8481 36.2244C14.3862 36.4162 14.9482 36.5328 15.5181 36.5709C16.4769 36.6952 17.4515 36.5599 18.3403 36.1791C18.8419 35.9362 19.2206 35.5314 19.0329 34.9453C18.9254 34.6041 18.7518 34.2875 18.5219 34.0135C18.2919 33.7396 18.0103 33.5137 17.693 33.3488C16.676 32.8691 15.5286 32.7404 14.4307 32.9829C14.2001 33.0023 13.9756 33.0675 13.7706 33.1749C13.5655 33.2822 13.3839 33.4294 13.2364 33.6079C13.1608 33.7719 13.0319 33.9054 12.8707 33.9868C12.7112 34.0383 12.5492 34.0815 12.3853 34.1163C12.0765 34.2081 11.804 34.3937 11.6053 34.6474C11.5765 34.6762 11.5505 34.7076 11.5276 34.7413Z" fill="#994120"/>
<path d="M11.6642 42.2796C11.658 42.466 11.6162 42.6496 11.5412 42.8204C11.5289 42.835 11.52 42.8522 11.5149 42.8706C11.5099 42.8891 11.5089 42.9084 11.512 42.9272C11.5204 42.9511 11.5363 42.9715 11.5573 42.9855C11.6928 43.0778 11.846 43.1407 12.0072 43.1701C13.2306 43.4939 14.4798 43.6915 15.6741 44.0995C15.924 44.1691 16.1611 44.2785 16.3764 44.4233C16.5723 44.6143 16.781 44.7918 17.001 44.9544C17.012 44.6625 17.1101 44.3805 17.2826 44.1448C17.3955 44.023 17.4903 43.8856 17.5641 43.7368C17.5848 43.6933 17.5956 43.6457 17.5956 43.5975C17.5956 43.5494 17.5848 43.5018 17.5641 43.4583C17.5103 43.379 17.4318 43.3198 17.3408 43.2899C16.221 42.7783 15.0041 42.5257 13.8196 42.1857C13.57 42.1205 13.3273 42.0315 13.0946 41.9201C12.8066 41.7712 12.6416 41.3502 12.2694 41.4603C12.0923 41.511 11.937 41.6188 11.8275 41.7669C11.7181 41.9151 11.6606 42.0953 11.6642 42.2796Z" fill="#F2F2F2"/>
<path d="M28.6259 50.2074C28.236 49.8988 27.7812 49.6829 27.2957 49.5759C27.2219 49.5497 27.1425 49.5431 27.0654 49.5567C26.9882 49.5703 26.9159 49.6037 26.8556 49.6537C26.6937 49.8123 23.6191 53.1381 23.0884 53.6141L22.6029 54.0415C21.6902 51.4509 20.3374 47.28 20.0461 46.8428C19.9701 46.7133 19.8678 46.6012 19.7458 46.5137C19.6239 46.4262 19.4849 46.3652 19.3379 46.3347C19.191 46.3042 19.0393 46.3048 18.8926 46.3365C18.7458 46.3683 18.6074 46.4304 18.4862 46.519C18.1767 46.7316 17.9135 47.0048 17.7127 47.3221C16.8259 48.6174 16.2077 50.4665 16.7094 52.0079C17.1934 53.4583 17.8189 54.8575 18.5768 56.1853C18.9479 56.8329 19.346 57.4806 19.771 58.1283C20.0947 58.6205 20.3957 59.3491 20.9976 59.5725C21.7129 59.8381 22.8392 59.3653 23.4703 59.0382C23.9059 58.8053 24.3095 58.5168 24.671 58.1801C25.2891 57.5831 25.8434 56.9232 26.3248 56.2112C27.3716 54.7443 28.3178 53.208 29.1566 51.6128C29.2407 51.478 29.2948 51.3267 29.3152 51.1692C29.3444 50.7482 28.9657 50.4373 28.6259 50.2074Z" fill="#071952"/>
<path d="M28.8238 49.2425C28.5935 49.131 28.3764 48.9942 28.1765 48.8344C28.073 48.7567 27.9694 48.6855 27.8529 48.611C27.8088 48.5801 27.7563 48.5635 27.7024 48.5635C27.6486 48.5635 27.596 48.5801 27.5519 48.611C26.937 48.9348 26.6943 49.9419 27.3966 50.3241C27.6555 50.4633 27.9791 50.4406 28.2413 50.5799C28.364 50.6587 28.4809 50.7463 28.5908 50.8422C28.8926 51.0679 29.2676 51.173 29.6426 51.1369C30.0579 51.058 30.4537 50.8985 30.8077 50.6673C31.5359 50.2658 32.2933 49.916 32.9923 49.4692C33.1477 49.3688 33.316 49.2425 33.316 49.0579C33.3212 49.0221 33.3144 48.9857 33.2966 48.9543C33.2786 48.927 33.2541 48.9048 33.2254 48.8895C33.1023 48.8203 32.9621 48.7875 32.8212 48.7949C32.6802 48.8024 32.5443 48.8498 32.4292 48.9316C32.2866 48.8675 32.1257 48.8571 31.9761 48.9025C31.4421 49.0028 30.9275 49.1971 30.3967 49.3105C29.8779 49.4502 29.3286 49.4265 28.8238 49.2425Z" fill="#FFB78C"/>
<path d="M27.4155 48.6047C27.3281 48.7083 27.2569 48.8249 27.176 48.9285C27.0905 49.0314 27.0116 49.1395 26.9398 49.2523C26.8677 49.3622 26.8378 49.4945 26.8556 49.6247C26.8725 49.6981 26.9073 49.7662 26.9571 49.8227C27.0068 49.8793 27.0698 49.9225 27.1404 49.9486C27.2814 49.9939 27.4331 49.9939 27.5741 49.9486C27.6533 49.9299 27.7281 49.8958 27.7942 49.8482C27.8687 49.7824 27.9279 49.701 27.9676 49.6098C28.0073 49.5186 28.0266 49.4198 28.024 49.3203C28.0182 49.212 28.0247 49.1034 28.0434 48.9965C28.0809 48.907 28.1123 48.8151 28.1372 48.7213C28.1424 48.6665 28.1336 48.6112 28.1115 48.5608C28.0894 48.5104 28.0548 48.4664 28.011 48.4331C27.7974 48.2679 27.5579 48.4395 27.4155 48.6047Z" fill="#FFE5CC"/>
<path d="M1.29715 36.9143C1.33521 37.0586 1.41384 37.1889 1.5237 37.2899C1.62727 37.3935 1.74378 37.4842 1.84734 37.5878C2.10949 37.8469 2.27454 38.1934 2.52698 38.4654C2.59419 38.5429 2.67837 38.6039 2.77296 38.6435C2.85147 38.6677 2.93368 38.6776 3.01569 38.6727C3.07752 38.6774 3.13968 38.6698 3.19856 38.6503C3.25745 38.6309 3.31188 38.6 3.35875 38.5593C3.40393 38.5072 3.43314 38.4431 3.4429 38.3747C3.46128 38.2398 3.44836 38.1024 3.40515 37.9732C3.36193 37.8441 3.28957 37.7266 3.19369 37.6299C3.00221 37.4379 2.78424 37.2743 2.5464 37.1442C2.32001 37.0191 2.11199 36.8632 1.92825 36.6811C1.80851 36.5581 1.65316 36.4026 1.46221 36.4836C1.27126 36.5645 1.26802 36.775 1.29715 36.9143Z" fill="#FFE5CC"/>
<path d="M15.6836 6.42518C15.8248 6.35972 15.9809 6.33331 16.1357 6.34868C16.2905 6.36406 16.4384 6.42066 16.5639 6.51261L32.0081 15.4309C32.368 15.6656 32.6673 15.9822 32.8816 16.3548C33.0959 16.7274 33.2191 17.1453 33.2412 17.5746V24.1516C33.2558 24.304 33.23 24.4577 33.1664 24.597C33.1027 24.7362 33.0035 24.8563 32.8787 24.945L31.6456 25.6639C31.7707 25.5747 31.8701 25.4541 31.9337 25.3142C31.9973 25.1744 32.023 25.0202 32.0081 24.8673L32.0275 18.2903C32.0041 17.8614 31.8799 17.4441 31.6651 17.0722C31.4503 16.7003 31.1509 16.3843 30.7912 16.1498L15.3406 7.22827C15.2141 7.13698 15.0658 7.0808 14.9106 7.06545C14.7554 7.05009 14.5989 7.0761 14.457 7.14084L15.6836 6.42518Z" fill="#FFE100"/>
<path d="M29.83 23.6169C29.6899 24.6671 29.8605 25.7354 30.3207 26.6896C30.7808 27.6438 31.5104 28.4422 32.4191 28.986L31.186 29.7017C30.2779 29.1572 29.5488 28.3587 29.0888 27.4047C28.6287 26.4506 28.4577 25.3827 28.5969 24.3326L29.83 23.6169Z" fill="#FFE100"/>
<path d="M15.3407 7.22806C14.6546 6.83299 14.098 7.15035 14.0947 7.93725V14.5142C14.1171 14.943 14.2404 15.3604 14.4547 15.7324C14.669 16.1044 14.9682 16.4205 15.3278 16.6547L25.2053 22.3606C26.7394 26.7226 28.6392 28.4939 29.882 29.2128C30.28 29.4704 30.7296 29.6373 31.1992 29.7018C30.291 29.1573 29.562 28.3589 29.1019 27.4048C28.6419 26.4508 28.4709 25.3828 28.6101 24.3327L30.7623 25.5762C31.4452 25.9713 32.0018 25.6539 32.0051 24.867L32.0245 18.2901C32.001 17.8612 31.8768 17.4439 31.662 17.072C31.4472 16.7001 31.1478 16.384 30.7882 16.1496L15.3407 7.22806Z" fill="#FFA600"/>
<path d="M26.1597 19.8024C26.1727 20.0467 26.2435 20.2844 26.3661 20.496C26.4888 20.7077 26.6598 20.8872 26.8652 21.02C27.2568 21.2466 27.5707 21.0653 27.5707 20.6184C27.5571 20.3738 27.4862 20.1358 27.3636 19.9237C27.2411 19.7116 27.0703 19.5314 26.8652 19.3976C26.4736 19.1741 26.1597 19.3522 26.1597 19.8024Z" fill="white"/>
<path d="M23.4741 18.2514C23.488 18.4955 23.559 18.7329 23.6816 18.9444C23.8042 19.156 23.9748 19.3357 24.1797 19.469C24.5713 19.6956 24.8884 19.5143 24.8884 19.0674C24.8747 18.8224 24.8034 18.5842 24.6802 18.372C24.5571 18.1599 24.3855 17.9798 24.1797 17.8466C23.7913 17.6199 23.4741 17.8012 23.4741 18.2514Z" fill="white"/>
<path d="M20.7876 16.6973C20.8009 16.942 20.8718 17.1801 20.9944 17.3922C21.117 17.6043 21.2878 17.7845 21.4931 17.9181C21.8847 18.1448 22.2019 17.9635 22.2019 17.5166C22.1882 17.2716 22.1169 17.0334 21.9937 16.8212C21.8705 16.6091 21.699 16.429 21.4931 16.2958C21.1048 16.0788 20.7876 16.2504 20.7876 16.6973Z" fill="white"/>
<path d="M18.1011 15.1455C18.1149 15.39 18.186 15.6279 18.3085 15.84C18.4311 16.052 18.6017 16.2323 18.8066 16.3663C19.1982 16.593 19.5154 16.4117 19.5154 15.9648C19.5022 15.7197 19.4311 15.4812 19.3079 15.269C19.1846 15.0567 19.0129 14.8768 18.8066 14.7439C18.4182 14.5172 18.1011 14.6986 18.1011 15.1455Z" fill="white"/>
</svg>
