<svg width="109" height="77" viewBox="0 0 109 77" fill="none" xmlns="http://www.w3.org/2000/svg">
<path d="M0.930664 76.8314L14.4041 76.7701L27.8749 76.7471L54.8218 76.7036L81.7686 76.7471L95.2395 76.7701L108.713 76.8314L95.2395 76.8953L81.7686 76.9157L54.8218 76.9592L27.8749 76.9157L14.4041 76.8927L0.930664 76.8314Z" fill="#263238"/>
<path d="M93.1438 39.6748L95.449 36.9019L98.9579 37.7248L94.6593 24.9108L88.8452 26.8633L93.1438 39.6748Z" fill="#455A64"/>
<path d="M90.9792 33.2166L88.8452 26.8633L94.6593 24.9108L90.9792 33.2166Z" fill="#37474F"/>
<path d="M93.9082 25.1663L98.0484 37.5101L98.1762 37.5408L94.013 25.1305L93.9082 25.1663Z" fill="white"/>
<path d="M89.4922 26.646L93.6554 39.0563L93.7422 38.9566L89.5995 26.6102L89.4922 26.646Z" fill="white"/>
<path d="M82.2549 39.6543L85.7101 38.627L88.1738 41.2593L92.1708 26.5157L86.2545 24.9108L82.2549 39.6543Z" fill="#455A64"/>
<path d="M91.4034 26.3112L87.5342 40.5768L87.6236 40.6714L91.5108 26.3393L91.4034 26.3112Z" fill="white"/>
<path d="M86.9106 25.0922L83.0234 39.4243L83.1487 39.3885L87.0205 25.1203L86.9106 25.0922Z" fill="white"/>
<path d="M91.1124 10.6322C91.1489 10.7232 91.2096 10.8025 91.2878 10.8616C91.3661 10.9207 91.4589 10.9573 91.5564 10.9676C91.654 10.9778 91.7524 10.9613 91.8412 10.9198C91.9301 10.8782 92.0059 10.8133 92.0605 10.7319C92.1207 10.6425 92.2061 10.5732 92.306 10.5329C92.4059 10.4926 92.5155 10.4831 92.6208 10.5056C92.7261 10.5282 92.8223 10.5817 92.8969 10.6594C92.9715 10.7371 93.0211 10.8353 93.0394 10.9414C93.0562 11.0381 93.0991 11.1283 93.1634 11.2024C93.2278 11.2765 93.3111 11.3316 93.4044 11.3618C93.4977 11.392 93.5976 11.3962 93.6931 11.374C93.7886 11.3517 93.8763 11.3037 93.9466 11.2353C94.0238 11.1602 94.1217 11.1099 94.2278 11.091C94.3338 11.072 94.4431 11.0853 94.5415 11.129C94.64 11.1727 94.7231 11.2449 94.7801 11.3363C94.8371 11.4277 94.8655 11.534 94.8615 11.6417C94.8577 11.7397 94.8807 11.837 94.928 11.923C94.9753 12.0089 95.0453 12.0803 95.1302 12.1295C95.2151 12.1787 95.3119 12.2037 95.41 12.202C95.5081 12.2002 95.6039 12.1717 95.687 12.1196C95.7781 12.0622 95.8844 12.0335 95.992 12.0371C96.0996 12.0406 96.2037 12.0763 96.2908 12.1395C96.378 12.2028 96.4442 12.2907 96.481 12.3919C96.5178 12.4931 96.5234 12.603 96.4972 12.7074C96.4728 12.8028 96.475 12.903 96.5035 12.9972C96.5321 13.0914 96.5858 13.176 96.659 13.2419C96.7322 13.3077 96.8221 13.3522 96.9188 13.3706C97.0155 13.389 97.1154 13.3806 97.2076 13.3463C97.3087 13.3093 97.4185 13.3034 97.523 13.3293C97.6274 13.3553 97.7217 13.4119 97.7937 13.4919C97.8658 13.5718 97.9122 13.6716 97.9271 13.7781C97.9419 13.8847 97.9246 13.9933 97.8772 14.09C97.8353 14.1778 97.8179 14.2753 97.8268 14.3722C97.8358 14.4691 97.8709 14.5618 97.9282 14.6404C97.9856 14.719 98.0632 14.7806 98.1527 14.8187C98.2423 14.8567 98.3405 14.8699 98.4369 14.8567C98.5443 14.8389 98.6545 14.854 98.7531 14.9001C98.8517 14.9461 98.9341 15.0209 98.9894 15.1147C99.0447 15.2084 99.0704 15.3167 99.063 15.4253C99.0556 15.5339 99.0155 15.6377 98.948 15.7231C98.8873 15.8002 98.8488 15.8925 98.8367 15.99C98.8246 16.0874 98.8393 16.1863 98.8793 16.276C98.9193 16.3657 98.983 16.4428 99.0636 16.4989C99.1441 16.555 99.2385 16.5881 99.3365 16.5945C99.4442 16.6015 99.5474 16.6407 99.6326 16.707C99.7178 16.7732 99.7812 16.8636 99.8145 16.9663C99.8478 17.0689 99.8495 17.1793 99.8194 17.283C99.7894 17.3866 99.7288 17.4789 99.6457 17.5478C99.5704 17.6107 99.5137 17.693 99.4817 17.7858C99.4497 17.8786 99.4436 17.9783 99.4641 18.0743C99.4846 18.1703 99.531 18.2588 99.5981 18.3304C99.6652 18.402 99.7506 18.454 99.8451 18.4806C99.949 18.5098 100.042 18.5695 100.111 18.652C100.181 18.7345 100.224 18.836 100.236 18.9434C100.247 19.0508 100.226 19.1591 100.175 19.2543C100.124 19.3495 100.045 19.4272 99.9498 19.4773C99.8632 19.5232 99.7907 19.5918 99.7401 19.6757C99.6895 19.7597 99.6628 19.8559 99.6628 19.9539C99.6628 20.052 99.6895 20.1482 99.7401 20.2321C99.7907 20.3161 99.8632 20.3847 99.9498 20.4306C100.045 20.4807 100.124 20.5584 100.175 20.6536C100.226 20.7488 100.247 20.8571 100.236 20.9645C100.224 21.0719 100.181 21.1734 100.111 21.2559C100.042 21.3384 99.949 21.3981 99.8451 21.4273C99.7506 21.4539 99.6652 21.5058 99.5981 21.5774C99.531 21.649 99.4846 21.7376 99.4641 21.8336C99.4436 21.9296 99.4497 22.0293 99.4817 22.1221C99.5137 22.2149 99.5704 22.2972 99.6457 22.3601C99.7292 22.4286 99.7901 22.5207 99.8204 22.6243C99.8507 22.728 99.8491 22.8383 99.8157 22.941C99.7823 23.0437 99.7187 23.1339 99.6332 23.1999C99.5477 23.2659 99.4443 23.3045 99.3365 23.3108C99.2385 23.3172 99.1441 23.3503 99.0636 23.4064C98.983 23.4626 98.9193 23.5397 98.8793 23.6293C98.8393 23.719 98.8246 23.8179 98.8367 23.9154C98.8488 24.0128 98.8873 24.1051 98.948 24.1823C99.0164 24.2676 99.0573 24.3717 99.0652 24.4808C99.073 24.5898 99.0476 24.6987 98.9921 24.793C98.9367 24.8873 98.8539 24.9624 98.7547 25.0085C98.6555 25.0547 98.5447 25.0695 98.4369 25.0512C98.3405 25.038 98.2423 25.0511 98.1527 25.0892C98.0632 25.1273 97.9856 25.1889 97.9282 25.2675C97.8709 25.3461 97.8358 25.4388 97.8268 25.5357C97.8179 25.6326 97.8353 25.7301 97.8772 25.8179C97.9246 25.9145 97.9419 26.0231 97.9271 26.1297C97.9122 26.2363 97.8658 26.336 97.7937 26.416C97.7217 26.496 97.6274 26.5526 97.523 26.5786C97.4185 26.6045 97.3087 26.5986 97.2076 26.5616C97.1154 26.5273 97.0155 26.5189 96.9188 26.5373C96.8221 26.5557 96.7322 26.6002 96.659 26.666C96.5858 26.7319 96.5321 26.8165 96.5035 26.9107C96.475 27.0049 96.4728 27.1051 96.4972 27.2005C96.5234 27.3049 96.5178 27.4148 96.481 27.516C96.4442 27.6172 96.378 27.7051 96.2908 27.7683C96.2037 27.8316 96.0996 27.8673 95.992 27.8708C95.8844 27.8744 95.7781 27.8456 95.687 27.7883C95.6039 27.7361 95.5081 27.7076 95.41 27.7059C95.3119 27.7041 95.2151 27.7292 95.1302 27.7784C95.0453 27.8275 94.9753 27.899 94.928 27.9849C94.8807 28.0709 94.8577 28.1682 94.8615 28.2662C94.8655 28.3739 94.8371 28.4802 94.7801 28.5716C94.7231 28.663 94.64 28.7352 94.5415 28.7789C94.4431 28.8226 94.3338 28.8359 94.2278 28.8169C94.1217 28.798 94.0238 28.7477 93.9466 28.6726C93.8763 28.6042 93.7886 28.5562 93.6931 28.5339C93.5976 28.5116 93.4977 28.5158 93.4044 28.5461C93.3111 28.5763 93.2278 28.6314 93.1634 28.7055C93.0991 28.7796 93.0562 28.8698 93.0394 28.9665C93.0211 29.0726 92.9715 29.1708 92.8969 29.2485C92.8223 29.3262 92.7261 29.3797 92.6208 29.4023C92.5155 29.4248 92.4059 29.4153 92.306 29.375C92.2061 29.3347 92.1207 29.2654 92.0605 29.176C92.0059 29.0946 91.9301 29.0297 91.8412 28.9881C91.7524 28.9466 91.654 28.93 91.5564 28.9403C91.4589 28.9505 91.3661 28.9872 91.2878 29.0463C91.2096 29.1054 91.1489 29.1847 91.1124 29.2757C91.0724 29.3759 91.0033 29.4618 90.9141 29.5224C90.8248 29.5829 90.7194 29.6153 90.6115 29.6153C90.5036 29.6153 90.3982 29.5829 90.3089 29.5224C90.2196 29.4618 90.1505 29.3759 90.1106 29.2757C90.074 29.1847 90.0134 29.1054 89.9352 29.0463C89.8569 28.9872 89.764 28.9505 89.6665 28.9403C89.569 28.93 89.4705 28.9466 89.3817 28.9881C89.2929 29.0297 89.2171 29.0946 89.1624 29.176C89.1023 29.2654 89.0168 29.3347 88.9169 29.375C88.8171 29.4153 88.7074 29.4248 88.6021 29.4023C88.4968 29.3797 88.4007 29.3262 88.3261 29.2485C88.2515 29.1708 88.2019 29.0726 88.1836 28.9665C88.1668 28.8698 88.1239 28.7796 88.0595 28.7055C87.9952 28.6314 87.9119 28.5763 87.8186 28.5461C87.7252 28.5158 87.6254 28.5116 87.5299 28.5339C87.4343 28.5562 87.3467 28.6042 87.2763 28.6726C87.1991 28.7477 87.1012 28.798 86.9952 28.8169C86.8891 28.8359 86.7799 28.8226 86.6814 28.7789C86.583 28.7352 86.4999 28.663 86.4428 28.5716C86.3858 28.4802 86.3575 28.3739 86.3614 28.2662C86.3647 28.1681 86.3412 28.0709 86.2936 27.9851C86.2459 27.8992 86.1758 27.828 86.0908 27.7789C86.0057 27.7298 85.9089 27.7048 85.8108 27.7064C85.7126 27.7081 85.6167 27.7364 85.5334 27.7883C85.4423 27.8456 85.336 27.8744 85.2284 27.8708C85.1208 27.8673 85.0167 27.8316 84.9296 27.7683C84.8424 27.7051 84.7762 27.6172 84.7394 27.516C84.7027 27.4148 84.697 27.3049 84.7232 27.2005C84.7473 27.1054 84.745 27.0056 84.7166 26.9117C84.6882 26.8178 84.6346 26.7334 84.5618 26.6677C84.489 26.602 84.3996 26.5574 84.3033 26.5387C84.207 26.52 84.1075 26.5279 84.0153 26.5616C83.9143 26.5986 83.8044 26.6045 83.7 26.5786C83.5955 26.5526 83.5012 26.496 83.4292 26.416C83.3572 26.336 83.3108 26.2363 83.2959 26.1297C83.281 26.0231 83.2984 25.9145 83.3457 25.8179C83.3877 25.7301 83.4051 25.6326 83.3961 25.5357C83.3871 25.4388 83.3521 25.3461 83.2947 25.2675C83.2373 25.1889 83.1598 25.1273 83.0702 25.0892C82.9807 25.0511 82.8825 25.038 82.7861 25.0512C82.6783 25.0695 82.5674 25.0547 82.4683 25.0085C82.3691 24.9624 82.2863 24.8873 82.2309 24.793C82.1754 24.6987 82.1499 24.5898 82.1578 24.4808C82.1657 24.3717 82.2065 24.2676 82.2749 24.1823C82.3356 24.1051 82.3741 24.0128 82.3862 23.9154C82.3983 23.8179 82.3836 23.719 82.3436 23.6293C82.3036 23.5397 82.2399 23.4626 82.1594 23.4064C82.0788 23.3503 81.9844 23.3172 81.8865 23.3108C81.7787 23.3045 81.6753 23.2659 81.5898 23.1999C81.5043 23.1339 81.4407 23.0437 81.4073 22.941C81.3739 22.8383 81.3722 22.728 81.4025 22.6243C81.4329 22.5207 81.4937 22.4286 81.5772 22.3601C81.6526 22.2972 81.7093 22.2149 81.7413 22.1221C81.7733 22.0293 81.7793 21.9296 81.7588 21.8336C81.7383 21.7376 81.692 21.649 81.6249 21.5774C81.5578 21.5058 81.4724 21.4539 81.3779 21.4273C81.2739 21.3981 81.1811 21.3384 81.1115 21.2559C81.0419 21.1734 80.9986 21.0719 80.9873 20.9645C80.976 20.8571 80.9972 20.7488 81.0482 20.6536C81.0991 20.5584 81.1775 20.4807 81.2731 20.4306C81.3598 20.3847 81.4323 20.3161 81.4828 20.2321C81.5334 20.1482 81.5601 20.052 81.5601 19.9539C81.5601 19.8559 81.5334 19.7597 81.4828 19.6757C81.4323 19.5918 81.3598 19.5232 81.2731 19.4773C81.1775 19.4272 81.0991 19.3495 81.0482 19.2543C80.9972 19.1591 80.976 19.0508 80.9873 18.9434C80.9986 18.836 81.0419 18.7345 81.1115 18.652C81.1811 18.5695 81.2739 18.5098 81.3779 18.4806C81.4724 18.454 81.5578 18.402 81.6249 18.3304C81.692 18.2588 81.7383 18.1703 81.7588 18.0743C81.7793 17.9783 81.7733 17.8786 81.7413 17.7858C81.7093 17.693 81.6526 17.6107 81.5772 17.5478C81.4941 17.4789 81.4336 17.3866 81.4035 17.283C81.3734 17.1793 81.3751 17.0689 81.4085 16.9663C81.4418 16.8636 81.5051 16.7732 81.5904 16.707C81.6756 16.6407 81.7787 16.6015 81.8865 16.5945C81.9844 16.5881 82.0788 16.555 82.1594 16.4989C82.2399 16.4428 82.3036 16.3657 82.3436 16.276C82.3836 16.1863 82.3983 16.0874 82.3862 15.99C82.3741 15.8925 82.3356 15.8002 82.2749 15.7231C82.2074 15.6377 82.1674 15.5339 82.16 15.4253C82.1526 15.3167 82.1783 15.2084 82.2336 15.1147C82.2889 15.0209 82.3712 14.9461 82.4698 14.9001C82.5684 14.854 82.6787 14.8389 82.7861 14.8567C82.8825 14.8699 82.9807 14.8567 83.0702 14.8187C83.1598 14.7806 83.2373 14.719 83.2947 14.6404C83.3521 14.5618 83.3871 14.4691 83.3961 14.3722C83.4051 14.2753 83.3877 14.1778 83.3457 14.09C83.2984 13.9933 83.281 13.8847 83.2959 13.7781C83.3108 13.6716 83.3572 13.5718 83.4292 13.4919C83.5012 13.4119 83.5955 13.3553 83.7 13.3293C83.8044 13.3034 83.9143 13.3093 84.0153 13.3463C84.1075 13.38 84.207 13.3879 84.3033 13.3692C84.3996 13.3505 84.489 13.3059 84.5618 13.2402C84.6346 13.1744 84.6882 13.0901 84.7166 12.9962C84.745 12.9023 84.7473 12.8025 84.7232 12.7074C84.697 12.603 84.7027 12.4931 84.7394 12.3919C84.7762 12.2907 84.8424 12.2028 84.9296 12.1395C85.0167 12.0763 85.1208 12.0406 85.2284 12.0371C85.336 12.0335 85.4423 12.0622 85.5334 12.1196C85.6167 12.1715 85.7126 12.1998 85.8108 12.2015C85.9089 12.2031 86.0057 12.1781 86.0908 12.129C86.1758 12.0799 86.2459 12.0087 86.2936 11.9228C86.3412 11.837 86.3647 11.7398 86.3614 11.6417C86.358 11.5339 86.3869 11.4277 86.4445 11.3365C86.502 11.2454 86.5856 11.1736 86.6843 11.1304C86.7831 11.0873 86.8925 11.0747 86.9985 11.0943C87.1045 11.1139 87.2021 11.1648 87.2789 11.2404C87.3492 11.3088 87.4369 11.3568 87.5324 11.3791C87.628 11.4014 87.7278 11.3972 87.8211 11.3669C87.9144 11.3367 87.9978 11.2816 88.0621 11.2075C88.1264 11.1334 88.1693 11.0432 88.1862 10.9465C88.2044 10.8404 88.2541 10.7422 88.3286 10.6645C88.4032 10.5868 88.4994 10.5333 88.6047 10.5107C88.71 10.4882 88.8196 10.4977 88.9195 10.538C89.0194 10.5783 89.1049 10.6476 89.165 10.737C89.2196 10.8184 89.2954 10.8834 89.3843 10.9249C89.4731 10.9664 89.5716 10.983 89.6691 10.9727C89.7666 10.9625 89.8595 10.9258 89.9377 10.8667C90.0159 10.8076 90.0766 10.7283 90.1131 10.6373C90.153 10.5377 90.2216 10.4522 90.3103 10.3918C90.399 10.3314 90.5037 10.2989 90.611 10.2983C90.7183 10.2978 90.8234 10.3293 90.9127 10.3887C91.002 10.4482 91.0715 10.533 91.1124 10.6322Z" fill="#FFC727"/>
<path d="M98.6643 22.1572C99.8787 17.7059 97.2547 13.1129 92.8033 11.8985C88.352 10.6841 83.759 13.3081 82.5446 17.7595C81.3302 22.2108 83.9542 26.8038 88.4056 28.0182C92.8569 29.2326 97.4499 26.6086 98.6643 22.1572Z" fill="white"/>
<path d="M90.6009 27.7295C89.0638 27.7295 87.5612 27.2737 86.2831 26.4198C85.005 25.5658 84.0089 24.352 83.4207 22.9319C82.8325 21.5118 82.6786 19.9492 82.9784 18.4416C83.2783 16.934 84.0185 15.5492 85.1054 14.4623C86.1923 13.3754 87.5771 12.6352 89.0847 12.3354C90.5922 12.0355 92.1549 12.1894 93.575 12.7776C94.9951 13.3659 96.2089 14.362 97.0628 15.64C97.9168 16.9181 98.3726 18.4207 98.3726 19.9578C98.3706 22.0184 97.5511 23.994 96.0941 25.451C94.637 26.9081 92.6614 27.7275 90.6009 27.7295ZM90.6009 12.3803C89.1016 12.3803 87.6359 12.8249 86.3893 13.6579C85.1427 14.4909 84.1712 15.6749 83.5975 17.0602C83.0239 18.4454 82.8739 19.9696 83.1666 21.4401C83.4593 22.9105 84.1815 24.2612 85.2418 25.3212C86.3022 26.3812 87.6531 27.1029 89.1236 27.3951C90.5942 27.6873 92.1184 27.5368 93.5034 26.9627C94.8884 26.3886 96.0721 25.4166 96.9047 24.1698C97.7373 22.9229 98.1814 21.4571 98.1809 19.9578C98.1782 17.9485 97.3787 16.0223 95.9576 14.6018C94.5366 13.1812 92.6102 12.3823 90.6009 12.3803Z" fill="#FFC727"/>
<path d="M89.7423 24.6092L85.1626 20.0294L87.041 18.1485L89.7423 20.8498L98.3421 12.25L100.221 14.131L89.7423 24.6092Z" fill="#455A64"/>
<path d="M2.24414 76.8315H34.7572L28.2761 39.1202H3.96154L2.24414 76.8315Z" fill="#DBDBDB"/>
<path d="M2.24414 76.8315H5.0937L6.69354 39.1202H3.96154L2.24414 76.8315Z" fill="#A6A6A6"/>
<path d="M27.755 44.9983C31.8236 53.4319 41.4686 67.3577 45.5066 63.7261C51.5481 58.2979 55.4021 46.5572 56.9304 41.8139C57.7865 39.1535 44.2517 35.1258 43.4978 37.5383C42.4245 40.9706 40.7914 48.1187 39.7563 49.1538C39.212 49.6981 34.645 43.6566 31.2435 40.8249C26.3289 36.7435 26.4542 42.3072 27.755 44.9983Z" fill="#EB9481"/>
<path d="M59.7974 36.0892C59.2199 38.9745 55.7339 44.4129 54.3871 45.402C53.0403 46.391 43.5767 41.0395 43.362 39.3374C43.1473 37.6353 45.8768 27.8037 48.1769 25.8742C50.477 23.9447 60.3955 33.1016 59.7974 36.0892Z" fill="#EB9481"/>
<path d="M43.5768 37.3567C43.5768 37.3567 42.9276 33.5871 41.2767 30.6455C39.8915 28.1742 37.5531 24.6602 38.8539 23.8628C41.5271 22.2297 47.354 30.9982 47.354 30.9982C47.354 30.9982 49.304 35.2789 46.7994 37.1318C45.2175 38.292 43.5768 37.3567 43.5768 37.3567Z" fill="#EB9481"/>
<path d="M45.2354 29.5543C45.7669 31.0187 47.1904 29.5543 47.1904 29.5543C47.1904 29.5543 45.657 32.1534 46.779 33.4542C47.8702 34.7039 49.5289 32.8766 49.649 32.7463C49.5698 32.8843 48.2127 35.302 49.4854 36.5006C50.8067 37.7375 52.1561 35.6163 52.243 35.4783C52.2072 35.6316 51.7804 37.6813 52.9509 38.3662C54.9622 39.5418 56.2017 34.3308 57.8475 33.4108C57.8475 33.4108 59.7259 36.0227 59.7975 36.0866C59.7975 36.0866 61.0753 31.1541 59.7106 29.0023C59.5168 28.6863 59.2209 28.4459 58.8719 28.3209C58.5229 28.1959 58.1417 28.1937 57.7913 28.3148C57.7913 28.3148 58.3791 26.7814 57.4079 25.8026C56.9096 25.3068 55.6701 25.6646 55.6701 25.6646C55.6701 25.6646 56.0918 24.4098 55.1743 23.6022C54.4434 22.9556 53.3163 23.4156 53.3163 23.4156C53.3163 23.4156 53.1579 22.0202 52.1995 21.6036C50.2649 20.7577 44.1058 26.4134 45.2354 29.5543Z" fill="#EB9481"/>
<path d="M53.1276 23.4616C53.148 23.4463 53.1276 23.4105 53.1046 23.4259C50.6256 24.7906 48.3204 27.0498 47.1065 29.6259C47.0656 29.7102 47.1857 29.8124 47.247 29.7281C49.0053 27.313 50.7585 25.3094 53.1276 23.4616Z" fill="#263238"/>
<path d="M55.691 25.6262C55.7165 25.6084 55.691 25.5649 55.6526 25.5802C53.097 27.0037 50.5797 29.6207 49.5318 32.754C49.4935 32.8613 49.5702 32.9942 49.6213 32.8741C50.4774 30.8423 53.5442 27.2798 55.691 25.6262Z" fill="#263238"/>
<path d="M52.2459 35.7237C53.3678 32.7592 55.328 30.4514 57.6818 28.3711C57.7124 28.343 57.6818 28.3021 57.6383 28.3174C56.2097 29.0228 54.8475 30.5051 53.8866 31.7497C52.9709 32.8865 52.3691 34.2435 52.1411 35.6854C52.1334 35.7442 52.2203 35.7876 52.2459 35.7237Z" fill="#263238"/>
<path d="M47.1397 29.5646C47.0912 29.6668 47.2931 29.6259 47.2471 29.7281C47.0605 30.16 46.1583 32.8639 46.9915 33.4568C47.6534 33.9296 48.7498 33.37 49.0871 32.9892L49.933 32.0308L49.4551 33.2192C49.2455 33.7478 49.1238 34.3073 49.0948 34.8752C49.0659 35.1371 49.0929 35.4021 49.1739 35.6528C49.255 35.9034 49.3883 36.134 49.565 36.3294C49.7306 36.5093 49.9531 36.6268 50.1951 36.6622C50.437 36.6976 50.6838 36.6486 50.894 36.5236C51.3607 36.2351 51.7459 35.8322 52.0134 35.3531L52.7954 34.0574L52.481 35.532C52.3937 35.9425 52.3585 36.3624 52.3763 36.7818C52.3794 37.1794 52.4984 37.5675 52.7187 37.8986C52.8253 38.043 52.9699 38.1549 53.1365 38.2217C53.3031 38.2885 53.4849 38.3076 53.6618 38.2768C54.0455 38.1482 54.3849 37.9134 54.6406 37.5996C55.2072 36.928 55.7199 36.2127 56.174 35.4605C56.4295 35.0899 56.657 34.7168 56.9177 34.3539C57.1582 33.9762 57.4761 33.6539 57.8505 33.4083C57.5095 33.6915 57.2273 34.0388 57.0199 34.4305C56.7899 34.8062 56.5803 35.1972 56.3656 35.5831C55.9573 36.3823 55.4747 37.1413 54.9242 37.85C54.6323 38.2394 54.2324 38.5344 53.7742 38.6985C53.5152 38.7606 53.2437 38.7452 52.9934 38.6544C52.743 38.5635 52.5249 38.4011 52.366 38.1874C52.0778 37.7856 51.9166 37.3067 51.9035 36.8124C51.8736 36.346 51.9054 35.8777 51.998 35.4196L52.4657 35.5985C52.1605 36.1702 51.7101 36.6515 51.1598 36.9939C50.8513 37.1737 50.4902 37.2414 50.1375 37.1855C49.7907 37.1182 49.4725 36.9471 49.2251 36.6949C48.714 36.1965 48.5939 35.4707 48.6271 34.8548C48.6695 34.2307 48.8137 33.6178 49.0539 33.0403L49.4373 33.2754C48.9951 33.7456 47.8374 34.5072 46.718 33.9015C45.3661 32.8997 46.833 30.0655 47.1397 29.5646Z" fill="#263238"/>
<path d="M47.1904 29.5569C46.9261 29.7385 46.6357 29.8789 46.3292 29.9735C46.2069 30.0144 46.0759 30.022 45.9496 29.9955C45.8234 29.969 45.7065 29.9093 45.611 29.8227C45.4308 29.6037 45.3172 29.3376 45.2839 29.056C45.2302 28.7467 45.1919 28.4196 45.1664 28.0797C45.0229 28.3962 44.9472 28.7392 44.944 29.0866C44.9326 29.2776 44.9589 29.4689 45.0217 29.6496C45.0844 29.8303 45.1822 29.9968 45.3095 30.1396C45.4663 30.2787 45.6613 30.3677 45.8692 30.3951C46.0681 30.4126 46.2681 30.3745 46.4467 30.2852C46.7655 30.1274 47.026 29.8723 47.1904 29.5569Z" fill="#263238"/>
<path d="M42.6876 37.8193L56.9226 47.1475C56.9226 47.1475 49.0716 64.6537 43.9168 64.756C38.7621 64.8582 30.9545 52.1259 28.22 46.6108C25.4854 41.0957 26.8936 36.3064 32.2298 41.2618C37.566 46.2172 39.4853 48.2566 39.6412 48.1851C39.976 48.042 42.6876 37.8193 42.6876 37.8193Z" fill="#071952"/>
<path d="M56.9229 47.1475C56.9229 47.1475 51.4794 59.292 46.6798 63.4091C45.7189 64.2372 44.781 64.7406 43.9172 64.756C38.7624 64.8556 30.9549 52.1233 28.2178 46.6108C26.5234 43.1939 26.4288 40.0581 27.8549 39.3451C28.7366 38.9029 30.1984 39.3757 32.2302 41.2618C37.597 46.2479 39.4857 48.2566 39.6416 48.1825C39.9738 48.042 42.6905 37.8193 42.6905 37.8193L56.9229 47.1475Z" fill="#071952"/>
<path d="M53.6663 48.8597C53.2881 48.5658 52.8996 48.2796 52.5239 47.9933C51.7487 47.414 50.9709 46.8373 50.1906 46.2631C48.6419 45.1208 47.0625 44.0244 45.4703 42.9408C44.5656 42.3274 43.6813 41.6783 42.7485 41.1058C42.7397 41.0994 42.7287 41.0967 42.7179 41.0984C42.7071 41.1001 42.6975 41.106 42.691 41.1148C42.6846 41.1236 42.6819 41.1346 42.6836 41.1454C42.6853 41.1562 42.6912 41.1658 42.7 41.1723C43.4437 41.7933 44.2334 42.3555 45.0001 42.9433C45.7668 43.5311 46.5335 44.1215 47.3155 44.6965C48.8693 45.8346 50.4376 46.9481 52.0205 48.0368C52.4651 48.3434 52.8996 48.6706 53.3571 48.9568C53.5922 49.1025 53.8145 49.2686 54.0522 49.4117C54.2899 49.5548 54.5378 49.6826 54.7703 49.8334C54.7729 49.8351 54.7757 49.8362 54.7786 49.8368C54.7816 49.8374 54.7847 49.8374 54.7876 49.8368C54.7906 49.8362 54.7934 49.835 54.7959 49.8334C54.7985 49.8317 54.8006 49.8295 54.8023 49.827C54.804 49.8245 54.8051 49.8217 54.8057 49.8187C54.8063 49.8157 54.8063 49.8127 54.8057 49.8097C54.8051 49.8067 54.8039 49.8039 54.8023 49.8014C54.8006 49.7989 54.7984 49.7967 54.7959 49.7951C54.4177 49.496 54.0548 49.1638 53.6663 48.8597Z" fill="#263238"/>
<path d="M39.7637 47.8605C39.2692 49.313 38.8722 50.7968 38.5753 52.3022C38.4143 53.0459 38.2916 53.7973 38.1715 54.5461C38.043 55.2896 37.9653 56.041 37.939 56.795C37.939 56.8232 37.9773 56.8232 37.985 56.795C38.1945 56.0718 38.3453 55.3179 38.4961 54.5767C38.6469 53.8356 38.8053 53.0893 38.951 52.3431C39.2423 50.8531 39.5925 49.3709 39.8378 47.8732C39.8429 47.8272 39.779 47.817 39.7637 47.8605Z" fill="#263238"/>
<path opacity="0.1" d="M46.6798 63.4092C45.7189 64.2372 44.781 64.7406 43.9172 64.756C38.7624 64.8557 30.9549 52.1234 28.2178 46.6108C26.5234 43.1939 26.4288 40.0581 27.8549 39.3451L46.6798 63.4092Z" fill="black"/>
<path d="M38.4505 76.8314H4.9254C4.77717 76.1542 10.052 46.7897 21.3557 38.5196C23.8654 36.6846 28.3148 37.8653 29.5517 39.6492C35.7747 48.6144 38.4505 76.8314 38.4505 76.8314Z" fill="#EBEBEB"/>
<path d="M20.6149 38.7394C20.6149 38.7394 23.5743 51.7426 23.8784 52.8645C24.1826 53.9864 25.2789 76.8314 25.2789 76.8314H4.62158C4.62158 76.8314 9.27032 47.697 20.6149 38.7394Z" fill="#071952"/>
<path d="M29.5513 39.6492C29.5513 39.6492 30.847 49.6162 31.0003 50.1938C31.1537 50.7714 35.3986 76.8314 35.3986 76.8314H38.6162C38.6162 76.8314 35.8024 46.7104 29.5513 39.6492Z" fill="#071952"/>
<path d="M16.6503 42.5115C10.6087 51.0193 1.85563 66.2561 5.88845 68.9677C12.5332 73.4273 30.7678 74.6233 34.9386 74.7255C36.7276 74.769 39.1912 62.8008 37.8597 61.4106C36.5282 60.0203 17.4298 60.7691 17.187 59.6216C17.0464 58.9699 19.3823 52.9386 20.5656 45.7061C21.9303 37.3567 18.3549 40.1194 16.6503 42.5115Z" fill="#EB9481"/>
<path d="M34.6575 60.7487C34.6575 60.7487 40.1036 60.189 43.6841 59.982C45.6826 59.8721 49.1225 59.982 50.6278 60.5749C52.8768 61.4566 61.727 66.5807 60.531 68.753C59.4474 70.7209 52.404 65.354 52.404 65.354C52.404 65.354 59.9917 70.1408 58.2513 72.2696C56.5109 74.3985 49.3602 67.2733 49.3602 67.2733C49.3602 67.2733 57.045 72.3693 54.906 74.2784C53.2882 75.7223 46.4467 69.6373 46.4467 69.6373C46.4467 69.6373 53.0199 74.0611 51.42 75.6175C49.6541 77.3375 42.9864 72.1163 42.9864 72.1163C38.2533 75.3901 34.6626 75.0118 32.1376 74.4394C31.5268 74.3039 34.6575 60.7487 34.6575 60.7487Z" fill="#EB9481"/>
<path d="M49.8865 63.5342C50.7989 64.0633 51.724 64.5948 52.5853 65.2031C53.4465 65.8113 54.2873 66.4528 55.0873 67.1403C57.0526 68.8245 58.0186 70.1866 57.9496 70.11C56.3216 68.2724 53.2727 66.0439 52.4089 65.4331C51.5451 64.8223 50.7222 64.1757 49.8533 63.5649C49.8405 63.5496 49.8635 63.5215 49.8865 63.5342Z" fill="#263238"/>
<path d="M47.6304 66.6037C48.7651 67.332 49.9177 68.0119 51.0217 68.7888C52.1258 69.5657 53.6208 70.7004 54.661 71.5489C54.7402 71.6128 54.6814 71.7559 54.5971 71.692C53.5237 70.887 51.9392 69.7983 50.8556 69.006C49.772 68.2137 48.7191 67.3781 47.6099 66.6292C47.5921 66.619 47.6125 66.5935 47.6304 66.6037Z" fill="#263238"/>
<path d="M45.2203 68.891C47.0092 69.9133 48.6091 71.2652 50.1476 72.63C50.2243 72.6964 50.1476 72.7169 50.0607 72.6504C48.4455 71.3726 47.1856 70.3657 45.182 68.9524C45.1513 68.9319 45.1819 68.868 45.2203 68.891Z" fill="#263238"/>
<path d="M34.6655 60.0357L29.5542 75.4795C29.5542 75.4795 6.24403 72.5098 4.50874 68.3006C2.77344 64.0915 9.73505 51.3285 15.4981 43.4878C21.1691 35.7748 21.6495 40.9883 20.594 46.6389C19.5385 52.2895 17.5554 58.8728 17.8901 59.3201C18.2249 59.7673 34.6655 60.0357 34.6655 60.0357Z" fill="#071952"/>
<path d="M26.7098 73.2816C26.8912 72.8394 27.065 72.3948 27.2388 71.9475C27.5796 71.0445 27.9254 70.1407 28.2764 69.236C28.9588 67.4342 29.59 65.6197 30.2008 63.795C30.5458 62.7574 30.9317 61.73 31.2231 60.6796C31.2268 60.6691 31.2262 60.6576 31.2214 60.6475C31.2166 60.6374 31.208 60.6297 31.1975 60.626C31.187 60.6222 31.1755 60.6228 31.1654 60.6276C31.1553 60.6324 31.1476 60.641 31.1439 60.6515C30.7477 61.5332 30.418 62.4405 30.0628 63.3477C29.7076 64.255 29.3396 65.1367 28.9971 66.0516C28.3199 67.8406 27.6733 69.6628 27.0446 71.4824C26.8708 71.9935 26.674 72.5046 26.5335 73.0158C26.4542 73.2713 26.3546 73.5269 26.2779 73.808C26.2012 74.0892 26.1475 74.3473 26.0658 74.6131C26.0637 74.6188 26.0641 74.6252 26.0667 74.6307C26.0693 74.6362 26.0741 74.6404 26.0798 74.6425C26.0856 74.6445 26.0919 74.6442 26.0974 74.6415C26.1029 74.6389 26.1072 74.6342 26.1092 74.6284C26.2932 74.176 26.5156 73.7365 26.7098 73.2816Z" fill="#263238"/>
<path d="M29.9553 74.4162L29.5949 75.4973V75.5305H29.5566C27.3562 75.3312 25.166 75.0526 22.9834 74.7152C20.8009 74.3779 18.626 73.9792 16.4665 73.5013C14.3047 73.0379 12.1714 72.4499 10.0774 71.7405C9.02545 71.3834 8.00055 70.9512 7.01058 70.4473C6.51699 70.1906 6.04518 69.894 5.59986 69.5605C5.14197 69.2387 4.77205 68.8073 4.52393 68.3057C4.81268 68.7725 5.20649 69.1654 5.67397 69.4532C6.13428 69.7465 6.6171 70.0028 7.11792 70.2198C8.12132 70.6617 9.15058 71.0423 10.2 71.3597C12.2982 72.0063 14.4373 72.5251 16.5892 72.9953C18.741 73.4655 20.9006 73.8872 23.0652 74.2731C25.2299 74.659 27.4098 75.0552 29.5796 75.4129L29.531 75.4436L29.9553 74.4162Z" fill="#263238"/>
<path d="M34.4658 60.6389L34.6396 60.028L34.6652 60.0638C32.3651 60.1252 30.065 60.1507 27.7649 60.1277C25.4648 60.1047 23.1647 60.0587 20.8646 59.936C20.287 59.9028 19.7095 59.8645 19.1319 59.8083C18.8405 59.7776 18.5543 59.7495 18.2553 59.6958C18.1769 59.6831 18.0992 59.6661 18.0227 59.6447L17.8898 59.6013C17.8574 59.5861 17.8258 59.569 17.7953 59.5501C17.7652 59.5296 17.7392 59.5036 17.7186 59.4735C17.7048 59.4551 17.6929 59.4354 17.6828 59.4147C17.6813 59.4045 17.6813 59.3942 17.6828 59.384C17.6599 59.2835 17.6547 59.1797 17.6675 59.0773C17.6675 59.0007 17.6675 58.9214 17.6931 58.8499C17.8719 57.6845 18.1377 56.5728 18.4061 55.4483C18.9428 53.2044 19.5459 50.981 20.195 48.7678L18.792 55.5326C18.5722 56.6571 18.3166 57.7918 18.171 58.9087C18.171 58.9777 18.171 59.0416 18.1505 59.1106C18.1531 59.1514 18.1531 59.1924 18.1505 59.2332C18.1456 59.22 18.1396 59.2072 18.1326 59.1949C18.1198 59.1745 18.0841 59.1515 18.0943 59.1566C18.1174 59.1665 18.1413 59.1742 18.1658 59.1796C18.2221 59.1949 18.2885 59.2077 18.355 59.2205C18.6105 59.2665 18.9095 59.2946 19.1907 59.3201C19.758 59.3712 20.3305 59.4045 20.9055 59.4351C22.0504 59.4999 23.1988 59.5518 24.3505 59.591L27.7981 59.7239C30.0982 59.8057 32.3983 59.9079 34.6984 60.0178H34.7393V60.0536L34.4658 60.6389Z" fill="#263238"/>
<path d="M20.5451 50.1606C20.4144 50.5604 20.2431 50.9458 20.034 51.3107C19.8359 51.6837 19.5874 52.0277 19.2954 52.333C19.4743 51.9522 19.6634 51.5841 19.8653 51.2187C20.0676 50.851 20.2947 50.4975 20.5451 50.1606Z" fill="#263238"/>
<path d="M27.929 44.2212C25.9842 44.7758 22.4727 41.9211 21.0288 39.5521C20.9317 39.3885 21.3227 32.6799 21.2613 31.3433C21.2613 31.0698 29.741 33.0019 29.741 33.0019C29.741 33.0019 29.0433 35.8412 29.1609 38.172C29.1762 38.3662 29.8074 43.6973 27.929 44.2212Z" fill="#EB9481"/>
<path d="M21.146 35.5449C25.1149 38.3561 28.9816 37.2699 29.1554 37.2188C29.2212 35.7981 29.4179 34.3865 29.7432 33.002C29.7432 33.002 21.2508 31.0674 21.2636 31.3434C21.2917 31.9721 21.2227 33.7815 21.146 35.5449Z" fill="#263238"/>
<path d="M29.2939 26.6076C29.5111 28.5857 31.0828 30.0347 32.8309 29.8431C34.579 29.6514 35.798 27.8931 35.5808 25.915C35.3636 23.9369 33.7791 22.4879 32.0438 22.677C30.3085 22.8661 29.0766 24.627 29.2939 26.6076Z" fill="#455A64"/>
<path d="M28.2896 26.8428C28.5298 29.0458 30.2932 30.6584 32.2253 30.4463C34.1573 30.2342 35.5246 28.2766 35.2921 26.0736C35.0595 23.8706 33.2782 22.2605 31.3487 22.4854C29.4192 22.7103 28.0468 24.6424 28.2896 26.8428Z" fill="#C7C7C7"/>
<path d="M20.0909 21.2689C19.1657 24.2386 20.6838 32.8486 22.7897 34.7781C25.8411 37.5765 30.8655 37.873 33.25 34.198C35.5501 30.6354 33.3803 19.4518 31.0265 17.6961C27.5585 15.1072 21.4607 16.8808 20.0909 21.2689Z" fill="#EB9481"/>
<path d="M27.2463 26.6742C27.2463 26.6512 27.2054 26.71 27.2106 26.733C27.3409 27.308 27.392 27.9878 26.9039 28.2664C26.8885 28.2664 26.9039 28.3047 26.9167 28.2996C27.5377 28.1079 27.461 27.1981 27.2463 26.6742Z" fill="#263238"/>
<path d="M26.6124 26.1681C25.6693 26.2755 25.953 28.1564 26.8296 28.0568C27.7062 27.9571 27.4046 26.0787 26.6124 26.1681Z" fill="#263238"/>
<path d="M30.5916 26.2217C30.5916 26.1987 30.6427 26.2422 30.6453 26.2652C30.7143 26.8504 30.9008 27.5098 31.4477 27.6222C31.4656 27.6222 31.4682 27.6555 31.4477 27.6555C30.7986 27.6631 30.5635 26.7865 30.5916 26.2217Z" fill="#263238"/>
<path d="M31.021 25.5342C31.9461 25.3221 32.2988 27.1877 31.4452 27.3871C30.5916 27.5864 30.2441 25.7131 31.021 25.5342Z" fill="#263238"/>
<path d="M25.7414 25.4218C25.9777 25.3114 26.208 25.1886 26.4314 25.0538C26.6928 24.9583 26.9149 24.7785 27.0627 24.5427C27.0949 24.4599 27.0991 24.3689 27.0746 24.2835C27.0501 24.1981 26.9984 24.1231 26.9272 24.0699C26.6078 23.8629 26.2423 23.96 25.9177 24.1185C25.5842 24.2725 25.3207 24.5461 25.1791 24.8852C25.1521 24.9626 25.1479 25.0461 25.1671 25.1258C25.1863 25.2055 25.2281 25.278 25.2874 25.3346C25.3467 25.3912 25.421 25.4296 25.5016 25.445C25.5821 25.4605 25.6653 25.4524 25.7414 25.4218Z" fill="#263238"/>
<path d="M31.6035 24.4788C31.3466 24.4653 31.0907 24.438 30.8368 24.397C30.5626 24.4054 30.2933 24.3237 30.0701 24.1645C30.0087 24.1002 29.9704 24.0175 29.9612 23.9291C29.9519 23.8408 29.9722 23.7519 30.0189 23.6763C30.2362 23.3646 30.6119 23.316 30.9722 23.3416C31.3299 23.3615 31.668 23.5115 31.9229 23.7632C31.9781 23.825 32.0143 23.9014 32.0271 23.9832C32.0399 24.0651 32.0287 24.1489 31.9949 24.2245C31.9612 24.3001 31.9063 24.3644 31.8368 24.4095C31.7673 24.4546 31.6863 24.4787 31.6035 24.4788Z" fill="#263238"/>
<path d="M27.5633 32.1304C27.7243 32.2455 27.893 32.4116 28.1051 32.3988C28.3229 32.3576 28.5294 32.2705 28.7108 32.1432C28.7147 32.1408 28.7193 32.1398 28.7239 32.1404C28.7285 32.1409 28.7327 32.143 28.7359 32.1462C28.7392 32.1495 28.7412 32.1537 28.7418 32.1583C28.7423 32.1628 28.7413 32.1674 28.7389 32.1713C28.6731 32.2981 28.5742 32.4046 28.4527 32.4798C28.3312 32.5549 28.1917 32.5958 28.0489 32.5981C27.9254 32.5855 27.8085 32.5365 27.713 32.4574C27.6174 32.3782 27.5475 32.2724 27.5122 32.1534C27.513 32.1479 27.5152 32.1427 27.5186 32.1382C27.5219 32.1338 27.5264 32.1302 27.5315 32.1279C27.5365 32.1256 27.5421 32.1247 27.5477 32.1251C27.5533 32.1255 27.5586 32.1274 27.5633 32.1304Z" fill="#263238"/>
<path d="M27.9137 30.2955C28.0964 30.5035 28.3201 30.6714 28.5708 30.7889C28.8215 30.9063 29.0937 30.9706 29.3704 30.9779C29.6123 30.9867 29.8541 30.9608 30.0886 30.9012C30.1339 30.8935 30.1784 30.8815 30.2215 30.8654L30.3467 30.8271C30.3767 30.8161 30.4024 30.7958 30.4199 30.7691C30.4374 30.7424 30.4458 30.7107 30.4438 30.6788C30.4461 30.6593 30.4461 30.6396 30.4438 30.6201V30.569C30.3876 30.1166 30.2419 29.4419 30.2419 29.4419C30.4183 29.5007 31.3102 29.7486 31.2642 29.516C30.8553 27.5967 30.4004 25.4602 29.5877 23.638C29.5836 23.6241 29.5742 23.6124 29.5615 23.6055C29.5488 23.5985 29.5338 23.5969 29.5199 23.601C29.5061 23.605 29.4943 23.6144 29.4874 23.6271C29.4804 23.6398 29.4788 23.6548 29.4829 23.6687C29.8024 25.5292 30.4489 27.3233 30.7991 29.1889C30.4813 29.0946 30.1517 29.0464 29.8202 29.0458C29.7615 29.0739 30.1269 30.344 30.1371 30.5485V30.5715C29.3986 30.7811 28.7954 30.6405 27.9878 30.2444C27.9112 30.2086 27.8703 30.2546 27.9137 30.2955Z" fill="#263238"/>
<path d="M29.7891 30.7146C29.5907 31.0718 29.3038 31.3719 28.9559 31.5861C28.7632 31.6969 28.5409 31.7451 28.3196 31.7241C27.8366 31.673 27.7599 31.2462 27.7906 30.8679C27.8081 30.6676 27.8502 30.4702 27.9158 30.2802C28.4779 30.6211 29.1343 30.7733 29.7891 30.7146Z" fill="#263238"/>
<path d="M28.9559 31.5861C28.7632 31.6969 28.5409 31.7451 28.3196 31.7241C27.8366 31.673 27.7599 31.2462 27.7906 30.868C28.2966 30.845 28.8409 31.1082 28.9559 31.5861Z" fill="#FF99BA"/>
<path d="M20.3381 28.8259C22.4874 28.4093 22.1629 24.4251 22.1629 24.4251C22.1629 24.4251 25.7408 23.1191 25.7408 20.2389C25.7408 20.2389 29.6714 21.8081 32.2372 20.2875C34.8031 18.7668 33.6301 15.7563 33.1982 15.148C32.7663 14.5398 31.4757 16.0681 31.4757 16.0681C31.4757 16.0681 30.9645 14.3379 30.4534 14.2484C29.9423 14.159 29.6407 15.3218 29.6407 15.3218C29.6407 15.3218 25.8634 14.8107 22.6612 15.5084C19.459 16.2061 18.4776 19.7635 18.4776 19.7635C18.4776 19.7635 16.8266 20.4561 16.497 21.7697C16.1673 23.0833 18.9683 29.0891 20.3381 28.8259Z" fill="#263238"/>
<path d="M21.2993 24.6193C24.2256 24.4558 25.7615 22.1966 25.6439 19.3828C25.6426 19.3786 25.6423 19.3741 25.643 19.3698C25.6438 19.3654 25.6455 19.3613 25.6481 19.3578C25.6507 19.3542 25.6542 19.3513 25.6581 19.3493C25.662 19.3474 25.6664 19.3463 25.6708 19.3463C25.6752 19.3463 25.6795 19.3474 25.6835 19.3493C25.6874 19.3513 25.6908 19.3542 25.6934 19.3578C25.696 19.3613 25.6978 19.3654 25.6985 19.3698C25.6992 19.3741 25.6989 19.3786 25.6976 19.3828C26.0988 21.9385 24.2588 25.2378 21.284 24.7497C21.2227 24.7369 21.2227 24.6219 21.2993 24.6193Z" fill="#263238"/>
<path d="M18.5595 19.6972C18.5901 19.6818 18.6157 19.7304 18.5876 19.7483C17.8592 20.2722 16.998 20.7245 16.5737 21.5577C16.0626 22.5672 16.428 23.6942 16.8702 24.6449C17.5576 26.1221 18.7384 27.9826 20.2973 28.6292C20.3868 28.6675 20.3254 28.7979 20.236 28.7672C18.3882 28.1027 16.9136 25.6748 16.3488 23.8936C15.7048 21.9001 16.7552 20.4945 18.5595 19.6972Z" fill="#263238"/>
<path d="M29.0276 20.4409C30.4306 20.952 32.3039 20.6377 33.3722 19.5413C34.673 18.2072 34.0264 16.5358 33.1013 15.2171C33.0553 15.1507 33.1447 15.0561 33.2061 15.1149C34.3357 16.2164 34.7752 18.1306 33.753 19.4595C32.6975 20.8293 30.4868 21.2101 28.9407 20.6402C28.8129 20.5891 28.8998 20.3923 29.0276 20.4409Z" fill="#263238"/>
<path d="M21.8872 28.2867C21.8872 28.2867 19.904 25.5342 18.6517 26.2421C17.3994 26.95 18.9073 30.9624 20.4074 31.494C20.5937 31.5752 20.7944 31.6179 20.9975 31.6195C21.2007 31.621 21.402 31.5814 21.5895 31.5031C21.7769 31.4248 21.9466 31.3094 22.0882 31.1637C22.2299 31.0181 22.3406 30.8453 22.4136 30.6558L21.8872 28.2867Z" fill="#EB9481"/>
<path d="M19.1144 27.3846C19.1105 27.3861 19.1071 27.3887 19.1047 27.3921C19.1024 27.3956 19.1011 27.3996 19.1011 27.4038C19.1011 27.408 19.1024 27.4121 19.1047 27.4155C19.1071 27.4189 19.1105 27.4215 19.1144 27.423C20.1597 27.8293 20.7194 28.7851 21.118 29.7793C20.8037 29.3985 20.3795 29.1941 19.8709 29.5672C19.8428 29.5876 19.8709 29.6311 19.899 29.6234C20.0805 29.5633 20.2761 29.5608 20.4591 29.6162C20.6421 29.6715 20.8035 29.782 20.9213 29.9326C21.1213 30.1856 21.2927 30.4598 21.4324 30.7504C21.4835 30.8424 21.6496 30.7913 21.6138 30.684V30.661C21.5985 29.3372 20.5379 27.4971 19.1144 27.3846Z" fill="#263238"/>
<path d="M19.72 26.3419C19.72 26.3419 18.6492 22.0688 19.4824 19.4416C20.4126 16.5282 24.2538 13.9393 29.6539 15.3117C29.6539 15.3117 23.4615 15.4829 21.2202 19.3241C20.198 21.09 21.1793 26.186 21.1793 26.186L19.72 26.3419Z" fill="#C7C7C7"/>
<path d="M24.1697 27.796C24.5914 29.9965 23.3672 32.0793 21.4377 32.4499C19.5082 32.8205 17.6042 31.3356 17.1774 29.1275C16.7506 26.9195 17.9799 24.8417 19.912 24.4737C21.8441 24.1057 23.748 25.5956 24.1697 27.796Z" fill="#C7C7C7"/>
<path d="M23.1316 27.8651C23.5099 29.8432 22.4109 31.7165 20.6756 32.0487C18.9404 32.381 17.2255 31.0469 16.8422 29.0688C16.4588 27.0907 17.5629 25.2175 19.2981 24.8852C21.0334 24.553 22.7483 25.887 23.1316 27.8651Z" fill="#455A64"/>
<path d="M67.7891 75.4691H33.6787V77H67.7891V75.4691Z" fill="#455A64"/>
<path d="M67.7919 75.4691H50.623V77H67.7919V75.4691Z" fill="#37474F"/>
<path d="M51.6631 76.9974H84.9071L89.2542 54.4182H56.0103L51.6631 76.9974Z" fill="#37474F"/>
<path d="M53.0151 76.9974H86.2591L90.6063 54.4182H57.3623L53.0151 76.9974Z" fill="#455A64"/>
<path d="M69.7878 65.7064C69.7595 65.964 69.7863 66.2246 69.8665 66.471C69.9468 66.7174 70.0785 66.9439 70.2531 67.1353C70.4277 67.3268 70.641 67.4789 70.8789 67.5816C71.1169 67.6842 71.3739 67.735 71.633 67.7305C72.1841 67.7214 72.7126 67.5102 73.1182 67.137C73.5239 66.7639 73.7784 66.2548 73.8334 65.7064C73.8618 65.449 73.835 65.1884 73.7547 64.9422C73.6745 64.6959 73.5426 64.4696 73.368 64.2783C73.1934 64.087 72.98 63.9351 72.7421 63.8328C72.5042 63.7305 72.2472 63.6801 71.9882 63.6849C71.4377 63.6945 70.9098 63.9055 70.5043 64.278C70.0989 64.6505 69.844 65.1587 69.7878 65.7064Z" fill="white"/>
<path d="M97.4476 56.5856C100.785 59.8517 101.345 64.9068 100.642 69.3357C100.624 69.4354 100.468 69.4073 100.468 69.3127C100.468 68.3058 100.499 67.3065 100.497 66.3098C100.479 66.2664 100.463 66.2229 100.443 66.1769C99.5739 65.5431 98.7714 64.8275 98.2757 63.8462C97.7185 62.7498 97.509 61.5154 97.0719 60.3705C97.0336 60.2606 97.1512 60.2913 97.2278 60.3475C99.257 61.8451 99.9036 63.4577 100.486 65.6096C100.474 64.4833 100.356 63.3608 100.134 62.2566C99.694 60.212 98.8277 58.188 97.3582 56.6724C97.3466 56.6606 97.3403 56.6446 97.3406 56.6281C97.3408 56.6116 97.3476 56.5958 97.3595 56.5843C97.3713 56.5728 97.3873 56.5664 97.4038 56.5667C97.4203 56.5669 97.4361 56.5737 97.4476 56.5856Z" fill="#263238"/>
<path d="M96.8193 56.9663C96.2468 56.9842 95.8864 57.9017 95.4392 58.1701C95.3924 58.2085 95.3379 58.2367 95.2795 58.2526C95.221 58.2685 95.1598 58.2719 95.0999 58.2625C95.0401 58.253 94.9829 58.2311 94.9321 58.198C94.8813 58.1649 94.8382 58.1214 94.8054 58.0704C94.3607 57.4519 94.969 56.6878 95.5414 56.261C95.1325 56.4297 94.7926 56.7261 94.3531 56.8079C94.2966 56.8264 94.2369 56.8325 94.1779 56.8259C94.1189 56.8192 94.0621 56.8 94.0112 56.7695C93.9603 56.7389 93.9165 56.6978 93.8829 56.6489C93.8493 56.5999 93.8266 56.5444 93.8164 56.4859C93.6221 55.6425 94.6802 55.2668 95.406 55.2489C95.0533 55.0062 94.0438 54.3391 94.5805 54.012C95.1172 53.6849 96.3081 54.6356 96.694 54.9499C97.2614 55.4099 97.9386 56.0974 97.9719 56.8181C97.9974 57.6589 97.2614 57.1427 96.8193 56.9663Z" fill="#515151"/>
<path opacity="0.1" d="M96.8193 56.9663C96.2468 56.9842 95.8864 57.9017 95.4392 58.1701C95.3924 58.2085 95.3379 58.2367 95.2795 58.2526C95.221 58.2685 95.1598 58.2719 95.0999 58.2625C95.0401 58.253 94.9829 58.2311 94.9321 58.198C94.8813 58.1649 94.8382 58.1214 94.8054 58.0704C94.3607 57.4519 94.969 56.6878 95.5414 56.261C95.1325 56.4297 94.7926 56.7261 94.3531 56.8079C94.2966 56.8264 94.2369 56.8325 94.1779 56.8259C94.1189 56.8192 94.0621 56.8 94.0112 56.7695C93.9603 56.7389 93.9165 56.6978 93.8829 56.6489C93.8493 56.5999 93.8266 56.5444 93.8164 56.4859C93.6221 55.6425 94.6802 55.2668 95.406 55.2489C95.0533 55.0062 94.0438 54.3391 94.5805 54.012C95.1172 53.6849 96.3081 54.6356 96.694 54.9499C97.2614 55.4099 97.9386 56.0974 97.9719 56.8181C97.9974 57.6589 97.2614 57.1427 96.8193 56.9663Z" fill="black"/>
<path d="M96.9901 57.1069C96.2566 56.7722 94.8459 57.2526 94.7258 56.9766C94.483 56.4093 95.61 56.0233 96.2183 55.9543C95.6586 55.8036 94.5852 55.5608 94.6184 55.0215C94.6593 54.3622 96.2643 54.9295 97.077 55.5506C98.0992 56.3377 98.0992 57.0839 97.9254 57.2475C97.6878 57.4468 97.1076 57.1632 96.9901 57.1069Z" fill="#515151"/>
<path d="M105.048 56.2609C101.588 59.3993 100.837 64.439 101.371 68.8807C101.386 68.9804 101.542 68.96 101.547 68.8654C101.585 67.8585 101.591 66.8592 101.631 65.8651L101.69 65.7322C102.585 65.1316 103.413 64.4543 103.944 63.4858C104.542 62.4124 104.811 61.1857 105.278 60.0586C105.322 59.9487 105.204 59.9768 105.125 60.0305C103.04 61.4489 102.332 63.036 101.667 65.1648C101.724 64.0398 101.885 62.9224 102.148 61.8271C102.659 59.8031 103.61 57.8122 105.133 56.3529C105.145 56.3417 105.152 56.3262 105.153 56.3096C105.154 56.2931 105.148 56.2769 105.137 56.2647C105.125 56.2525 105.11 56.2453 105.093 56.2446C105.077 56.2438 105.061 56.2497 105.048 56.2609Z" fill="#263238"/>
<path d="M105.662 56.6647C106.234 56.7056 106.559 57.6384 106.996 57.9221C107.041 57.9622 107.095 57.9921 107.152 58.0101C107.21 58.0281 107.271 58.0336 107.331 58.0264C107.391 58.0192 107.449 57.9993 107.501 57.9681C107.553 57.9369 107.598 57.8951 107.632 57.8455C108.1 57.2449 107.52 56.4577 106.965 56.0105C107.366 56.1945 107.696 56.5012 108.133 56.6034C108.189 56.6237 108.248 56.6319 108.307 56.6274C108.367 56.6229 108.424 56.6058 108.476 56.5772C108.528 56.5487 108.574 56.5093 108.609 56.4618C108.645 56.4143 108.67 56.3598 108.683 56.3018C108.907 55.4661 107.865 55.0496 107.149 55.0061C107.512 54.7736 108.545 54.1474 108.021 53.7999C107.497 53.4523 106.273 54.357 105.874 54.656C105.289 55.093 104.596 55.7549 104.535 56.4756C104.458 57.3139 105.212 56.8257 105.662 56.6647Z" fill="#515151"/>
<path opacity="0.1" d="M105.662 56.6647C106.234 56.7056 106.559 57.6384 106.996 57.9221C107.041 57.9622 107.095 57.9921 107.152 58.0101C107.21 58.0281 107.271 58.0336 107.331 58.0264C107.391 58.0192 107.449 57.9993 107.501 57.9681C107.553 57.9369 107.598 57.8951 107.632 57.8455C108.1 57.2449 107.52 56.4577 106.965 56.0105C107.366 56.1945 107.696 56.5012 108.133 56.6034C108.189 56.6237 108.248 56.6319 108.307 56.6274C108.367 56.6229 108.424 56.6058 108.476 56.5772C108.528 56.5487 108.574 56.5093 108.609 56.4618C108.645 56.4143 108.67 56.3598 108.683 56.3018C108.907 55.4661 107.865 55.0496 107.149 55.0061C107.512 54.7736 108.545 54.1474 108.021 53.7999C107.497 53.4523 106.273 54.357 105.874 54.656C105.289 55.093 104.596 55.7549 104.535 56.4756C104.458 57.3139 105.212 56.8257 105.662 56.6647Z" fill="black"/>
<path d="M105.49 56.8003C106.236 56.4962 107.627 57.0278 107.757 56.7543C108.013 56.1997 106.911 55.7704 106.305 55.6707C106.87 55.5404 107.951 55.341 107.941 54.7992C107.926 54.1373 106.298 54.6433 105.462 55.2362C104.409 55.9825 104.386 56.739 104.55 56.8974C104.775 57.1146 105.365 56.8514 105.49 56.8003Z" fill="#515151"/>
<path d="M101.512 64.549C101.277 66.2276 100.918 67.8865 100.438 69.5121C100.428 69.5402 100.408 69.5638 100.382 69.5784C100.356 69.5931 100.325 69.598 100.296 69.5921C100.267 69.5862 100.24 69.57 100.222 69.5464C100.204 69.5228 100.194 69.4934 100.196 69.4635C100.423 67.9301 100.837 66.4325 101.064 64.9042C101.309 63.3564 101.395 61.7875 101.32 60.2223C101.174 57.6462 100.474 54.9039 98.7925 52.8875C98.7567 52.8415 98.8334 52.7725 98.8717 52.8185C102.237 56.744 101.703 61.5563 101.701 61.9857C102.176 60.3603 102.667 58.4997 104.471 56.8437C104.548 56.7721 104.609 56.8079 104.596 56.928C104.274 59.9411 103.436 61.5282 101.688 63.1255C101.647 63.6042 101.588 64.0787 101.512 64.549Z" fill="#263238"/>
<path d="M98.7791 53.3399C98.1734 53.0715 97.3377 53.851 96.7346 53.8944C96.6668 53.9084 96.5969 53.9085 96.5291 53.8946C96.4613 53.8808 96.397 53.8533 96.3401 53.8139C96.2832 53.7745 96.2349 53.7239 96.1982 53.6653C96.1614 53.6066 96.137 53.5411 96.1263 53.4728C95.9781 52.6064 96.9952 52.1208 97.8028 51.9649C97.2917 51.9343 96.7933 52.0697 96.2924 51.9368C96.2245 51.9273 96.1594 51.9034 96.1016 51.8667C96.0437 51.83 95.9943 51.7813 95.9568 51.7239C95.9193 51.6666 95.8944 51.6018 95.884 51.5341C95.8736 51.4663 95.8778 51.3971 95.8963 51.3311C96.1212 50.3574 97.4067 50.5005 98.1708 50.8481C97.928 50.4162 97.215 49.2201 97.9357 49.1486C98.6564 49.077 99.4154 50.6641 99.6582 51.1931C100.016 51.9598 100.371 53.0102 100.034 53.7718C99.6429 54.6535 99.142 53.7462 98.7791 53.3399Z" fill="#515151"/>
<path opacity="0.1" d="M98.7791 53.3399C98.1734 53.0715 97.3377 53.851 96.7346 53.8944C96.6668 53.9084 96.5969 53.9085 96.5291 53.8946C96.4613 53.8808 96.397 53.8533 96.3401 53.8139C96.2832 53.7745 96.2349 53.7239 96.1982 53.6653C96.1614 53.6066 96.137 53.5411 96.1263 53.4728C95.9781 52.6064 96.9952 52.1208 97.8028 51.9649C97.2917 51.9343 96.7933 52.0697 96.2924 51.9368C96.2245 51.9273 96.1594 51.9034 96.1016 51.8667C96.0437 51.83 95.9943 51.7813 95.9568 51.7239C95.9193 51.6666 95.8944 51.6018 95.884 51.5341C95.8736 51.4663 95.8778 51.3971 95.8963 51.3311C96.1212 50.3574 97.4067 50.5005 98.1708 50.8481C97.928 50.4162 97.215 49.2201 97.9357 49.1486C98.6564 49.077 99.4154 50.6641 99.6582 51.1931C100.016 51.9598 100.371 53.0102 100.034 53.7718C99.6429 54.6535 99.142 53.7462 98.7791 53.3399Z" fill="black"/>
<path d="M98.8737 53.5699C98.2808 52.8543 96.5736 52.6422 96.589 52.2921C96.6222 51.5842 97.9869 51.7477 98.6565 51.9752C98.1454 51.5356 97.1589 50.7459 97.4656 50.2015C97.8387 49.5371 99.2213 50.935 99.7503 51.9905C100.417 53.3194 100.029 54.104 99.7759 54.1756C99.4309 54.2778 98.9708 53.69 98.8737 53.5699Z" fill="#515151"/>
<path d="M103.724 65.4563L105.209 76.8008H96.1748C96.3614 75.7939 98.043 65.4435 98.043 65.4435L103.724 65.4563Z" fill="#515151"/>
<rect x="22.291" y="0.425293" width="30.7235" height="9.36335" fill="#D9D9D9"/>
<path d="M30.2759 4.60583H32.0759V5.03083H30.2759V4.60583ZM30.3209 6.16083H32.3609V6.59583H29.8209V3.09582H32.2909V3.53083H30.3209V6.16083ZM32.6569 6.59583L33.7969 5.11583L33.7919 5.36083L32.7069 3.94583H33.2419L34.0719 5.03583H33.8669L34.6969 3.94583H35.2219L34.1219 5.37083L34.1269 5.11583L35.2769 6.59583H34.7319L33.8569 5.43583L34.0519 5.46583L33.1919 6.59583H32.6569ZM37.2057 6.62583C36.9857 6.62583 36.784 6.57583 36.6007 6.47583C36.4207 6.37249 36.2757 6.22083 36.1657 6.02083C36.059 5.82083 36.0057 5.57083 36.0057 5.27083C36.0057 4.97083 36.0574 4.72083 36.1607 4.52083C36.2674 4.32083 36.4107 4.17083 36.5907 4.07083C36.774 3.97083 36.979 3.92083 37.2057 3.92083C37.4657 3.92083 37.6957 3.97749 37.8957 4.09082C38.0957 4.20416 38.254 4.36249 38.3707 4.56583C38.4874 4.76583 38.5457 5.00083 38.5457 5.27083C38.5457 5.54083 38.4874 5.77749 38.3707 5.98083C38.254 6.18416 38.0957 6.34249 37.8957 6.45583C37.6957 6.56916 37.4657 6.62583 37.2057 6.62583ZM35.8007 7.56583V3.94583H36.2607V4.66083L36.2307 5.27583L36.2807 5.89083V7.56583H35.8007ZM37.1657 6.20583C37.3357 6.20583 37.4874 6.16749 37.6207 6.09083C37.7574 6.01416 37.864 5.90583 37.9407 5.76583C38.0207 5.62249 38.0607 5.45749 38.0607 5.27083C38.0607 5.08083 38.0207 4.91749 37.9407 4.78083C37.864 4.64083 37.7574 4.53249 37.6207 4.45583C37.4874 4.37916 37.3357 4.34083 37.1657 4.34083C36.999 4.34083 36.8474 4.37916 36.7107 4.45583C36.5774 4.53249 36.4707 4.64083 36.3907 4.78083C36.314 4.91749 36.2757 5.08083 36.2757 5.27083C36.2757 5.45749 36.314 5.62249 36.3907 5.76583C36.4707 5.90583 36.5774 6.01416 36.7107 6.09083C36.8474 6.16749 36.999 6.20583 37.1657 6.20583ZM40.3889 6.62583C40.1056 6.62583 39.8556 6.56749 39.6389 6.45083C39.4256 6.33416 39.2589 6.17416 39.1389 5.97083C39.0222 5.76749 38.9639 5.53416 38.9639 5.27083C38.9639 5.00749 39.0206 4.77416 39.1339 4.57083C39.2506 4.36749 39.4089 4.20916 39.6089 4.09583C39.8122 3.97916 40.0406 3.92083 40.2939 3.92083C40.5506 3.92083 40.7772 3.97749 40.9739 4.09082C41.1706 4.20416 41.3239 4.36416 41.4339 4.57083C41.5472 4.77416 41.6039 5.01249 41.6039 5.28583C41.6039 5.30583 41.6022 5.32916 41.5989 5.35583C41.5989 5.38249 41.5972 5.40749 41.5939 5.43083H39.3389V5.08583H41.3439L41.1489 5.20583C41.1522 5.03583 41.1172 4.88416 41.0439 4.75083C40.9706 4.61749 40.8689 4.51416 40.7389 4.44083C40.6122 4.36416 40.4639 4.32583 40.2939 4.32583C40.1272 4.32583 39.9789 4.36416 39.8489 4.44083C39.7189 4.51416 39.6172 4.61916 39.5439 4.75583C39.4706 4.88916 39.4339 5.04249 39.4339 5.21583V5.29583C39.4339 5.47249 39.4739 5.63083 39.5539 5.77083C39.6372 5.90749 39.7522 6.01416 39.8989 6.09083C40.0456 6.16749 40.2139 6.20583 40.4039 6.20583C40.5606 6.20583 40.7022 6.17916 40.8289 6.12583C40.9589 6.07249 41.0722 5.99249 41.1689 5.88583L41.4339 6.19583C41.3139 6.33583 41.1639 6.44249 40.9839 6.51583C40.8072 6.58916 40.6089 6.62583 40.3889 6.62583ZM42.2704 6.59583V3.94583H42.7304V4.66583L42.6854 4.48583C42.7588 4.30249 42.8821 4.16249 43.0554 4.06582C43.2288 3.96916 43.4421 3.92083 43.6954 3.92083V4.38583C43.6754 4.38249 43.6554 4.38083 43.6354 4.38083C43.6188 4.38083 43.6021 4.38083 43.5854 4.38083C43.3288 4.38083 43.1254 4.45749 42.9754 4.61083C42.8254 4.76416 42.7504 4.98583 42.7504 5.27583V6.59583H42.2704ZM45.3045 6.62583C45.0378 6.62583 44.8311 6.55416 44.6845 6.41083C44.5378 6.26749 44.4645 6.06249 44.4645 5.79583V3.36583H44.9445V5.77583C44.9445 5.91916 44.9795 6.02916 45.0495 6.10583C45.1228 6.18249 45.2261 6.22083 45.3595 6.22083C45.5095 6.22083 45.6345 6.17916 45.7345 6.09583L45.8845 6.44083C45.8111 6.50416 45.7228 6.55083 45.6195 6.58083C45.5195 6.61083 45.4145 6.62583 45.3045 6.62583ZM44.0145 4.34083V3.94583H45.7045V4.34083H44.0145Z" fill="black"/>
</svg>
